<?xml version="1.0" encoding="utf-8"?>
<!-- Generator: Adobe Illustrator 25.2.0, SVG Export Plug-In . SVG Version: 6.00 Build 0)  -->
<svg version="1.1" id="Layer_1" xmlns="http://www.w3.org/2000/svg" xmlns:xlink="http://www.w3.org/1999/xlink" x="0px" y="0px"
	 viewBox="0 0 1903.6 1032.2" style="enable-background:new 0 0 1903.6 1032.2;" xml:space="preserve">
<style type="text/css">
	.st0{fill:#95AF9F;}
	.st1{clip-path:url(#SVGID_2_);}
	.st2{fill:#8CB2BE;}
	.st3{fill:#E9E4D2;}
	.st4{fill:#322B1B;}
	.st5{fill:#967C58;}
	.st6{fill:#B6C475;}
	.st7{fill:#92A141;}
	.st8{fill:none;stroke:#322B1B;stroke-miterlimit:10;}
</style>
<path class="st0" d="M97.5,934.3c8.9,0,13.5-6.9,13.5-13.8c0-3.6-1.3-6.9-3.3-9.4c-2.5-2.8-5.9-4.3-10.2-4.3
	c-8.9,0-13.5,6.9-13.5,13.8C84,927.2,88.6,934.3,97.5,934.3z M97.5,911.4c6.1,0,8.7,4.6,8.7,9.2c0,2.3-0.8,4.8-2.3,6.4
	c-1.5,1.8-3.8,2.8-6.6,2.8c-6.1,0-8.7-4.6-8.7-9.2c0-2.3,0.8-4.8,2.3-6.4C92.4,912.1,94.7,911.4,97.5,911.4z"/>
<path class="st0" d="M102.4,983.3c8.9,0,13.5-6.9,13.5-13.8c0-6.9-4.6-13.8-13.5-13.8c-8.9,0-13.5,6.9-13.5,13.8
	C88.9,976.2,93.5,983.3,102.4,983.3z M102.4,960.4c6.1,0,8.7,4.6,8.7,9.2c0,2.3-0.8,4.8-2.3,6.4c-1.5,1.8-3.8,2.8-6.6,2.8
	c-6.1,0-8.7-4.6-8.7-9.2C93.5,965,96.3,960.4,102.4,960.4z"/>
<path class="st0" d="M56,950.2c8.9,0,13.5-6.9,13.5-13.8c0-6.9-4.6-13.8-13.5-13.8c-8.9,0-13.5,6.9-13.5,13.8
	C42.5,943.3,47.1,950.2,56,950.2z M56,927.2c6.1,0,8.7,4.6,8.7,9.2c0,4.6-2.8,9.2-8.7,9.2c-6.1,0-8.7-4.6-8.7-9.2
	c0-2.3,0.8-4.8,2.3-6.4C50.9,928.2,53.2,927.2,56,927.2z"/>
<path class="st0" d="M61.8,905c8.9,0,13.5-6.9,13.5-13.8c0-6.9-4.6-13.8-13.5-13.8c-8.9,0-13.5,6.9-13.5,13.8
	C48.3,898.1,52.9,905,61.8,905z M61.8,882c6.1,0,8.7,4.6,8.7,9.2c0,2.3-0.8,4.8-2.3,6.4c-1.5,1.8-3.8,2.8-6.6,2.8
	c-6.1,0-8.7-4.6-8.7-9.2C53.2,886.6,55.7,882,61.8,882z"/>
<path class="st0" d="M109.3,888.4c8.9,0,13.5-6.9,13.5-13.8c0-6.9-4.6-13.8-13.5-13.8s-13.5,6.9-13.5,13.8
	C95.8,881.5,100.3,888.4,109.3,888.4z M109.3,865.4c6.1,0,8.7,4.6,8.7,9.2c0,2.3-0.8,4.8-2.3,6.4c-1.5,1.8-3.8,2.8-6.6,2.8
	c-6.1,0-8.7-4.6-8.7-9.2C100.4,870,103.2,865.4,109.3,865.4z"/>
<path class="st0" d="M140.1,917.7c8.9,0,13.5-6.9,13.5-13.8c0-6.9-4.6-13.8-13.5-13.8c-8.9,0-13.5,6.9-13.5,13.8
	C126.6,910.9,131.2,917.7,140.1,917.7z M140.1,894.8c6.1,0,8.7,4.6,8.7,9.2c0,4.6-2.8,9.2-8.7,9.2c-6.1,0-8.7-4.6-8.7-9.2
	c0-2.3,0.8-4.8,2.3-6.4C135,895.8,137.3,894.8,140.1,894.8z"/>
<path class="st0" d="M142.7,958.3c8.9,0,13.5-6.9,13.5-13.8c0-6.9-4.6-13.8-13.5-13.8c-8.9,0-13.5,6.9-13.5,13.8
	C129.2,951.2,134,958.3,142.7,958.3z M142.7,935.4c6.1,0,8.7,4.6,8.7,9.2c0,4.6-2.8,9.2-8.7,9.2c-6.1,0-8.7-4.6-8.7-9.2
	c0-2.3,0.8-4.8,2.3-6.4C137.6,936.1,139.9,935.4,142.7,935.4z"/>
<path class="st0" d="M146,1011.4c8.9,0,13.5-6.9,13.5-13.8c0-3.6-1.3-6.9-3.3-9.4c-2.6-2.8-5.9-4.3-10.2-4.3
	c-8.9,0-13.5,6.9-13.5,13.8C132.5,1004.5,137.1,1011.4,146,1011.4z M146,988.4c6.1,0,8.7,4.6,8.7,9.2c0,2.3-0.8,4.8-2.3,6.4
	c-1.5,1.8-3.8,2.8-6.6,2.8c-6.1,0-8.7-4.6-8.7-9.2S139.9,988.4,146,988.4z"/>
<path class="st0" d="M91.4,1024.2c2,0,3.6-0.5,5.1-1.3c1.5-0.5,3.1-1.5,4.3-2.8c1.3-1.3,2.3-2.8,2.8-4.6c0.8-1.3,1.3-3.3,1-5.4v-1
	c0-2.6-0.8-4.8-1.8-6.9l-2-2.6c-2-2-4.1-3.1-6.4-3.8l-3.3-0.5c-2.3,0-4.1,0.3-5.9,1.3c-1.5,0.5-3.1,1.5-4.3,2.8
	c-1.3,1.3-2.3,2.6-2.8,4.3c-0.8,1.8-1.3,3.6-1.3,5.4v1c0,2.6,0.8,4.8,1.8,6.9l2,2.6c2,2,4.1,3.1,6.4,3.8l3.3,0.5
	C90.9,1024.2,91.2,1024.2,91.4,1024.2z M90.7,1000.2h0.3l2.8,0.5c1.3,0.3,2.5,1,3.8,2.3l1.5,2c0.8,1.3,1,2.8,1,4.3v1
	c0,1.3-0.3,2.3-0.8,3.3c-0.5,1.5-1,2.3-1.8,3.1c-1,1-1.8,1.5-2.8,1.8c-1.3,0.8-2.3,0.8-3.6,0.8l-2.8-0.5c-1.3-0.2-2.5-1-3.8-2.3
	l-1.5-2c-0.8-1.3-1-2.8-1-4.3v-1c0-1.3,0.3-2.3,0.8-3.3l0.3-0.3c0.3-1,1-2,1.8-2.8c1-1,1.8-1.5,2.8-1.8
	C88.6,1000.4,89.6,1000.2,90.7,1000.2z"/>
<path class="st0" d="M52.9,1000.7c8.9,0,13.5-6.9,13.5-13.8c0-3.6-1.3-6.9-3.3-9.4c-2.5-2.8-5.9-4.3-10.2-4.3
	c-8.9,0-13.5,6.9-13.5,13.8C39.4,993.8,44,1000.7,52.9,1000.7z M52.9,977.7c6.1,0,8.7,4.6,8.7,9.2c0,2.3-0.8,4.8-2.3,6.4
	c-1.5,1.8-3.8,2.8-6.6,2.8c-6.1,0-8.7-4.6-8.7-9.2C44,982.3,46.8,977.7,52.9,977.7z"/>
<path class="st0" d="M21.3,951.9c8.9,0,13.5-6.9,13.5-13.8c0-6.9-4.6-13.8-13.5-13.8c-8.9,0-13.5,6.9-13.5,13.8
	C8,944.8,12.6,951.9,21.3,951.9z M21.3,929c6.1,0,8.7,4.6,8.7,9.2c0,2.3-0.8,4.8-2.3,6.4c-1.5,1.8-3.8,2.8-6.6,2.8
	c-6.1,0-8.7-4.6-8.7-9.2C12.6,933.6,15.4,929,21.3,929z"/>
<path class="st0" d="M20.8,900.6c8.9,0,13.5-6.9,13.5-13.8c0-6.9-4.6-13.8-13.5-13.8c-8.9,0-13.5,6.9-13.5,13.8
	C7.5,893.8,12.1,900.6,20.8,900.6z M20.8,877.7c6.1,0,8.7,4.6,8.7,9.2c0,4.6-2.8,9.2-8.7,9.2c-6.1,0-8.7-4.6-8.7-9.2
	c0-2.3,0.8-4.8,2.3-6.4C16,878.7,18.2,877.7,20.8,877.7z"/>
<path class="st0" d="M75.6,867.7c8.9,0,13.5-6.9,13.5-13.8c0-3.6-1.3-6.9-3.3-9.4c-2.5-2.8-5.9-4.3-10.2-4.3
	c-8.9,0-13.5,6.9-13.5,13.8C62.4,860.8,66.9,867.7,75.6,867.7z M75.6,844.8c6.1,0,8.7,4.6,8.7,9.2c0,2.3-0.8,4.8-2.3,6.4
	c-1.5,1.8-3.8,2.8-6.6,2.8c-6.1,0-8.7-4.6-8.7-9.2C66.9,849.4,69.5,844.8,75.6,844.8z"/>
<path class="st0" d="M147.5,873.6c8.9,0,13.5-6.9,13.5-13.8c0-3.6-1.3-6.9-3.3-9.4c-2.5-2.8-5.9-4.3-10.2-4.3
	c-8.9,0-13.5,6.9-13.5,13.8C134,866.7,138.6,873.6,147.5,873.6z M147.5,850.6c6.1,0,8.7,4.6,8.7,9.2c0,2.3-0.8,4.8-2.3,6.4
	c-1.5,1.8-3.8,2.8-6.6,2.8c-6.1,0-8.7-4.6-8.7-9.2c0-2.3,0.8-4.8,2.3-6.4C142.4,851.6,144.7,850.6,147.5,850.6z"/>
<path class="st0" d="M173.5,930c8.9,0,13.5-6.9,13.5-13.8c0-6.9-4.6-13.8-13.5-13.8c-8.9,0-13.5,6.9-13.5,13.8
	C160,923.1,164.9,930,173.5,930z M173.5,907c6.1,0,8.7,4.6,8.7,9.2s-2.8,9.2-8.7,9.2c-6.1,0-8.7-4.6-8.7-9.2c0-2.3,0.8-4.8,2.3-6.4
	C168.4,908,170.7,907,173.5,907z"/>
<path class="st0" d="M178.9,979.5c8.9,0,13.5-6.9,13.5-13.8c0-6.9-4.6-13.8-13.5-13.8c-8.9,0-13.5,6.9-13.5,13.8
	C165.4,972.6,170,979.5,178.9,979.5z M178.9,956.5c6.1,0,8.7,4.6,8.7,9.2s-2.8,9.2-8.7,9.2c-6.1,0-8.7-4.6-8.7-9.2
	c0-2.3,0.8-4.8,2.3-6.4C173.8,957.6,176.1,956.5,178.9,956.5z"/>
<path class="st0" d="M199.5,106.3c8.9,0,13.5-6.9,13.5-13.8c0-3.6-1.3-6.9-3.3-9.4c-2.6-2.8-5.9-4.3-10.2-4.3
	c-8.9,0-13.5,6.9-13.5,13.8C186,99.2,190.6,106.3,199.5,106.3z M199.5,83.4c6.1,0,8.7,4.6,8.7,9.2c0,2.3-0.8,4.8-2.3,6.4
	c-1.5,1.8-3.8,2.8-6.6,2.8c-6.1,0-8.7-4.6-8.7-9.2c0-2.3,0.8-4.8,2.3-6.4C194.4,84.1,196.7,83.4,199.5,83.4z"/>
<path class="st0" d="M204.4,155.3c8.9,0,13.5-6.9,13.5-13.8c0-6.9-4.6-13.8-13.5-13.8c-8.9,0-13.5,6.9-13.5,13.8
	C190.9,148.2,195.5,155.3,204.4,155.3z M204.4,132.4c6.1,0,8.7,4.6,8.7,9.2c0,2.3-0.8,4.8-2.3,6.4c-1.5,1.8-3.8,2.8-6.6,2.8
	c-6.1,0-8.7-4.6-8.7-9.2C195.5,137,198.3,132.4,204.4,132.4z"/>
<path class="st0" d="M158,122.2c8.9,0,13.5-6.9,13.5-13.8c0-6.9-4.6-13.8-13.5-13.8c-8.9,0-13.5,6.9-13.5,13.8
	C144.5,115.3,149.1,122.2,158,122.2z M158,99.2c6.1,0,8.7,4.6,8.7,9.2c0,4.6-2.8,9.2-8.7,9.2c-6.1,0-8.7-4.6-8.7-9.2
	c0-2.3,0.8-4.8,2.3-6.4C152.9,100.2,155.2,99.2,158,99.2z"/>
<path class="st0" d="M163.8,77c8.9,0,13.5-6.9,13.5-13.8c0-6.9-4.6-13.8-13.5-13.8c-8.9,0-13.5,6.9-13.5,13.8
	C150.3,70.1,154.9,77,163.8,77z M163.8,54c6.1,0,8.7,4.6,8.7,9.2c0,2.3-0.8,4.8-2.3,6.4c-1.5,1.8-3.8,2.8-6.6,2.8
	c-6.1,0-8.7-4.6-8.7-9.2C155.2,58.6,157.7,54,163.8,54z"/>
<path class="st0" d="M211.3,60.4c8.9,0,13.5-6.9,13.5-13.8c0-6.9-4.6-13.8-13.5-13.8c-8.9,0-13.5,6.9-13.5,13.8
	C197.8,53.5,202.3,60.4,211.3,60.4z M211.3,37.4c6.1,0,8.7,4.6,8.7,9.2c0,2.3-0.8,4.8-2.3,6.4c-1.5,1.8-3.8,2.8-6.6,2.8
	c-6.1,0-8.7-4.6-8.7-9.2S205.2,37.4,211.3,37.4z"/>
<path class="st0" d="M242.1,89.7c8.9,0,13.5-6.9,13.5-13.8c0-6.9-4.6-13.8-13.5-13.8c-8.9,0-13.5,6.9-13.5,13.8
	C228.6,82.9,233.2,89.7,242.1,89.7z M242.1,66.8c6.1,0,8.7,4.6,8.7,9.2c0,4.6-2.8,9.2-8.7,9.2c-6.1,0-8.7-4.6-8.7-9.2
	c0-2.3,0.8-4.8,2.3-6.4C237,67.8,239.3,66.8,242.1,66.8z"/>
<path class="st0" d="M244.7,130.3c8.9,0,13.5-6.9,13.5-13.8c0-6.9-4.6-13.8-13.5-13.8c-8.9,0-13.5,6.9-13.5,13.8
	C231.2,123.2,236,130.3,244.7,130.3z M244.7,107.4c6.1,0,8.7,4.6,8.7,9.2c0,4.6-2.8,9.2-8.7,9.2c-6.1,0-8.7-4.6-8.7-9.2
	c0-2.3,0.8-4.8,2.3-6.4C239.6,108.1,241.9,107.4,244.7,107.4z"/>
<path class="st0" d="M248,183.4c8.9,0,13.5-6.9,13.5-13.8c0-3.6-1.3-6.9-3.3-9.4c-2.6-2.8-5.9-4.3-10.2-4.3
	c-8.9,0-13.5,6.9-13.5,13.8C234.5,176.5,239.1,183.4,248,183.4z M248,160.4c6.1,0,8.7,4.6,8.7,9.2c0,2.3-0.8,4.8-2.3,6.4
	c-1.5,1.8-3.8,2.8-6.6,2.8c-6.1,0-8.7-4.6-8.7-9.2S241.9,160.4,248,160.4z"/>
<path class="st0" d="M193.4,196.2c2,0,3.6-0.5,5.1-1.3c1.5-0.5,3.1-1.5,4.3-2.8c1.3-1.3,2.3-2.8,2.8-4.6c0.8-1.3,1.3-3.3,1-5.4v-1
	c0-2.6-0.8-4.8-1.8-6.9l-2-2.6c-2-2-4.1-3.1-6.4-3.8l-3.3-0.5c-2.3,0-4.1,0.3-5.9,1.3c-1.5,0.5-3.1,1.5-4.3,2.8
	c-1.3,1.3-2.3,2.6-2.8,4.3c-0.8,1.8-1.3,3.6-1.3,5.4v1c0,2.6,0.8,4.8,1.8,6.9l2,2.6c2,2,4.1,3.1,6.4,3.8l3.3,0.5
	C192.9,196.2,193.2,196.2,193.4,196.2z M192.7,172.2h0.3l2.8,0.5c1.3,0.3,2.5,1,3.8,2.3l1.5,2c0.8,1.3,1,2.8,1,4.3v1
	c0,1.3-0.3,2.3-0.8,3.3c-0.5,1.5-1,2.3-1.8,3.1c-1,1-1.8,1.5-2.8,1.8c-1.3,0.8-2.3,0.8-3.6,0.8l-2.8-0.5c-1.3-0.3-2.6-1-3.8-2.3
	l-1.5-2c-0.8-1.3-1-2.8-1-4.3v-1c0-1.3,0.3-2.3,0.8-3.3l0.3-0.3c0.3-1,1-2,1.8-2.8c1-1,1.8-1.5,2.8-1.8
	C190.6,172.4,191.6,172.2,192.7,172.2z"/>
<path class="st0" d="M154.9,172.7c8.9,0,13.5-6.9,13.5-13.8c0-3.6-1.3-6.9-3.3-9.4c-2.6-2.8-5.9-4.3-10.2-4.3
	c-8.9,0-13.5,6.9-13.5,13.8C141.4,165.8,146,172.7,154.9,172.7z M154.9,149.7c6.1,0,8.7,4.6,8.7,9.2c0,2.3-0.8,4.8-2.3,6.4
	c-1.5,1.8-3.8,2.8-6.6,2.8c-6.1,0-8.7-4.6-8.7-9.2C146,154.3,148.8,149.7,154.9,149.7z"/>
<path class="st0" d="M123.3,123.9c8.9,0,13.5-6.9,13.5-13.8c0-6.9-4.6-13.8-13.5-13.8c-8.9,0-13.5,6.9-13.5,13.8
	C110,116.8,114.6,123.9,123.3,123.9z M123.3,101c6.1,0,8.7,4.6,8.7,9.2c0,2.3-0.8,4.8-2.3,6.4c-1.5,1.8-3.8,2.8-6.6,2.8
	c-6.1,0-8.7-4.6-8.7-9.2C114.6,105.6,117.4,101,123.3,101z"/>
<path class="st0" d="M122.8,72.6c8.9,0,13.5-6.9,13.5-13.8c0-6.9-4.6-13.8-13.5-13.8s-13.5,6.9-13.5,13.8
	C109.5,65.8,114.1,72.6,122.8,72.6z M122.8,49.7c6.1,0,8.7,4.6,8.7,9.2c0,4.6-2.8,9.2-8.7,9.2c-6.1,0-8.7-4.6-8.7-9.2
	c0-2.3,0.8-4.8,2.3-6.4C118,50.7,120.2,49.7,122.8,49.7z"/>
<path class="st0" d="M177.6,39.7c8.9,0,13.5-6.9,13.5-13.8c0-3.6-1.3-6.9-3.3-9.4c-2.6-2.8-5.9-4.3-10.2-4.3
	c-8.9,0-13.5,6.9-13.5,13.8C164.4,32.8,168.9,39.7,177.6,39.7z M177.6,16.8c6.1,0,8.7,4.6,8.7,9.2c0,2.3-0.8,4.8-2.3,6.4
	c-1.5,1.8-3.8,2.8-6.6,2.8c-6.1,0-8.7-4.6-8.7-9.2C168.9,21.4,171.5,16.8,177.6,16.8z"/>
<path class="st0" d="M249.5,45.6c8.9,0,13.5-6.9,13.5-13.8c0-3.6-1.3-6.9-3.3-9.4c-2.5-2.8-5.9-4.3-10.2-4.3
	c-8.9,0-13.5,6.9-13.5,13.8S240.6,45.6,249.5,45.6z M249.5,22.6c6.1,0,8.7,4.6,8.7,9.2c0,2.3-0.8,4.8-2.3,6.4
	c-1.5,1.8-3.8,2.8-6.6,2.8c-6.1,0-8.7-4.6-8.7-9.2c0-2.3,0.8-4.8,2.3-6.4C244.4,23.6,246.7,22.6,249.5,22.6z"/>
<path class="st0" d="M275.5,102c8.9,0,13.5-6.9,13.5-13.8c0-6.9-4.6-13.8-13.5-13.8c-8.9,0-13.5,6.9-13.5,13.8
	C262,95.1,266.9,102,275.5,102z M275.5,79c6.1,0,8.7,4.6,8.7,9.2c0,4.6-2.8,9.2-8.7,9.2c-6.1,0-8.7-4.6-8.7-9.2
	c0-2.3,0.8-4.8,2.3-6.4C270.4,80,272.7,79,275.5,79z"/>
<path class="st0" d="M280.9,151.5c8.9,0,13.5-6.9,13.5-13.8c0-6.9-4.6-13.8-13.5-13.8c-8.9,0-13.5,6.9-13.5,13.8
	C267.4,144.6,272,151.5,280.9,151.5z M280.9,128.5c6.1,0,8.7,4.6,8.7,9.2c0,4.6-2.8,9.2-8.7,9.2c-6.1,0-8.7-4.6-8.7-9.2
	c0-2.3,0.8-4.8,2.3-6.4C275.8,129.6,278.1,128.5,280.9,128.5z"/>
<path class="st0" d="M1412.7,848.4c11,0,16.7-8.5,16.7-17.1c0-4.4-1.6-8.5-4.1-11.7c-3.2-3.5-7.3-5.4-12.6-5.4
	c-11,0-16.7,8.5-16.7,17.1C1396,839.6,1401.7,848.4,1412.7,848.4z M1412.7,820c7.6,0,10.7,5.7,10.7,11.4c0,2.8-0.9,6-2.8,7.9
	c-1.9,2.2-4.7,3.5-8.2,3.5c-7.6,0-10.7-5.7-10.7-11.4c0-2.8,0.9-6,2.8-7.9C1406.4,821,1409.3,820,1412.7,820z"/>
<path class="st0" d="M1418.7,909.1c11,0,16.7-8.5,16.7-17.1c0-8.5-5.7-17.1-16.7-17.1c-11,0-16.7,8.5-16.7,17.1
	C1402,900.2,1407.7,909.1,1418.7,909.1z M1418.7,880.7c7.6,0,10.7,5.7,10.7,11.4c0,2.8-0.9,6-2.8,7.9c-1.9,2.2-4.7,3.5-8.2,3.5
	c-7.6,0-10.7-5.7-10.7-11.4C1407.7,886.4,1411.2,880.7,1418.7,880.7z"/>
<path class="st0" d="M1361.3,868c11,0,16.7-8.5,16.7-17.1c0-8.5-5.7-17.1-16.7-17.1c-11,0-16.7,8.5-16.7,17.1
	C1344.6,859.5,1350.3,868,1361.3,868z M1361.3,839.6c7.6,0,10.7,5.7,10.7,11.4c0,5.7-3.5,11.4-10.7,11.4c-7.6,0-10.7-5.7-10.7-11.4
	c0-2.8,0.9-6,2.8-7.9C1355,840.9,1357.8,839.6,1361.3,839.6z"/>
<path class="st0" d="M1368.6,812.1c11,0,16.7-8.5,16.7-17.1c0-8.5-5.7-17.1-16.7-17.1c-11,0-16.7,8.5-16.7,17.1
	C1351.8,803.6,1357.5,812.1,1368.6,812.1z M1368.6,783.7c7.6,0,10.7,5.7,10.7,11.4c0,2.8-0.9,6-2.8,7.9c-1.9,2.2-4.7,3.5-8.2,3.5
	c-7.6,0-10.7-5.7-10.7-11.4C1357.8,789.4,1361,783.7,1368.6,783.7z"/>
<path class="st0" d="M1427.3,791.6c11,0,16.7-8.5,16.7-17.1c0-8.5-5.7-17.1-16.7-17.1c-11,0-16.7,8.5-16.7,17.1
	C1410.5,783.1,1416.2,791.6,1427.3,791.6z M1427.3,763.2c7.6,0,10.7,5.7,10.7,11.4c0,2.8-0.9,6-2.8,7.9c-1.9,2.2-4.7,3.5-8.2,3.5
	c-7.6,0-10.7-5.7-10.7-11.4C1416.2,768.9,1419.7,763.2,1427.3,763.2z"/>
<path class="st0" d="M1465.4,827.9c11,0,16.7-8.5,16.7-17.1s-5.7-17.1-16.7-17.1c-11,0-16.7,8.5-16.7,17.1
	S1454.4,827.9,1465.4,827.9z M1465.4,799.5c7.6,0,10.7,5.7,10.7,11.4c0,5.7-3.5,11.4-10.7,11.4c-7.6,0-10.7-5.7-10.7-11.4
	c0-2.8,0.9-6,2.8-7.9C1459.1,800.8,1462,799.5,1465.4,799.5z"/>
<path class="st0" d="M1468.6,878.1c11,0,16.7-8.5,16.7-17.1c0-8.5-5.7-17.1-16.7-17.1c-11,0-16.7,8.5-16.7,17.1
	C1451.9,869.3,1457.9,878.1,1468.6,878.1z M1468.6,849.7c7.6,0,10.7,5.7,10.7,11.4c0,5.7-3.5,11.4-10.7,11.4
	c-7.6,0-10.7-5.7-10.7-11.4c0-2.8,0.9-6,2.8-7.9C1462.3,850.7,1465.1,849.7,1468.6,849.7z"/>
<path class="st0" d="M1472.7,943.8c11,0,16.7-8.5,16.7-17.1c0-4.4-1.6-8.5-4.1-11.7c-3.2-3.5-7.3-5.4-12.6-5.4
	c-11,0-16.7,8.5-16.7,17.1C1456,935.3,1461.7,943.8,1472.7,943.8z M1472.7,915.4c7.6,0,10.7,5.7,10.7,11.4c0,2.8-0.9,6-2.8,7.9
	c-1.9,2.2-4.7,3.5-8.2,3.5c-7.6,0-10.7-5.7-10.7-11.4C1461.7,921.1,1465.1,915.4,1472.7,915.4z"/>
<path class="st0" d="M1405.2,959.6c2.5,0,4.4-0.6,6.3-1.6c1.9-0.6,3.8-1.9,5.4-3.5c1.6-1.6,2.8-3.5,3.5-5.7c0.9-1.6,1.6-4.1,1.3-6.6
	V941c0-3.2-0.9-6-2.2-8.5l-2.5-3.2c-2.5-2.5-5-3.8-7.9-4.7l-4.1-0.6c-2.8,0-5,0.3-7.3,1.6c-1.9,0.6-3.8,1.9-5.4,3.5
	c-1.6,1.6-2.8,3.2-3.5,5.4c-0.9,2.2-1.6,4.4-1.6,6.6v1.3c0,3.2,0.9,6,2.2,8.5l2.5,3.2c2.5,2.5,5,3.8,7.9,4.7l4.1,0.6
	C1404.5,959.6,1404.9,959.6,1405.2,959.6z M1404.2,929.9h0.3l3.5,0.6c1.6,0.3,3.2,1.3,4.7,2.8l1.9,2.5c0.9,1.6,1.3,3.5,1.3,5.4v1.3
	c0,1.6-0.3,2.8-0.9,4.1c-0.6,1.9-1.3,2.8-2.2,3.8c-1.3,1.3-2.2,1.9-3.5,2.2c-1.6,0.9-2.8,0.9-4.4,0.9l-3.5-0.6
	c-1.6-0.3-3.2-1.3-4.7-2.8l-1.9-2.5c-0.9-1.6-1.3-3.5-1.3-5.4V941c0-1.6,0.3-2.8,0.9-4.1l0.3-0.3c0.3-1.3,1.3-2.5,2.2-3.5
	c1.3-1.3,2.2-1.9,3.5-2.2C1401.7,930.3,1403,929.9,1404.2,929.9z"/>
<path class="st0" d="M1357.5,930.6c11,0,16.7-8.5,16.7-17.1c0-4.4-1.6-8.5-4.1-11.7c-3.2-3.5-7.3-5.4-12.6-5.4
	c-11,0-16.7,8.5-16.7,17.1C1340.8,922,1346.5,930.6,1357.5,930.6z M1357.5,902.1c7.6,0,10.7,5.7,10.7,11.4c0,2.8-0.9,6-2.8,7.9
	c-1.9,2.2-4.7,3.5-8.2,3.5c-7.6,0-10.7-5.7-10.7-11.4C1346.5,907.8,1349.9,902.1,1357.5,902.1z"/>
<path class="st0" d="M1318.4,870.2c11,0,16.7-8.5,16.7-17.1s-5.7-17.1-16.7-17.1c-11,0-16.7,8.5-16.7,17.1
	C1302,861.4,1307.7,870.2,1318.4,870.2z M1318.4,841.8c7.6,0,10.7,5.7,10.7,11.4c0,2.8-0.9,6-2.8,7.9c-1.9,2.2-4.7,3.5-8.2,3.5
	c-7.6,0-10.7-5.7-10.7-11.4C1307.7,847.5,1311.1,841.8,1318.4,841.8z"/>
<path class="st0" d="M1317.8,806.8c11,0,16.7-8.5,16.7-17.1c0-8.5-5.7-17.1-16.7-17.1c-11,0-16.7,8.5-16.7,17.1
	C1301.3,798.2,1307,806.8,1317.8,806.8z M1317.8,778.3c7.6,0,10.7,5.7,10.7,11.4c0,5.7-3.5,11.4-10.7,11.4
	c-7.6,0-10.7-5.7-10.7-11.4c0-2.8,0.9-6,2.8-7.9C1311.8,779.6,1314.6,778.3,1317.8,778.3z"/>
<path class="st0" d="M1385.6,766c11,0,16.7-8.5,16.7-17.1c0-4.4-1.6-8.5-4.1-11.7c-3.2-3.5-7.3-5.4-12.6-5.4
	c-11,0-16.7,8.5-16.7,17.1C1369.2,757.5,1374.9,766,1385.6,766z M1385.6,737.6c7.6,0,10.7,5.7,10.7,11.4c0,2.8-0.9,6-2.8,7.9
	c-1.9,2.2-4.7,3.5-8.2,3.5c-7.6,0-10.7-5.7-10.7-11.4C1374.9,743.3,1378,737.6,1385.6,737.6z"/>
<path class="st0" d="M1474.6,773.3c11,0,16.7-8.5,16.7-17.1c0-4.4-1.6-8.5-4.1-11.7c-3.2-3.5-7.3-5.4-12.6-5.4
	c-11,0-16.7,8.5-16.7,17.1C1457.9,764.7,1463.6,773.3,1474.6,773.3z M1474.6,744.8c7.6,0,10.7,5.7,10.7,11.4c0,2.8-0.9,6-2.8,7.9
	c-1.9,2.2-4.7,3.5-8.2,3.5c-7.6,0-10.7-5.7-10.7-11.4c0-2.8,0.9-6,2.8-7.9C1468.3,746.1,1471.1,744.8,1474.6,744.8z"/>
<path class="st0" d="M1506.8,843.1c11,0,16.7-8.5,16.7-17.1c0-8.5-5.7-17.1-16.7-17.1c-11,0-16.7,8.5-16.7,17.1
	C1490.1,834.6,1496.1,843.1,1506.8,843.1z M1506.8,814.7c7.6,0,10.7,5.7,10.7,11.4c0,5.7-3.5,11.4-10.7,11.4
	c-7.6,0-10.7-5.7-10.7-11.4c0-2.8,0.9-6,2.8-7.9C1500.5,815.9,1503.3,814.7,1506.8,814.7z"/>
<path class="st0" d="M1513.4,904.4c11,0,16.7-8.5,16.7-17.1c0-8.5-5.7-17.1-16.7-17.1c-11,0-16.7,8.5-16.7,17.1
	C1496.7,895.8,1502.4,904.4,1513.4,904.4z M1513.4,875.9c7.6,0,10.7,5.7,10.7,11.4c0,5.7-3.5,11.4-10.7,11.4
	c-7.6,0-10.7-5.7-10.7-11.4c0-2.8,0.9-6,2.8-7.9C1507.1,877.2,1509.9,875.9,1513.4,875.9z"/>
<path class="st0" d="M1800.5,113.6c8,0,12.2-6.2,12.2-12.4c0-3.2-1.2-6.2-3-8.5c-2.3-2.5-5.3-3.9-9.2-3.9c-8.1,0-12.2,6.2-12.2,12.4
	C1788.3,107.1,1792.4,113.6,1800.5,113.6z M1800.5,92.9c5.5,0,7.8,4.1,7.8,8.3c0,2.1-0.7,4.4-2.1,5.8c-1.4,1.6-3.5,2.5-6,2.5
	c-5.5,0-7.8-4.1-7.8-8.3c0-2.1,0.7-4.4,2.1-5.8C1795.9,93.6,1797.9,92.9,1800.5,92.9z"/>
<path class="st0" d="M1804.8,157.8c8,0,12.2-6.2,12.2-12.4c0-6.2-4.1-12.4-12.2-12.4c-8.1,0-12.2,6.2-12.2,12.4
	C1792.6,151.3,1796.8,157.8,1804.8,157.8z M1804.8,137.1c5.5,0,7.8,4.1,7.8,8.3c0,2.1-0.7,4.4-2.1,5.8c-1.4,1.6-3.5,2.5-6,2.5
	c-5.5,0-7.8-4.1-7.8-8.3C1796.8,141.2,1799.3,137.1,1804.8,137.1z"/>
<path class="st0" d="M1763,127.9c8.1,0,12.2-6.2,12.2-12.4c0-6.2-4.1-12.4-12.2-12.4c-8,0-12.2,6.2-12.2,12.4
	C1750.8,121.6,1754.9,127.9,1763,127.9z M1763,107.1c5.5,0,7.8,4.1,7.8,8.3c0,4.1-2.5,8.3-7.8,8.3c-5.5,0-7.8-4.1-7.8-8.3
	c0-2.1,0.7-4.4,2.1-5.8C1758.4,108.1,1760.4,107.1,1763,107.1z"/>
<path class="st0" d="M1768.3,87.1c8.1,0,12.2-6.2,12.2-12.4c0-6.2-4.1-12.4-12.2-12.4c-8,0-12.2,6.2-12.2,12.4
	C1756.1,80.9,1760.2,87.1,1768.3,87.1z M1768.3,66.4c5.5,0,7.8,4.1,7.8,8.3c0,2.1-0.7,4.4-2.1,5.8c-1.4,1.6-3.4,2.5-6,2.5
	c-5.5,0-7.8-4.1-7.8-8.3C1760.4,70.5,1762.7,66.4,1768.3,66.4z"/>
<path class="st0" d="M1811,72.1c8.1,0,12.2-6.2,12.2-12.4s-4.1-12.4-12.2-12.4s-12.2,6.2-12.2,12.4S1803,72.1,1811,72.1z M1811,51.4
	c5.5,0,7.8,4.1,7.8,8.3c0,2.1-0.7,4.4-2.1,5.8c-1.4,1.6-3.4,2.5-6,2.5c-5.5,0-7.8-4.1-7.8-8.3C1803,55.6,1805.5,51.4,1811,51.4z"/>
<path class="st0" d="M1838.9,98.6c8.1,0,12.2-6.2,12.2-12.4s-4.1-12.4-12.2-12.4c-8,0-12.2,6.2-12.2,12.4S1830.8,98.6,1838.9,98.6z
	 M1838.9,77.9c5.5,0,7.8,4.1,7.8,8.3c0,4.1-2.5,8.3-7.8,8.3c-5.5,0-7.8-4.1-7.8-8.3c0-2.1,0.7-4.4,2.1-5.8
	C1834.3,78.8,1836.4,77.9,1838.9,77.9z"/>
<path class="st0" d="M1841.2,135.2c8,0,12.2-6.2,12.2-12.4c0-6.2-4.1-12.4-12.2-12.4c-8.1,0-12.2,6.2-12.2,12.4
	C1829,128.8,1833.4,135.2,1841.2,135.2z M1841.2,114.5c5.5,0,7.8,4.1,7.8,8.3c0,4.1-2.5,8.3-7.8,8.3c-5.5,0-7.8-4.1-7.8-8.3
	c0-2.1,0.7-4.4,2.1-5.8C1836.6,115.2,1838.7,114.5,1841.2,114.5z"/>
<path class="st0" d="M1844.2,183.1c8,0,12.2-6.2,12.2-12.4c0-3.2-1.1-6.2-3-8.5c-2.3-2.5-5.3-3.9-9.2-3.9c-8.1,0-12.2,6.2-12.2,12.4
	C1832,176.9,1836.1,183.1,1844.2,183.1z M1844.2,162.4c5.5,0,7.8,4.1,7.8,8.3c0,2.1-0.7,4.4-2.1,5.8c-1.4,1.6-3.5,2.5-6,2.5
	c-5.5,0-7.8-4.1-7.8-8.3C1836.1,166.5,1838.7,162.4,1844.2,162.4z"/>
<path class="st0" d="M1794.9,194.6c1.8,0,3.2-0.5,4.6-1.2c1.4-0.5,2.8-1.4,3.9-2.5c1.1-1.2,2.1-2.5,2.5-4.1c0.7-1.2,1.2-3,0.9-4.8
	V181c0-2.3-0.7-4.4-1.6-6.2l-1.8-2.3c-1.8-1.8-3.7-2.8-5.8-3.5l-3-0.5c-2.1,0-3.7,0.2-5.3,1.2c-1.4,0.5-2.8,1.4-3.9,2.5
	c-1.2,1.2-2.1,2.3-2.5,3.9c-0.7,1.6-1.1,3.2-1.1,4.8v0.9c0,2.3,0.7,4.4,1.6,6.2l1.8,2.3c1.8,1.8,3.7,2.8,5.8,3.5l3,0.5
	C1794.5,194.6,1794.7,194.6,1794.9,194.6z M1794.3,173h0.2l2.5,0.5c1.2,0.2,2.3,0.9,3.5,2.1l1.4,1.8c0.7,1.2,0.9,2.5,0.9,3.9v0.9
	c0,1.2-0.2,2.1-0.7,3c-0.5,1.4-0.9,2.1-1.6,2.8c-0.9,0.9-1.6,1.4-2.5,1.6c-1.2,0.7-2.1,0.7-3.2,0.7l-2.5-0.5
	c-1.2-0.2-2.3-0.9-3.5-2.1l-1.4-1.8c-0.7-1.2-0.9-2.5-0.9-3.9V181c0-1.2,0.2-2.1,0.7-3l0.2-0.2c0.2-0.9,0.9-1.8,1.6-2.5
	c0.9-0.9,1.6-1.4,2.5-1.6C1792.4,173.2,1793.3,173,1794.3,173z"/>
<path class="st0" d="M1760.2,173.4c8,0,12.2-6.2,12.2-12.4c0-3.2-1.2-6.2-3-8.5c-2.3-2.5-5.3-3.9-9.2-3.9c-8.1,0-12.2,6.2-12.2,12.4
	C1748,167.2,1752.2,173.4,1760.2,173.4z M1760.2,152.7c5.5,0,7.8,4.1,7.8,8.3c0,2.1-0.7,4.4-2.1,5.8c-1.4,1.6-3.5,2.5-6,2.5
	c-5.5,0-7.8-4.1-7.8-8.3C1752.2,156.9,1754.7,152.7,1760.2,152.7z"/>
<path class="st0" d="M1731.7,129.5c8,0,12.2-6.2,12.2-12.4c0-6.2-4.1-12.4-12.2-12.4c-8.1,0-12.2,6.2-12.2,12.4
	C1719.7,123,1723.9,129.5,1731.7,129.5z M1731.7,108.8c5.5,0,7.8,4.1,7.8,8.3c0,2.1-0.7,4.4-2.1,5.8c-1.4,1.6-3.5,2.5-6,2.5
	c-5.5,0-7.8-4.1-7.8-8.3C1723.9,112.9,1726.4,108.8,1731.7,108.8z"/>
<path class="st0" d="M1731.2,83.2c8.1,0,12.2-6.2,12.2-12.4c0-6.2-4.1-12.4-12.2-12.4c-8,0-12.2,6.2-12.2,12.4
	C1719.3,77,1723.4,83.2,1731.2,83.2z M1731.2,62.5c5.5,0,7.8,4.1,7.8,8.3c0,4.1-2.5,8.3-7.8,8.3c-5.5,0-7.8-4.1-7.8-8.3
	c0-2.1,0.7-4.4,2.1-5.8C1726.9,63.4,1728.9,62.5,1731.2,62.5z"/>
<path class="st0" d="M1780.7,53.5c8,0,12.2-6.2,12.2-12.4c0-3.2-1.2-6.2-3-8.5c-2.3-2.5-5.3-3.9-9.2-3.9c-8.1,0-12.2,6.2-12.2,12.4
	C1768.7,47.3,1772.9,53.5,1780.7,53.5z M1780.7,32.8c5.5,0,7.8,4.1,7.8,8.3c0,2.1-0.7,4.4-2.1,5.8c-1.4,1.6-3.5,2.5-6,2.5
	c-5.5,0-7.8-4.1-7.8-8.3C1772.9,36.9,1775.2,32.8,1780.7,32.8z"/>
<path class="st0" d="M1845.6,58.8c8,0,12.2-6.2,12.2-12.4c0-3.2-1.1-6.2-3-8.5c-2.3-2.5-5.3-3.9-9.2-3.9c-8.1,0-12.2,6.2-12.2,12.4
	C1833.4,52.6,1837.5,58.8,1845.6,58.8z M1845.6,38.1c5.5,0,7.8,4.1,7.8,8.3c0,2.1-0.7,4.4-2.1,5.8c-1.4,1.6-3.5,2.5-6,2.5
	c-5.5,0-7.8-4.1-7.8-8.3c0-2.1,0.7-4.4,2.1-5.8C1841,39,1843,38.1,1845.6,38.1z"/>
<path class="st0" d="M1869,109.7c8.1,0,12.2-6.2,12.2-12.4c0-6.2-4.1-12.4-12.2-12.4c-8,0-12.2,6.2-12.2,12.4
	C1856.8,103.5,1861.2,109.7,1869,109.7z M1869,89c5.5,0,7.8,4.1,7.8,8.3c0,4.1-2.5,8.3-7.8,8.3c-5.5,0-7.8-4.1-7.8-8.3
	c0-2.1,0.7-4.4,2.1-5.8C1864.4,89.9,1866.5,89,1869,89z"/>
<path class="st0" d="M1873.8,154.3c8,0,12.2-6.2,12.2-12.4s-4.1-12.4-12.2-12.4c-8.1,0-12.2,6.2-12.2,12.4
	S1865.8,154.3,1873.8,154.3z M1873.8,133.6c5.5,0,7.8,4.1,7.8,8.3s-2.5,8.3-7.8,8.3c-5.5,0-7.8-4.1-7.8-8.3c0-2.1,0.7-4.4,2.1-5.8
	C1869.2,134.5,1871.3,133.6,1873.8,133.6z"/>
<g>
	<defs>
		<rect id="SVGID_1_" x="1333" y="182.6" width="560" height="611"/>
	</defs>
	<clipPath id="SVGID_2_">
		<use xlink:href="#SVGID_1_"  style="overflow:visible;"/>
	</clipPath>
	<g class="st1">
		<path class="st2" d="M1875,376.9c12.1,34.5,18.2,70.8,18.1,107.4c-0.2,33.9-5.2,68.9-20,99.7c-6.9,14.7-16.5,28-28.4,39.1
			c-12.5,11.1-27.2,19.4-43.1,24.2c-33,10.2-68.7,7.9-102.2,2.1c-41-7.1-81.7-19-123.7-17.6c-39.4,1.3-76.3,17.8-115.4,21.2
			c-17.9,1.9-36-0.6-52.6-7.5c-14.5-6.5-27.3-16.1-37.6-28.2c-15.1-17.9-25.4-39.4-30.2-62.4c-3.4-12.9-5.5-26.1-6.3-39.4
			c-1.8-37.1,2.1-74.3,11.5-110.3c8.3-33.7,21.6-65.9,39.5-95.5c17.7-29.6,41-55.4,68.5-76c28.2-20.7,60.2-35.5,94.1-43.5
			c33.7-8.2,68.7-9.6,103-4.3c33.3,5.4,65.5,16.8,94.7,33.7c29.4,16.9,55.6,38.9,77.5,64.9C1845.3,311.8,1863.1,343.1,1875,376.9z"
			/>
		<path class="st3" d="M1422.3,340.7c-1.6-3.2-2.9-6.5-4-9.9c-2.2-8.2-2.3-16.9-0.4-25.2c1.9-8.3,4.5-16.4,7.7-24.2
			c0.7,4.7,2.1,9.3,4,13.6c6.2,16.9,9.7,35.7,4.6,52.9c-1.2,3.1-1.9,6.4-2.1,9.7l-1,0.6C1428,352.5,1425,346.5,1422.3,340.7z"/>
		<path class="st3" d="M1400.3,395.6l-11.8-11l10,0.2c8.2-0.2,16.3,0.8,24.2,3.2c10.2,3.7,18.2,11.6,25.8,19.3
			c-0.8-11.9-0.3-24.5,5.5-34.9c5.8-10.4,16.1-17.4,25.9-23.9c-1.8,11.4,0.7,23.8-4.4,34.1c-4.7,9.4-14.6,14.7-23,21.1
			c-1.5,1-2.8,2.3-3.7,3.8c-6.1,3.5-13.1,4.8-20.1,3.8c-6.9-1-13.5-3.7-19.1-7.8C1406.4,401.1,1403.2,398.5,1400.3,395.6z"/>
		<path class="st3" d="M1498.3,463.9c-5.7,4.6-15.5,6.5-22.5,8.8c-4.4,1.5-9,2.6-13.7,3.2c-4.7,0.7-9.4,0-13.8-1.8
			c-4.1-1.9-7.6-5.3-12-6.5C1454.1,456.3,1478.9,455.4,1498.3,463.9z"/>
		<path class="st3" d="M1508.1,401.9c-0.9,7.7-0.6,15.5,0.8,23.1c1.4,7.6,0.9,15.5-1.4,22.9c-2.1,5.9-5.2,11.4-9.2,16.2
			c-5.1-5.9-8.3-13.2-9.2-20.9c-1-7.7,0.4-15.6,3.8-22.6C1497,413.6,1502.1,407.3,1508.1,401.9z"/>
		<path class="st3" d="M1459.1,357c-5.2,8.8-14.2,14.7-23.5,18.7c1.3-13.6,4.3-29.4,11.2-41.1c4.9-8.4,12.2-15,21-19.1
			c-2.6,5.2-2.1,11.3-2.3,17.1c-0.1,5.2-1,10.4-2.5,15.4C1462,351.1,1460.7,354.1,1459.1,357z"/>
		<path class="st3" d="M1431.2,444.3c-4-1.6-7.7-3.9-10.9-6.8c-3.6-3-7.2-6.1-10.6-9.3c8.1-2.5,16.6-3.7,25.1-3.4
			c12.6,0.9,24,7.4,34.8,13.8c0,0.3,0.2,0.6,0.3,0.9c-9.3,3.2-19.3,6.5-29.2,6.5C1437.6,445.9,1434.3,445.3,1431.2,444.3z"/>
		<path class="st3" d="M1470.2,438.9l-0.5-0.3c-2.4-6.4-3.7-13.1-3.7-19.9c0-7.1,1.9-14.2,5.7-20.2c2.3-3.4,4.9-6.5,7.9-9.2
			c4.4-4.4,9.1-8.4,14-12.3l-0.5,18.2c0,2.9-0.2,5.8-0.6,8.7c-0.8,4.7-2.6,9.2-5.3,13.1C1481.9,424.6,1473.2,430,1470.2,438.9z"/>
		<path class="st3" d="M1396.5,353c-3.6-5.4-7.2-10.7-10.8-16.2c9.5,2.1,18.3,6.3,26.1,12.1c2.5,2.1,4.9,4.4,7.1,6.8
			c5.6,6.1,10.7,12.6,15.3,19.5c0.1,0.3,0.4,0.5,0.6,0.6c0.3,0.1,0.6,0.1,0.9,0v0.5c-6.5-0.1-12.9-1.6-18.7-4.4
			c-5.9-2.8-11-6.8-15.2-11.8C1399.7,357.8,1398.1,355.4,1396.5,353z"/>
		<path class="st4" d="M1425.1,322.9c0.3,3.2,0.5,6.7,0.8,10c0.4,3.3,0.7,6.5,1.2,9.4c1,6.5,2.3,13,3.8,19.5
			c2.9,12.6,6.9,25,12,36.9c8.9,21.5,22.7,40.6,40.2,55.8c9.5,8.2,20.3,14.7,31.8,19.5c1.7,0.7,2.4-2,0.7-2.7
			c-20.2-8.5-37.8-22.4-50.8-40.2c-14.3-19.6-24.6-41.9-30.3-65.6c-1.8-7-3.2-14-4.5-21.1c-0.6-3.5-1.2-6.9-1.8-10.4
			c-0.6-3.5-1.4-7.4-1.8-11C1426.4,322.1,1425,322.1,1425.1,322.9z"/>
		<path class="st4" d="M1432.2,358.4c-2.3-4.8-4.8-9.5-7.1-14.3c-2.5-4.6-4.5-9.5-6-14.5c-2.4-10.4-1.9-21.2,1.4-31.3
			c1.7-5.7,3.8-11.2,5.9-16.8l-1.5-0.2c0.7,4.9,2.1,9.7,4.1,14.2c1.7,4.8,3.1,9.6,4.2,14.6c2.3,10,2.7,20.3,1.1,30.4
			c-0.5,2.8-1.2,5.5-2.1,8.2c-1,2.8-1.6,5.7-1.6,8.7c0.1,0.3,0.2,0.7,0.5,0.9c0.3,0.2,0.6,0.4,0.9,0.4c0.3,0,0.7-0.1,0.9-0.4
			c0.3-0.2,0.4-0.5,0.5-0.9c0.1-2.7,0.7-5.3,1.6-7.8c2.2-7.1,3.1-14.6,2.7-22c-0.7-10.2-2.9-20.2-6.4-29.7c-2.3-5.3-4-10.9-5-16.6
			c0-0.2-0.1-0.4-0.2-0.5c-0.1-0.1-0.3-0.2-0.5-0.2c-0.2,0-0.4,0-0.5,0.1c-0.2,0.1-0.3,0.3-0.3,0.4c-4.2,9.9-7.1,20.3-8.8,30.9
			c-0.7,5.2-0.6,10.6,0.4,15.8c1.2,5.2,3.1,10.2,5.6,14.9c2.6,5.7,5.5,11.2,8.7,16.5c0.1,0.2,0.3,0.3,0.5,0.3c0.2,0,0.4,0,0.6-0.1
			c0.2-0.1,0.3-0.3,0.4-0.5C1432.3,358.8,1432.3,358.5,1432.2,358.4L1432.2,358.4z"/>
		<path class="st4" d="M1436.2,376.4c2.5-18,5.8-38.1,19.5-51.3c3.7-3.6,7.9-6.5,12.5-8.6l-1.6-1.6c-1.8,4.1-2.6,8.5-2.4,13
			c0,4.7-0.4,9.5-1.2,14.1c-0.8,4.6-2.4,9-4.5,13.2c-2,3.6-4.5,6.8-7.6,9.5c-3.1,2.7-6.4,5-10,7c-1.8,1-3.6,2-5.5,2.8
			c-0.2,0.1-0.3,0.2-0.5,0.2c-0.2-0.2-0.4-0.5-0.5-0.8l-1.1-1.6l-2.2-3c-2.8-3.8-5.7-7.5-8.8-11c-3.1-3.7-6.4-7-10-10.2
			c-8-5.9-17-10.1-26.6-12.4c-0.2-0.1-0.5,0-0.7,0c-0.2,0.1-0.4,0.2-0.5,0.4c-0.1,0.2-0.2,0.4-0.2,0.6c0,0.2,0,0.5,0.2,0.7
			c2.8,4.3,5.6,8.6,8.5,13c2.5,4.1,5.3,8,8.4,11.7c5.5,6.1,12.5,10.5,20.2,13c4.4,1.5,9.1,2.2,13.7,2.1c0.3,0,0.6-0.1,0.8-0.4
			c0.2-0.2,0.3-0.5,0.3-0.8c0-0.3-0.1-0.6-0.3-0.8c-0.2-0.2-0.5-0.4-0.8-0.4c-7.8-0.2-15.5-2.4-22.2-6.5c-3.4-2.1-6.5-4.6-9.2-7.5
			c-2.9-3.4-5.6-7-8-10.9l-9.4-13.8l-1.3,1.7c9,2,17.4,5.8,24.9,11.3c3.8,3.1,7.4,6.6,10.5,10.4c3.3,3.7,6.3,7.6,9.2,11.6
			c0.7,0.9,1.4,1.9,2,2.9c0.5,1,1.2,1.9,2,2.6c1.5,1,4-0.7,5.4-1.4c3.8-1.8,7.4-3.9,10.8-6.5c7-5.2,12.1-12.6,14.3-21
			c1.5-5.3,2.4-10.7,2.4-16.2c0-5.3-0.4-10.8,2-15.6c0.1-0.2,0.2-0.5,0.1-0.7c0-0.3-0.2-0.5-0.3-0.7c-0.2-0.2-0.4-0.3-0.7-0.3
			c-0.3,0-0.5,0-0.7,0.1c-8.4,4-15.6,10.3-20.6,18.2c-4.9,8.4-8.2,17.6-9.7,27.2c-1,5.4-1.7,10.8-2,16.2c0,0.9,1.4,1.1,1.5,0.2
			L1436.2,376.4z"/>
		<path class="st4" d="M1449.2,407.4c-0.6-9.5,0.4-19,3-28.1c3.2-8.5,8.8-15.8,16.1-21.2c4-3.2,8.2-6,12.4-8.7l-1.5-1.2
			c-1.6,9.7,0,19.8-2.8,29.2c-2.6,8.9-9.7,14.6-16.9,19.7c-2,1.4-4,2.8-6,4.3c-2.2,1.4-4.1,3.3-5.6,5.5l1.9-0.3
			c-5.7-6.2-12.2-11.7-19.3-16.2c-7.9-4.3-16.8-6.5-25.8-6.5c-5.4-0.2-10.8-0.3-16.1-0.4c-0.2,0-0.4,0.1-0.6,0.2
			c-0.2,0.1-0.3,0.3-0.4,0.5c-0.1,0.2-0.1,0.4-0.1,0.7c0,0.2,0.1,0.4,0.3,0.6c3.7,3.2,7.4,6.9,11.1,10.3c3.5,3.4,7.3,6.5,11.2,9.4
			c7.3,5.2,16.1,7.9,25,7.6c5.1-0.3,10-1.7,14.4-4.2c0.2-0.2,0.4-0.4,0.4-0.7c0.1-0.3,0-0.6-0.1-0.8c-0.1-0.2-0.4-0.4-0.6-0.5
			c-0.3-0.1-0.6-0.1-0.8,0c-3.8,2.1-7.9,3.4-12.2,3.8c-4.3,0.4-8.6,0-12.7-1.3c-8.4-2.9-16-7.8-22.2-14.3c-4-3.7-8-7.3-11.9-11
			l-0.8,2c9.1-0.3,18.3,0.2,27.3,1.5c8.2,1.7,15.9,5.7,22.1,11.4c3.5,3,6.8,6.5,10.1,9.7c0.1,0.1,0.3,0.2,0.5,0.3
			c0.2,0.1,0.4,0.1,0.5,0c0.2,0,0.4-0.1,0.5-0.2c0.2-0.1,0.3-0.2,0.4-0.4c1.5-1.9,3.2-3.5,5.3-4.7c1.8-1.4,3.7-2.7,5.5-4
			c3.7-2.5,7.1-5.3,10.3-8.4c3-3.1,5.3-6.9,6.8-11c1.5-4.6,2.2-9.4,2.2-14.2c0-5.7,0.2-11.5,0.8-17.2c0-0.8-0.7-1.7-1.5-1.2
			c-7.9,4.8-15.2,10.6-21.5,17.4c-6,7.3-9.6,16.2-10.3,25.7c-0.6,5.6-0.5,11.2,0.2,16.8C1447.8,408.3,1449.2,408.3,1449.2,407.4
			L1449.2,407.4z"/>
		<path class="st4" d="M1470.7,439.3c-1.4-4.7-2.5-9.4-3.2-14.2c-0.6-4.6-0.5-9.3,0.4-13.9c0.8-4.5,2.5-8.8,5-12.6
			c2.6-3.8,5.7-7.3,9.1-10.4c3.9-3.8,8.1-7.3,12.4-10.7l-1.6-0.6c0,5.2-0.4,10.4-0.5,15.7c0.2,5.1-0.3,10.2-1.4,15.1
			c-1.3,4.3-3.5,8.2-6.4,11.5c-2.6,3-5.5,5.7-8.1,8.6c-3.1,3.1-5.4,6.8-7,10.9l1.5-0.6c-7-4.5-14.3-8.3-22-11.3
			c-7.9-2.9-16.3-3.8-24.6-2.7c-5,0.7-9.9,1.7-14.7,3c-0.2,0.1-0.4,0.2-0.5,0.3c-0.1,0.1-0.3,0.3-0.3,0.5s0,0.4,0,0.6
			c0.1,0.2,0.2,0.4,0.3,0.5c3.2,3.2,6.8,6.3,10.4,9.2c3,2.7,6.5,5,10.1,6.7c8,3.4,17.8,2.3,26,0.3c5.1-1.2,9.9-2.9,14.8-4.6
			c1.4-0.5,0.8-2.7-0.6-2.2c-8,3.2-16.5,5.3-25.1,6.2c-4.3,0.3-8.5-0.1-12.7-1.3c-3.8-1.4-7.2-3.5-10.2-6.1
			c-3.9-3.2-7.6-6.5-11.3-9.7l-0.5,2c8.2-2.6,16.7-3.8,25.3-3.4c7.9,1,15.6,3.4,22.5,7.3c4,2.1,7.9,4.3,11.8,6.5
			c0.1,0.1,0.3,0.1,0.5,0.1c0.2,0,0.3,0,0.5-0.1c0.1-0.1,0.3-0.1,0.4-0.3s0.2-0.3,0.2-0.4c2.6-7.7,9.7-13,14.6-18.8
			c2.8-3.2,5-7,6.4-11c1.4-4.6,2-9.4,2-14.2c0-6.1,0.3-12.1,0.4-18.2c0-0.2-0.1-0.4-0.2-0.5c-0.1-0.2-0.2-0.3-0.4-0.3
			c-0.2-0.1-0.4-0.1-0.5-0.1c-0.2,0-0.3,0.1-0.5,0.2c-4,3.1-7.8,6.4-11.6,9.7c-3.7,3.2-7.1,6.9-10,10.8c-5.2,7.9-7.5,17.4-6.4,26.8
			c0.4,5.6,1.9,11.1,4.2,16.2c0.4,0.7,1.5,0.2,1.3-0.5L1470.7,439.3z"/>
		<path class="st4" d="M1498.9,463.5c-5.3-6.7-8.4-14.8-9-23.4c-0.5-8.9,2.2-17.8,7.5-24.9c3.5-4.5,7.3-8.7,11.4-12.6l-1.9-1.1
			c-1.5,8.7,0.3,17.4,1.1,25.9c0.5,4.1,0.6,8.2,0.2,12.3c-0.5,4.1-1.7,8-3.6,11.7c-1.9,4.2-4.3,8-7.2,11.5h1.4
			c-15.9-7-33.7-7.9-50.2-2.5c-4.5,1.5-8.8,3.6-12.9,6.2c-0.2,0.1-0.3,0.3-0.4,0.5c-0.1,0.2-0.1,0.4-0.1,0.7c0,0.2,0.1,0.4,0.3,0.6
			c0.1,0.2,0.3,0.3,0.6,0.4c4.3,1.3,7.7,4.5,11.7,6.5c4.2,1.8,8.8,2.5,13.3,2c5-0.6,9.8-1.6,14.6-3.2c3.9-1.2,7.8-2.2,11.7-3.2
			c4.3-1.2,8.3-3.2,11.8-5.8c1.2-0.9-0.5-2.6-1.6-1.7c-6,4.7-14.1,6.1-21.2,8.2c-8.7,2.6-18.5,5.9-27.3,1.8
			c-4.2-1.9-7.7-5.3-12.3-6.5l0.3,2.2c14.1-8.8,31.1-11.8,47.3-8.4c4.5,0.9,9,2.3,13.3,4.1c0.2,0.1,0.4,0.2,0.7,0.2
			c0.2,0,0.5-0.1,0.7-0.2c2.6-3.1,4.7-6.4,6.4-10c1.9-3.5,3.3-7.3,4.2-11.1c1.8-8.5,0-17.2-0.8-25.8c-0.7-5.2-0.7-10.4,0-15.6
			c0.1-0.2,0.1-0.5,0-0.7c-0.1-0.2-0.3-0.4-0.5-0.5c-0.2-0.1-0.5-0.2-0.7-0.1s-0.5,0.1-0.6,0.3c-7.1,7.1-14.5,14.5-17.7,24.3
			c-2.8,8.6-2.6,17.9,0.4,26.4c1.6,4.8,4.3,9.1,7.8,12.7c0.5,0.6,1.6-0.2,1.1-0.9L1498.9,463.5z"/>
		<path class="st4" d="M1402.8,352.5c4.3,4.6,9,8.8,14,12.5c5,3.9,10.1,7.5,15.5,10.8c1,0.6,1.9-0.9,0.9-1.6
			c-5.2-3.3-10.3-6.8-15.2-10.6c-5-3.8-9.7-8.1-14.4-12c-0.1-0.1-0.2-0.1-0.4-0.1c-0.1,0-0.3,0.1-0.4,0.2c-0.1,0.1-0.2,0.2-0.2,0.4
			C1402.6,352.2,1402.6,352.3,1402.8,352.5L1402.8,352.5z"/>
		<path class="st4" d="M1436.1,375.2c8.7-12.7,16.1-26.3,22.1-40.6c0.5-1.1-1.1-2-1.6-0.9c-6.2,14.1-13.4,27.8-21.4,40.9
			c0,0.1,0,0.3,0,0.4c0,0.1,0.1,0.2,0.2,0.3c0.1,0.1,0.2,0.1,0.4,0.1C1435.9,375.3,1436,375.3,1436.1,375.2z"/>
		<path class="st4" d="M1471.8,362.8c-2.8,2.5-5.2,5.5-7,8.8c-2.1,3.5-4.2,7.1-6.1,10.7c-1.9,3.6-3.7,7.2-5.3,10.9
			c-1.7,3.6-3.2,7.4-4.5,11.2c-0.4,1.1,1.4,1.8,1.9,0.8c1.6-3.6,2.9-7.3,4.5-11c1.6-3.6,3.2-7.2,5.2-10.7c2-3.5,3.7-6.8,5.7-10.1
			c1.8-3.5,4.1-6.8,6.7-9.7c0.7-0.6-0.3-1.5-1-1L1471.8,362.8z"/>
		<path class="st4" d="M1448.6,406.9c-1.7-0.8-3.2-1.8-5.2-2.5l-5.5-2.3l-10.8-4.4c-3.4-1.4-6.8-2.8-10.3-3.9
			c-3.4-1.3-7-2.2-10.7-2.7c-1.2,0-1.3,1.7-0.3,2c1.8,0.6,3.6,0.8,5.4,1.3c1.8,0.5,3.2,0.9,4.9,1.5c3.5,1.2,6.9,2.5,10.3,3.9
			l10.6,4.3c1.8,0.7,3.6,1.4,5.3,2.1c1.8,0.7,3.8,1.3,5.7,1.9C1448.8,408.4,1449.2,407.2,1448.6,406.9z"/>
		<path class="st4" d="M1487.1,389.2c-8.8,14.8-14.7,31.2-17.5,48.2c-0.2,1,1.3,1.4,1.5,0.4c3-16.9,8.7-33.1,16.9-48.1
			c0-0.1,0-0.2,0-0.3c0-0.1-0.1-0.2-0.2-0.3c-0.1-0.1-0.2-0.1-0.3-0.1C1487.3,389,1487.2,389.1,1487.1,389.2z"/>
		<path class="st4" d="M1424.1,433.6c15.1-0.7,30.2,1.7,44.4,6.8c1,0.4,1.4-1.2,0.4-1.5c-14.4-5.2-29.6-7.4-44.8-6.5
			C1423.4,432.4,1423.4,433.5,1424.1,433.6L1424.1,433.6z"/>
		<path class="st4" d="M1502.2,416.5c-5,14.8-6.9,30.4-5.8,46c0,1.3,2,1.3,2,0c-0.5-7.6-0.3-15.3,0.6-22.9c1-7.7,2.5-15.2,4.4-22.7
			c0-0.2,0-0.3-0.1-0.5c-0.1-0.2-0.2-0.3-0.4-0.3c-0.2,0-0.3,0-0.5,0.1C1502.3,416.3,1502.2,416.4,1502.2,416.5L1502.2,416.5z"/>
		<path class="st4" d="M1452.2,467.4c14.2-2.1,28.6-2.9,42.9-2.4c0.2,0,0.5-0.2,0.6-0.4c0.2-0.2,0.2-0.4,0.2-0.7
			c0-0.3-0.1-0.5-0.2-0.7s-0.4-0.3-0.6-0.4c-7.3-0.2-14.6-0.1-21.9,0.4c-7.2,0.6-14.3,1.6-21.4,3
			C1451.1,466.3,1451.4,467.5,1452.2,467.4z"/>
		<path class="st3" d="M1813.2,343.3c1.8-3.1,3.4-6.4,4.6-9.7c2.7-8.1,3.4-16.7,2-25.1c-1.4-8.4-3.4-16.6-6.1-24.7
			c-1,4.7-2.6,9.3-4.8,13.6c-7.3,16.4-12,34.9-8,52.5c1,3.1,1.5,6.4,1.4,9.7l1,0.6C1806.8,354.6,1810.1,349,1813.2,343.3z"/>
		<path class="st3" d="M1831.5,399.6l12.6-10.2L1834,389c-8.1-0.8-16.3-0.3-24.3,1.5c-10.4,3-18.9,10.3-27,17.5
			c1.6-11.9,1.9-24.4-3.2-35.3c-5.2-10.8-14.9-18.4-24.3-25.5c1.1,11.5-2.3,23.7,2.2,34.3c4.1,9.7,13.6,15.7,21.5,22.7
			c1.4,1.1,2.6,2.5,3.5,4.2c5.8,3.8,12.8,5.6,19.7,5.1c6.9-0.5,13.7-2.7,19.5-6.5C1825.1,404.8,1828.4,402.3,1831.5,399.6z"/>
		<path class="st3" d="M1729.2,461.2c5.4,5,15.1,7.7,22,10.3c4.3,1.8,8.7,3.2,13.3,4.2c4.6,1,9.4,0.7,13.8-0.9
			c4.2-1.6,8-4.7,12.4-5.7C1773.8,456.3,1749.2,454,1729.2,461.2z"/>
		<path class="st3" d="M1723.6,398.7c0.4,7.7-0.4,15.5-2.4,23c-1.9,7.5-1.9,15.4,0,22.9c1.7,6,4.5,11.6,8.1,16.6
			c5.4-5.6,9.1-12.6,10.6-20.3c1.5-7.7,0.6-15.6-2.4-22.8C1733.9,410.9,1729.2,404.4,1723.6,398.7z"/>
		<path class="st3" d="M1775.4,357.1c4.6,9.1,13.2,15.6,22.2,20.3c-0.4-13.7-2.4-29.6-8.4-41.8c-4.3-8.7-11.2-15.8-19.7-20.5
			c2.3,5.3,1.3,11.4,1.1,17.2c-0.2,5.2,0.3,10.4,1.5,15.5C1772.9,351,1774,354.1,1775.4,357.1z"/>
		<path class="st3" d="M1797.5,446.1c4.1-1.3,7.9-3.4,11.4-6.1c3.8-2.7,7.5-5.6,11.2-8.6c-7.9-3.1-16.3-4.8-24.8-5.1
			c-12.6,0-24.4,5.8-35.7,11.5l-0.4,0.9c9.1,3.9,18.8,7.8,28.7,8.2C1791,447.2,1794.3,446.9,1797.5,446.1z"/>
		<path class="st3" d="M1758.9,438.1l0.6-0.3c2.8-6.1,4.5-12.7,5-19.5c0.5-7.1-1-14.3-4.3-20.6c-2.1-3.5-4.5-6.8-7.3-9.7
			c-4.2-4.6-8.6-9-13.2-13.2c-0.2,6.1-0.5,12.1-0.7,18.2c-0.2,2.9-0.2,5.8,0,8.7c0.5,4.8,2,9.4,4.4,13.5
			C1748.4,423,1756.5,429.1,1758.9,438.1z"/>
		<path class="st3" d="M1838.1,357.3c4-5.1,8-10.2,11.9-15.3c-9.6,1.6-18.7,5.1-26.8,10.5c-2.7,2-5.2,4.1-7.5,6.5
			c-6,5.7-11.5,11.8-16.5,18.4c-0.2,0.3-0.4,0.4-0.7,0.6c-0.3,0-0.6,0-0.8-0.2v0.5c6.5,0.3,12.9-0.7,19-3.1c6-2.4,11.5-6,16-10.7
			C1834.6,362.1,1836.4,359.7,1838.1,357.3z"/>
		<path class="st4" d="M1810.3,325.2c-1.2,6.2-2.9,12.4-4.4,18.5c-1.5,6.2-3.2,12.3-4.9,18.4c-3.6,12.2-8.3,24-13.9,35.3
			c-10.1,20.6-24.7,38.6-42.8,52.6c-9.9,7.6-21,13.4-32.8,17.3c-1.7,0.6-1,3.2,0.7,2.7c21.4-7.3,40.4-20.3,55-37.6
			c15.8-18.9,27.7-40.8,34.9-64.4c2.2-6.9,4.1-13.9,5.8-21c0.8-3.5,1.5-6.9,2.2-10.4c0.6-3.5,1.1-7.4,1.7-11
			C1811.6,324.7,1810.5,324.4,1810.3,325.2L1810.3,325.2z"/>
		<path class="st4" d="M1803.6,361.2c3.2-4.6,6.1-9.3,8.8-14.2c2.8-4.6,5-9.4,6.8-14.4c2.7-10.1,2.7-20.8,0-30.9
			c-1.3-6.1-3.2-12.1-4.9-18.1c-0.2-0.7-1.3-0.8-1.5,0c-1.2,5.1-3,10-5.4,14.6c-2.1,4.6-3.9,9.4-5.4,14.2
			c-3.2,9.5-4.5,19.6-3.9,29.6c0.2,2.9,0.7,5.7,1.3,8.5c0.9,2.9,1.3,5.9,1.3,8.9c0,1.9,2.7,1.8,2.9,0c0.6-5.1-1.6-10.1-2.3-15
			c-0.7-5-0.8-10-0.4-15c1-10.1,3.5-20.1,7.5-29.4c2.6-5,4.5-10.4,5.9-15.9h-1.5c3.5,10,5.7,20.4,6.4,31c0.2,5.2-0.5,10.5-1.9,15.5
			c-1.6,4.9-3.8,9.7-6.4,14.1c-3,5.3-6.1,10.4-9.1,15.7c-0.5,0.9,0.8,1.7,1.4,0.8H1803.6z"/>
		<path class="st4" d="M1798.5,377.8c0.2-9.8-0.9-19.6-3.2-29.2c-2.1-9.2-6.5-17.7-12.7-24.8c-3.6-3.9-7.7-7.2-12.3-9.7
			c-0.8-0.5-2.1,0.3-1.7,1.3c1.5,4.5,1.9,9.3,1.2,14c-0.4,4.9-0.2,9.8,0.5,14.7c0.7,4.9,2.2,9.6,4.3,14c1.9,3.6,4.3,6.9,7.3,9.7
			c2.9,2.9,6.2,5.4,9.7,7.5c1.8,1.1,3.6,2.1,5.4,3c0.3,0.2,0.8,0.4,1.2,0.4c0.4,0,0.8,0,1.2-0.2c0.8-0.7,1.5-1.5,2.1-2.5
			c5.9-7.7,12.7-14.8,20.2-21c8.5-6.3,18.4-10.4,28.8-11.8l-1.1-1.9c-3,3.8-6.1,7.6-9.1,11.5c-2.7,3.7-5.7,7.3-8.8,10.7
			c-5.6,5.7-12.7,9.8-20.4,11.7c-4.3,1.1-8.8,1.6-13.3,1.4c-1.5,0-1.5,2.3,0,2.4c8.2,0.6,16.5-1.2,23.8-5c3.7-1.9,7-4.3,10.1-7.1
			c3.3-3.3,6.3-6.9,9.1-10.7c3.5-4.5,7-9.1,10.5-13.7c0.7-0.9-0.4-1.9-1.3-1.7c-8.7,1.6-17.2,4.6-24.9,9c-3.8,2.5-7.4,5.4-10.6,8.7
			c-3.4,3.3-6.6,6.7-9.7,10.3c-1.5,1.8-3,3.6-4.4,5.4l-1,1.3c-0.2,0.3-0.5,0.6-0.7,0.9c-0.3,0-1-0.6-1.2-0.7l-1.4-0.8
			c-3.5-2.1-6.8-4.4-9.9-7.1c-6.7-5.5-11.2-13.2-12.7-21.8c-1.1-5.4-1.4-10.9-1.1-16.4c0.7-5,0.2-10.1-1.5-14.9l-1.6,1.6
			c7.9,4.4,14.4,11,18.7,19c4.1,8.4,6.7,17.4,7.7,26.7c0.7,5.3,1.2,10.7,1.6,16c0,0.2,0.1,0.4,0.2,0.5c0.1,0.1,0.3,0.2,0.5,0.2
			c0.2,0,0.4-0.1,0.5-0.2c0.2-0.1,0.2-0.3,0.2-0.5V377.8z"/>
		<path class="st4" d="M1783.3,408.3c2.1-9.7,1.9-19.8-0.5-29.4c-2.8-8.9-8-16.7-15.1-22.7c-3.8-3.5-8-6.5-12.1-9.7
			c-0.2-0.1-0.3-0.1-0.5-0.1c-0.2,0-0.4,0-0.5,0.1c-0.2,0.1-0.3,0.2-0.4,0.4c-0.1,0.2-0.1,0.3-0.1,0.5c0.8,10-1.7,20.2,0.6,30.2
			c2,9,8.4,15.4,15.3,21.1c1.9,1.5,3.8,3,5.7,4.6c2.2,1.5,4.1,3.5,5.6,5.7c0.1,0.2,0.2,0.3,0.4,0.4c0.2,0.1,0.3,0.2,0.5,0.2
			c0.2,0,0.4,0,0.6-0.1c0.2-0.1,0.3-0.2,0.5-0.3c5.9-5.7,12.5-10.6,19.6-14.6c8.1-3.7,16.9-5.3,25.8-4.5c5.1,0,10.3,0.5,15.5,0.7
			l-0.8-2c-3.6,3-7.3,5.9-11,8.9c-3.6,3.1-7.4,5.9-11.3,8.5c-7.3,4.8-16.1,6.9-24.8,6.1c-4.7-0.5-9.3-2.2-13.2-4.9
			c-1.3-0.9-2.4,1.2-1.2,2c7.5,4.8,16.6,6.5,25.3,4.6c9.1-2.2,17.4-6.7,24.4-13c4.5-3.6,9-7.3,13.5-10.9c0.9-0.7,0-1.9-0.8-2
			c-9.4-0.9-18.8-0.9-28.1-0.1c-8.5,1.3-16.5,4.8-23.3,10.1c-3.9,2.9-7.6,6-11.2,9.2l1.9,0.3c-1.1-2-2.6-3.7-4.4-5.1
			c-1.6-1.4-3.2-2.8-5-4.2c-3.4-2.6-6.7-5.5-9.7-8.6c-3.1-3.1-5.4-6.9-6.8-11.1c-1.3-4.8-1.8-9.7-1.5-14.7c0.3-5.6,0.3-11.2,0-16.8
			l-1.6,0.9c7.3,5,13.9,11,19.6,17.8c5.5,7.5,8.5,16.6,8.5,25.9c0.1,5.4-0.1,10.8-0.7,16.2c0,0.7,1.2,0.9,1.3,0L1783.3,408.3z"/>
		<path class="st4" d="M1759.7,439c4.7-8.6,6.7-18.6,5.5-28.4c-0.5-4.6-1.8-9.1-4-13.2c-2.4-4.2-5.4-8.1-8.8-11.5
			c-3.9-4.2-7.9-8.2-12.2-12c-0.1-0.1-0.3-0.2-0.5-0.2c-0.2,0-0.4,0-0.5,0.1c-0.2,0.1-0.3,0.2-0.4,0.3c-0.1,0.2-0.2,0.3-0.2,0.5
			c-0.2,5.3-0.5,10.6-0.7,15.9c-0.4,4.9-0.3,9.9,0.5,14.8c0.9,4.3,2.7,8.4,5.2,12c2.3,3.2,5,6.2,7.5,9.3c3.1,3.4,5.4,7.4,6.8,11.7
			c0,0.2,0.1,0.3,0.2,0.4c0.1,0.1,0.2,0.2,0.4,0.3c0.2,0.1,0.3,0.1,0.5,0.1c0.2,0,0.3-0.1,0.5-0.1c7.1-3.8,14.6-7,22.3-9.5
			c7.9-2.3,16.2-2.6,24.3-0.9c4.6,1,9.2,2.4,13.7,4l-0.5-2c-3.5,2.8-7,5.5-10.6,8.1c-3.2,2.5-6.8,4.6-10.6,6
			c-4,1.1-8.2,1.4-12.3,0.9c-4.2-0.4-8.4-1.3-12.4-2.7c-4.6-1.5-9.1-3.2-13.6-5.3c-1.3-0.6-2.5,1.4-1.2,2c8,3.8,16.5,6.5,25.2,8
			c4.4,0.7,8.9,0.6,13.3-0.3c4.1-1.1,7.9-3,11.2-5.6c4.3-3,8.5-6.2,12.5-9.7c0.1-0.1,0.2-0.3,0.3-0.5c0-0.2,0-0.4,0-0.6
			c-0.1-0.2-0.2-0.4-0.3-0.5s-0.3-0.3-0.5-0.3c-8.1-3-16.7-4.7-25.4-5.1c-8.2,0.4-16.2,2.3-23.6,5.7c-4.4,1.9-8.7,4.1-12.9,6.3
			l1.5,0.6c-2.1-7.7-8-13-12.9-19.1c-2.8-3.5-4.9-7.4-6.2-11.7c-1.1-4.8-1.5-9.7-1.1-14.7c0.2-5.9,0.4-11.8,0.6-17.7l-1.6,0.6
			c3.5,3.2,6.9,6.5,10.2,10c3.3,3.4,6.4,7.1,9,11.1c4.8,8,6.6,17.6,4.9,26.8c-1.1,5.3-2.6,10.5-4.5,15.5
			C1758,439.2,1759.2,439.7,1759.7,439L1759.7,439z"/>
		<path class="st4" d="M1729.8,461.7c6.6-6.1,10.7-14.4,11.6-23.4c1.2-9.3-0.9-18.7-5.9-26.6c-3.3-4.9-7.1-9.6-11.1-13.9
			c-0.2-0.2-0.4-0.3-0.6-0.3c-0.2,0-0.4,0-0.6,0.1c-0.2,0.1-0.4,0.2-0.5,0.4s-0.2,0.4-0.2,0.6c1,9.2-1.7,18-3,27
			c-0.7,4.1-0.9,8.4-0.6,12.6c0.5,4,1.6,8,3.2,11.7c1.6,4.2,3.8,8.2,6.4,11.9c0.1,0.2,0.3,0.4,0.5,0.5c0.2,0.1,0.5,0.1,0.7,0
			c15.8-5.6,33.1-5.2,48.6,1c4.3,1.8,8.3,4.1,12.1,6.8l0.3-2.2c-3.9,1.3-7.6,3.1-11.1,5.2c-4.3,1.9-9.1,2.4-13.8,1.5
			c-4.6-0.9-9.1-2.2-13.5-4c-3.6-1.4-7.3-2.6-10.9-4c-4.1-1.4-7.8-3.5-11.2-6.2c-1.1-1-2.8,0.6-1.7,1.7c5.9,5.3,14,7.5,21.3,10.2
			c8.8,3.2,18.2,7.1,27.7,4.2c4.8-1.5,8.8-5,13.7-6.1c0.2-0.1,0.4-0.2,0.6-0.4c0.2-0.2,0.2-0.4,0.3-0.6c0-0.2,0-0.5-0.1-0.7
			c-0.1-0.2-0.2-0.4-0.5-0.5c-14.2-9.9-31.6-14-48.6-11.4c-4.7,0.6-9.4,1.8-13.9,3.4l1.1,0.3c-2.3-3.1-4.3-6.5-5.7-10.2
			c-1.7-3.7-2.7-7.7-3.2-11.7c-0.8-8.5,1.5-16.8,2.9-25.1c0.9-4.8,1.2-9.8,0.8-14.7l-1.9,0.8c6.4,7.2,12.9,14.7,15.4,24.2
			c2.1,8.3,1.5,17.1-1.8,25c-1.9,4.4-4.5,8.5-7.7,12.1c-0.1,0.1-0.1,0.3-0.1,0.5c0,0.2,0.1,0.3,0.2,0.5c0.1,0.1,0.3,0.2,0.4,0.2
			c0.2,0,0.4,0,0.5-0.1H1729.8z"/>
		<path class="st4" d="M1831.2,355.4c-5.1,3.6-10,7.5-15.2,11c-5.2,3.5-10.6,6.8-16.1,9.7c-1,0.6,0,2.1,0.9,1.6
			c5.6-3,10.9-6.2,16.1-9.7c5.4-3.4,10.4-7.3,15.1-11.6c0.4-0.5,0-1.3-0.7-0.9H1831.2z"/>
		<path class="st4" d="M1798.3,376.3c-7.2-13.6-13.4-27.7-18.6-42.2c-0.4-1.1-2.2-0.6-1.8,0.5c5,14.7,11.5,28.8,19.3,42.2
			c0,0.1,0.1,0.1,0.1,0.2c0.1,0,0.1,0.1,0.2,0.1c0.1,0,0.1,0,0.2,0c0.1,0,0.1,0,0.2-0.1c0.1,0,0.1-0.1,0.2-0.1
			c0.1-0.1,0.1-0.1,0.1-0.2c0-0.1,0-0.1,0-0.2C1798.2,376.4,1798.2,376.3,1798.3,376.3L1798.3,376.3z"/>
		<path class="st4" d="M1761.2,363c2.4,3,4.4,6.2,5.9,9.7c1.8,3.5,3.5,7,5.1,10.6c1.6,3.6,3.2,7.4,4.5,11.1
			c1.3,3.7,2.4,7.5,3.8,11.2c0.1,0.2,0.3,0.4,0.5,0.5c0.2,0.1,0.5,0.1,0.7,0.1c0.2-0.1,0.4-0.2,0.6-0.4c0.1-0.2,0.2-0.4,0.2-0.7
			c-1.1-3.9-2.4-7.8-4-11.6c-1.4-3.8-2.9-7.5-4.5-11.2c-1.6-3.7-3.5-7.4-5.4-11c-1.6-3.4-3.8-6.6-6.4-9.2c-0.1-0.1-0.3-0.2-0.5-0.2
			c-0.2,0-0.3,0.1-0.5,0.2s-0.2,0.3-0.2,0.5C1761,362.8,1761.1,362.9,1761.2,363L1761.2,363z"/>
		<path class="st4" d="M1783.1,408.8c1.9-0.5,3.7-0.9,5.6-1.5l5.5-1.8l10.8-3.6c3.5-1.1,7-2.3,10.5-3.2c1.7-0.5,3.4-0.8,5.1-1.2
			c1.7-0.4,3.8-0.5,5.6-0.9c0.2-0.1,0.4-0.2,0.6-0.4c0.1-0.2,0.2-0.4,0.2-0.7c0-0.2-0.2-0.5-0.3-0.6c-0.2-0.2-0.4-0.2-0.7-0.2
			c-3.6,0.2-7.1,0.9-10.6,1.9c-3.6,0.9-7.2,2.1-10.7,3.2l-10.8,3.6l-5.5,1.9c-1.9,0.6-3.7,1.6-5.6,2.2
			C1781.9,407.8,1782.3,409.1,1783.1,408.8L1783.1,408.8z"/>
		<path class="st4" d="M1744.4,387.9c7.1,15.5,11.7,32,13.6,48.9c0,1,1.7,1,1.6,0c-1.7-17.3-6.6-34-14.5-49.5
			c-0.3-0.6-1.1,0-0.9,0.5H1744.4z"/>
		<path class="st4" d="M1805.3,434.7c-15.1-1.9-30.4-0.7-45.1,3.4c-0.1,0-0.2,0.1-0.3,0.1c-0.1,0.1-0.2,0.1-0.2,0.2
			c0,0.1-0.1,0.2-0.1,0.3c0,0.1,0,0.2,0,0.3c0,0.1,0.1,0.2,0.1,0.3c0.1,0.1,0.1,0.2,0.2,0.2c0.1,0.1,0.2,0.1,0.3,0.1
			c0.1,0,0.2,0,0.3,0c14.5-4.2,29.8-5.5,44.8-3.9c0.7,0,0.7-1,0-1.1H1805.3z"/>
		<path class="st4" d="M1727.2,414.1c1.5,7.6,2.4,15.3,2.9,23c0.4,7.6,0.1,15.3-0.9,22.9c0,1.3,1.8,1.3,2,0
			c2.2-15.4,1.2-31.2-2.7-46.2c0-0.2-0.1-0.3-0.3-0.4c-0.1-0.1-0.3-0.1-0.5-0.1c-0.2,0-0.3,0.2-0.4,0.3
			C1727.2,413.8,1727.2,413.9,1727.2,414.1z"/>
		<path class="st4" d="M1775.3,466.6c-3.5-0.9-7-1.9-10.6-2.6c-3.6-0.7-7.2-1.3-10.8-1.8c-7.2-1-14.3-1.6-21.6-1.8
			c-0.3,0-0.5,0.1-0.7,0.3c-0.2,0.2-0.3,0.5-0.3,0.7c0,0.3,0.1,0.5,0.3,0.7c0.2,0.2,0.5,0.3,0.7,0.3c14.4,0.6,28.6,2.3,42.7,5.3
			c0.2,0,0.3,0,0.4-0.1c0.1-0.1,0.2-0.2,0.3-0.4c0-0.2,0-0.3-0.1-0.4C1775.6,466.8,1775.5,466.7,1775.3,466.6z"/>
		<path class="st5" d="M1825.8,508.1H1613h-212.8l50.1-24.6H1613h162.7L1825.8,508.1z"/>
		<path class="st6" d="M1414.7,526.9h-10.2c-7-14.2-4.3-19.1-4.3-19.1h425.6c0,0,2.8,4.9-4.3,19.1h-113.7l-7.6,13.7h-174.4
			l-7.6-13.6h-103.5V526.9z"/>
		<path class="st7" d="M1825.2,621.7c0.1,1.5-0.2,3-0.8,4.3c-0.6,1.3-1.5,2.5-2.7,3.5c-1.2,0.9-2.5,1.5-4,1.8
			c-1.4,0.3-2.9,0.2-4.3-0.2c-5-1.4-10.1-2-15.2-2l11.1-86.1l13.5,14.2L1825.2,621.7z"/>
		<path class="st6" d="M1811.4,526.9l-2.1,16l-11.1,86.1L1780.1,769c-0.9,6.8-4.2,13.1-9.3,17.6s-11.7,7-18.6,7.1h-278.4
			c-6.8,0-13.4-2.5-18.5-7.1c-5.1-4.5-8.4-10.8-9.3-17.6L1427.9,629l-11.1-86.1l-2.1-16h49.4l24.1,231.6h249.5l24.2-231.6H1811.4z"
			/>
		<path class="st2" d="M1761.9,526.9l-24.2,231.6H1613h-124.7l-24.1-231.6h54.1l7.6,13.5h87.2h87.2l7.6-13.5H1761.9z"/>
		<path class="st7" d="M1416.8,542.9l11.1,86.1c-5.2-0.1-10.3,0.6-15.3,2c-1.4,0.4-2.9,0.5-4.4,0.2c-1.5-0.3-2.8-0.9-4-1.8
			c-1.2-0.9-2.1-2.1-2.7-3.4c-0.6-1.3-0.9-2.8-0.9-4.3l2.5-64.5L1416.8,542.9z"/>
		<path class="st4" d="M1405.7,527.6h112.7c0.3,0,0.5-0.1,0.7-0.3c0.2-0.2,0.3-0.4,0.3-0.7c0-0.3-0.1-0.5-0.3-0.7
			c-0.2-0.2-0.4-0.3-0.7-0.3h-112.7c-0.3,0-0.5,0.1-0.7,0.3c-0.2,0.2-0.3,0.4-0.3,0.7c0,0.3,0.1,0.5,0.3,0.7
			C1405.2,527.5,1405.5,527.6,1405.7,527.6z"/>
		<path class="st4" d="M1712.3,527.6H1820c0.3,0,0.5-0.1,0.7-0.3c0.2-0.2,0.3-0.4,0.3-0.7c0-0.3-0.1-0.5-0.3-0.7
			c-0.2-0.2-0.4-0.3-0.7-0.3h-107.7c-0.3,0-0.5,0.1-0.7,0.3c-0.2,0.2-0.3,0.4-0.3,0.7c0,0.3,0.1,0.5,0.3,0.7
			C1711.8,527.5,1712,527.6,1712.3,527.6z"/>
		<path class="st4" d="M1527.4,541.6h172.7c0.3,0,0.5-0.1,0.7-0.3c0.2-0.2,0.3-0.4,0.3-0.7c0-0.3-0.1-0.5-0.3-0.7
			c-0.2-0.2-0.4-0.3-0.7-0.3h-172.7c-0.3,0-0.5,0.1-0.7,0.3c-0.2,0.2-0.3,0.4-0.3,0.7c0,0.3,0.1,0.5,0.3,0.7
			C1526.9,541.5,1527.2,541.6,1527.4,541.6z"/>
		<path class="st4" d="M1517.3,528.3c2.8,4.2,5.7,8.5,8.5,12.8c0.7,1,2.4,0,1.7-1l-8.5-12.7C1518.3,526.3,1516.6,527.3,1517.3,528.3
			z"/>
		<path class="st4" d="M1706.5,527.8c-2.1,4.1-4.6,8-7.3,11.7c-0.1,0.1-0.1,0.2-0.1,0.4c0,0.1,0,0.3,0,0.4c0,0.1,0.1,0.2,0.2,0.4
			c0.1,0.1,0.2,0.2,0.3,0.3c0.1,0.1,0.2,0.1,0.4,0.1c0.1,0,0.3,0,0.4,0c0.1,0,0.2-0.1,0.3-0.2c0.1-0.1,0.2-0.2,0.2-0.3
			c2.7-3.7,5.2-7.6,7.3-11.7C1708.8,527.7,1707.1,526.6,1706.5,527.8z"/>
		<path class="st4" d="M1405.7,508.8h417.1c0.3,0,0.5-0.1,0.7-0.3c0.2-0.2,0.3-0.4,0.3-0.7s-0.1-0.5-0.3-0.7
			c-0.2-0.2-0.4-0.3-0.7-0.3h-417.1c-0.3,0-0.5,0.1-0.7,0.3c-0.2,0.2-0.3,0.4-0.3,0.7s0.1,0.5,0.3,0.7
			C1405.2,508.7,1405.5,508.8,1405.7,508.8z"/>
		<path class="st4" d="M1447.8,739.1c-0.2,3.9,0,7.8,0.6,11.7c1.9,11.8,7.1,22.9,14.9,32c1,1.1,2.6-0.5,1.6-1.7
			c-4.8-5.9-8.7-12.5-11.3-19.7c-2.6-7.2-4-14.7-4.2-22.3c0-0.2-0.1-0.4-0.2-0.6s-0.3-0.2-0.5-0.2s-0.4,0.1-0.5,0.2
			S1447.8,738.9,1447.8,739.1z"/>
		<path class="st4" d="M1460.6,767.1c0.5,2.4,1.5,4.7,2.8,6.8c1.2,2.2,2.9,4.1,4.9,5.7c1.1,0.8,2.2-0.9,1.4-1.8
			c-0.9-0.9-1.6-1.6-2.4-2.5c-0.8-0.9-1.5-1.8-2.2-2.7c-1.3-1.9-2.3-4-3.2-6.1C1461.5,765.8,1460.5,766.4,1460.6,767.1z"/>
		<path class="st4" d="M1410.1,629.1c-0.3-3.8,0-7.7,0-11.5c0-3.8,0-7.7,0.5-11.5c0.7-7.8,2.2-15.5,4.3-23.1
			c1.2-4.2,2.7-8.4,4.3-12.4c0.6-1.6-1.9-2.2-2.5-0.7c-6,14.6-9.1,30.1-9.2,45.9c0,2.2,0,4.3,0.2,6.5c0.2,2.2,0.6,4.6,0.9,6.9
			C1408.7,630.1,1410.3,630.1,1410.1,629.1L1410.1,629.1z"/>
		<path class="st4" d="M1805.5,574.6c3.2,8.4,5.8,17,7.7,25.7c0.9,4.4,1.5,8.9,1.8,13.4c0.2,2.2,0.3,4.4,0.3,6.5c0.1,2,0,4.6,0,6.9
			c0,0.3,0.1,0.6,0.3,0.8c0.2,0.2,0.5,0.3,0.8,0.3c0.3,0,0.6-0.1,0.8-0.3c0.2-0.2,0.3-0.5,0.3-0.8c0.4-4.6,0.3-9.2-0.2-13.8
			c-0.4-4.6-1-9.1-1.9-13.6c-1.6-9.1-4.6-17.8-8.8-25.9c-0.4-0.6-1.5-0.2-1.2,0.6V574.6z"/>
		<path class="st4" d="M1789.8,641.6c-1.5,8.2-3,16.2-4.4,24.5c-1.4,8.3-2.7,16.4-4,24.6c-2.7,16.2-5.4,32.5-8.1,48.6
			c-0.8,4.5-1.5,9-2.3,13.4c-0.8,4.4-1.8,9.1-2.2,13.7c0,1.3,1.9,1.5,2.2,0.3c1-4.1,1.5-8.3,2.2-12.4c0.7-4.1,1.3-7.9,2-11.9
			c1.4-8.1,2.7-16.2,4.1-24.3c2.7-16.2,5.3-32.5,7.9-48.6c1.5-9.1,2.7-18.3,4-27.4C1791.2,641.1,1790,640.7,1789.8,641.6
			L1789.8,641.6z"/>
		<path class="st4" d="M1766.6,737.6c-1.3,4.9-2.4,9.7-3.4,14.9c-0.4,2.4-0.9,4.8-1.3,7.3c-0.5,2.5-0.9,5.1-1.1,7.6
			c0,0.3,0.1,0.6,0.2,0.8c0.2,0.2,0.4,0.4,0.7,0.4c0.3,0,0.6,0,0.8-0.2c0.2-0.2,0.4-0.4,0.5-0.7c0.6-2.4,0.8-4.9,1.2-7.3
			s0.8-5,1.3-7.6c0.8-5,1.6-9.9,2.4-14.9C1767.8,737.1,1766.8,736.7,1766.6,737.6z"/>
		<path class="st3" d="M1712.6,693.5l-18.4,29.8c-1.3,2.1-3,3.8-5.1,4.9c-2.1,1.2-4.5,1.8-6.9,1.8h-24.6v15.8L1624,712l33.4-34.2
			v15.8h28.1l-34.8-51.9l30-20.5l31.3,46.6c2.6,3.8,4,8.2,4.1,12.8C1716.2,685.1,1714.9,689.6,1712.6,693.5z"/>
		<path class="st3" d="M1671.1,585.4l-14.9,45.4l-45.3-14.6l14-7.2l-12.9-25.2l-30.2,54.6l-31.6-17.8l27.2-49.2
			c2.2-4,5.5-7.2,9.5-9.4s8.5-3,13-2.6l34.7,3.2c2.4,0.2,4.7,1,6.7,2.4s3.6,3.2,4.7,5.4l11.1,22.1L1671.1,585.4z"/>
		<path class="st3" d="M1606.3,696.3v36.5h-55.9c-4.5,0-8.9-1.3-12.7-3.8c-3.8-2.5-6.8-5.9-8.6-10.1l-14.2-32.1
			c-1-2.2-1.4-4.7-1.2-7.1s1-4.8,2.4-6.8l13.7-20.5l-12.9-8.8l46.6-9l9.4,47l-12.9-8.8l-15.8,23.4H1606.3z"/>
		<path class="st4" d="M1530.5,657.8c-1.1,1.1-2.2,2.2-3.2,3.2c-1,1-2.1,2.5-3,3.8c-1,1.3-1.9,2.5-2.7,3.8c-0.9,1.3-1.8,2.7-2.4,4.2
			c-0.4,1,1.2,1.9,1.9,1.1c0.9-1.2,1.7-2.5,2.4-3.9c0.8-1.3,1.7-2.6,2.6-3.9c1.8-2.5,3.6-5.1,5.6-7.4c0.6-0.7-0.4-1.8-1.1-1.1V657.8
			z"/>
		<path class="st4" d="M1529.1,667.8c-1.3,1.5-2.7,3-4,4.5c-0.6,0.8-1.3,1.6-1.9,2.4c-0.6,0.8-1.2,1.6-1.7,2.5
			c-0.1,0.2-0.2,0.5-0.1,0.8c0.1,0.3,0.2,0.5,0.4,0.7c0.2,0.2,0.5,0.3,0.7,0.3s0.5-0.1,0.7-0.3c0.7-0.8,1.2-1.7,1.7-2.5l1.6-2.5
			c1.1-1.6,2.3-3.2,3.5-4.7C1530.8,668.2,1529.8,667.1,1529.1,667.8L1529.1,667.8z"/>
		<path class="st4" d="M1557.5,618.4c7.4-13.4,15.6-26.4,24.5-38.9c1-1.4-1.3-2.7-2.3-1.3c-9,12.5-16.9,25.7-23.7,39.5
			C1555.6,618.7,1556.9,619.5,1557.5,618.4L1557.5,618.4z"/>
		<path class="st4" d="M1566.7,610.8c1.7-3.2,3.5-6.5,5.4-9.4c0.9-1.5,1.8-3,2.8-4.4c1.1-1.5,2.1-3.1,2.9-4.8c0.5-1.2-1.2-1.9-2-1.2
			c-1.3,1.4-2.3,3-3.2,4.6c-0.9,1.5-1.8,3-2.6,4.5c-1.7,3.2-3.2,6.5-5,9.7c-0.5,1,1,1.9,1.6,0.9L1566.7,610.8z"/>
		<path class="st4" d="M1581,569.8c1.7-1,3.6-1.5,5.6-1.7c2-0.1,3.9,0.2,5.7,0.9c3.8,1.5,7.2,3.9,9.9,6.9c5.6,6,10.2,12.9,13.8,20.3
			c2.2,4.2,4.1,8.6,6.1,13c0.7,1.7,3.2,0.2,2.4-1.4c-3.5-8.3-7.6-16.2-12.4-23.8c-2.4-3.7-5.2-7.1-8.2-10.2
			c-2.9-3.2-6.6-5.7-10.6-7.2c-2.2-0.8-4.5-1-6.8-0.7c-2.3,0.3-4.4,1.2-6.3,2.6C1579.3,569.1,1580.1,570.5,1581,569.8L1581,569.8z"
			/>
		<path class="st4" d="M1559.4,672.7c-3.1,3.3-5.9,6.8-8.7,10.4c-2.7,3.7-5.1,7.6-7,11.7c-4.1,8-5.4,17.1-3.9,25.9
			c0.7,4.5,3.1,8.6,6.7,11.3c0.3,0.2,0.6,0.2,1,0.1s0.6-0.3,0.8-0.5c0.2-0.3,0.3-0.6,0.3-0.9c0-0.3-0.2-0.7-0.4-0.9
			c-1.3-1.3-2.5-2.7-3.4-4.2c-0.9-1.6-1.5-3.3-1.9-5.1c-0.9-4-1-8.2-0.3-12.3c1.6-8.2,5-16,9.9-22.7c2.7-4,5.4-7.9,8.2-11.8
			C1561.2,673,1560,672,1559.4,672.7L1559.4,672.7z"/>
		<path class="st4" d="M1657.6,694.5c4.8,0.8,9.7,1.1,14.5,0.7c4.9,0,9.7-0.4,14.7-0.9c8-0.8,17.1-2.4,22.7-8.9
			c2.8-3.1,4.3-7.1,4.4-11.2c0-0.3-0.1-0.5-0.3-0.7c-0.2-0.2-0.4-0.3-0.7-0.3c-0.3,0-0.5,0.1-0.7,0.3c-0.2,0.2-0.3,0.4-0.3,0.7
			c-0.2,7.5-6.7,13-13.3,15.4c-3.9,1.3-8,2.1-12.1,2.4c-4.5,0.5-9,0.7-13.5,0.8c-2.5,0-5,0-7.4,0c-2.6-0.1-5.3-0.1-7.9,0.2
			C1657.1,693.1,1656.8,694.3,1657.6,694.5L1657.6,694.5z"/>
		<path class="st4" d="M1658.7,645.2c8.3,12.8,16.9,25.5,25.8,37.8c0.7,1,2.4,0,1.7-1c-8.4-12.7-17.3-25.2-26.5-37.5
			c-0.5-0.6-1.6,0-1.1,0.7H1658.7z"/>
		<path class="st4" d="M1679.8,668.2c1.1,1.6,2.1,3.2,3.2,4.8c1.2,1.6,2.2,3.2,3.2,4.7c0.2,0.2,0.4,0.4,0.7,0.5
			c0.3,0.1,0.6,0,0.8-0.1c0.1-0.1,0.2-0.2,0.3-0.3c0.1-0.1,0.2-0.2,0.2-0.4c0-0.1,0-0.3,0-0.4c0-0.1-0.1-0.3-0.1-0.4
			c-1.1-1.6-2.3-3.1-3.4-4.6c-1.2-1.5-2.4-3-3.5-4.5c0-0.1-0.1-0.2-0.2-0.3c-0.1-0.1-0.2-0.1-0.3-0.2c-0.1,0-0.2-0.1-0.3,0
			c-0.1,0-0.2,0-0.3,0.1c-0.1,0.1-0.2,0.1-0.2,0.2c-0.1,0.1-0.1,0.2-0.1,0.3c0,0.1,0,0.2,0,0.3
			C1679.7,668.1,1679.8,668.2,1679.8,668.2L1679.8,668.2z"/>
		<path class="st3" d="M1757.2,376.2c-4.9,34.8-22.1,66.7-48.3,89.8c-26.3,23.1-59.9,36-94.9,36.2c-4.4,0-8.9,0-13.4-0.6
			c-30.5-2.6-59.4-14.9-82.6-35c-23.2-20.1-39.5-47.1-46.6-77.1c-7.1-30-4.6-61.5,7-90c11.7-28.5,32-52.6,58-68.8
			c0.4,2.5,1.3,4.9,1.6,7.4c0.2,2.7-0.3,5.4-1.5,7.8c-1.2,2.4-3.1,4.4-5.4,5.8c-3.4,2-8.1,3-9.1,6.8c-0.3,2.1,0,4.3,0.9,6.2
			c2.2,6.5,3,13.3,2.4,20.1c-0.9,4.3-1,8.7-0.4,13c1,4.2,4.9,8.2,9.1,7.3c2.7-4,0.3-9.3-1.5-13.8c-1.8-4.5-2.2-11,2.2-13
			c2.7,9.5,5.4,19.1,8.2,28.6c0.6,3,1.9,5.9,3.8,8.3c3,3.2,8,4.6,12.2,6.5l11.6-2.6c-1.5-0.4-2.8-1.1-3.9-2.2
			c-2.7-3.4-4.2-7.7-4.3-12.1c-0.9-4.8-0.1-9.8,2.1-14.2c2.5-4.1,8.6-6.5,12.4-3.2c1.5,1.2,2.5,3,4,4.2c3.2,2.5,8,1,12.1,0
			c4-1,9.5-0.9,11,3c1.5,3.9-1,8.5,2.2,10.4c0.4,0.2,0.8,0.4,1.2,0.4c1.3-0.1,2.5-0.6,3.4-1.6c0.9-0.9,1.4-2.2,1.4-3.5
			c-0.4-3-1.5-5.9-3-8.5c-0.8-1.3-1.1-2.8-0.9-4.3c0.2-1.5,0.8-2.9,1.8-4.1c1.6-0.8,3.3-1.6,5-2.1c3.2-1.7,4.4-6,7.8-7.2
			c1.5-0.3,3.1-0.2,4.5,0.3c1.4,0.5,2.8,1.3,3.8,2.4c2.2,2.2,5,3.6,8,4c3.1,0,5.8-4.1,3.6-6.2c-1.2-0.8-2.6-1.3-4.1-1.4
			c-2-0.5-3.8-1.6-5.1-3.2c-1.3-1.6-2.2-3.5-2.3-5.6c1,3.5,6.4,1.5,8.4-1.6c2-3.1,4.3-7.3,7.8-6.3c3,0.8,4.3,5.4,7.5,5.4
			c0.5-0.1,1.1-0.3,1.5-0.6c0.5-0.3,0.9-0.7,1.2-1.2c0.3-0.5,0.5-1,0.6-1.5c0.1-0.6,0.1-1.1-0.1-1.7c-0.6-2.2-1.9-4.2-3.6-5.7
			c-2.8-3-5.6-5.9-8.5-8.9l-0.2-0.2c-0.9-1.3-2.3-2.1-3.8-2.5c-4.6-0.5-5.9,7.9-10.5,8.2c-3.2,0.2-5.2-3.6-8.2-4.2
			c-3.6-0.7-7.4,3.2-10.6,1.5s-2-8.7-5.5-10.9c-2-1.3-4.9-0.5-6.7-2.1c-2.7-2.4,0-6.9,3.5-8.3c3.5-1.4,7.4-2,9.1-5.2
			c1.7-3.2,0-6.5-1.7-9.7c4.7,0,9.5,0,14.3,0.6c6.2,0.5,12.3,1.4,18.4,2.8c19.8,4.3,38.4,12.7,54.8,24.7
			c16.4,12,30.1,27.3,40.2,44.9l-0.5,0.3c-0.1,5.6-1.5,11.2-4,16.2c-2.3,4.6-5.7,9.1-5.4,14.3c0.6,9.4,12.9,14.3,14.5,23.6
			c1.1,5.8-2.2,11.6-1.7,17.4c0.6,6.9,6.2,12.1,11,17C1754.3,372.4,1755.9,374.2,1757.2,376.2z"/>
		<path class="st6" d="M1738.9,281.8c15.2,26.1,21.9,56.2,19.3,86.3c-0.2,2.7-0.5,5.4-0.9,8.1c-1.3-2-2.8-3.8-4.4-5.5
			c-4.8-5-10.4-10.2-11-17c-0.5-5.8,2.8-11.6,1.7-17.4c-1.8-9.2-13.9-14.2-14.5-23.6c-0.3-5.2,3.2-9.7,5.4-14.3
			c2.5-5,3.9-10.6,4-16.2L1738.9,281.8z"/>
		<path class="st6" d="M1660.1,229.7c0.8,0.4,1.5,1,1.9,1.8c0.4,0.8,0.5,1.8,0.2,2.6c-0.3,0.9-0.8,1.7-1.4,2.3
			c-0.6,0.7-1.4,1.2-2.3,1.5c-1.7,0.6-3.5,0.9-5.3,0.9c-1.2,0.2-2.4,0.2-3.5,0c-0.9-0.1-1.7-0.5-2.4-1.2c-0.9-1.2-1.5-2.6-1.8-4.1
			c-0.6-1.7-1.6-3.2-2.8-4.4c-1.3-1.2-2.8-2.1-4.5-2.7c-1.2-0.3-2.6-0.7-3.2-1.8c-0.6-1.1,0.5-2.9,0-4.1c2.1-0.9,4.4-1.8,6.7-2.7
			c1.4-0.1,2.7,0,4.1,0.3c2.1,0.2,4.2,0.8,6.1,1.8c0.9,0.5,1.7,1.3,2.2,2.2c0.5,0.9,0.7,2,0.7,3.1c-0.2,1-0.7,2.1-0.3,3.1
			c0.3,0.5,0.7,0.8,1.2,1c0.5,0.2,1,0.3,1.5,0.3C1658,229.6,1659.1,229.6,1660.1,229.7z"/>
		<path class="st6" d="M1638.9,323.9c-0.9,0.7-1.6,1.7-2.6,2.3c-0.5,0.4-1.1,0.5-1.7,0.5c-0.6-0.1-1.2-0.4-1.5-0.8
			c-0.3-0.7-0.3-1.6,0-2.3l0.3-1.4c2.7-1.7,1-7.3,4-8.8c0.8-0.2,1.5-0.3,2.3-0.1s1.5,0.5,2.1,1c1.9,1.3,3.8,3.6,2.9,5.8
			S1640.7,322.5,1638.9,323.9z"/>
		<path class="st6" d="M1628.1,229.5c0.5,1.2,0.7,2.6,0.5,3.9c-0.1,0.7-0.5,1.3-1,1.7c-0.5,0.4-1.2,0.6-1.9,0.6
			c-2.1-0.3-2.7-3.2-4.7-3.9c-1.5-0.4-3.4,0.9-4.6,0c-0.3-0.3-0.5-0.7-0.6-1.1c-0.1-0.4-0.1-0.9,0-1.3c0.2-0.9,0.6-1.7,1.2-2.4
			c1.3-0.9,2.8-1.3,4.3-1.4c1-0.1,2-0.1,3,0.2s1.9,0.8,2.6,1.5C1627.4,227.9,1627.8,228.7,1628.1,229.5z"/>
		<path class="st6" d="M1615.5,331.1c0.7-0.4,1.4-0.6,2.2-0.4c0.7,0.1,1.4,0.6,1.9,1.2c0.5,0.6,0.7,1.4,0.6,2.1
			c-0.1,0.8-0.4,1.5-1,2c-0.7,0.6-1.6,1-2.5,1.1c-0.9,0.1-1.9,0-2.7-0.5c-0.3-0.3-0.7-0.6-1.1-0.9c0-0.9,0.3-1.9,0.7-2.7
			C1614.1,332.3,1614.7,331.6,1615.5,331.1z"/>
		<path class="st6" d="M1626.9,214.7c0.6,0.3,1.1,0.9,1.4,1.5c0.3,0.6,0.3,1.4,0.1,2c-0.2,0.7-0.6,1.3-1.2,1.7
			c-0.6,0.4-1.2,0.7-2,0.7c-0.7,0-1.4-0.2-1.9-0.7c-0.6-0.4-1-1-1.2-1.7l1.9-2.6c0.3-0.5,0.7-0.8,1.2-1
			C1625.9,214.5,1626.4,214.5,1626.9,214.7z"/>
		<path class="st6" d="M1534.8,278.7c-4.4,1.9-4,8.4-2.2,13c1.8,4.6,4.2,9.7,1.5,13.8c-4.2,0.8-8.1-3.2-9.1-7.3
			c-0.6-4.3-0.4-8.7,0.4-13c0.7-6.9-0.2-13.8-2.5-20.3c-0.9-2-1.3-4.2-1-6.3c1-3.8,5.7-4.9,9.1-6.8c2.3-1.4,4.2-3.4,5.4-5.8
			c1.2-2.4,1.8-5.1,1.5-7.8c-0.3-2.5-1.2-4.9-1.6-7.4c22.5-14,48.3-21.6,74.7-21.9c1.8,3,3.2,6.5,1.7,9.7c-1.5,3.2-5.8,3.8-9.1,5.2
			c-3.3,1.4-6.2,6-3.5,8.3c1.8,1.6,4.7,0.8,6.7,2.1c3.5,2.2,1.8,9,5.5,10.9c3.7,1.9,7-2.1,10.6-1.5c3.1,0.6,5.1,4.3,8.2,4.2
			c4.6-0.3,5.9-8.7,10.5-8.2c1.5,0.3,2.9,1.2,3.8,2.5l0.2,0.2c2.8,3,5.6,6,8.5,8.9c1.7,1.5,3,3.5,3.6,5.7c0.1,0.5,0.2,1.1,0.1,1.7
			s-0.3,1.1-0.6,1.5c-0.3,0.5-0.7,0.9-1.2,1.2c-0.5,0.3-1,0.5-1.5,0.6c-3.2,0-4.5-4.5-7.5-5.4c-3.5-1-5.9,3.2-7.8,6.3
			c-1.9,3-7.4,5.1-8.4,1.6c0.2,2.1,1,4,2.3,5.6c1.3,1.6,3.1,2.7,5.1,3.2c1.5,0.1,2.9,0.6,4.1,1.4c2.2,2.1-0.6,6.2-3.6,6.2
			c-3-0.4-5.8-1.8-8-4c-1.1-1.1-2.4-1.9-3.8-2.4c-1.5-0.5-3-0.6-4.5-0.3c-3.2,1.1-4.7,5.5-7.8,7.2c-1.7,0.6-3.4,1.3-5,2.1
			c-1,1.1-1.6,2.6-1.8,4.1s0.2,3,0.9,4.3c1.6,2.6,2.6,5.5,3,8.5c0,1.3-0.5,2.5-1.3,3.4c-0.8,0.9-2,1.5-3.3,1.6
			c-0.4,0-0.8-0.2-1.2-0.4c-3.2-1.9-0.8-7-2.2-10.4c-1.3-3.4-6.9-4.1-11-3c-4,1.1-8.7,2.6-12.1,0c-1.5-1.2-2.5-3-4-4.2
			c-3.8-3-9.9-0.8-12.4,3.2c-2.2,4.4-2.9,9.4-2.1,14.2c0.1,4.4,1.6,8.7,4.3,12.1c3,3.2,9,3.6,11.3,0c1.2-1.9,1.2-4.3,2.2-6.2
			c1-1.9,4.1-3.2,5.2-1.3c1.2,1.9,0.8,5.8,2.6,4.8c0.3-2.6,4.2-3.2,6.1-1.4c0.5,0.4,0.9,1,1.2,1.5c0.8,1.8,1.3,3.7,1.4,5.7
			c0,1.3,0.3,2.6,0.9,3.8c0.5,1.2,1.3,2.2,2.3,3.1c1.7,1.1,4.2,1.3,5.1,3.2c1.4,3.2-3.6,5-5.7,7.7c-0.8,1.4-1.2,3.1-0.9,4.7
			c0.3,1.6,1.1,3.1,2.3,4.2c2.5,2.1,5.5,3.6,8.7,4.3c4.3,1.3,9.7,2.3,12.6-1.2c2.4-3,2.4-8.9,6.3-9.2c5.6-0.5,4.7,11.4,10.4,11.9
			c1.4-0.1,2.8-0.5,4.1-1.2c3.1-1.2,6.4-1.5,9.6-0.6c3.2,0.8,6,2.7,8.1,5.3c1,1.6,2.1,3,3.4,4.3c6.1,5.3,15-2.6,23.1-2.5
			c0.7,0,1.4,0.1,2,0.3c0.6,0.3,1.2,0.7,1.6,1.2c0.5,1.1,0.7,2.4,0.5,3.6c-0.3,6.6,1.6,13,5.2,18.5c3.7,5.4,8.9,9.6,15.1,11.8
			c2.7,0.6,5.4,1.6,7.8,3c1.2,0.8,2.1,1.9,2.5,3.2c0.4,1.3,0.4,2.8-0.1,4.1c-0.7,1.1-1.7,2-2.7,2.6c-16.4,12.1-25.3,31.5-38.3,47.2
			c-7.4,9-19.3,17.4-29.7,12.6c0.9,3.2,1.9,6.5,2.9,9.7c-2.5,3.2-7.2,0.2-11.1-0.4c-2.4-0.1-4.7,0.4-6.8,1.5
			c-2.1,1.1-3.9,2.6-5.3,4.6c-2.7,3.9-5.9,7.5-9.4,10.7c-3.8,2.8-9.7,3.6-12.9,0c-3.6-4.2-1.2-10.5,1.2-15.5
			c6.1-12.5,11-25.5,14.6-38.9c0.4-0.9,0.5-1.9,0.5-2.8c-0.1-1-0.3-1.9-0.8-2.8c-1.3-1.6-3.8-1.5-5.8-1.9c-1.7-0.3-3.2-1.1-4.5-2.3
			c-1.3-1.1-2.2-2.6-2.7-4.2c-0.7-2.3-0.6-4.9-1.1-7.3c-1.5-6.2-7.6-9.7-12.1-14.4c-4.5-4.7-7.4-12.6-2.5-16.7
			c2.1-1.4,4.4-2.3,6.9-2.9c2.7-0.7,5.1-2.2,7.1-4.2c2-2,3.4-4.4,4.1-7.1c0.6-2.7,0.2-5.6-1.3-7.9c-1.4-2.4-3.8-4.1-6.4-4.8
			c-3.8-0.6-7.8,1.4-11.4,0c-8.8-3.2-4.7-21.2-13.9-23.1c-4.2-0.9-9.9,2.2-12.2-1.5c-0.6-1.6-0.9-3.2-0.9-4.9
			c-1.6-8.3-14.3-7.5-19.9-13.7c-1.9-2.4-3.2-5.3-3.8-8.3C1540.2,297.8,1537.5,288.3,1534.8,278.7z"/>
		<path class="st6" d="M1606.5,311.4c2,0.4,4.1,0.5,6.2,0.6c2.1-0.3,4.3-0.3,6.4,0c2,0.2,3.9,1,5.6,2.3c0.8,0.7,1.5,1.6,1.9,2.6
			c0.4,1,0.7,2.1,0.6,3.1c0,0.8-0.2,1.6-0.5,2.2c-0.4,0.7-0.9,1.3-1.5,1.7c-0.8,0.4-1.7,0.6-2.6,0.4c-5.5-0.7-8-8.5-13.5-9.2
			c-2.9-0.4-6.2,1.2-8.5-0.6l-0.4-0.4c-0.3-0.4-0.5-0.9-0.5-1.4c0-1.3,1.7-1.9,3-1.9C1604,310.9,1605.2,311.1,1606.5,311.4z"/>
		<path class="st8" d="M1758,368.1c-0.2,2.7-0.5,5.4-0.9,8.1c-4.9,34.8-22.1,66.7-48.3,89.8c-26.3,23.1-59.9,36-94.8,36.2
			c-4.4,0-8.9,0-13.4-0.6c-37.3-3.1-72-20.6-96.8-48.8c-24.8-28.2-37.9-65-36.6-102.6c1.4-37.7,17.1-73.4,43.9-99.7
			c26.8-26.3,62.6-41.2,100.1-41.6c4.7,0,9.5,0,14.3,0.6c6.2,0.5,12.3,1.4,18.4,2.8c1.8,0.4,3.6,0.8,5.5,1.3
			c33.4,8.6,62.6,28.9,82.5,57.2S1761,333.6,1758,368.1z"/>
		<path class="st4" d="M1482.2,395.8c-1-3.2-1.6-6.5-2.3-9.7c-0.7-3.2-1.4-6.3-1.9-9.4c-1.1-6.4-1.8-12.9-1.9-19.5
			c-0.4-13,1.2-25.9,4.5-38.5c2.1-7.1,4.6-14.1,7.6-20.9c0.7-1.7-2.1-2.8-2.9-1.2c-3,5.9-5.5,12.2-7.3,18.6
			c-1.9,6.4-3.2,13-4.1,19.6c-1.8,13.1-1.7,26.5,0.5,39.6c0.6,3.7,1.5,7.4,2.5,11.1c1.1,3.6,2.4,7.2,3.8,10.7
			c0.3,0.8,1.7,0.5,1.4-0.4H1482.2z"/>
		<path class="st4" d="M1481.2,352.7c-0.3-5.1,0.3-10.1,1.7-15c0.5-2.4,1-4.8,1.6-7.3c0.3-1.2,0.5-2.4,0.9-3.6
			c0.4-1.2,0.6-2.4,0.7-3.6c0-0.3-0.1-0.6-0.3-0.8c-0.2-0.2-0.4-0.4-0.7-0.5c-0.3-0.1-0.6-0.1-0.8,0c-0.3,0.1-0.5,0.3-0.7,0.5
			c-0.5,1.2-0.9,2.4-1.1,3.7c-0.3,1.3-0.6,2.6-0.9,3.9c-0.6,2.7-1.1,5.3-1.6,8c-0.5,2.5-0.9,5-1.2,7.6c-0.2,2.6,0.1,5.2,0.7,7.7
			c0.3,1.1,1.8,0.6,1.6-0.5L1481.2,352.7z"/>
		<path class="st4" d="M1704.7,251.9c4.2,4.7,8.6,9.1,12.9,13.9c2,2.3,4,4.7,5.8,7.1c1,1.2,1.9,2.5,2.7,3.8c0.7,1.3,1.2,2.7,1.7,4.1
			c0.5,1.3,2.2,0.4,2.4-0.6c0.3-3-2.3-6-3.9-8.2s-4.1-5.2-6.2-7.7c-4.2-5.1-9-9.7-14.1-13.8c-0.8-0.6-1.6,0.6-1,1.3H1704.7z"/>
		<path class="st4" d="M1717.9,273.8c0.6,1.9,1.3,3.7,2,5.6c0.4,1,0.8,1.9,1.2,2.9c0.3,0.9,0.7,1.9,1.2,2.7c0.2,0.3,0.5,0.5,0.8,0.6
			c0.3,0.1,0.7,0.1,1-0.1c0.3-0.1,0.6-0.4,0.7-0.7c0.2-0.3,0.2-0.7,0.1-1c-0.3-1-0.7-2-1.3-2.9c-0.4-0.9-0.8-1.8-1.3-2.7
			c-0.9-1.8-1.8-3.5-2.9-5.2c-0.1-0.2-0.3-0.3-0.5-0.4c-0.2-0.1-0.4-0.1-0.6,0c-0.2,0.1-0.3,0.2-0.4,0.4
			C1717.9,273.4,1717.9,273.6,1717.9,273.8z"/>
		<path class="st4" d="M1683.7,442.8c1.8-2.1,3.8-4,5.5-6.2c1.7-2.2,3.2-4.3,4.9-6.5c3.5-4.3,6.7-8.9,9.7-13.6
			c1-1.6-1.3-2.8-2.4-1.4c-3.2,4.3-6.4,8.9-9.4,13.4c-1.5,2.2-3.2,4.4-4.7,6.5s-2.9,4.7-4.5,6.9
			C1682.3,442.5,1683.3,443.3,1683.7,442.8L1683.7,442.8z"/>
		<path class="st4" d="M1685.7,431.6c1.5-2.3,3.2-4.4,4.8-6.7l2.3-3.2c0.8-1.1,1.5-2.3,2.2-3.5c0.2-0.3,0.2-0.6,0.1-1
			c-0.1-0.3-0.2-0.6-0.5-0.8c-0.2-0.2-0.6-0.3-0.9-0.3c-0.3,0-0.7,0.1-0.9,0.3c-1.6,2.3-3.2,4.6-4.5,7.1c-1.4,2.4-2.7,4.8-4.2,7.2
			C1683.5,431.7,1685,432.7,1685.7,431.6L1685.7,431.6z"/>
		<path class="st4" d="M1544.9,235.7c3.8-2.6,7.7-4.9,11.8-6.9c2-1,4.1-1.9,6.2-2.7c2.1-0.8,4.5-1.3,6.4-2.3
			c1.3-0.6,0.7-2.9-0.7-2.7c-2.3,0.4-4.6,1.2-6.8,2.2c-2.2,0.9-4.3,1.9-6.4,3c-4.2,2.2-8.1,4.9-11.6,8
			C1543.1,235,1544.1,236.3,1544.9,235.7L1544.9,235.7z"/>
		<path class="st4" d="M1552,237.1c2.1-1.4,4.4-2.5,6.7-3.5l3.4-1.4c1.3-0.4,2.5-0.8,3.7-1.4c1.1-0.6,0.7-2.6-0.7-2.5
			c-1.2,0.2-2.4,0.5-3.5,1c-1.3,0.5-2.5,1.1-3.7,1.8c-2.2,1.3-4.4,2.8-6.4,4.4c-0.9,0.6,0,2.2,0.9,1.6L1552,237.1z"/>
		<path class="st4" d="M1741.2,299.7c0.7,3.6,2.1,7.2,3.1,10.8c0.5,1.8,0.9,3.6,1.3,5.4c0.3,1.8,0.8,3.6,1.4,5.4
			c0.6,1.3,2.6,0.6,2.6-0.7c-0.2-1.9-0.5-3.7-1.1-5.4c-0.5-1.9-1-3.7-1.6-5.6c-0.9-3.6-2.3-7.2-4.1-10.5c-0.1-0.2-0.3-0.3-0.5-0.4
			c-0.2-0.1-0.4,0-0.6,0c-0.2,0.1-0.3,0.2-0.4,0.4C1741.2,299.3,1741.2,299.5,1741.2,299.7z"/>
		<path class="st4" d="M1740.7,311.7c0,0.9,0,1.8,0.3,2.8c0.3,0.9,0.3,1.8,0.5,2.8c0.4,1.8,0.6,3.6,1.1,5.4c0.1,0.2,0.1,0.3,0.2,0.5
			c0.1,0.1,0.3,0.3,0.4,0.4c0.2,0.1,0.3,0.2,0.5,0.2c0.2,0,0.4,0,0.6,0s0.3-0.1,0.5-0.3c0.1-0.1,0.3-0.3,0.4-0.4
			c0.1-0.2,0.2-0.3,0.2-0.5c0-0.2,0-0.4-0.1-0.6c-0.3-1.8-0.9-3.6-1.3-5.4c-0.2-0.9-0.5-1.8-0.7-2.7c-0.2-0.9-0.7-1.7-0.9-2.6
			c-0.1-0.2-0.2-0.4-0.4-0.5c-0.2-0.1-0.4-0.1-0.6-0.1c-0.2,0.1-0.4,0.2-0.5,0.4S1740.6,311.5,1740.7,311.7z"/>
		<path class="st4" d="M1546.9,268.2c1.2-1.5,2.6-2.8,3.8-4.3c1.2-1.5,2.2-2.8,3.2-4.2l3.5-4.5c0.6-0.8,1.1-1.6,1.7-2.3
			c0-0.2,0.4-0.6,0.7-0.7c-0.3,0,0,0.2,0.2,0.6c1.9,2.9,3.7,5.8,5.3,8.9c0.8,1.6,1.6,3.2,2.4,4.9c0.6,1.7,1.3,3.2,2.2,4.7
			c0.2,0.2,0.4,0.3,0.6,0.3c0.2,0,0.5,0,0.7-0.1c0.2-0.1,0.4-0.2,0.5-0.4s0.2-0.4,0.2-0.6c-0.4-2-1.1-3.9-2.2-5.6
			c-0.8-1.8-1.7-3.5-2.6-5.3c-0.9-1.7-2-3.7-3.2-5.5c-1.2-1.8-1.7-3.5-3.2-4.2c-1.5-0.8-2.9,0.3-3.8,1.5c-1.3,1.7-2.6,3.4-3.9,5.2
			c-1.3,1.7-2.6,3.5-3.8,5.3c-1.3,1.8-2.3,3.8-3.5,5.7c-0.1,0.1-0.1,0.3,0,0.4s0.1,0.3,0.2,0.4c0.1,0.1,0.3,0.1,0.4,0.1
			c0.1,0,0.3-0.1,0.4-0.2H1546.9z"/>
		<path class="st4" d="M1568.7,264.3c1.2-0.5,2.2-1.1,3.2-1.8c1-0.7,2-1.5,3-2.3s1.8-1.5,2.7-2.1c0.9-0.6,1.3-0.6,1.9,0.3
			c1.2,2.1,2.4,4.2,3.6,6.5c0.6,1.1,1.3,2.2,1.9,3.2c0.5,1.1,1.2,2.2,2,3.2c0.2,0.2,0.5,0.4,0.8,0.4c0.3,0,0.6,0,0.9-0.2
			c0.3-0.2,0.5-0.4,0.6-0.7c0.1-0.3,0.1-0.6,0-0.9c-0.5-1.4-1.3-2.7-2.1-3.9l-2.2-3.9c-0.7-1.3-1.4-2.6-2.2-3.9
			c-0.5-1.1-1.2-2.1-2.1-3c-2.4-1.9-4.8,0.3-6.7,1.8c-1.1,0.9-2.2,1.7-3.2,2.6c-1.2,0.8-2.3,1.9-3.2,3c-0.1,0.2-0.1,0.3-0.1,0.5
			c0,0.2,0.1,0.3,0.2,0.5c0.1,0.1,0.2,0.2,0.4,0.3C1568.4,264.3,1568.6,264.3,1568.7,264.3L1568.7,264.3z"/>
		<path class="st4" d="M1585.3,264.5c2.2-1.9,4.4-3.9,6.4-6c2.2-2,4.5-3.9,7-5.6c0.2-0.2,1.2-1,1.4-0.9c0.2,0.1,0.7,1.2,0.8,1.5
			l2.3,4.4l2.2,4.2c0.6,1.6,1.5,3.1,2.6,4.4c0.2,0.2,0.5,0.3,0.8,0.4c0.3,0,0.6,0,0.8-0.2c0.3-0.2,0.5-0.4,0.6-0.7
			c0.1-0.3,0.1-0.6,0.1-0.9c-0.2-0.9-0.6-1.7-1.1-2.5l-1.3-2.5c-0.9-1.7-1.8-3.2-2.7-5.1c-0.9-1.8-2.9-7.3-6.2-5.7
			c-1.4,0.8-2.8,1.8-4,2.9c-1.3,1.1-2.7,2.2-4,3.2c-2.7,2.2-5,4.8-6.8,7.8C1583.8,264,1584.5,264.9,1585.3,264.5L1585.3,264.5z"/>
		<path class="st4" d="M1619.1,400.8c3.1-2,6-4.3,8.9-6.5l4.4-3.5l2-1.6c0.7-0.7,1.5-1.3,2.3-1.8h-0.3l0.5,0.5l1,1
			c0.6,0.6,1.2,1.3,1.9,1.9l3.6,3.9l3.6,3.9c1.3,1.4,2.5,3,3.9,4.2c1.4,1.3,2.9-0.3,2-1.6c-2.5-3.1-5.1-6-8-8.8
			c-1.4-1.5-2.8-2.9-4.2-4.3l-2.2-2.2c-0.5-0.6-1.2-1-1.9-1.1c-1.5,0-3,1.8-4,2.6l-5,4c-3.2,2.7-6.4,5.4-9.3,8.2
			c-0.1,0.1-0.2,0.3-0.2,0.4c0,0.2,0,0.3,0.1,0.4s0.2,0.2,0.4,0.2c0.2,0,0.3,0,0.4-0.1V400.8z"/>
		<path class="st4" d="M1644.8,394.6c4.2-3.2,7.5-7.5,12-10.3c0.6-0.4,0.7,0,1.2,0.3l1.6,1.6l3.2,3.2l3.2,2.9c1,1.2,2.2,2.2,3.5,3
			c0.2,0.1,0.5,0.2,0.8,0.1c0.3,0,0.5-0.2,0.8-0.4c0.2-0.2,0.3-0.5,0.4-0.7c0.1-0.3,0-0.6-0.1-0.8c-0.9-1.4-2.1-2.7-3.5-3.8
			l-3.9-3.6l-3.6-3.2c-0.4-0.5-0.9-0.9-1.5-1.2c-0.6-0.3-1.2-0.4-1.9-0.3c-1.2,0.5-2.3,1.3-3.2,2.3c-1.2,1-2.4,2-3.6,3.2
			c-2.4,2-4.4,4.3-6.1,6.9c-0.3,0.6,0.4,1.5,1,1L1644.8,394.6z"/>
		<path class="st4" d="M1639.7,376.4c1.9-1.3,3.6-2.8,5.2-4.5c0.8-0.8,1.5-1.7,2.2-2.6l1-1.3c0.3-0.4,0.6-1,1-1.2l-0.7,0.2
			c0.5,0,1.6,1.5,1.9,1.9c0.3,0.4,1.4,1.6,2.2,2.4c1.4,1.7,2.9,3.3,4.5,4.7c1.1,0.8,2.5-0.8,1.9-1.8c-0.8-1.1-1.7-2.1-2.6-3
			l-2.7-2.9c-0.9-1-1.8-2-2.7-2.9c-0.4-0.5-0.9-0.8-1.5-1c-0.6-0.2-1.2-0.1-1.8,0.1c-0.9,0.7-1.7,1.5-2.2,2.6
			c-0.7,1-1.4,1.9-2.1,2.9c-1.5,1.9-3,3.7-4.5,5.6c-0.5,0.6,0,1.6,0.8,1.1H1639.7z"/>
		<path class="st4" d="M1634.2,436.1c1.9-1.1,3.6-2.5,5-4.2c0.7-0.8,1.3-1.7,2-2.6l1.1-1.4c0-0.2,0.7-1.1,0.9-1.2h-0.7
			c-0.3-0.4-0.4-0.4-0.3-0.2c0.1,0.1,0.1,0.3,0.1,0.5c0,0.3,0.2,0.6,0.4,1c0.3,0.5,0.6,1,1,1.5c0.8,1,1.7,2,2.6,2.9
			c2.1,2.1,4.2,4.4,6.4,6.5c0.3,0.3,0.7,0.4,1,0.4c0.4,0,0.8-0.2,1-0.4s0.4-0.6,0.4-1c0-0.4-0.1-0.8-0.4-1c-2.1-2.3-4.4-4.4-6.7-6.7
			c-0.9-0.9-1.7-1.8-2.5-2.8c-0.6-1-1-2.5-2.1-3c-1.2-0.5-2.2,0.5-3,1.5c-0.7,1-1.5,2.1-2.2,3.2c-0.7,1.1-1.5,2.1-2.3,3.2
			c-0.8,1-1.6,2-2.6,2.9c-0.8,0.6,0,2,0.8,1.4L1634.2,436.1z"/>
		<path class="st4" d="M1656,432.8c2.2-1.5,4.3-3.2,6.2-5.2c0.9-0.9,1.8-1.9,2.7-3l1.3-1.7c0,0,1.3-1.5,1.2-1.7h-0.8l0.3,0.4
			c0.2,0.3,0.4,0.6,0.7,0.8l1.4,1.6c0.9,1,1.9,2,2.9,3c1.9,2.1,4.1,4,6.4,5.7c0.3,0.2,0.7,0.2,1,0.1c0.3-0.1,0.6-0.3,0.9-0.6
			c0.2-0.3,0.3-0.6,0.3-1c0-0.4-0.2-0.7-0.4-0.9c-1.1-1.1-2.4-2.1-3.6-3.2l-3.2-3.2c-1.1-1.1-2.1-2.2-3.2-3.2
			c-1.1-1.1-1.8-2.5-3.2-2.4c-1.4,0-2.1,1.7-2.8,2.7c-0.7,0.9-1.8,2.4-2.8,3.5l-6.3,7.1c-0.5,0.6,0.2,1.7,0.9,1.2H1656z"/>
		<path class="st4" d="M1600.8,388.2c-0.9,0.4-1.7,1.1-2.2,1.9c-0.6,0.8-1,1.7-1.2,2.7c-0.3,1-0.3,2.1-0.1,3.1c0.2,1,0.7,2,1.3,2.8
			c0.2,0.1,0.3,0.2,0.5,0.2c0.2,0,0.4-0.1,0.5-0.2c0.2-0.1,0.2-0.3,0.3-0.5c0-0.2,0-0.4-0.1-0.6c-0.4-0.7-0.6-1.4-0.8-2.2
			c-0.2-0.7-0.2-1.5,0-2.2c0.2-0.8,0.5-1.5,0.9-2.2c0.4-0.7,0.9-1.3,1.6-1.8c0.1,0,0.1-0.1,0.2-0.2c0-0.1,0.1-0.1,0.1-0.2
			c0-0.1,0-0.2,0-0.2c0-0.1,0-0.2-0.1-0.2c-0.1-0.1-0.1-0.1-0.2-0.2c-0.1,0-0.1-0.1-0.2-0.1C1601.1,388,1601,388.1,1600.8,388.2z"/>
		<path class="st4" d="M1602,393.3c-0.5,1.1-0.6,2.4-0.3,3.6c0.3,1.2,1.1,2.2,2.1,2.9c0.2,0.1,0.4,0.2,0.7,0.1
			c0.2-0.1,0.4-0.2,0.5-0.4c0.1-0.2,0.1-0.4,0.1-0.7c-0.1-0.2-0.2-0.4-0.4-0.5c-0.1-0.1-0.2-0.2-0.2-0.3l-0.5-0.5l-0.2-0.3
			c0-0.1,0-0.2,0-0.3c0-0.2,0,0,0,0c-0.1-0.2-0.1-0.5-0.2-0.7c0,0,0-0.3,0-0.4c0-0.1,0-0.2,0-0.4c0-0.2,0.1-0.5,0.2-0.7
			c0-0.2,0-0.4-0.1-0.5c-0.1-0.2-0.2-0.3-0.4-0.4c-0.2-0.1-0.3-0.1-0.5,0c-0.2,0.1-0.3,0.2-0.4,0.3L1602,393.3z"/>
		<path class="st4" d="M1676.4,447.3c-1.1,3.3-3.3,6.2-6.1,8.3c-1.5,1.1-3.1,2.1-4.8,3c-1.7,0.9-3.7,1.6-5.4,2.7
			c-1,0.6-0.4,2.4,0.8,2c2-0.7,4-1.7,5.8-2.8c1.8-1,3.5-2.2,5.1-3.5c2.9-2.4,5-5.7,5.9-9.4c0-0.2,0-0.4-0.1-0.6
			c-0.1-0.2-0.3-0.3-0.4-0.4c-0.2-0.1-0.4,0-0.6,0.1C1676.6,446.9,1676.4,447.1,1676.4,447.3z"/>
		<path class="st4" d="M1528.9,260.2c-1,0.9-1.7,2.1-2,3.3c-0.4,1.3-0.4,2.6-0.1,3.9c0.2,0.9,0.6,1.8,1.2,2.5
			c0.2,0.1,0.3,0.2,0.5,0.2c0.2,0,0.4-0.1,0.5-0.2c0.2-0.1,0.3-0.2,0.3-0.4c0.1-0.2,0.1-0.3,0-0.5c-0.3-0.7-0.7-1.3-0.9-2
			c-0.2-0.7-0.3-1.4-0.2-2.1c0-1.4,0.6-2.8,1.5-3.9c0.6-0.6-0.3-1.5-0.9-0.9V260.2z"/>
		<path class="st4" d="M1534.2,260.3c-1.8,2.6-2.6,5.8-2.1,8.9c0.1,0.3,0.3,0.5,0.5,0.6c0.2,0.1,0.5,0.2,0.8,0.1
			c0.3-0.1,0.5-0.3,0.7-0.5c0.1-0.2,0.2-0.5,0.1-0.8c-0.6-2.6-0.1-5.3,1.3-7.6C1536,260.3,1534.8,259.6,1534.2,260.3z"/>
		<path class="st4" d="M1574.8,247.2c1.9-1.7,3.7-3.6,5.3-5.5l5.2-5.7l0.6-0.7l0.3-0.3h-0.6c0.2,0.5,0.5,0.9,0.7,1.3l1.8,3.4
			c1.2,2.4,2.3,4.8,3.7,7.1c0.8,1.4,2.7,0.2,2.1-1.2c-1.2-2.7-2.7-5.3-4.1-7.9c-0.7-1.2-1.3-2.6-2-3.8c-0.1-0.3-0.3-0.5-0.5-0.7
			c-0.2-0.2-0.5-0.3-0.7-0.4c-0.3-0.1-0.6-0.1-0.8-0.1c-0.3,0-0.5,0.1-0.8,0.3c-0.5,0.4-0.9,0.9-1.3,1.4l-1.4,1.7l-2.9,3.2
			c-2,2.1-3.9,4.4-5.6,6.8C1573.1,247,1574.2,247.7,1574.8,247.2L1574.8,247.2z"/>
		<path class="st4" d="M1513,382.9c0.9,1.7,2.4,3.1,4.1,4c1.7,0.9,3.7,1.2,5.6,1c4.3-0.7,8.1-3,10.7-6.5l-2-0.3
			c1,1.9,2.5,3.6,4.3,4.7c1.8,1.1,4,1.7,6.1,1.7c2.2,0,4.3-0.6,6.1-1.7c1.8-1.1,3.3-2.8,4.3-4.7h-2.2c1.3,2,3,3.5,5.1,4.6
			c2.1,1,4.4,1.5,6.7,1.3c2.3-0.2,4.5-1,6.4-2.3c1.9-1.3,3.4-3.2,4.3-5.3c0.7-1.5-1.5-2.8-2.3-1.3c-0.8,1.7-1.9,3.1-3.4,4.2
			c-1.5,1.1-3.2,1.7-5,1.9c-1.8,0.2-3.7-0.1-5.3-0.9c-1.7-0.8-3.1-1.9-4.2-3.4c-0.1-0.2-0.3-0.4-0.5-0.5c-0.2-0.1-0.4-0.2-0.6-0.2
			c-0.2,0-0.5,0.1-0.6,0.2c-0.2,0.1-0.4,0.3-0.5,0.5c-0.8,1.5-2,2.8-3.4,3.7c-1.5,0.9-3.1,1.4-4.8,1.4c-1.7,0-3.4-0.5-4.8-1.4
			c-1.5-0.9-2.6-2.2-3.4-3.7c-0.1-0.2-0.2-0.3-0.4-0.4c-0.2-0.1-0.3-0.2-0.5-0.2c-0.2,0-0.4,0-0.6,0.1c-0.2,0.1-0.3,0.2-0.5,0.3
			c-2.1,2.9-5.1,5-8.6,5.9c-1.6,0.3-3.2,0.2-4.8-0.4c-1.5-0.6-2.8-1.6-3.8-3c-0.1-0.2-0.3-0.3-0.6-0.3c-0.2,0-0.4,0-0.6,0.1
			c-0.2,0.1-0.3,0.3-0.4,0.5C1512.8,382.4,1512.8,382.7,1513,382.9L1513,382.9z"/>
		<path class="st4" d="M1660.7,309.1c1,1.6,2.4,2.8,4,3.6c1.7,0.8,3.5,1.1,5.4,0.9c2-0.3,3.9-0.9,5.6-2c1.7-1,3.2-2.4,4.4-4
			l-2.1-0.3c1.1,1.8,2.7,3.2,4.6,4.2c1.9,0.9,4,1.3,6.1,1.1c2.1-0.2,4.1-1,5.8-2.3c1.7-1.3,2.9-3,3.7-5c0.7-1.7-2-2.4-2.7-0.7
			c-0.6,1.5-1.6,2.8-2.8,3.7s-2.8,1.5-4.3,1.7c-1.6,0.2-3.2-0.1-4.6-0.8c-1.4-0.7-2.6-1.7-3.5-3.1c-0.1-0.2-0.3-0.4-0.5-0.5
			c-0.2-0.1-0.4-0.2-0.7-0.2c-0.2,0-0.5,0.1-0.7,0.2c-0.2,0.1-0.4,0.3-0.5,0.5c-1.9,2.6-4.8,4.5-8,5.1c-1.5,0.2-3.1,0-4.5-0.5
			s-2.7-1.5-3.6-2.7c-0.6-0.8-1.8,0.2-1.3,1V309.1z"/>
		<path class="st4" d="M1661.9,336.4c0,1.8,0.7,3.5,1.9,4.9c1.2,1.3,2.9,2.2,4.7,2.4c2.1,0.2,4.2-0.2,6.1-1c1.9-0.8,3.6-2.1,4.9-3.7
			l-2.2-0.3c1.1,1.9,2.6,3.4,4.5,4.3c1.9,1,4,1.4,6.1,1.2c2.3-0.3,4.4-1.1,6.4-2.3c1.9-1.2,3.6-2.9,4.8-4.8l-2.2,0.3
			c1.3,1.4,2.8,2.6,4.6,3.4c1.7,0.8,3.6,1.2,5.5,1.1c1.9,0,3.8-0.5,5.5-1.3c1.7-0.8,3.2-2,4.4-3.5c1.2-1.4-0.9-3.5-2-2
			c-0.9,1.2-2.1,2.3-3.5,3c-1.4,0.7-2.9,1.1-4.4,1.1c-1.6,0-3.1-0.3-4.5-0.9c-1.4-0.6-2.7-1.6-3.7-2.8c-0.2-0.1-0.3-0.3-0.6-0.3
			c-0.2-0.1-0.4-0.1-0.6-0.1c-0.2,0-0.4,0.1-0.6,0.2s-0.3,0.3-0.4,0.5c-1,1.5-2.3,2.8-3.8,3.8c-1.5,1-3.2,1.7-5,1.9
			c-1.6,0.2-3.3-0.1-4.7-0.8c-1.5-0.7-2.7-1.9-3.5-3.3c-0.1-0.2-0.3-0.3-0.4-0.5c-0.2-0.1-0.4-0.2-0.6-0.2c-0.2,0-0.4,0-0.6,0.1
			c-0.2,0.1-0.4,0.2-0.5,0.3c-1,1.3-2.2,2.3-3.6,3c-1.4,0.7-3,1.1-4.5,1.2c-1.4-0.1-2.7-0.6-3.7-1.5c-1-0.9-1.8-2.1-2.1-3.4
			C1663.3,335.4,1661.9,335.6,1661.9,336.4L1661.9,336.4z"/>
		<path class="st4" d="M1530.6,357.8c1,1.6,2.4,2.9,4,3.7c1.7,0.8,3.5,1.1,5.4,0.9c2-0.3,3.9-0.9,5.7-1.9c1.7-1,3.2-2.4,4.4-4.1
			l-2.1-0.3c1.1,1.8,2.7,3.2,4.6,4.2c1.9,0.9,4,1.3,6.1,1.1c2.1-0.2,4.1-1,5.8-2.3c1.7-1.3,2.9-3,3.7-5c0.7-1.7-2-2.4-2.7-0.7
			c-0.6,1.5-1.6,2.7-2.8,3.7c-1.3,0.9-2.8,1.5-4.3,1.7c-1.6,0.2-3.1-0.1-4.6-0.8c-1.4-0.7-2.6-1.7-3.5-3.1c-0.1-0.2-0.3-0.4-0.5-0.5
			c-0.2-0.1-0.4-0.2-0.7-0.2s-0.5,0.1-0.7,0.2c-0.2,0.1-0.4,0.3-0.5,0.5c-1.9,2.7-4.8,4.5-8,5.1c-1.5,0.2-3.1,0-4.5-0.5
			c-1.4-0.6-2.7-1.5-3.6-2.7C1531.3,355.9,1530.2,356.9,1530.6,357.8L1530.6,357.8z"/>
		<path class="st4" d="M1492.4,409.6c0,1.8,0.7,3.5,1.9,4.8c1.2,1.3,2.8,2.2,4.6,2.4c2.1,0.2,4.1-0.2,6.1-1c1.9-0.8,3.6-2.1,4.9-3.7
			l-2.2-0.3c1.1,1.9,2.7,3.4,4.6,4.4c1.9,1,4.1,1.4,6.2,1.1c2.3-0.3,4.4-1.1,6.4-2.4c1.9-1.2,3.6-2.9,4.8-4.8l-2.2,0.3
			c1.3,1.4,2.8,2.6,4.6,3.3c1.7,0.8,3.6,1.1,5.5,1.1c1.9,0,3.8-0.5,5.5-1.3c1.7-0.8,3.2-2,4.4-3.5c1.1-1.4-0.9-3.4-2-2
			c-0.9,1.2-2.2,2.2-3.5,2.9c-1.4,0.7-2.9,1.1-4.4,1.1s-3.1-0.3-4.5-0.9c-1.4-0.6-2.7-1.6-3.7-2.8c-0.2-0.2-0.3-0.3-0.5-0.3
			c-0.2-0.1-0.4-0.1-0.6-0.1c-0.2,0-0.4,0.1-0.6,0.2c-0.2,0.1-0.3,0.3-0.4,0.5c-1,1.5-2.3,2.8-3.8,3.8c-1.5,1-3.2,1.7-5,2
			c-1.6,0.2-3.2-0.1-4.7-0.9c-1.4-0.7-2.7-1.9-3.5-3.3c-0.1-0.2-0.3-0.3-0.4-0.5c-0.2-0.1-0.4-0.2-0.6-0.2c-0.2,0-0.4,0-0.6,0.1
			s-0.4,0.2-0.5,0.3c-1,1.3-2.2,2.3-3.6,3c-1.4,0.7-3,1.2-4.5,1.2c-1.4-0.1-2.7-0.7-3.7-1.5c-1-0.9-1.8-2.1-2.1-3.4
			c0-0.9-1.5-0.6-1.5,0.2H1492.4z"/>
		<path class="st4" d="M1550.3,426.5c1,1.6,2.4,2.9,4,3.7c1.7,0.8,3.5,1.1,5.4,0.9c2-0.3,3.9-0.9,5.7-2c1.7-1,3.2-2.4,4.4-4
			l-2.1-0.3c1.1,1.8,2.8,3.2,4.7,4.2c1.9,0.9,4,1.3,6.1,1.1c2.1-0.2,4.1-1,5.8-2.3c1.7-1.3,2.9-3.1,3.7-5c0.7-1.7-2-2.4-2.7-0.7
			c-0.6,1.5-1.6,2.7-2.8,3.7c-1.3,1-2.8,1.5-4.3,1.7c-1.6,0.2-3.2-0.1-4.6-0.8c-1.4-0.7-2.6-1.7-3.5-3.1c-0.1-0.2-0.3-0.4-0.5-0.5
			c-0.2-0.1-0.4-0.2-0.7-0.2s-0.5,0.1-0.7,0.2c-0.2,0.1-0.4,0.3-0.5,0.5c-1.9,2.7-4.8,4.5-7.9,5.1c-1.5,0.2-3.1,0-4.5-0.5
			c-1.4-0.6-2.7-1.5-3.6-2.7C1551,424.6,1549.8,425.6,1550.3,426.5L1550.3,426.5z"/>
	</g>
</g>
<path class="st2" d="M476.1,681.5c1.1,0.1,2.2,0.6,3,1.5c0.8,0.9,1.2,2,1.2,3.2l-0.5,29.2l-0.2,11.7c0,0.6-0.1,1.2-0.4,1.8
	c-0.2,0.6-0.6,1-1,1.4c-0.4,0.4-1,0.7-1.5,0.9c-0.6,0.2-1.2,0.2-1.8,0.2l-13.7-1.5l-25.9-2.8c-0.6-0.1-1.1-0.2-1.7-0.5
	c-0.5-0.3-1-0.7-1.4-1.1c-0.4-0.5-0.7-1-0.9-1.6c-0.2-0.6-0.3-1.2-0.2-1.8l0.6-8.4c0-0.6,0.2-1.2,0.5-1.7c0.3-0.5,0.6-1,1.1-1.4
	c0.4-0.4,0.9-0.7,1.5-0.8c0.5-0.2,1.1-0.2,1.7-0.2l13.3,1.4c-12.4-11.6-27.9-19-44.3-21.2c-16.4-2.2-32.9,1-47.2,9.1
	c-14.2,8.1-25.5,20.7-32.2,35.9c-6.7,15.3-8.5,32.5-5.1,49.2c0.2,1.1,0,2.3-0.5,3.3c-0.6,1-1.5,1.7-2.6,1.9l-7.9,1.9
	c-0.6,0.1-1.2,0.2-1.8,0.1c-0.6-0.1-1.2-0.3-1.7-0.7c-0.5-0.3-1-0.8-1.3-1.3c-0.3-0.5-0.6-1.1-0.7-1.7c-4.3-20.6-2.2-41.9,6.2-60.7
	c8.3-18.8,22.3-34.3,40-44c17.7-9.8,38.2-13.3,58.4-10.2c20.2,3.1,39.2,12.8,54.1,27.5l0.3-15c0-1.2,0.5-2.3,1.3-3.1
	c0.8-0.8,1.9-1.2,3.1-1.2L476.1,681.5z"/>
<path class="st2" d="M485.9,748.7c0.6-0.1,1.2-0.2,1.8-0.1c0.6,0.1,1.2,0.3,1.7,0.7c0.5,0.3,1,0.8,1.3,1.3c0.3,0.5,0.6,1.1,0.7,1.7
	c4.3,20.7,2.2,42-6.2,60.8c-8.4,18.9-22.4,34.3-40.2,44c-17.8,9.7-38.3,13.3-58.6,10s-39.2-13-54.1-27.9l-0.3,15.6
	c0,1.2-0.5,2.3-1.3,3.1c-0.8,0.8-1.9,1.2-3.1,1.2l-8.2-0.4c-1.1-0.1-2.2-0.6-3-1.5c-0.8-0.9-1.3-2-1.3-3.2l0.5-29.5l0.2-11.5
	c0-0.6,0.1-1.2,0.4-1.8c0.2-0.6,0.6-1,1-1.5c0.4-0.4,1-0.7,1.5-0.9c0.6-0.2,1.2-0.2,1.8-0.2l14,1.5l25.6,2.8
	c0.6,0.1,1.1,0.2,1.7,0.5c0.5,0.3,1,0.7,1.4,1.1c0.4,0.5,0.7,1,0.9,1.6c0.2,0.6,0.3,1.2,0.2,1.8l-0.6,8.4c0,0.6-0.2,1.2-0.5,1.7
	c-0.3,0.5-0.6,1-1.1,1.4s-0.9,0.7-1.5,0.8c-0.5,0.2-1.1,0.2-1.7,0.2l-12.7-1.3c12.4,11.6,27.9,19,44.4,21.1s32.9-1.1,47.2-9.2
	c14.2-8.1,25.5-20.7,32.1-36c6.7-15.3,8.4-32.5,5-49.2c-0.2-1.1,0-2.3,0.6-3.3c0.6-1,1.5-1.7,2.6-1.9L485.9,748.7z"/>
</svg>
