<svg id="Layer_1" data-name="Layer 1" xmlns="http://www.w3.org/2000/svg" xmlns:xlink="http://www.w3.org/1999/xlink" viewBox="0 0 1452.23 744.75"><defs><style>.cls-1{fill:#fff;}.cls-2{fill:#e07857;}.cls-3{mask:url(#mask);}.cls-4{fill:#ebe4d2;}.cls-5{fill:#dd6442;}.cls-6{fill:#9f7d56;}.cls-7{fill:#322816;}</style><mask id="mask" x="633" y="-16.28" width="873.91" height="761.03" maskUnits="userSpaceOnUse"><g transform="translate(11.44 -282.74)"><g id="mask0_0_1" data-name="mask0 0 1"><path class="cls-1" d="M621.65,657.92c.58,75.66,33.06,149.18,85.06,202.78-5.22,46.63-9.47,84.36-5,86.68,8.7,4.26,66.89-4.06,162.59-4.83,3.86.58,7.54,1,11.4,1.35a457.72,457.72,0,0,0,56.45-.19c21.65,1,41.57,2.13,59,3.09,43.3,2.52,71.72,3.87,76.17-4.25a20.12,20.12,0,0,0,2.71-11.81c46.2-3.09,93-1.54,142.67,14.13,366.34,107.19,329.8-361.44,154.65-538.68-3.29-4.45-50.65-44.31-67.27-58.24-3.87-3.1-7.74-6.19-11.8-9.09C1031.29,162.39,614.69,323.76,621.65,657.92Z"/></g></g></mask></defs><path class="cls-2" d="M684.83,741.63c8.92,0,13.51-6.89,13.51-13.78a15.16,15.16,0,0,0-3.31-9.44,13.08,13.08,0,0,0-10.2-4.34c-8.93,0-13.52,6.89-13.52,13.78C671.31,734.49,675.9,741.63,684.83,741.63Zm0-23c6.12,0,8.67,4.6,8.67,9.19a9.33,9.33,0,0,1-2.3,6.38,8.43,8.43,0,0,1-6.63,2.81c-6.12,0-8.67-4.6-8.67-9.19a9.33,9.33,0,0,1,2.3-6.38C679.73,719.43,682,718.66,684.83,718.66Z" transform="translate(11.44 -282.74)"/><path class="cls-2" d="M689.67,790.63c8.92,0,13.51-6.89,13.51-13.78s-4.59-13.78-13.51-13.78-13.51,6.89-13.51,13.78C676.16,783.48,680.75,790.63,689.67,790.63Zm0-23c6.12,0,8.67,4.59,8.67,9.19a9.33,9.33,0,0,1-2.3,6.38,8.47,8.47,0,0,1-6.63,2.81c-6.11,0-8.66-4.6-8.66-9.19S683.55,767.66,689.67,767.66Z" transform="translate(11.44 -282.74)"/><path class="cls-2" d="M643.26,757.45c8.93,0,13.52-6.89,13.52-13.78s-4.59-13.78-13.52-13.78-13.51,6.89-13.51,13.78S634.34,757.45,643.26,757.45Zm0-23c6.12,0,8.67,4.59,8.67,9.18s-2.8,9.19-8.67,9.19c-6.11,0-8.66-4.59-8.66-9.19a9.34,9.34,0,0,1,2.29-6.38A7.59,7.59,0,0,1,643.26,734.49Z" transform="translate(11.44 -282.74)"/><path class="cls-2" d="M649.13,712.28c8.92,0,13.51-6.89,13.51-13.78s-4.59-13.78-13.51-13.78-13.51,6.89-13.51,13.78S640.2,712.28,649.13,712.28Zm0-23c6.12,0,8.67,4.6,8.67,9.19a9.33,9.33,0,0,1-2.3,6.38,8.43,8.43,0,0,1-6.63,2.81c-6.12,0-8.67-4.59-8.67-9.19C640.46,693.91,643,689.31,649.13,689.31Z" transform="translate(11.44 -282.74)"/><path class="cls-2" d="M696.56,695.69c8.92,0,13.51-6.89,13.51-13.78s-4.59-13.78-13.51-13.78S683,675,683,681.91,687.63,695.69,696.56,695.69Zm0-23c6.12,0,8.66,4.59,8.66,9.18a9.32,9.32,0,0,1-2.29,6.38,8.43,8.43,0,0,1-6.63,2.81c-6.12,0-8.67-4.59-8.67-9.19S690.44,672.73,696.56,672.73Z" transform="translate(11.44 -282.74)"/><path class="cls-2" d="M727.41,725c8.92,0,13.51-6.89,13.51-13.78s-4.59-13.78-13.51-13.78-13.52,6.89-13.52,13.78S718.48,725,727.41,725Zm0-23c6.12,0,8.67,4.6,8.67,9.19s-2.81,9.19-8.67,9.19c-6.12,0-8.67-4.59-8.67-9.19a9.32,9.32,0,0,1,2.29-6.38A7.6,7.6,0,0,1,727.41,702.07Z" transform="translate(11.44 -282.74)"/><path class="cls-2" d="M730,765.62c8.92,0,13.51-6.89,13.51-13.78s-4.59-13.78-13.51-13.78-13.52,6.89-13.52,13.78C716.44,758.47,721.29,765.62,730,765.62Zm0-23c6.12,0,8.67,4.6,8.67,9.19S735.82,761,730,761c-6.12,0-8.67-4.6-8.67-9.19a9.32,9.32,0,0,1,2.29-6.38C724.86,743.42,727.15,742.65,730,742.65Z" transform="translate(11.44 -282.74)"/><path class="cls-2" d="M733.27,818.7c8.93,0,13.52-6.89,13.52-13.78a15.17,15.17,0,0,0-3.32-9.44,13.06,13.06,0,0,0-10.2-4.34c-8.92,0-13.51,6.89-13.51,13.78S724.35,818.7,733.27,818.7Zm0-23c6.12,0,8.67,4.6,8.67,9.19a9.32,9.32,0,0,1-2.29,6.38,8.45,8.45,0,0,1-6.63,2.81c-6.12,0-8.67-4.6-8.67-9.19S727.15,795.73,733.27,795.73Z" transform="translate(11.44 -282.74)"/><path class="cls-2" d="M678.71,831.46a10.84,10.84,0,0,0,5.1-1.27,11.54,11.54,0,0,0,4.33-2.81,10.67,10.67,0,0,0,2.81-4.6,8.79,8.79,0,0,0,1-5.35v-1a15.37,15.37,0,0,0-1.78-6.89l-2-2.55a15.33,15.33,0,0,0-6.37-3.83l-3.32-.51a11,11,0,0,0-5.86,1.28,11.53,11.53,0,0,0-4.34,2.81,9.83,9.83,0,0,0-2.8,4.34,13.6,13.6,0,0,0-1.28,5.35v1a15.38,15.38,0,0,0,1.79,6.89l2,2.55a15.33,15.33,0,0,0,6.37,3.83l3.32.51A2,2,0,0,0,678.71,831.46Zm-.77-24h.26l2.8.51a7.72,7.72,0,0,1,3.83,2.3l1.53,2a8.46,8.46,0,0,1,1,4.34v1a7.07,7.07,0,0,1-.77,3.32,7,7,0,0,1-1.78,3.06,5.85,5.85,0,0,1-2.81,1.79,6.09,6.09,0,0,1-3.57.76l-2.8-.51a7.69,7.69,0,0,1-3.83-2.29l-1.53-2a8.4,8.4,0,0,1-1-4.33v-1a7.06,7.06,0,0,1,.77-3.31l.25-.26a6.66,6.66,0,0,1,1.79-2.81,5.72,5.72,0,0,1,2.8-1.78A6.8,6.8,0,0,1,677.94,807.47Z" transform="translate(11.44 -282.74)"/><path class="cls-2" d="M640.21,808c8.92,0,13.51-6.89,13.51-13.78a15.17,15.17,0,0,0-3.32-9.44,13.06,13.06,0,0,0-10.19-4.34c-8.93,0-13.52,6.89-13.52,13.78S631.28,808,640.21,808Zm0-23c6.11,0,8.66,4.6,8.66,9.19a9.32,9.32,0,0,1-2.29,6.38,8.45,8.45,0,0,1-6.63,2.81c-6.12,0-8.67-4.59-8.67-9.19S634.09,785,640.21,785Z" transform="translate(11.44 -282.74)"/><path class="cls-2" d="M608.59,759.24c8.92,0,13.51-6.89,13.51-13.78s-4.59-13.78-13.51-13.78-13.51,6.89-13.51,13.78C595.33,752.09,599.92,759.24,608.59,759.24Zm0-23c6.12,0,8.67,4.6,8.67,9.19a9.33,9.33,0,0,1-2.3,6.38,8.43,8.43,0,0,1-6.63,2.81c-6.12,0-8.67-4.6-8.67-9.19C599.92,740.87,602.72,736.27,608.59,736.27Z" transform="translate(11.44 -282.74)"/><path class="cls-2" d="M608.08,707.94c8.92,0,13.51-6.89,13.51-13.78s-4.59-13.78-13.51-13.78-13.52,6.89-13.52,13.78C594.82,701.05,599.41,707.94,608.08,707.94Zm0-23c6.12,0,8.67,4.59,8.67,9.18s-2.81,9.19-8.67,9.19c-6.12,0-8.67-4.59-8.67-9.19a9.34,9.34,0,0,1,2.29-6.38A8.31,8.31,0,0,1,608.08,685Z" transform="translate(11.44 -282.74)"/><path class="cls-2" d="M662.9,675c8.92,0,13.51-6.89,13.51-13.78a15.16,15.16,0,0,0-3.31-9.44,13.08,13.08,0,0,0-10.2-4.34c-8.93,0-13.52,6.89-13.52,13.78C649.64,668.13,654.23,675,662.9,675Zm0-23c6.12,0,8.67,4.59,8.67,9.18a9.33,9.33,0,0,1-2.3,6.38,8.43,8.43,0,0,1-6.63,2.81c-6.12,0-8.67-4.59-8.67-9.19C654.23,656.65,656.78,652.06,662.9,652.06Z" transform="translate(11.44 -282.74)"/><path class="cls-2" d="M734.8,680.89c8.93,0,13.52-6.89,13.52-13.78a15.17,15.17,0,0,0-3.32-9.44,13.06,13.06,0,0,0-10.2-4.34c-8.92,0-13.51,6.89-13.51,13.78S725.88,680.89,734.8,680.89Zm0-23c6.12,0,8.67,4.6,8.67,9.19a9.32,9.32,0,0,1-2.29,6.38,8.45,8.45,0,0,1-6.63,2.81c-6.12,0-8.67-4.59-8.67-9.19a9.34,9.34,0,0,1,2.29-6.38A8.48,8.48,0,0,1,734.8,657.92Z" transform="translate(11.44 -282.74)"/><path class="cls-2" d="M760.81,737.29c8.92,0,13.51-6.89,13.51-13.78s-4.59-13.78-13.51-13.78-13.51,6.89-13.51,13.78S752.14,737.29,760.81,737.29Zm0-23c6.12,0,8.67,4.6,8.67,9.19s-2.81,9.19-8.67,9.19c-6.12,0-8.67-4.59-8.67-9.19a9.33,9.33,0,0,1,2.3-6.38A7.54,7.54,0,0,1,760.81,714.32Z" transform="translate(11.44 -282.74)"/><path class="cls-2" d="M766.16,786.8c8.93,0,13.52-6.89,13.52-13.78s-4.59-13.78-13.52-13.78-13.51,6.89-13.51,13.78S757.24,786.8,766.16,786.8Zm0-23c6.12,0,8.67,4.6,8.67,9.19s-2.8,9.19-8.67,9.19c-6.12,0-8.67-4.6-8.67-9.19a9.33,9.33,0,0,1,2.3-6.38A7.55,7.55,0,0,1,766.16,763.83Z" transform="translate(11.44 -282.74)"/><g class="cls-3"><path class="cls-2" d="M1060.48,867.67c4.26,53.79,14.5,60.75,7,74.88-4.44,8.12-32.86,7-76.17,4.25-2.12,12.19-4,24.58-6.18,36.77-2.51,14.7-4.64,30.38,1,43.92h452.56c3.09-10.84,2.51-23,.58-34.25-2.52-15.09-7.35-29.8-8.32-45.08-1.35-20.32,4.26-40.63,4.84-60.95,1-28.83-7.93-57.08-11.6-85.72-3.48-26.89-2.52-54-4.45-81.07-2.13-27.09-7.54-54.56-22.42-77-13.15-19.93-32.67-34.44-52-48.37l-5.41,6.19s-47,56.11-137.26,50.11c-90.28-6.19-109.42-58.82-117.73-78.36l11.41-.58a55.57,55.57,0,0,1-7.93-13c-11.79.58-23.58-3.49-34.6-7.94-12.57-5-25.33-11-38.86-11.8-13.15-.77-26.1,3.29-39.05,5.8-7.54,1.36-15.08,2.33-22.81,3.29l4.45,13.35h75C1032.26,561.76,1056.23,813.88,1060.48,867.67Z" transform="translate(11.44 -282.74)"/><path class="cls-4" d="M1360.13,638.38c.39.39.39.77,0,0Z" transform="translate(11.44 -282.74)"/><path class="cls-4" d="M1313.73,669.53c1.74-6.19,3.67-12.19,5.41-18.38a4,4,0,0,1,5-2.9,4.28,4.28,0,0,1,2.9,5c-1.74,6.19-3.67,12.19-5.41,18.38a4,4,0,0,1-5,2.9A4.19,4.19,0,0,1,1313.73,669.53Z" transform="translate(11.44 -282.74)"/><path class="cls-4" d="M1337.12,689.27c3.29-6,6.77-12.19,10.06-18.19a4.12,4.12,0,0,1,5.6-1.55,4.33,4.33,0,0,1,1.55,5.61c-3.29,6-6.77,12.19-10,18.19a4.12,4.12,0,1,1-7.16-4.06Z" transform="translate(11.44 -282.74)"/><path class="cls-4" d="M1381,713.84c1.74-6.19,3.48-12.19,5.22-18.38a4.18,4.18,0,0,1,5-2.9,4.28,4.28,0,0,1,2.9,5c-1.74,6.19-3.48,12.19-5.22,18.38a4.18,4.18,0,0,1-5,2.9A4.1,4.1,0,0,1,1381,713.84Z" transform="translate(11.44 -282.74)"/><path class="cls-4" d="M1312.18,724.87c6-5,12-9.87,18.18-14.9,1.74-1.35,4.25-1.74,5.8,0,1.35,1.55,1.74,4.45,0,5.81-6,5-12,9.86-18.18,14.89-1.74,1.36-4.25,1.75-5.8,0C1310.83,729.13,1310.44,726.22,1312.18,724.87Z" transform="translate(11.44 -282.74)"/><path class="cls-4" d="M1358.2,740a4,4,0,0,1,5,2.9c2.32,7.16,4.45,14.32,6.77,21.48a4.1,4.1,0,0,1-2.9,5,4,4,0,0,1-5-2.9c-2.32-7.16-4.44-14.32-6.76-21.48C1354.72,743.06,1356.07,740.35,1358.2,740Z" transform="translate(11.44 -282.74)"/><path class="cls-4" d="M1395.51,781.18c1.35-7,2.51-13.74,3.86-20.71.39-2.13,3.1-3.48,5-2.9a4.18,4.18,0,0,1,2.9,5c-1.35,7-2.51,13.74-3.87,20.7-.38,2.13-3.09,3.49-5,2.91C1396.09,785.63,1395.12,783.5,1395.51,781.18Z" transform="translate(11.44 -282.74)"/><path class="cls-4" d="M1348.53,814.07c3.48-6.39,7.15-12.77,10.63-19.16a4.11,4.11,0,1,1,7.15,4.07c-3.47,6.38-7.15,12.77-10.63,19.15a4.12,4.12,0,0,1-5.6,1.55C1348.14,818.33,1347.37,816,1348.53,814.07Z" transform="translate(11.44 -282.74)"/><path class="cls-4" d="M1377.72,829c1.93-.39,4.64.58,5,2.9,1.35,7.74,2.51,15.29,3.86,23,.39,2.12-.58,4.64-2.9,5-1.93.38-4.64-.58-5-2.91-1.36-7.74-2.52-15.28-3.87-23A4.18,4.18,0,0,1,1377.72,829Z" transform="translate(11.44 -282.74)"/><path class="cls-4" d="M1404.4,832.06a4.2,4.2,0,0,1,5,2.91c1.93,5.61,4.06,11.22,6,16.83a4,4,0,0,1-2.9,5,4.19,4.19,0,0,1-5-2.9l-6-16.84A4,4,0,0,1,1404.4,832.06Z" transform="translate(11.44 -282.74)"/><path class="cls-4" d="M1386,901.33c3.87-5.8,7.74-11.8,11.41-17.6a4.11,4.11,0,1,1,7.15,4.06c-3.86,5.8-7.73,11.8-11.4,17.61a4.33,4.33,0,0,1-5.61,1.55A4.16,4.16,0,0,1,1386,901.33Z" transform="translate(11.44 -282.74)"/><path class="cls-4" d="M1355.88,919.91c1.93-7.35,3.67-14.71,5.6-22.06a4.18,4.18,0,0,1,5-2.9,4.29,4.29,0,0,1,2.9,5c-1.94,7.35-3.68,14.7-5.61,22.06a4.18,4.18,0,0,1-5,2.9A4,4,0,0,1,1355.88,919.91Z" transform="translate(11.44 -282.74)"/><path class="cls-4" d="M1379.27,936.74a4.09,4.09,0,0,1,4.06,4.07c0,7.35.19,14.89.19,22.25,0,2.13-1.93,4.25-4.06,4.06a4.08,4.08,0,0,1-4.06-4.06c0-7.36-.19-14.9-.19-22.25A3.86,3.86,0,0,1,1379.27,936.74Z" transform="translate(11.44 -282.74)"/><path class="cls-4" d="M1407.69,943.71a4.08,4.08,0,0,1,4,4.06l.78,21.48c0,2.13-1.94,4.26-4.06,4.06a4.08,4.08,0,0,1-4.06-4.06l-.77-21.48C1403.63,945.64,1405.56,943.51,1407.69,943.71Z" transform="translate(11.44 -282.74)"/><path class="cls-4" d="M1288,689.07a4.37,4.37,0,0,1,5.61-1.54c5.8,3.09,11.79,6,17.59,9.09a4.15,4.15,0,0,1,1.55,5.61,4.37,4.37,0,0,1-5.61,1.55c-5.8-3.1-11.79-6-17.59-9.09A4.14,4.14,0,0,1,1288,689.07Z" transform="translate(11.44 -282.74)"/><path class="cls-4" d="M1247.62,695.46c5.41-6.39,11-13,16.43-19.35,1.35-1.74,4.45-1.55,5.8,0a4.22,4.22,0,0,1,0,5.8l-16.43,19.35c-1.36,1.75-4.45,1.55-5.8,0A4.2,4.2,0,0,1,1247.62,695.46Z" transform="translate(11.44 -282.74)"/><path class="cls-4" d="M1238.14,734.16l13.15-13.74a4.1,4.1,0,1,1,5.8,5.8L1243.94,740a4.1,4.1,0,1,1-5.8-5.8Z" transform="translate(11.44 -282.74)"/><path class="cls-4" d="M1276.81,741.51a4,4,0,0,1,5,2.9c2.13,7.94,4.06,15.87,6.19,23.8a4.09,4.09,0,0,1-2.9,5,4,4,0,0,1-5-2.9c-2.12-7.93-4.06-15.87-6.18-23.8A4.28,4.28,0,0,1,1276.81,741.51Z" transform="translate(11.44 -282.74)"/><path class="cls-4" d="M1298.27,801.88l6.38-23.61a4.19,4.19,0,0,1,5-2.9,4.28,4.28,0,0,1,2.9,5L1306.19,804a4.18,4.18,0,0,1-5,2.9A4.1,4.1,0,0,1,1298.27,801.88Z" transform="translate(11.44 -282.74)"/><path class="cls-4" d="M1368.06,652.31c7.34.58,14.88,1,22.23,1.55,2.12.19,4.25,1.74,4.06,4.06a4,4,0,0,1-4.06,4.07c-7.35-.59-14.89-1-22.23-1.55-2.13-.2-4.26-1.74-4.06-4.07A4.37,4.37,0,0,1,1368.06,652.31Z" transform="translate(11.44 -282.74)"/><path class="cls-4" d="M1348.34,616.9c.19-2.13,1.74-4.25,4.06-4.06a4,4,0,0,1,4,4.06c-.57,8.13-1.35,16.45-1.93,24.58-.19,2.12-1.74,4.25-4.06,4.06a4,4,0,0,1-4.06-4.06C1347,633.35,1347.76,625,1348.34,616.9Z" transform="translate(11.44 -282.74)"/><path class="cls-4" d="M1195.42,679.21a4.31,4.31,0,0,1,5.61-1.55c7,4.84,14.11,9.48,21.07,14.32a4.12,4.12,0,0,1-4.06,7.16L1197,684.82A4.33,4.33,0,0,1,1195.42,679.21Z" transform="translate(11.44 -282.74)"/><path class="cls-4" d="M1155.6,678.43c5.22-5,10.43-10.06,15.65-14.9a4.1,4.1,0,1,1,5.8,5.81c-5.22,5-10.44,10.06-15.65,14.9a4,4,0,0,1-5.8,0A4.41,4.41,0,0,1,1155.6,678.43Z" transform="translate(11.44 -282.74)"/><path class="cls-4" d="M1163.72,727c2.51-7.16,5-14.32,7.73-21.48.77-1.93,2.9-3.68,5-2.9,1.94.58,3.68,2.9,2.9,5-2.51,7.16-5,14.32-7.73,21.48-.77,1.93-2.9,3.67-5,2.9C1164.68,731.26,1162.94,729.13,1163.72,727Z" transform="translate(11.44 -282.74)"/><path class="cls-4" d="M1087,657.73a4.12,4.12,0,0,1,5.6-1.55c6.58,3.87,13.34,7.55,19.92,11.42a4.19,4.19,0,0,1,1.54,5.61,4.13,4.13,0,0,1-5.6,1.55c-6.58-3.87-13.34-7.55-19.92-11.42C1086.39,662.18,1085.61,659.47,1087,657.73Z" transform="translate(11.44 -282.74)"/><path class="cls-4" d="M1070.92,612.45a5,5,0,0,1,2.51-1.93,4.18,4.18,0,0,1,5,2.9c2.32,5.61,4.45,11.22,6.77,16.83a4.28,4.28,0,0,1-.39,3.1,5,5,0,0,1-2.51,1.93,4.18,4.18,0,0,1-5-2.9c-2.32-5.61-4.45-11.22-6.77-16.83A3.66,3.66,0,0,1,1070.92,612.45Z" transform="translate(11.44 -282.74)"/><path class="cls-4" d="M1055.84,642.25c.2-2.13,1.74-4.26,4.06-4.06a4,4,0,0,1,4.06,4.06c-.58,7.35-1.16,14.7-1.74,22.25-.19,2.13-1.74,4.26-4.06,4.06a4,4,0,0,1-4.06-4.06C1054.68,657,1055.26,649.6,1055.84,642.25Z" transform="translate(11.44 -282.74)"/><path class="cls-4" d="M1044.05,603.36c3.09-7.16,6.19-14.32,9.09-21.48.77-1.93,3.86-2.52,5.6-1.55,2.13,1.36,2.32,3.49,1.55,5.61-3.09,7.16-6.19,14.32-9.09,21.48-.77,1.94-3.86,2.52-5.6,1.55C1043.47,607.81,1043.08,605.49,1044.05,603.36Z" transform="translate(11.44 -282.74)"/><path class="cls-4" d="M777.08,511.06a4.12,4.12,0,0,1,1.93-2.51,3.56,3.56,0,0,1,3.1-.39,4.94,4.94,0,0,1,2.51,1.94c3.48,4.45,6.77,9.09,10.24,13.54a4.39,4.39,0,0,1,.39,3.1,4.08,4.08,0,0,1-1.93,2.51,3.57,3.57,0,0,1-3.09.39,5,5,0,0,1-2.52-1.94c-3.48-4.45-6.76-9.09-10.24-13.54A4.28,4.28,0,0,1,777.08,511.06Z" transform="translate(11.44 -282.74)"/><path class="cls-4" d="M754.85,544.54c4.25-5,8.7-10.26,12.95-15.29,1.35-1.74,4.45-1.55,5.8,0a4.21,4.21,0,0,1,0,5.81c-4.25,5-8.7,10.25-13,15.28-1.36,1.74-4.45,1.55-5.8,0A4.2,4.2,0,0,1,754.85,544.54Z" transform="translate(11.44 -282.74)"/><path class="cls-4" d="M853.05,528.67a4,4,0,0,1,5,2.9c1.55,5.81,3.09,11.81,4.64,17.61a4.1,4.1,0,0,1-2.9,5,4,4,0,0,1-5-2.9l-4.63-17.61A4.11,4.11,0,0,1,853.05,528.67Z" transform="translate(11.44 -282.74)"/><path class="cls-4" d="M1068,710.75c3.29-7.36,6.77-14.71,10-22.06,1-1.94,3.87-2.52,5.61-1.55a4.14,4.14,0,0,1,1.55,5.61c-3.29,7.35-6.77,14.71-10.06,22.06-1,1.93-3.86,2.51-5.6,1.55C1067.44,715.2,1067.06,712.87,1068,710.75Z" transform="translate(11.44 -282.74)"/><path class="cls-4" d="M1088.51,765.12c1.36-7.74,2.52-15.29,3.87-23,.39-2.13,3.09-3.48,5-2.9a4.19,4.19,0,0,1,2.9,5c-1.36,7.74-2.52,15.28-3.87,23-.39,2.13-3.09,3.49-5,2.91C1089.09,769.57,1088.13,767.44,1088.51,765.12Z" transform="translate(11.44 -282.74)"/><path class="cls-4" d="M1057.39,748.86c5-.19,10.25-.19,15.27-.38,2.13,0,4.25,1.93,4.06,4.06a4.08,4.08,0,0,1-4.06,4.06c-5,.2-10.24.2-15.27.39-2.13,0-4.25-1.94-4.06-4.06A4.21,4.21,0,0,1,1057.39,748.86Z" transform="translate(11.44 -282.74)"/><path class="cls-4" d="M1111.13,779.05c2.13-6.19,4.25-12.19,6.38-18.38.77-2.13,2.9-3.68,5-2.91,1.93.58,3.67,2.91,2.9,5-2.13,6.2-4.26,12.19-6.38,18.39-.78,2.12-2.9,3.67-5,2.9C1112.1,783.5,1110.36,781.18,1111.13,779.05Z" transform="translate(11.44 -282.74)"/><path class="cls-4" d="M1153.28,790.85c3.28-7,6.57-13.74,9.86-20.7a4.12,4.12,0,0,1,5.6-1.55,4.33,4.33,0,0,1,1.55,5.61c-3.29,7-6.57,13.74-9.86,20.7a4.13,4.13,0,0,1-5.61,1.55C1152.7,795.3,1152.31,793,1153.28,790.85Z" transform="translate(11.44 -282.74)"/><path class="cls-4" d="M1201.8,777.5q2.33-10.74,4.64-21.48c.39-2.13,3.09-3.48,5-2.9a4.28,4.28,0,0,1,2.89,5q-2.31,10.74-4.63,21.48c-.39,2.13-3.1,3.48-5,2.9A4.46,4.46,0,0,1,1201.8,777.5Z" transform="translate(11.44 -282.74)"/><path class="cls-4" d="M1229.25,813.3c3.67-8.52,7.15-16.84,10.83-25.35.77-1.94,3.86-2.52,5.6-1.55,2.13,1.35,2.32,3.48,1.55,5.61-3.67,8.52-7.15,16.84-10.83,25.35-.77,1.93-3.86,2.51-5.6,1.55A4.14,4.14,0,0,1,1229.25,813.3Z" transform="translate(11.44 -282.74)"/><path class="cls-4" d="M1260.38,843.67,1283,829.74a4.12,4.12,0,0,1,4.06,7.16l-22.62,13.93a4.08,4.08,0,0,1-5.6-1.55A4.37,4.37,0,0,1,1260.38,843.67Z" transform="translate(11.44 -282.74)"/><path class="cls-4" d="M1308.32,857c1.93-1,4.64-.58,5.61,1.55,4.06,7.94,8.31,15.87,12.37,23.61,1,1.93.58,4.64-1.55,5.61-1.93,1-4.64.58-5.61-1.55-4.05-7.93-8.31-15.86-12.37-23.6A4.2,4.2,0,0,1,1308.32,857Z" transform="translate(11.44 -282.74)"/><path class="cls-4" d="M1268.11,889.53c0-2.13,1.93-4.26,4.06-4.06s4.25,1.74,4.06,4.06c-.2,7-.39,13.74-.58,20.7,0,2.13-1.94,4.26-4.06,4.07s-4.26-1.74-4.06-4.07C1267.72,903.27,1267.91,896.5,1268.11,889.53Z" transform="translate(11.44 -282.74)"/><path class="cls-4" d="M1212.82,903.85c2.71-7.74,5.61-15.29,8.31-23,.77-1.93,2.9-3.67,5-2.9,1.93.58,3.67,2.9,2.9,5-2.71,7.74-5.61,15.29-8.32,23-.77,1.93-2.89,3.67-5,2.9C1213.79,908.3,1212.05,906,1212.82,903.85Z" transform="translate(11.44 -282.74)"/><path class="cls-4" d="M1182.66,861.47l9.28-19.15a4.13,4.13,0,0,1,5.61-1.55,4.32,4.32,0,0,1,1.54,5.61q-4.63,9.58-9.28,19.16a4.13,4.13,0,0,1-5.6,1.55C1182.08,865.92,1181.69,863.6,1182.66,861.47Z" transform="translate(11.44 -282.74)"/><path class="cls-4" d="M1073.63,819.87c4.44-4.45,8.7-9.09,13.14-13.54a4.1,4.1,0,1,1,5.8,5.8c-4.44,4.45-8.7,9.1-13.14,13.55a4.1,4.1,0,0,1-5.8-5.81Z" transform="translate(11.44 -282.74)"/><path class="cls-4" d="M1072.66,862.64c5.61-4.07,11.21-7.94,16.82-12a4.13,4.13,0,0,1,5.61,1.55c1.16,2.13.38,4.25-1.55,5.61-5.61,4.06-11.21,7.93-16.82,12a4.13,4.13,0,0,1-5.61-1.54A4.33,4.33,0,0,1,1072.66,862.64Z" transform="translate(11.44 -282.74)"/><path class="cls-4" d="M1112.1,872.7a4.19,4.19,0,0,1,5,2.9c2.89,8.51,5.6,16.83,8.5,25.35a4,4,0,0,1-2.9,5,4.18,4.18,0,0,1-5-2.9c-2.9-8.52-5.61-16.84-8.51-25.35A4.09,4.09,0,0,1,1112.1,872.7Z" transform="translate(11.44 -282.74)"/><path class="cls-4" d="M1187.11,961.32c1.35-6.78,2.9-13.74,4.25-20.51.39-2.13,3.09-3.49,5-2.91a4.3,4.3,0,0,1,2.9,5c-1.36,6.78-2.9,13.74-4.26,20.51-.38,2.13-3.09,3.49-5,2.91C1187.69,965.77,1186.72,963.64,1187.11,961.32Z" transform="translate(11.44 -282.74)"/><path class="cls-4" d="M1230.6,936.94c1.94-1,4.64-.58,5.61,1.54,3.87,7.55,7.54,15.1,11.41,22.64,1,1.94.58,4.65-1.55,5.61-1.93,1-4.64.58-5.61-1.54-3.86-7.55-7.54-15.1-11.4-22.64A4.14,4.14,0,0,1,1230.6,936.94Z" transform="translate(11.44 -282.74)"/><path class="cls-4" d="M1283.19,938.48c2.12-.38,4.64.58,5,2.91,1.74,7.74,3.68,15.28,5.42,23a4,4,0,0,1-2.9,5c-2.13.39-4.64-.58-5-2.9-1.74-7.74-3.67-15.29-5.41-23A4.47,4.47,0,0,1,1283.19,938.48Z" transform="translate(11.44 -282.74)"/><path class="cls-4" d="M1316.63,944.29c1.74-7.16,3.48-14.32,5.41-21.48a4.18,4.18,0,0,1,5-2.9,4.28,4.28,0,0,1,2.9,5c-1.74,7.16-3.48,14.32-5.41,21.48a4.18,4.18,0,0,1-5,2.9A4.1,4.1,0,0,1,1316.63,944.29Z" transform="translate(11.44 -282.74)"/><path class="cls-4" d="M1087.16,959.19c5.22-7,10.44-13.93,15.85-20.9,1.36-1.74,3.68-2.71,5.61-1.55,1.74,1.16,2.9,3.87,1.55,5.61-5.22,7-10.44,13.94-15.86,20.9-1.35,1.74-3.67,2.71-5.6,1.55C1087,963.83,1085.81,961.12,1087.16,959.19Z" transform="translate(11.44 -282.74)"/><path class="cls-4" d="M1057.78,913.52c5.22-3.48,10.63-6.77,15.85-10.25a4.12,4.12,0,0,1,4.06,7.16l-15.85,10.25a4.13,4.13,0,0,1-5.61-1.55C1055.07,917.2,1055.84,914.88,1057.78,913.52Z" transform="translate(11.44 -282.74)"/><path class="cls-4" d="M1042.31,807.68c6-5.41,12-11,18-16.44a4.1,4.1,0,1,1,5.8,5.8c-6,5.42-12,11-18,16.45a4.1,4.1,0,0,1-5.8-5.81Z" transform="translate(11.44 -282.74)"/><path class="cls-4" d="M1127.37,817c1.35-2.13,3.48-2.32,5.61-1.55l21.46,9.29c1.93.78,2.51,3.87,1.54,5.61-1.35,2.13-3.48,2.32-5.6,1.55l-21.46-9.29C1127,821.81,1126.21,818.71,1127.37,817Z" transform="translate(11.44 -282.74)"/><path class="cls-4" d="M1145.93,862.06c.19-2.13,1.74-4.26,4.06-4.07,1.93,0,4.45,1.74,4.06,4.07-1.16,8.32-2.32,16.83-3.29,25.15-.19,2.13-1.74,4.26-4.06,4.06-1.93,0-4.44-1.74-4.06-4.06C1143.61,878.89,1144.77,870.57,1145.93,862.06Z" transform="translate(11.44 -282.74)"/><path class="cls-4" d="M1154.63,928.62c5.61-4.26,11.21-8.71,16.82-13a4.21,4.21,0,0,1,5.8,0c1.35,1.55,1.74,4.45,0,5.81-5.61,4.25-11.21,8.7-16.82,13a4.2,4.2,0,0,1-5.8,0C1153.28,933.07,1152.89,930,1154.63,928.62Z" transform="translate(11.44 -282.74)"/><path class="cls-4" d="M1119.25,718.48c1.74-7.35,3.48-14.89,5.41-22.25a4.11,4.11,0,1,1,7.93,2.13c-1.74,7.35-3.48,14.9-5.41,22.25a4.29,4.29,0,0,1-5,2.91A4.13,4.13,0,0,1,1119.25,718.48Z" transform="translate(11.44 -282.74)"/><path class="cls-4" d="M1111.91,504.68c1.93,23,14.11,45.27,37.5,53.59,9.28,3.29,20.3,4.45,33.25,2.52,44.27-6.58,65.92-64.82,65.92-64.82a23,23,0,0,0,3.68-.39,39.59,39.59,0,0,0,34.21-38.11,27.82,27.82,0,0,0-3.28-14.71,20.2,20.2,0,0,0-6.19-6.58,15.74,15.74,0,0,0-5.61-2.32c-6.57-1.16-13,2.13-18,6.77-2.71-7.54-7.35-14.32-12-21.09-5.41-8.13-10.83-16.64-12.57-26.12s1-20.32,8.9-25.54c-3.68-3.29-8.9-3.87-13.54-2.9-4.83,1-9.27,3.67-13.53,6.58-4.06,2.9-8.12,6-12.76,8.12a32,32,0,0,1-22.42,1.36,31.59,31.59,0,0,1-17.59-13.93A31.8,31.8,0,0,1,1141.1,377a29.92,29.92,0,0,1-18-.77c-7.54,15.67-9.09,38.7-7.93,57.66C1116.55,453,1109.2,472.56,1111.91,504.68Z" transform="translate(11.44 -282.74)"/><path class="cls-5" d="M1160.43,594.07c-17-8.9-26.29-19-26.29-19l13.34-8.13,1.93-8.9c9.28,3.29,20.3,4.45,33.25,2.52,16.82-2.52,30.35-12.58,40.79-23.8C1211.27,564.47,1187.69,583,1160.43,594.07Z" transform="translate(11.44 -282.74)"/><path class="cls-4" d="M1223.26,537c16.82-18.57,25.13-40.83,25.13-40.83a24,24,0,0,0,3.67-.38l8.9,66,17.59,12.57s-25.52,35-71.53,32.51a114.6,114.6,0,0,1-46.78-12.77C1187.69,583,1211.27,564.47,1223.26,537Z" transform="translate(11.44 -282.74)"/><path class="cls-4" d="M1108.23,357.62c.58,7.16,5.42,13.74,11.79,17a22,22,0,0,0,3.1,1.36c5.6,2.12,12.18,2.12,18,.77a32.61,32.61,0,0,0,16.82-9.87,31.51,31.51,0,0,0,17.59,13.93,31,31,0,0,0,22.42-1.35c4.64-2.13,8.7-5.23,12.76-8.13s8.51-5.61,13.53-6.58c4.64-1,10.06-.19,13.54,2.91-7.93,5.41-10.64,16.25-8.9,25.54,1.74,9.67,7.16,18,12.57,26.12,4.45,6.77,9.09,13.54,12,21.09,5-4.65,11.4-7.93,18-6.77A14.29,14.29,0,0,1,1277,436l.39-.58a27.76,27.76,0,0,0,4.44-46.44,28.91,28.91,0,0,0-26.67-45.47,30.79,30.79,0,0,0-45.82-27.09,30,30,0,0,0-53-9.29c-9.28-5.61-22.43-4.45-30.55,2.91s-10.63,20.12-6,30.18l-.77.19C1112.1,342.92,1107.65,350.46,1108.23,357.62Z" transform="translate(11.44 -282.74)"/><path class="cls-6" d="M1084.84,572.59c8.51,19.74,27.65,72.17,117.73,78.37,90.28,6.19,137.26-50.12,137.26-50.12l-56.45-31-4.83,4.45s-25.52,35-71.53,32.51-73.08-31.73-73.08-31.73l-3.67-5.23-34.41,1.94Z" transform="translate(11.44 -282.74)"/><path class="cls-2" d="M904.86,561.76h15.08l-1.16-6.39A90.32,90.32,0,0,0,904.86,561.76Z" transform="translate(11.44 -282.74)"/><path class="cls-4" d="M894.62,412.19l5,30,19.14,113,1.16,6.38h37.31l-4.44-13.35-42.73-127.7L902,396.32C900.8,411.61,894.62,412.19,894.62,412.19Z" transform="translate(11.44 -282.74)"/><path class="cls-5" d="M830.82,561.76h35a99.11,99.11,0,0,0,4.64-13.35c1.94-7.74,2.32-16.06-.38-23.8-2.52-7.36-7.74-14.13-8.7-21.48-1.74-.19-3.29-.39-4.84-.58a92,92,0,0,1-14.69-3.48Z" transform="translate(11.44 -282.74)"/><path class="cls-5" d="M737.84,561.76h53.93l24.75-74.3a98.39,98.39,0,0,1-16.63-13,85.17,85.17,0,0,1-9.08-9.87c-5.42,10.26-18.18,15.68-23.59,26.13-4.06,7.93-3.29,17.22-5.61,25.73-2.9,10.06-10.24,18-16,26.51C741.9,548.79,738.8,555.18,737.84,561.76Z" transform="translate(11.44 -282.74)"/><path class="cls-4" d="M800.08,474.69a99.25,99.25,0,0,0,16.63,13l18.95-57.08,16.43,7.16-10.44,61.53a100.23,100.23,0,0,0,14.69,3.48l10.44-37.15a52.39,52.39,0,0,0,32.28-22.25,4.15,4.15,0,0,1,.78-1.16l-5-30s6.19-.58,7.35-15.67a10.31,10.31,0,0,0,0-7.94c-.2-.38-.39-1-.58-1.35a24.61,24.61,0,0,0-6-7.35,111.86,111.86,0,0,0-14.12-11.23c-4.64-3.29-10.05-6.19-15.66-5.41-4.64.58-8.7,3.67-12.37,6.77a16.72,16.72,0,0,0-9.66,1.35,16.08,16.08,0,0,0-7.93,9.48,16.25,16.25,0,0,0-8.7,6,26.68,26.68,0,0,0-3.67,8.32,17.82,17.82,0,0,0-6.19,5.23,34.68,34.68,0,0,0-5,10.83c-3.09,10.45-3.86,21.48-4.83,32.31C806.27,454.18,804.72,465,800.08,474.69Z" transform="translate(11.44 -282.74)"/><path class="cls-4" d="M902.16,396.52l8.12,24.18a57.38,57.38,0,0,1,3.09-6A64.17,64.17,0,0,1,929,396.52c3.29-2.71,7.35-5.81,7-10.07-.19-3.67-3.67-6.19-7.15-7.15-5-1.36-10.64-.39-15.47,1.93a43.44,43.44,0,0,0-11,7.74A10.25,10.25,0,0,1,902.16,396.52Z" transform="translate(11.44 -282.74)"/><path class="cls-4" d="M919.94,561.76h36.73V607H919.94Z" transform="translate(11.44 -282.74)"/><path class="cls-5" d="M701.69,947.38c9.27,4.45,72.3-4.83,175.92-4.83,43.49,0,82.35,2.51,113.66,4.25,43.31,2.52,71.73,3.87,76.17-4.25,7.74-14.13-2.7-21.09-7-74.88S1032.06,562,1032.06,562H956.67V607H919.94V561.76H830.82V607H791.77V561.76H717.34c-.58,29.41-1.93,100-.38,158.47C718.89,796.07,692.6,942.74,701.69,947.38Z" transform="translate(11.44 -282.74)"/><path class="cls-4" d="M791.77,561.76h39.05V607H791.77Z" transform="translate(11.44 -282.74)"/><path class="cls-4" d="M791.77,561.76h39.05l10.83-62.5,10.44-61.53-16.43-7.16-19.14,57.08Z" transform="translate(11.44 -282.74)"/><path class="cls-7" d="M1275.07,436.57c-4.45-1-9.09-1.36-13.53.58a16.4,16.4,0,0,0-4.84,3.29,23.48,23.48,0,0,0-3.86,4.84c-.58.77-1.94,0-1.74-1,1.35-4.45,5.8-7.74,9.86-9.48,4.63-1.94,10.43-2.13,14.88.58A.74.74,0,0,1,1275.07,436.57Z" transform="translate(11.44 -282.74)"/><path class="cls-7" d="M1250.13,444.7c-3.48-11.61-12.37-20.71-17.21-31.54a42.77,42.77,0,0,1,.39-36.38,42.28,42.28,0,0,1,12-15.29c1.16-.77,2.51,1,1.54,1.94-5.6,5.22-9.86,11-12.18,18.38a42,42,0,0,0-.58,23.41c3.68,13.93,15.47,24.38,18,38.89C1252.26,445.28,1250.52,445.86,1250.13,444.7Z" transform="translate(11.44 -282.74)"/><path class="cls-7" d="M1236.4,386.84a27.19,27.19,0,0,1,3.29-4.84,28.32,28.32,0,0,1,4.45-3.87,21.8,21.8,0,0,1,5.22-2.7,14.61,14.61,0,0,1,2.7-1c1-.2,2.13-.78,3.1-.58,1.16.19,1.93,1.74.58,2.32a10.86,10.86,0,0,1-2.71.77,9.72,9.72,0,0,0-2.51,1,21.29,21.29,0,0,0-4.64,2.52,34.26,34.26,0,0,0-4.26,3.29,25.81,25.81,0,0,0-3.86,4.06C1237.37,388.58,1236,387.81,1236.4,386.84Z" transform="translate(11.44 -282.74)"/><path class="cls-7" d="M1239.88,389.74a26.29,26.29,0,0,1,17.4-4.06,1.52,1.52,0,0,1,1.55,1.55,1.67,1.67,0,0,1-1.55,1.55,28.57,28.57,0,0,0-16,3.09A1.26,1.26,0,1,1,1239.88,389.74Z" transform="translate(11.44 -282.74)"/><path class="cls-7" d="M1234.08,373.88c-12.95-5.61-25.32,6.38-38.47,4.83-11-1.16-20.68-8.9-23.39-19.73a26.82,26.82,0,0,1,1.93-19c1-1.75,3.29-.2,2.52,1.54a25.61,25.61,0,0,0,.19,21.29,24.41,24.41,0,0,0,15.66,12.58c7.73,1.93,14.89-1,22.23-3.29,6.38-2.13,14.11-3.68,20.3.19C1236.4,372.72,1235.44,374.26,1234.08,373.88Z" transform="translate(11.44 -282.74)"/><path class="cls-7" d="M1168.55,364.2a24.52,24.52,0,0,1-5.8-8.7,27.21,27.21,0,0,1-1.35-10.45,1.32,1.32,0,0,1,1.35-1.36c.77,0,1.55.58,1.35,1.36a23.75,23.75,0,0,0,5.41,17.8C1170.67,363.82,1169.51,365,1168.55,364.2Z" transform="translate(11.44 -282.74)"/><path class="cls-7" d="M1161.59,363.62a19.84,19.84,0,0,1-3.29-2.32,13.75,13.75,0,0,1-2.51-3.29,13,13,0,0,1-1.74-3.68c-.39-1.35-1-3.09-.58-4.45a1.31,1.31,0,0,1,2.51,0c.2.58.2,1.17.39,1.94a5.47,5.47,0,0,0,.39,1.74c.38,1.16.77,2.13,1.16,3.29a17.64,17.64,0,0,0,4.44,5.42C1163.14,362.85,1162.56,364.2,1161.59,363.62Z" transform="translate(11.44 -282.74)"/><path class="cls-7" d="M1156.37,376.78c-3.87,1.55-7.73,2.52-11.79,1.93a23.66,23.66,0,0,1-11.22-4.45c-6.18-4.64-10.63-13-9.66-20.7.19-1.93,3.09-2.13,3.09,0a26.93,26.93,0,0,0,1.93,10.26,22.33,22.33,0,0,0,6.58,8.12,23.13,23.13,0,0,0,20.68,3.29C1157,374.84,1157.34,376.39,1156.37,376.78Z" transform="translate(11.44 -282.74)"/><path class="cls-7" d="M1127,373.68a20,20,0,0,1-7-5.8,13.52,13.52,0,0,1-2.13-4.06c-.58-1.55-1.16-3.29-.77-4.84a1.5,1.5,0,0,1,2.7-.39,31.38,31.38,0,0,1,1.16,4.06,27.38,27.38,0,0,0,1.55,3.49,13.75,13.75,0,0,0,5.41,5.61C1128.92,372.72,1128.14,374.26,1127,373.68Z" transform="translate(11.44 -282.74)"/><path class="cls-7" d="M1119.45,341.37a17.3,17.3,0,0,0-9.86,17.42c.77,7.93,6.76,13.73,13.72,17.22,1.55.77.19,3.09-1.35,2.32-7.93-3.29-14.31-11-15.08-19.74-.58-8.13,3.87-16.45,11.79-18.77C1119.64,339.44,1120.41,341,1119.45,341.37Z" transform="translate(11.44 -282.74)"/><path class="cls-7" d="M1118.67,339.82c-3.48-4.64-4.25-11.22-3.28-16.83a24.65,24.65,0,0,1,7.92-14.71c8.7-7.93,22.23-9.28,32.09-2.32a1.48,1.48,0,0,1-1.54,2.52c-9.09-5.81-20.69-5.42-28.62,2.13a22.72,22.72,0,0,0-7,12.57c-1,5.61.39,10.84,2.52,15.87C1121.18,340.21,1119.25,340.6,1118.67,339.82Z" transform="translate(11.44 -282.74)"/><path class="cls-7" d="M1155,306.74c3.48-5.42,9.66-8.71,15.66-10.65a36.46,36.46,0,0,1,19.33-.38,29.17,29.17,0,0,1,16.43,10.83c3.87,5.61,5.22,13.16,2.51,19.55-.58,1.54-3.09,1-2.51-.78a18.92,18.92,0,0,0-2.71-17.8c-3.67-5-9.47-8.13-15.46-9.48a33,33,0,0,0-16.82.58c-6,1.55-10.25,5.22-14.69,9.29C1155.79,308.86,1154.24,307.9,1155,306.74Z" transform="translate(11.44 -282.74)"/><path class="cls-7" d="M1202.38,324.15a20.25,20.25,0,0,0-9.47-18.19,1.35,1.35,0,0,1,1.35-2.32,21.36,21.36,0,0,1,10,20.51A1,1,0,1,1,1202.38,324.15Z" transform="translate(11.44 -282.74)"/><path class="cls-7" d="M1197.35,321.05a26.26,26.26,0,0,0-11-13.15c-1.54-1-.19-3.49,1.36-2.52a32.76,32.76,0,0,1,7.34,6.39,28,28,0,0,1,4.26,8.7C1199.67,321.63,1197.74,322.22,1197.35,321.05Z" transform="translate(11.44 -282.74)"/><path class="cls-7" d="M1208.76,315.83a31,31,0,0,1,31.7,1,33.65,33.65,0,0,1,15.08,26.31c0,1.94-2.7,1.74-2.9,0a30.93,30.93,0,0,0-13.92-24c-8.7-5.42-19.91-5.61-29.38-1.74C1208.37,317.76,1207.79,316.22,1208.76,315.83Z" transform="translate(11.44 -282.74)"/><path class="cls-7" d="M1255.93,343.5a22.75,22.75,0,0,1,8.12.19,33.38,33.38,0,0,1,7.34,2.71,28.93,28.93,0,0,1,11.6,11,30.6,30.6,0,0,1-.77,31.93c-1,1.35-3.29.19-2.32-1.36a28.31,28.31,0,0,0,.77-29.21c-5.22-8.52-14.88-13.16-24.74-13.74C1254.77,345.05,1254.77,343.69,1255.93,343.5Z" transform="translate(11.44 -282.74)"/><path class="cls-7" d="M1275.65,435c6.38-4.84,11.6-10.45,13.53-18.19a28,28,0,0,0-5.22-24c-1.16-1.35,1-3.48,1.93-1.94a31.14,31.14,0,0,1,6.19,26.51c-1.93,8.13-7.73,16.45-15.66,19.74C1275.26,437.34,1274.87,435.79,1275.65,435Z" transform="translate(11.44 -282.74)"/><path class="cls-7" d="M1274.1,430.38a33.21,33.21,0,0,0,8.89-27.67c-.19-1.74,2.52-2.71,2.71-.78a32,32,0,0,1-10.25,29.8A1,1,0,1,1,1274.1,430.38Z" transform="translate(11.44 -282.74)"/><path class="cls-7" d="M1270.81,426.89a25.69,25.69,0,0,0,2.71-7.35,19.93,19.93,0,0,0,.77-3.68,27.54,27.54,0,0,0,.2-4.06,1.46,1.46,0,0,1,2.9,0,26.08,26.08,0,0,1-1.16,8.52,23.49,23.49,0,0,1-3.87,7.54A.92.92,0,1,1,1270.81,426.89Z" transform="translate(11.44 -282.74)"/><path class="cls-7" d="M1278.55,436.18a22.17,22.17,0,0,1,6,7.93,33.47,33.47,0,0,1,2.71,9.49,36.71,36.71,0,0,1-3.48,19.73c-6,12.58-18.75,21.87-32.09,25.35a1.32,1.32,0,0,1-.78-2.52c12.18-4.45,23.39-11,29.58-23a32.22,32.22,0,0,0,3.67-18,33.62,33.62,0,0,0-7-17.41C1276.81,436.57,1277.77,435.41,1278.55,436.18Z" transform="translate(11.44 -282.74)"/><path class="cls-7" d="M1274.1,445.28a34.12,34.12,0,0,0-17.78,37c.38,1.94-2.71,2.9-3.1.78a35.63,35.63,0,0,1,20.11-39.28C1274.29,443.53,1275.26,444.89,1274.1,445.28Z" transform="translate(11.44 -282.74)"/><path class="cls-7" d="M1146.32,420.12c.38,1.94,1.16,3.68,1.35,5.81a55.25,55.25,0,0,1,.19,5.61,64.19,64.19,0,0,1-1.54,10.64c-1.94,7.55-5.42,14.51-9.28,21.09-1.94,3.29-4.26,6.19-6.19,9.48-2.13,3.48-2.71,6.77-.58,10.26,3.87,6.38,11,9.28,17.79,11.41,1.93.58,1.74,4.07-.58,3.68-7-.78-14.5-5.23-19-10.84a14.05,14.05,0,0,1-3.67-8.9c0-3.87,2.12-7,4.25-10.06,4.64-7,9.28-13.93,12.18-21.86a55.25,55.25,0,0,0,3.09-12.39,38.36,38.36,0,0,0,.39-6.77,40.32,40.32,0,0,0-.19-6.77C1144.38,419.54,1146.12,419,1146.32,420.12Z" transform="translate(11.44 -282.74)"/><path class="cls-7" d="M1162.94,487.07c-.19.58-.77,1-1.35,1.55-.58.38-1,.77-1.55,1.16-1,.58-1.74,1.35-2.7,1.93a2.29,2.29,0,0,1-1.55.2,2,2,0,0,1-1.16-1,2.27,2.27,0,0,1-.19-1.55c0-.19.19-.39.19-.58a1.48,1.48,0,0,1,.77-.77,22.15,22.15,0,0,1,2.9-1.55,11.53,11.53,0,0,0,1.55-.77,4.37,4.37,0,0,1,2.13-.59,1.4,1.4,0,0,1,1.16.59A2.77,2.77,0,0,1,1162.94,487.07Z" transform="translate(11.44 -282.74)"/><path class="cls-7" d="M1178.21,503.13a20.9,20.9,0,0,1-4.63,7,28.1,28.1,0,0,1-7,4.84,30.7,30.7,0,0,1-8.12,2.52,29.59,29.59,0,0,1-4.26.38,9.49,9.49,0,0,1-4.64-.77,1.8,1.8,0,0,1,.39-3.29c1.35-.39,2.71,0,3.87,0a23.49,23.49,0,0,0,10.82-2.32,30.69,30.69,0,0,0,11.6-9.48A1.17,1.17,0,0,1,1178.21,503.13Z" transform="translate(11.44 -282.74)"/><path class="cls-7" d="M1231.57,525c-2.71,8.13-8.7,15.1-15.08,20.71a69.53,69.53,0,0,1-22,13.35,64.21,64.21,0,0,1-49.68-2.32c-16.82-8.13-28.22-22.84-32.67-41-5.22-21.29-1.16-43.35,0-64.82,1.35-23.8-1.35-48.57,7-71.4.58-1.74,3.48-1,2.9.77-6.77,19.35-5.8,40.06-6.19,60.37-.38,20.9-4.44,41.6-2.12,62.5,1.16,9.87,3.67,19.54,8.5,28.25a56.79,56.79,0,0,0,16.82,17.8,58.72,58.72,0,0,0,47.36,8.71,66.58,66.58,0,0,0,34.8-22.06c3.09-3.68,5.8-7.74,8.7-11.61C1230.6,523.45,1232,523.83,1231.57,525Z" transform="translate(11.44 -282.74)"/><path class="cls-7" d="M1208.76,444.7c-6-3.49-11.79-7.16-19-7.94a32.35,32.35,0,0,0-20.68,4.45c-2.51,1.55-4.83-2.51-2.32-3.87a37,37,0,0,1,23.58-5c7.54,1,15.66,4.26,19.92,10.84A1.14,1.14,0,0,1,1208.76,444.7Z" transform="translate(11.44 -282.74)"/><path class="cls-7" d="M1207.79,427.47c-1.16-.58-2.32-1-3.48-1.54a27.9,27.9,0,0,0-3.48-1.55,48.55,48.55,0,0,0-7-2.32c-5-1.16-9.66-.78-14.69-.2-2.71.39-3.87-3.29-1.16-4.06a38.55,38.55,0,0,1,24.17,3.1,14.65,14.65,0,0,1,3.67,2.32c1.16,1,1.93,1.93,2.9,2.9C1209.53,426.89,1208.57,428.05,1207.79,427.47Z" transform="translate(11.44 -282.74)"/><path class="cls-7" d="M1138.2,438.12a52.79,52.79,0,0,1-5.22-1.36,46.94,46.94,0,0,0-5.22-.77,23.79,23.79,0,0,0-5.22.58c-1,.19-1.74.58-2.52.77a27.36,27.36,0,0,1-2.51,1.16c-1.74.58-3.48-1.93-1.93-3.29s4.06-1.93,6-2.32a36.22,36.22,0,0,1,6.38-.58,20.87,20.87,0,0,1,6,1.16,9.34,9.34,0,0,1,5.22,3.29A.92.92,0,0,1,1138.2,438.12Z" transform="translate(11.44 -282.74)"/><path class="cls-7" d="M1136.26,417.41a36.38,36.38,0,0,1-4.83.78,30.62,30.62,0,0,0-4.45,1,20,20,0,0,0-4.06,1.94,18.33,18.33,0,0,0-1.93,1.35,5.7,5.7,0,0,1-2.32,1.36,1.79,1.79,0,0,1-2.12-2.13c.58-1.74,2.7-2.9,4.25-3.87a23.36,23.36,0,0,1,5-2.32c3.1-1,7.54-1.74,10.64.19C1137,416.25,1137,417.22,1136.26,417.41Z" transform="translate(11.44 -282.74)"/><path class="cls-7" d="M1179.76,449.34a7.55,7.55,0,1,1,7.54-7.55A7.55,7.55,0,0,1,1179.76,449.34Z" transform="translate(11.44 -282.74)"/><path class="cls-7" d="M1122.54,449.34a7.55,7.55,0,1,1,7.54-7.55A7.54,7.54,0,0,1,1122.54,449.34Z" transform="translate(11.44 -282.74)"/><path class="cls-5" d="M1188.82,480.8a19.33,19.33,0,1,1,22.17,16A19.33,19.33,0,0,1,1188.82,480.8Z" transform="translate(11.44 -282.74)"/><path class="cls-7" d="M1253.61,498.1c.39,1.93,1,3.87,1.35,5.8.2,1.74.58,3.49.78,5.23.58,3.48,1,7,1.35,10.45,1,7.35,1.93,14.7,2.71,22,.77,6.39,1,13.74,4.44,19.55,3.29,5.41,9.09,8.51,13.92,12a1.43,1.43,0,0,1-1.35,2.52c-5.41-2.52-10.83-6-14.5-11-4.06-5.61-4.64-12.58-5.61-19.16-1-7.74-1.93-15.48-2.9-23.41-.38-3.87-1-7.74-1.35-11.61-.19-1.93-.39-4.06-.58-6s0-4.06-.19-6C1251.68,497.32,1253.42,496.94,1253.61,498.1Z" transform="translate(11.44 -282.74)"/><path class="cls-7" d="M1151.15,557.31c1,4.25-1.93,8.32-4.83,11.22-3.29,3.1-7.35,5.22-11.41,7.16a1.56,1.56,0,0,1-1.55-2.71,44.2,44.2,0,0,0,10.44-6.39,15,15,0,0,0,3.48-4.25,39.2,39.2,0,0,0,2.32-5A.79.79,0,0,1,1151.15,557.31Z" transform="translate(11.44 -282.74)"/><path class="cls-7" d="M1278.55,580.91a67.84,67.84,0,0,1,9.66,7l4.64,3.48c.78.58,1.55,1.16,2.52,1.94a8.13,8.13,0,0,1,2.32,2.12c.58,1-.39,2.52-1.55,2.13a10.56,10.56,0,0,1-2.51-1.54,27.22,27.22,0,0,0-2.52-1.94c-1.54-1.16-3.09-2.52-4.64-3.68a115.27,115.27,0,0,1-9.08-7.54C1276.42,581.69,1277.39,580.33,1278.55,580.91Z" transform="translate(11.44 -282.74)"/><path class="cls-7" d="M1264.05,592.91a73.44,73.44,0,0,1,5.6,5.42,77.2,77.2,0,0,1,5.42,6c1.74,1.93,3.28,4.06,5,6l2.32,2.91c.78,1.16,1.94,2.12,2.52,3.48a1.68,1.68,0,0,1-2.71,1.93c-1.93-1.54-3.29-4.06-4.83-6s-3.29-4.07-5-6c-1.55-1.94-3.29-3.87-4.83-5.81-1.74-2.13-3.29-4.25-5-6.19C1261.54,593.49,1263.08,591.94,1264.05,592.91Z" transform="translate(11.44 -282.74)"/><path class="cls-7" d="M1247.62,603c1.74,2.32,3.28,4.84,5,7.35,1.55,2.52,3.48,4.65,5,7.16a1.82,1.82,0,0,1-2.9,2.13c-2.13-2.13-3.67-5-5.22-7.55a34,34,0,0,1-3.48-8.32C1245.68,602.78,1247,602.2,1247.62,603Z" transform="translate(11.44 -282.74)"/><path class="cls-7" d="M1226.35,609.74c.19,4.84.39,9.87.58,14.71s.77,9.87.58,14.7c0,1.55-2.71,2.13-2.9.39-.77-4.84-.58-9.87-.77-14.7,0-5,.19-10.07.38-14.9A1.07,1.07,0,1,1,1226.35,609.74Z" transform="translate(11.44 -282.74)"/><path class="cls-7" d="M1204.12,612.26v7.16c0,1.16-.19,2.32-.19,3.48,0,.58-.2,1.16-.2,1.94a2.67,2.67,0,0,1-.77,2.32,1.76,1.76,0,0,1-2.71-.39c-.58-.58-.38-1.35-.19-2.13,0-.58.19-1.16.19-1.93.2-1.16.39-2.52.58-3.68.39-2.32,1-4.64,1.36-7C1202.38,611.1,1204.12,611.29,1204.12,612.26Z" transform="translate(11.44 -282.74)"/><path class="cls-7" d="M1178.41,605.87c0,5-1.16,10.06-1.94,15.1-.38,2.51-1,5-1.35,7.35-.19,1.16-.39,2.51-.58,3.67a12.5,12.5,0,0,1-1,3.87c-.77,1.17-2.9,1.17-3.09-.38-.39-2.32.58-5,1-7.16.58-2.52,1-5.23,1.54-7.74,1-5,1.74-10.26,3.68-14.9A.88.88,0,0,1,1178.41,605.87Z" transform="translate(11.44 -282.74)"/><path class="cls-7" d="M1157.53,599.1a26.76,26.76,0,0,0-.77,3.87c-.39,1.16-.58,2.32-1,3.48-.77,2.52-1.55,4.84-2.32,7.36a2,2,0,0,1-2.51,1.35,2,2,0,0,1-1.36-2.51c1-2.33,1.74-4.84,2.71-7.16.58-1.16,1-2.33,1.55-3.49a29.72,29.72,0,0,0,1.74-3.48A1,1,0,0,1,1157.53,599.1Z" transform="translate(11.44 -282.74)"/><path class="cls-7" d="M1140.71,586.52a26.75,26.75,0,0,1-3.48,6c-1.35,1.94-2.9,3.87-4.45,5.81l-4.64,5.22a29.76,29.76,0,0,1-2.51,2.52,12,12,0,0,1-2.9,2.51c-1.54,1-3.67-1-2.51-2.51,1.35-1.94,3.29-3.29,4.83-5,1.74-1.75,3.29-3.49,4.83-5.23s2.9-3.48,4.45-5.22,2.71-3.68,4.45-5.42C1139.36,584.59,1141.1,585.36,1140.71,586.52Z" transform="translate(11.44 -282.74)"/><path class="cls-7" d="M1129.69,577.24c-3.29,1.16-6.57,2.12-9.86,3.09-1.74.58-3.28,1-5,1.55-1.55.58-3.48,1.55-5.22,1.16a1.69,1.69,0,0,1-.78-2.71,7.66,7.66,0,0,1,2.52-1.16c.77-.19,1.74-.58,2.51-.77a49.37,49.37,0,0,1,5-1.36c3.28-.77,6.76-1.55,10.24-2.13C1130.46,574.72,1131,576.85,1129.69,577.24Z" transform="translate(11.44 -282.74)"/><path class="cls-7" d="M1348.34,730.09a125.22,125.22,0,0,0-18.76,50.12c-2.51,18.19-.38,36.37,5.22,53.79,6,18.19,14.5,35.79,15.47,55.14.58,10.45-1.16,20.71-2.9,31a287.23,287.23,0,0,0-4.45,31.74c-1.74,24,0,48,2.32,71.78.2,2.13-3.09,2.13-3.28,0-1.74-21.67-3.68-43.34-3.29-65a214.73,214.73,0,0,1,3.09-31.35c1.74-10.45,3.87-21.09,4.06-31.73.39-19.93-7.73-38.12-14.11-56.5-6-17.61-8.89-35.8-7-54.37,2.13-20.12,9.09-39.67,21.46-55.73C1347.18,727.58,1349.3,728.55,1348.34,730.09Z" transform="translate(11.44 -282.74)"/><path class="cls-7" d="M799.31,474.69c1-7.55,2.32-15.1,3.09-22.64.78-7.35,1.55-14.9,2.71-22.25s2.71-14.71,5.61-21.48c2.32-5.61,5.41-12,11.6-14.32,7-2.51,13.53,3.1,18.75,6.77a135.93,135.93,0,0,1,17.2,14.32c2.71,2.71,5.42,5.42,7.93,8.32,2.13,2.52,4.64,5,5.41,8.32.78,3.1-.38,6-2.51,8.51s-4.83,5-7.93,6.2c-3.48,1.35-6.57-.2-9.08-2.52-2.71-2.71-5.22-5.61-8.31-7.74-6.77-4.64-14.5-7.54-22.24-10.06-2.12-.77-1.35-4.26,1-3.48a128.74,128.74,0,0,1,17,6.77,53.42,53.42,0,0,1,14.31,11c2.32,2.51,4.83,3.87,8.12,1.55,2.32-1.55,5.41-4.26,6-7.16.58-3.29-2.32-6.39-4.45-8.71-2.12-2.52-4.44-4.84-6.76-7.16a142,142,0,0,0-15.27-13.16c-2.71-1.93-5.42-3.87-8.12-5.61s-6-3.67-9.48-2.51c-5.8,1.74-8.5,9.09-10.44,14.12a109.19,109.19,0,0,0-4.83,19c-1.16,7.36-1.74,14.9-2.71,22.45-.77,7.54-1.74,15.09-4.64,22.06C800.86,476,799.12,476,799.31,474.69Z" transform="translate(11.44 -282.74)"/><path class="cls-7" d="M823.86,394.77c-.38-6.38,4.84-14.31,11.6-14.89,3.68-.39,7.16,1.54,10.25,3.28a103.35,103.35,0,0,1,9.47,6.39A145.65,145.65,0,0,1,872,405.42c4.45,4.83,11,10.64,11.41,17.8a9.89,9.89,0,0,1-4.06,8.9c-3.29,2.13-7.35,1.93-11,1.35-1.94-.38-1.55-3.87.58-3.67,3.28.38,8.12,1,10.24-2.52,1.94-3.29,0-7.35-1.93-10.06A119.81,119.81,0,0,0,861.56,400a85.13,85.13,0,0,0-18.36-13.93c-3.48-1.94-7.54-3.87-11.41-1.36-3.67,2.52-3.87,7-6.19,10.45A.91.91,0,0,1,823.86,394.77Z" transform="translate(11.44 -282.74)"/><path class="cls-7" d="M835.27,380.46a18.46,18.46,0,0,1,13.34-12.19c7-1.36,12.76,3.09,17.4,7.54,6.18,5.81,12.37,11.81,18.17,18,4.64,4.83,8.89,10.64,9.28,17.6s-4.83,15.68-13,13.55c-1.74-.39-1.36-3.48.38-3.29,9.28.77,10.44-10.06,7.16-16.64-3.48-7-9.86-12.38-15.28-17.61l-9.08-9.09c-2.71-2.71-5.8-5.42-9.48-6.58-7.92-2.52-13,3.87-17.2,9.48A1,1,0,0,1,835.27,380.46Z" transform="translate(11.44 -282.74)"/><path class="cls-7" d="M853.05,369.62c1.55-2.71,5-4.64,7.54-6,2.71-1.35,5.8-2.51,8.9-2.32,6.76.19,12.18,5.61,17,9.67,3.09,2.52,6.19,4.84,9.09,7.36a24.31,24.31,0,0,1,6.57,6.77c3.67,5.8,2.12,13.16.77,19.35-.77,3.29-1.74,6.77-4.44,8.9a7.29,7.29,0,0,1-8.51.77c-1.93-1.16-.19-4.45,1.93-3.09,3.68,2.13,6.19-2.71,7-5.42a44.18,44.18,0,0,0,1.93-9.87,14.86,14.86,0,0,0-2.51-9.87c-2.12-2.71-4.83-4.64-7.54-6.77-2.9-2.32-6-4.64-8.89-7.16-2.9-2.32-5.61-5-9.09-6.38-3.28-1.36-6.76-.78-9.86.58s-5.6,4.06-8.89,5C853.44,371.36,852.67,370.39,853.05,369.62Z" transform="translate(11.44 -282.74)"/><path class="cls-7" d="M902.16,388.39c.77-5.23,7.34-9.09,11.79-10.84a23,23,0,0,1,16.82-.19c5.22,1.94,10.24,7.16,7.92,13.16-2.12,5.61-8.89,8.51-13.14,12.38a55,55,0,0,0-13.53,19c-.78,1.94-3.68.2-2.9-1.74A52.28,52.28,0,0,1,918,405.8c3.67-4.45,8.12-7.74,12.57-11.22,1.93-1.55,4.25-3.29,5-5.61,1-2.9-1-5.61-3.28-7.16-4.26-2.71-9.86-3.1-14.5-1.93a22.21,22.21,0,0,0-7.54,3.48c-2.32,1.74-3.87,4.26-6.19,6C902.93,390.13,902,389.55,902.16,388.39Z" transform="translate(11.44 -282.74)"/><path class="cls-7" d="M900,443.34c-1.74,4.06-5.41,7.55-8.5,10.64a64.15,64.15,0,0,1-10.83,8.32A41.08,41.08,0,0,1,868.13,467c-4.06.77-9.28,1.16-13.14-.58-1.36-.58-.58-2.71.77-2.71,2.13,0,4.06.58,6.19.58a33.18,33.18,0,0,0,18.56-5.42,53.19,53.19,0,0,0,9.66-7.74c2.9-2.9,5.42-6.38,8.89-8.71C899.64,441.79,900.22,442.76,900,443.34Z" transform="translate(11.44 -282.74)"/><path class="cls-7" d="M869.29,465.59c-1.16,3.1-1.93,6.39-2.9,9.68q-1.44,4.64-2.9,9.28c-1.74,6.39-3.28,12.77-4.44,19.35-.39,1.94-3.48,1.16-3.1-.77a183,183,0,0,1,4.64-19.74c1-3.29,1.94-6.38,3.1-9.67,1.16-3.1,2.51-6,3.86-8.9C867.94,463.85,869.68,464.43,869.29,465.59Z" transform="translate(11.44 -282.74)"/><path class="cls-7" d="M859.43,506.42c.39,2.71,1,5.42,1.36,8.32.19,1.35.38,2.71.58,4.26a16.46,16.46,0,0,1,.38,4.45,1.61,1.61,0,0,1-1.54,1.16,1.68,1.68,0,0,1-1.55-1.16c-.19-.78-.19-1.55-.39-2.33,0-.58-.19-1.35-.19-1.93-.19-1.36-.19-2.71-.39-4.06q-.29-4.07-.58-8.13C857.31,505.45,859.24,505.26,859.43,506.42Z" transform="translate(11.44 -282.74)"/><path class="cls-7" d="M849,507.19a137.65,137.65,0,0,1-1,15.29,1.62,1.62,0,0,1-1.74,1.16c-.77-.19-1.55-.77-1.35-1.55A101.65,101.65,0,0,1,847.06,507C847.06,505.64,849,506,849,507.19Z" transform="translate(11.44 -282.74)"/><path class="cls-7" d="M809,490.17c-.58,1-1,2.12-1.55,3.09-.58,1.16-1.16,2.13-1.74,3.1s-1.16,1.93-1.74,3.09-1.16,2.52-2.32,3.1c-1,.58-2.51-.19-2.32-1.36a2.07,2.07,0,0,1,.39-1.35c.19-.19.38-.58.58-.77.19-.39.58-1,.77-1.36.58-1,1.35-2.13,1.93-3.09s1.36-1.94,1.94-2.91a27,27,0,0,0,2.12-2.9C807.82,487.84,809.75,488.81,809,490.17Z" transform="translate(11.44 -282.74)"/><path class="cls-7" d="M797.76,481.65a26.51,26.51,0,0,0-1.93,2.9c-.77,1-1.35,1.94-2.12,2.91s-1.55,1.93-2.32,2.9c-.39.39-.78,1-1.16,1.35a4,4,0,0,1-1.55,1.55,1.48,1.48,0,0,1-1.93-.19,1.75,1.75,0,0,1-.58-1.94,4.39,4.39,0,0,1,1.35-1.93c.39-.39.77-1,1.16-1.36.77-1,1.55-1.74,2.32-2.71a31.26,31.26,0,0,1,2.51-2.51,32.81,32.81,0,0,1,2.71-2.52C797,479.52,798.54,480.68,797.76,481.65Z" transform="translate(11.44 -282.74)"/><path class="cls-7" d="M789.84,475.85l-4.06,4.06a21.73,21.73,0,0,1-2.13,1.94,5,5,0,0,1-1.16,1,4.91,4.91,0,0,1-1.74,1,1.45,1.45,0,0,1-1.54-.58,1.88,1.88,0,0,1-.2-1.74,7.44,7.44,0,0,1,2.13-2.13,20.79,20.79,0,0,0,2.32-1.93,42.83,42.83,0,0,0,4.45-3.68c.58-.39,1.16-.58,1.74,0C790.42,474.49,790.42,475.27,789.84,475.85Z" transform="translate(11.44 -282.74)"/><path class="cls-7" d="M836.24,431.15c-.58,2.13-.78,4.26-1.36,6.39-.58,2.32-1.35,4.64-2.12,7-1.36,4.26-2.52,8.52-3.87,12.77-2.71,8.71-5.61,17.42-8.31,25.93-5.61,17.22-11.41,34.25-17.4,51.27l-10.44,29c-.77,1.93-3.67,1.16-3.09-.78,12-34.24,23.77-68.49,34.79-102.93q2.32-7.26,4.64-14.51c.78-2.52,1.55-5,2.32-7.36.78-2.51,1.94-4.83,2.9-7.35A1,1,0,0,1,836.24,431.15Z" transform="translate(11.44 -282.74)"/><path class="cls-7" d="M850.15,440.05c-.38,4.06-.58,8.13-1.16,12.19-.38,3.87-1,7.55-1.54,11.42-1.16,8.12-2.32,16.25-3.48,24.57l-7,48.18c-1.35,9.09-2.51,18.38-3.87,27.48-.38,1.93-3.28,1.16-3.09-.78,4.45-32.12,9.09-64,13.72-96.16.58-4.45,1.16-8.71,1.94-13.16.77-4.64,1.74-9.29,2.7-13.74A.87.87,0,0,1,850.15,440.05Z" transform="translate(11.44 -282.74)"/><path class="cls-7" d="M823.67,565.63H810.52c-4.44,0-8.69.19-13.14,0a1.26,1.26,0,0,1,0-2.52c4.45-.19,8.7,0,13.14,0h13.15A1.26,1.26,0,0,1,823.67,565.63Z" transform="translate(11.44 -282.74)"/><path class="cls-7" d="M904.86,400.77c2.13,5,3.48,10.45,5,15.87q2.33,7.83,4.64,15.67c3.29,10.64,6.57,21.29,10.05,31.93,6.77,21.09,13.92,41.79,21.27,62.69,4.25,11.8,8.7,23.6,13.14,35.41.58,1.74-2.12,2.51-2.9.77-15.85-41.21-30-83-42.91-125.19-1.94-6-3.68-12-5.42-18.19-1.74-6-3.86-12-4.83-18.18C902.93,400.58,904.28,399.81,904.86,400.77Z" transform="translate(11.44 -282.74)"/><path class="cls-7" d="M894.62,413.54c5,18.77,8.89,38.12,12.56,57.28,3.87,19.15,7.16,38.5,10.25,57.66,1.74,10.83,3.48,21.67,5,32.7.19,1.93-2.71,2.9-3.1.77q-8.4-58.05-20.3-115.51c-2.31-10.84-4.63-21.48-6.57-32.32C892.3,412.77,894.23,412.19,894.62,413.54Z" transform="translate(11.44 -282.74)"/><path class="cls-7" d="M953.19,564.08H942.56a99.24,99.24,0,0,1-10.63-.19,1,1,0,0,1,0-1.94,96.7,96.7,0,0,1,10.63-.19h10.63C954.55,562.14,954.55,564.08,953.19,564.08Z" transform="translate(11.44 -282.74)"/><path class="cls-7" d="M1028.58,563.11c-11.4,0-22.81.2-34.41.2h-25.7a59.29,59.29,0,0,1-8.32-.2c-1.16-.19-1.16-2.32,0-2.51,5.42-.78,11.22-.2,16.63-.2H994c11.41,0,22.81,0,34.41.2A1.26,1.26,0,1,1,1028.58,563.11Z" transform="translate(11.44 -282.74)"/><path class="cls-7" d="M914.34,563.69c-13.73,0-27.45.2-41.37.2h-20.3c-7,0-14.11.38-21.07-.2a1.45,1.45,0,0,1,0-2.9c6.76-.58,13.72-.19,20.68-.19H873c13.72,0,27.45,0,41.37.19C916.46,560.6,916.46,563.69,914.34,563.69Z" transform="translate(11.44 -282.74)"/><path class="cls-7" d="M787.33,563.11H720.05a1.36,1.36,0,0,1,0-2.71h67.28A1.36,1.36,0,0,1,787.33,563.11Z" transform="translate(11.44 -282.74)"/><path class="cls-7" d="M1018.15,939.45c-28.81-6.58-58-12.19-87.57-15.48a640.71,640.71,0,0,0-88.35-4.06c-8.12.19-16.43.58-24.55,1-8.51.58-16.82,1.54-25.33,1.93-1.54,0-2.12-2.51-.38-2.9A209.08,209.08,0,0,1,813.81,918c7.54-.58,14.89-.77,22.43-1.16,14.88-.38,29.57-.38,44.46.2a650,650,0,0,1,88.73,9.48,475.34,475.34,0,0,1,49.1,11.41C1019.69,938.1,1019.31,939.64,1018.15,939.45Z" transform="translate(11.44 -282.74)"/><path class="cls-7" d="M888.43,934.23a426.67,426.67,0,0,0-47.17-.58,389.9,389.9,0,0,0-47.36,4.83c-2.13.39-3.09-2.9-1-3.29a326.14,326.14,0,0,1,47.37-4.64,331.68,331.68,0,0,1,47.94,2.13C889.4,932.87,889.4,934.23,888.43,934.23Z" transform="translate(11.44 -282.74)"/></g><path class="cls-2" d="M995,354.14c6.76,0,10.24-5.22,10.24-10.45a11.49,11.49,0,0,0-2.51-7.16,9.94,9.94,0,0,0-7.73-3.29c-6.76,0-10.24,5.23-10.24,10.45C984.71,348.72,988.19,354.14,995,354.14Zm0-17.41c4.64,0,6.57,3.48,6.57,7a7.09,7.09,0,0,1-1.74,4.84,6.42,6.42,0,0,1-5,2.13c-4.64,0-6.56-3.48-6.56-7a7.05,7.05,0,0,1,1.73-4.83A5.84,5.84,0,0,1,995,336.73Z" transform="translate(11.44 -282.74)"/><path class="cls-2" d="M998.62,391.29c6.77,0,10.25-5.22,10.25-10.45s-3.48-10.45-10.25-10.45-10.24,5.23-10.24,10.45C988.38,385.87,991.85,391.29,998.62,391.29Zm0-17.41c4.64,0,6.57,3.48,6.57,7a7.09,7.09,0,0,1-1.74,4.84,6.42,6.42,0,0,1-5,2.13c-4.64,0-6.58-3.48-6.58-7S994,373.88,998.62,373.88Z" transform="translate(11.44 -282.74)"/><path class="cls-2" d="M963.44,366.14c6.77,0,10.25-5.23,10.25-10.45s-3.48-10.45-10.25-10.45-10.25,5.22-10.25,10.45S956.67,366.14,963.44,366.14Zm0-17.42c4.64,0,6.57,3.49,6.57,7s-2.12,7-6.57,7c-4.64,0-6.57-3.48-6.57-7a7.09,7.09,0,0,1,1.74-4.84A5.73,5.73,0,0,1,963.44,348.72Z" transform="translate(11.44 -282.74)"/><path class="cls-2" d="M967.89,331.89c6.76,0,10.24-5.22,10.24-10.45S974.65,311,967.89,311s-10.25,5.23-10.25,10.45S961.12,331.89,967.89,331.89Zm0-17.41c4.64,0,6.57,3.48,6.57,7a7.09,7.09,0,0,1-1.74,4.84,6.42,6.42,0,0,1-5,2.13c-4.64,0-6.57-3.49-6.57-7C961.31,318,963.25,314.48,967.89,314.48Z" transform="translate(11.44 -282.74)"/><path class="cls-2" d="M1003.84,319.31c6.77,0,10.25-5.22,10.25-10.45s-3.48-10.44-10.25-10.44-10.25,5.22-10.25,10.44S997.07,319.31,1003.84,319.31Zm0-17.41c4.64,0,6.57,3.48,6.57,7a7.07,7.07,0,0,1-1.74,4.84,6.38,6.38,0,0,1-5,2.13c-4.64,0-6.58-3.48-6.58-7S999.2,301.9,1003.84,301.9Z" transform="translate(11.44 -282.74)"/><path class="cls-2" d="M1027.23,341.56c6.77,0,10.25-5.22,10.25-10.44s-3.48-10.45-10.25-10.45S1017,325.89,1017,331.12,1020.46,341.56,1027.23,341.56Zm0-17.41c4.64,0,6.57,3.48,6.57,7s-2.12,7-6.57,7c-4.64,0-6.57-3.48-6.57-7a7.07,7.07,0,0,1,1.74-4.84A5.71,5.71,0,0,1,1027.23,324.15Z" transform="translate(11.44 -282.74)"/><path class="cls-2" d="M1029.16,372.33c6.77,0,10.25-5.22,10.25-10.45s-3.48-10.45-10.25-10.45-10.24,5.23-10.24,10.45A10.21,10.21,0,0,0,1029.16,372.33Zm0-17.41c4.64,0,6.58,3.48,6.58,7s-2.13,7-6.58,7c-4.64,0-6.57-3.49-6.57-7a7.09,7.09,0,0,1,1.74-4.84C1025.3,355.5,1027,354.92,1029.16,354.92Z" transform="translate(11.44 -282.74)"/><path class="cls-2" d="M1031.68,412.58c6.76,0,10.24-5.23,10.24-10.45a11.47,11.47,0,0,0-2.51-7.16,9.91,9.91,0,0,0-7.73-3.29c-6.77,0-10.25,5.22-10.25,10.45S1024.91,412.58,1031.68,412.58Zm0-17.42c4.64,0,6.57,3.48,6.57,7a7.06,7.06,0,0,1-1.74,4.83,6.39,6.39,0,0,1-5,2.13c-4.64,0-6.57-3.48-6.57-7S1027,395.16,1031.68,395.16Z" transform="translate(11.44 -282.74)"/><path class="cls-2" d="M990.31,422.25a8.17,8.17,0,0,0,3.86-1,8.66,8.66,0,0,0,3.29-2.13,8,8,0,0,0,2.13-3.48,6.71,6.71,0,0,0,.77-4.06v-.78a11.68,11.68,0,0,0-1.35-5.22l-1.55-1.94a11.64,11.64,0,0,0-4.83-2.9l-2.52-.38a8.4,8.4,0,0,0-4.44,1,8.67,8.67,0,0,0-3.28,2.13,7.51,7.51,0,0,0-2.13,3.29,10.44,10.44,0,0,0-1,4.06v.78a11.56,11.56,0,0,0,1.36,5.22l1.54,1.94a11.54,11.54,0,0,0,4.83,2.9l2.51.39A1.5,1.5,0,0,0,990.31,422.25Zm-.58-18.19h.19l2.13.39a5.82,5.82,0,0,1,2.9,1.74l1.16,1.55a6.37,6.37,0,0,1,.77,3.29v.77a5.35,5.35,0,0,1-.58,2.52,5.29,5.29,0,0,1-1.35,2.32,4.43,4.43,0,0,1-2.13,1.35,4.62,4.62,0,0,1-2.71.58l-2.12-.38a5.93,5.93,0,0,1-2.9-1.74l-1.16-1.55a6.37,6.37,0,0,1-.77-3.29v-.78a5.31,5.31,0,0,1,.58-2.51l.19-.19a4.94,4.94,0,0,1,1.35-2.13,4.46,4.46,0,0,1,2.13-1.36A5.2,5.2,0,0,1,989.73,404.06Z" transform="translate(11.44 -282.74)"/><path class="cls-2" d="M961.12,404.45c6.77,0,10.25-5.23,10.25-10.45a11.5,11.5,0,0,0-2.52-7.16,9.89,9.89,0,0,0-7.73-3.29c-6.77,0-10.25,5.23-10.25,10.45S954.35,404.45,961.12,404.45Zm0-17.42c4.64,0,6.57,3.49,6.57,7a7.09,7.09,0,0,1-1.74,4.84,6.42,6.42,0,0,1-5,2.13c-4.64,0-6.58-3.49-6.58-7S956.48,387,961.12,387Z" transform="translate(11.44 -282.74)"/><path class="cls-2" d="M937.15,367.49c6.76,0,10.24-5.22,10.24-10.45s-3.48-10.44-10.24-10.44S926.9,351.82,926.9,357C927.1,362.07,930.58,367.49,937.15,367.49Zm0-17.41c4.64,0,6.57,3.48,6.57,7a7.07,7.07,0,0,1-1.74,4.84,6.38,6.38,0,0,1-5,2.13c-4.64,0-6.58-3.48-6.58-7C930.58,353.56,932.7,350.08,937.15,350.08Z" transform="translate(11.44 -282.74)"/><path class="cls-2" d="M936.76,328.6c6.77,0,10.25-5.22,10.25-10.45s-3.48-10.45-10.25-10.45-10.24,5.23-10.24,10.45C926.71,323.38,930.19,328.6,936.76,328.6Zm0-17.41c4.64,0,6.57,3.48,6.57,7s-2.12,7-6.57,7c-4.64,0-6.57-3.49-6.57-7a7.1,7.1,0,0,1,1.74-4.84A6.29,6.29,0,0,1,936.76,311.19Z" transform="translate(11.44 -282.74)"/><path class="cls-2" d="M978.33,303.64c6.76,0,10.24-5.22,10.24-10.45a11.55,11.55,0,0,0-2.51-7.16,9.92,9.92,0,0,0-7.73-3.29c-6.77,0-10.25,5.23-10.25,10.45C968.27,298.42,971.75,303.64,978.33,303.64Zm0-17.41c4.64,0,6.57,3.48,6.57,7a7.09,7.09,0,0,1-1.74,4.84,6.42,6.42,0,0,1-5,2.13c-4.64,0-6.57-3.49-6.57-7C971.75,289.71,973.69,286.23,978.33,286.23Z" transform="translate(11.44 -282.74)"/><path class="cls-2" d="M1032.84,308.09c6.76,0,10.24-5.22,10.24-10.45a11.49,11.49,0,0,0-2.51-7.16,9.91,9.91,0,0,0-7.73-3.29c-6.77,0-10.25,5.23-10.25,10.45S1026.07,308.09,1032.84,308.09Zm0-17.41c4.64,0,6.57,3.48,6.57,7a7.09,7.09,0,0,1-1.74,4.84,6.42,6.42,0,0,1-5,2.13c-4.64,0-6.57-3.49-6.57-7a7.1,7.1,0,0,1,1.74-4.84A6.42,6.42,0,0,1,1032.84,290.68Z" transform="translate(11.44 -282.74)"/><path class="cls-2" d="M1052.56,350.85c6.76,0,10.24-5.22,10.24-10.45S1059.32,330,1052.56,330s-10.25,5.23-10.25,10.45S1046,350.85,1052.56,350.85Zm0-17.41c4.64,0,6.57,3.48,6.57,7s-2.13,7-6.57,7c-4.64,0-6.58-3.48-6.58-7a7.06,7.06,0,0,1,1.74-4.83A5.74,5.74,0,0,1,1052.56,333.44Z" transform="translate(11.44 -282.74)"/><path class="cls-2" d="M1056.62,388.39c6.76,0,10.24-5.23,10.24-10.45s-3.48-10.45-10.24-10.45-10.25,5.23-10.25,10.45S1049.85,388.39,1056.62,388.39Zm0-17.41c4.64,0,6.57,3.48,6.57,7s-2.13,7-6.57,7c-4.64,0-6.58-3.49-6.58-7a7.09,7.09,0,0,1,1.74-4.84A5.76,5.76,0,0,1,1056.62,371Z" transform="translate(11.44 -282.74)"/><path class="cls-2" d="M78.83,934.63c8.92,0,13.51-6.89,13.51-13.78A15.16,15.16,0,0,0,89,911.41a13.08,13.08,0,0,0-10.2-4.34c-8.93,0-13.52,6.89-13.52,13.78C65.31,927.49,69.9,934.63,78.83,934.63Zm0-23c6.12,0,8.67,4.6,8.67,9.19a9.33,9.33,0,0,1-2.3,6.38A8.43,8.43,0,0,1,78.57,930c-6.12,0-8.67-4.6-8.67-9.19a9.33,9.33,0,0,1,2.3-6.38C73.73,912.43,76,911.66,78.83,911.66Z" transform="translate(11.44 -282.74)"/><path class="cls-2" d="M83.67,983.63c8.93,0,13.51-6.89,13.51-13.78s-4.58-13.78-13.51-13.78S70.16,963,70.16,969.85C70.16,976.48,74.75,983.63,83.67,983.63Zm0-23c6.12,0,8.67,4.59,8.67,9.19a9.32,9.32,0,0,1-2.29,6.38A8.48,8.48,0,0,1,83.42,979c-6.12,0-8.67-4.6-8.67-9.19S77.55,960.66,83.67,960.66Z" transform="translate(11.44 -282.74)"/><path class="cls-2" d="M37.26,950.45c8.93,0,13.52-6.89,13.52-13.78s-4.59-13.78-13.52-13.78-13.51,6.89-13.51,13.78S28.34,950.45,37.26,950.45Zm0-23c6.12,0,8.67,4.59,8.67,9.18s-2.8,9.19-8.67,9.19c-6.11,0-8.66-4.59-8.66-9.19a9.34,9.34,0,0,1,2.29-6.38A7.59,7.59,0,0,1,37.26,927.49Z" transform="translate(11.44 -282.74)"/><path class="cls-2" d="M43.13,905.28c8.92,0,13.51-6.89,13.51-13.78s-4.59-13.78-13.51-13.78-13.51,6.89-13.51,13.78S34.2,905.28,43.13,905.28Zm0-23c6.12,0,8.67,4.6,8.67,9.19a9.33,9.33,0,0,1-2.3,6.38,8.43,8.43,0,0,1-6.63,2.81c-6.12,0-8.67-4.59-8.67-9.19C34.46,886.91,37,882.31,43.13,882.31Z" transform="translate(11.44 -282.74)"/><path class="cls-2" d="M90.55,888.69c8.93,0,13.52-6.89,13.52-13.78s-4.59-13.78-13.52-13.78S77,868,77,874.91,81.63,888.69,90.55,888.69Zm0-23c6.12,0,8.67,4.59,8.67,9.18a9.32,9.32,0,0,1-2.29,6.38,8.45,8.45,0,0,1-6.63,2.81c-6.12,0-8.67-4.59-8.67-9.19S84.44,865.73,90.55,865.73Z" transform="translate(11.44 -282.74)"/><path class="cls-2" d="M121.41,918c8.92,0,13.51-6.89,13.51-13.78s-4.59-13.78-13.51-13.78-13.52,6.89-13.52,13.78S112.48,918,121.41,918Zm0-23c6.12,0,8.67,4.6,8.67,9.19s-2.81,9.19-8.67,9.19c-6.12,0-8.67-4.59-8.67-9.19a9.32,9.32,0,0,1,2.29-6.38A7.6,7.6,0,0,1,121.41,895.07Z" transform="translate(11.44 -282.74)"/><path class="cls-2" d="M124,958.62c8.92,0,13.51-6.89,13.51-13.78s-4.59-13.78-13.51-13.78-13.52,6.89-13.52,13.78C110.44,951.47,115.29,958.62,124,958.62Zm0-23c6.12,0,8.67,4.6,8.67,9.19S129.82,954,124,954c-6.12,0-8.67-4.6-8.67-9.19a9.32,9.32,0,0,1,2.29-6.38C118.86,936.42,121.15,935.65,124,935.65Z" transform="translate(11.44 -282.74)"/><path class="cls-2" d="M127.27,1011.7c8.92,0,13.51-6.89,13.51-13.78a15.16,15.16,0,0,0-3.31-9.44,13.06,13.06,0,0,0-10.2-4.34c-8.92,0-13.51,6.89-13.51,13.78S118.35,1011.7,127.27,1011.7Zm0-23c6.12,0,8.67,4.6,8.67,9.19a9.33,9.33,0,0,1-2.3,6.38,8.41,8.41,0,0,1-6.62,2.81c-6.12,0-8.67-4.6-8.67-9.19S121.15,988.73,127.27,988.73Z" transform="translate(11.44 -282.74)"/><path class="cls-2" d="M72.71,1024.46a10.84,10.84,0,0,0,5.1-1.27,11.54,11.54,0,0,0,4.33-2.81,10.67,10.67,0,0,0,2.81-4.6,8.86,8.86,0,0,0,1-5.35v-1a15.38,15.38,0,0,0-1.79-6.89l-2-2.55a15.33,15.33,0,0,0-6.37-3.83l-3.32-.51a11,11,0,0,0-5.86,1.28,11.53,11.53,0,0,0-4.34,2.81,9.83,9.83,0,0,0-2.8,4.34,13.6,13.6,0,0,0-1.28,5.35v1a15.38,15.38,0,0,0,1.79,6.89l2,2.55a15.33,15.33,0,0,0,6.37,3.83l3.32.51A2,2,0,0,0,72.71,1024.46Zm-.77-24h.26l2.8.51a7.72,7.72,0,0,1,3.83,2.3l1.53,2a8.46,8.46,0,0,1,1,4.34v1a7.07,7.07,0,0,1-.77,3.32,7,7,0,0,1-1.78,3.06,5.85,5.85,0,0,1-2.81,1.79,6.09,6.09,0,0,1-3.57.76l-2.8-.51a7.69,7.69,0,0,1-3.83-2.29l-1.53-2a8.4,8.4,0,0,1-1-4.33v-1a7.06,7.06,0,0,1,.77-3.31l.25-.26a6.66,6.66,0,0,1,1.79-2.81,5.72,5.72,0,0,1,2.8-1.78A6.8,6.8,0,0,1,71.94,1000.47Z" transform="translate(11.44 -282.74)"/><path class="cls-2" d="M34.21,1001c8.92,0,13.51-6.89,13.51-13.78a15.17,15.17,0,0,0-3.32-9.44,13.06,13.06,0,0,0-10.19-4.34c-8.93,0-13.52,6.89-13.52,13.78S25.28,1001,34.21,1001Zm0-23c6.11,0,8.66,4.6,8.66,9.19a9.32,9.32,0,0,1-2.29,6.38A8.45,8.45,0,0,1,34,996.39c-6.12,0-8.67-4.59-8.67-9.19S28.09,978,34.21,978Z" transform="translate(11.44 -282.74)"/><path class="cls-2" d="M2.59,952.24c8.92,0,13.51-6.89,13.51-13.78s-4.59-13.78-13.51-13.78-13.52,6.89-13.52,13.78C-10.67,945.09-6.08,952.24,2.59,952.24Zm0-23c6.12,0,8.67,4.6,8.67,9.19A9.33,9.33,0,0,1,9,944.84a8.43,8.43,0,0,1-6.63,2.81c-6.12,0-8.67-4.6-8.67-9.19C-6.08,933.87-3.28,929.27,2.59,929.27Z" transform="translate(11.44 -282.74)"/><path class="cls-2" d="M2.08,900.94c8.92,0,13.51-6.89,13.51-13.78S11,873.38,2.08,873.38s-13.52,6.89-13.52,13.78C-11.18,894.05-6.59,900.94,2.08,900.94Zm0-23c6.12,0,8.67,4.59,8.67,9.18s-2.81,9.19-8.67,9.19c-6.12,0-8.67-4.59-8.67-9.19a9.34,9.34,0,0,1,2.29-6.38A8.31,8.31,0,0,1,2.08,878Z" transform="translate(11.44 -282.74)"/><path class="cls-2" d="M56.9,868c8.92,0,13.51-6.89,13.51-13.78a15.16,15.16,0,0,0-3.31-9.44,13.08,13.08,0,0,0-10.2-4.34c-8.93,0-13.52,6.89-13.52,13.78C43.64,861.13,48.23,868,56.9,868Zm0-23c6.12,0,8.67,4.59,8.67,9.18a9.33,9.33,0,0,1-2.3,6.38,8.43,8.43,0,0,1-6.63,2.81c-6.12,0-8.67-4.59-8.67-9.19C48.23,849.65,50.78,845.06,56.9,845.06Z" transform="translate(11.44 -282.74)"/><path class="cls-2" d="M128.8,873.89c8.93,0,13.52-6.89,13.52-13.78a15.17,15.17,0,0,0-3.32-9.44,13.06,13.06,0,0,0-10.2-4.34c-8.92,0-13.51,6.89-13.51,13.78S119.88,873.89,128.8,873.89Zm0-23c6.12,0,8.67,4.6,8.67,9.19a9.32,9.32,0,0,1-2.29,6.38,8.45,8.45,0,0,1-6.63,2.81c-6.12,0-8.67-4.59-8.67-9.19a9.34,9.34,0,0,1,2.29-6.38A8.48,8.48,0,0,1,128.8,850.92Z" transform="translate(11.44 -282.74)"/><path class="cls-2" d="M154.81,930.29c8.92,0,13.51-6.89,13.51-13.78s-4.59-13.78-13.51-13.78-13.51,6.89-13.51,13.78S146.14,930.29,154.81,930.29Zm0-23c6.12,0,8.67,4.6,8.67,9.19s-2.81,9.19-8.67,9.19c-6.12,0-8.67-4.59-8.67-9.19a9.33,9.33,0,0,1,2.3-6.38A7.54,7.54,0,0,1,154.81,907.32Z" transform="translate(11.44 -282.74)"/><path class="cls-2" d="M160.16,979.8c8.93,0,13.52-6.89,13.52-13.78s-4.59-13.78-13.52-13.78-13.51,6.89-13.51,13.78S151.24,979.8,160.16,979.8Zm0-23c6.12,0,8.67,4.6,8.67,9.19s-2.8,9.19-8.67,9.19c-6.12,0-8.67-4.6-8.67-9.19a9.33,9.33,0,0,1,2.3-6.38A7.55,7.55,0,0,1,160.16,956.83Z" transform="translate(11.44 -282.74)"/></svg>