<?xml version="1.0" encoding="utf-8"?>
<!-- Generator: Adobe Illustrator 25.2.0, SVG Export Plug-In . SVG Version: 6.00 Build 0)  -->
<svg version="1.1" xmlns="http://www.w3.org/2000/svg" xmlns:xlink="http://www.w3.org/1999/xlink" x="0px" y="0px"
	 viewBox="0 0 750 500" style="enable-background:new 0 0 750 500;" xml:space="preserve">
<style type="text/css">
	.st0{opacity:0.43;fill:#92A242;}
	.st1{fill:#FFFFFF;}
	.st2{fill:#C5DBBB;}
	.st3{clip-path:url(#SVGID_2_);fill:#95B374;}
	.st4{opacity:0.2;fill:#95B374;}
	.st5{fill:#BAC9E7;}
	.st6{fill:none;stroke:#598E5F;stroke-width:0.5;stroke-miterlimit:10;stroke-dasharray:2,2;}
	.st7{fill:#32436B;}
	.st8{fill:#BB535D;}
	.st9{fill:none;stroke:#2E4369;stroke-miterlimit:10;}
	.st10{fill:none;stroke:#2E4369;stroke-width:0.5;stroke-miterlimit:10;}
	.st11{fill:#232743;}
	.st12{fill:none;stroke:#232743;stroke-width:0.5;stroke-miterlimit:10;}
	.st13{fill:#9E4350;}
	.st14{fill:#546F5B;}
	.st15{clip-path:url(#SVGID_4_);}
	.st16{fill:none;stroke:#598E5F;stroke-width:0.5;stroke-miterlimit:10;}
	.st17{fill:#FFB299;}
	.st18{fill:#FF7478;}
	.st19{fill:none;stroke:#BB535D;stroke-width:0.5;stroke-miterlimit:10;}
	.st20{fill:none;stroke:#BB535D;stroke-miterlimit:10;}
	.st21{fill:#448E61;}
	.st22{fill:#BDDBBB;}
	.st23{fill:#FF9C6E;}
	.st24{fill:none;stroke:#2E4369;stroke-width:0.5;stroke-linecap:round;stroke-miterlimit:10;}
	.st25{fill:none;stroke:#2E4369;stroke-width:0.7;stroke-miterlimit:10;}
	.st26{fill:#8AB375;}
	.st27{fill:none;stroke:#232743;stroke-miterlimit:10;}
</style>
<g id="BACKGROUND">
</g>
<g id="OBJECTS">
	<g>
		<path class="st0" d="M683.2,301.9c4.1-45.8,2.4-97.2-25.7-145.7c-21.4-37.1-73-80.8-121.9-96.8c-61.8-20.2-119.6,10.7-179.5,16.2
			c-53.6,4.9-108.7-13.6-161.1-3.9c-37.5,7-68.7,28.1-87.8,53.6c-19.1,25.5-27.2,55.1-29.9,84.5c-5.1,56.8,10.1,114.6,42.5,166.1
			c16.2,25.7,39,46,59.3,69.4c20.7,23.8,353,11.7,407.6-1C656.5,428,678.4,355.6,683.2,301.9z"/>
		<g>
			<path class="st1" d="M417.8,133.3c14.4-10.6,33.2-27.2,51.4-37c20.8-11.1,29.2-5.9,22.7,17.2c13.5-7.4,30.6-20.8,46.7-20.9
				c18.7-0.1,9.3,11.4,8.8,23.2c12.1,0.4,24.7-19.8,36.8-7.2c4.7,4.9,1.6,12.2,5.2,17c3.7,4.9,12.9,5.7,16.9,9.9
				c-21.7,10.4-50.4,7.2-74.2,6.1c-19.1-0.9-38.6,0-57.7-1c-11.1-0.6-54.4,2.2-60.2-6.2c2.9-1.7,6.5-4,9.7-4.9"/>
			<path class="st1" d="M503.6,213.6c9.7-7.2,22.4-18.4,34.8-25c14-7.5,19.8-4,15.3,11.6c9.1-5,20.7-14,31.6-14.1
				c12.7-0.1,6.3,7.7,6,15.7c8.2,0.3,16.7-13.4,24.9-4.9c3.2,3.3,1.1,8.3,3.5,11.5c2.5,3.3,8.7,3.9,11.4,6.7
				c-14.7,7-34,4.9-50.1,4.1c-12.9-0.6-26.1,0-39-0.6c-7.5-0.4-36.8,1.5-40.7-4.2c2-1.1,4.4-2.7,6.6-3.3"/>
			<path class="st1" d="M103.2,223.7c12.2-8.1,28.1-20.9,43.6-28.4c17.6-8.5,24.8-4.6,19.2,13.2c11.4-5.7,26-15.9,39.6-16
				c15.9-0.1,7.9,8.7,7.5,17.8c10.3,0.3,20.9-15.2,31.2-5.5c4,3.7,1.3,9.4,4.4,13.1c3.2,3.8,11,4.4,14.3,7.6
				c-18.4,8-42.7,5.5-62.9,4.7c-16.2-0.7-32.7,0-49-0.7c-9.4-0.4-46.1,1.7-51.1-4.7c2.5-1.3,5.5-3.1,8.3-3.8"/>
		</g>
		<g>
			<path class="st2" d="M541.2,232.3c-8.6,81.4-81.5,140.4-162.9,131.8c-81.4-8.6-140.4-81.5-131.8-162.9
				c8.6-81.4,81.5-140.3,162.9-131.7C490.8,78,549.8,150.9,541.2,232.3z"/>
			<g>
				<defs>
					<path id="SVGID_1_" d="M541.2,232.3c-8.6,81.4-81.5,140.4-162.9,131.8c-81.4-8.6-140.4-81.5-131.8-162.9
						c8.6-81.4,81.5-140.4,162.9-131.8C490.8,78,549.8,150.9,541.2,232.3z"/>
				</defs>
				<clipPath id="SVGID_2_">
					<use xlink:href="#SVGID_1_"  style="overflow:visible;"/>
				</clipPath>
				<path class="st3" d="M434.5,68.6l-5-0.5l0.8-1.4l-2.9,0.2l1.6-1l-1-0.1c-0.6,0-1.2-0.2-1.8-0.3c-2-0.4-4.2-0.8-6.4,1.2l0.7-2.9
					l-3.5,1.3c0.4-0.7,0.5-1.3,0.4-1.8c-0.2-0.7-1-1-2.1-1c-0.8,0-1.7,0.4-2.5,0.8c-0.2,0.1-0.5,0.2-0.7,0.3
					c-0.4,0.2-0.8,0.5-1.2,0.7c-0.1,0.1-0.2,0.1-0.3,0.2l-0.1-0.1l2.6-2.9l-0.3-0.2c-1.9-1.3-3.6-1.7-4.9-1.2c-0.9,0.3-1.6,1-2.1,2
					l-0.9-2.1l-0.3,0.3c-0.2,0.3-0.4,0.5-0.6,0.7c-0.4,0.5-0.8,0.9-1.1,1.4c-1.2,1.8-2.7,1.7-4.3,1.7c-0.4,0-0.7,0-1.1,0l-0.1,0
					c0,0-0.1,0-0.1,0c-0.2-0.7-0.5-1.2-0.9-1.4c-0.7-0.3-1.5,0.2-2,0.6c-0.1,0.1-0.3,0.2-0.4,0.3c-1,0.5-1.7,0.2-2.6-0.1
					c-0.4-0.1-0.8-0.3-1.2-0.3c-0.6-0.1-1.2,0-1.8,0c-0.2,0-0.4,0-0.6,0.1c-0.1-0.1-0.2-0.2-0.3-0.3c-0.4-0.4-0.8-0.9-1.3-0.9
					c-0.6,0-1.2,0.4-1.7,0.7c-0.1,0-0.1,0.1-0.2,0.1c0-0.4-0.2-0.7-0.4-0.9c-0.6-0.7-1.8-0.5-2.6-0.3c-1.9,0.4-3.7,1.1-5.5,1.8
					l-0.7,0.3c-0.5,0.2-1.2,0.6-1.5,1.2c-0.4,0.6-0.6,1.4-0.9,2.1c-0.1,0.2-0.1,0.4-0.2,0.5l-0.2-0.1l-0.2-0.6l-0.2-0.7l-0.3,0.1
					c0,0,0,0,0,0l-7.7,2l-0.1,0.1c-0.3,0.6-0.4,1.2-0.4,1.7c-0.1-0.1-0.2-0.2-0.2-0.2c-0.1-0.2-0.4,0.1-0.3,0.2
					c2.2,2.8,5.1,4,8.2,5.6c1.5,0.7,3,1.5,4,2.9c0.6,0.8,0.6,1.6,0.2,2.5c-0.6,1.3-2.1,0.8-3.1,1.3c-0.6,0.2-1.4,1.4-0.9,2
					c0.4,0.6,1.8,1.2,1,2.2c-0.5,0.7-1.5,1-2.2,1.6c-1,0.8-1.3,1.9-1,3.1c0.5,1.6-0.1,2.6-0.4,4.1c-0.2,0.9,0.1,1.9,0.4,2.7
					c1.1,3.5,4.1,7.8,7.7,8.8c1.5,0.4,2.9-0.5,3.9-1.4c2.1-1.8,4.1-3.7,6.4-5.4c4.6-3.2,10.1-6.3,15.5-7.8c3.1-0.9,6-0.6,9.1,0
					c2.1,0.4,4,0.3,5.8-0.9c1.7-1.2,3.6-3.3,3.8-5.5c0.1-0.7-0.1-1.4-0.4-2c-0.9-1.7,1-2.3,2.3-3c2-1.1,4.3-2.2,5.1-4.6
					c0.4-1.3,0.9-2.6,1.4-3.9c0.2-0.5,0.5-1.1,0.6-1.7c0.8,0,1.5,0,2.3-0.1c0.5,0,1.1,0,1.7,0l0.3,0L434.5,68.6z"/>
				<path class="st3" d="M741.6,150.5c-0.5-0.3-0.9-0.6-1.4-0.9c-1.2-0.7-2.4-1.5-3.7-2c-6.2-2.2-12.9-4.5-20.5-7
					c-2.1-0.7-4.2-1.2-6.3-1.7c-0.9-0.2-1.9-0.4-2.8-0.7l-0.4-0.1l0.1,2.4c0,0-0.1,0-0.1,0c-0.4-0.1-0.7-0.1-1.1-0.2
					c-0.8-0.2-1.6-0.5-2.4-0.8c-1.8-0.6-3.6-1.3-5.4-1.2c-3.5,0.1-6.1-0.6-8.5-2.3c-0.8-0.6-1.5-0.9-2.1-1c-2-0.2-4-0.4-6-0.6
					c-1.7-0.2-3.4-0.3-5.1-0.5c-0.2,0-0.5-0.2-0.7-0.4c-0.2-0.1-0.4-0.3-0.6-0.4c-0.6-0.3-1.2-0.5-1.8-0.8c-2-0.9-4.1-1.7-6.2-2.5
					c-1.5-0.5-3.1-0.8-4.4-0.9c-0.6-0.1-1.7,0.1-2.1,0.8c-1.4,2.5-1.5,2.5-3.7,1.9c-0.3-0.1-0.6-0.2-0.9-0.3
					c-1.2-0.4-2.3-0.8-3.2-0.3c-3,1.9-4.9-0.2-6.6-2c-2.7-2.9-5.8-3.9-10.1-3.3c-1.4,0.2-2.9,0.1-4.2-0.4c-0.3-0.1-0.5-0.2-0.8-0.3
					c-1.7-0.6-3.4-1.2-5.4-0.3c-0.2,0.1-0.6,0-0.8-0.2c-2.7-2-5.6-1.6-8.3-0.9c-0.3,0.1-0.7,0-1.1-0.2c-0.1,0-0.3-0.1-0.4-0.1l0-0.2
					l5.2-3l-0.4-0.3c-0.3-0.2-0.6-0.5-0.8-0.8c-0.6-0.6-1.1-1.1-1.7-1.2c-2.8-0.6-5.6-1-8.5-1.4c-0.9-0.1-1.9-0.3-2.8-0.4l0.6-2.2
					l-4.3,1.7c-0.4,0.2-0.8,0.4-1.2,0.6c-0.8,0.4-1.6,0.8-2.4,0.9c-2.5,0.1-4.9,0-7.5-0.1c-1,0-2.1-0.1-3.1-0.1l-0.4,0l0.1,0.5
					c0.4,1.2,0.4,2.1,0.1,2.5c-0.2,0.3-0.6,0.4-1.2,0.4c-1.1-0.1-2.1-0.2-3.2-0.3l-1.6-0.2l-0.4,1.2l2.9,2.8l0,0l-5.5-2.1l0.2,0.9
					l-2.1,0.8l1.3,0.7c0.4,0.2,0.8,0.4,1.2,0.7c0.3,0.1,0.5,0.3,0.8,0.4c-0.4-0.1-0.8-0.2-1.1-0.3c-1.8-0.4-3.4-0.8-3.3-3.8l0-0.9
					l-3.1,3.8l0.3,0.2c0.5,0.4,1,0.8,1.5,1.2c1.1,1,2.2,1.9,3.4,2.2c2.1,0.5,3.6,1.1,4.2,2.9c0,0,0-0.1-0.1-0.1
					c-0.3-0.5-0.7-1.1-1.2-1.5c-0.6-0.5-1.4-0.6-2.1-0.7c-0.3,0-0.6-0.1-0.9-0.2l-0.7-0.2l0.7,1.5c-0.1,0.4-0.2,0.8-0.3,1.1
					c-0.2,0.9-0.4,1.8-0.8,2.3c-0.7,0.8-1.5,1-2,1c-0.7,0-1.3-0.3-1.8-0.8c0.1-0.1,0.3-0.2,0.4-0.3c0.7-0.4,1.3-0.9,1.7-1.6
					c0.4-0.7-0.1-2.2-0.4-3c-0.3-0.8-0.7-1.5-1.1-2.2c-0.6-1.2-1.3-2.4-1.6-3.6c-0.4-1.4-0.8-2.1-2.1-2.1c-0.8,0-1.6-0.1-2.6-0.2
					c-0.5,0-0.9-0.1-1.5-0.2l-0.3,0l0.1,6.1l4.1,2.4c-1.5,1.3-2.5,0.5-3.6-0.3c-0.6-0.4-1.2-0.9-1.9-1c-1.5-0.2-3-0.8-4.4-1.4
					c-0.6-0.2-1.1-0.4-1.6-0.6l-0.2-0.1l-0.1,0.2c-0.2,0.3-0.4,0.7-0.5,1.1c-0.1,0.3-0.3,0.6-0.4,0.8c-1.2-0.5-2.5-0.3-3.7,0
					c-1.6,0.3-3.2,0.7-4.5-0.8c-0.4-0.5-1.5-0.2-1.8-0.1c-0.8,0.3-1.6,0.6-2.3,0.9c-1.3,0.5-2.7,1-4,1.4c-0.6,0.2-1.8-0.3-2-0.8
					l-0.2-0.5c-0.7-1.6-0.9-1.7-2.5-1.5l-0.4,0l1.4,4.9c-1.9-1-3.2-1.1-4.1-0.5c-0.7,0.5-1.2,1.4-1.4,2.8l-4.2-1.6l-0.3,0.9l1.5,1.4
					c-0.8,0.2-1.8,0.1-2.7-0.3c-0.8-0.4-1.3-1-1.6-1.6c-0.5-1.7-1.5-2.7-2.5-3.6c-0.2-0.2-0.3-0.3-0.5-0.5c-0.1-0.1-0.1-0.2-0.2-0.3
					c0.3,0.2,0.6,0.3,0.9,0.5c1.1,0.6,2.1,1.1,3.1,1.6c0.2,0.1,0.4,0.2,0.6,0.3c1.5,0.7,3.2,1.5,5,0.1c0.3-0.3,0.6-0.6,0.9-0.9
					c0.1-0.1,0.2-0.3,0.4-0.4l0.2-0.2l-0.2-0.3c-0.1-0.1-0.2-0.3-0.3-0.5c-0.3-0.4-0.5-0.8-0.9-1c-0.4-0.2-0.8-0.5-1.2-0.7
					c-1.8-1-3.7-2.1-5.6-2.8c-0.5-0.2-1-0.2-1.5-0.3c-1-0.1-2-0.2-2.8-1.4c-0.4-0.6-0.8-0.9-1.3-1c-0.8-0.1-1.5,0.5-2.1,1.2
					l-0.5-1.6l-3.6-0.3c-0.2-0.1-0.3,0.1-0.5,0.5l0,0.1l-0.6-1l-1.2,1.4l0.2-0.9l-0.2-0.1c-0.7-0.6-1.3,0.2-1.7,0.8
					c-0.2,0.3-0.5,0.7-0.7,0.7c-0.1,0-0.3-0.1-0.7-0.7l-0.2-0.3l-2.4,1.8l-1.4-0.9l-14.9,11.7l0.7,0c-2.7,0.2-5.6,0.9-8.3,3
					l-0.5,0.4l1.8,0.7l-2.2,0.5l0.4,1.4l2.3-0.7l-3.6,1.9l1.1,0.1c0.7,0.1,1,0.7,1.3,1.3c0.5,0.9,1.1,2.1,2.8,1.4
					c0.5-0.2,1-0.3,1.5-0.4c1.3-0.3,2.8-0.7,3.4-2.5l0.8,1.1c-0.2,0.2-0.3,0.5-0.2,0.7c0.7,2.4,1.4,4.9,2.2,7.4
					c0.1,0.4,0.6,0.7,0.9,0.8c0.2,0.1,0.4,0.1,0.5,0l0.6-0.5c1.1-0.9,2.3-1.8,3.2-2.9c0.8-1,1.5-2.1,2.1-3.2
					c0.3-0.5,0.5-0.9,0.8-1.4l0.2-0.4l-1.5-0.7l2.8,0.4l-0.1-0.5c-0.1-0.5-0.3-0.8-0.4-0.9c0,0-0.1-0.1-0.1-0.1
					c-0.2-0.3-0.4-0.6-0.7-0.9c-0.6-0.7-1.1-1.5-1.2-2.3c0-0.2,0.8-0.8,1.2-1.1c0.4-0.3,0.8-0.6,1.2-1c2-2,4.4-4.4,6.7-6.9
					c0.1-0.1,0.2-0.3,0.2-0.5l1.8,3.3c-0.4,0.4-0.8,0.7-1.2,1.1c-0.9,0.9-1.8,1.7-2.6,2.4c-0.8,0.7-1.3,1.6-1.3,2.7
					c0,1,0.4,1.9,1.1,2.6c1.5,1.3,3.2,2.5,5.6,1.7c0.8-0.3,1.6-0.2,2.5-0.2c0.4,0,0.7,0,1.1,0l0.7,0.9c-0.1,0.3-0.1,0.7-0.1,1
					c-0.1,0.8-0.2,1.5-0.4,2.1c0,0.1-0.1,0.3-0.3,0.5l-0.1-2.9l-6.5-0.6l-0.5,1.3l2.3,2.4l-1.6,2.1l-1.7-2.2l-0.2,0.1
					c-1,0.5-1.6,1-1.8,1.7c-0.2,0.5-0.2,1.1,0.1,1.8c-0.4,0.5-0.8,1.2-0.6,1.8c0.2,0.4,0.6,0.6,1.3,0.6c1.4,0,1.8,0.8,1.9,2
					c-0.3,0-0.5-0.1-0.8-0.1c-0.9-0.1-1.8-0.3-2.7-0.2c-1,0.1-2-0.1-3.1-0.4c-1.6-0.4-3.2-0.7-4.8,0.1c-0.6,0.3-1.2,0.5-1.9,0.7
					c-0.2,0.1-0.4,0.1-0.7,0.2c-0.3-0.5-0.6-0.9-0.9-1.2c-1.2-1.5-3-2.4-5-2.8c-1.2-0.3-2.4-0.4-3.5,0.3c-0.4,0.3-0.6,0.7-0.9,1.1
					c-0.7,1-1.8,0.9-2.9,0.8c-2.8-0.2-5.5,3.1-6.9,5.3c-0.9,1.4-2.1,1.7-3.4,0.8c-0.5-0.3-1.1-0.7-1.7-0.7c-1.5-0.1-3.1,0.1-4.3,1
					c-0.2,0.2-0.3,0.5-0.1,0.7c1.2,1.3-1.1,0.7-1.5,0.6c-0.7-0.2-1.4-0.3-2.2-0.4c-0.9-0.1-1.7,0.1-2.3,0.7c-1.4,1.3,0.2,5,1.3,6
					c1.3,1.3,2.9,1.8,3.1,3.9c0.2,1.9-0.7,2.3-2.3,1.8c-2-0.7-3.6-1.9-5.8-1.8c-2,0.1-5.4,1.5-5.6,3.8c-0.1,0.8,0.6,1.5,1.1,2.1
					c1.2,1.5,0.1,3.8,0.3,5.6c0.2,2-1,3.6-1.9,5.3c-0.5,1-0.7,2,0,2.9c1.4,2,3.3,0.1,4.7-0.8c0.2,0.7,0.4,1.5,1.1,1.8
					c1.3,0.6,3.2,0.7,4.7,0.7c1.6,0,3.2-0.5,4.6-1.2c1.5-0.8,3.4-1.6,4.6-2.8c1.4-1.4,1.5-3.6,3.1-4.8c1.2-0.9,2.6-1,3.5-2.3
					c1.1-1.5-1.6-2-2.2-3c0,0,0,0,0-0.1c1.2-2.1,2.4-1.7,4.2-0.9c1,0.4,2.2,0.3,3-0.1c0.4-0.2,0.4-0.9,0.5-1.8c0-0.1,0-0.3,0-0.4
					c0.1,0.1,0.2,0.1,0.4,0.2c0.6,0.3,1.2,0.6,1.8,0.5c0.3-0.1,0.5-0.1,0.7-0.1c0.6,2,0.7,4,1.1,6c0.3,1.7,1.3,2.7,2.9,3.4
					c2.5,1,4.5,2.5,4.8,5.4c0.1,1.2,0.1,2.5,0.2,3.7c0.1,1.9,1.2,2.6,2.6,1.1c0.9-0.9,1.2-2,1.5-3.2c0.3-1.4,0.5-4.7,2.5-4.4
					c0.2,0,0.4-0.1,0.5-0.3c0.6-2.5-2-4.9-3.5-6.6c-1-1-2-1.9-2.9-2.9c-1.2-1.2-2.7-2.1-3.2-3.6l1.7-0.3l0.5,0.4l-0.9,0.9l0.4,0.2
					c0.3,0.2,0.6,0.3,1,0.5c0.5,0.3,1.2,0.6,1.3,0.9c0.4,2,1.7,2.3,2.8,2.6c0.2,0,0.3,0.1,0.5,0.1l3.1,1.3l0.5,0.7l0,0
					c0,0.3-0.1,0.5-0.1,0.8c-0.3,2.3-0.6,4.8,1.3,6.7l2.1,3.2l-1.3,0.2l3.7,4.7l0.4-4.3l1.3,0.7l0.7-1.2l-2-1.9l-0.5-3.5l0.1,0
					l2.3,2.7l-0.2-3.3l4.1,0.8l0,0.3l-0.1,0.2c-0.3,1-0.7,2.2,0.6,3.2c0.1,0.1,0,0.6,0,1c0,0.4,0,0.8,0,1.4l0,0.1l0.1,0.1
					c0.2,0.3,0.4,0.7,0.6,1.1c0.7,1.4,1.6,3.1,3.4,3.7c0.2,0.1,1.4,0.4,1.8-0.1c0.9-1.2,1.6-0.8,2.5-0.2c0.2,0.1,0.4,0.3,0.6,0.4
					c0.1,0.1,0.3,0.2,0.4,0.2c0.8,0.4,1.5,0.9,2.3,0.8c1-0.1,1.9-0.4,3-0.8c0.3-0.1,0.6-0.2,0.9-0.3l0.1,5c0,0.2,0,0.4,0,0.6
					c0,0.4,0,0.9,0,1.3c-0.1,0.8-0.2,1.5-0.2,2.3c0,0.3-0.1,0.6-0.1,0.9l-0.8,2.3c0-0.8,0.1-1.5,0.1-2.3l0-0.7l-0.8-0.3l-2,4.1
					c-0.5-0.1-1-0.3-1.4-0.4c-1.3-0.4-2.5-0.8-3.7-0.6c-2.5,0.6-4.7-0.1-7.1-0.7l-0.3-0.1c-0.8-0.2-1.7-0.2-2.5-0.2
					c-0.3,0-0.6,0-0.9,0c-0.9-2.6-3.1-3.4-4.9-4.1l-0.4-0.2c-0.9-0.4-1.6-0.4-2.1,0c-0.7,0.5-1,1.5-1.2,3c-0.2,1-1.6,2.5-1.9,2.5
					l-0.5-0.1c-1.9-0.6-4.3-1.3-5.1-2.8c-1.3-2.6-3.2-3.4-5-4.1c-0.5-0.2-0.9-0.4-1.4-0.6l-0.2-0.1l-1.1,1.3l-1.2-4.5l1.3-1.7
					l-1.3-2.1l1.7-1.7l-0.3-0.3c-1.5-1.2-3.3-2.3-5.1-0.1c-0.1-0.2-0.3-0.4-0.5-0.4c-0.7,0-1.4,0-2,0c-1.3,0-2.6,0.1-3.7-0.3
					c-3.7-1-7.3-0.1-11.4,2.9c-0.2-0.1-0.5-0.2-0.7-0.3c-1-0.4-2-0.7-3-1.1c-1.3-0.5-1.7-1-2.7-0.8l0,0l0,0
					c-0.2,0.1-0.4,0.1-0.6,0.2c-1.3,0.6-2.3,1.8-3.6,2.6c-1.3,0.7-2.6,1.3-3.8,2.2c-2,1.7-2.3,3.6-2.4,5.8c-0.5,1.7-1.7,2.5-3.4,3.2
					c-1.4,0.6-2.5,1.1-3.7,2c-1.1,0.8-2.4,1-3.4,2c-0.9,0.9-0.6,2.5-0.8,3.6c-0.2,1.7-2.2,3.1-3.4,4.3c-1.1,1.2-2.1,2.7-2.9,4.1
					c-1.4,2.6-0.5,4.9,0.5,7.5c0.7,1.8,0.7,3.4-0.3,5.1c-0.7,1.1-1.9,2.4-1.8,3.9c0.1,1.1,0.5,1.7,1.3,2.4c1.6,1.4-0.9,2.6-1.3,3.9
					c-0.6,2.4,1.4,3.7,3.3,4.6c1.1,0.5,2.1,1,3.1,1.7l1,2.1c-0.7,2.9,0.8,4.5,2.3,5.7c1.4,2.8,3.2,5.8,6.9,6c0.2,0,0.4,0.1,0.6,0.1
					c0.5,0.1,1,0.2,1.5,0.1c1.6-0.2,3.2-0.5,4.8-0.8c0.6-0.1,1.2-0.2,1.8-0.3c0,0,0.1,0,0.1,0c0.1,0,0.1,0,0.2,0l0.7,1.4l0.2-0.1
					c0.4-0.1,0.9-0.2,1.3-0.3c1.1-0.2,2.2-0.5,3.2-1c0.5-0.2,0.9-0.9,1.2-1.5c0.1-0.1,0.1-0.3,0.2-0.4l1.1,1.4l0.2-0.3
					c0.1-0.1,0.1-0.2,0.2-0.2c0.1-0.2,0.3-0.4,0.4-0.6c0.1-0.2,0.1-0.3,0.1-0.5c0.4,0.4,0.8,0.6,1.2,0.5c0.4-0.2,0.7-0.7,0.8-1.9
					c0.1-0.5,0.2-1,0.3-1.4l-0.2,2.6l0.7,0.3c2.3,0.9,4.4,1.8,4.3,5.3l0,0.4l4.7,0.1c1.7,1.7,2.6,3.7,2.7,5.9c-0.7,0.5-1,1-1.1,1.6
					c-0.1,0.5,0.1,1.1,0.5,1.6c-0.4,1.5-0.9,2.7-2.1,3.3l-0.1,0.1l0,0.2c-0.1,0.2,0,0.7,0.2,1c1,1.7,1.9,3.3,2.9,5l0.9,1.6
					c0.1,0.3,0.2,0.7,0.3,1c0.3,1.1,0.6,2.3,1.8,2.6c0,0-0.1,0.1-0.1,0.1c-0.3,0.5-0.7,1-0.6,1.6c0.1,0.3,0.3,0.6,0.8,0.8
					c-0.3,0.3-0.5,0.7-0.6,1.1c-0.1,0.5,0,1,0.4,1.6c0.9,1.4,1,2.5,0.3,3.6c-0.3,0.5-0.2,1.5,0,2.1c1.3,3.3-0.1,5.7-1.7,8.5
					l-0.2,0.3c-0.9,1.7-1.5,3.5-2.2,5.5c-0.3,0.9-0.6,1.8-0.9,2.7l-0.2,0.4l1.7,0.3c-0.4,0.3-0.7,0.7-0.8,1.2
					c-0.2,0.7-0.1,1.6,0.5,2.8c0.6,1.2,1,2.4,1.4,3.7l0.1,0.2c1.7,5,1.7,10.5,1.7,15.7c0,1.5,0.2,3.2,1.9,3.9
					c-0.2,0.3-0.3,0.5-0.2,0.8c0.3,0.8,0.6,1.5,0.9,2.2c0.5,1.2,0.9,2.3,1.3,3.6c0.3,1.1,0.4,2.5,0.3,3.6c-0.2,1.4,0.1,2.7,0.8,3.6
					c0.5,0.7,1.3,1.1,2.1,1.1c0.3,0,0.6,0,0.9,0c0.4-0.1,0.8-0.1,1.2-0.2c2.1-0.4,4.1-0.8,6,0.5c0.3,0.2,0.9,0.3,1.3,0
					c0.8-0.5,1.6-1,2.3-1.5c2.1-1.3,4.2-2.7,6.1-4.4c1.8-1.6,3.4-3.5,5-5.6c0.7-0.9,1.5-1.8,2.3-2.8l0.3-0.3l-2.4-1.9
					c0,0,0.1,0,0.1,0c0.7-0.2,1.4-0.3,1.6-0.9c0.6-1.8,1.8-2.5,3.3-3.1c3.3-1.4,4.2-3.5,3-7.5c-0.6-2.2-0.5-2.6-0.4-2.7
					c1.9-2.4,4.1-4.7,6.5-6.9c0.7-0.7,1.5-1.2,2.3-1.8c1.1-0.7,2.1-1.4,3-2.4c1.8-2,1.5-4.4,1.3-6.8c-0.1-1.3-0.2-2.7,0-4l0-0.1
					l0-0.1c-0.1-0.4-0.3-0.9-0.5-1.3c-0.4-0.9-0.7-1.8-0.8-2.6c0-2.6,0.1-5.2,0.2-7.7c0-1,0.1-2,0.1-2.9c0.3-0.3,0.5-0.7,0.8-1
					c0.6-0.8,1.2-1.7,1.8-2.4c0.7-0.9,1.5-1.9,2.2-2.8c0.3-0.4,0.6-0.7,0.9-1.1c0.1,0,0.2-0.1,0.3-0.1c0.3-0.1,0.6-0.3,0.8-0.5
					c0.7-0.7,1.4-1.5,2.1-2.2c1.1-1.1,2.2-2.3,3.4-3.4c0.6-0.6,1.4-1.2,2.1-1.7c1.2-0.9,2.5-1.9,3.4-3.2c2.5-3.7,4.7-7.8,6.9-12
					c0.6-1.2,1-2.5,1.4-4c0.2-0.6,0.4-1.3,0.6-2l0.2-0.6l-0.5,0.1c-0.8,0.2-1.6,0.4-2.3,0.6c-1.5,0.4-2.9,0.7-4.2,0.9
					c-0.6,0.1-1.2,0.2-1.8,0.4c-2.5,0.6-4.9,1.1-6.6-2.1c-0.2-0.3-0.6-0.3-1.1-0.2c-0.1,0-0.1,0-0.2,0l-0.1-1.2l1-0.9l-0.1-0.2
					c-0.2-0.5-0.4-0.9-0.6-1.4c-0.4-1.1-0.9-2.2-1.5-3.1c-0.5-0.6-1-1.2-1.5-1.7c-1.4-1.6-2.8-3.1-2.7-5.7c0-0.5-0.4-0.8-0.8-1.2
					c-0.1-0.1-0.3-0.2-0.4-0.3l-0.7-2.2c-0.1-0.4-0.3-0.9-0.5-1.3c-0.4-0.9-0.7-1.7-0.8-2.6l0-0.3c-0.2-3.5-0.3-4.1-2.7-4.4l1.6-0.7
					l-6.1-17.1l3,4.8l0.6-3.1l0.1,0.2c0.3,0.6,0.5,1.2,0.8,1.8c0.6,1.4,1.2,2.8,1.9,4.2c0.5,1,1.1,2,1.7,3c1.2,2,2.4,4,2.7,6.1
					c0.4,3.1,1.7,5.5,2.9,7.9c0.8,1.5,1.6,3,2.2,4.6c0.2,0.6,0.8,1,1.4,1.4c0.2,0.1,0.3,0.2,0.5,0.3c-1.1,3.2-0.4,6.2,0.4,8.7
					c0.4,1.2,0.8,2.1,2.4,1.6c1-0.4,2.1-0.7,3.2-1c4.5-1.3,9.1-2.7,12.5-7.1c1.7,0.4,3-0.5,4.3-1.4c0.6-0.4,1.2-0.8,1.8-1.1
					c0.8-0.3,1.3-1.2,1.9-2.1c0.2-0.3,0.4-0.6,0.6-0.9c0.2-0.3,0.4-0.6,0.6-0.9c0.3-0.5,0.5-1,0.9-1.3c1.5-1.3,2.3-2.7,2.3-3.9
					c0-1-0.4-2-1.3-2.9c-1-0.9-2-1.7-3.1-2.4c-0.4-0.3-0.8-0.6-1.3-0.9l0.2-2.1l-0.4,0.1c-0.2,0.1-0.3,0.1-0.5,0.1
					c-0.5,0.1-0.9,0.2-1.3,0.6c-1.7,2-3.5,2.5-5.4,1.7c-0.2-0.1-0.3,0.1-0.5,0.3l-0.7-1.2c-0.8-1.4-1.6-2.8-2.4-4.2
					c-0.2-0.3-0.3-0.6-0.4-0.9c-0.2-0.5-0.4-0.9-0.6-1.3c-1-1.5-2.1-2.9-3.1-4.4c-0.3-0.5-0.7-0.9-1-1.4l0.1-0.1
					c0.3-0.3,0.6-0.6,0.8-0.9c0.2-0.2,0.4-0.5,0.6-0.7l0.2-0.2c0.3,0,0.5,0,0.8,0c0.7,0,1.3,0,1.9,0.2c1.4,0.4,1.8,1.8,2.2,3.2
					c0.1,0.3,0.2,0.6,0.3,0.9c0.8,2.5,5.3,5.8,7.5,4.8c1.9-0.8,2.9,0.1,3.9,2.1c0.9,1.7,5.1,3.6,6.8,2.8c0.4-0.2,0.7-0.6,0.9-1
					c0-0.1,0.1-0.1,0.1-0.2c1.7,1.9,3.8,2.5,5.8,1.7c1.6-0.6,2.6-0.1,3.7,1.1c0.4,0.4,0.6,0.9,0.9,1.4c0.3,0.5,0.6,1.1,1,1.5
					c0.8,0.8,1.7,1.6,2.6,2.2c0.2,0.2,0.5,0.4,0.7,0.6l-1.4,0.8l0.1,0.3c0.5,2.4,1.7,3.7,3.3,3.5c0.8-0.1,1.6-0.7,2.3-1.3
					c0.2-0.2,0.4-0.4,0.7-0.5c0,0.1,0.1,0.1,0.1,0.2c0.2,0.6,0.5,1.4,0.4,1.9c-1.1,3.8-0.1,7.2,0.9,10.4l0.3,1
					c0.8,2.7,1.5,5.5,2.2,8.2c0.7,2.5,1.3,5.1,2.1,7.7c0.3,0.9,0.7,1.8,1.2,2.7c0.2,0.5,0.5,0.9,0.7,1.4l0.2,0.5l4.7-6.2
					c0.3-0.4,0.3-1,0.3-1.7c0-0.6,0-1.2,0.1-1.7c0.8-2.5,1.3-4.5,0.6-6.9c0-0.1,0.2-0.7,0.4-0.9l0.6-0.5c1.9-1.8,3.8-3.7,5.8-5.5
					c1.2-1,2.4-1.9,3.6-2.9c0.7-0.5,1.3-1,2-1.5c0.2-0.2,0.5-0.6,0.4-1c-0.1-0.8,0-1.4,0.3-1.8c0.4-0.6,1.2-0.7,2-0.8
					c0.3,0,0.5-0.1,0.8-0.1c0.3-0.1,0.6-0.1,0.9-0.1c0.9-0.1,1.7-0.2,2.2-0.8c0.5-0.6,0.9-0.9,1.1-0.8c0.3,0,0.6,0.6,0.9,1.2
					l0.1,0.3c0.6,1.2,1.2,2.3,1.8,3.5c0.8,1.5,1.6,3,2.3,4.5c0.6,1.4,1.1,3,1.6,4.5c0.2,0.6,0.3,1.2,0.5,1.7
					c0.1,0.4,0.2,0.9,0.3,1.2c0,0.1,0.1,0.2,0.1,0.3l0.1,0.3l3.9-1.5c0.2,1.3,0.6,2.7,1,4.2c0.9,3,1.9,6.3,1.1,10.1l0,0.1l0,0.1
					c0,0.1,0.1,0.1,0.1,0.1c-0.1,0.4-0.3,0.9-0.4,1.3c-0.5,1.3-0.9,2.6-0.6,3.7c0.5,1.6,1.6,2.8,2.6,4.1c0.4,0.5,0.8,1,1.2,1.5
					c-0.4,3.5,0.6,7.7,2.5,10c1,1.2,2.1,1.9,3.3,2c0.2,0,0.5,0,0.7,0l0.4,0l-0.1-0.4c-0.2-0.5-0.4-1.1-0.6-1.6
					c-0.4-1.1-0.9-2.1-0.7-2.9c0.7-2.9-0.2-4.6-1.9-6.3c-0.4-1-1.1-1.6-1.8-2.2c-0.9-0.7-1.7-1.4-1.8-2.8c-0.1-1-0.4-2-0.7-3
					c-0.3-1-0.6-2-0.7-3c0-1.3,0.4-2.8,0.9-4.2c0.1-0.4,0.2-0.8,0.4-1.2c0.1-0.4,0.3-0.7,0.6-1l0,0.2l4.5,3.1l2,4.5l2.1-0.6
					l-0.4,4.7l0.5-0.4c0.7-0.5,1.4-0.9,2-1.4c1.7-1.2,3.3-2.2,4.8-3.5c0.7-0.6,1.3-2,1.3-3c-0.2-5.2-1.4-9-3.8-11.9
					c-2.3-2.7-3.1-4.3-3-5.7c0.1-1.3,1.1-2.6,3.2-4.4c1.2-0.4,2.1-0.4,2.8,0.1c0.9,0.6,1.5,1.8,1.9,3.7l0.1,0.5l-2.7,1.4l1.3,3.6
					l2.6-4l-0.5-1.3L663,249l0-0.3c0.5-3,2.1-3.7,4.7-4c2.7-0.2,5.7-0.8,8.4-3.4c2-2,2.9-4.6,3.7-7.2c0.3-1,0.6-1.9,1-2.9
					c0.6-1.3,1-2.6,0.6-3.7c-0.3-0.7-0.9-1.2-1.9-1.5c0,0,0,0,0-0.1c0.7-0.4,1-0.9,1.1-1.4c0.1-0.8-0.5-1.5-1.1-2.2
					c-0.6-0.7-1.2-1.6-1.7-2.4c-0.2-0.4-0.4-0.7-0.6-1.1c-0.2-0.3-0.4-0.6-0.5-0.8c-0.5-0.8-1.1-1.6-1.5-2.5
					c-0.3-0.6-0.5-1.6-0.3-1.8c0.8-1.1,1.7-2.1,2.6-3.1c0.3-0.4,0.7-0.8,1-1.2l0.3-0.4l-0.4-0.2c-0.3-0.1-0.5-0.3-0.8-0.4
					c-1.1-0.6-2.4-1.4-3.9,0.4l-4.4-4.1c0.3-0.2,0.7-0.5,1-0.7c0.8-0.6,1.5-1.1,2.1-1.6c0.6-0.5,1.2-1,1.8-1.5
					c0.2-0.1,0.3-0.3,0.5-0.4c0.1,0.2,0.2,0.4,0.3,0.6c0.3,0.7,0.7,1.4,1,2.2c0.2,0.5,0.3,1.1,0.4,1.5c0,0.1,0.1,0.3,0.1,0.3
					l0.1,0.4l4-2.1c0.2,0.5,0.6,0.8,1,1.1c0.8,0.7,1.4,1.1,0.7,2.5l-0.1,0.2l0.1,0.2c0.1,0.3,0.6,0.8,0.9,0.9
					c0.5,0.2,1.1,0.4,1.7,0.6c0.2,0.1,0.4,0.1,0.5,0.2c0.2,0.5,0.3,0.9,0.5,1.4c0.4,1.1,0.8,2.2,1.2,3.3c0.6,1.8,1,2.7,1.7,3
					c0.7,0.3,1.6-0.2,3-1.2c0.5-0.3,1.1-1.4,0.9-2c-0.9-2.5-2.1-5.2-4.9-6.1l-1.8-2.9c0.1-0.1,0.3-0.1,0.4-0.2
					c0.5-0.3,1-0.5,1.4-0.9c0.4-0.4,1.1-1.4,1.1-1.7l0-0.2l-0.1-0.1c-0.7-0.8-0.4-1.3,0-2.1c0.2-0.4,0.4-0.8,0.5-1.2
					c0.8-1.5,1.7-1.8,3.1-0.9c0.7,0.4,2.3-0.3,2.8-1.1c2.2-3.8,3.2-8.1,2.9-12.8c-0.1-1.2-0.3-2.3-0.7-3.1c-0.3-0.7-0.7-1.4-1.1-2
					c-0.4-0.7-0.9-1.4-1.2-2.2c-1.4-3.4-4.3-5.3-7.2-4.8l-0.5-1.9l-1.2,1.3l-0.9-2l-2.3-0.2c0.2-0.5,0.4-0.9,0.5-1.4
					c0.5-1.2,0.9-2.3,1.3-3.5c1.1-3.3,3.7-4.9,6.7-3.9c0.7,0.2,1.4,0.2,2.1,0.2c0.4,0,0.9,0,1.3,0.1c1.7,0.2,3.1,0.5,4.5,0.8
					c0,0.1,0.1,0.4,0.1,0.6c0,0.3,0.1,0.6,0.1,0.9l0.1,0.4l4.8-2.5l-1.1-0.6c0.1-0.3,0.1-0.6,0.2-1c0.1-1,0.3-1.9,0.7-2.5
					c0.2-0.3,1.5-0.5,2.3-0.2c0.5,0.2,1,0.5,1.6,0.9c0.5,0.3,1,0.6,1.5,0.9c0.6,0.2,1.5-0.2,1.9-0.8c0.4-0.5,0.6-1.2,0.9-1.8
					c0.1-0.2,0.1-0.3,0.2-0.5l0.6,0.1c0.1,0.4,0.3,0.8,0.5,1.3c0.4,1.1,0.8,2.1,0.7,3c-0.1,1.4-0.7,3.1-1.8,5c-1.1,1.8-1,3.4,0,5.1
					c1.1,1.7,2.3,3.5,3.5,5.1l0.6,0.8c0.3,0.4,0.5,0.7,0.8,1.1c0.8,1.2,1.7,2.5,2.6,3.6c0.4,0.5,1,0.6,1.7,0.8
					c0.2,0.1,0.5,0.1,0.7,0.2l0.4,0.2l0-0.5c-0.1-0.9-0.1-1.6-0.2-2.4c-0.2-1.5-0.3-2.7-0.1-3.9c0.3-1.9,0.2-5.3-1.2-6.8
					c-1.1-1.1-2.1-2.3-3.1-3.5c-0.4-0.5-0.8-0.9-1.2-1.4l0.2-0.5c0.5-0.2,0.9-0.3,1.4-0.5c1.3-0.5,2.6-0.9,3.9-1.3
					c0.6-0.2,1.5-0.2,2,0.2c0.7,0.6,1.3,0.8,1.9,0.6c0.6-0.1,1.2-0.6,1.7-1.5c1-1.7,2.4-2.4,4.4-2.1c0.4,0.1,0.7,0,1.2,0
					c0.2,0,0.5,0,0.7,0l1.1,0l-6.7-5.1l0.6-0.4l0.5-2.5c0.6,1,1.3,1.9,2.3,2c0.7,0.1,1.4-0.2,2.1-0.8c0.1,0,0.4,0.2,0.5,0.3
					c0.4,0.2,0.7,0.5,1.1,0.7c0.7,0.5,1.5,1,2.3,1.4c0.6,0.3,1.3,0.1,1.9-0.2c0.4-0.2,0.7-0.5,1-1c0.2-0.2,0.3-0.4,0.5-0.6l0.3-0.3
					L741.6,150.5z M524.5,214.7l0.2-1.2l0.6-1.3c0,0.5-0.1,0.9-0.1,1.4l0,0.3l1.1,0.1L524.5,214.7z"/>
				<path class="st3" d="M418.9,272c-1.7-0.9-3.4-1.9-4.3-3.4c-1.2-1.9-2.4-2.9-3.8-2.9c-0.8,0-1.7-0.4-2.5-0.7
					c-0.2-0.1-0.4-0.2-0.6-0.2c-0.1-0.8-0.4-1.6-1-2.4c-1.2-1.4-3.1-1.9-4.7-2.6c-1.9-0.9-2-3-3.9-3.8c-1.2-0.5-2.4-0.2-2.9-1.8
					c-0.3-1-0.1-2.2,0-3.2c0.2-1.8-0.1-3.3-1-4.9c-1-1.7-2.5-3.1-4.2-4.1c-0.8-0.5-1.7-0.8-2.7-1.1c-1.3-0.4-1.9-0.4-2.2-1.8
					c-0.4-1.6-1.6-2.6-3-3.4c-1.1-0.6-2.2-1-3-2.1c-0.5-0.7-0.6-1.7-0.8-2.6c-0.7-3.5-3.5-2.9-6.2-2c-2,0.6-3.6-1.9-5.6-2.2
					c-1.5-0.2-2.2-0.4-3.4-1.4c-0.8-0.7-2.7-1.2-3-2.2c-0.3-1.1-0.7-1.9-2-1.5c-0.5,0.2-1,0.8-1.3,1.2c-1,1.2-1.6,2-3.3,2.1
					c-4.6,0.1-4.6,4.9-7.4,7.2c-0.3-0.2-0.7-0.4-1.2-0.7c-1-0.8-2.5-1.4-3.6-1c-2,0.7-3.6,0.5-5.1-0.6c-0.1-0.5-0.3-1.1-0.5-1.6
					c-0.4-1.3-0.8-2.5-0.7-3.7c0.1-1.3,0.5-2.6,1-3.9c0.2-0.7,0.5-1.4,0.7-2.2c0.3-1.1,0.6-2.4,0-3.4c-0.3-0.6-1-1-1.9-1.1
					c-1.3-0.2-2.6-0.2-3.8-0.3c-0.5,0-1.1,0-1.7-0.1c-0.7,0-1.2-0.2-1.3-0.5c-0.1-0.3,0-0.9,0.4-1.6c1.2-2.3,2.4-4.7,3.5-7
					c0.5-1,1-1.9,1.4-2.9l0.2-0.3l-0.2-0.2c-1.4-1-2.8-1.3-4-0.9c-1.1,0.4-2.1,1.4-2.7,2.9c-0.6,1.4-2.1,2.6-3.9,3.2
					c-1.9,0.6-3.7,0.6-4.8-0.2c-2.3-1.6-4-8.1-2.9-11.1c0.5-1.4,1.1-2.8,1.7-4.2c0.3-0.6,0.5-1.2,0.7-1.8l0.1-0.2l-1-1.1
					c0.1,0,0.2-0.1,0.3-0.1c0.6-0.3,1.3-0.5,1.4-1.1c0.5-1.9,1.5-3,3.3-3.8c0.7-0.3,1.4-0.7,2-1c0.7-0.4,1.4-0.8,2.1-1.1
					c1.1-0.4,2.4-0.9,3.4-0.7c1.1,0.3,2.3,0.9,3.3,1.5c0.1,0,0.2,0.1,0.2,0.1c0.6,1.2,1.3,2.6,2.6,3.1c0.2,0.1,0.5,0,0.6-0.3
					c0.1-1.2,0.2-2.7-0.5-3.6c2.2-0.3,4.5,0.5,6.2,1.9c2.2,1.7,2.4,4,2.2,6.6c-0.2,2.5,0.5,6.9,4,6.9c4.4,0.1,2.4-10,3.5-12.6
					c2.1-4.7,7.7-5.6,11.3-8.5c1.6-1.3,2.1-3.3,2.6-5.2c0.9-3.4,3.2-1.8,5.3-3.2c0.6-0.4,1-1.1,1.3-1.8c0.8-1.5,1.2-2.5,2.9-3.2
					c2-0.8,4.1-1,5.3-2.9c0.6-1,0.4-2.3,1.2-3.3c0.6-0.8,2.1-1.2,2.9-1.6c1.2-0.6,2.3-1.8,2.2-3.2c0-0.2-0.1-0.4-0.1-0.6
					c0.2-0.2,0.4-0.5,0.6-0.8c0.1-0.1,0.2-0.3,0.3-0.4c1.5,1,3.8,0.7,5-0.8c0,0,0,0,0.1,0.1c0.2,0.5,0.3,1,0,1.2
					c-0.2,0.1-0.4,0.2-0.6,0.3l0,0c-0.6,0.2-1.4,0.3-2,0.5c-1,0.2-2.2,0.4-2.9,1.2c-0.8,0.9-1.4,3.9,0.4,4.2
					c1.1,0.2,1.8-0.2,2.7-0.9c1.5-1.2,2.7-1.9,4.6-2.2c2.2-0.4,5.3-0.5,6.4-2.9c0.6-1.2-1.2-1.9-2-2.2c-1.1-0.4-2.2-0.6-3.2-1
					c-0.3-0.1-1.4-1.4-1.3-1.4c0.6-0.1,1.3,0.1,1.9,0.1c1.3,0.1,2.7,0,2.2-1.6c-0.2-0.7-1.4-1.6-2.5-1.9c-1.3-1.1-2.6-1-3.9-0.7
					c-1,0.3-2,0.7-2.9,1.1c-0.6,0.3-1.3,0.6-2,0.8c-0.1,0-0.4-0.1-0.6-0.2c0,0-0.1,0-0.1-0.1c0,0,0-0.1,0-0.1
					c0.1-0.2,0.2-0.5,0.2-0.6c0.7-0.3,1.4-0.7,2.1-1c3.1-1.5,6.4-3.1,9.8-2.2c5.1,1.3,9.6-0.7,13.4-2.9c0.8-0.5,1.7-2.4,1.4-3.3
					c-0.2-0.8-0.7-1.4-1.3-1.7c-0.6-0.3-1.4-0.2-2.2,0.2c-0.5,0.3-1.1,0.4-1.7,0.5c-0.2,0-0.4,0.1-0.6,0.1l0-0.1l4-1.4l-0.5-0.4
					c-0.2-0.2-0.5-0.4-0.7-0.6c-0.4-0.3-0.8-0.6-0.9-0.9c-0.5-1-1.1-2.2-1.1-3.4c0-1.5,0.2-3,0.3-4.6c0.1-0.7,0.2-1.5,0.3-2.3
					l0.1-0.6l-7.4,4.3c-0.2-0.2-0.3-0.4-0.5-0.6c-1-1.2-1.6-2-0.4-3.5c0.4-0.5-0.1-2.1-0.5-2.7c-0.7-0.9-1.6-1.5-2.4-2
					c-3.9-2.5-6-1.9-8.5,2.5c-0.1,0.1-0.1,0.2-0.2,0.3c-0.2,0.3-0.3,0.6-0.5,0.8c-1.7,1-3.2,2.4-2.4,5.2c0,0.2-0.3,0.8-0.6,1.1
					c-1.8,1.4-3.7,2.8-5.7,4.2l-2.2,1.6l0,0.1c-0.1,0.2-0.2,0.5-0.3,0.9c-0.3,0.9-0.6,2.1-1.3,3c-0.7,0.9-2.2,1.5-3.2,1.4
					c-0.3-0.1-1.1-2-0.9-3c0.2-1,0.8-2,1.4-3c0.3-0.5,0.6-1,0.9-1.5l0.2-0.4l-0.4-0.1c-0.2-0.1-0.4-0.2-0.6-0.2
					c-0.5-0.2-1-0.3-1.4-0.6c-2.5-1.4-5.4-3.1-8.3-4.9c-0.4-0.2-0.7-0.8-0.9-1.4l-0.1-0.2c-0.3-0.6-0.5-1.2-0.8-1.9
					c-0.1-0.3-0.2-0.6-0.3-0.9c0.2-0.2,0.3-0.5,0.5-0.7c0.5-0.7,1-1.6,1.7-2c1.2-0.8,2.5-1.4,3.8-2.1c1-0.5,2.1-1,3.1-1.6
					c0.3-0.2,0.6-0.2,1-0.3c0.9-0.2,2.1-0.5,2.2-2.4c0.2-0.1,0.7-0.2,1-0.2c1.5-0.1,3.1-0.2,4.8-0.3l2.6-0.1l-1.8-3
					c1.1-0.6,1.5,0.1,1.9,0.8c0.1,0.2,0.3,0.5,0.4,0.6l0.1,0.1l0.1,0c0.7-0.2,1.5-0.5,2.1-0.7c1.4-0.5,2.8-1,4-0.9
					c3.4,0.2,5.2-2,7.1-4.4l0.5-0.7l-0.3-0.2c-2.1-1.6-3.8-1.5-5.6,0.3c-0.8,0.8-1.9,1.3-2.9,1.9c-0.3,0.1-0.5,0.2-0.8,0.4
					c-0.2,0.1-0.5,0-0.7,0c-0.1,0-0.1,0-0.2,0c0-0.1,0-0.1,0-0.2c0-0.4,0-0.7,0.1-1c0.1-0.3,0.3-0.6,0.4-1c0.1-0.1,0.1-0.3,0.2-0.4
					l0.1-0.2l-0.2-0.2c-0.1-0.1-0.1-0.2-0.2-0.2c-0.1-0.2-0.2-0.3-0.4-0.3c-1.1-0.2-1.8-0.3-1.9-0.7c-0.2-0.4,0-1.2,0.4-2.6
					c0.1-0.3,0.2-1.2-0.2-1.5c-0.4-0.2-1-0.4-1.4-0.2c-1,0.4-1.9,0.8-2.9,1.3c-0.4,0.2-0.7,0.3-1.1,0.5l-0.4,0.2l0.3,0.4
					c0.7,1,1,1.8,0.8,2.4c-0.2,0.6-0.8,1-1.9,1.3l-0.1,0c-0.8,0.2-1.8,0.4-2.5,1c-1.3,1-2.1,0.9-3.2-0.3c-0.5-0.6-1.4-0.7-2.1-0.9
					l-0.1,0c-0.5-0.1-1-0.1-1.5-0.1c-0.8,0-1.6-0.1-2.2-0.4c-1.8-0.8-3.8-1.4-5.9-0.4c-0.9,0.4-1.8,1.1-2.6,1.7
					c-0.3,0.2-0.6,0.5-0.9,0.7c-0.2-1.1-0.6-1.9-1.1-2.4c-0.7-0.6-1.8-0.8-3.3-0.4c-0.7,0.1-1.4,0-2.3-0.3c-0.3-0.1-0.6-0.2-0.9-0.2
					l1.6-1.7l-0.5-0.2c-0.6-0.2-1.3-0.4-1.9-0.7c-1.5-0.5-2.8-0.9-4.1-1.6c-1.1-0.5-2.3-0.6-3.5-0.7c-1.4-0.1-2.9-0.1-4.3-1.1
					c-1.1-0.8-2.8-0.4-4.4,0c-0.8,0.2-1.7,0.4-2.4,0.5l-0.3,0c-2.5,0.2-5.1,0.4-7.6,0.3c-1-0.1-2.1-0.4-3.1-0.8
					c-0.5-0.2-0.9-0.3-1.4-0.5c-0.3-0.1-0.5-0.3-0.8-0.5c-0.6-0.4-1.2-0.8-1.9-1c-0.9-0.3-1.7-0.5-2.6-0.6c-1.1-0.2-2.2-0.5-3.2-0.9
					c-4.5-1.7-9.5-2.1-15.2-1.2c-3.3,0.5-6.6,1.1-9.8,1.8l-0.9,0.2c-0.6,0.1-1.2,0.4-1.8,0.6c-0.3,0.1-0.6,0.2-0.9,0.4l-0.4,0.2
					l1.9,3.1c-0.4,0.1-0.9,0.2-1.3,0.4c-1.1,0.3-2.1,0.6-2.8,0.3c-2.5-1-4.5-0.1-6.6,0.8l-0.5,0.2l-0.1,1.4l6.7,0.6l0,0.5
					c-0.5,0.2-0.9,0.4-1.4,0.6c-1.2,0.5-2.4,1-3.6,1.3c-0.9,0.2-1.9,0.3-2.8,0.4c-1.3,0.1-2.5,0.2-3.8,0.7c-1.1,0.4-2,1.3-2.9,2.1
					c-0.4,0.4-0.8,0.7-1.2,1.1l-0.2,0.2l0.6,1.1l1.9,0.2l-2.6,1.8l0.1,1.2l4.8,0.5l0,0.3c-4.4,3-9.4,4.7-15.1,5.4l0,0.7
					c6.6-0.6,13.1-2.7,19.4-4.8c3.6-1.2,7.2-2.4,10.9-3.4l-4,1.9l0.4,1.3l0.3-0.1c0.8-0.3,1.5-0.5,2.3-0.8c2-0.7,4.1-1.5,6.2-2.2
					c0.7-0.2,1.5,0,1.9,0.1c1.4,0.5,2.9,1,4.3,1.7c0.9,0.4,1.7,1.1,2.5,1.7c0.3,0.2,0.6,0.5,0.9,0.7c0.2,0.1,0.4,0.3,0.6,0.5
					c0.4,0.3,0.7,0.6,1.2,0.8c1.1,0.4,1.8,1.2,2.1,2.2c0.2,0.8,0,1.7-0.5,2.5c-0.5,0.7-0.7,1.4-0.6,1.9c0.1,0.6,0.5,1,1.1,1.3
					c-0.2,0.2-0.4,0.4-0.6,0.6c-0.8,0.9-1.5,1.6-1.3,2.3c0.4,1.5-0.1,2.6-0.6,3.7c-0.3,0.5-0.5,1-0.6,1.5l0,0.2l0.1,0.1
					c0.3,0.4,0.5,0.8,0.8,1.1c0.5,0.7,0.9,1.3,1.4,1.9c1.1,1.4,2.1,2.5,3.9,2.9c-1.4-0.1-2.8-0.2-3.7,2c-0.1,0.4-0.6,0.6-1,0.9
					c-0.1,0.1-0.3,0.2-0.4,0.3l1.1-1.5l-0.2-0.2c-0.4-0.5-1-1.1-1.6-1c-0.5,0.1-0.9,0.5-1.5,1.3l-0.4,0.7c-2.8,4.6-5.7,9.4-8.9,13.8
					c-1.7,2.3-3.1,4.7-1.8,8c0,0.1-0.1,0.2-0.1,0.3c-0.1,0.2-0.2,0.5-0.2,0.7c0,0.7,0,1.5,0,2.3c-0.1,2.1-0.1,4,0.8,4.8
					c0.5,0.5,1,1.2,1.5,1.9c0.8,1.2,1.7,2.5,3,3l-0.9-0.1l-0.1,0.2c-1.2,3.3-1.1,3.5,0,7.5l0.1,0.5c0.2,0.6,0,1.3-0.1,2.1
					c-0.1,0.3-0.1,0.6-0.1,0.9l-1,0.3l0.3,0.4c0.2,0.3,0.4,0.5,0.6,0.8c0.5,0.6,0.9,1.2,1.3,1.8l0,0.1c0.3,0.5,1,1.6,0.8,2
					c-0.7,2.3,0.3,3.6,1.2,4.7c0.4,0.4,0.7,0.9,1,1.3l0.9,1.8l-0.3-2c-0.1-0.6-0.3-1.1-0.4-1.6c-0.2-0.6-0.4-1.2-0.4-1.8
					c-0.2-3.8-0.6-7.4-1.9-10.8c-0.1-0.3-0.2-0.8-0.2-1.2c0-0.4-0.1-0.9-0.2-1.3c-0.2-0.8-0.2-1.5,0.1-2c0.2-0.4,0.6-0.7,1.1-0.8
					c0.5-0.1,0.9,0,1.2,0.3c0.4,0.4,0.7,1.1,0.7,2c0.3,5.7,2.5,10.7,4.5,14.8l0.2,0.4c1.5,2.9,2.9,5.7,1.5,9.3
					c-0.3,0.7-0.1,1.9,0.3,2.5c2,3.4,5.1,5.3,8,7.1c0.8,0.5,1.6,1,2.3,1.5c0.3,0.2,0.5,0.4,0.7,0.6c0.9,0.8,2,1.6,3.7,1
					c3.2-1.1,3.9-0.8,5.8,2.9c1.4,2.8,5.4,4.7,8,4c0,1.4,0.6,2.5,1.2,3.6c0.7,1.2,1.4,2.3,1.1,3.9c-0.1,0.5,0.3,0.9,0.8,1.5
					c0.3,0.3,0.6,0.5,0.9,0.8c0.6,0.5,1.2,0.9,1.3,1.5c0.2,0.8,0.5,1.1,0.8,1.3c0.3,0.1,0.7,0,1-0.2l4.2,3.7l0.1-0.7
					c0.1-1.1,0.3-1.8,0.7-2.2c0.4-0.4,1-0.6,1.9-0.5c0.6,0,1,0.2,1.2,0.5c0.3,0.4,0.3,1,0.2,2.1c0,0.5,0.1,0.9,0.2,1.3
					c0.1,0.3,0.2,0.7,0.2,0.9c0,0.6,0,1.1,0.1,1.7c0.1,1.6,0.1,3.2-0.3,4.6c-0.5,1.6-1.5,3.1-2.4,4.5c-0.4,0.6-0.8,1.3-1.2,1.9
					l-4.5,7l1.8,2.4l-0.7,1.9c-1,0.8-1.7,2-1.8,3.2c-0.1,1.3,0.3,2.6,1.1,3.6c0.8,1,1.5,2.2,1.9,3.4c0.4,1.3,0.8,2.6,1.2,4
					c0.4,1.4,0.8,2.8,1.3,4.2c0.9,2.6,1.9,5.1,3.1,7.3c0.8,1.6,1.9,3.1,3.3,4.6c1.1,1.3,2.4,2.3,3.7,3.4l0.6,0.5
					c0.8,0.7,1.6,1.3,2.4,1.8c0.3,0.2,0.6,0.4,0.9,0.6c0,0.1-0.1,0.1-0.1,0.2c-0.2,0.4-0.4,0.8-0.4,1.3c0.1,0.8,0.3,1.7,0.4,2.5
					c0.3,1.5,0.6,3,0.4,4.4c-0.1,0.9-0.2,1.8-0.3,2.6c-0.3,2.7-0.7,5.4-0.6,8.2c0,1.7-0.1,3.5-0.3,5.2c-0.1,1.6-0.3,3.2-0.3,4.7
					c0,1,0,2.1,0,3.1c0.1,3.9,0.2,7.9-0.7,12c-0.5,2.1-0.2,4.4,0.1,6.6c0.1,0.9,0.2,1.9,0.3,2.8c0,0.4,0.3,0.7,0.5,0.9
					c1.9,1.6,2.1,3.9,2.4,6.4c0.1,0.6,0.1,1.2,0.2,1.8l-0.1,0.6l-0.1,0l0-0.2l-0.2,0.2l-0.2-0.5l-0.5,0.9l-0.1,1.2l0.5,0.2
					c0,0.1,0,0.1,0.1,0.1c0,0,0,0,0,0c0,0.1,0,0.2,0,0.3l-0.7,1.2l0.1,0.2c0.3,0.6,0.7,1.2,1,1.8c0.7,1.1,1.3,2.2,1.5,3.3
					c0.6,4,2.2,7.4,4.8,10.3c0.7,0.8,1.9,0.9,2.9,1l0.3,0c0,0,0,0,0,0c0.4,0,0.8-0.4,1.1-0.7c0.1-0.1,0.2-0.2,0.3-0.2l0.4-0.3
					l-1.8-1.1l2.2,0.2l-0.1-0.5c-0.3-2.4-0.3-2.4,1.7-6.1c1-1.9,0.9-3.2-0.5-4.6c-0.5-0.5-0.9-1.2-1.3-2.1c-0.2-0.3-0.3-0.6-0.5-0.9
					c3.2-0.6,3-2.9,2.9-4.9c0-0.5-0.1-1-0.1-1.4l4.2,0.8l-2.5-1.2c-1.6-0.7-2.9-1.5-2.8-3.5l5.1,0.5l-0.2-0.5
					c-0.9-2.2-1.1-3.4-0.7-4.1c0.3-0.6,1.2-1,3-1.1c1.4-0.1,3-0.9,4.1-2c0.6-0.6,0.9-1.6,0.9-2.7c-0.1-1.7-0.9-3.5-2.2-4.6
					c-0.8-0.7-1-1.2-0.7-1.9c0.3,0.2,0.6,0.3,1,0.5c0.9,0.5,1.8,0.9,2.7,1.4c1.1,0.6,2.1,0.7,3,0.3c0.9-0.5,1.5-1.5,1.9-2.9l2.6-3.5
					c1.7-1.4,2.5-3.6,3.2-5.6c0.5-1.3,0.9-2.7,1.7-3.8c0.3-0.5,0.8-1.6,0.5-2.3c-0.4-1.1-0.5-2-0.3-2.7c0.3-1.1,1.3-1.8,2.7-2.6
					l0.2-0.1c1.6-0.9,3.3-1.9,5-2.8c0.2-0.1,0.6-0.1,0.8,0c0.9,0.6,1.7,0.7,2.4,0.4c0.9-0.3,1.7-1.2,2.5-2.8
					c2.9-6.1,4.8-11.5,4.5-17.6c0-1.1,0.3-2.4,0.8-3.2c0.9-1.4,1.9-2.7,2.9-4c0.4-0.5,0.8-1,1.2-1.6c0,0,0.1-0.1,0.1-0.1
					c0.1-0.1,0.2-0.2,0.3-0.3c0.3-0.6,0.7-1.2,1.1-1.8c0.9-1.4,1.7-2.9,2.4-4.5C422.1,275.4,421.3,273.3,418.9,272z"/>
			</g>
			<path class="st4" d="M380.9,302.4c-18.8-62.7-117.1-12.4-94.4-148.3c3.3-19.6,8-38.2,16.9-54.7c-30.9,23.9-52.4,59.8-56.8,101.7
				c-8.6,81.4,50.4,154.3,131.8,162.9c61.6,6.5,118.3-25.7,146-77.1C495.2,309.4,392.3,340.4,380.9,302.4z"/>
		</g>
		<g>
			<path class="st5" d="M234,133.9v-3.5c0-0.8-0.7-1.5-1.5-1.5h-1.1c-0.7,0-1.3-0.4-1.6-1.1c-0.2-0.5-0.4-1-0.6-1.5
				c-0.3-0.6-0.2-1.4,0.3-1.9l0.8-0.8c0.6-0.6,0.6-1.5,0-2.1l-2.5-2.5c-0.6-0.6-1.5-0.6-2.1,0l-0.8,0.8c-0.5,0.5-1.3,0.6-1.9,0.3
				c-0.5-0.2-1-0.4-1.5-0.6c-0.7-0.2-1.1-0.9-1.1-1.6v-1.1c0-0.8-0.7-1.5-1.5-1.5h-3.5c-0.8,0-1.5,0.7-1.5,1.5v1.1
				c0,0.7-0.4,1.3-1.1,1.6c-0.5,0.2-1,0.4-1.5,0.6c-0.6,0.3-1.4,0.2-1.9-0.3l-0.8-0.8c-0.6-0.6-1.5-0.6-2.1,0l-2.5,2.5
				c-0.6,0.6-0.6,1.5,0,2.1l0.8,0.8c0.5,0.5,0.6,1.3,0.3,1.9c-0.2,0.5-0.4,1-0.6,1.5c-0.2,0.7-0.9,1.1-1.6,1.1H202
				c-0.8,0-1.5,0.7-1.5,1.5v3.5c0,0.8,0.7,1.5,1.5,1.5h1.1c0.7,0,1.3,0.4,1.6,1.1c0.2,0.5,0.4,1,0.6,1.5c0.3,0.6,0.2,1.4-0.3,1.9
				l-0.8,0.8c-0.6,0.6-0.6,1.5,0,2.1l2.5,2.5c0.6,0.6,1.5,0.6,2.1,0l0.8-0.8c0.5-0.5,1.2-0.6,1.9-0.3c0.5,0.2,1,0.4,1.5,0.6
				c0.7,0.2,1.1,0.9,1.1,1.6v1.1c0,0.8,0.7,1.5,1.5,1.5h3.5c0.8,0,1.5-0.7,1.5-1.5v-1.1c0-0.7,0.4-1.3,1.1-1.6
				c0.5-0.2,1-0.4,1.5-0.6c0.6-0.3,1.4-0.2,1.9,0.3l0.8,0.8c0.6,0.6,1.5,0.6,2.1,0l2.5-2.5c0.6-0.6,0.6-1.5,0-2.1l-0.8-0.8
				c-0.5-0.5-0.6-1.3-0.3-1.9c0.2-0.5,0.4-1,0.6-1.5c0.2-0.7,0.9-1.1,1.6-1.1h1.1C233.4,135.4,234,134.7,234,133.9z M217.9,140.1
				c-5,0.4-9.1-3.7-8.7-8.7c0.3-3.9,3.5-7.1,7.4-7.4c5-0.4,9.1,3.7,8.7,8.7C225,136.7,221.8,139.8,217.9,140.1z"/>
			<g>
				<g>
					<path class="st6" d="M158,351.3c0.5-21.6-23.4-39.3-35.5-55.8c-12.2-16.8-19.3-40.2-14.4-61.1c4.2-17.9,17.9-29.1,35.5-30.6
						c14.9-1.3,30.8,8.2,44.1-1c19.9-13.8,5.5-40.9,7.7-45.4"/>
					<path class="st7" d="M224.6,133.4V127c0-1.5-1.2-2.7-2.7-2.7h-2c-1.3,0-2.4-0.8-2.8-2c-0.3-0.9-0.7-1.8-1.1-2.7
						c-0.6-1.1-0.3-2.5,0.6-3.4l1.4-1.4c1.1-1.1,1.1-2.8,0-3.8l-4.5-4.6c-1.1-1.1-2.8-1.1-3.8,0l-1.4,1.4c-0.9,0.9-2.3,1.1-3.4,0.6
						c-0.9-0.4-1.7-0.8-2.7-1.1c-1.2-0.4-2-1.5-2-2.8v-2c0-1.5-1.2-2.7-2.7-2.7H191c-1.5,0-2.7,1.2-2.7,2.7v2c0,1.3-0.8,2.4-2,2.8
						c-0.9,0.3-1.8,0.7-2.7,1.1c-1.1,0.6-2.5,0.3-3.4-0.6l-1.4-1.4c-1.1-1.1-2.8-1.1-3.8,0l-4.5,4.6c-1.1,1-1.1,2.8,0,3.8l1.4,1.4
						c0.9,0.9,1.1,2.3,0.6,3.4c-0.4,0.9-0.8,1.7-1.1,2.7c-0.4,1.2-1.6,2-2.8,2h-2c-1.5,0-2.7,1.2-2.7,2.7v6.4c0,1.5,1.2,2.7,2.7,2.7
						h2c1.3,0,2.4,0.8,2.8,2c0.3,0.9,0.7,1.8,1.1,2.7c0.6,1.2,0.3,2.5-0.6,3.4l-1.4,1.4c-1.1,1.1-1.1,2.8,0,3.8l4.5,4.5
						c1.1,1.1,2.8,1.1,3.8,0l1.4-1.4c0.9-0.9,2.3-1.1,3.4-0.6c0.9,0.4,1.7,0.8,2.7,1.1c1.2,0.4,2,1.6,2,2.8v2c0,1.5,1.2,2.7,2.7,2.7
						h6.4c1.5,0,2.7-1.2,2.7-2.7v-2c0-1.3,0.8-2.4,2-2.8c0.9-0.3,1.8-0.7,2.7-1.1c1.1-0.6,2.5-0.3,3.4,0.6l1.4,1.4
						c1.1,1.1,2.8,1.1,3.8,0l4.5-4.5c1.1-1.1,1.1-2.8,0-3.8l-1.4-1.4c-0.9-0.9-1.1-2.3-0.6-3.4c0.4-0.9,0.8-1.8,1.1-2.7
						c0.4-1.2,1.5-2,2.8-2h2C223.4,136.1,224.6,134.9,224.6,133.4z M195.4,144.8c-9,0.7-16.5-6.8-15.8-15.8
						c0.6-7.1,6.3-12.9,13.4-13.4c9-0.7,16.5,6.8,15.8,15.8C208.2,138.5,202.5,144.2,195.4,144.8z"/>
				</g>
				<g>
					<path class="st6" d="M525.4,120.7c13.8-32.3,41.6-43.3,63.8-40.9c14,1.5,32.5,13.7,39.6,35.6c5.9,18,4.9,40.9,1.9,60
						c-2.6,16.4-5.3,29.8-3.9,46.8c1.5,17.3,8.7,29.3,14.5,43c8.9,20.8,13.6,39.7,8.2,65.1c-4.6,21.2-12.3,36.3-24.9,44
						c-11.2,6.8-23.3,9.4-35,12.1c-3.8,0.9-13.1,4.7-14.8,3.6"/>
					<path class="st5" d="M541.8,114.3c0,16.1-13.1,29.2-29.2,29.2c-16.1,0-29.2-13.1-29.2-29.2c0-16.1,13.1-29.2,29.2-29.2
						C528.7,85,541.8,98.1,541.8,114.3z"/>
					<polygon class="st7" points="494.1,110.6 506.4,133.5 518.7,133.5 532.7,102.7 523.4,102.7 513.4,127.4 503.1,110.1 					"/>
				</g>
			</g>
		</g>
		<g>
			<g>
				<g>
					<path class="st8" d="M427.9,238.9c-5.5-3.6-11.4-6.9-17.4-9.8c-3.9-1.9-7.9-3.6-11.1-6.5c-3.1-2.8-5.4-7.4-5.4-7.4
						c3.7-1.3,7,1.4,9.5,4.4c-4.5-3.9-7.9-9.1-9.7-14.7c1.4-1.1,3.4,0.3,4.6,1.5c2.6,2.7,5.2,5.5,7.9,8.2c-1.5-2.6-3.1-5.2-4.6-7.8
						c-0.7-1.1-1-3,0.3-3.3c0.7-0.2,1.4,0.4,1.9,1c2.8,2.9,5.6,5.8,8.4,8.8c3.1,3.3,13.2,5.9,20.8,0.4c0.5-0.4,0.8-1,1.5-1.2
						c1.3-0.4,2.6,0.9,2.7,2.2c0.1,1.3-0.6,2.5-1.2,3.7c-2.7,5.9-1.3,13.2,3.3,17.8C436,238.3,431.2,241.1,427.9,238.9"/>
					<path class="st1" d="M418.5,235.1c4.6,17.6,0.8,48.6,20.8,69.2c8.5,8.8,28.5,22.2,41.6,23.7c26,3,39.8-10.2,44.3-13.9
						c12.3-10,7.9-40.2-1.3-52.3c-9.4-12.4-37.3,19-48.2,17.6c-10.2-1.3-16.1-10.6-20.5-18.8c-4.9-9.1-14.7-30.2-19.1-31.5
						C434.7,228.6,426.6,232.8,418.5,235.1"/>
					<path class="st5" d="M523.9,261.8c-5.1-6.8-15.9-0.4-26.3,6.5c-1.9,3.6-3.5,7.4-5,11.2c-2.6,6.6-4.7,13.3-7.2,19.9
						c-1,2.7-2.3,5.3-4.3,7.4c-1.9,2-4.5,3.5-7.3,3c-4.3-0.9-6.5-5.1-9.3-8.2c-1.5-1.7-3.1-2.9-5.3-3.3c-1.5-0.3-3.1-0.1-4.6,0.1
						c-1.4,0.2-2.8,0.4-4.2,0.3c-2.8,0-5.6-1-8-2.4c-2.4-1.5-4.7-3.5-6.6-5.6c-2-2.3-3.6-4.9-4.8-7.7c-0.6-1.4-1.1-2.9-1.7-4.4
						c-0.6-1.5-1.2-3.1-1.8-4.7c-0.9-2.7-1.6-5.4-2.2-8.2c-0.1-0.3-0.2-0.6-0.2-0.8c-0.3-1.2-0.5-2.5-0.7-3.7
						c-0.3-2.4-0.5-4.8-0.7-7.2c-0.2-2.5-0.3-5.1-0.2-7.6c0-2.5,0.2-5.1,0.4-7.6c0.2-2,0.1-3.9,0.7-5.8c-1.9,0.7-3.9,1.4-5.8,1.9
						c4.6,17.6,0.8,48.6,20.8,69.2c8.5,8.8,28.5,22.2,41.6,23.7c26,3,39.8-10.2,44.3-13.9C537.4,304,533,273.8,523.9,261.8"/>
					<path class="st9" d="M421.3,240.7c5.6-0.2,13.9-2.6,18.3-5.8"/>
					<g>
						<path class="st10" d="M469.5,280.3c-1.8,2.3-3,5.1-3.5,8"/>
						<path class="st10" d="M471.9,281.1c-1.2,3.7-1.2,7.8,0.2,11.5"/>
						<path class="st10" d="M474.8,281.7c-0.4,2.4,0.1,4.9,1.5,6.8"/>
					</g>
				</g>
				<path class="st11" d="M544.1,200.4c0.7-3.8,1.9-8.2,5.4-9.8c3.9-1.8,8.3,1,11.3,4.1c5.3,5.5,9.1,12.3,11.1,19.7
					c1.5,5.5,2,11.4,4.9,16.2c4.6,7.4,13.6,10.2,21.8,13c8.2,2.8,17.1,6.9,19.9,15.2c2.3,6.9-0.3,14.9,2,21.8
					c4.2,12.4,21.1,14.5,28.8,25c4.3,5.9,5.1,14.3,2,21c-3.3,7-10.2,11.5-16.9,15.5c-6,3.6-15.3,7.8-22.1,9.2
					c-19.1,4-68.5-6.5-72.6-61.7C536.9,253.9,542.2,209.8,544.1,200.4"/>
				<g>
					<path class="st1" d="M585,394.8c-1.4-8.7-1.9-17.5-1.4-26.3c0.5-8.9,2.3-17.5,4.8-26c4.9-17,12-34.9,8.9-53
						c-1.6-9.7-6.5-18.6-13.4-25.3c-2.9-1.5-5.9-2.9-9-4c-10.3-3.8-21.4-5.5-29.5-7.7c-14.4-1.3-28.9,3.6-38.7,12.3
						c-3.1,2.7-5.7,5.8-7.8,9.1c-5.7,12.4-5.6,27-3,40.3c0.8,3.9,1.7,7.8,2.7,11.7c1.1,4.1,2.1,8.2,2.3,12.4
						c0.3,8.8-1.5,17.5-2.9,26.1c-2.9,17.6-4.9,35.4-4.8,53.3c0.1,9,0.7,17.9,1.8,26.8c31.9,6.5,65,7.5,96.8,2.7
						c3.7-0.6,4.9,0.6,7.7-1.4C591.1,430.5,587.7,412.1,585,394.8"/>
					<path class="st5" d="M585,394.8c-1.4-8.7-1.9-17.5-1.4-26.3c0.5-8.9,2.3-17.5,4.8-26c4.9-17,12-34.9,8.9-53
						c-1.6-9.7-6.5-18.6-13.4-25.3c-2.9-1.5-5.9-2.9-9-4c-10.3-3.8-21.4-5.5-29.5-7.7c-9.9-0.9-19.9,1.2-28.3,5.4c0.1,0,0.2,0,0.3,0
						c29-2,40.9,3.6,41.9,16.5c0.2,2.4,0.7,4.8,0.8,7.2c0.2,3,0.7,5.9,1.4,8.7c1.5,6.3,3.8,12.4,4.7,18.9c0.9,6.1,0.3,12.1-1.7,17.9
						c-1.9,5.4-4.9,10.9-8.7,15.1c-0.4,0.4-1,1-1.2,1.6c-0.1,0.6,0.3,1,0.7,1.4c0.9,0.8,2.1,1.3,3.2,1.7c1.1,0.4,2.3,0.6,3.4,1.1
						c1.1,0.5,2,1.1,2.9,1.8c3.8,2.9,6.2,7.6,6.8,12.3c1.7,11.8-5.9,22.8-13.3,31c-7.6,8.5-16.7,15.4-24.2,24
						c-7.7,8.9-12.7,19.7-15.7,31.2c24.4,2.8,49.1,2.5,73.1-1.1c3.7-0.6,4.9,0.6,7.7-1.4C591.1,430.5,587.7,412.1,585,394.8"/>
					<path class="st10" d="M504.7,323.4c-0.6,6.3,1.6,12.7,5.7,17.3c1.5,1.6,3.2,3,4.6,4.7c2.4,2.8,3.9,6.3,5.3,9.7"/>
					<path class="st10" d="M508,351.2c4.2,3.3,8.3,6.5,12.7,9.6"/>
					<path class="st10" d="M549.1,296c-0.1,4.3,1.5,8.7,4.2,11.9c3.3,4,8.4,6.5,10.6,11.2"/>
				</g>
				<g>
					<path class="st8" d="M592.2,399.5c-2.9,2.2-6,4.4-8,7.6c-5.3,8.2-2.2,15.6-1.1,15.7c2,0.3,1.6-7.5,3.6-7.8
						c0.3,7.8,1.3,15.6,4.3,22.8c0.6,1.5,2.6,4.6,4.3,3.4c1.3-1-2-11.9-3.4-17.4c0.6,3.2,1.4,6.3,2.4,9.4c1,3.1,3.5,9.9,5.5,7.4
						c0.5-0.6-0.7-10.1-3.1-15.1c1.5,3.7,1.6,4.4,2.8,7.2c1.1,2.8,4.7,8.8,6,6.1c1-2-3.3-10.3-5.6-15.2c1.6,2.6,3.2,5.2,4.8,7.8
						c0.5,0.8,1.3,1.7,2.2,1.3c0.9-0.4,0.7-1.7,0.3-2.7c-1.7-4.4-4.4-8.3-5.6-12.9c-1.2-4.5-0.3-10.2,3.6-12.6
						c-3.1-2.7-5.8-5.8-7.9-9.4C595.3,396.6,593.6,398.5,592.2,399.5"/>
					<path class="st1" d="M579.5,324.1c10.5,19.4,23.1,28.9,36.5,41.7c-5.5,6.6-11.1,13.2-16.6,19.8c-4.9,5.8-9.7,12.6-9.7,12.6
						l12.3,18c0,0,18.8-8.6,39.4-32.4c5.3-6.1,10.6-13,11.2-21.1c0.5-6.5-2.1-12.8-4.9-18.6c-12-25.1-29-46.1-47.8-72
						C584.4,251,548.4,266.7,579.5,324.1"/>
					<path class="st5" d="M647.6,344c-12-25.1-29-46.1-47.8-72c-4.7-6.5-11.5-9.5-17.5-8.9c0.6,0.4,1.2,0.8,1.8,1.2
						c11.2,7.6,19.3,19.1,25.1,31.4c1.5,3.1,2.8,6.3,4,9.6c0.6,1.6,1.2,3.3,1.7,4.9c0.6,1.8,1,3.5,1.5,5.3c1,3.8,2.6,7.5,4.9,10.6
						c2.1,2.8,4.7,5,7.3,7.3c5,4.3,9.6,8.9,12.1,15.2c2.4,6,3,12.7,1.8,19.1c-1.4,7.1-5.2,12.9-10.1,18c-2.7,2.8-5.7,5.2-8.6,7.9
						c-3.1,2.8-6.3,5.5-9.5,8.1c-2.9,2.4-5.9,4.7-8.4,7.6c-1,1.2-1.9,2.6-2.3,4.2c-0.2,0.7-0.2,1.4-0.2,2.1
						c4.7-2.5,20.7-11.7,38-31.7c5.3-6.1,10.6-13,11.2-21.1C653,356.1,650.4,349.9,647.6,344"/>
					<path class="st10" d="M618.6,363.4c4.1,0.5,8.4-1.2,11.2-4.4"/>
					<path class="st10" d="M617.8,366.3c1.9,3.5,5.8,5.9,9.8,5.9"/>
					<path class="st10" d="M619.5,365.3c1.8,1.2,4.1,1.5,6.2,1.2c2.1-0.3,4.1-1.2,6-2.3c0.1,0,0.2-0.1,0.1-0.2c0-0.1-0.2,0-0.1,0"/>
					<path class="st9" d="M595.3,395.3c3,6.2,7.3,11.7,12.5,16.1"/>
				</g>
				<path class="st5" d="M518.3,256.5c-1.7,10.1,1,19.2,5.5,28.3c12.4-11.4,5.1-12.4,21.7,3.4c7.4-10.2,15.6-17.6,23-27.8
					c-7.4,7.7-28.9-15.5-51.5-2.4"/>
				<g>
					<g>
						<path class="st8" d="M522.9,203.1c-3.8,5.6-6.3,12-7.3,18.7c-0.9,6-0.5,12.5,2.2,17.9c2.8,5.4,8.2,9.6,14.2,9.7
							c8.2,0.1,14.7-7.1,18.7-14.4c2.1-3.8,2.8-6.3,3.2-10.6c0.7-7.9-2.5-17.5-9.3-21.4C537.8,199.3,526.7,197.5,522.9,203.1"/>
						<path class="st8" d="M527.8,231.3c1,11.7,0.8,29,0.5,35.1c0,0.7-0.1,1.6,0.4,2.1c0.3,0.4,0.8,0.5,1.3,0.7
							c6.7,2.2,14.2,1.8,20.6-1.1c0.4-0.2,0.8-0.4,1.1-0.8c0.2-0.4,0.2-0.9,0.1-1.4c-1.4-12.2,0.3-25.9-1.1-38.1
							C544.4,229,534.7,231.2,527.8,231.3"/>
						<path class="st8" d="M548.2,227.7c-0.4,1.3-0.7,2.7-0.2,3.9c1.2,2.5,5.6,3,8.2,1.4c2.6-1.6,3.7-4.4,4.1-7.2
							c0.2-1.3,0.1-2.7-1-3.6c-0.6-0.4-1.3-0.6-2.1-0.7C555.1,221.3,549,225.3,548.2,227.7"/>
						<path class="st11" d="M539.4,203.3c-3.6,0.1-7.2,1.7-9.8,4.3c-2.9,2.9-4.3,7-6.7,10.3c-2.4,3.3-6.5,6.1-10.3,4.8
							c-3.4-1.2-4.9-5.3-4.9-8.9c0-20.5,17.1-25,23.3-26c7.3-1.2,18.7,0,27.1,8.8c5.1,5.4-1.8,16.9-3.3,24.3
							c-1.4-4-2.9-8.2-5.5-11.5C546.4,206,542.3,203.5,539.4,203.3"/>
						<path class="st11" d="M540,217.6c-1.3-0.2-2.6-0.1-3.9,0.1c-0.3,0.1-0.7,0.2-0.9,0.4c-0.2,0.2-0.2,0.7,0.1,0.9
							c0.2,0.1,0.5,0.1,0.7,0c2.1-0.5,4.5-0.3,6.5,0.6c0.3,0.1,0.6,0.3,0.9,0.3c0.3,0,0.7-0.3,0.6-0.6c-0.1-0.2-0.2-0.3-0.4-0.4
							C542.3,218.1,540.9,217.7,540,217.6"/>
						<path class="st11" d="M538.4,221.6c0-0.8,0.7-1.5,1.5-1.5c0.8,0,1.5,0.7,1.5,1.5c0,0.8-0.7,1.5-1.5,1.5
							C539,223.1,538.4,222.4,538.4,221.6"/>
						<path class="st11" d="M523.4,216.7c-1.3,0.1-2.6,0.5-3.8,1c-0.3,0.1-0.6,0.3-0.8,0.6c-0.2,0.3-0.1,0.7,0.3,0.8
							c0.2,0.1,0.5-0.1,0.7-0.2c2-1,4.3-1.3,6.4-0.9c0.3,0.1,0.7,0.1,1,0c0.3-0.1,0.6-0.4,0.4-0.7c-0.1-0.2-0.3-0.2-0.5-0.3
							C525.8,216.7,524.3,216.7,523.4,216.7"/>
						<path class="st11" d="M522.6,220.7c-0.2-0.8,0.3-1.6,1.1-1.8c0.8-0.2,1.6,0.3,1.7,1.1c0.2,0.8-0.3,1.6-1.1,1.8
							C523.6,222,522.8,221.5,522.6,220.7"/>
						<path class="st12" d="M529.8,219.8c-1.1,3.5-2.9,6.7-5.4,9.3c-0.3,0.4-0.7,0.8-0.7,1.3c0,0.2,0.2,0.5,0.3,0.7
							c0.9,1.2,2.5,1.7,3.8,1.3"/>
						<path class="st1" d="M521.6,234.4c3.9,2.5,9.1,2.7,13.2,0.4c-1,3-3.9,5.4-6.9,5.3C524.8,240.1,521.9,237.3,521.6,234.4"/>
						<path class="st1" d="M550.1,233.1c0-1.8,1.4-3.3,3.2-3.3c1.8,0,3.2,1.5,3.2,3.3c0,1.8-1.4,3.3-3.2,3.3
							C551.6,236.4,550.1,234.9,550.1,233.1"/>
					</g>
					<g>
						<g>
							<path class="st7" d="M530.6,270.8c-2.2,1.8-1.8,2.4-2.2,5.1c-0.5,2.7,0.6,5.7,3,7.3c2.4,1.6,6,1.4,7.9-0.7
								c0.7-0.8,1.1-1.8,1.4-2.8c0.7-2.6,0.4-5.5-1.3-7.7c-1.7-2.2-6.4-3.1-7.7-2.1L530.6,270.8z"/>
							<path class="st7" d="M532.2,277.2c-1,12-3.2,24-6.5,35.7c-0.9,3.2-1.8,6.3-1.9,9.6c-0.1,7.7,6.1,37.8,10.7,44.1
								c3.1-4.8,10.4-41.4,10.8-43.5c0.4-2.1-0.1-4.2-0.6-6.3c-2.7-12-5.4-24-8-36.1c-0.3-1.3-0.7-2.7-1.8-3.5
								C533.8,276.5,531.7,277.1,532.2,277.2"/>
						</g>
						<g>
							<path class="st1" d="M518.3,256.5c-0.3,4.1,2.1,8.4,2.5,12.5c0.5,4.1,1.6,8.2,4,11.6c2.5-4.4,6-8.2,10.2-10.9
								c-3-0.8-5.4-3.5-6.1-6.6c-0.4-2.1-0.4-7.2-0.3-10.9c0,1.3-3.1,1.1-5.2,1.8C520.5,254.9,518.3,256.5,518.3,256.5z"/>
							<path class="st1" d="M545,263.9c-3.8,2-7.3,4.4-11.3,5.8c5.5,1.7,7.4,9.4,12.7,11.8c0.8-2.9,2.4-5.5,4.6-7.6
								c1.4-1.4,3.1-2.5,4.5-3.9c3.6-3.8,4.5-9.4,5.3-14.7c-3.3-0.4-6.6-3-9.5-3.9C551.2,251.5,550.6,261,545,263.9z"/>
						</g>
					</g>
				</g>
				<path class="st13" d="M528.2,248.8c6.6,1.6,14-3.5,16-9.8c-1.8,5.7-2.5,6.6-5.4,9.8c-2.5,2.8-6.7,5.3-10.3,5.4
					C528.4,252.8,528.2,248.8,528.2,248.8z"/>
				<path class="st5" d="M502.5,290.3c-1.4,5.7-0.8,11.8,1.6,17.1c1.1,2.5,2.8,4.8,5.3,5.8c3.7,1.4,8-1,10.1-4.4
					c2.1-3.4,2.6-7.6,3.1-11.7c0.3-2.4,0.5-4.8,0.8-7.2C516.3,290.4,509.1,290.3,502.5,290.3"/>
				<path class="st11" d="M496.1,375.7c0,0-11.4,41.5-12.9,53.5s0,15,0,15s38.4,12.6,70.8,10.5c30.7-2,48.1-8,48.1-8l-18.8-71
					c0,0-29.4,5.5-47.2,5.5C515,381.2,496.1,375.7,496.1,375.7z"/>
				<path class="st10" d="M545.7,374.5c1.9-2.6,3.1-4.8,5.6-7.2c2.9-2.7,4.2-6.2,5.7-9.8"/>
				<g>
					<g>
						<path class="st14" d="M421.6,149.6c-0.1-17.5,16.4-15.5,16.4-15.5C432.5,157.2,421.6,149.6,421.6,149.6z M418.5,149.9
							c-2-17.3-18.1-11.7-18.1-11.7C408.7,159.8,418.5,149.9,418.5,149.9z M421.4,175.6c0.2-2.9,0.2-5.7,0.3-8.4
							c4.7,1.4,15.1,1.8,21.5-19.1c0,0-15.5-1.9-21.6,8.5c-0.2-8.4-0.8-14.4-1-16.1c1.5-1.5,3.8-4.9,3.6-10.8
							C424,121.1,419,118,419,118s-4.1-3.5-2.8-7.9c0,0-11.7,21.8,2.1,30.6c0.2,1.5,0.8,10.3,0.6,22.1c-5-16.4-26.7-11-26.7-11
							c10.5,22.5,23.1,17.3,26.6,15.3c-0.1,4-0.4,8.2-0.7,12.5c-7.3-15.4-33.3-11.4-33.3-11.4c11.2,23.6,26.5,21.3,32.5,19.2
							c-0.4,3.4-0.9,6.9-1.6,10.3c0,0,2.4-0.1,3.2,0c0.7-4,1.3-8,1.7-12c4.7,2.1,18.2,5.3,27.8-19.7
							C448.4,166.1,428.6,162.4,421.4,175.6z"/>
						<g>
							<defs>
								<path id="SVGID_3_" d="M421.6,149.6c-0.1-17.5,16.4-15.5,16.4-15.5C432.5,157.2,421.6,149.6,421.6,149.6z M418.5,149.9
									c-2-17.3-18.1-11.7-18.1-11.7C408.7,159.8,418.5,149.9,418.5,149.9z M421.4,175.6c0.2-2.9,0.2-5.7,0.3-8.4
									c4.7,1.4,15.1,1.8,21.5-19.1c0,0-15.5-1.9-21.6,8.5c-0.2-8.4-0.8-14.4-1-16.1c1.5-1.5,3.8-4.9,3.6-10.8
									C424,121.1,419,118,419,118s-4.1-3.5-2.8-7.9c0,0-11.7,21.8,2.1,30.6c0.2,1.5,0.8,10.3,0.6,22.1c-5-16.4-26.7-11-26.7-11
									c10.5,22.5,23.1,17.3,26.6,15.3c-0.1,4-0.4,8.2-0.7,12.5c-7.3-15.4-33.3-11.4-33.3-11.4c11.2,23.6,26.5,21.3,32.5,19.2
									c-0.4,3.4-0.9,6.9-1.6,10.3c0,0,2.4-0.1,3.2,0c0.7-4,1.3-8,1.7-12c4.7,2.1,18.2,5.3,27.8-19.7
									C448.4,166.1,428.6,162.4,421.4,175.6z"/>
							</defs>
							<clipPath id="SVGID_4_">
								<use xlink:href="#SVGID_3_"  style="overflow:visible;"/>
							</clipPath>
							<g class="st15">
								<path class="st16" d="M427.3,189.4c0.6-0.7,0.6-2.6,0.9-3.6c0.4-1.4,0.7-3,1.3-4.4c1.4-3,3.4-5.6,5.7-7.8
									c4.1-3.9,8.4-6.6,14-7.4"/>
								<path class="st16" d="M432,189.6c0.9-5.1,4.6-9.6,8.1-13.3c2-2.1,4.1-4.3,6.5-6.1c1.4-1,4.1-2.4,4.9-3.6"/>
								<path class="st16" d="M391.3,165.4c2.3,3.7,2.7,14.5,1.9,17.9"/>
								<path class="st16" d="M393,164.7c2.3,2.4,7.7,11.6,8.1,14.8c0.5,5.3-0.3,6.1-1.1,9"/>
								<path class="st16" d="M396.8,165.8c1.7,1.5,12.2,8.5,13.9,10.2c1.6,1.6,2.7,3.4,3.6,5.5c0.9,2.3,2.6,6.8,1.7,9"/>
								<path class="st16" d="M426.8,168c0-5,0.9-9.8,4.7-13.3c2-1.9,5.1-3.7,7.9-4.4c1.6-0.4,4.7-1.1,5.9-0.5"/>
								<path class="st16" d="M428.4,167.9c0-7.3,7-11,13.8-11"/>
								<path class="st16" d="M391.9,151.1c1.1,0.9,9.2,3.7,9.2,14.2"/>
								<path class="st16" d="M400,150.4c8.3,2.7,10,19.1,9.9,18.9"/>
								<path class="st16" d="M397.3,150.6c1.1,1.9,3.3,3.5,4.7,5.4c1.3,1.7,2.2,3.5,3.1,5.5c0.8,1.9,2.5,5,1.8,7"/>
								<path class="st16" d="M423.8,151.9c-0.6-4.6,1.3-9.3,4.8-12.6c3.7-3.4,9.2-3.3,12.7-3.6"/>
								<path class="st16" d="M429.8,149.7c-2.6-5.4,4.4-10,8.8-10.6"/>
								<path class="st16" d="M417.3,111c-4.3,3.8-3.5,12-1,16.5c1.7,3.2,5.6,6.1,9.3,5.8"/>
								<path class="st16" d="M418.3,113c-1.8,3.7-1,9.1,0.8,12.6c1.1,2.1,4.7,4,6.9,2.9"/>
								<path class="st16" d="M405.2,136.2c9.6,5.1,8.9,14.2,9.9,16.5"/>
								<path class="st16" d="M402.5,136.4c1.8-0.3,4.1,5.1,4.7,6.7c0.9,2.3,3.6,7.3,4,9.6"/>
								<path class="st16" d="M409.7,136c7.6,5.9,7.4,15.6,6.1,16.9"/>
							</g>
						</g>
					</g>
					<polygon class="st7" points="401.4,192.5 408.5,219.8 428.4,219.8 434.1,192.5 					"/>
					<path class="st11" d="M425,192.5c0.1,2.3,0.1,4.6-0.2,7c-0.5,4.3-2.2,8.9-5.7,11.7c-1.8,1.4-3.5,2.1-5.8,2.5
						c-1.8,0.3-4.4,0.4-6,1.6l1.2,4.5h20l5.7-27.3H425z"/>
				</g>
			</g>
			<path class="st10" d="M507.1,430.6c2.7-10,12.9-12.1,21.3-15.5c8.5-3.4,17.6-5.9,25.4-10.7c6.3-3.9,10.5-8.3,14.5-14.5
				c0-0.3-0.2-0.3-0.5-0.2"/>
			<path class="st10" d="M533.9,438.4c0.7-2.8,1.1-5.3,3.1-7.8c2.9-3.8,7.8-5.9,11.9-7.9c13.2-6.5,19.7-14.2,18.5-15"/>
		</g>
		<g>
			<g>
				<path class="st11" d="M280,289.8c31.3,38.2,34.7,95.4,70.9,129l-15.3,14.7c-1.1,1.1-2.4,2.2-4,2.2c-1.2-0.1-2.2-0.8-3.1-1.5
					c-21-16.2-38.9-37-49.2-61.5c-10.3-24.5-12.4-52.8-3.2-77.7C276.9,293,278.6,290.4,280,289.8"/>
				<g>
					<path class="st7" d="M227.5,277.6c-18.2,1.8-55.6,15-50.6,61.1c1.4,12.5,8.1,59.7-3.2,93.1c-1,3-2.2,6.4-1,9.4
						c0.8,2.1,2.7,3.6,4.5,4.7c7.1,4.3,15.5,5.7,23.6,7c30.4,4.7,62.1,8.2,91.6-1.8c1.6-0.5,3.2-1.2,4.1-2.7
						c0.8-1.4,0.7-3.1,0.6-4.7c-3.1-42.9-6.3-85.8-9.4-128.7c-0.5-6.9-1.1-14-4.2-20c-3.7-7-10.6-11.6-17.8-13.8
						c-7.2-2.2-14.9-2.5-22.4-2.7C236.1,278.3,228.8,278.1,227.5,277.6"/>
					<path class="st11" d="M283.7,448.7c-5.9,1.3-11.9,3-18,3c-4.9,0-10.1-1.2-14.1-4.3c-0.9-0.7-1.8-1.5-2.5-2.5
						c-0.8-1-1.7-1.9-2.4-3.1c-1.3-2.2-2.2-4.7-3.9-6.7c-6-7.1-15.9-9.4-21.5-16.8c-0.7-0.9-1.4-1.9-1.8-3c-0.4-1.3-0.7-2.6-0.8-4
						c-0.3-2.7,0-5.4,0.7-8.1c1.5-5.6,4.8-10.6,8.5-15c3.6-4.3,7.6-8.3,10.8-12.8c1.6-2.3,3.5-4.9,4.1-7.6c0.6-2.5,0.7-5.9-1.2-7.9
						c-1.5-1.6-3.8-2.1-5.9-2.3c-2.3-0.1-4.7,0.1-7,0.7c-4.3,1.2-10.3,1.8-13.8-1.7c-3.5-3.5-2.3-9.5-0.6-13.5
						c1-2.4,2.1-4.8,3.3-7.2c1.2-2.5,2.6-5,4.1-7.4c3-4.6,6.6-8.8,11.1-12c4.8-3.4,10.2-5.7,15.6-7.9c2.7-1.1,5.3-2.3,7.8-3.7
						c2.5-1.4,4.7-3.3,6.7-5.3c3.1-3.1,5.6-7.1,6.1-11.4c0,0,0,0,0,0c0-0.4,0-0.8,0-1.1c0-0.1,0-0.2,0-0.2c-0.1-0.5-0.2-1.1-0.2-1.6
						c-0.1-0.8-0.2-1.6-0.3-2.4c-0.1-0.3-0.2-0.6-0.2-0.9c-0.9-0.3-1.8-0.6-2.8-0.9c-7.2-2.2-14.9-2.5-22.4-2.7
						c-7.2-0.2-14.4-0.4-15.7-0.9c-18.2,1.8-55.6,15-50.6,61.1c1.4,12.5,8.1,59.7-3.2,93.1c-1,3-2.2,6.4-1,9.4
						c0.8,2.1,2.7,3.6,4.5,4.7c7.1,4.3,15.5,5.7,23.6,7c30.4,4.7,62.1,8.2,91.6-1.8c1.6-0.5,3.2-1.2,4.1-2.7
						c0.2-0.4,0.4-0.9,0.5-1.4c-1.5,0-3,0-4.5,0.2C289.6,447.4,286.7,448,283.7,448.7"/>
					<g>
						<path class="st12" d="M232.5,346.4c1.2-4.7,5.3-8.1,9.6-10.1c4.3-2.1,9.1-3.2,13.3-5.4c7.3-3.8,13-10.7,15.3-18.7"/>
						<path class="st12" d="M228.5,410.6c-0.2-4.9,2.8-9.4,6.4-12.7c3.6-3.3,7.9-5.7,11.8-8.6c8.9-6.7,15.2-16.3,21.4-25.6"/>
						<path class="st12" d="M251.8,349.8c6.6-6.3,12.5-13.3,17.7-20.8"/>
					</g>
				</g>
			</g>
			<g>
				<path class="st8" d="M247.2,210.7c-6.1-1.5-12-2.9-18.2,2.8c-8.8,8-10.2,17.5-8,28.6c0.5,2.3-0.3,4.7-1.5,6.7
					c-1.3,2-3.5,3-5.4,4.5c-2.3,1.9-4,4.9-3.1,7.8c0.4,1.2,1.2,2.3,1.3,3.6c0.1,1.4-0.7,2.7-0.9,4.1c-0.1,1.2,0.3,2.5,0.8,3.6
					c1.6,3.1,4.7,5.5,8.1,6.3c1.7,0.4,3.5,0.4,5.2,0.6c4.7,0.6,9.4,3.1,14,1.7c3.8-1.2,6.3-4.9,7.4-8.8c1.1-3.9,1.1-7.9,1.5-11.9
					c0.4-4,1.4-8.1,4.2-11c1-1,2.1-1.9,3-2.9c1.8-2.1,2.4-5.1,2.1-7.9c-0.3-2.8-1.4-5.4-2.8-7.8C252.4,226.1,252.3,212,247.2,210.7"
					/>
				<path class="st17" d="M227.7,284c1.5,1.2,3.1,2.3,4.8,3.2c4.1,2.2,8.8,3.2,13.4,3.2c3.2,0,6.4-0.7,9.3-1.9
					c-0.1-14,0.6-27.9,2.1-41.8c-8.2-2.5-16.1-5.8-24.5-9.7C234.4,253,235.7,270,227.7,284"/>
				<path class="st18" d="M239.3,256.7c1.3,9.2,15.7,16.9,16.4,11.2C256.5,261.2,243.9,262.1,239.3,256.7"/>
				<g>
					<path class="st17" d="M244.7,222.8c-4.4,2.3-9,10.7-9.9,15.4c-2.1,11.1-0.2,15.8,8,23.9c2.5,2.5,5.6,4.7,9.1,5.6
						c6.2,1.5,13-1.6,16.8-6.6c3.8-5,4.9-11.5,4.5-17.7c-0.5-6.6-2.7-13.3-7.4-18.3c-4.6-4.9-11.8-7.8-18.6-6.5
						C244.8,219,245.6,222.3,244.7,222.8"/>
					<path class="st17" d="M238.2,240.8c-2.7-1.3-4-4.7-7.1-5c-3-0.3-5.1,2.5-5.4,4.9c-0.6,4,1.2,8.3,4.8,11.1
						c0.5,0.4,1.1,0.8,1.7,0.9c1.2,0.2,2.3-0.4,3.2-1C239,248.9,239.9,243.9,238.2,240.8"/>
					<g>
						<path class="st11" d="M245.1,239.7c1.2-1,1.9-2,4-2.4c1.6-0.3,3.5-0.3,5,0.4c0.1-0.7-0.2-1.5-1.1-1.6
							C249.7,235.6,246.1,237.1,245.1,239.7"/>
						<path class="st11" d="M248.3,239.8c0.1-0.7,0.7-1.2,1.5-1.1c0.7,0.1,1.2,0.8,1.1,1.5c-0.1,0.7-0.7,1.2-1.5,1.1
							C248.7,241.2,248.2,240.5,248.3,239.8"/>
						<path class="st11" d="M262.5,239.8c0.1-0.7,0.7-1.2,1.5-1.1c0.7,0.1,1.2,0.8,1.1,1.5c-0.1,0.7-0.7,1.2-1.5,1.1
							C262.9,241.2,262.4,240.5,262.5,239.8"/>
						<path class="st11" d="M261.5,236.6c-0.1,0.4,0,0.9,0.3,1.2c1-0.5,2.3-0.6,3.4-0.5c1.2,0.1,2.3,0.5,3.4,0.8
							c-1.3-0.7-2.6-1.3-4-1.7C263.5,236,262.3,235.9,261.5,236.6"/>
						<path class="st19" d="M259,238.9c0.1,1.8,0.9,3.5,2.1,4.8c0.7,0.7,1.5,1.3,1.9,2.2c0.6,1.4-0.2,3.3-1.6,3.8
							c-1.2,0.4-2.5,0-3.8,0"/>
						<path class="st20" d="M253.1,252.9c1.6,1.4,3.5,2.5,5.6,2.8c2.1,0.3,4.4-0.4,5.7-2"/>
						<path class="st18" d="M244.2,246.8c0.2-1.7,1.9-2.9,3.6-2.7c1.8,0.2,3.1,1.8,2.8,3.5c-0.2,1.7-1.9,2.9-3.6,2.7
							C245.2,250,243.9,248.5,244.2,246.8"/>
						<path class="st18" d="M266.4,246.6c0.2-1.4,1.5-2.3,2.9-2.1c1.4,0.2,2.4,1.4,2.3,2.8c-0.2,1.4-1.5,2.3-2.9,2.1
							C267.2,249.2,266.2,247.9,266.4,246.6"/>
					</g>
					<g>
						<path class="st8" d="M235.3,224.3c1.8,1.4,4.3,2,6.5,1.4c2.2-0.6,4.2-2,6.4-2.8c2.2-0.8,4.8-1.1,6.7,0.2
							c2.1,1.4,2.6,4.3,4.7,5.8c2.3,1.6,5.8,1,7.9,2.8c2.7,2.3,1.4,6.9,3.7,9.6c1.6,1.9,4.5,2.2,6.9,1.6c4.4-1.2,7.8-5.1,8.5-9.5
							c0.8-4.4-0.9-9-3.9-12.4c-3-3.4-7.3-5.6-11.8-6.7c-1.3-0.3-2.5-0.5-3.8-1c-3-1.1-5.2-3.7-8-5.1c-4.6-2.2-10.2-1.2-14.5,1.4
							C240.5,212.2,231.2,221.1,235.3,224.3"/>
						<path class="st8" d="M236,222.3c-1.9,2.3-3.3,5.1-3.8,8.1c-0.5,3-0.1,6.2,1.5,8.7c0.8,1.2,1.8,2.4,1.9,3.8
							c0.2,1.8-1.1,3.5-1.1,5.4c0.1,1.6,1.3,3,2.9,3.3c-1.6-1.6-0.9-4.3,0.3-6.2c1.2-1.9,2.8-3.7,2.9-5.9c0.1-2.7-2.1-5.2-1.5-7.8
							c0.3-1.1,1-2.1,1.3-3.2c0.3-1.3-0.3-2.7-1.1-3.7C238.3,223.7,237.1,223,236,222.3"/>
					</g>
				</g>
			</g>
			<g>
				<path class="st1" d="M231.7,274.6c-5.3,1-7.5,2.8-15,4.9c4,1.9,7.8,11.8,10.6,15.2c2.8,3.4,6.8,6.6,11.2,5.7
					c1.2-4.7,4.1-7.6,8.3-9.9c-5.9-1.8-9.8-4.3-13.8-9.1C231.8,280.2,231.1,277.4,231.7,274.6"/>
				<path class="st1" d="M255.4,277.9c-0.4,7.2-1.3,9-4.7,11c-1.1,0.6-3.1,0.8-4,1.6c-0.3,0.2-0.3-0.1,0,0c3.9,0.9,8.6,3.2,12.2,5
					c0.6-5.2,2.5-10.5,5.8-14.5C260.8,279.2,258.3,278.6,255.4,277.9"/>
			</g>
			<g>
				<g>
					<path class="st21" d="M161.2,408.8l44.4-48c2.3-2.4,6.1-2.6,8.5-0.3l32,30.2c2.4,2.3,2.5,6.1,0.3,8.6l-44.4,48
						c-2.3,2.4-6.1,2.6-8.5,0.3l-32-30.2C159,415,158.9,411.2,161.2,408.8"/>
					<polygon class="st1" points="161.4,413.7 209.6,361.5 245.4,395.2 197.1,447.4 					"/>
					<polygon class="st22" points="213.7,374 219.3,367.9 238.3,385.9 232.7,391.9 					"/>
					<g>
						<polygon class="st5" points="203.4,372.6 203.9,372 235.8,402.1 235.3,402.7 						"/>
						<polygon class="st5" points="201.5,374.7 202,374.1 233.9,404.2 233.4,404.7 						"/>
						<polygon class="st5" points="199.7,376.6 200.2,376.1 232.1,406.1 231.6,406.7 						"/>
						<polygon class="st5" points="193,383.9 193.5,383.3 225.4,413.4 224.9,413.9 						"/>
						<polygon class="st5" points="191.1,385.9 191.6,385.4 223.5,415.4 223,416 						"/>
						<polygon class="st5" points="189.3,387.9 189.8,387.3 221.7,417.4 221.1,418 						"/>
						<polygon class="st5" points="186.9,390 187.4,389.4 219.3,419.5 218.8,420 						"/>
						<polygon class="st5" points="185,392 185.5,391.5 217.4,421.5 216.9,422.1 						"/>
						<polygon class="st5" points="183.2,394 183.7,393.4 215.6,423.5 215.1,424.1 						"/>
						<polygon class="st5" points="173.2,405.2 175.4,402.8 205.9,431.6 203.7,433.9 						"/>
						<polygon class="st5" points="180.1,397.8 181.9,395.8 189.4,402.8 187.6,404.8 						"/>
						<polygon class="st5" points="193,432.6 195,430.3 201.4,436.4 199.4,438.6 						"/>
					</g>
				</g>
				<g>
					<path class="st17" d="M179.4,437.9c2.4,2.2,4.4,4.8,6,7.6c1,1.7,9.1,10.6,16,9c1-0.2,1-0.2,1.7-1.3c0.8-1.3-0.6-1.4-1.7-3
						c1.4,2,3.9,1.9,5.9,0.6c1.6-1.1,1.2-3.3-0.7-4.3c1.9,0.6,3.5-0.1,4.8-1.5c1-1.1,0.3-5.5-0.5-6.7c-0.9-1.2-1.7,1.8-2.3,1
						c-0.2-0.2-3.9-1.9,0.1-2.1c0.6,0,1.3-0.2,1.9-0.3c2.9-0.5,8.7-5.2,6.8-6.9c-3.2-2.8-16.6,0.2-21.8-3.1c-0.7-0.4-1.3-0.9-2.1-1
						c-1.3-0.1-2.3,0.8-3.2,1.6C186.5,431,182.8,434.4,179.4,437.9"/>
					<g>
						<path class="st7" d="M198.1,288.7c-8.6-0.3-14.6,7.8-20.5,14.1c-13.6,14.5-26.4,29.8-38.4,45.8c-5.9,8-11.9,16.8-12.1,26.7
							c-0.2,7.6,3.1,14.9,6.9,21.5c10.9,19.3,26.4,35.9,44.8,48.1c6.3-8.1,14-15.1,22.6-20.5c-7.9-18.1-19.2-34.6-33.3-48.3
							c19.4-12.4,33.5-32.9,38.3-55.5c1.2-5.8,1.8-11.8,0.3-17.5c-1.5-5.7-5.4-11-7.7-12.9L198.1,288.7z"/>
						<g>
							<path class="st12" d="M160.4,376.8c2,0.5,4.1,0.5,6,0"/>
							<path class="st12" d="M161.8,372.2c1.2,1.5,2.8,2.7,4.7,3.3"/>
							<path class="st12" d="M162.6,366.9c0.8,3,2.7,5.6,4.7,8"/>
						</g>
						<g>
							<path class="st12" d="M175,441.6c5-9.4,14.3-15.6,23.5-21"/>
							<line class="st12" x1="177.7" y1="439" x2="180.5" y2="441.8"/>
							<path class="st12" d="M179.3,436.7c1.1,1,2.2,2.1,3.2,3.3"/>
							<path class="st12" d="M181.8,434.4c1.1,1,2.2,2,3.2,3.1"/>
							<path class="st12" d="M184.5,431.6c1.2,1,1.9,2.5,3.3,3.1"/>
							<path class="st12" d="M187.9,428.4c0.9,1,1.8,2.1,2.6,3.3"/>
							<line class="st12" x1="191.1" y1="426.2" x2="193.4" y2="429.7"/>
							<path class="st12" d="M194.2,424.3c0.6,1,1.3,2,1.9,3"/>
							<path class="st12" d="M196.9,422.4c0.6,1,1.3,2,2,2.9"/>
						</g>
						<path class="st11" d="M175.6,429.5c-7-2.9-12.6-7.1-16.2-13.9c-1.7-3.1-3.1-6.3-5-9.2c-2.2-3.2-4.9-5.6-8-7.9
							c-5-3.8-7.7-9.5-8-15.8c-0.5-11.7,5-21.3,12.5-29.9c3.8-4.3,7.8-8.4,11.3-12.9c4.4-5.6,7.1-11.2,9.3-17.9
							c2.4-7.2,7-12.3,11.9-17.9c4.6-5.3,9.3-10.6,15.7-13.8l-1-1.5c-8.6-0.3-14.6,7.8-20.5,14.1c-13.6,14.5-26.4,29.8-38.4,45.8
							c-5.9,8-11.9,16.8-12.1,26.7c-0.2,7.6,3.1,14.9,6.9,21.5c10.9,19.3,26.4,35.9,44.8,48.1c3-3.8,6.2-7.3,9.8-10.6
							C184.4,432.6,179.9,431.2,175.6,429.5z"/>
					</g>
				</g>
			</g>
		</g>
		<g>
			<g>
				<g>
					<path class="st1" d="M328.9,323.8c-11.7,2.1-23.2,5.7-34,10.7c-5.3,2.5-10.7,5.4-14.3,10.1c-3.9,5.1-5.2,11.7-6.2,18
						c-4.2,27.1-4.4,54.8-0.4,81.9c0.4,2.5,0.9,5.2,3,6.6c1.4,0.9,3.1,1.1,4.8,1.2c45.6,3,91.5,6,137,1.5
						c-11.9-29.6-4.2-62.9-4.8-94.8c-0.1-4.2-0.4-8.5-2.2-12.3c-3.6-7.2-12-10.4-19.7-13C370.6,326.4,347.9,320.4,328.9,323.8"/>
					<path class="st5" d="M412.8,427.9c-1.2-0.7-2.4-1.2-3.7-1.7c-1.7-0.7-3.4-1.3-5.2-1.7c-3.6-0.8-7.3-1.1-10.9-1.2
						c-7.4-0.3-14.9-0.2-22.1-2.2c-20.1-5.6-22.9-13.3-38.5-41.1c-1.6-2.8-4.4-5.2-4.7-8.5c-0.2-1.8,0.4-3.5,1.5-5
						c0.5-0.7,1-1.1,1.7-1.5c0.7-0.5,1.3-1.1,2-1.6c5.5-4.1,12.6-6.3,19.4-5.3c3.8,0.6,7.9,1.8,11.7,1c3.6-0.8,6.5-3.8,8.7-6.5
						c2.4-3,4.4-6.6,6-10.1c1.6-3.5,2.9-7.2,3.8-10.9c0,0,0,0,0,0c0-0.3,0.1-0.6,0.1-0.8c-18.5-5.7-37.5-9.7-53.6-6.8
						c-11.7,2.1-23.2,5.7-34,10.7c-5.3,2.5-10.7,5.4-14.3,10.1c-3.9,5.1-5.2,11.7-6.2,18c-4.2,27.1-4.4,54.8-0.4,81.9
						c0.4,2.5,0.9,5.2,3,6.6c1.4,0.9,3.1,1.1,4.8,1.2c45.6,3,91.5,6,137,1.5C415.5,445.3,413.7,436.7,412.8,427.9"/>
				</g>
				<path class="st9" d="M346.5,346.4c4.1,24.4,8.3,48.9,12.4,73.3"/>
				<g>
					<path class="st10" d="M316.8,373.5c0.9,4.1,3.9,7.5,7.2,10.2c3.3,2.7,6.9,5,9.9,8.1c3.9,4,6.4,9.1,8.8,14.1"/>
					<path class="st10" d="M319.4,396.3c4.3,5.2,9.2,9.9,14.5,14.1"/>
					<path class="st10" d="M365.9,390c3.1,8.6,10.9,14.8,18.7,20"/>
					<path class="st10" d="M375.8,356.3c4.8,5.9,8.5,12.6,11,19.7c0.5,1.3,0.9,2.8,2,3.8"/>
				</g>
			</g>
			<g>
				<path class="st1" d="M408.4,341.6c-3.9,16.1-5.5,32.8-4.8,49.3c0.2,3.6,0.5,7.2,1.6,10.7c1.6,4.9,4.8,9.1,8.1,13.1
					c8.4,10.3,17.4,20.2,27,29.5c1.7,1.6,3.4,3.3,5.6,4.2c1.9,0.8,4.1,1,6.2,0.9c13-0.2,26.2-7.6,38.4-3.2
					c-6-12.7-12-25.4-20.2-36.9c-5.9-8.3-12.9-15.9-19.8-23.4c-10.1-10.9-20.1-21.8-30.2-32.7C416.5,348.9,412.7,344.8,408.4,341.6"
					/>
				<path class="st5" d="M464.4,446.9c-3.8-3.2-6.2-7.7-8.5-12c-1.2-2.2-2.4-4.4-3.7-6.5c-1.3-1.9-2.7-3.9-4.6-5.3
					c-2.1-1.6-4.8-2.5-7.2-3.5c-2.5-1-5-1.9-7.3-3.2c-4.8-2.6-8-6.9-9.3-12.2c-1.3-5.3-0.8-10.9-0.7-16.3c0-3.2,0.2-6.5,0.1-9.7
					c-0.1-3.4-0.4-6.8-0.8-10.2c-0.8-5.9-2.2-11.7-4.1-17.3c-3.1-3.4-6.3-6.6-9.9-9.3c-3.9,16.1-5.5,32.8-4.8,49.3
					c0.2,3.6,0.5,7.2,1.6,10.7c1.6,4.9,4.8,9.1,8.1,13.1c8.4,10.3,17.4,20.2,27,29.5c1.7,1.6,3.4,3.3,5.6,4.2c1.9,0.8,4.1,1,6.2,0.9
					c4.3-0.1,8.7-0.9,13-1.9C464.8,447.2,464.6,447.1,464.4,446.9"/>
			</g>
			<g>
				<path class="st23" d="M328,308.6c0.5,9.6,1,19.2,1.4,28.8c0,0.5,0,1,0.3,1.4c0.3,0.5,1,0.9,1.6,1.3c3.9,2.3,8.8,2.3,13,5
					c3.3,2.1,6.5-0.4,9.5-1.4c1.7-0.5,3.3-1.2,4.4-2.3c1.8-1.9,1.6-4.4,1.2-6.7c-1.4-9.1-2.8-18.1-4.2-27.2
					C346.3,306.9,337.3,307.5,328,308.6"/>
				<path class="st23" d="M333.1,267.7c-4.4,0.6-8,4.2-9.7,8.2c-1.7,4-1.9,8.6-1.9,12.9c0.1,8.4,1.1,17.2,6,24.1
					c4.8,6.9,14.6,11.1,22.3,7.5c3-1.4,5.4-3.8,7.2-6.5c3.9-6.1,4.7-13.5,5.4-20.7c0.6-6,1-12.4-2.1-17.5c-2.7-4.4-7.8-7-13-7.9
					C342,267,336.7,267.2,333.1,267.7"/>
				<path class="st11" d="M331.7,286.4c-1.9,0-3.8,1.3-4.7,3.2c2.9-1.4,6.3-1.7,9.4-0.7c0.3-0.4,0.2-1.1-0.2-1.5
					c-0.4-0.4-0.9-0.5-1.4-0.5C333.5,286.6,332.3,286.4,331.7,286.4"/>
				<path class="st11" d="M346,285.6c-0.6,0.2-1.2,0.5-1.7,0.8c-0.2,0.1-0.5,0.3-0.5,0.6c0,0.5,0.7,0.6,1.2,0.5c1-0.2,2-0.4,3-0.6
					c1.5-0.3,3-0.6,4.4-0.1c0.6,0.2,1.3,0.6,1.9,0.4c-0.1-0.8-0.6-1.4-1.3-1.7c-0.6-0.3-1.4-0.4-2.1-0.4
					C349.1,285.1,347.2,285.2,346,285.6"/>
				<path class="st11" d="M331.6,291c0-0.8,0.7-1.5,1.5-1.5c0.8,0,1.5,0.7,1.5,1.5c0,0.8-0.7,1.5-1.5,1.5
					C332.2,292.5,331.6,291.8,331.6,291"/>
				<path class="st11" d="M347.2,291c0-0.8,0.7-1.4,1.6-1.4c0.9,0,1.6,0.6,1.6,1.4c0,0.8-0.7,1.4-1.6,1.4
					C347.9,292.4,347.2,291.8,347.2,291"/>
				<path class="st19" d="M340.2,288.3c0.1,2.7-0.7,5.5-2.3,7.7c-0.7,1-1.6,2-1.8,3.3c-0.2,1.2,0.7,2.7,2,2.6"/>
				<path class="st1" d="M332.5,305c4.2,2.8,10.2,2.7,14.2-0.2c-0.4,1.7-1.1,3.3-2.3,4.5c-1.2,1.2-2.9,2-4.6,2
					c-1.7-0.1-3.3-1-4.6-2.3C334.1,307.8,333.2,306.3,332.5,305"/>
				<path class="st11" d="M323.4,261.3c-14.3-0.6-18.5,8.6-15,18.7c3,8.7,13.3,8.8,17,5.1c2-2,5-6.1,7-8.1c4.5-4.5,10.1-7,15-3.9
					c1.3,0.8,2.5,2,4,2.5c2.4,0.9,5.1,0.2,7.4,1.4c3.3,1.8,3.8,9.9,3.8,13.8c7.4,0,7.2-8.8,7.2-15c0-4.7,0.9-7.9-3.4-13.2
					c-0.9-1.1-2.2-6.9-8.6-6.9c-8.3,0-7.6-4.7-17.5-4.2C327.8,252.4,333.1,261.7,323.4,261.3"/>
				<path class="st23" d="M360,294c0.5-2.1,1.4-4.1,2.6-5.9c0.6-0.9,1.4-1.9,2.6-2.2c1.4-0.4,3,0.3,3.8,1.2c0.9,1,1.1,2.2,1.2,3.5
					c0.1,3.3-1.3,6.7-4,9.2c-1.1,1-2.8,2-4.4,1.5c-2-0.6-2.2-2.9-2-4.7C360.1,295.1,360.2,293.5,360,294"/>
				<path class="st8" d="M329.1,314.3c3.4,3.6,8.3,5.7,13.2,5.6c4.9,0,9.8-2.1,13.3-5.6c-2.8,4.5-8.1,7.4-13.4,7.4
					C336.9,321.7,331.7,318.8,329.1,314.3"/>
			</g>
			<g>
				<path class="st1" d="M328.5,322.8c-3.4,1.4-9.9,1.5-13.3,2.8c-0.4,0.2-0.8,0.3-1,0.7c-0.3,0.5-0.2,1.1-0.1,1.7
					c1.2,5.9,2.5,11.9,4.8,17.5c2.3,5.6,5.8,10.9,10.7,14.3c4.3-6.2,10.5-11,17.5-13.8C337.5,340.7,329.1,334,328.5,322.8"/>
				<path class="st1" d="M347.4,346c8.3-5.2,11.2-15.2,9.7-24.9c7.8,1.3,11.1,3.2,18.6,6.5c-4.6,10-5.8,18.2-12.4,27
					c-0.5,0.6-1.1,1.3-1.9,1.2c-0.6-0.1-1-0.6-1.3-1C356.7,350.7,352.1,347.8,347.4,346"/>
			</g>
			<g>
				<g>
					<path class="st23" d="M369.9,426.4c21.4,3.4,43.6-10.7,64.4-4.9c1.5,0.4,3,1,3.8,2.2c-4.9,6-13.7,2.4-19.5,3.5
						c4-0.3,5.5,4.5,4,6.7c-0.9,1.3-2.7,2.2-3.3,3.7c-0.3,0.7-0.2,1.5-0.3,2.3c-0.4,5-6,8.5-11.6,9.3c-5.6,0.7-11.2-0.6-16.8-1.3
						c-6-0.8-12.1-0.9-18.2-0.4c-0.8,0.1-1.8,0.1-2.4-0.4c-0.3-0.3-0.4-0.8-0.5-1.2C368.3,439.1,368.5,432.3,369.9,426.4"/>
					<g>
						<path class="st9" d="M378.1,426.5c0.5,0.8,0.9,1.6,1.3,2.3"/>
						<path class="st7" d="M376.9,427c-2.6,6.4-2.1,20.1,1.6,20.4c0,0,4.3,0.1,4.2-0.3c-0.6-6.9-1.7-12.6,1.1-20.6
							C381.8,426.7,378.5,426.8,376.9,427"/>
						<path class="st11" d="M374.9,429c0-2.5,2.1-4.4,4.8-4.4c2.6,0,4.8,2,4.8,4.4c0,2.5-2.1,4.4-4.8,4.4
							C377,433.4,374.9,431.4,374.9,429"/>
						<path class="st1" d="M375.8,428.8c0-2,1.7-3.6,3.8-3.6c2.1,0,3.8,1.6,3.8,3.6c0,2-1.7,3.7-3.8,3.7
							C377.5,432.5,375.8,430.8,375.8,428.8"/>
						<path class="st24" d="M380.7,426.4c-0.3,1-0.6,2-1.1,2.9c0,0-0.1-0.1-0.1-0.1l-1.8-1.9"/>
						<path class="st10" d="M377.4,427.1c0.7,0.6,1.4,1.2,2,1.9l0.2,0.1"/>
					</g>
				</g>
				<g>
					<path class="st1" d="M274.2,347.1c-34.8,31.3-19,85.1-9,97.9c3.4,4.5,10,6.8,15.5,7.8c41,7.9,58.3,4.2,85.1-1.1
						c1-0.2,2.1-0.2,3-0.7c3.2-1.8,2.1-6.5,1.3-10c-1.4-6-0.5-12.6,2.4-18c-19.7-5.2-40.9-2.5-60.5-8.3c-1.1-0.3-2.3-0.7-3.2-1.4
						c-2.4-1.9-2.3-5.5-2-8.6c1-12.3,1.4-24.8-2-36.6c-3.4-11.8-5-25.3-16.4-29.9C288.4,338.2,279,342.8,274.2,347.1"/>
					<path class="st9" d="M354.5,421.6c-3.7,5.3-6.4,11.3-7.9,17.7c-0.2,0.8,7.1,3.4,11.7,3.3c3.2-0.1,6.7-1.4,8.3-4.2"/>
					<path class="st9" d="M347.9,443.9c-0.9,2.9-0.7,6.1,0.4,9"/>
					<path class="st7" d="M356.8,434c0-1,0.8-1.8,1.8-1.8c1,0,1.8,0.8,1.8,1.8c0,1-0.8,1.8-1.8,1.8C357.6,435.8,356.8,435,356.8,434
						"/>
					<path class="st25" d="M304.2,413.3c-6,0.3-11.8,2.3-16.4,5.7"/>
					<path class="st25" d="M307.4,415.2c-4.9,2-9.1,5.4-11.9,9.5"/>
					<path class="st25" d="M309.4,417.1c-2.6,1.7-4.8,3.9-6.3,6.5"/>
				</g>
			</g>
			<g>
				<path class="st7" d="M439,379.4l-19.7,78.1l103.9-0.6l19.7-74.6c1.8-6.8-3.1-13.6-10.2-14l-73.2-4
					C449.9,363.8,441.3,370.1,439,379.4"/>
				<path class="st11" d="M516.3,452c-2.9-1.9-6-3.6-8.8-5.8c-1.3-1.1-2.5-2.2-3.4-3.7c-0.9-1.4-1.6-2.9-2.3-4.4
					c-1.4-2.8-2.9-5.6-5.6-7.4c-2.4-1.7-5.3-2.5-8.2-2.9c-1.6-0.2-3.2-0.2-4.8-0.3c-1.9-0.1-3.9-0.3-5.8-0.3
					c-3.9-0.1-7.7-0.1-11.5-0.9c-2.7-0.5-5.4-2.1-7.5-3.8c-2-1.6-3.6-3.8-4.4-6.4c-0.4-1.4-0.5-2.9-0.6-4.4c-0.1-1.8,0.5-3.6,1-5.3
					c0.3-0.9,0.5-1.7,0.9-2.6c0.3-0.7,0.6-1.4,0.9-2.1c0.7-1.5,1.4-3,2.2-4.5c1.5-2.9,3.2-5.7,5.1-8.4c3.7-5.4,8-10.3,13.1-14.3
					c4.5-3.6,9.5-6.5,14.9-8.5l-32-1.8c-9.6-0.5-18.2,5.8-20.6,15.1l-19.7,78.1l101.7-0.6C519.8,455,518.3,453.3,516.3,452"/>
				<rect x="361.5" y="450.5" class="st7" width="60.3" height="7"/>
				<path class="st26" d="M496.5,390.8c0,0-6.3,2-8,6.1c-1.7,4,1.1,9.4,3.4,8.7c2.2-0.7,4.1-2.7,5-5.4
					C497.8,397.5,496.5,390.8,496.5,390.8"/>
				<path class="st26" d="M509.7,405.8c0,0-4.1-3.7-8.8-3.1c-4.6,0.5-9.1,5-7.6,6.2c1.5,1.3,4.1,1.8,7.1,1.3
					C503.4,409.6,509.7,405.8,509.7,405.8"/>
				<path class="st26" d="M477.7,400.5c0,0,0.9,5.2,4.2,7.2c3.2,2.1,8.1,0.9,7.8-0.9c-0.3-1.8-1.8-3.6-3.9-4.8
					C483.5,400.7,477.7,400.5,477.7,400.5"/>
				<path class="st27" d="M512.6,373.7c5.4,0.2,10.8,0.6,16.2,1.1c1.5,0.1,3,0.3,4.1,1.4c1,1,1.2,2.6,1.2,4
					c-0.1,2.3-0.7,4.5-1.4,6.7c-2.3,8-4.6,16.1-6.9,24.1"/>
			</g>
		</g>
	</g>
</g>
</svg>
