<?xml version="1.0" encoding="utf-8"?>
<!-- Generator: Adobe Illustrator 25.2.0, SVG Export Plug-In . SVG Version: 6.00 Build 0)  -->
<svg version="1.1" xmlns="http://www.w3.org/2000/svg" xmlns:xlink="http://www.w3.org/1999/xlink" x="0px" y="0px"
	 viewBox="0 0 959.5 500" style="enable-background:new 0 0 959.5 500;" xml:space="preserve">
<style type="text/css">
	.st0{opacity:5.000000e-02;fill:#566359;}
	.st1{fill:#9BCEB6;}
	.st2{fill:none;stroke:#434443;stroke-width:3;stroke-miterlimit:10;}
	.st3{opacity:0.2;fill:#DEE2DE;}
	.st4{fill:#D0F2E4;}
	.st5{fill:#DEF7EC;}
	.st6{opacity:0.5;fill:#FFFFFF;}
	.st7{fill:#00A774;}
	.st8{fill:none;stroke:#06694C;stroke-width:0.75;stroke-miterlimit:10;}
	.st9{fill:#AD7C2C;}
	.st10{fill:#233754;}
	.st11{fill:#365784;}
	.st12{fill:#172438;}
	.st13{fill:#FAB140;}
</style>
<g id="OBJECT">
	
		<ellipse transform="matrix(0.7071 -0.7071 0.7071 0.7071 88.9874 640.4789)" class="st0" cx="817.6" cy="212.8" rx="109.1" ry="109.1"/>
	<path class="st1" d="M946.7,188.1c0.6-3.2-4-5.8-10.2-5.8c-4.5,0-8.7,1.4-10.9,3.3c-0.4-1.3-1.8-2.2-3.5-2.2c-2.4,0-4.6,1.6-5,3.6
		c-0.1,0.4-0.1,0.7,0,1H946.7z"/>
	<path class="st1" d="M936.4,252.1c0.8-4.2-5.2-7.6-13.4-7.6c-5.9,0-11.3,1.8-14.2,4.4c-0.6-1.7-2.3-2.8-4.6-2.8
		c-3.1,0-6,2.1-6.5,4.7c-0.1,0.5-0.1,0.9,0,1.4H936.4z"/>
	<path class="st1" d="M727.8,192.2c0.6-5.5-5.5-9.9-13.7-9.9c-5.9,0-11.2,2.3-14,5.7c-0.6-2.2-2.4-3.7-4.7-3.7
		c-3.1,0-5.9,2.8-6.3,6.2c-0.1,0.6-0.1,1.2,0,1.8H727.8z"/>
	<path class="st2" d="M0,430.1h199.7c23.3,0,45.7-5.4,64.9-14.6c2.7-1.3,5.8-2.1,9.6-2.1c3.8,0,6.9,0.8,9.6,2.1
		c19.2,9.2,41.6,14.6,64.9,14.6H713h48.7c30.9,0,55.9-17.5,55.9-39.1v-8.1"/>
	<path class="st3" d="M896.7,204.9c0-42-35.3-70.6-78.8-70.6c-43.5,0-78.8,28.6-78.8,70.6c0,24.9,12.4,55.4,31.6,76
		c7.5,8.1,11.7,18.8,11.7,29.9v1.9c0,8,6.5,14.6,14.6,14.6h41.8c8,0,14.6-6.5,14.6-14.6v-1.9c0-11.1,4.2-21.8,11.7-29.9
		C884.3,260.3,896.7,229.8,896.7,204.9z"/>
	<path class="st4" d="M889.4,210.5c0-36-32-65.1-71.5-65.1c-39.5,0-71.5,29.2-71.5,65.1c0,21.1,11,43.2,28.1,57.8
		c11.8,10.1,18.9,24.7,18.9,40.3v0.9c0,10,8.1,18.2,18.2,18.2h12.2c10,0,18.2-8.1,18.2-18.2v-0.4c0-15.7,7.2-30.4,19.1-40.5
		C878.3,253.9,889.4,231.7,889.4,210.5z"/>
	<ellipse class="st5" cx="817.9" cy="199.1" rx="59.8" ry="43.6"/>
	
		<ellipse transform="matrix(0.6396 -0.7687 0.7687 0.6396 182.2475 714.8091)" class="st6" cx="853.5" cy="163" rx="15.4" ry="23.2"/>
	
		<ellipse transform="matrix(0.9981 -6.171909e-02 6.171909e-02 0.9981 -10.5491 54.6734)" class="st6" cx="879.7" cy="198.1" rx="12.3" ry="14.9"/>
	<g>
		<path class="st7" d="M822.7,165.4c0,0-25.8,23.7-27.7,53.3c-1.2,19.9,9.4,40.5,22.8,41.4c13.4,0.9,23.7-18.3,25.1-38.2
			C845.1,192.4,822.7,165.4,822.7,165.4z"/>
		<path class="st7" d="M766.3,230.6c0,0-0.9,20.2,10.4,33.1c7.6,8.6,20.4,12.7,26.2,7.6s2.2-17.1-5.3-25.8
			C786.5,232.5,766.3,230.6,766.3,230.6z"/>
		<path class="st8" d="M823.8,199.8c0,0-10.9,70.4-3,132.2"/>
		<path class="st8" d="M788.3,255.8c0,0,12.4,14.1,29.6,25.1"/>
		<path class="st7" d="M867.7,221.2c0,0,5.5,19.5-2.6,34.6c-5.4,10.2-16.9,17-23.8,13.4c-6.9-3.6-6.1-16.2-0.8-26.4
			C848.5,227.6,867.7,221.2,867.7,221.2z"/>
		<path class="st8" d="M852.1,250.7c0,0-15.8,27.1-34.1,38.9"/>
		<line class="st8" x1="802.1" y1="211.6" x2="820.4" y2="228.9"/>
		<line class="st8" x1="819.3" y1="242.5" x2="838.1" y2="232.8"/>
		<line class="st8" x1="781.8" y1="264.9" x2="796.7" y2="264.3"/>
		<line class="st8" x1="802.3" y1="256.7" x2="801.7" y2="268.8"/>
		<line class="st8" x1="843.2" y1="250.1" x2="843.2" y2="263.9"/>
		<line class="st8" x1="847.2" y1="258.3" x2="859.8" y2="255.7"/>
	</g>
	<path class="st9" d="M813,315.3c-9.5,0-12.4,10.6-20.5,13.2H813h20.5C825.5,326,822.6,315.3,813,315.3z"/>
	<path class="st9" d="M830.9,318.7c-5.2,0-6.8,8-11.1,9.8h11.1H842C837.6,326.6,836.1,318.7,830.9,318.7z"/>
	<path class="st10" d="M842.2,373.2h-48.6c-2.8,0-5.1-2.3-5.1-5.1v-35.7c0-2.8,2.3-5.1,5.1-5.1h48.6c2.8,0,5.1,2.3,5.1,5.1v35.7
		C847.3,370.9,845,373.2,842.2,373.2z"/>
	<path class="st11" d="M846.6,345h-57.3c-2.7,0-5-2.2-5-5l0,0c0-2.7,2.2-5,5-5h57.3c2.7,0,5,2.2,5,5l0,0
		C851.5,342.8,849.3,345,846.6,345z"/>
	<path class="st11" d="M846.6,365.5h-57.3c-2.7,0-5-2.2-5-5l0,0c0-2.7,2.2-5,5-5h57.3c2.7,0,5,2.2,5,5l0,0
		C851.5,363.2,849.3,365.5,846.6,365.5z"/>
	<path class="st12" d="M793.6,373.2h48.6l0,0c0,3.9-3.1,7-7,7h-34.6C796.7,380.2,793.6,377,793.6,373.2L793.6,373.2z"/>
	<path class="st13" d="M808.1,380.2h19.1l0,0c0,2-1.6,3.6-3.6,3.6h-11.9C809.7,383.8,808.1,382.2,808.1,380.2L808.1,380.2z"/>
	<g>
		<path class="st10" d="M34.1,441c2.9-0.1,5.3-1.8,5.3-4v-6.9v-6.9c0-2.1-2.3-3.9-5.3-4C27.2,419,15,418,5.6,413.5v16.5v16.5
			C15,442.2,27.2,441.2,34.1,441z"/>
		<rect y="413.5" class="st11" width="5.6" height="33.1"/>
		<path class="st12" d="M15.7,436.3L15.7,436.3c-0.7,0-1.3-0.6-1.3-1.3v-10.5c0-0.7,0.6-1.3,1.3-1.3l0,0c0.7,0,1.3,0.6,1.3,1.3V435
			C17,435.7,16.4,436.3,15.7,436.3z"/>
		<path class="st12" d="M21.1,436.3L21.1,436.3c-0.7,0-1.3-0.6-1.3-1.3v-10.5c0-0.7,0.6-1.3,1.3-1.3l0,0c0.7,0,1.3,0.6,1.3,1.3V435
			C22.5,435.7,21.9,436.3,21.1,436.3z"/>
	</g>
</g>
<g id="BACKGROUND">
</g>
<g id="DESIGNED_BY_FREEPIK">
</g>
</svg>
