<svg id="Layer_1" data-name="Layer 1" xmlns="http://www.w3.org/2000/svg" viewBox="0 0 1537.25 1120.99"><defs><style>.cls-1{fill:#bfbfbf;}</style></defs><path class="cls-1" d="M203.48,989.14c-31.51,0-29.53-48.63,0-47.67C233,940.49,235,989.18,203.48,989.14Zm0-42.55c-24.09.21-24.11,37.22,0,37.43C227.56,983.81,227.58,946.8,203.48,946.59Z" transform="translate(-29.63 -34.73)"/><path class="cls-1" d="M194.61,1079.82c-31.51,0-29.53-48.63,0-47.67C224.16,1031.17,226.1,1079.86,194.61,1079.82Zm0-42.55c-24.09.21-24.11,37.22,0,37.42C218.69,1074.49,218.72,1037.48,194.61,1037.27Z" transform="translate(-29.63 -34.73)"/><path class="cls-1" d="M280.35,1018.71c-31.51,0-29.53-48.63,0-47.67C309.9,970.06,311.84,1018.75,280.35,1018.71Zm0-42.55c-24.08.21-24.11,37.22,0,37.43C304.44,1013.38,304.46,976.37,280.35,976.16Z" transform="translate(-29.63 -34.73)"/><path class="cls-1" d="M269.51,934.93c-31.51,0-29.53-48.63,0-47.66C299.06,886.29,301,935,269.51,934.93Zm0-42.54c-24.09.2-24.11,37.22,0,37.42C293.6,929.61,293.62,892.59,269.51,892.39Z" transform="translate(-29.63 -34.73)"/><path class="cls-1" d="M181.8,904.38c-31.51,0-29.53-48.63,0-47.67C211.35,855.73,213.29,904.42,181.8,904.38Zm0-42.55c-24.09.21-24.11,37.22,0,37.43C205.88,899.05,205.9,862,181.8,861.83Z" transform="translate(-29.63 -34.73)"/><path class="cls-1" d="M124.63,958.58c-31.51,0-29.53-48.62,0-47.66C154.18,909.94,156.12,958.62,124.63,958.58Zm0-42.54c-24.09.21-24.11,37.22,0,37.42C148.72,953.26,148.74,916.25,124.63,916Z" transform="translate(-29.63 -34.73)"/><path class="cls-1" d="M119.7,1033.49c-31.51,0-29.53-48.63,0-47.67C149.25,984.84,151.19,1033.53,119.7,1033.49Zm0-42.55c-24.09.21-24.11,37.22,0,37.43C143.79,1028.16,143.81,991.15,119.7,990.94Z" transform="translate(-29.63 -34.73)"/><path class="cls-1" d="M113.79,1132.05c-31.51,0-29.53-48.63,0-47.67C143.34,1083.41,145.28,1132.09,113.79,1132.05Zm0-42.54c-24.09.2-24.11,37.21,0,37.42C137.88,1126.72,137.9,1089.71,113.79,1089.51Z" transform="translate(-29.63 -34.73)"/><path class="cls-1" d="M214.73,1155.7c-30.66-.19-30.43-49.59.24-49.61C246.84,1105.21,246.49,1156.74,214.73,1155.7Zm1.25-44.52c-25-1.12-25.65,39.66-.77,39.41C239.47,1151,240.17,1111.72,216,1111.18Z" transform="translate(-29.63 -34.73)"/><path class="cls-1" d="M286.27,1112.34c-31.51,0-29.53-48.63,0-47.67C315.82,1063.7,317.76,1112.38,286.27,1112.34Zm0-42.55c-24.09.21-24.11,37.22,0,37.43C310.36,1107,310.38,1070,286.27,1069.79Z" transform="translate(-29.63 -34.73)"/><path class="cls-1" d="M344.42,1021.66c-31.51,0-29.53-48.62,0-47.66C374,973,375.91,1021.7,344.42,1021.66Zm0-42.54c-24.09.2-24.11,37.22,0,37.42C368.51,1016.34,368.53,979.32,344.42,979.12Z" transform="translate(-29.63 -34.73)"/><path class="cls-1" d="M345.4,927.05c-31.5,0-29.53-48.63,0-47.67C375,878.4,376.89,927.09,345.4,927.05Zm0-42.55c-24.08.21-24.1,37.22,0,37.43C369.49,921.72,369.51,884.71,345.4,884.5Z" transform="translate(-29.63 -34.73)"/><path class="cls-1" d="M243.89,865.93c-31.51,0-29.53-48.62,0-47.66C273.44,817.3,275.38,866,243.89,865.93Zm0-42.54c-24.09.21-24.11,37.22,0,37.42C268,860.61,268,823.6,243.89,823.39Z" transform="translate(-29.63 -34.73)"/><path class="cls-1" d="M110.83,876.78c-31.51,0-29.53-48.63,0-47.67C140.38,828.14,142.32,876.82,110.83,876.78Zm0-42.55c-24.09.21-24.11,37.22,0,37.43C134.92,871.45,134.94,834.44,110.83,834.23Z" transform="translate(-29.63 -34.73)"/><path class="cls-1" d="M62.54,981.25c-31.51,0-29.53-48.63,0-47.66C92.09,932.61,94,981.29,62.54,981.25Zm0-42.54c-24.09.2-24.11,37.22,0,37.42C86.63,975.93,86.65,938.91,62.54,938.71Z" transform="translate(-29.63 -34.73)"/><path class="cls-1" d="M52.68,1072.91c-30.74-.11-30.72-47.55,0-47.66C82.23,1024.27,84.17,1073,52.68,1072.91Zm0-42.54c-24.85.06-22.91,38.28,0,37.42C76.77,1067.59,76.79,1030.58,52.68,1030.37Z" transform="translate(-29.63 -34.73)"/><path class="cls-1" d="M1402.06,205.61c-31.5,0-29.52-48.63,0-47.67C1431.61,157,1433.55,205.65,1402.06,205.61Zm0-42.55c-24.08.21-24.1,37.22,0,37.43C1426.15,200.28,1426.17,163.27,1402.06,163.06Z" transform="translate(-29.63 -34.73)"/><path class="cls-1" d="M1393.19,296.29c-31.5,0-29.53-48.63,0-47.67C1422.74,247.64,1424.68,296.33,1393.19,296.29Zm0-42.55c-24.08.21-24.1,37.22,0,37.43C1417.28,291,1417.3,254,1393.19,253.74Z" transform="translate(-29.63 -34.73)"/><path class="cls-1" d="M1478.94,235.18c-31.51,0-29.53-48.63,0-47.67C1508.49,186.53,1510.43,235.22,1478.94,235.18Zm0-42.55c-24.09.21-24.11,37.22,0,37.43C1503,229.85,1503.05,192.84,1478.94,192.63Z" transform="translate(-29.63 -34.73)"/><path class="cls-1" d="M1468.1,151.4c-31.51,0-29.53-48.63,0-47.66C1497.65,102.76,1499.59,151.44,1468.1,151.4Zm0-42.54c-24.09.2-24.11,37.22,0,37.42C1492.19,146.08,1492.21,109.06,1468.1,108.86Z" transform="translate(-29.63 -34.73)"/><path class="cls-1" d="M1380.38,120.85c-31.5,0-29.53-48.63,0-47.67C1409.93,72.2,1411.87,120.89,1380.38,120.85Zm0-42.55c-24.08.21-24.1,37.22,0,37.43C1404.47,115.52,1404.49,78.51,1380.38,78.3Z" transform="translate(-29.63 -34.73)"/><path class="cls-1" d="M1323.22,175.05c-31.51,0-29.53-48.62,0-47.66C1352.77,126.41,1354.71,175.09,1323.22,175.05Zm0-42.54c-24.09.21-24.11,37.22,0,37.42C1347.3,169.73,1347.33,132.72,1323.22,132.51Z" transform="translate(-29.63 -34.73)"/><path class="cls-1" d="M1318.29,250c-31.51,0-29.53-48.63,0-47.67C1347.84,201.31,1349.78,250,1318.29,250Zm0-42.55c-24.09.21-24.11,37.22,0,37.43C1342.38,244.63,1342.4,207.62,1318.29,207.41Z" transform="translate(-29.63 -34.73)"/><path class="cls-1" d="M1312.38,348.52c-31.51,0-29.53-48.63,0-47.66C1341.93,299.88,1343.87,348.56,1312.38,348.52Zm0-42.54c-24.09.2-24.11,37.22,0,37.42C1336.47,343.19,1336.49,306.18,1312.38,306Z" transform="translate(-29.63 -34.73)"/><path class="cls-1" d="M1413.32,372.17c-30.66-.19-30.43-49.59.24-49.61C1445.43,321.68,1445.08,373.21,1413.32,372.17Zm1.25-44.52c-25-1.12-25.65,39.67-.77,39.41C1438.06,367.48,1438.76,328.19,1414.57,327.65Z" transform="translate(-29.63 -34.73)"/><path class="cls-1" d="M1484.86,328.81c-31.51,0-29.53-48.63,0-47.66C1514.41,280.17,1516.35,328.85,1484.86,328.81Zm0-42.54c-24.09.2-24.11,37.21,0,37.42C1508.94,323.48,1509,286.47,1484.86,286.27Z" transform="translate(-29.63 -34.73)"/><path class="cls-1" d="M1543,238.13c-31.51,0-29.53-48.62,0-47.66C1572.56,189.49,1574.5,238.17,1543,238.13Zm0-42.54c-24.09.2-24.11,37.22,0,37.42C1567.1,232.81,1567.12,195.79,1543,195.59Z" transform="translate(-29.63 -34.73)"/><path class="cls-1" d="M1544,143.52c-31.51,0-29.53-48.63,0-47.67C1573.54,94.87,1575.48,143.56,1544,143.52Zm0-42.55c-24.09.21-24.11,37.22,0,37.43C1568.08,138.19,1568.1,101.18,1544,101Z" transform="translate(-29.63 -34.73)"/><path class="cls-1" d="M1442.48,82.41c-31.52,0-29.53-48.63,0-47.67C1472,33.77,1474,82.45,1442.48,82.41Zm0-42.55c-24.09.21-24.11,37.22,0,37.43C1466.56,77.08,1466.59,40.07,1442.48,39.86Z" transform="translate(-29.63 -34.73)"/><path class="cls-1" d="M1309.42,93.25c-31.51,0-29.53-48.63,0-47.67C1339,44.61,1340.91,93.29,1309.42,93.25Zm0-42.55c-24.09.21-24.11,37.22,0,37.43C1333.51,87.92,1333.53,50.91,1309.42,50.7Z" transform="translate(-29.63 -34.73)"/><path class="cls-1" d="M1261.13,197.72c-31.51,0-29.53-48.62,0-47.66C1290.68,149.08,1292.62,197.76,1261.13,197.72Zm0-42.54c-24.09.2-24.11,37.22,0,37.42C1285.21,192.4,1285.24,155.38,1261.13,155.18Z" transform="translate(-29.63 -34.73)"/><path class="cls-1" d="M1251.27,289.39c-30.74-.12-30.72-47.56,0-47.67C1280.82,240.74,1282.76,289.43,1251.27,289.39Zm0-42.55c-24.85.06-22.91,38.28,0,37.42C1275.36,284.06,1275.38,247.05,1251.27,246.84Z" transform="translate(-29.63 -34.73)"/></svg>