<?xml version="1.0" encoding="utf-8"?>
<!-- Generator: Adobe Illustrator 25.2.0, SVG Export Plug-In . SVG Version: 6.00 Build 0)  -->
<svg version="1.1" id="Layer_1" xmlns="http://www.w3.org/2000/svg" xmlns:xlink="http://www.w3.org/1999/xlink" x="0px" y="0px"
	 viewBox="0 0 1528.8 595.3" style="enable-background:new 0 0 1528.8 595.3;" xml:space="preserve">
<style type="text/css">
	.st0{fill:none;stroke:#939598;stroke-width:0.5;stroke-miterlimit:10;}
	.st1{fill:#9DC18C;}
	.st2{clip-path:url(#SVGID_1_);fill:#9DC18C;}
	.st3{fill:#E07857;}
	.st4{fill:none;stroke:#9DC18C;stroke-width:5;stroke-linejoin:round;stroke-miterlimit:10;}
	.st5{fill:#436853;}
	.st6{font-family:'Evermore';}
	.st7{font-size:12px;}
</style>
<g>
	<line class="st0" x1="509.6" y1="565.5" x2="1019.2" y2="565.5"/>
	<line class="st0" x1="509.6" y1="535.7" x2="1019.2" y2="535.7"/>
	<line class="st0" x1="509.6" y1="506" x2="1019.2" y2="506"/>
	<line class="st0" x1="509.6" y1="476.2" x2="1019.2" y2="476.2"/>
	<line class="st0" x1="509.6" y1="446.5" x2="1019.2" y2="446.5"/>
	<line class="st0" x1="509.6" y1="416.7" x2="1019.2" y2="416.7"/>
	<line class="st0" x1="509.6" y1="386.9" x2="1019.2" y2="386.9"/>
	<line class="st0" x1="509.6" y1="357.2" x2="1019.2" y2="357.2"/>
	<line class="st0" x1="509.6" y1="327.4" x2="1019.2" y2="327.4"/>
	<line class="st0" x1="509.6" y1="297.6" x2="1019.2" y2="297.6"/>
	<line class="st0" x1="509.6" y1="267.9" x2="1019.2" y2="267.9"/>
	<line class="st0" x1="509.6" y1="238.1" x2="1019.2" y2="238.1"/>
	<line class="st0" x1="509.6" y1="208.3" x2="1019.2" y2="208.3"/>
	<line class="st0" x1="509.6" y1="178.6" x2="1019.2" y2="178.6"/>
	<line class="st0" x1="509.6" y1="148.8" x2="1019.2" y2="148.8"/>
	<line class="st0" x1="509.6" y1="119.1" x2="1019.2" y2="119.1"/>
	<line class="st0" x1="509.6" y1="89.3" x2="1019.2" y2="89.3"/>
	<line class="st0" x1="509.6" y1="59.5" x2="1019.2" y2="59.5"/>
	<line class="st0" x1="509.6" y1="29.8" x2="1019.2" y2="29.8"/>
	<line class="st0" x1="1019.2" y1="0" x2="1019.2" y2="595.3"/>
	<line class="st0" x1="993.7" y1="0" x2="993.7" y2="595.3"/>
	<line class="st0" x1="968.2" y1="0" x2="968.2" y2="595.3"/>
	<line class="st0" x1="942.8" y1="0" x2="942.8" y2="595.3"/>
	<line class="st0" x1="917.3" y1="0" x2="917.3" y2="595.3"/>
	<line class="st0" x1="891.8" y1="0" x2="891.8" y2="595.3"/>
	<line class="st0" x1="866.3" y1="0" x2="866.3" y2="595.3"/>
	<line class="st0" x1="840.8" y1="0" x2="840.8" y2="595.3"/>
	<line class="st0" x1="815.4" y1="0" x2="815.4" y2="595.3"/>
	<line class="st0" x1="789.9" y1="0" x2="789.9" y2="595.3"/>
	<line class="st0" x1="764.4" y1="0" x2="764.4" y2="595.3"/>
	<line class="st0" x1="738.9" y1="0" x2="738.9" y2="595.3"/>
	<line class="st0" x1="713.4" y1="0" x2="713.4" y2="595.3"/>
	<line class="st0" x1="688" y1="0" x2="688" y2="595.3"/>
	<line class="st0" x1="662.5" y1="0" x2="662.5" y2="595.3"/>
	<line class="st0" x1="637" y1="0" x2="637" y2="595.3"/>
	<line class="st0" x1="611.5" y1="0" x2="611.5" y2="595.3"/>
	<line class="st0" x1="586" y1="0" x2="586" y2="595.3"/>
	<line class="st0" x1="560.6" y1="0" x2="560.6" y2="595.3"/>
	<line class="st0" x1="535.1" y1="0" x2="535.1" y2="595.3"/>
</g>
<g>
	<line class="st0" x1="1019.2" y1="565.5" x2="1528.8" y2="565.5"/>
	<line class="st0" x1="1019.2" y1="535.7" x2="1528.8" y2="535.7"/>
	<line class="st0" x1="1019.2" y1="506" x2="1528.8" y2="506"/>
	<line class="st0" x1="1019.2" y1="476.2" x2="1528.8" y2="476.2"/>
	<line class="st0" x1="1019.2" y1="446.5" x2="1528.8" y2="446.5"/>
	<line class="st0" x1="1019.2" y1="416.7" x2="1528.8" y2="416.7"/>
	<line class="st0" x1="1019.2" y1="386.9" x2="1528.8" y2="386.9"/>
	<line class="st0" x1="1019.2" y1="357.2" x2="1528.8" y2="357.2"/>
	<line class="st0" x1="1019.2" y1="327.4" x2="1528.8" y2="327.4"/>
	<line class="st0" x1="1019.2" y1="297.6" x2="1528.8" y2="297.6"/>
	<line class="st0" x1="1019.2" y1="267.9" x2="1528.8" y2="267.9"/>
	<line class="st0" x1="1019.2" y1="238.1" x2="1528.8" y2="238.1"/>
	<line class="st0" x1="1019.2" y1="208.3" x2="1528.8" y2="208.3"/>
	<line class="st0" x1="1019.2" y1="178.6" x2="1528.8" y2="178.6"/>
	<line class="st0" x1="1019.2" y1="148.8" x2="1528.8" y2="148.8"/>
	<line class="st0" x1="1019.2" y1="119.1" x2="1528.8" y2="119.1"/>
	<line class="st0" x1="1019.2" y1="89.3" x2="1528.8" y2="89.3"/>
	<line class="st0" x1="1019.2" y1="59.5" x2="1528.8" y2="59.5"/>
	<line class="st0" x1="1019.2" y1="29.8" x2="1528.8" y2="29.8"/>
	<line class="st0" x1="1528.8" y1="0" x2="1528.8" y2="595.3"/>
	<line class="st0" x1="1503.3" y1="0" x2="1503.3" y2="595.3"/>
	<line class="st0" x1="1477.8" y1="0" x2="1477.8" y2="595.3"/>
	<line class="st0" x1="1452.4" y1="0" x2="1452.4" y2="595.3"/>
	<line class="st0" x1="1426.9" y1="0" x2="1426.9" y2="595.3"/>
	<line class="st0" x1="1401.4" y1="0" x2="1401.4" y2="595.3"/>
	<line class="st0" x1="1375.9" y1="0" x2="1375.9" y2="595.3"/>
	<line class="st0" x1="1350.4" y1="0" x2="1350.4" y2="595.3"/>
	<line class="st0" x1="1325" y1="0" x2="1325" y2="595.3"/>
	<line class="st0" x1="1299.5" y1="0" x2="1299.5" y2="595.3"/>
	<line class="st0" x1="1274" y1="0" x2="1274" y2="595.3"/>
	<line class="st0" x1="1248.5" y1="0" x2="1248.5" y2="595.3"/>
	<line class="st0" x1="1223" y1="0" x2="1223" y2="595.3"/>
	<line class="st0" x1="1197.6" y1="0" x2="1197.6" y2="595.3"/>
	<line class="st0" x1="1172.1" y1="0" x2="1172.1" y2="595.3"/>
	<line class="st0" x1="1146.6" y1="0" x2="1146.6" y2="595.3"/>
	<line class="st0" x1="1121.1" y1="0" x2="1121.1" y2="595.3"/>
	<line class="st0" x1="1095.6" y1="0" x2="1095.6" y2="595.3"/>
	<line class="st0" x1="1070.2" y1="0" x2="1070.2" y2="595.3"/>
	<line class="st0" x1="1044.7" y1="0" x2="1044.7" y2="595.3"/>
</g>
<g>
	<line class="st0" x1="0" y1="565.5" x2="509.6" y2="565.5"/>
	<line class="st0" x1="0" y1="535.7" x2="509.6" y2="535.7"/>
	<line class="st0" x1="0" y1="506" x2="509.6" y2="506"/>
	<line class="st0" x1="0" y1="476.2" x2="509.6" y2="476.2"/>
	<line class="st0" x1="0" y1="446.5" x2="509.6" y2="446.5"/>
	<line class="st0" x1="0" y1="416.7" x2="509.6" y2="416.7"/>
	<line class="st0" x1="0" y1="386.9" x2="509.6" y2="386.9"/>
	<line class="st0" x1="0" y1="357.2" x2="509.6" y2="357.2"/>
	<line class="st0" x1="0" y1="327.4" x2="509.6" y2="327.4"/>
	<line class="st0" x1="0" y1="297.6" x2="509.6" y2="297.6"/>
	<line class="st0" x1="0" y1="267.9" x2="509.6" y2="267.9"/>
	<line class="st0" x1="0" y1="238.1" x2="509.6" y2="238.1"/>
	<line class="st0" x1="0" y1="208.3" x2="509.6" y2="208.3"/>
	<line class="st0" x1="0" y1="178.6" x2="509.6" y2="178.6"/>
	<line class="st0" x1="0" y1="148.8" x2="509.6" y2="148.8"/>
	<line class="st0" x1="0" y1="119.1" x2="509.6" y2="119.1"/>
	<line class="st0" x1="0" y1="89.3" x2="509.6" y2="89.3"/>
	<line class="st0" x1="0" y1="59.5" x2="509.6" y2="59.5"/>
	<line class="st0" x1="0" y1="29.8" x2="509.6" y2="29.8"/>
	<line class="st0" x1="509.6" y1="0" x2="509.6" y2="595.3"/>
	<line class="st0" x1="484.1" y1="0" x2="484.1" y2="595.3"/>
	<line class="st0" x1="458.6" y1="0" x2="458.6" y2="595.3"/>
	<line class="st0" x1="433.2" y1="0" x2="433.2" y2="595.3"/>
	<line class="st0" x1="407.7" y1="0" x2="407.7" y2="595.3"/>
	<line class="st0" x1="382.2" y1="0" x2="382.2" y2="595.3"/>
	<line class="st0" x1="356.7" y1="0" x2="356.7" y2="595.3"/>
	<line class="st0" x1="331.2" y1="0" x2="331.2" y2="595.3"/>
	<line class="st0" x1="305.8" y1="0" x2="305.8" y2="595.3"/>
	<line class="st0" x1="280.3" y1="0" x2="280.3" y2="595.3"/>
	<line class="st0" x1="254.8" y1="0" x2="254.8" y2="595.3"/>
	<line class="st0" x1="229.3" y1="0" x2="229.3" y2="595.3"/>
	<line class="st0" x1="203.8" y1="0" x2="203.8" y2="595.3"/>
	<line class="st0" x1="178.4" y1="0" x2="178.4" y2="595.3"/>
	<line class="st0" x1="152.9" y1="0" x2="152.9" y2="595.3"/>
	<line class="st0" x1="127.4" y1="0" x2="127.4" y2="595.3"/>
	<line class="st0" x1="101.9" y1="0" x2="101.9" y2="595.3"/>
	<line class="st0" x1="76.4" y1="0" x2="76.4" y2="595.3"/>
	<line class="st0" x1="51" y1="0" x2="51" y2="595.3"/>
	<line class="st0" x1="25.5" y1="0" x2="25.5" y2="595.3"/>
</g>
<g>
	<path class="st1" d="M994.8,354.4c-0.8,0.5-1.7,0.9-2.5,1.3c-2.6,1.1-5.4,1.6-8.2,1.6c-2.9,0-5.6-0.5-8.2-1.6c-2.6-1.1-5-2.6-7-4.7
		c-2-2-3.6-4.3-4.7-7c-1.1-2.6-1.6-5.4-1.6-8.2s0.5-5.6,1.6-8.2c1.1-2.6,2.6-5,4.7-7s4.3-3.6,7-4.7c2.6-1.1,5.4-1.6,8.2-1.6
		c2.9,0,5.6,0.5,8.2,1.6c2.6,1.1,5,2.6,7,4.7s3.6,4.3,4.7,7c1.1,2.6,1.6,5.4,1.6,8.2v21.5h-10.8V354.4z M984.1,325
		c-3,0-5.5,1.1-7.6,3.2s-3.2,4.6-3.2,7.6c0,3,1.1,5.5,3.2,7.6s4.6,3.2,7.6,3.2c3,0,5.5-1.1,7.6-3.2s3.2-4.6,3.2-7.6
		c0-3-1.1-5.5-3.2-7.6S987.1,325,984.1,325z"/>
	<path class="st1" d="M1012.7,335.7v-32.3h10.8v32.3c0,3,1.1,5.5,3.2,7.6c2.1,2.1,4.6,3.2,7.6,3.2v10.8c-2.9,0-5.6-0.5-8.2-1.6
		c-2.6-1.1-5-2.6-7-4.7c-2-2-3.6-4.3-4.7-7C1013.2,341.3,1012.7,338.6,1012.7,335.7z"/>
	<path class="st1" d="M1083.9,335.7v-21.5h10.8v21.5c0,3,1.1,5.5,3.2,7.6c2.1,2.1,4.6,3.2,7.6,3.2c3,0,5.5-1.1,7.6-3.2
		c2.1-2.1,3.2-4.6,3.2-7.6v-21.5h10.8v21.5c0,2.9-0.5,5.6-1.6,8.2c-1.1,2.6-2.6,5-4.7,7c-2,2-4.3,3.6-7,4.7
		c-2.6,1.1-5.4,1.6-8.2,1.6c-2.9,0-5.6-0.5-8.2-1.6c-2.6-1.1-5-2.6-7-4.7c-2-2-3.6-4.3-4.7-7
		C1084.4,341.3,1083.9,338.6,1083.9,335.7z"/>
	<g>
		<defs>
			<path id="SVGID_3_" d="M1038.1,322.7c0,0,1.1,6.2,6.8,10.2c0,0-1.1,4.5,1.2,7.9c0,0,3.5,6.1,10.1,5.3c0,0,5.6,0.2,8.9-6.2
				c0,0,1.8-3.4,0.5-7.7c0,0,5.2-3.9,6.1-10.6c0,0,2.8,3.5,3.6,6.2c0,0,1.6,4,1.4,8.9l0,12l0,27.1h-10.7v-21.9c0,0-6,3.8-13.7,2.7
				c-7.7-1.2-12-5.8-12.8-6.7c-0.8-0.9-3.8-4.6-4.8-8.7c-1.1-4.1-1-6.4-0.3-10.4C1035.1,326.7,1038.1,322.7,1038.1,322.7z"/>
		</defs>
		<clipPath id="SVGID_1_">
			<use xlink:href="#SVGID_3_"  style="overflow:visible;"/>
		</clipPath>
		<path class="st2" d="M1066.1,353.9c-0.8,0.5-1.6,0.9-2.5,1.3c-2.6,1.1-5.4,1.6-8.2,1.6c-2.8,0-5.6-0.5-8.2-1.6
			c-2.6-1.1-4.9-2.6-6.9-4.6c-2-2-3.6-4.3-4.6-6.9c-1.1-2.6-1.6-5.4-1.6-8.2c0-2.8,0.5-5.6,1.6-8.2c1.1-2.6,2.6-4.9,4.6-6.9
			c2-2,4.3-3.6,6.9-4.6c2.6-1.1,5.4-1.6,8.2-1.6c2.8,0,5.6,0.5,8.2,1.6c2.6,1.1,4.9,2.6,6.9,4.6c2,2,3.6,4.3,4.6,6.9
			c1.1,2.6,1.6,5.4,1.6,8.2v40.5h-10.7V353.9z M1055.4,346c3,0,5.5-1,7.6-3.1c2.1-2.1,3.1-4.6,3.1-7.6c0-3-1-5.5-3.1-7.6
			c-2.1-2.1-4.6-3.1-7.6-3.1c-3,0-5.5,1-7.6,3.1c-2.1,2.1-3.1,4.6-3.1,7.6c0,3,1,5.5,3.1,7.6C1049.9,345,1052.4,346,1055.4,346z"/>
	</g>
	<path class="st1" d="M1139.7,308.8c-1.8,0-3.4-0.7-4.7-2c-1.3-1.3-2-2.9-2-4.7c0-1.8,0.7-3.4,2-4.7c1.3-1.3,2.9-2,4.7-2
		c1.8,0,3.4,0.7,4.7,2c1.3,1.3,2,2.9,2,4.7c0,1.8-0.7,3.4-2,4.7C1143.1,308.2,1141.5,308.8,1139.7,308.8z M1145,357.3h-10.8v-43
		h10.8V357.3z"/>
	<path class="st1" d="M1163,335.7v21.5h-10.8v-21.5c0-2.9,0.5-5.6,1.6-8.2c1.1-2.6,2.6-5,4.7-7s4.3-3.6,7-4.7
		c2.6-1.1,5.4-1.6,8.2-1.6c2.9,0,5.6,0.5,8.2,1.6c2.6,1.1,5,2.6,7,4.7c0.3,0.3,0.6,0.6,0.9,1c0.3-0.3,0.6-0.7,0.9-1
		c2-2,4.3-3.6,7-4.7c2.6-1.1,5.4-1.6,8.2-1.6c2.9,0,5.6,0.5,8.2,1.6c2.6,1.1,5,2.6,7,4.7s3.6,4.3,4.7,7c1.1,2.6,1.6,5.4,1.6,8.2
		v21.5h-10.8v-21.5c0-3-1.1-5.5-3.2-7.6c-2.1-2.1-4.6-3.2-7.6-3.2c-3,0-5.5,1.1-7.6,3.2s-3.2,4.6-3.2,7.6v21.5h-10.8v-21.5
		c0-3-1.1-5.5-3.2-7.6s-4.6-3.2-7.6-3.2c-3,0-5.5,1.1-7.6,3.2C1164,330.2,1163,332.8,1163,335.7z"/>
	<path class="st1" d="M1240.2,308.8c-1.8,0-3.4-0.7-4.7-2c-1.3-1.3-2-2.9-2-4.7c0-1.8,0.7-3.4,2-4.7c1.3-1.3,2.9-2,4.7-2
		s3.4,0.7,4.7,2c1.3,1.3,2,2.9,2,4.7c0,1.8-0.7,3.4-2,4.7C1243.7,308.2,1242.1,308.8,1240.2,308.8z M1245.6,357.3h-10.8v-43h10.8
		V357.3z"/>
	<path class="st1" d="M1285.6,354.4c-0.8,0.5-1.7,0.9-2.5,1.3c-2.6,1.1-5.4,1.6-8.2,1.6s-5.6-0.5-8.2-1.6c-2.6-1.1-5-2.6-7-4.7
		c-2-2-3.6-4.3-4.7-7c-1.1-2.6-1.6-5.4-1.6-8.2s0.5-5.6,1.6-8.2c1.1-2.6,2.6-5,4.7-7s4.3-3.6,7-4.7c2.6-1.1,5.4-1.6,8.2-1.6
		s5.6,0.5,8.2,1.6c2.6,1.1,5,2.6,7,4.7c2.5,2.5,4.2,5.4,5.3,8.7c0.7,2.2,1,4.6,1,6.9v21.1h-10.8V354.4z M1275.7,325
		c-3.7-0.3-6.7,1-9.1,3.8c-1.5,1.7-2.4,3.8-2.5,6c-0.3,3.7,1,6.7,3.8,9.1c1.7,1.5,3.8,2.4,6,2.5c3.7,0.3,6.7-1,9.1-3.8
		c1.5-1.7,2.4-3.8,2.5-6c0.3-3.7-1-6.7-3.8-9.1C1280.1,326.1,1277.9,325.2,1275.7,325z"/>
	<path class="st3" d="M1068,283.8c-0.4-0.2-1.4-0.2-1.5-0.2c-0.8,0-2.1,0.1-2.6,0.7c-7.5,8.4-17.7,15.1-22,25.9
		c-3.2,8-1.7,18.3,6.3,22.6c0,0.1-0.1,0.3-0.1,0.4c-0.1,0.4,3.2,0.6,4.1-0.2c0.1,0,0.1-0.1,0.2-0.1c8.1-0.2,15.4-5.6,18.1-13.4
		c4.1-11.5-0.2-23.7-0.9-35.4C1069.7,283.8,1068.9,283.7,1068,283.8z M1067.6,314.8c-0.7,4.6-2.5,9.2-5.8,12.6
		c-2.4,2.4-5.7,4.5-9.1,4.3c0.2-1.4,0.2-2.9,0.5-4.4c0.4-1.9,0.9-3.8,1.6-5.6c0.6-1.9,1.2-3.9,1.8-5.8c0.7-2.1,1.7-4.2,2.6-6.3
		c1.6-3.9,3.3-7.7,4.9-11.6c0.7-1.7,1.5-3.3,2.2-4.9C1067.4,300.2,1068.8,307.5,1067.6,314.8z M1060,298.1
		c-1.7,4.1-3.5,8.2-5.2,12.2c-1.6,3.7-2.9,7.4-4.1,11.2c-0.6,2-1.2,3.9-1.7,6c-0.1,0.6-0.2,1.2-0.3,1.8c-5-5.4-4.9-14.5-1.8-21
		c4-8.3,11.2-14.1,17.7-20.5C1063.1,291.3,1061.4,294.6,1060,298.1z"/>
	<circle class="st3" cx="1081.6" cy="269.5" r="2.8"/>
	<path class="st4" d="M1285.7,355.6c57.9,8,68.3-25.2,68.8-40.7c0.8-27.1-18.8-41.6-45.9-46.8c-56.3-10.8-132.4-15.7-205.2-5.6"/>
	<ellipse class="st3" cx="1139.7" cy="302.1" rx="6.8" ry="6.7"/>
	<ellipse class="st3" cx="1240.2" cy="302.1" rx="6.8" ry="6.7"/>
</g>
<g id="XMLID_1382_">
	<path id="XMLID_1387_" class="st5" d="M877.8,293.3c0.1,0.2,0.2,0.4,0.1,0.7c-0.2,0.5-0.4,1.1-0.6,1.6c-0.1,0.6-0.9,0.9-0.6,1.6
		c-0.1,0-0.2,0.1-0.3,0.1c-0.1,0-0.3-0.4-0.4,0c-0.1,0.6-0.2,1.2-0.3,1.8c0,0.2,0,0.3,0,0.5c-0.1,0.2-0.3,0.3-0.4,0.5
		c0,0.2-0.2,2.3-0.4,2.8c-0.2,0.6-0.4,1.2,0.1,1.7c0.1,0.1,0.1,0.2,0.1,0.3c-0.6,1.2-0.1,2.4,0,3.6c0,0.2,0,0.5-0.1,0.6
		c-0.4,0.3-0.6,0.8-0.4,1.1c0.1,0.2-0.1,0.9,0.5,0.7c0,0.6,0.1,1.3,0.1,1.9c-0.1,0.7-0.1,0.6,0.4,1.2c0.2,0.3,0.2,0.8,0.3,1.2
		c-0.9,0.6-0.2,0.9,0.1,1.2c0.5,0.5,0.8,1.2,0.6,1.9c-0.1,0.5-0.3,0.7,0.4,0.6c0.4-0.1,0.5,0.2,0.5,0.6c0.1,0.9,0.3,1.7,1,2.4
		c0.4,0.4,0.7,1.2,0.3,2c-0.2,0.4,0.1,0.3,0.3,0.3c0.3,0,0.7-0.2,0.6,0.4c0,0.1,0.1,0.2,0.2,0.3c1.2,1.5,2.5,3.1,3.7,4.6
		c0.2,0.3,0.3,0.9,0.6,0.9c0.5,0.1,0.7,0.5,1,0.8c0.3,0.3,0.5,0.7,0.9,0.9c1.1,0.8,2.1,1.7,3.1,2.6c1.1,0.9,2.4,1.7,3.5,2.6
		c0.5,0.5,1.2,0.7,1.8,1c3.6,1.9,7.4,3.4,11.2,4.6c2.1,0.7,4.2,1.2,6.3,1.6c1.6,0.3,3.3,0.4,5,0.6c1.2,0.2,2.4,0.4,3.6,0.5
		c1.2,0.2,2.6-0.2,3.7,0.3c2-0.6,4,0.2,6-0.3c0.2-0.1,0.4,0,0.7,0c2.3,0.1,4.5-0.4,6.8-0.5c2-0.1,4-0.6,6.1-0.9
		c1.9-0.3,3.7-0.7,5.6-1.3c1.3-0.4,2.6-0.7,3.8-1c0.4-0.1,0.9,0,1.3-0.1c0.6-0.2,0.3,0.5,0.7,0.5c0.5,0,0.8,0.1,1.2,0.4
		c0.2,0.2,0.7,0.2,0.9,0.5c0.2,0.2,0.2,0.4,0.1,0.7c-0.3,1.2-1.4,1.6-2.3,1.9c-1.7,0.6-3.3,1.3-5.1,1.8c-2.3,0.7-4.7,1.4-7.1,1.8
		c-1.7,0.3-3.4,0.5-5.1,0.9c-1.1,0.2-2.2,0-3.3,0.2c-0.5,0.1-1,0-1.5,0.1c-1.6,0.3-3.2,0.2-4.8,0.1c-0.8-0.1-1.6,0.5-2.5,0.1
		c-0.7-0.3-1.7,0-2.5-0.1c-2.4-0.2-4.8-0.4-7.2-0.8c-2-0.3-3.9-0.7-5.9-1.1c-1.3-0.3-2.8-0.4-4-0.9c-1.7-0.7-3.5-0.9-5.1-1.6
		c-1.6-0.7-3.4-1.2-5-1.8c-0.3-0.1-0.5-0.3-0.8-0.5c-0.4-0.2-0.7-0.7-1.2-0.7c-0.5-0.1-0.9-0.3-1.3-0.5c-0.3-0.1-0.6-0.1-0.6-0.6
		c0-0.1-0.1-0.1-0.1-0.2c-0.6,0.7-0.8-0.2-1.2-0.3c-0.4-0.1-0.9-0.3-1.2-0.6c-0.6-0.6-1.4-1.1-2.2-1.4c-0.1,0-0.1-0.4-0.1-0.6
		c0.1-0.1,0.2-0.2,0.5-0.2c0.4-0.2,0.5-0.4,0.6-0.6c-0.2,0-0.5-0.1-0.7,0c-0.1,0.1-0.1,0.4-0.2,0.6c0.2,0,0.3,0,0.3,0
		c-0.4-0.1-0.5-0.1-0.5-0.2c0,0.1,0,0.2,0,0.4c-0.4,0.1-1,0.4-1-0.4c0-0.1-0.1-0.2-0.1-0.2c-1.3,0-1.7-1.1-2.3-1.9
		c-0.1-0.1-0.1-0.2-0.2-0.3c-0.4-0.1-0.8-0.1-1.2-0.3c-0.2-0.1-0.3-0.5-0.6-0.7c-0.3-0.3-0.7-0.5-1-0.8c-0.4-0.4-0.7-0.8-1.3-1
		c-0.5-0.2-0.7-0.9-1-1.3c-0.1-0.1-0.1-0.4-0.2-0.4c-0.6,0-1.1-0.4-1.1-0.8c0-0.6-0.6-0.4-0.8-0.8c-0.1-0.2-0.3-0.4-0.5-0.6
		c-0.2-0.2,0.2-0.8-0.4-0.6c0.1-0.2,0.2-0.4,0.2-0.6c0-0.1-0.3-0.3-0.4-0.3c-0.5,0-1,0.1-0.9-0.8c0-0.1-0.6-0.1-0.6-0.3
		c-0.7-1.8-2.1-3.2-3-4.8c-0.6-1.2-1.4-2.3-1.9-3.6c-0.4-1.2-1.1-2.4-1.3-3.7c0-0.3-0.3-0.5-0.4-0.8c-0.4-2.5-1.2-5-1.3-7.6
		c-0.1-2.1,0-4.3,0.3-6.4c0.2-2.1,0.8-4.1,1.2-6.2c0.1-0.3,0.1-0.7,0.3-0.9c0.5-0.6,0.2-0.7-0.4-0.7c-0.2,0-0.5,0-0.6-0.1
		c-0.3-0.3-0.5-0.1-0.6,0.2c0,0.1,0.2,0.3,0.3,0.5c-0.2,0.4-0.8,0.2-1,0.8c-0.1,0.3-0.9,0.3-1.3,0.5c-0.4,0.2-0.8,0.5-1.3,0.6
		c-0.2,0.1-0.5,0-0.8-0.1c-0.1,0-0.3-0.1-0.4-0.1c0.1,0.1,0.2,0.3,0.2,0.4c0,0.1-0.1,0.4-0.1,0.4c-0.3,0-0.5,0-0.8-0.1
		c0,0.4-0.1,0.6-0.6,0.6c-0.6,0.1-1.2-0.7-1.8,0.1c-0.5,0.6-1.1,0.2-1.7,0.5c-0.4,0.2-0.9,0.7-1.6,0.3c-0.4-0.2-1.1,0.1-1.7,0.1
		c-0.1,0-0.3-0.1-0.4-0.2c0-0.1,0.1-0.3,0.2-0.4c0.3-0.3,0.7-0.6,1-0.9c0.1-0.1,0-0.3,0-0.4c-0.1-0.1-0.3-0.1-0.4,0
		c-0.2,0.2-0.4,0.4-0.7,0.6c-0.2,0.1-0.4,0.2-0.6,0.2c0-0.3-0.2-0.5-0.1-0.7c0.1-0.3,0.4-0.5,0.6-0.7c0.2-0.2,0.7-0.1,0.7-0.6
		c0-0.1,0.6-0.2,0.8-0.4c0.3-0.2,0.7-0.4,1-0.6c0.8-0.5,1.6-1.1,2.6-1.4c0.8-0.3,1.5-1.1,2.3-1.6c1.3-0.8,2.7-1.6,4.1-2.3
		c1.2-0.5,2.2-1.3,3.4-1.9c1.2-0.7,2.4-1.4,3.6-2.1c0.8-0.4,1.6-0.6,2.3-1.1c0.7-0.5,1.6-0.7,2.3-1.2c0.6-0.4,1.2-0.5,1.9-0.4
		c0.3,0,0.5,0.1,0.5,0.5c0,0.1,0.1,0.2,0.2,0.3c0.4,0.1,2,1.1,2.3,1.2c0.8,0.5,0.8,1.6,1.5,2.2c0.3,1.6,1.3,3,1.9,4.5
		c0.5,1.5,1.3,2.9,1.8,4.3c0.4,1.1,1,2.2,1.3,3.4c0.2,0.6,0.1,1.3,0.7,1.9c0.4,0.4,0.7,1.2,0.7,1.8c0.2,1.3,0.7,2.4,1.3,3.6
		c0.1,0.2,0.1,0.6,0.3,0.7c0.6,0.4-0.2,1.1,0.3,1.5c-0.3,0.2-0.5,0.5-0.8,0.5c-0.3,0-0.6-0.1-0.9-0.2c-0.1,0-0.2-0.2-0.2-0.2
		c0.1-0.1,0.3-0.2,0.6-0.4c0.1,0,0-0.1-0.1-0.1c0,0.1,0,0.1,0,0.2c0.1,0,0.2,0,0.3,0c0,0,0-0.1-0.2-0.1c-0.6-0.3-1.6,0.2-1.5-0.8
		c-0.3,0-0.8-0.2-0.9,0.3c-0.1,0.5-0.2,0.6-0.7,0.7c-0.7,0.1-0.9,0.1-1-0.7c0-0.3,0.3-1-0.5-0.4c-0.1,0-0.6-0.2-0.6-0.4
		c-0.1-1.2-1.1-2-1.3-3.3c-0.2-1.1-0.7-2.1-1.1-3.1c-0.6-1.7-1.2-3.3-1.9-5c-0.2-0.5-0.3-1-0.5-1.4c-0.1-0.2-0.3-0.4-0.5-0.6
		c-0.2,0.2-0.6,0.4-0.7,0.6C878.5,292.8,878.1,292.9,877.8,293.3c-0.1-0.1,0-0.4,0-0.7c-0.1,0-0.3,0-0.3,0.1
		c-0.1,0.3-0.1,0.6-0.2,0.9C877.4,293.5,877.5,293.5,877.8,293.3z M859.9,295c-0.1,0-0.2-0.1-0.4-0.1c0,0.1,0,0.2,0,0.2
		c0.1,0.1,0.3,0.2,0.5,0.2c0-0.1,0-0.2-0.7-0.2c0,0,0.1-0.1,0.1-0.1c-0.1,0-0.2-0.1-0.2-0.1c0,0-0.1,0.1-0.1,0.2
		C859.2,295.1,859.3,295.1,859.9,295z M878.2,292.1c0-0.1,0.1-0.2,0.1-0.4c-0.1,0-0.2,0-0.2,0c-0.1,0.1-0.2,0.3-0.3,0.5
		c0.1,0,0.2-0.1,0.4-0.6c0.2-0.2,0.6-0.3,0-0.8c0.2,0,0.3,0,0.4,0c0.1-0.1,0.2-0.2,0.3-0.4c-0.1,0-0.2-0.1-0.2-0.1
		c-0.1,0.1-0.3,0.3-0.2,0.6C878.4,291.1,878,291.2,878.2,292.1z M887,299.7c0-0.4,0.1-0.6,0.1-0.9c-0.3,0.1-0.7,0.2-1,0.3
		c-0.1,0-0.1,0.5,0,0.6C886.4,299.7,886.6,299.7,887,299.7z M855.9,293.9c-0.2,0.2-0.3,0.3-0.5,0.5c0,0,0,0.2,0,0.2
		c0.4,0,0.6-0.7,1.1-0.4c0-0.2,0.1-0.3,0-0.5c0-0.1-0.2-0.2-0.2-0.2C856.2,293.6,856,293.7,855.9,293.9z M886.9,305
		c0.2-0.3,0.3-0.5,0.5-0.7c-0.1,0-0.3,0-0.4,0.1c-0.2,0.1-0.3,0.3-0.4,0.5C886.7,304.9,886.8,304.9,886.9,305z M864.7,293.1
		c-0.1,0-0.3,0-0.3,0.1c-0.1,0.2-0.1,0.3-0.1,0.5c0,0,0.2,0,0.3,0.1C864.7,293.5,864.7,293.3,864.7,293.1z M863.3,294.2
		c-0.1-0.1-0.2-0.3-0.3-0.4c0,0-0.2,0-0.2,0.1c0.1,0.1,0.1,0.3,0.2,0.4C863,294.3,863.1,294.2,863.3,294.2z M875.2,327.2
		c0-0.1,0.1-0.3,0.1-0.3c-0.1-0.1-0.2-0.2-0.4-0.2c0,0.1-0.1,0.2-0.1,0.2C874.9,327.1,875.1,327.1,875.2,327.2z M952,346.7
		c0.1,0,0.1,0,0.2,0c0-0.1,0-0.2-0.1-0.2c0,0-0.1,0-0.2,0C951.9,346.5,952,346.6,952,346.7z M888.3,300.7c-0.1,0-0.1,0-0.2,0
		c0,0.1-0.1,0.2-0.1,0.2c0.1,0,0.1,0,0.2,0C888.3,300.8,888.3,300.7,888.3,300.7z M887,303.2c-0.1,0-0.1,0-0.2,0
		c0,0.1-0.1,0.2-0.1,0.2c0.1,0,0.1,0,0.2,0C886.9,303.4,886.9,303.3,887,303.2z M876.9,294.9c0-0.1,0-0.1,0-0.2
		c-0.1,0-0.2,0-0.2,0.1c0,0,0,0.1,0,0.2C876.8,295,876.8,294.9,876.9,294.9z M876.5,295.7c0.1,0,0.1,0,0.2,0c0-0.1,0-0.2-0.1-0.2
		c0,0-0.1,0-0.2,0C876.4,295.5,876.4,295.6,876.5,295.7z M861.2,291.6c0-0.1,0.1-0.2,0.1-0.2c-0.1,0-0.1,0-0.2,0
		c0,0.1-0.1,0.2-0.1,0.2C861.1,291.6,861.1,291.6,861.2,291.6z M857.8,296c0-0.1,0-0.1,0-0.2c-0.1,0-0.1-0.1-0.2-0.1
		c0,0.1,0,0.1,0,0.2C857.7,296,857.7,296,857.8,296z M873.5,319.7c0.1,0,0.2,0,0.2,0.1c0-0.1,0-0.1,0-0.2c-0.1,0-0.1-0.1-0.2-0.1
		C873.5,319.6,873.5,319.7,873.5,319.7z M876.5,326.5c0-0.1,0-0.1,0-0.2c-0.1,0-0.1-0.1-0.2-0.1c0,0.1,0,0.1,0,0.2
		C876.4,326.5,876.4,326.5,876.5,326.5z M877.2,327.2c0-0.1,0-0.1,0-0.2c-0.1,0-0.2,0-0.2,0.1c0,0,0,0.1,0,0.2
		C877,327.2,877.1,327.2,877.2,327.2z M880.9,331.3c0-0.1,0-0.1,0-0.2c-0.1,0-0.2,0-0.2,0.1c0,0,0,0.1,0,0.2
		C880.7,331.3,880.8,331.3,880.9,331.3z M888.8,340.2c0.1,0,0.1,0,0.2,0c0-0.1,0-0.2-0.1-0.2c0,0-0.1,0-0.2,0
		C888.8,340.1,888.8,340.2,888.8,340.2z M871.7,322.8c0.1,0,0.1,0,0.2,0c0-0.1,0-0.2-0.1-0.2c0,0-0.1,0-0.2,0
		C871.6,322.7,871.6,322.8,871.7,322.8z M875.9,327.8c0-0.1,0-0.1,0-0.2c-0.1,0-0.2,0-0.2,0.1c0,0,0,0.1,0,0.2
		C875.8,327.9,875.9,327.9,875.9,327.8z M879,331.2c0-0.1,0-0.1,0-0.2c-0.1,0-0.2,0-0.2,0.1c0,0,0,0.1,0,0.2
		C878.8,331.3,878.9,331.2,879,331.2z"/>
	<path id="XMLID_1386_" class="st5" d="M875.8,299.1c0.1,0,0.2,0,0.4,0c0,0.1-0.1,0.2-0.1,0.3C875.9,299.3,875.8,299.2,875.8,299.1z
		"/>
	<path id="XMLID_1385_" class="st5" d="M876,299.4c0,0.1,0,0.2,0,0.4c-0.1,0-0.2-0.1-0.3-0.1C875.8,299.5,875.9,299.4,876,299.4z"/>
	<path id="XMLID_1384_" class="st5" d="M866.9,292.9c0,0.1,0,0.1,0,0.1c-0.1,0-0.2,0-0.3,0c0-0.1,0-0.1,0-0.2
		C866.7,292.9,866.8,292.9,866.9,292.9z"/>
	<path id="XMLID_1383_" class="st5" d="M859.2,296.4c0,0.1,0,0.1,0,0.2c-0.1,0-0.2,0-0.2-0.1c0,0,0-0.1,0-0.2
		C859.1,296.3,859.1,296.4,859.2,296.4z"/>
</g>
<g id="XMLID_1_">
	<path id="XMLID_6_" class="st5" d="M1310.4,427.3c0.2-0.2,0.5-0.3,0.7-0.5c0,0,0-0.2-0.1-0.3c-0.2,0.1-0.5,0.3-0.6,0.3
		c0.2-0.4,0.1-0.8,0.5-1.1c0.2-0.1,0.1-0.6,0.2-0.9c-0.2,0-0.5-0.2-0.7-0.1c-0.5,0.1-1,0.2-1.5,0.3c-1.7,0.1-3.4,0.4-5.2,0.7
		c-1.1,0.1-2.2,0.1-3.2,0.5c-1.1,0.4-2.3,0-3.4,0.4c-0.2,0.1-0.7-0.2-0.6-0.3c0.1-0.9-0.3-0.3-0.6-0.2c-0.7,0.3-0.8,0.2-1-0.5
		c-0.2-0.5-0.1-0.6,0.2-0.9c0.3-0.3-0.1-0.6-0.2-0.8c-0.8,0.5-0.9-0.5-1.4-0.9c-0.1-0.1-0.2-0.1-0.2-0.1c0,0.1,0.1,0.2,0.1,0.2
		c0.1,0,0.1-0.1,0.2-0.1c0-0.1-0.1-0.1-0.1,0c0,0.3,0,0.5-0.1,0.7c-0.1,0-0.2,0-0.3-0.1c-0.2-0.2-0.5-0.4-0.6-0.7
		c-0.1-0.2,0-0.6,0.1-0.9c0.6,0.2,0.8-0.8,1.4-0.5c0.2,0.1,0.5-0.1,0.7-0.1c1.2,0,2.5-0.1,3.7-0.5c0.6-0.2,1.3-0.4,1.9-0.2
		c0.8,0.3,1.3-0.2,1.9-0.3c1.2-0.2,2.4-0.3,3.5-0.4c1.5-0.2,3.1-0.2,4.6-0.4c1.6-0.2,3.2,0,4.7-0.5c0.8,0.3,1.8-0.1,2.6,0.3
		c0.3,0.1,1.8,1.1,2.2,1.4c0.1,0.1,0.2,0.1,0.3,0.1c0.3-0.2,0.5-0.1,0.6,0.2c0.4,0.5,0.6,1.1,0.5,1.8c0,0.8,0.2,1.6,0.1,2.5
		c-0.1,0.8,0.1,1.6,0.2,2.4c0.1,1.4,0,2.7,0,4c0,1.2-0.2,2.5,0,3.7c0.2,1.5,0.1,3,0.1,4.5c0,0.9-0.4,1.8-0.2,2.7
		c0.2,1,0.1,1.9,0.1,2.8c0,0.3,0,0.7,0,1.1c0,0.3,0.2,0.8,0.1,0.9c-0.5,0.3-0.1,0.6-0.2,0.9c-0.1,0.3-0.1,0.6-0.3,0.9
		c-0.1,0.2-0.5,0.2-0.7,0.2c0-0.2-0.1-0.4-0.1-0.6c0-0.3,0.1-0.5,0.2-0.8c0-0.1-0.1-0.3-0.2-0.3c-0.1,0-0.3,0.1-0.4,0.2
		c-0.1,0.4-0.2,0.9-0.3,1.3c0,0.1-0.2,0.3-0.3,0.3c-0.1,0-0.3-0.1-0.4-0.2c-0.3-0.5-0.3-1.3-0.7-1.5c-0.7-0.4-0.4-1-0.5-1.5
		c-0.1-0.6-0.7-1-0.4-1.6c0.4-0.8-0.6-1-0.8-1.5c-0.1-0.4,0-0.6,0.3-0.8c-0.2-0.2-0.3-0.4-0.4-0.6c0,0,0.2-0.2,0.3-0.3
		c0.1-0.1,0.3,0,0.4-0.1c-0.1-0.1-0.2-0.2-0.3-0.3c-0.2-0.2-0.4-0.4-0.4-0.6c-0.1-0.4,0-0.9-0.1-1.4c-0.1-0.5-0.4-1.1-0.2-1.3
		c0.4-0.4-0.1-0.9,0.2-1.2c0.2,0,0.5,0.1,0.6,0c0.2-0.2,0.2-0.4-0.1-0.6c-0.2-0.1-0.3-0.3-0.4-0.5c-0.3-0.4-0.5-0.7-0.8,0
		c-0.1,0.3-0.4,0.5-0.6,0.7c-1.6,1.3-3.1,2.7-4.7,3.8c-1.7,1.2-3.5,2.2-5.3,3.1c-2.3,1.1-4.8,1.5-7.1,2.4c-0.3,0.1-0.6-0.1-0.9,0
		c-1.2,0.5-2.5,0.4-3.8,0.6c-1.3,0.2-2.7,0-4,0c-1.9,0-3.7-0.6-5.6-0.4c-0.2,0-0.5-0.4-0.6-0.4c-0.6,0.5-0.8,0-1.1-0.4
		c-0.1-0.1-0.3-0.3-0.5-0.2c-0.2,0-0.3,0.3-0.5,0.4c-0.2-0.6-0.5,0-0.7-0.1c-0.2-0.1-0.5-0.2-0.8-0.2c-0.4,0-0.5-0.5-1-0.3
		c-0.3,0.1-0.9-0.1-1.2-0.6c0,0-0.3,0.1-0.4,0.1c-0.6-0.1-1.3,0-1.7-0.3c-0.5-0.4-1-0.5-1.6-0.7c-0.4-0.1-0.7-0.3-1.1-0.5
		c-0.3-0.1-0.6,0-0.9-0.2c-0.3-0.2-0.6-0.6-0.8-0.9c-0.1-0.1-0.2-0.1-0.3-0.1c-1-0.1-2.1,0-2.8-1.1c0,0-0.2-0.1-0.2,0
		c-0.7,0.4-0.7-0.3-0.9-0.7c0.1-0.1,0.2-0.1,0.3-0.2c-0.1-0.1-0.2-0.1-0.4-0.4c0-0.1,0.1,0.1,0.2,0.2c0.1-0.1,0.4-0.3,0.4-0.4
		c0-0.2-0.2-0.4-0.3-0.6c-0.1,0.2-0.2,0.3-0.2,0.8c0.1,0.3,0.1,0.4,0.1,0.5c-0.2,0.1-0.5,0.2-0.5,0.2c-0.7-0.5-1.4-1-2.3-1.2
		c-0.4-0.1-0.8-0.5-1.1-0.8c-0.3-0.3-1.1-0.1-0.8-0.9c-0.1,0-0.2-0.1-0.2,0c-0.4,0.3-0.5,0-0.8-0.2c-0.4-0.3-0.8-0.4-1.1-0.9
		c-0.2-0.3-0.8-0.5-1.2-0.7c-0.3-0.1-0.6-0.2-0.8-0.4c-1.3-1.1-2.6-2.4-4-3.4c-1.4-1-2.5-2.5-3.9-3.6c-1-0.8-1.8-2-2.7-3
		c-1.3-1.5-2.6-2.9-3.8-4.5c-1.4-1.9-2.8-3.8-4.2-5.7c-0.5-0.7-0.7-1.6-1.3-2c-0.8-0.6-0.7-1.5-1.2-2.2c-0.9-1.3-1.7-2.6-2.3-4.1
		c-0.2-0.4-0.5-0.9-0.6-1.3c-0.3-1.1-1.1-1.9-1.4-2.9c-0.5-1.6-1.2-3.1-1.7-4.7c-0.8-2.2-1.3-4.5-1.9-6.8c-0.4-1.7-0.6-3.4-0.9-5.1
		c-0.2-0.9-0.4-2,0.5-2.8c0.2-0.2,0.3-0.3,0.6-0.2c0.4,0.1,0.6,0.4,0.9,0.5c0.5,0.1,0.7,0.4,0.9,0.8c0.2,0.3,0.6-0.2,0.8,0.3
		c0.1,0.4,0.4,0.8,0.5,1.2c0.4,1.2,0.7,2.5,1,3.7c0.4,1.8,1,3.6,1.6,5.3c0.7,1.9,1.3,3.7,2.2,5.5c1,2,1.7,4.1,2.9,6
		c0.1,0.2,0.3,0.4,0.3,0.6c0.5,2,2.2,3.3,2.7,5.3c1,0.8,1.3,2.1,2.1,3c0.7,1,1.5,1.9,2.2,2.8c1,1.3,1.9,2.7,2.9,3.9
		c1.4,1.6,2.9,3.1,4.5,4.6c3,2.7,6,5.3,9.4,7.4c0.6,0.4,1.1,0.9,1.8,1.1c1.3,0.5,2.6,1.2,3.9,1.7c1.2,0.5,2.5,0.9,3.7,1.5
		c0.4,0.2,0.8,0.2,1.2,0.3c0.4,0.1,0.8,0.1,1.2,0.5c0.2,0.2,0.7,0,1.1,0.1c1.9,0.3,3.8,0.7,5.7,1c0.1,0,0.2,0.1,0.3,0
		c0.4-0.4,0.5,0.1,0.6,0.3c0.1,0.1,0.1,0.4,0.4,0.1c0.5-0.6,1.3-0.8,1.8-0.6c0.9,0.3,1.7,0.1,2.5-0.2c0.4-0.1,0.6-0.2,0.8,0.2
		c0.2,0.6,0.4,0.4,0.7,0c0.5-0.5,1.2-0.5,1.9-0.3c0.5,0.1,1.1,0.5,1.1-0.5c0.4-0.1,0.8-0.3,1.2-0.3c0.7,0.1,0.6,0.1,1.2-0.3
		c0.5-0.3,1.1-0.5,1.7-0.8c0.2,0.7,0.6,0.1,0.8,0.2c0.4,0,0.7-0.3,0.8-0.8c0-0.2,0.3-0.3,0.5-0.4c1-0.5,2.3-0.6,3-1.7
		c0-0.1,0.2-0.1,0.3,0c0.7,0.2,1.1-0.2,1.5-0.7c0.3-0.3,2.1-1.5,2.2-1.6c0.1-0.1,0.2-0.4,0.3-0.6c0.1-0.1,0.3-0.2,0.4-0.2
		c0.5-0.3,1-0.7,1.4-1.1c0.3-0.3-0.1-0.2-0.2-0.3c-0.1-0.1-0.1-0.2-0.1-0.3c0.7-0.1,0.6-0.9,1.1-1.2c0.4-0.4,0.7-0.8,1.1-1.2
		c0.2-0.2,0.4-0.2,0.6-0.2C1310.4,427.1,1310.4,427.2,1310.4,427.3z M1318,443.5c0-0.1,0.1-0.2,0.1-0.2c-0.1-0.1-0.1-0.1-0.2-0.2
		c0,0,0,0.1,0,0.1c-0.3-0.5-0.4-0.5-0.5-0.5c0.1,0.1,0.3,0.2,0.4,0.3c0,0,0.1-0.1,0.2-0.1c-0.1-0.1-0.2-0.2-0.3-0.3
		C1317.9,443.3,1318,443.4,1318,443.5z M1312.1,425.1c0.3-0.1,0.4-0.3,0.4-0.4c0,0-0.1-0.1-0.2-0.1c-0.1,0.1-0.1,0.3-0.2,0.4
		c0,0.1,0.1,0.1,0.2,0.3c-0.7-0.3-0.6,0.2-0.7,0.4c-0.4,0.4-0.3,0.5-0.3,0.6c0.1-0.1,0.2-0.3,0.3-0.4c0,0-0.1-0.1-0.1-0.2
		c-0.1,0.1-0.2,0.2-0.3,0.3C1312.1,425.7,1312,425.3,1312.1,425.1z M1300.9,422.6c0.1,0.1,0.5-0.2,0.5-0.2c0-0.3-0.1-0.6-0.2-1
		c-0.2,0.1-0.4,0.3-0.7,0.5C1300.7,422.2,1300.8,422.5,1300.9,422.6z M1320.7,445c0,0-0.2-0.1-0.3-0.1c-0.1,0-0.3,0.2-0.4,0.2
		c0.5,0.3,0,0.8,0.2,1.2c0,0,0.2,0,0.2-0.1c0.1-0.2,0.1-0.4,0.2-0.6C1320.7,445.5,1320.7,445.2,1320.7,445z M1296.3,424.6
		c0.1-0.2,0.2-0.4,0.2-0.6c0-0.1-0.1-0.2-0.1-0.3c-0.1,0.2-0.2,0.4-0.4,0.7C1296.1,424.4,1296.2,424.5,1296.3,424.6z M1316.4,438.1
		c0.1,0.1,0.2,0.3,0.2,0.3c0.1-0.1,0.3-0.2,0.4-0.3c0,0-0.1-0.2-0.1-0.3C1316.8,437.9,1316.6,438,1316.4,438.1z M1316.8,439.8
		c0.1,0,0.3,0,0.4,0c0-0.1,0-0.2-0.1-0.2c-0.1,0-0.3,0-0.5-0.1C1316.8,439.7,1316.8,439.8,1316.8,439.8z M1283.1,444.5
		c0,0,0.1-0.1,0.2-0.2c-0.1-0.1-0.3-0.2-0.4-0.2c0,0-0.1,0.1-0.2,0.2C1282.8,444.4,1283,444.5,1283.1,444.5z M1228.9,388
		c0,0-0.1-0.1-0.1-0.1c-0.1,0-0.2,0-0.2,0c0,0,0.1,0.1,0.1,0.1C1228.7,388.1,1228.8,388.1,1228.9,388z M1298.8,421.4
		c0,0,0,0.1,0.1,0.1c0.1-0.1,0.1-0.1,0.1-0.2c0,0,0-0.1-0.1-0.1C1298.9,421.3,1298.9,421.3,1298.8,421.4z M1297.3,423.7
		c0,0,0,0.1,0.1,0.1c0.1-0.1,0.1-0.1,0.1-0.2c0,0,0-0.1-0.1-0.1C1297.4,423.6,1297.3,423.7,1297.3,423.7z M1309.5,428.5
		c0,0,0.1-0.1,0.1-0.1c0-0.1,0-0.2,0-0.2c0,0-0.1,0.1-0.1,0.1C1309.5,428.4,1309.5,428.4,1309.5,428.5z M1309.2,429
		c0,0-0.1-0.1-0.1-0.1c-0.1,0-0.2,0-0.2,0c0,0,0.1,0.1,0.1,0.1C1309.1,429,1309.2,429,1309.2,429z M1320,440.2
		c0.1-0.1,0.1-0.1,0.1-0.2c0,0,0-0.1-0.1-0.1c-0.1,0.1-0.1,0.1-0.2,0.2C1320,440.2,1320,440.2,1320,440.2z M1318,445.1
		c0,0,0.1,0,0.1-0.1c-0.1-0.1-0.1-0.1-0.2-0.2c0,0-0.1,0-0.1,0.1C1317.9,445,1317.9,445.1,1318,445.1z M1290,442.3
		c-0.1-0.1-0.1-0.1-0.2-0.2c0,0-0.1,0-0.1,0.1c0.1,0.1,0.1,0.1,0.2,0.2C1290,442.4,1290,442.4,1290,442.3z M1282.8,443.1
		c0,0,0.1,0,0.1-0.1c-0.1-0.1-0.1-0.1-0.2-0.2c0,0-0.1,0-0.1,0.1C1282.7,443,1282.8,443,1282.8,443.1z M1281.8,442.9
		c0,0,0.1-0.1,0.1-0.1c0-0.1,0-0.2,0-0.2c0,0-0.1,0.1-0.1,0.1C1281.8,442.7,1281.8,442.8,1281.8,442.9z M1276.5,441.6
		c0,0,0.1-0.1,0.1-0.1c0-0.1,0-0.2,0-0.2c0,0-0.1,0.1-0.1,0.1C1276.5,441.4,1276.5,441.5,1276.5,441.6z M1265.2,438.7
		c0,0-0.1-0.1-0.1-0.1c-0.1,0-0.2,0-0.2,0c0,0,0.1,0.1,0.1,0.1C1265,438.7,1265.1,438.7,1265.2,438.7z M1288.4,445.3
		c0,0-0.1-0.1-0.1-0.1c-0.1,0-0.2,0-0.2,0c0,0,0.1,0.1,0.1,0.1C1288.2,445.4,1288.3,445.3,1288.4,445.3z M1281.9,444.3
		c0,0,0.1-0.1,0.1-0.1c0-0.1,0-0.2,0-0.2c0,0-0.1,0.1-0.1,0.1C1281.8,444.1,1281.8,444.2,1281.9,444.3z M1277.5,443.2
		c0,0,0.1-0.1,0.1-0.1c0-0.1,0-0.2,0-0.2c0,0-0.1,0.1-0.1,0.1C1277.4,443,1277.5,443.1,1277.5,443.2z"/>
	<path id="XMLID_5_" class="st5" d="M1306.4,431.2c0-0.1-0.1-0.2-0.1-0.3c-0.1,0.1-0.1,0.2-0.2,0.2
		C1306.2,431.1,1306.3,431.1,1306.4,431.2z"/>
	<path id="XMLID_4_" class="st5" d="M1306.1,431.1c-0.1,0.1-0.2,0.1-0.3,0.2c0.1,0.1,0.2,0.1,0.2,0.2
		C1306.1,431.3,1306.1,431.2,1306.1,431.1z"/>
	<path id="XMLID_3_" class="st5" d="M1316,435.9c0,0-0.1,0.1-0.1,0.1c0,0.1,0.1,0.2,0.1,0.2c0.1,0,0.1-0.1,0.2-0.1
		C1316.1,436,1316.1,436,1316,435.9z"/>
	<path id="XMLID_2_" class="st5" d="M1316.8,443.9c-0.1,0-0.1,0.1-0.1,0.1c0.1,0.1,0.1,0.1,0.2,0.2c0,0,0.1,0,0.1-0.1
		C1316.9,444,1316.9,444,1316.8,443.9z"/>
</g>
<g id="XMLID_31_">
	<path id="XMLID_36_" class="st5" d="M1410,205.9c-0.2,0-0.5,0-0.7-0.2c-0.4-0.3-0.8-0.8-1.2-1.1c-0.5-0.3-0.5-1.1-1.2-1.2
		c0-0.1,0-0.2,0.1-0.3c0.1-0.1,0.5-0.1,0.1-0.4c-0.5-0.3-1-0.6-1.6-0.9c-0.1-0.1-0.3-0.1-0.4-0.2c-0.1-0.2-0.2-0.4-0.3-0.5
		c-0.1-0.1-2-1.1-2.4-1.4c-0.5-0.4-0.9-0.8-1.6-0.5c-0.1,0-0.2,0-0.3,0c-0.9-1-2.1-1-3.3-1.4c-0.2-0.1-0.5-0.2-0.5-0.4
		c-0.1-0.5-0.4-0.8-0.9-0.8c-0.3,0-0.8-0.5-0.8,0.2c-0.6-0.2-1.2-0.3-1.8-0.6c-0.6-0.3-0.6-0.3-1.3-0.1c-0.4,0.1-0.9-0.1-1.3-0.2
		c-0.2-1-0.7-0.5-1.2-0.4c-0.7,0.3-1.4,0.3-2-0.1c-0.4-0.3-0.6-0.5-0.7,0.1c-0.1,0.4-0.4,0.4-0.8,0.3c-0.9-0.3-1.7-0.3-2.6,0
		c-0.5,0.2-1.4,0.1-1.9-0.4c-0.3-0.3-0.3,0-0.4,0.1c-0.1,0.2-0.1,0.7-0.6,0.4c-0.1,0-0.2,0-0.3,0.1c-1.9,0.5-3.8,1.1-5.7,1.6
		c-0.4,0.1-0.9,0-1.1,0.2c-0.3,0.4-0.8,0.4-1.1,0.6c-0.4,0.2-0.9,0.2-1.2,0.5c-1.2,0.7-2.4,1.2-3.6,1.9c-1.3,0.7-2.5,1.5-3.8,2.2
		c-0.6,0.3-1.1,0.8-1.7,1.3c-3.2,2.5-6.1,5.4-8.8,8.4c-1.4,1.6-2.8,3.3-4,5.1c-1,1.3-1.7,2.8-2.5,4.3c-0.6,1-1.3,2-1.9,3.1
		c-0.6,1.1-0.8,2.4-1.8,3.3c-0.3,2-1.8,3.6-2.1,5.6c0,0.2-0.2,0.4-0.3,0.6c-1,2-1.5,4.2-2.3,6.4c-0.7,1.9-1.1,3.9-1.6,5.8
		c-0.5,1.8-0.8,3.6-1,5.5c-0.1,1.3-0.4,2.6-0.6,3.8c-0.1,0.4-0.4,0.8-0.4,1.2c-0.1,0.6-0.6,0.1-0.7,0.4c-0.2,0.4-0.4,0.7-0.9,0.9
		c-0.3,0.1-0.5,0.5-0.9,0.6c-0.3,0.1-0.4,0-0.7-0.2c-1-0.8-0.9-1.9-0.8-2.8c0.2-1.8,0.1-3.5,0.4-5.3c0.3-2.4,0.6-4.7,1.2-7.1
		c0.4-1.6,0.9-3.2,1.2-4.9c0.2-1.1,0.9-2,1.1-3.1c0.1-0.4,0.4-1,0.5-1.4c0.4-1.6,1.1-3,1.9-4.3c0.4-0.7,0.2-1.7,1-2.3
		c0.6-0.5,0.7-1.5,1.1-2.2c1.2-2.1,2.3-4.2,3.6-6.2c1.1-1.7,2.2-3.3,3.4-4.9c0.8-1.1,1.5-2.4,2.4-3.3c1.3-1.3,2.2-2.8,3.6-4
		c1.3-1.2,2.4-2.6,3.7-3.9c0.2-0.2,0.5-0.4,0.8-0.5c0.4-0.3,0.9-0.4,1.1-0.8c0.3-0.5,0.7-0.7,1-1c0.3-0.2,0.4-0.5,0.8-0.3
		c0,0,0.1,0,0.2-0.1c-0.4-0.8,0.5-0.6,0.7-1c0.3-0.4,0.6-0.7,1-0.9c0.8-0.4,1.5-0.8,2.2-1.5c0.1-0.1,0.4,0.1,0.6,0.1
		c0,0.1,0.1,0.2,0,0.6c0.1,0.5,0.2,0.6,0.3,0.7c0.1-0.2,0.3-0.4,0.3-0.6c0-0.1-0.3-0.3-0.4-0.4c-0.1,0.1-0.2,0.3-0.1,0.2
		c0.2-0.3,0.3-0.4,0.4-0.4c-0.1,0-0.2-0.1-0.3-0.1c0.1-0.4,0-1.1,0.8-0.8c0.1,0,0.2,0,0.2-0.1c0.5-1.2,1.7-1.2,2.7-1.4
		c0.1,0,0.3,0,0.3-0.1c0.3-0.3,0.4-0.7,0.8-1c0.2-0.2,0.6-0.1,0.9-0.3c0.4-0.2,0.7-0.4,1.1-0.6c0.5-0.3,1.1-0.3,1.5-0.8
		c0.3-0.4,1.1-0.3,1.7-0.5c0.1,0,0.4,0.1,0.4,0c0.2-0.5,0.8-0.8,1.2-0.7c0.6,0.2,0.6-0.4,1-0.4c0.3,0,0.5-0.1,0.8-0.3
		c0.2-0.2,0.6,0.5,0.7-0.2c0.2,0.1,0.3,0.3,0.5,0.4c0.1,0,0.4-0.1,0.5-0.3c0.2-0.4,0.4-1,1.1-0.5c0.1,0,0.3-0.5,0.5-0.5
		c2,0.1,3.8-0.8,5.7-0.9c1.4-0.1,2.7-0.4,4.1-0.4c1.3,0.1,2.6-0.1,3.9,0.2c0.3,0.1,0.6-0.1,0.9,0c2.5,0.6,5.1,0.8,7.5,1.7
		c2,0.7,3.9,1.6,5.8,2.6c1.8,1,3.5,2.2,5.2,3.4c0.3,0.2,0.6,0.4,0.7,0.6c0.4,0.7,0.6,0.4,0.8-0.1c0.1-0.2,0.2-0.4,0.4-0.5
		c0.4-0.2,0.3-0.4,0.1-0.6c-0.1-0.1-0.4,0-0.6,0.1c-0.3-0.3,0.1-0.8-0.3-1.2c-0.2-0.2,0.1-0.9,0.1-1.3c0-0.5-0.1-0.9-0.1-1.4
		c0-0.2,0.2-0.5,0.4-0.7c0.1-0.1,0.2-0.2,0.3-0.3c-0.2,0-0.3,0-0.5,0c-0.1,0-0.3-0.2-0.3-0.3c0.1-0.2,0.2-0.5,0.4-0.7
		c-0.3-0.1-0.5-0.3-0.4-0.7c0.1-0.6,1.1-0.8,0.6-1.6c-0.4-0.6,0.2-1.1,0.2-1.7c0-0.4-0.3-1.1,0.3-1.5c0.4-0.3,0.4-1.1,0.6-1.6
		c0-0.1,0.2-0.3,0.4-0.2c0.1,0,0.2,0.2,0.3,0.3c0.2,0.4,0.3,0.9,0.5,1.3c0,0.1,0.3,0.2,0.4,0.1c0.1,0,0.2-0.2,0.2-0.3
		c0-0.3-0.2-0.5-0.3-0.8c0-0.2,0-0.4,0-0.6c0.3,0,0.6,0,0.7,0.2c0.2,0.2,0.3,0.5,0.4,0.8c0.1,0.3-0.2,0.7,0.3,0.9c0.1,0,0,0.6,0,0.9
		c0.1,0.4,0.1,0.7,0.1,1.1c0.1,0.9,0.3,1.8,0.2,2.8c-0.1,0.9,0.4,1.8,0.5,2.7c0.2,1.5,0.4,3,0.4,4.5c0,1.3,0.3,2.5,0.4,3.7
		c0.1,1.4,0.4,2.7,0.5,4.1c0,0.8-0.1,1.7,0.1,2.5c0.2,0.8,0,1.7,0.1,2.5c0.1,0.6,0,1.3-0.4,1.8c-0.2,0.3-0.3,0.4-0.6,0.3
		c-0.1,0-0.2,0-0.3,0.1c-0.3,0.3-1.8,1.4-2,1.6c-0.8,0.5-1.8,0.1-2.6,0.5c-1.6-0.3-3.2,0.1-4.9,0c-1.6-0.1-3.2,0.1-4.7,0.1
		c-1.2,0-2.4,0.1-3.6-0.1c-0.6-0.1-1.3-0.4-2-0.1c-0.5,0.2-1.3,0.2-1.9,0c-1.3-0.3-2.5-0.2-3.8-0.2c-0.3,0-0.6-0.1-0.7,0
		c-0.6,0.4-0.9-0.6-1.5-0.3c-0.1-0.3-0.2-0.6-0.2-0.9c0.1-0.3,0.4-0.5,0.6-0.7c0.1-0.1,0.2-0.1,0.3-0.1c0.1,0.2,0.1,0.3,0.1,0.7
		c0,0.1,0,0,0.1,0c-0.1,0-0.1-0.1-0.2-0.1c0,0.1-0.1,0.2-0.1,0.2c0,0,0.1,0,0.2-0.1c0.5-0.5,0.4-1.5,1.4-1.1
		c0.1-0.3,0.5-0.6,0.1-0.9c-0.4-0.3-0.5-0.4-0.3-0.9c0.2-0.7,0.3-0.8,1-0.6c0.3,0.1,0.8,0.6,0.5-0.3c0-0.1,0.5-0.4,0.6-0.4
		c1.2,0.3,2.3-0.2,3.5,0.1c1.1,0.2,2.2,0.1,3.3,0.1c1.8,0.1,3.5,0.2,5.3,0.1c0.5,0,1,0.1,1.5,0.1c0.2,0,0.5-0.1,0.7-0.2
		c-0.1-0.3-0.1-0.7-0.3-0.8C1410.2,206.7,1410.2,206.3,1410,205.9c0.1,0,0.4,0.1,0.6,0.2c0-0.1,0.1-0.3,0-0.3
		c-0.2-0.2-0.5-0.3-0.7-0.5C1409.9,205.5,1409.9,205.6,1410,205.9z M1415.6,189.1c0.1-0.1,0.2-0.2,0.3-0.3c-0.1,0-0.2-0.1-0.2-0.1
		c-0.1,0.1-0.3,0.2-0.4,0.3c0.1,0,0.2,0,0.5-0.5c0,0,0,0.1,0,0.1c0.1-0.1,0.2-0.1,0.2-0.2c0,0-0.1-0.1-0.1-0.2
		C1415.8,188.4,1415.8,188.4,1415.6,189.1z M1410.9,206.7c0.1,0.1,0.2,0.2,0.3,0.3c0-0.1,0.1-0.2,0.1-0.2c-0.1-0.1-0.2-0.3-0.3-0.4
		c0,0.1,0,0.2,0.4,0.5c0.1,0.2,0.1,0.7,0.7,0.3c-0.1,0.2-0.1,0.3-0.1,0.3c0.1,0.1,0.1,0.3,0.2,0.4c0.1,0,0.2-0.1,0.2-0.1
		c-0.1-0.2-0.1-0.3-0.5-0.4C1411.8,207.2,1411.9,206.8,1410.9,206.7z M1400.4,211.8c0.3,0.2,0.6,0.3,0.8,0.4c0-0.3,0.1-0.7,0.1-1
		c0-0.1-0.5-0.3-0.5-0.2C1400.6,211.2,1400.6,211.5,1400.4,211.8z M1418.3,185.8c-0.1-0.2-0.1-0.4-0.2-0.6c0,0-0.2-0.1-0.2-0.1
		c-0.2,0.4,0.4,0.8-0.1,1.2c0.1,0.1,0.3,0.2,0.4,0.2c0.1,0,0.3-0.1,0.3-0.1C1418.4,186.2,1418.4,186,1418.3,185.8z M1395.6,209.8
		c0.2,0.3,0.3,0.5,0.4,0.7c0-0.1,0.1-0.3,0.1-0.3c-0.1-0.2-0.2-0.4-0.3-0.5C1395.8,209.6,1395.7,209.7,1395.6,209.8z M1415.4,194.1
		c0-0.1,0.1-0.3,0.1-0.3c-0.1-0.1-0.3-0.2-0.4-0.3c0,0-0.1,0.2-0.2,0.3C1415.1,193.9,1415.2,194,1415.4,194.1z M1415,192.4
		c0.2,0,0.3,0,0.5-0.1c0,0,0-0.2,0-0.2c-0.1,0-0.3,0-0.4,0C1415.1,192.1,1415.1,192.3,1415,192.4z M1379.8,190.9
		c0.1,0.1,0.2,0.2,0.2,0.2c0.1-0.1,0.2-0.2,0.4-0.2c-0.1-0.1-0.1-0.2-0.2-0.2C1380,190.8,1379.9,190.8,1379.8,190.9z M1331,253.2
		c0,0.1,0,0.1-0.1,0.2c0.1,0,0.2,0,0.2,0c0,0,0-0.1,0.1-0.1C1331.2,253.2,1331.1,253.2,1331,253.2z M1399,212.7c0,0,0.1-0.1,0.1-0.1
		c0-0.1-0.1-0.1-0.2-0.2c0,0-0.1,0.1-0.1,0.1C1398.8,212.6,1398.9,212.6,1399,212.7z M1397.2,210.5c0,0,0.1-0.1,0.1-0.1
		c0-0.1-0.1-0.1-0.2-0.2c0,0-0.1,0.1-0.1,0.1C1397,210.4,1397.1,210.4,1397.2,210.5z M1408.9,204.5c0.1,0,0.1,0.1,0.1,0.1
		c0-0.1,0-0.2,0-0.2c0,0-0.1,0-0.1-0.1C1408.9,204.3,1408.9,204.4,1408.9,204.5z M1408.3,203.8c0,0.1,0,0.1-0.1,0.2
		c0.1,0,0.2,0,0.2,0c0,0,0-0.1,0.1-0.1C1408.5,203.8,1408.4,203.8,1408.3,203.8z M1418.2,191.5c0.1,0.1,0.1,0.1,0.2,0.2
		c0,0,0.1-0.1,0.1-0.1c0-0.1-0.1-0.1-0.2-0.2C1418.3,191.4,1418.3,191.4,1418.2,191.5z M1415.5,186.8c0,0,0.1,0.1,0.1,0.1
		c0.1,0,0.1-0.1,0.2-0.2c0,0-0.1-0.1-0.1-0.1C1415.6,186.6,1415.5,186.7,1415.5,186.8z M1387.4,192.2c-0.1,0.1-0.1,0.1-0.2,0.2
		c0,0,0.1,0.1,0.1,0.1c0.1,0,0.1-0.1,0.2-0.2C1387.5,192.2,1387.4,192.2,1387.4,192.2z M1379.9,192.4c0,0,0.1,0.1,0.1,0.1
		c0.1,0,0.1-0.1,0.2-0.2c0,0-0.1-0.1-0.1-0.1C1380,192.3,1380,192.3,1379.9,192.4z M1379,192.8c0.1,0,0.1,0.1,0.1,0.1
		c0-0.1,0-0.2,0-0.2c0,0-0.1,0-0.1-0.1C1379.1,192.6,1379.1,192.7,1379,192.8z M1373.8,194.6c0.1,0,0.1,0.1,0.1,0.1
		c0-0.1,0-0.2,0-0.2c0,0-0.1,0-0.1-0.1C1373.8,194.4,1373.8,194.5,1373.8,194.6z M1362.3,198.4c0,0.1,0,0.1-0.1,0.2
		c0.1,0,0.2,0,0.2,0c0,0,0-0.1,0.1-0.1C1362.5,198.4,1362.4,198.4,1362.3,198.4z M1385.2,189.4c0,0.1,0,0.1-0.1,0.2
		c0.1,0,0.2,0,0.2,0c0,0,0-0.1,0.1-0.1C1385.4,189.4,1385.3,189.4,1385.2,189.4z M1378.9,191.4c0.1,0,0.1,0.1,0.1,0.1
		c0-0.1,0-0.2,0-0.2c0,0-0.1,0-0.1-0.1C1378.9,191.2,1378.9,191.3,1378.9,191.4z M1374.6,192.9c0.1,0,0.1,0.1,0.1,0.1
		c0-0.1,0-0.2,0-0.2c0,0-0.1,0-0.1-0.1C1374.6,192.7,1374.6,192.8,1374.6,192.9z"/>
	<path id="XMLID_35_" class="st5" d="M1405.5,201.9c0,0.1-0.1,0.2-0.1,0.3c-0.1-0.1-0.1-0.2-0.2-0.2
		C1405.3,201.9,1405.4,201.9,1405.5,201.9z"/>
	<path id="XMLID_34_" class="st5" d="M1405.2,202c-0.1,0-0.2-0.1-0.3-0.1c0.1-0.1,0.1-0.1,0.2-0.2
		C1405.1,201.8,1405.1,201.9,1405.2,202z"/>
	<path id="XMLID_33_" class="st5" d="M1414.7,196.1c0,0-0.1-0.1-0.1-0.1c0-0.1,0-0.2,0.1-0.2c0.1,0,0.1,0.1,0.2,0.1
		C1414.8,196,1414.8,196,1414.7,196.1z"/>
	<path id="XMLID_32_" class="st5" d="M1414.6,187.9c-0.1,0-0.1-0.1-0.1-0.1c0.1-0.1,0.1-0.1,0.2-0.2c0,0,0.1,0,0.1,0.1
		C1414.7,187.8,1414.7,187.9,1414.6,187.9z"/>
</g>
<text transform="matrix(1 0 0 1 864.9776 266.6489)" class="st5 st6 st7">Hoja</text>
<text transform="matrix(1 0 0 1 1424.8048 238.1113)" class="st5 st6 st7">Lazo</text>
<text transform="matrix(1 0 0 1 1324.967 416.6929)" class="st5 st6 st7">punto</text>
</svg>
