<?xml version="1.0" encoding="utf-8"?>
<!-- Generator: Adobe Illustrator 25.2.0, SVG Export Plug-In . SVG Version: 6.00 Build 0)  -->
<svg version="1.1" id="Layer_1" xmlns="http://www.w3.org/2000/svg" xmlns:xlink="http://www.w3.org/1999/xlink" x="0px" y="0px"
	 viewBox="0 0 131.4 231.4" style="enable-background:new 0 0 131.4 231.4;" xml:space="preserve">
<style type="text/css">
	.st0{fill:#B6C475;}
	.st1{fill:#322B1B;}
</style>
<path class="st0" d="M4.9,134.6c-1.7,22.8,1.5,45.1,4.8,67.4c25.4-17.3,60.6-16.5,86-33.9c24.9-17.1,36.8-48.8,35.6-78.9
	c-0.7-30-12-58.8-25.1-86.4C98.8,18.1,84.9,29,70.8,38.3c-14.2,9.3-29,17.9-40.1,30.3C14.7,86.3,7.1,110.6,4.9,134.6z"/>
<path class="st1" d="M107.2,24.8c0,15.8-2.6,31.1-7.4,45.9c-4.7,14.4-12.3,27.8-21.4,40c-17.6,24.2-40.1,45.1-54.7,71.5
	c-4.3,7.4-7.7,14.7-9.9,22.9c-2.7,8.1-3.3,15.9-3.8,24.4c0,2.4-4.4,2.6-4.4,0.2c-0.7-14.2,4.2-29,10-41.6
	c6.6-13.2,15.3-25.6,24.5-36.9c19.3-23.6,41.3-45.6,52.9-74.1c6.9-16.4,9.2-34.7,11.8-52.3C104.6,22.8,107.3,23.4,107.2,24.8z"/>
<path class="st1" d="M102,141c-14.1,5.5-28.2,11-42.3,17.5c-13.6,6.6-26.7,14.5-38.4,24.7c-1.5,1.3-3.8-0.1-3.6-1.9
	c1.1-12.5,2.5-24.9,3.6-37.4c1.1-12.5,2.1-25,3.6-37.4c0.3-3.2,4.8-2.4,4.6,0.4c-0.6,12.7-2.5,24.9-3.6,37.4
	c-1.5,12.3-2.5,24.9-3.6,37.4c-1.2-0.5-2.3-1.4-3.6-1.9c11.3-10.4,24.8-18.1,38.4-24.7c14.2-6.9,29-11.7,43.3-16.6
	C102.7,137.9,103.7,140.2,102,141z"/>
<path class="st1" d="M122.1,89.5c-8.2,6.4-17.6,10.8-26.4,16c-8.9,5.6-17.4,11.4-25.9,17.2c-1.5,1.3-4.2-0.2-4-2
	c1.5-9.9,2.2-20.2,2.2-30.2c0.1-5.2-0.3-10.2-1-15.7c-0.5-5-1.7-10.3-2.2-15.2c-0.4-2.6,3.4-3.9,4.3-1.2c2.9,9.7,3.3,20.9,3.6,31.1
	c0.2,10.6-0.7,21.3-2.3,31.6c-1.2-0.5-2.3-1.4-4-2c8.6-6.2,17.7-12.2,26.4-17.4c8.7-5.2,18.2-11.1,28-14
	C122.3,87.7,122.8,88.8,122.1,89.5z"/>
</svg>
