<?xml version="1.0" encoding="utf-8"?>
<!-- Generator: Adobe Illustrator 25.2.0, SVG Export Plug-In . SVG Version: 6.00 Build 0)  -->
<svg version="1.1" id="Layer_1" xmlns="http://www.w3.org/2000/svg" xmlns:xlink="http://www.w3.org/1999/xlink" x="0px" y="0px"
	 viewBox="0 0 1438.6 1280.4" style="enable-background:new 0 0 1438.6 1280.4;" xml:space="preserve">
<style type="text/css">
	.st0{clip-path:url(#SVGID_2_);}
	.st1{fill:#92A141;}
	.st2{clip-path:url(#SVGID_4_);}
	.st3{clip-path:url(#SVGID_6_);}
	.st4{fill:#E07857;}
</style>
<g>
	<defs>
		<rect id="SVGID_1_" x="889.3" width="180" height="179"/>
	</defs>
	<clipPath id="SVGID_2_">
		<use xlink:href="#SVGID_1_"  style="overflow:visible;"/>
	</clipPath>
	<g class="st0">
		<path class="st1" d="M981.5,90.8c-7.9,0-12.2-6.2-12.2-12.7c0-3.4,1.1-6.2,3.1-8.8c2.3-2.5,5.4-4,9.3-4c3.7,0,7.1,1.4,9.3,4
			c2,2.3,3.1,5.4,3.1,8.8C994,84.3,989.8,90.8,981.5,90.8z M981.5,68.2c-6.5,0-9.6,5.1-9.6,9.9c0,4.8,3.1,9.9,9.6,9.9
			c6.5,0,9.6-5.1,9.6-9.9C991.2,73.2,988.3,68.2,981.5,68.2z"/>
		<path class="st1" d="M977,138.8c-7.9,0-12.2-6.2-12.2-12.7c0-3.4,1.1-6.2,3.1-8.8c2.3-2.5,5.4-4,9.3-4c3.7,0,7.1,1.4,9.3,4
			c2,2.3,3.1,5.4,3.1,8.8C989.2,132.3,984.9,138.8,977,138.8z M977,116.2c-6.5,0-9.6,5.1-9.6,9.9s3.1,9.9,9.6,9.9
			c6.5,0,9.6-5.1,9.6-9.9S983.5,116.2,977,116.2z"/>
		<path class="st1" d="M1022.6,106.3c-7.9,0-12.2-6.2-12.2-12.7c0-3.4,1.1-6.2,3.1-8.8c2.3-2.5,5.4-4,9.3-4c3.7,0,7.1,1.4,9.3,4
			c2,2.3,3.1,5.4,3.1,8.8C1034.8,100.1,1030.5,106.3,1022.6,106.3z M1022.6,83.7c-6.5,0-9.6,5.1-9.6,9.9c0,4.8,3.1,9.9,9.6,9.9
			s9.6-5.1,9.6-9.9C1031.9,89.1,1029.1,83.7,1022.6,83.7z"/>
		<path class="st1" d="M1016.6,61.9c-7.9,0-12.2-6.2-12.2-12.7c0-3.4,1.1-6.2,3.1-8.8c2.3-2.5,5.4-4,9.3-4c3.7,0,7.1,1.4,9.3,4
			c2,2.3,3.1,5.4,3.1,8.8C1029.1,55.4,1024.9,61.9,1016.6,61.9z M1016.6,39.3c-6.5,0-9.6,5.1-9.6,9.9c0,4.8,3.1,9.9,9.6,9.9
			s9.6-5.1,9.6-9.9C1026.3,44.4,1023.4,39.3,1016.6,39.3z"/>
		<path class="st1" d="M970.2,45.8c-7.9,0-12.2-6.2-12.2-12.7c0-3.4,1.1-6.2,3.1-8.8c2.3-2.5,5.4-4,9.3-4c3.7,0,7.1,1.4,9.3,4
			c2,2.3,3.1,5.4,3.1,8.8C982.4,39.3,978.1,45.8,970.2,45.8z M970.2,23.2c-6.5,0-9.6,5.1-9.6,9.9c0,4.8,3.1,9.9,9.6,9.9
			c6.5,0,9.6-5.1,9.6-9.9C979.6,28.3,976.7,23.2,970.2,23.2z"/>
		<path class="st1" d="M939.7,74.4c-7.9,0-12.2-6.2-12.2-12.7c0-3.4,1.1-6.2,3.1-8.8c2.3-2.5,5.4-4,9.3-4c3.7,0,7.1,1.4,9.3,4
			c2,2.3,3.1,5.4,3.1,8.8C952.1,68.2,947.9,74.4,939.7,74.4z M939.7,51.7c-6.5,0-9.6,5.1-9.6,9.9s3.1,9.9,9.6,9.9
			c6.5,0,9.6-5.1,9.6-9.9C949.3,57.1,946.5,51.7,939.7,51.7z"/>
		<path class="st1" d="M937.1,114.2c-7.9,0-12.2-6.2-12.2-12.7c0-3.4,1.1-6.2,3.1-8.8c2.3-2.5,5.4-4,9.3-4c3.7,0,7.1,1.4,9.3,4
			c2,2.3,3.1,5.4,3.1,8.8C949.6,107.7,945.3,114.2,937.1,114.2z M937.1,91.6c-6.5,0-9.6,5.1-9.6,9.9c0,4.8,3.1,9.9,9.6,9.9
			c6.5,0,9.6-5.1,9.6-9.9C946.7,96.7,943.6,91.6,937.1,91.6z"/>
		<path class="st1" d="M934,166.6c-7.9,0-12.2-6.2-12.2-12.7c0-3.4,1.1-6.2,3.1-8.8c2.3-2.5,5.4-4,9.3-4c3.7,0,7.1,1.4,9.3,4
			c2,2.3,3.1,5.4,3.1,8.8C946.2,160.1,942.2,166.6,934,166.6z M934,143.9c-6.5,0-9.6,5.1-9.6,9.9c0,4.8,3.1,9.9,9.6,9.9
			c6.5,0,9.6-5.1,9.6-9.9C943.6,149,940.5,143.9,934,143.9z"/>
		<path class="st1" d="M987.8,179c-1.7,0-3.4-0.3-4.8-1.1c-1.4-0.6-2.8-1.4-4-2.5c-1.1-1.1-2-2.5-2.5-4.2c-0.8-1.4-1.1-3.1-1.1-4.8
			v-1.1c0-2.3,0.6-4.5,1.7-6.5l2-2.5c1.7-1.7,3.7-2.8,5.7-3.4l3.1-0.6c2,0,3.7,0.3,5.1,1.1c1.4,0.6,2.8,1.4,4,2.5s2,2.5,2.5,4
			c0.8,1.4,1.1,3.1,1.1,4.8v1.1c0,2.3-0.6,4.5-1.7,6.5l-1.7,3.1c-1.7,1.7-3.7,2.8-5.7,3.4l-3.1,0.6C988.1,179,987.8,179,987.8,179z
			 M988.3,155.5h-0.3l-2.8,0.3c-1.4,0.6-2.8,1.4-4.2,2.5l-1.7,2.3c-0.8,1.4-1.1,3.1-1.1,4.8v1.1c0,1.4,0.3,2.5,0.8,3.7
			c0.6,1.4,1.1,2.3,2,3.4s2,1.7,3.1,2c1.4,0.6,2.5,0.8,4,0.8l2.8-0.3c1.4-0.6,2.8-1.4,4.2-2.5l1.7-2.3c0.8-1.4,1.1-3.1,1.1-4.8v-1.1
			c0-1.4-0.3-2.5-0.8-3.7v-0.3c-0.3-1.1-1.1-2.3-2-3.1c-0.8-1.1-2-1.7-3.1-2C990.6,155.8,989.5,155.5,988.3,155.5z"/>
		<path class="st1" d="M1025.7,156.1c-7.9,0-12.2-6.2-12.2-12.7c0-3.4,1.1-6.2,3.1-8.8c2.3-2.5,5.4-4,9.3-4c3.7,0,7.1,1.4,9.3,4
			c2,2.3,3.1,5.4,3.1,8.8C1037.9,149.6,1033.6,156.1,1025.7,156.1z M1025.7,133.5c-6.5,0-9.6,5.1-9.6,9.9c0,4.8,3.1,9.9,9.6,9.9
			c6.5,0,9.6-5.1,9.6-9.9C1035.3,138.6,1032.2,133.5,1025.7,133.5z"/>
		<path class="st1" d="M1056.5,108c-7.9,0-12.2-6.2-12.2-12.7c0-3.4,1.1-6.2,3.1-8.8c2.3-2.5,5.4-4,9.3-4c3.7,0,7.1,1.4,9.3,4
			c2,2.3,3.1,5.4,3.1,8.8C1068.7,101.5,1064.5,108,1056.5,108z M1056.5,85.4c-6.5,0-9.6,5.1-9.6,9.9c0,4.8,3.1,9.9,9.6,9.9
			s9.6-5.1,9.6-9.9C1066.2,90.5,1063.1,85.4,1056.5,85.4z"/>
		<path class="st1" d="M1057.1,57.7c-7.9,0-12.2-6.2-12.2-12.7c0-3.4,1.1-6.2,3.1-8.8c2.3-2.5,5.4-4,9.3-4c3.7,0,7.1,1.4,9.3,4
			c2,2.3,3.1,5.4,3.1,8.8C1069.3,51.5,1065,57.7,1057.1,57.7z M1057.1,35.1c-6.5,0-9.6,5.1-9.6,9.9c0,4.8,3.1,9.9,9.6,9.9
			s9.6-5.1,9.6-9.9C1066.7,40.2,1063.6,35.1,1057.1,35.1z"/>
		<path class="st1" d="M1003.1,25.2c-7.9,0-12.2-6.2-12.2-12.7c0-3.4,1.1-6.2,3.1-8.8c2.3-2.3,5.4-3.7,9.1-3.7c3.7,0,7.1,1.4,9.3,4
			c2,2.3,3.1,5.4,3.1,8.8C1015.5,18.9,1011.3,25.2,1003.1,25.2z M1003.1,2.8c-6.5,0-9.6,5.1-9.6,9.9c0,4.8,3.1,9.9,9.6,9.9
			c6.5,0,9.6-5.1,9.6-9.9C1012.7,7.9,1009.6,2.8,1003.1,2.8z"/>
		<path class="st1" d="M932.6,31.1c-7.9,0-12.2-6.2-12.2-12.7c0-3.4,1.1-6.2,3.1-8.8c2-2.5,5.1-4,9.1-4c3.7,0,7.1,1.4,9.3,4
			c2,2.3,3.1,5.4,3.1,8.8C944.8,24.6,940.5,31.1,932.6,31.1z M932.6,8.5c-6.5,0-9.6,5.1-9.6,9.9c0,4.8,3.1,9.9,9.6,9.9
			c6.5,0,9.6-5.1,9.6-9.9C941.9,13.6,939.1,8.5,932.6,8.5z"/>
		<path class="st1" d="M906.8,86.5c-7.9,0-12.2-6.2-12.2-12.7c0-3.4,1.1-6.2,3.1-8.8c2.3-2.5,5.4-4,9.3-4c3.7,0,7.1,1.4,9.3,4
			c2,2.3,3.1,5.4,3.1,8.8C919,80,914.8,86.5,906.8,86.5z M906.8,63.9c-6.5,0-9.6,5.1-9.6,9.9c0,4.8,3.1,9.9,9.6,9.9
			c6.5,0,9.6-5.1,9.6-9.9C916.5,69,913.3,63.9,906.8,63.9z"/>
		<path class="st1" d="M901.5,135.2c-7.9,0-12.2-6.2-12.2-12.7c0-6.2,4.2-12.7,12.2-12.7c3.7,0,7.1,1.4,9.3,4c2,2.3,3.1,5.4,3.1,8.8
			C913.9,128.7,909.7,135.2,901.5,135.2z M901.5,112.5c-6.5,0-9.3,5.1-9.3,9.9c0,2.5,0.8,5.1,2.3,6.8c1.7,2,4.2,3.1,7.1,3.1
			c6.5,0,9.6-5.1,9.6-9.9S908.2,112.5,901.5,112.5z"/>
	</g>
</g>
<g>
	<defs>
		<rect id="SVGID_3_" x="57.4" y="610.2" width="180" height="179"/>
	</defs>
	<clipPath id="SVGID_4_">
		<use xlink:href="#SVGID_3_"  style="overflow:visible;"/>
	</clipPath>
	<g class="st2">
		<path class="st1" d="M149.7,701c-7.9,0-12.2-6.2-12.2-12.7c0-3.4,1.1-6.2,3.1-8.8c2.3-2.5,5.4-4,9.3-4c3.7,0,7.1,1.4,9.3,4
			c2,2.3,3.1,5.4,3.1,8.8C162.2,694.5,157.9,701,149.7,701z M149.7,678.4c-6.5,0-9.6,5.1-9.6,9.9c0,4.8,3.1,9.9,9.6,9.9
			c6.5,0,9.6-5.1,9.6-9.9C159.3,683.5,156.5,678.4,149.7,678.4z"/>
		<path class="st1" d="M145.2,749.1c-7.9,0-12.2-6.2-12.2-12.7c0-3.4,1.1-6.2,3.1-8.8c2.3-2.5,5.4-4,9.3-4c3.7,0,7.1,1.4,9.3,4
			c2,2.3,3.1,5.4,3.1,8.8C157.3,742.6,153.1,749.1,145.2,749.1z M145.2,726.5c-6.5,0-9.6,5.1-9.6,9.9s3.1,9.9,9.6,9.9
			c6.5,0,9.6-5.1,9.6-9.9S151.7,726.5,145.2,726.5z"/>
		<path class="st1" d="M190.7,716.6c-7.9,0-12.2-6.2-12.2-12.7c0-3.4,1.1-6.2,3.1-8.8c2.3-2.5,5.4-4,9.3-4c3.7,0,7.1,1.4,9.3,4
			c2,2.3,3.1,5.4,3.1,8.8C202.9,710.3,198.7,716.6,190.7,716.6z M190.7,693.9c-6.5,0-9.6,5.1-9.6,9.9c0,4.8,3.1,9.9,9.6,9.9
			c6.5,0,9.6-5.1,9.6-9.9C200.1,699.3,197.3,693.9,190.7,693.9z"/>
		<path class="st1" d="M184.8,672.2c-7.9,0-12.2-6.2-12.2-12.7c0-3.4,1.1-6.2,3.1-8.8c2.3-2.5,5.4-4,9.3-4c3.7,0,7.1,1.4,9.3,4
			c2,2.3,3.1,5.4,3.1,8.8C197.3,665.7,193,672.2,184.8,672.2z M184.8,649.5c-6.5,0-9.6,5.1-9.6,9.9s3.1,9.9,9.6,9.9
			c6.5,0,9.6-5.1,9.6-9.9S191.6,649.5,184.8,649.5z"/>
		<path class="st1" d="M138.4,656c-7.9,0-12.2-6.2-12.2-12.7c0-3.4,1.1-6.2,3.1-8.8c2.3-2.5,5.4-4,9.3-4c3.7,0,7.1,1.4,9.3,4
			c2,2.3,3.1,5.4,3.1,8.8C150.6,649.5,146.3,656,138.4,656z M138.4,633.4c-6.5,0-9.6,5.1-9.6,9.9s3.1,9.9,9.6,9.9
			c6.5,0,9.6-5.1,9.6-9.9C147.7,638.5,144.9,633.4,138.4,633.4z"/>
		<path class="st1" d="M107.8,684.6c-7.9,0-12.2-6.2-12.2-12.7c0-3.4,1.1-6.2,3.1-8.8c2.3-2.5,5.4-4,9.3-4c3.7,0,7.1,1.4,9.3,4
			c2,2.3,3.1,5.4,3.1,8.8C120.3,678.4,116,684.6,107.8,684.6z M107.8,662c-6.5,0-9.6,5.1-9.6,9.9s3.1,9.9,9.6,9.9
			c6.5,0,9.6-5.1,9.6-9.9C117.4,667.3,114.6,662,107.8,662z"/>
		<path class="st1" d="M105.3,724.5c-7.9,0-12.2-6.2-12.2-12.7c0-3.4,1.1-6.2,3.1-8.8c2.3-2.5,5.4-4,9.3-4c3.7,0,7.1,1.4,9.3,4
			c2,2.3,3.1,5.4,3.1,8.8C117.7,718,113.5,724.5,105.3,724.5z M105.3,701.8c-6.5,0-9.6,5.1-9.6,9.9s3.1,9.9,9.6,9.9s9.6-5.1,9.6-9.9
			S111.8,701.8,105.3,701.8z"/>
		<path class="st1" d="M102.2,776.8c-7.9,0-12.2-6.2-12.2-12.7c0-3.4,1.1-6.2,3.1-8.8c2.3-2.5,5.4-4,9.3-4c3.7,0,7.1,1.4,9.3,4
			c2,2.3,3.1,5.4,3.1,8.8C114.3,770.3,110.4,776.8,102.2,776.8z M102.2,754.2c-6.5,0-9.6,5.1-9.6,9.9c0,4.8,3.1,9.9,9.6,9.9
			s9.6-5.1,9.6-9.9C111.8,759.3,108.7,754.2,102.2,754.2z"/>
		<path class="st1" d="M155.9,789.2c-1.7,0-3.4-0.3-4.8-1.1c-1.4-0.6-2.8-1.4-4-2.5c-1.1-1.1-2-2.5-2.5-4.2
			c-0.8-1.4-1.1-3.1-1.1-4.8v-1.1c0-2.3,0.6-4.5,1.7-6.5l2-2.5c1.7-1.7,3.7-2.8,5.7-3.4l3.1-0.6c2,0,3.7,0.3,5.1,1.1
			c1.4,0.6,2.8,1.4,4,2.5s2,2.5,2.5,4c0.8,1.4,1.1,3.1,1.1,4.8v1.1c0,2.3-0.6,4.5-1.7,6.5l-1.7,3.1c-1.7,1.7-3.7,2.8-5.7,3.4
			l-3.1,0.6C156.2,789.2,155.9,789.2,155.9,789.2z M156.5,765.8h-0.3l-2.8,0.3c-1.4,0.6-2.8,1.4-4.2,2.5l-1.7,2.3
			c-0.8,1.4-1.1,3.1-1.1,4.8v1.1c0,1.4,0.3,2.5,0.8,3.7c0.6,1.4,1.1,2.3,2,3.4c0.8,1.1,2,1.7,3.1,2c1.4,0.6,2.5,0.8,4,0.8l2.8-0.3
			c1.4-0.6,2.8-1.4,4.2-2.5l1.7-2.3c0.8-1.4,1.1-3.1,1.1-4.8v-1.1c0-1.4-0.3-2.5-0.8-3.7v-0.3c-0.3-1.1-1.1-2.3-2-3.1
			c-0.8-1.1-2-1.7-3.1-2C158.8,766,157.6,765.8,156.5,765.8z"/>
		<path class="st1" d="M193.9,766.3c-7.9,0-12.2-6.2-12.2-12.7c0-3.4,1.1-6.2,3.1-8.8c2.3-2.5,5.4-4,9.3-4c3.7,0,7.1,1.4,9.3,4
			c2,2.3,3.1,5.4,3.1,8.8C206,759.8,201.8,766.3,193.9,766.3z M193.9,743.7c-6.5,0-9.6,5.1-9.6,9.9c0,4.8,3.1,9.9,9.6,9.9
			c6.5,0,9.6-5.1,9.6-9.9C203.5,748.8,200.4,743.7,193.9,743.7z"/>
		<path class="st1" d="M224.7,718.2c-7.9,0-12.2-6.2-12.2-12.7c0-3.4,1.1-6.2,3.1-8.8c2.3-2.5,5.4-4,9.3-4c3.7,0,7.1,1.4,9.3,4
			c2,2.3,3.1,5.4,3.1,8.8C236.9,711.7,232.6,718.2,224.7,718.2z M224.7,695.6c-6.5,0-9.6,5.1-9.6,9.9s3.1,9.9,9.6,9.9
			c6.5,0,9.6-5.1,9.6-9.9S231.2,695.6,224.7,695.6z"/>
		<path class="st1" d="M225.3,667.9c-7.9,0-12.2-6.2-12.2-12.7c0-3.4,1.1-6.2,3.1-8.8c2.3-2.5,5.4-4,9.3-4c3.7,0,7.1,1.4,9.3,4
			c2,2.3,3.1,5.4,3.1,8.8C237.4,661.7,233.2,667.9,225.3,667.9z M225.3,645.3c-6.5,0-9.6,5.1-9.6,9.9c0,4.8,3.1,9.9,9.6,9.9
			c6.5,0,9.6-5.1,9.6-9.9C234.9,650.4,231.8,645.3,225.3,645.3z"/>
		<path class="st1" d="M171.2,635.4c-7.9,0-12.2-6.2-12.2-12.7c0-3.4,1.1-6.2,3.1-8.8c2.3-2.3,5.4-3.7,9.1-3.7c3.7,0,7.1,1.4,9.3,4
			c2,2.3,3.1,5.4,3.1,8.8C183.7,629.2,179.4,635.4,171.2,635.4z M171.2,613.1c-6.5,0-9.6,5.1-9.6,9.9c0,4.8,3.1,9.9,9.6,9.9
			c6.5,0,9.6-5.1,9.6-9.9C180.8,618.1,177.7,613.1,171.2,613.1z"/>
		<path class="st1" d="M100.7,641.3c-7.9,0-12.2-6.2-12.2-12.7c0-3.4,1.1-6.2,3.1-8.8c2-2.5,5.1-4,9.1-4c3.7,0,7.1,1.4,9.3,4
			c2,2.3,3.1,5.4,3.1,8.8C112.9,634.8,108.7,641.3,100.7,641.3z M100.7,618.7c-6.5,0-9.6,5.1-9.6,9.9c0,4.8,3.1,9.9,9.6,9.9
			s9.6-5.1,9.6-9.9C110.1,623.8,107.3,618.7,100.7,618.7z"/>
		<path class="st1" d="M75,696.8c-7.9,0-12.2-6.2-12.2-12.7c0-3.4,1.1-6.2,3.1-8.8c2.3-2.5,5.4-4,9.3-4c3.7,0,7.1,1.4,9.3,4
			c2,2.3,3.1,5.4,3.1,8.8C87.2,690.3,82.9,696.8,75,696.8z M75,674.1c-6.5,0-9.6,5.1-9.6,9.9c0,4.8,3.1,9.9,9.6,9.9
			c6.5,0,9.6-5.1,9.6-9.9C84.6,679.2,81.5,674.1,75,674.1z"/>
		<path class="st1" d="M69.6,745.4c-7.9,0-12.2-6.2-12.2-12.7c0-6.2,4.2-12.7,12.2-12.7c3.7,0,7.1,1.4,9.3,4c2,2.3,3.1,5.4,3.1,8.8
			C82.1,738.9,77.8,745.4,69.6,745.4z M69.6,722.8c-6.5,0-9.3,5.1-9.3,9.9c0,2.5,0.8,5.1,2.3,6.8c1.7,2,4.2,3.1,7.1,3.1
			c6.5,0,9.6-5.1,9.6-9.9C79.2,727.9,76.4,722.8,69.6,722.8z"/>
	</g>
</g>
<g>
	<defs>
		<rect id="SVGID_5_" x="1246.3" y="420" width="180" height="179"/>
	</defs>
	<clipPath id="SVGID_6_">
		<use xlink:href="#SVGID_5_"  style="overflow:visible;"/>
	</clipPath>
	<g class="st3">
		<path class="st1" d="M1338.5,510.8c-7.9,0-12.2-6.2-12.2-12.7c0-3.4,1.1-6.2,3.1-8.8c2.3-2.5,5.4-4,9.3-4c3.7,0,7.1,1.4,9.3,4
			c2,2.3,3.1,5.4,3.1,8.8C1351,504.3,1346.8,510.8,1338.5,510.8z M1338.5,488.1c-6.5,0-9.6,5.1-9.6,9.9c0,4.8,3.1,9.9,9.6,9.9
			s9.6-5.1,9.6-9.9C1348.2,493.2,1345.3,488.1,1338.5,488.1z"/>
		<path class="st1" d="M1334,558.8c-7.9,0-12.2-6.2-12.2-12.7c0-3.4,1.1-6.2,3.1-8.8c2.3-2.5,5.4-4,9.3-4c3.7,0,7.1,1.4,9.3,4
			c2,2.3,3.1,5.4,3.1,8.8C1346.2,552.3,1341.9,558.8,1334,558.8z M1334,536.2c-6.5,0-9.6,5.1-9.6,9.9s3.1,9.9,9.6,9.9
			s9.6-5.1,9.6-9.9S1340.5,536.2,1334,536.2z"/>
		<path class="st1" d="M1379.6,526.3c-7.9,0-12.2-6.2-12.2-12.7c0-3.4,1.1-6.2,3.1-8.8c2.3-2.5,5.4-4,9.3-4c3.7,0,7.1,1.4,9.3,4
			c2,2.3,3.1,5.4,3.1,8.8C1391.8,520.1,1387.5,526.3,1379.6,526.3z M1379.6,503.7c-6.5,0-9.6,5.1-9.6,9.9c0,4.8,3.1,9.9,9.6,9.9
			s9.6-5.1,9.6-9.9C1388.9,509.1,1386.1,503.7,1379.6,503.7z"/>
		<path class="st1" d="M1373.6,481.9c-7.9,0-12.2-6.2-12.2-12.7c0-3.4,1.1-6.2,3.1-8.8c2.3-2.5,5.4-4,9.3-4c3.7,0,7.1,1.4,9.3,4
			c2,2.3,3.1,5.4,3.1,8.8C1386.1,475.4,1381.9,481.9,1373.6,481.9z M1373.6,459.3c-6.5,0-9.6,5.1-9.6,9.9c0,4.8,3.1,9.9,9.6,9.9
			s9.6-5.1,9.6-9.9C1383.3,464.4,1380.4,459.3,1373.6,459.3z"/>
		<path class="st1" d="M1327.2,465.8c-7.9,0-12.2-6.2-12.2-12.7c0-3.4,1.1-6.2,3.1-8.8c2.3-2.5,5.4-4,9.3-4c3.7,0,7.1,1.4,9.3,4
			c2,2.3,3.1,5.4,3.1,8.8C1339.4,459.3,1335.2,465.8,1327.2,465.8z M1327.2,443.2c-6.5,0-9.6,5.1-9.6,9.9c0,4.8,3.1,9.9,9.6,9.9
			c6.5,0,9.6-5.1,9.6-9.9C1336.6,448.3,1333.7,443.2,1327.2,443.2z"/>
		<path class="st1" d="M1296.7,494.4c-7.9,0-12.2-6.2-12.2-12.7c0-3.4,1.1-6.2,3.1-8.8c2.3-2.5,5.4-4,9.3-4c3.7,0,7.1,1.4,9.3,4
			c2,2.3,3.1,5.4,3.1,8.8C1309.1,488.1,1304.9,494.4,1296.7,494.4z M1296.7,471.7c-6.5,0-9.6,5.1-9.6,9.9s3.1,9.9,9.6,9.9
			s9.6-5.1,9.6-9.9C1306.3,477.1,1303.5,471.7,1296.7,471.7z"/>
		<path class="st1" d="M1294.1,534.2c-7.9,0-12.2-6.2-12.2-12.7c0-3.4,1.1-6.2,3.1-8.8c2.3-2.5,5.4-4,9.3-4c3.7,0,7.1,1.4,9.3,4
			c2,2.3,3.1,5.4,3.1,8.8C1306.6,527.7,1302.3,534.2,1294.1,534.2z M1294.1,511.6c-6.5,0-9.6,5.1-9.6,9.9s3.1,9.9,9.6,9.9
			s9.6-5.1,9.6-9.9S1300.6,511.6,1294.1,511.6z"/>
		<path class="st1" d="M1291,586.6c-7.9,0-12.2-6.2-12.2-12.7c0-3.4,1.1-6.2,3.1-8.8c2.3-2.5,5.4-4,9.3-4c3.7,0,7.1,1.4,9.3,4
			c2,2.3,3.1,5.4,3.1,8.8C1303.2,580.1,1299.2,586.6,1291,586.6z M1291,563.9c-6.5,0-9.6,5.1-9.6,9.9c0,4.8,3.1,9.9,9.6,9.9
			s9.6-5.1,9.6-9.9C1300.6,569,1297.5,563.9,1291,563.9z"/>
		<path class="st1" d="M1344.8,599c-1.7,0-3.4-0.3-4.8-1.1c-1.4-0.6-2.8-1.4-4-2.5c-1.1-1.1-2-2.5-2.5-4.2c-0.9-1.4-1.1-3.1-1.1-4.8
			v-1.1c0-2.3,0.6-4.5,1.7-6.5l2-2.5c1.7-1.7,3.7-2.8,5.7-3.4l3.1-0.6c2,0,3.7,0.3,5.1,1.1c1.4,0.6,2.8,1.4,4,2.5s2,2.5,2.5,4
			c0.8,1.4,1.1,3.1,1.1,4.8v1.1c0,2.3-0.6,4.5-1.7,6.5l-1.7,3.1c-1.7,1.7-3.7,2.8-5.7,3.4l-3.1,0.6
			C1345.1,599,1344.8,599,1344.8,599z M1345.3,575.5h-0.3l-2.8,0.3c-1.4,0.6-2.8,1.4-4.2,2.5l-1.7,2.3c-0.8,1.4-1.1,3.1-1.1,4.8v1.1
			c0,1.4,0.3,2.5,0.8,3.7c0.6,1.4,1.1,2.3,2,3.4c0.9,1.1,2,1.7,3.1,2c1.4,0.6,2.5,0.8,4,0.8l2.8-0.3c1.4-0.6,2.8-1.4,4.2-2.5
			l1.7-2.3c0.8-1.4,1.1-3.1,1.1-4.8v-1.1c0-1.4-0.3-2.5-0.9-3.7v-0.3c-0.3-1.1-1.1-2.3-2-3.1c-0.8-1.1-2-1.7-3.1-2
			C1347.6,575.8,1346.5,575.5,1345.3,575.5z"/>
		<path class="st1" d="M1382.7,576.1c-7.9,0-12.2-6.2-12.2-12.7c0-3.4,1.1-6.2,3.1-8.8c2.3-2.5,5.4-4,9.3-4c3.7,0,7.1,1.4,9.3,4
			c2,2.3,3.1,5.4,3.1,8.8C1394.9,569.6,1390.6,576.1,1382.7,576.1z M1382.7,553.5c-6.5,0-9.6,5.1-9.6,9.9c0,4.8,3.1,9.9,9.6,9.9
			c6.5,0,9.6-5.1,9.6-9.9C1392.3,558.6,1389.2,553.5,1382.7,553.5z"/>
		<path class="st1" d="M1413.5,528c-7.9,0-12.2-6.2-12.2-12.7c0-3.4,1.1-6.2,3.1-8.8c2.3-2.5,5.4-4,9.3-4c3.7,0,7.1,1.4,9.3,4
			c2,2.3,3.1,5.4,3.1,8.8C1425.7,521.5,1421.5,528,1413.5,528z M1413.5,505.4c-6.5,0-9.6,5.1-9.6,9.9s3.1,9.9,9.6,9.9
			s9.6-5.1,9.6-9.9S1420.1,505.4,1413.5,505.4z"/>
		<path class="st1" d="M1414.1,477.7c-7.9,0-12.2-6.2-12.2-12.7c0-3.4,1.1-6.2,3.1-8.8c2.3-2.5,5.4-4,9.3-4c3.7,0,7.1,1.4,9.3,4
			c2,2.3,3.1,5.4,3.1,8.8C1426.3,471.5,1422,477.7,1414.1,477.7z M1414.1,455.1c-6.5,0-9.6,5.1-9.6,9.9s3.1,9.9,9.6,9.9
			s9.6-5.1,9.6-9.9S1420.6,455.1,1414.1,455.1z"/>
		<path class="st1" d="M1360.1,445.2c-7.9,0-12.2-6.2-12.2-12.7c0-3.4,1.1-6.2,3.1-8.8c2.3-2.3,5.4-3.7,9.1-3.7c3.7,0,7.1,1.4,9.3,4
			c2,2.3,3.1,5.4,3.1,8.8C1372.5,438.9,1368.3,445.2,1360.1,445.2z M1360.1,422.8c-6.5,0-9.6,5.1-9.6,9.9s3.1,9.9,9.6,9.9
			s9.6-5.1,9.6-9.9S1366.6,422.8,1360.1,422.8z"/>
		<path class="st1" d="M1289.6,451.1c-7.9,0-12.2-6.2-12.2-12.7c0-3.4,1.1-6.2,3.1-8.8c2-2.5,5.1-4,9.1-4c3.7,0,7.1,1.4,9.3,4
			c2,2.3,3.1,5.4,3.1,8.8C1301.8,444.6,1297.5,451.1,1289.6,451.1z M1289.6,428.5c-6.5,0-9.6,5.1-9.6,9.9c0,4.8,3.1,9.9,9.6,9.9
			s9.6-5.1,9.6-9.9C1298.9,433.6,1296.1,428.5,1289.6,428.5z"/>
		<path class="st1" d="M1263.8,506.5c-7.9,0-12.2-6.2-12.2-12.7c0-3.4,1.1-6.2,3.1-8.8c2.3-2.5,5.4-4,9.3-4c3.7,0,7.1,1.4,9.3,4
			c2,2.3,3.1,5.4,3.1,8.8C1276,500,1271.8,506.5,1263.8,506.5z M1263.8,483.9c-6.5,0-9.6,5.1-9.6,9.9c0,4.8,3.1,9.9,9.6,9.9
			s9.6-5.1,9.6-9.9C1273.5,489,1270.3,483.9,1263.8,483.9z"/>
		<path class="st1" d="M1258.5,555.2c-7.9,0-12.2-6.2-12.2-12.7c0-6.2,4.2-12.7,12.2-12.7c3.7,0,7.1,1.4,9.3,4
			c2,2.3,3.1,5.4,3.1,8.8C1270.9,548.7,1266.7,555.2,1258.5,555.2z M1258.5,532.5c-6.5,0-9.3,5.1-9.3,9.9c0,2.5,0.9,5.1,2.3,6.8
			c1.7,2,4.2,3.1,7.1,3.1c6.5,0,9.6-5.1,9.6-9.9C1268.1,537.6,1265.2,532.5,1258.5,532.5z"/>
	</g>
</g>
<path class="st4" d="M826.4,899.7l1-0.2l0-0.1l0-0.1L826.4,899.7z M645.4,769.7c0-0.6-0.5-1-1-1s-1,0.5-1,1L645.4,769.7z
	 M647.5,786.5c0.2,0.5,0.9,0.7,1.3,0.4c0.5-0.2,0.7-0.9,0.4-1.3L647.5,786.5z M673.3,807.9c-0.5-0.3-1.1-0.1-1.4,0.4
	c-0.3,0.5-0.1,1.1,0.4,1.4L673.3,807.9z M696.1,818.8c0.5,0.1,1-0.3,1.1-0.9c0.1-0.5-0.3-1-0.9-1.1L696.1,818.8z M712.1,815.2
	c-0.5,0.1-0.9,0.6-0.9,1.1c0.1,0.5,0.6,0.9,1.1,0.9L712.1,815.2z M731.7,818.3c0.5,0.1,1.1-0.2,1.2-0.7c0.1-0.5-0.2-1.1-0.7-1.2
	L731.7,818.3z M754.5,824.3c-0.5-0.2-1.1,0-1.3,0.5c-0.2,0.5,0,1.1,0.5,1.3L754.5,824.3z M774,837.8c0.5,0.3,1.1,0.2,1.4-0.3
	c0.3-0.5,0.2-1.1-0.3-1.4L774,837.8z M793.4,851.1c-0.4-0.4-1-0.4-1.4,0c-0.4,0.4-0.4,1,0,1.4L793.4,851.1z M807.6,870
	c0.3,0.4,1,0.5,1.4,0.2c0.4-0.3,0.5-1,0.2-1.4L807.6,870z M822,888.7c-0.3-0.5-0.9-0.7-1.4-0.4c-0.5,0.3-0.7,0.9-0.4,1.4L822,888.7z
	 M828.4,915.1c0.1,0.5,0.6,0.9,1.2,0.8c0.5-0.1,0.9-0.6,0.8-1.2L828.4,915.1z M834.5,945.5c0-0.6-0.5-1-1.1-0.9
	c-0.6,0-1,0.5-0.9,1.1L834.5,945.5z M832.3,976.3c-0.1,0.5,0.3,1,0.9,1.1c0.5,0.1,1-0.3,1.1-0.9L832.3,976.3z M827,1006.8
	c0.2-0.5,0-1.1-0.6-1.3c-0.5-0.2-1.1,0-1.3,0.6L827,1006.8z M809.4,1032.1c-0.4,0.4-0.3,1.1,0.1,1.4c0.4,0.4,1.1,0.3,1.4-0.1
	L809.4,1032.1z M788.3,1054.7c0.4-0.3,0.5-1,0.2-1.4c-0.3-0.4-1-0.5-1.4-0.2L788.3,1054.7z M761.3,1069.9c-0.5,0.3-0.6,0.9-0.4,1.4
	c0.3,0.5,0.9,0.6,1.4,0.4L761.3,1069.9z M734.8,1086c0.5-0.2,0.7-0.8,0.5-1.3c-0.2-0.5-0.8-0.7-1.3-0.5L734.8,1086z M643.4,769.7
	c0.2,6.3,1.7,11.9,4.2,16.8l1.8-0.9c-2.3-4.6-3.8-9.9-4-15.9L643.4,769.7z M672.4,809.7c6,3.2,11.7,5.4,15.6,7l0.7-1.9
	c-3.9-1.6-9.5-3.7-15.4-6.9L672.4,809.7z M688,816.6c3.1,1.2,5.7,1.9,8.1,2.2l0.2-2c-2.2-0.2-4.6-0.8-7.6-2L688,816.6z M712.4,817.2
	c2.3-0.3,4.9-0.5,8-0.5v-2c-3.2,0-5.8,0.2-8.2,0.5L712.4,817.2z M720.4,816.7c2.6,0,6.5,0.5,11.4,1.6l0.5-1.9
	c-4.9-1.2-9-1.7-11.8-1.7V816.7z M753.7,826.1c6.4,3,13.3,6.8,20.3,11.6l1.1-1.6c-7.1-4.9-14-8.7-20.6-11.8L753.7,826.1z
	 M792.1,852.5c5.3,5.1,10.6,10.9,15.5,17.5l1.6-1.2c-5-6.6-10.3-12.5-15.7-17.7L792.1,852.5z M820.2,889.6c1.8,3.4,3.6,6.8,5.2,10.5
	l1.8-0.8c-1.7-3.7-3.4-7.2-5.3-10.6L820.2,889.6z M825.4,899.9c1.2,5.2,2.2,10.3,3.1,15.2l2-0.4c-0.9-4.9-1.9-10-3.1-15.3
	L825.4,899.9z M832.5,945.6c0.8,11.2,0.8,21.3-0.2,30.7l2,0.2c1-9.5,1.1-19.8,0.2-31.1L832.5,945.6z M825.1,1006
	c-3.8,9.5-9.1,18.1-15.7,26.1l1.5,1.3c6.8-8.1,12.1-16.9,16-26.6L825.1,1006z M787.1,1053.1c-7.6,5.8-16.2,11.3-25.8,16.8l1,1.7
	c9.6-5.5,18.3-11.1,26-17L787.1,1053.1z M733.9,1084.2c-4.5,2.2-9.2,4.4-14,6.6l0.8,1.8c4.8-2.2,9.5-4.4,14-6.6L733.9,1084.2z"/>
</svg>
