<?xml version="1.0" encoding="utf-8"?>
<!-- Generator: Adobe Illustrator 25.2.0, SVG Export Plug-In . SVG Version: 6.00 Build 0)  -->
<svg version="1.1" id="Layer_1" xmlns="http://www.w3.org/2000/svg" xmlns:xlink="http://www.w3.org/1999/xlink" x="0px" y="0px"
	 viewBox="0 0 1054 595.3" style="enable-background:new 0 0 1054 595.3;" xml:space="preserve">
<style type="text/css">
	.st0{clip-path:url(#SVGID_2_);}
	.st1{fill:#92A141;}
	.st2{clip-path:url(#SVGID_4_);}
	.st3{fill:#B1C470;}
	.st4{fill:#312816;}
	.st5{fill:#8BA13C;}
	.st6{fill:#B6C475;}
	.st7{fill:#322B1B;}
</style>
<g>
	<defs>
		<rect id="SVGID_1_" x="918.3" y="228.5" width="124.8" height="124.1"/>
	</defs>
	<clipPath id="SVGID_2_">
		<use xlink:href="#SVGID_1_"  style="overflow:visible;"/>
	</clipPath>
	<g class="st0">
		<path class="st1" d="M982.2,291.5c-5.5,0-8.4-4.3-8.4-8.8c0-2.4,0.8-4.3,2.2-6.1c1.6-1.8,3.7-2.7,6.5-2.7c2.6,0,4.9,1,6.5,2.7
			c1.4,1.6,2.2,3.7,2.2,6.1C990.9,287,987.9,291.5,982.2,291.5z M982.2,275.8c-4.5,0-6.7,3.5-6.7,6.9c0,3.3,2.2,6.9,6.7,6.9
			c4.5,0,6.7-3.5,6.7-6.9C988.9,279.3,987,275.8,982.2,275.8z"/>
		<path class="st1" d="M979.1,324.8c-5.5,0-8.4-4.3-8.4-8.8c0-2.4,0.8-4.3,2.2-6.1c1.6-1.8,3.7-2.7,6.5-2.7c2.6,0,4.9,1,6.5,2.7
			c1.4,1.6,2.2,3.7,2.2,6.1C987.5,320.3,984.6,324.8,979.1,324.8z M979.1,309.1c-4.5,0-6.7,3.5-6.7,6.9c0,3.3,2.2,6.9,6.7,6.9
			c4.5,0,6.7-3.5,6.7-6.9C985.8,312.7,983.6,309.1,979.1,309.1z"/>
		<path class="st1" d="M1010.7,302.3c-5.5,0-8.4-4.3-8.4-8.8c0-2.4,0.8-4.3,2.2-6.1c1.6-1.8,3.7-2.7,6.5-2.7c2.6,0,4.9,1,6.5,2.7
			c1.4,1.6,2.2,3.7,2.2,6.1C1019.1,298,1016.2,302.3,1010.7,302.3z M1010.7,286.6c-4.5,0-6.7,3.5-6.7,6.9c0,3.3,2.2,6.9,6.7,6.9
			s6.7-3.5,6.7-6.9C1017.2,290.3,1015.2,286.6,1010.7,286.6z"/>
		<path class="st1" d="M1006.6,271.5c-5.5,0-8.4-4.3-8.4-8.8c0-2.4,0.8-4.3,2.2-6.1c1.6-1.8,3.7-2.7,6.5-2.7c2.6,0,4.9,1,6.5,2.7
			c1.4,1.6,2.2,3.7,2.2,6.1C1015.2,267,1012.3,271.5,1006.6,271.5z M1006.6,255.8c-4.5,0-6.7,3.5-6.7,6.9c0,3.3,2.2,6.9,6.7,6.9
			s6.7-3.5,6.7-6.9C1013.3,259.3,1011.3,255.8,1006.6,255.8z"/>
		<path class="st1" d="M974.4,260.3c-5.5,0-8.4-4.3-8.4-8.8c0-2.4,0.8-4.3,2.2-6.1c1.6-1.8,3.7-2.7,6.5-2.7c2.6,0,4.9,1,6.5,2.7
			c1.4,1.6,2.2,3.7,2.2,6.1C982.8,255.8,979.9,260.3,974.4,260.3z M974.4,244.6c-4.5,0-6.7,3.5-6.7,6.9c0,3.3,2.2,6.9,6.7,6.9
			c4.5,0,6.7-3.5,6.7-6.9C980.9,248.2,978.9,244.6,974.4,244.6z"/>
		<path class="st1" d="M953.2,280.1c-5.5,0-8.4-4.3-8.4-8.8c0-2.4,0.8-4.3,2.2-6.1c1.6-1.8,3.7-2.7,6.5-2.7c2.6,0,4.9,1,6.5,2.7
			c1.4,1.6,2.2,3.7,2.2,6.1C961.8,275.8,958.9,280.1,953.2,280.1z M953.2,264.4c-4.5,0-6.7,3.5-6.7,6.9c0,3.3,2.2,6.9,6.7,6.9
			s6.7-3.5,6.7-6.9C959.9,268.2,957.9,264.4,953.2,264.4z"/>
		<path class="st1" d="M951.4,307.8c-5.5,0-8.4-4.3-8.4-8.8c0-2.4,0.8-4.3,2.2-6.1c1.6-1.8,3.7-2.7,6.5-2.7c2.6,0,4.9,1,6.5,2.7
			c1.4,1.6,2.2,3.7,2.2,6.1C960.1,303.3,957.1,307.8,951.4,307.8z M951.4,292.1c-4.5,0-6.7,3.5-6.7,6.9c0,3.3,2.2,6.9,6.7,6.9
			c4.5,0,6.7-3.5,6.7-6.9C958.1,295.6,955.9,292.1,951.4,292.1z"/>
		<path class="st1" d="M949.3,344c-5.5,0-8.4-4.3-8.4-8.8c0-2.4,0.8-4.3,2.2-6.1c1.6-1.8,3.7-2.7,6.5-2.7c2.6,0,4.9,1,6.5,2.7
			c1.4,1.6,2.2,3.7,2.2,6.1C957.7,339.5,955,344,949.3,344z M949.3,328.4c-4.5,0-6.7,3.5-6.7,6.9c0,3.3,2.2,6.9,6.7,6.9
			s6.7-3.5,6.7-6.9C955.9,331.9,953.8,328.4,949.3,328.4z"/>
		<path class="st1" d="M986.6,352.7c-1.2,0-2.4-0.2-3.3-0.8c-1-0.4-2-1-2.7-1.8c-0.8-0.8-1.4-1.8-1.8-2.9c-0.6-1-0.8-2.2-0.8-3.3
			v-0.8c0-1.6,0.4-3.1,1.2-4.5l1.4-1.8c1.2-1.2,2.6-2,3.9-2.4l2.2-0.4c1.4,0,2.6,0.2,3.5,0.8c1,0.4,2,1,2.8,1.8
			c0.8,0.8,1.4,1.8,1.8,2.7c0.6,1,0.8,2.2,0.8,3.3v0.8c0,1.6-0.4,3.1-1.2,4.5l-1.2,2.2c-1.2,1.2-2.6,2-3.9,2.4l-2.2,0.4
			C986.8,352.7,986.6,352.7,986.6,352.7z M987,336.4h-0.2l-2,0.2c-1,0.4-2,1-2.9,1.8l-1.2,1.6c-0.6,1-0.8,2.2-0.8,3.3v0.8
			c0,1,0.2,1.8,0.6,2.5c0.4,1,0.8,1.6,1.4,2.4c0.6,0.8,1.4,1.2,2.2,1.4c1,0.4,1.8,0.6,2.7,0.6l2-0.2c1-0.4,2-1,2.9-1.8l1.2-1.6
			c0.6-1,0.8-2.2,0.8-3.3v-0.8c0-1-0.2-1.8-0.6-2.5v-0.2c-0.2-0.8-0.8-1.6-1.4-2.2c-0.6-0.8-1.4-1.2-2.2-1.4
			C988.5,336.6,987.7,336.4,987,336.4z"/>
		<path class="st1" d="M1012.9,336.8c-5.5,0-8.4-4.3-8.4-8.8c0-2.4,0.8-4.3,2.2-6.1c1.6-1.8,3.7-2.7,6.5-2.7c2.6,0,4.9,1,6.5,2.7
			c1.4,1.6,2.2,3.7,2.2,6.1C1021.3,332.3,1018.4,336.8,1012.9,336.8z M1012.9,321.1c-4.5,0-6.7,3.5-6.7,6.9c0,3.3,2.2,6.9,6.7,6.9
			c4.5,0,6.7-3.5,6.7-6.9C1019.5,324.6,1017.4,321.1,1012.9,321.1z"/>
		<path class="st1" d="M1034.2,303.5c-5.5,0-8.4-4.3-8.4-8.8c0-2.4,0.8-4.3,2.2-6.1c1.6-1.8,3.7-2.7,6.5-2.7c2.6,0,4.9,1,6.5,2.7
			c1.4,1.6,2.2,3.7,2.2,6.1C1042.7,298.9,1039.7,303.5,1034.2,303.5z M1034.2,287.8c-4.5,0-6.7,3.5-6.7,6.9c0,3.3,2.2,6.9,6.7,6.9
			s6.7-3.5,6.7-6.9C1040.9,291.3,1038.8,287.8,1034.2,287.8z"/>
		<path class="st1" d="M1034.6,268.6c-5.5,0-8.4-4.3-8.4-8.8c0-2.4,0.8-4.3,2.2-6.1c1.6-1.8,3.7-2.7,6.5-2.7c2.6,0,4.9,1,6.5,2.7
			c1.4,1.6,2.2,3.7,2.2,6.1C1043.1,264.2,1040.1,268.6,1034.6,268.6z M1034.6,252.9c-4.5,0-6.7,3.5-6.7,6.9c0,3.3,2.2,6.9,6.7,6.9
			s6.7-3.5,6.7-6.9C1041.3,256.4,1039.2,252.9,1034.6,252.9z"/>
		<path class="st1" d="M997.2,246c-5.5,0-8.4-4.3-8.4-8.8c0-2.4,0.8-4.3,2.2-6.1c1.6-1.6,3.7-2.5,6.3-2.5c2.6,0,4.9,1,6.5,2.7
			c1.4,1.6,2.2,3.7,2.2,6.1C1005.8,241.7,1002.8,246,997.2,246z M997.2,230.5c-4.5,0-6.7,3.5-6.7,6.9c0,3.3,2.2,6.9,6.7,6.9
			s6.7-3.5,6.7-6.9C1003.8,234,1001.7,230.5,997.2,230.5z"/>
		<path class="st1" d="M948.3,250.1c-5.5,0-8.4-4.3-8.4-8.8c0-2.4,0.8-4.3,2.2-6.1c1.4-1.8,3.5-2.7,6.3-2.7c2.6,0,4.9,1,6.5,2.7
			c1.4,1.6,2.2,3.7,2.2,6.1C956.7,245.6,953.8,250.1,948.3,250.1z M948.3,234.4c-4.5,0-6.7,3.5-6.7,6.9c0,3.3,2.2,6.9,6.7,6.9
			s6.7-3.5,6.7-6.9C954.8,238,952.8,234.4,948.3,234.4z"/>
		<path class="st1" d="M930.4,288.6c-5.5,0-8.4-4.3-8.4-8.8c0-2.4,0.8-4.3,2.2-6.1c1.6-1.8,3.7-2.7,6.5-2.7c2.6,0,4.9,1,6.5,2.7
			c1.4,1.6,2.2,3.7,2.2,6.1C938.9,284,935.9,288.6,930.4,288.6z M930.4,272.9c-4.5,0-6.7,3.5-6.7,6.9c0,3.3,2.2,6.9,6.7,6.9
			s6.7-3.5,6.7-6.9C937.1,276.4,934.9,272.9,930.4,272.9z"/>
		<path class="st1" d="M926.7,322.3c-5.5,0-8.4-4.3-8.4-8.8c0-4.3,2.9-8.8,8.4-8.8c2.6,0,4.9,1,6.5,2.7c1.4,1.6,2.2,3.7,2.2,6.1
			C935.3,317.8,932.4,322.3,926.7,322.3z M926.7,306.6c-4.5,0-6.5,3.5-6.5,6.9c0,1.8,0.6,3.5,1.6,4.7c1.2,1.4,2.9,2.2,4.9,2.2
			c4.5,0,6.7-3.5,6.7-6.9C933.4,310.1,931.4,306.6,926.7,306.6z"/>
	</g>
</g>
<g>
	<defs>
		<rect id="SVGID_3_" x="552.7" y="69.6" width="124.8" height="124.1"/>
	</defs>
	<clipPath id="SVGID_4_">
		<use xlink:href="#SVGID_3_"  style="overflow:visible;"/>
	</clipPath>
	<g class="st2">
		<path class="st1" d="M616.7,132.5c-5.5,0-8.4-4.3-8.4-8.8c0-2.4,0.8-4.3,2.2-6.1c1.6-1.8,3.7-2.7,6.5-2.7c2.6,0,4.9,1,6.5,2.7
			c1.4,1.6,2.2,3.7,2.2,6.1C625.4,128,622.4,132.5,616.7,132.5z M616.7,116.8c-4.5,0-6.7,3.5-6.7,6.9c0,3.3,2.2,6.9,6.7,6.9
			c4.5,0,6.7-3.5,6.7-6.9C623.4,120.4,621.4,116.8,616.7,116.8z"/>
		<path class="st1" d="M613.6,165.8c-5.5,0-8.4-4.3-8.4-8.8c0-2.4,0.8-4.3,2.2-6.1c1.6-1.8,3.7-2.7,6.5-2.7c2.6,0,4.9,1,6.5,2.7
			c1.4,1.6,2.2,3.7,2.2,6.1C622,161.3,619.1,165.8,613.6,165.8z M613.6,150.2c-4.5,0-6.7,3.5-6.7,6.9s2.2,6.9,6.7,6.9
			c4.5,0,6.7-3.5,6.7-6.9S618.1,150.2,613.6,150.2z"/>
		<path class="st1" d="M645.2,143.3c-5.5,0-8.4-4.3-8.4-8.8c0-2.4,0.8-4.3,2.2-6.1c1.6-1.8,3.7-2.7,6.5-2.7c2.6,0,4.9,1,6.5,2.7
			c1.4,1.6,2.2,3.7,2.2,6.1C653.6,139,650.7,143.3,645.2,143.3z M645.2,127.6c-4.5,0-6.7,3.5-6.7,6.9c0,3.3,2.2,6.9,6.7,6.9
			c4.5,0,6.7-3.5,6.7-6.9C651.7,131.3,649.7,127.6,645.2,127.6z"/>
		<path class="st1" d="M641.1,112.5c-5.5,0-8.4-4.3-8.4-8.8c0-2.4,0.8-4.3,2.2-6.1c1.6-1.8,3.7-2.7,6.5-2.7c2.6,0,4.9,1,6.5,2.7
			c1.4,1.6,2.2,3.7,2.2,6.1C649.7,108,646.7,112.5,641.1,112.5z M641.1,96.8c-4.5,0-6.7,3.5-6.7,6.9c0,3.3,2.2,6.9,6.7,6.9
			c4.5,0,6.7-3.5,6.7-6.9C647.7,100.4,645.8,96.8,641.1,96.8z"/>
		<path class="st1" d="M608.9,101.3c-5.5,0-8.4-4.3-8.4-8.8c0-2.4,0.8-4.3,2.2-6.1c1.6-1.8,3.7-2.7,6.5-2.7c2.6,0,4.9,1,6.5,2.7
			c1.4,1.6,2.2,3.7,2.2,6.1C617.3,96.8,614.4,101.3,608.9,101.3z M608.9,85.6c-4.5,0-6.7,3.5-6.7,6.9c0,3.3,2.2,6.9,6.7,6.9
			c4.5,0,6.7-3.5,6.7-6.9C615.3,89.2,613.4,85.6,608.9,85.6z"/>
		<path class="st1" d="M587.7,121.1c-5.5,0-8.4-4.3-8.4-8.8c0-2.4,0.8-4.3,2.2-6.1c1.6-1.8,3.7-2.7,6.5-2.7c2.6,0,4.9,1,6.5,2.7
			c1.4,1.6,2.2,3.7,2.2,6.1C596.3,116.8,593.4,121.1,587.7,121.1z M587.7,105.5c-4.5,0-6.7,3.5-6.7,6.9c0,3.3,2.2,6.9,6.7,6.9
			c4.5,0,6.7-3.5,6.7-6.9C594.3,109.2,592.4,105.5,587.7,105.5z"/>
		<path class="st1" d="M585.9,148.8c-5.5,0-8.4-4.3-8.4-8.8c0-2.4,0.8-4.3,2.2-6.1c1.6-1.8,3.7-2.7,6.5-2.7c2.6,0,4.9,1,6.5,2.7
			c1.4,1.6,2.2,3.7,2.2,6.1C594.5,144.3,591.6,148.8,585.9,148.8z M585.9,133.1c-4.5,0-6.7,3.5-6.7,6.9c0,3.3,2.2,6.9,6.7,6.9
			c4.5,0,6.7-3.5,6.7-6.9C592.6,136.6,590.4,133.1,585.9,133.1z"/>
		<path class="st1" d="M583.7,185.1c-5.5,0-8.4-4.3-8.4-8.8c0-2.4,0.8-4.3,2.2-6.1c1.6-1.8,3.7-2.7,6.5-2.7c2.6,0,4.9,1,6.5,2.7
			c1.4,1.6,2.2,3.7,2.2,6.1C592.2,180.6,589.4,185.1,583.7,185.1z M583.7,169.4c-4.5,0-6.7,3.5-6.7,6.9c0,3.3,2.2,6.9,6.7,6.9
			c4.5,0,6.7-3.5,6.7-6.9C590.4,172.9,588.3,169.4,583.7,169.4z"/>
		<path class="st1" d="M621,193.7c-1.2,0-2.4-0.2-3.3-0.8c-1-0.4-2-1-2.7-1.8c-0.8-0.8-1.4-1.8-1.8-2.9c-0.6-1-0.8-2.2-0.8-3.3v-0.8
			c0-1.6,0.4-3.1,1.2-4.5l1.4-1.8c1.2-1.2,2.6-2,3.9-2.4l2.2-0.4c1.4,0,2.6,0.2,3.5,0.8c1,0.4,2,1,2.7,1.8c0.8,0.8,1.4,1.8,1.8,2.7
			c0.6,1,0.8,2.2,0.8,3.3v0.8c0,1.6-0.4,3.1-1.2,4.5l-1.2,2.2c-1.2,1.2-2.6,2-3.9,2.4l-2.2,0.4C621.2,193.7,621,193.7,621,193.7z
			 M621.4,177.4h-0.2l-2,0.2c-1,0.4-2,1-2.9,1.8l-1.2,1.6c-0.6,1-0.8,2.2-0.8,3.3v0.8c0,1,0.2,1.8,0.6,2.5c0.4,1,0.8,1.6,1.4,2.4
			s1.4,1.2,2.2,1.4c1,0.4,1.8,0.6,2.7,0.6l2-0.2c1-0.4,2-1,2.9-1.8l1.2-1.6c0.6-1,0.8-2.2,0.8-3.3v-0.8c0-1-0.2-1.8-0.6-2.5v-0.2
			c-0.2-0.8-0.8-1.6-1.4-2.2c-0.6-0.8-1.4-1.2-2.2-1.4C623,177.6,622.2,177.4,621.4,177.4z"/>
		<path class="st1" d="M647.3,177.8c-5.5,0-8.4-4.3-8.4-8.8c0-2.4,0.8-4.3,2.2-6.1c1.6-1.8,3.7-2.7,6.5-2.7c2.6,0,4.9,1,6.5,2.7
			c1.4,1.6,2.2,3.7,2.2,6.1C655.8,173.3,652.8,177.8,647.3,177.8z M647.3,162.1c-4.5,0-6.7,3.5-6.7,6.9c0,3.3,2.2,6.9,6.7,6.9
			c4.5,0,6.7-3.5,6.7-6.9C654,165.7,651.8,162.1,647.3,162.1z"/>
		<path class="st1" d="M668.7,144.5c-5.5,0-8.4-4.3-8.4-8.8c0-2.4,0.8-4.3,2.2-6.1c1.6-1.8,3.7-2.7,6.5-2.7c2.6,0,4.9,1,6.5,2.7
			c1.4,1.6,2.2,3.7,2.2,6.1C677.2,140,674.2,144.5,668.7,144.5z M668.7,128.8c-4.5,0-6.7,3.5-6.7,6.9c0,3.3,2.2,6.9,6.7,6.9
			c4.5,0,6.7-3.5,6.7-6.9C675.4,132.3,673.2,128.8,668.7,128.8z"/>
		<path class="st1" d="M669.1,109.6c-5.5,0-8.4-4.3-8.4-8.8c0-2.4,0.8-4.3,2.2-6.1c1.6-1.8,3.7-2.7,6.5-2.7c2.6,0,4.9,1,6.5,2.7
			c1.4,1.6,2.2,3.7,2.2,6.1C677.6,105.3,674.6,109.6,669.1,109.6z M669.1,93.9c-4.5,0-6.7,3.5-6.7,6.9c0,3.3,2.2,6.9,6.7,6.9
			c4.5,0,6.7-3.5,6.7-6.9C675.8,97.4,673.6,93.9,669.1,93.9z"/>
		<path class="st1" d="M631.6,87c-5.5,0-8.4-4.3-8.4-8.8c0-2.4,0.8-4.3,2.2-6.1c1.6-1.6,3.7-2.5,6.3-2.5c2.6,0,4.9,1,6.5,2.7
			c1.4,1.6,2.2,3.7,2.2,6.1C640.3,82.7,637.3,87,631.6,87z M631.6,71.5c-4.5,0-6.7,3.5-6.7,6.9c0,3.3,2.2,6.9,6.7,6.9
			c4.5,0,6.7-3.5,6.7-6.9C638.3,75.1,636.1,71.5,631.6,71.5z"/>
		<path class="st1" d="M582.8,91.1c-5.5,0-8.4-4.3-8.4-8.8c0-2.4,0.8-4.3,2.2-6.1c1.4-1.8,3.5-2.7,6.3-2.7c2.6,0,4.9,1,6.5,2.7
			c1.4,1.6,2.2,3.7,2.2,6.1C591.2,86.6,588.3,91.1,582.8,91.1z M582.8,75.5c-4.5,0-6.7,3.5-6.7,6.9c0,3.3,2.2,6.9,6.7,6.9
			c4.5,0,6.7-3.5,6.7-6.9C589.2,79,587.3,75.5,582.8,75.5z"/>
		<path class="st1" d="M564.9,129.6c-5.5,0-8.4-4.3-8.4-8.8c0-2.4,0.8-4.3,2.2-6.1c1.6-1.8,3.7-2.7,6.5-2.7c2.6,0,4.9,1,6.5,2.7
			c1.4,1.6,2.2,3.7,2.2,6.1C573.3,125.1,570.4,129.6,564.9,129.6z M564.9,113.9c-4.5,0-6.7,3.5-6.7,6.9c0,3.3,2.2,6.9,6.7,6.9
			c4.5,0,6.7-3.5,6.7-6.9C571.6,117.4,569.4,113.9,564.9,113.9z"/>
		<path class="st1" d="M561.2,163.3c-5.5,0-8.4-4.3-8.4-8.8c0-4.3,2.9-8.8,8.4-8.8c2.6,0,4.9,1,6.5,2.7c1.4,1.6,2.2,3.7,2.2,6.1
			C569.8,158.8,566.9,163.3,561.2,163.3z M561.2,147.6c-4.5,0-6.5,3.5-6.5,6.9c0,1.8,0.6,3.5,1.6,4.7c1.2,1.4,2.9,2.2,4.9,2.2
			c4.5,0,6.7-3.5,6.7-6.9S565.9,147.6,561.2,147.6z"/>
	</g>
</g>
<path class="st3" d="M73.2,515.7c-5,5.2-10.9,9.4-17,13.2c-1.3-9.6-8.9-17.7-10.2-27.5c-1.3-9.5,3.7-19,11.1-25.3
	c7.2-6.2,16.6-9.6,25.7-12.5c-2,5-1.6,10.6-0.9,15.9c0.7,5.2,2,10.6,1.4,16C82.6,503.2,78.5,510.2,73.2,515.7z"/>
<path class="st4" d="M78,468.9c-3.3,4-6.5,7.8-8.9,12.3c-2.4,4.4-3.7,9.1-4.7,13.9c-1.7,9.4-2,19-5.2,27.9
	c-1.7,4.7-4.3,9.6-8.2,12.8c-0.7,0.6-1.6-0.6-1-1.1c1.6-1.7,3.1-3.4,4.4-5.4c1.3-2,2.3-4.1,3.1-6.2c1.7-4.4,2.7-9.1,3.4-13.8
	c1.4-9.5,2-19.3,6.4-27.9c2.6-5,6.1-9.5,10.2-13.3C77.7,467.9,78.3,468.4,78,468.9z"/>
<path class="st4" d="M51.8,493.8c2,4.5,4,9.1,5.4,13.9c1.4,4.7,2.3,9.5,2.4,14.3c-0.4-0.1-0.7-0.3-1.1-0.4c2.7-3,5.4-6,8.1-8.9
	c2.7-3,5.2-6,8.1-8.8c0.7-0.7,1.7,0.3,1.1,1c-2.6,3-5.4,6-8.1,8.8c-2.7,3-5.4,5.8-8.1,8.8c-0.4,0.4-1.1,0.1-1.1-0.4
	c0-4.8-0.9-9.6-2.3-14.3c-1.4-4.7-3.1-9.2-4.8-13.8C50.8,493.6,51.7,493.4,51.8,493.8z"/>
<path class="st4" d="M59.5,478.2c1.4,3,2,6.4,2.7,9.5c0.7,3.3,1.1,6.7,1.6,10.1c-0.4-0.1-0.9-0.3-1.3-0.4c2.1-2.7,4.5-5.1,7.1-7.4
	c2.4-2.1,5.1-4.4,8.1-5.8c0.9-0.4,1.3,0.9,0.7,1.3c-1.3,1-2.7,1.7-4.1,2.7c-1.3,1-2.7,2-3.8,3.1c-2.4,2.1-4.7,4.5-6.8,7
	c-0.4,0.6-1.3,0.1-1.3-0.4c-0.3-3.3-0.9-6.5-1.4-9.8s-1.6-6.4-1.8-9.6C58.7,478.2,59.3,478,59.5,478.2z"/>
<path class="st4" d="M89.9,518.5c6.8,0.7,13.8-0.7,19.7-4.3c6.5-3.7,11.5-9.5,14.7-16c2-4.1,3.4-8.5,4.3-13.1
	c0.3,0.3,0.6,0.6,0.9,0.7c-2,0.4-4,1-6,1.1c-2.1,0.3-4.1,0.4-6.2,0.6c-4,0.3-7.8,0.6-11.6,1.7c-3.5,1.1-6.8,3-8.9,6
	c-2.3,3.3-3,7.1-3.7,10.9c-0.7,4.3-1.3,8.9-3.5,12.5c-0.4,0.7-1.6,0.3-1.3-0.6c0.9-1.8,1.6-3.8,2-5.8c0.4-2,0.7-4,1.1-6
	c0.6-3.8,1.3-7.9,3.4-11.3c4.3-6.8,12.5-8.7,19.9-9.2c2.4-0.1,4.8-0.3,7.1-0.4c2.4-0.1,5.1-0.3,7.5-1c0.4-0.1,1,0.3,0.9,0.7
	c-2.4,15.6-12.6,30.2-28.2,34c-1.8,0.4-3.8,0.7-5.7,0.9c-2.1,0-4.3-0.3-6.4-0.6C89.2,519.2,89.4,518.4,89.9,518.5z"/>
<path class="st4" d="M84.1,521.4c9.6-5,18.6-11.2,26.2-18.9c2.1-2.1,4.1-4.5,6.1-6.8c0.4-0.6,1.1,0.1,0.9,0.7
	c-3.1,4.5-7.1,8.5-11.2,12.2c-4.1,3.5-8.5,6.8-13.2,9.5c-2.7,1.6-5.5,2.8-8.4,4C84.1,522.4,83.7,521.6,84.1,521.4z"/>
<path class="st4" d="M117.9,506.3c-2.3,0.7-4.5,1.1-6.9,1.6c-2.3,0.6-4.7,1-6.9,1.7c-0.4,0.1-0.9-0.1-0.7-0.7
	c1.7-5.1,3.4-10.2,5.1-15.3c0.3-0.7,1.3-0.4,1,0.1c-1.7,5.1-3.4,10.2-5,15.3c-0.3-0.3-0.4-0.4-0.7-0.7c2.3-0.7,4.7-1.3,6.9-1.8
	c2.3-0.6,4.7-1.1,6.9-1.1C118.2,505.6,118.3,506.2,117.9,506.3z"/>
<path class="st4" d="M96.8,514.6c0.4-4.5,1.6-8.9,2.6-13.5c0.1-0.7,1.3-0.4,1,0.1c-1,4.4-1.7,8.9-3,13.3
	C97.2,515.1,96.6,515,96.8,514.6z"/>
<path class="st5" d="M75.2,530.3c-5.4,2.7-10.1,6.4-14.7,10.2c7.4,3.4,11.9,11.5,19.4,14.9c7.2,3.4,16,1.7,22.8-2.6
	c6.8-4.3,11.8-10.8,16.3-17.3c-4.4,0.3-8.8-1.3-12.8-3.3c-4-2-7.9-4.1-12.3-5.1C87.5,525.9,80.9,527.5,75.2,530.3z"/>
<path class="st4" d="M114.1,538.7c-3.5,2.1-7.4,3.7-11.5,4.7c-4,0.9-8.1,1-12.2,0.6c-8.1-0.7-16-3.1-24.1-2.8
	c-2.1,0.1-4.3,0.3-6.4,0.9c-2.1,0.6-3.8,1.4-5.8,2.3c-0.7,0.4-1.3-0.9-0.6-1.3c3-2.1,6.9-3,10.5-3.3c3.7-0.4,7.5-0.1,11.2,0.4
	c8.2,1.1,16.6,3.4,25,2.1c4.7-0.7,9.1-2.6,13.3-4.3C114.2,537.7,114.5,538.4,114.1,538.7z"/>
<path class="st4" d="M86.8,553.3c-3.1-2.4-6.4-5-9.6-7.2c-3.3-2.3-6.8-4.1-10.6-5.2c-0.7-0.1-0.7-1-0.1-1.3c3-1.4,6-2.8,8.9-4.3
	c3-1.4,6-3,9.1-4.3c0.7-0.3,1.4,1,0.7,1.3c-3,1.6-6.1,2.8-9.1,4.3c-3.1,1.4-6.1,2.8-9.2,4.3c0-0.4,0-0.9-0.1-1.3
	c4,1.3,7.5,3.1,10.9,5.5c1.7,1.1,3.3,2.3,4.8,3.5c1.7,1.3,3.3,2.8,4.8,4.3C87.8,553,87.2,553.6,86.8,553.3z"/>
<path class="st4" d="M101.3,550.9c-2.6-1-4.8-2.6-7.2-3.8c-2.4-1.3-5-2.4-7.4-3.5c-0.6-0.3-0.4-1.1,0.1-1.4c2.6-1,5-2.3,7.2-3.7
	c1.1-0.7,2.3-1.4,3.3-2.3c1.1-0.9,2.1-1.8,3.1-2.6c0.7-0.6,1.6,0.6,1,1.1c-0.9,1-2.1,1.8-3.1,2.7c-1.1,0.9-2.3,1.7-3.5,2.4
	c-2.4,1.4-5,2.7-7.5,3.7c0-0.4,0-0.9,0.1-1.4c2.6,1.1,5.1,2.4,7.5,3.7c2.4,1.3,5,2.6,6.8,4.5C101.9,550.6,101.6,551,101.3,550.9z"/>
<path class="st6" d="M974.6,525.6c6,6.5,13.1,11.4,20.3,16.4c1.8-11.7,11.3-21.4,13-33.2c1.7-11.5-4.1-23.2-12.9-30.8
	c-8.6-7.7-19.7-12.1-31-15.6c2.4,6.1,1.8,12.9,0.7,19.3c-1.1,6.4-2.6,12.9-2,19.3C963.5,510.1,968.3,518.6,974.6,525.6z"/>
<path class="st7" d="M970.4,467.8c4.5,4.1,8.1,8.9,11,14.2c2.8,5.1,4.6,10.8,5.7,16.5c2.2,11.3,2.2,23.2,5.8,34.2
	c0.9,3.2,2.1,6,3.9,8.8c1.6,2.9,3.6,5.1,5.9,7.5c0.7,0.6-0.4,1.9-1.1,1.3c-4.2-3.5-7.1-8.8-9.1-13.8c-2-5.3-3.2-11.1-4-16.6
	c-1.6-11.6-2-23.6-7-34.4c-2.8-6.3-7.4-11.7-11.7-17.1C969.2,468,970.1,467.4,970.4,467.8z"/>
<path class="st7" d="M1001.9,499.8c-2.2,5.4-4.3,10.9-6.2,16.5c-1.7,5.6-2.9,11.3-3.1,17.3c0,0.8-1,1.1-1.5,0.5
	c-3.3-3.6-6.4-7.3-9.6-10.8c-3.3-3.6-6.5-7.2-9.6-10.8c-0.8-0.9,0.6-2,1.3-1.2c3.4,3.5,6.4,7.3,9.6,10.8c3.1,3.7,6.4,7.3,9.6,10.8
	c-0.5,0.2-1,0.3-1.5,0.5c0-5.9,1.4-11.7,3.1-17.3c1.8-5.8,4.3-11.2,6.7-16.6C1001.2,498.8,1002.1,499.1,1001.9,499.8z"/>
<path class="st7" d="M992.6,480.6c-0.4,4-1.6,7.8-2.4,11.7c-0.8,4-1.3,7.9-1.9,11.8c0,0.8-1.2,1.1-1.6,0.6c-2.4-3-5.1-5.9-7.9-8.6
	c-1.4-1.4-3-2.6-4.7-3.8c-1.5-1.2-3.4-2.2-4.9-3.4c-0.8-0.6-0.2-2,0.8-1.5c3.5,1.7,6.8,4.6,9.7,7.1c3,2.7,5.8,5.8,8.3,9
	c-0.5,0.2-1,0.3-1.6,0.6c0.5-4.1,1.2-8.2,2-12c0.8-3.8,1.7-8.1,3.4-11.6C992.2,480,992.6,480.2,992.6,480.6z"/>
</svg>
