<?xml version="1.0" encoding="utf-8"?>
<!-- Generator: Adobe Illustrator 25.2.0, SVG Export Plug-In . SVG Version: 6.00 Build 0)  -->
<svg version="1.1" id="Layer_1" xmlns="http://www.w3.org/2000/svg" xmlns:xlink="http://www.w3.org/1999/xlink" x="0px" y="0px"
	 viewBox="0 0 1449 1042.5" style="enable-background:new 0 0 1449 1042.5;" xml:space="preserve">
<style type="text/css">
	.st0{clip-path:url(#SVGID_2_);}
	.st1{fill:#92A141;}
	.st2{clip-path:url(#SVGID_4_);}
	.st3{clip-path:url(#SVGID_6_);}
</style>
<g>
	<defs>
		<rect id="SVGID_1_" x="588" y="189" width="230" height="229"/>
	</defs>
	<clipPath id="SVGID_2_">
		<use xlink:href="#SVGID_1_"  style="overflow:visible;"/>
	</clipPath>
	<g class="st0">
		<path class="st1" d="M705.9,305.1c-10.1,0-15.5-8-15.5-16.3c0-4.3,1.4-8,4-11.2c2.9-3.3,6.9-5.1,11.9-5.1c4.7,0,9,1.8,11.9,5.1
			c2.5,2.9,4,6.9,4,11.2C721.8,296.8,716.4,305.1,705.9,305.1z M705.9,276.2c-8.3,0-12.3,6.5-12.3,12.7c0,6.2,4,12.7,12.3,12.7
			s12.3-6.5,12.3-12.7C718.2,282.7,714.6,276.2,705.9,276.2z"/>
		<path class="st1" d="M700.1,366.6c-10.1,0-15.5-8-15.5-16.3c0-4.3,1.4-8,4-11.2c2.9-3.3,6.9-5.1,11.9-5.1c4.7,0,9,1.8,11.9,5.1
			c2.5,2.9,4,6.9,4,11.2C715.7,358.3,710.2,366.6,700.1,366.6z M700.1,337.7c-8.3,0-12.3,6.5-12.3,12.7s4,12.7,12.3,12.7
			s12.3-6.5,12.3-12.7S708.4,337.7,700.1,337.7z"/>
		<path class="st1" d="M758.3,325c-10.1,0-15.5-8-15.5-16.3c0-4.3,1.4-8,4-11.2c2.9-3.3,6.9-5.1,11.9-5.1c4.7,0,9,1.8,11.9,5.1
			c2.5,2.9,4,6.9,4,11.2C773.9,317.1,768.5,325,758.3,325z M758.3,296.1c-8.3,0-12.3,6.5-12.3,12.7c0,6.2,4,12.7,12.3,12.7
			c8.3,0,12.3-6.5,12.3-12.7C770.3,302.9,766.6,296.1,758.3,296.1z"/>
		<path class="st1" d="M750.7,268.2c-10.1,0-15.6-8-15.6-16.3c0-4.3,1.4-8,4-11.2c2.9-3.3,6.9-5.1,11.9-5.1c4.7,0,9,1.8,11.9,5.1
			c2.5,2.9,4,6.9,4,11.2C766.6,259.9,761.2,268.2,750.7,268.2z M750.7,239.3c-8.3,0-12.3,6.5-12.3,12.7c0,6.2,4,12.7,12.3,12.7
			c8.3,0,12.3-6.5,12.3-12.7C763,245.8,759.4,239.3,750.7,239.3z"/>
		<path class="st1" d="M691.4,247.6c-10.1,0-15.6-8-15.6-16.3c0-4.3,1.4-8,4-11.2c2.9-3.3,6.9-5.1,11.9-5.1c4.7,0,9,1.8,11.9,5.1
			c2.5,2.9,4,6.9,4,11.2C707,239.3,701.6,247.6,691.4,247.6z M691.4,218.7c-8.3,0-12.3,6.5-12.3,12.7c0,6.2,4,12.7,12.3,12.7
			c8.3,0,12.3-6.5,12.3-12.7C703.4,225.2,699.7,218.7,691.4,218.7z"/>
		<path class="st1" d="M652.4,284.1c-10.1,0-15.5-8-15.5-16.3c0-4.3,1.4-8,4-11.2c2.9-3.3,6.9-5.1,11.9-5.1c4.7,0,9,1.8,11.9,5.1
			c2.5,2.9,4,6.9,4,11.2C668.3,276.2,662.9,284.1,652.4,284.1z M652.4,255.2c-8.3,0-12.3,6.5-12.3,12.7c0,6.1,4,12.7,12.3,12.7
			c8.3,0,12.3-6.5,12.3-12.7C664.7,262.1,661,255.2,652.4,255.2z"/>
		<path class="st1" d="M649.1,335.1c-10.1,0-15.6-8-15.6-16.3c0-4.3,1.4-8,4-11.2c2.9-3.3,6.9-5.1,11.9-5.1c4.7,0,9,1.8,11.9,5.1
			c2.5,2.9,4,6.9,4,11.2C665,326.8,659.6,335.1,649.1,335.1z M649.1,306.2c-8.3,0-12.3,6.5-12.3,12.7s4,12.7,12.3,12.7
			c8.3,0,12.3-6.5,12.3-12.7S657.4,306.2,649.1,306.2z"/>
		<path class="st1" d="M645.1,402.1c-10.1,0-15.5-8-15.5-16.3c0-4.3,1.4-8,4-11.2c2.9-3.3,6.9-5.1,11.9-5.1c4.7,0,9,1.8,11.9,5.1
			c2.5,2.9,4,6.9,4,11.2C660.7,393.7,655.6,402.1,645.1,402.1z M645.1,373.1c-8.3,0-12.3,6.5-12.3,12.7c0,6.1,4,12.7,12.3,12.7
			c8.3,0,12.3-6.5,12.3-12.7C657.4,379.6,653.5,373.1,645.1,373.1z"/>
		<path class="st1" d="M713.8,418c-2.2,0-4.3-0.4-6.1-1.4c-1.8-0.7-3.6-1.8-5.1-3.3c-1.4-1.4-2.5-3.3-3.3-5.4
			c-1.1-1.8-1.4-4-1.4-6.1v-1.4c0-2.9,0.7-5.8,2.2-8.3l2.5-3.3c2.2-2.2,4.7-3.6,7.2-4.3l4-0.7c2.5,0,4.7,0.4,6.5,1.4
			c1.8,0.7,3.6,1.8,5.1,3.3c1.4,1.4,2.5,3.3,3.3,5.1c1.1,1.8,1.4,4,1.4,6.1v1.4c0,2.9-0.7,5.8-2.2,8.3l-2.2,4
			c-2.2,2.2-4.7,3.6-7.2,4.3l-4,0.7C714.2,418,713.8,418,713.8,418z M714.6,388h-0.4l-3.6,0.4c-1.8,0.7-3.6,1.8-5.4,3.3l-2.2,2.9
			c-1.1,1.8-1.4,4-1.4,6.2v1.4c0,1.8,0.4,3.3,1.1,4.7c0.7,1.8,1.4,2.9,2.5,4.3c1.1,1.4,2.5,2.2,4,2.5c1.8,0.7,3.3,1.1,5.1,1.1
			l3.6-0.4c1.8-0.7,3.6-1.8,5.4-3.3l2.2-2.9c1.1-1.8,1.4-4,1.4-6.1v-1.4c0-1.8-0.4-3.3-1.1-4.7v-0.4c-0.4-1.4-1.4-2.9-2.5-4
			c-1.1-1.4-2.5-2.2-4-2.5C717.5,388.3,716,388,714.6,388z"/>
		<path class="st1" d="M762.3,388.7c-10.1,0-15.5-8-15.5-16.3c0-4.3,1.4-8,4-11.2c2.9-3.3,6.9-5.1,11.9-5.1c4.7,0,9,1.8,11.9,5.1
			c2.5,2.9,4,6.9,4,11.2C777.9,380.4,772.4,388.7,762.3,388.7z M762.3,359.7c-8.3,0-12.3,6.5-12.3,12.7s4,12.7,12.3,12.7
			c8.3,0,12.3-6.5,12.3-12.7S770.6,359.7,762.3,359.7z"/>
		<path class="st1" d="M801.7,327.2c-10.1,0-15.5-8-15.5-16.3c0-4.3,1.4-8,4-11.2c2.9-3.3,6.9-5.1,11.9-5.1c4.7,0,9,1.8,11.9,5.1
			c2.5,2.9,4,6.9,4,11.2C817.3,318.9,811.9,327.2,801.7,327.2z M801.7,298.2c-8.3,0-12.3,6.5-12.3,12.7c0,6.2,4,12.7,12.3,12.7
			c8.3,0,12.3-6.5,12.3-12.7C814,304.8,810,298.2,801.7,298.2z"/>
		<path class="st1" d="M802.5,262.8c-10.1,0-15.6-8-15.6-16.3c0-4.3,1.4-8,4-11.2c2.9-3.3,6.9-5.1,11.9-5.1c4.7,0,9,1.8,11.9,5.1
			c2.5,2.9,4,6.9,4,11.2C818,254.8,812.6,262.8,802.5,262.8z M802.5,233.8c-8.3,0-12.3,6.5-12.3,12.7c0,6.2,4,12.7,12.3,12.7
			c8.3,0,12.3-6.5,12.3-12.7C814.7,240.4,810.8,233.8,802.5,233.8z"/>
		<path class="st1" d="M733.4,221.2c-10.1,0-15.5-8-15.5-16.3c0-4.3,1.4-8,4-11.2c2.9-2.9,6.9-4.7,11.6-4.7c4.7,0,9,1.8,11.9,5.1
			c2.5,2.9,4,6.9,4,11.2C749.3,213.2,743.9,221.2,733.4,221.2z M733.4,192.6c-8.3,0-12.3,6.5-12.3,12.7s4,12.7,12.3,12.7
			c8.3,0,12.3-6.5,12.3-12.7S741.7,192.6,733.4,192.6z"/>
		<path class="st1" d="M643.3,228.8c-10.1,0-15.5-8-15.5-16.3c0-4.3,1.4-8,4-11.2c2.5-3.3,6.5-5.1,11.6-5.1c4.7,0,9,1.8,11.9,5.1
			c2.5,2.9,4,6.9,4,11.2C658.9,220.5,653.5,228.8,643.3,228.8z M643.3,199.8c-8.3,0-12.3,6.5-12.3,12.7s4,12.7,12.3,12.7
			c8.3,0,12.3-6.5,12.3-12.7C655.3,206.4,651.6,199.8,643.3,199.8z"/>
		<path class="st1" d="M610.4,299.7c-10.1,0-15.6-8-15.6-16.3c0-4.3,1.4-8,4-11.2c2.9-3.3,6.9-5.1,11.9-5.1c4.7,0,9,1.8,11.9,5.1
			c2.5,2.9,4,6.9,4,11.2C626,291.4,620.5,299.7,610.4,299.7z M610.4,270.7c-8.3,0-12.3,6.5-12.3,12.7s4,12.7,12.3,12.7
			c8.3,0,12.3-6.5,12.3-12.7S618.7,270.7,610.4,270.7z"/>
		<path class="st1" d="M603.5,361.9c-10.1,0-15.5-8-15.5-16.3c0-8,5.4-16.3,15.5-16.3c4.7,0,9,1.8,11.9,5.1c2.5,2.9,4,6.9,4,11.2
			C619.5,353.6,614,361.9,603.5,361.9z M603.5,333c-8.3,0-11.9,6.5-11.9,12.7c0,3.3,1.1,6.5,2.9,8.7c2.2,2.5,5.4,4,9,4
			c8.3,0,12.3-6.5,12.3-12.7S612.2,333,603.5,333z"/>
	</g>
</g>
<g>
	<defs>
		<rect id="SVGID_3_" x="1219" y="15" width="230" height="229"/>
	</defs>
	<clipPath id="SVGID_4_">
		<use xlink:href="#SVGID_3_"  style="overflow:visible;"/>
	</clipPath>
	<g class="st2">
		<path class="st1" d="M1336.9,131.1c-10.1,0-15.6-8-15.6-16.3c0-4.3,1.5-8,4-11.2c2.9-3.3,6.9-5.1,11.9-5.1c4.7,0,9.1,1.8,11.9,5.1
			c2.5,2.9,4,6.9,4,11.2C1352.8,122.8,1347.4,131.1,1336.9,131.1z M1336.9,102.2c-8.3,0-12.3,6.5-12.3,12.7c0,6.2,4,12.7,12.3,12.7
			c8.3,0,12.3-6.5,12.3-12.7C1349.2,108.7,1345.6,102.2,1336.9,102.2z"/>
		<path class="st1" d="M1331.1,192.6c-10.1,0-15.5-8-15.5-16.3c0-4.3,1.4-8,4-11.2c2.9-3.3,6.9-5.1,11.9-5.1c4.7,0,9,1.8,11.9,5.1
			c2.5,2.9,4,6.9,4,11.2C1346.7,184.3,1341.2,192.6,1331.1,192.6z M1331.1,163.7c-8.3,0-12.3,6.5-12.3,12.7s4,12.7,12.3,12.7
			c8.3,0,12.3-6.5,12.3-12.7S1339.4,163.7,1331.1,163.7z"/>
		<path class="st1" d="M1389.3,151c-10.1,0-15.5-8-15.5-16.3c0-4.3,1.4-8,4-11.2c2.9-3.3,6.9-5.1,11.9-5.1c4.7,0,9,1.8,11.9,5.1
			c2.5,2.9,4,6.9,4,11.2C1404.9,143.1,1399.5,151,1389.3,151z M1389.3,122.1c-8.3,0-12.3,6.5-12.3,12.7c0,6.2,4,12.7,12.3,12.7
			c8.3,0,12.3-6.5,12.3-12.7C1401.3,128.9,1397.7,122.1,1389.3,122.1z"/>
		<path class="st1" d="M1381.7,94.2c-10.1,0-15.6-8-15.6-16.3c0-4.3,1.4-8,4-11.2c2.9-3.3,6.9-5.1,11.9-5.1c4.7,0,9,1.8,11.9,5.1
			c2.5,2.9,4,6.9,4,11.2C1397.7,85.9,1392.2,94.2,1381.7,94.2z M1381.7,65.3c-8.3,0-12.3,6.5-12.3,12.7c0,6.2,4,12.7,12.3,12.7
			c8.3,0,12.3-6.5,12.3-12.7C1394,71.8,1390.4,65.3,1381.7,65.3z"/>
		<path class="st1" d="M1322.4,73.6c-10.1,0-15.6-8-15.6-16.3c0-4.3,1.4-8,4-11.2c2.9-3.3,6.9-5.1,11.9-5.1c4.7,0,9,1.8,11.9,5.1
			c2.5,2.9,4,6.9,4,11.2C1338,65.3,1332.6,73.6,1322.4,73.6z M1322.4,44.7c-8.3,0-12.3,6.5-12.3,12.7s4,12.7,12.3,12.7
			c8.3,0,12.3-6.5,12.3-12.7C1334.4,51.2,1330.8,44.7,1322.4,44.7z"/>
		<path class="st1" d="M1283.4,110.1c-10.1,0-15.6-8-15.6-16.3c0-4.3,1.5-8,4-11.2c2.9-3.3,6.9-5.1,11.9-5.1c4.7,0,9,1.8,11.9,5.1
			c2.5,2.9,4,6.9,4,11.2C1299.3,102.2,1293.9,110.1,1283.4,110.1z M1283.4,81.2c-8.3,0-12.3,6.5-12.3,12.7c0,6.2,4,12.7,12.3,12.7
			s12.3-6.5,12.3-12.7C1295.7,88.1,1292.1,81.2,1283.4,81.2z"/>
		<path class="st1" d="M1280.1,161.1c-10.1,0-15.6-8-15.6-16.3c0-4.3,1.4-8,4-11.2c2.9-3.3,6.9-5.1,11.9-5.1c4.7,0,9,1.8,11.9,5.1
			c2.5,2.9,4,6.9,4,11.2C1296,152.8,1290.6,161.1,1280.1,161.1z M1280.1,132.2c-8.3,0-12.3,6.5-12.3,12.7s4,12.7,12.3,12.7
			c8.3,0,12.3-6.5,12.3-12.7S1288.4,132.2,1280.1,132.2z"/>
		<path class="st1" d="M1276.1,228.1c-10.1,0-15.6-8-15.6-16.3c0-4.3,1.4-8,4-11.2c2.9-3.3,6.9-5.1,11.9-5.1c4.7,0,9,1.8,11.9,5.1
			c2.5,2.9,4,6.9,4,11.2C1291.7,219.7,1286.6,228.1,1276.1,228.1z M1276.1,199.1c-8.3,0-12.3,6.5-12.3,12.7c0,6.2,4,12.7,12.3,12.7
			c8.3,0,12.3-6.5,12.3-12.7C1288.4,205.6,1284.5,199.1,1276.1,199.1z"/>
		<path class="st1" d="M1344.8,244c-2.2,0-4.3-0.4-6.2-1.4c-1.8-0.7-3.6-1.8-5.1-3.3c-1.5-1.4-2.5-3.3-3.3-5.4
			c-1.1-1.8-1.4-4-1.4-6.1v-1.4c0-2.9,0.7-5.8,2.2-8.3l2.5-3.3c2.2-2.2,4.7-3.6,7.2-4.3l4-0.7c2.5,0,4.7,0.4,6.5,1.4
			c1.8,0.7,3.6,1.8,5.1,3.3c1.4,1.4,2.5,3.3,3.3,5.1c1.1,1.8,1.4,4,1.4,6.2v1.4c0,2.9-0.7,5.8-2.2,8.3l-2.2,4
			c-2.2,2.2-4.7,3.6-7.2,4.3l-4,0.7C1345.2,244,1344.8,244,1344.8,244z M1345.6,214h-0.4l-3.6,0.4c-1.8,0.7-3.6,1.8-5.4,3.3
			l-2.2,2.9c-1.1,1.8-1.4,4-1.4,6.1v1.4c0,1.8,0.4,3.3,1.1,4.7c0.7,1.8,1.4,2.9,2.5,4.3c1.1,1.4,2.5,2.2,4,2.5
			c1.8,0.7,3.2,1.1,5.1,1.1l3.6-0.4c1.8-0.7,3.6-1.8,5.4-3.3l2.2-2.9c1.1-1.8,1.4-4,1.4-6.1v-1.4c0-1.8-0.4-3.3-1.1-4.7v-0.4
			c-0.4-1.4-1.4-2.9-2.5-4c-1.1-1.4-2.5-2.2-4-2.5C1348.5,214.3,1347,214,1345.6,214z"/>
		<path class="st1" d="M1393.3,214.7c-10.1,0-15.6-8-15.6-16.3c0-4.3,1.4-8,4-11.2c2.9-3.3,6.9-5.1,11.9-5.1c4.7,0,9,1.8,11.9,5.1
			c2.5,2.9,4,6.9,4,11.2C1408.9,206.4,1403.4,214.7,1393.3,214.7z M1393.3,185.7c-8.3,0-12.3,6.5-12.3,12.7c0,6.1,4,12.7,12.3,12.7
			c8.3,0,12.3-6.5,12.3-12.7C1405.6,192.3,1401.6,185.7,1393.3,185.7z"/>
		<path class="st1" d="M1364.4,47.2c-10.1,0-15.6-8-15.6-16.3c0-4.3,1.4-8,4-11.2c2.9-2.9,6.9-4.7,11.6-4.7s9,1.8,11.9,5.1
			c2.5,2.9,4,6.9,4,11.2C1380.3,39.2,1374.9,47.2,1364.4,47.2z M1364.4,18.6c-8.3,0-12.3,6.5-12.3,12.7s4,12.7,12.3,12.7
			s12.3-6.5,12.3-12.7S1372.7,18.6,1364.4,18.6z"/>
		<path class="st1" d="M1274.3,54.8c-10.1,0-15.5-8-15.5-16.3c0-4.3,1.4-8,4-11.2s6.5-5.1,11.6-5.1c4.7,0,9,1.8,11.9,5.1
			c2.5,2.9,4,6.9,4,11.2C1289.9,46.5,1284.5,54.8,1274.3,54.8z M1274.3,25.8c-8.3,0-12.3,6.5-12.3,12.7s4,12.7,12.3,12.7
			c8.3,0,12.3-6.5,12.3-12.7C1286.3,32.4,1282.7,25.8,1274.3,25.8z"/>
		<path class="st1" d="M1241.4,125.7c-10.1,0-15.6-8-15.6-16.3c0-4.3,1.4-8,4-11.2c2.9-3.3,6.9-5.1,11.9-5.1c4.7,0,9,1.8,11.9,5.1
			c2.5,2.9,4,6.9,4,11.2C1257,117.4,1251.6,125.7,1241.4,125.7z M1241.4,96.7c-8.3,0-12.3,6.5-12.3,12.7c0,6.2,4,12.7,12.3,12.7
			c8.3,0,12.3-6.5,12.3-12.7C1253.7,103.3,1249.7,96.7,1241.4,96.7z"/>
		<path class="st1" d="M1234.6,187.9c-10.1,0-15.6-8-15.6-16.3c0-8,5.4-16.3,15.6-16.3c4.7,0,9,1.8,11.9,5.1c2.5,2.9,4,6.9,4,11.2
			C1250.5,179.6,1245,187.9,1234.6,187.9z M1234.6,159c-8.3,0-11.9,6.5-11.9,12.7c0,3.3,1.1,6.5,2.9,8.7c2.2,2.5,5.4,4,9,4
			c8.3,0,12.3-6.5,12.3-12.7C1246.8,165.5,1243.2,159,1234.6,159z"/>
	</g>
</g>
<g>
	<defs>
		<rect id="SVGID_5_" x="101.2" y="655.3" width="230" height="229"/>
	</defs>
	<clipPath id="SVGID_6_">
		<use xlink:href="#SVGID_5_"  style="overflow:visible;"/>
	</clipPath>
	<g class="st3">
		<path class="st1" d="M219.1,771.5c-10.1,0-15.5-8-15.5-16.3c0-4.3,1.4-8,4-11.2c2.9-3.3,6.9-5.1,11.9-5.1c4.7,0,9,1.8,11.9,5.1
			c2.5,2.9,4,6.9,4,11.2C235.1,763.2,229.6,771.5,219.1,771.5z M219.1,742.5c-8.3,0-12.3,6.5-12.3,12.7c0,6.2,4,12.7,12.3,12.7
			c8.3,0,12.3-6.5,12.3-12.7C231.4,749,227.8,742.5,219.1,742.5z"/>
		<path class="st1" d="M213.4,833c-10.1,0-15.6-8-15.6-16.3c0-4.3,1.4-8,4-11.2c2.9-3.3,6.9-5.1,11.9-5.1c4.7,0,9,1.8,11.9,5.1
			c2.5,2.9,4,6.9,4,11.2C228.9,824.7,223.5,833,213.4,833z M213.4,804c-8.3,0-12.3,6.5-12.3,12.7s4,12.7,12.3,12.7
			c8.3,0,12.3-6.5,12.3-12.7S221.7,804,213.4,804z"/>
		<path class="st1" d="M271.6,791.4c-10.1,0-15.5-8-15.5-16.3c0-4.3,1.4-8,4-11.2c2.9-3.3,6.9-5.1,11.9-5.1c4.7,0,9,1.8,11.9,5.1
			c2.5,2.9,4,6.9,4,11.2C287.1,783.4,281.7,791.4,271.6,791.4z M271.6,762.4c-8.3,0-12.3,6.5-12.3,12.7c0,6.2,4,12.7,12.3,12.7
			c8.3,0,12.3-6.5,12.3-12.7C283.5,769.3,279.9,762.4,271.6,762.4z"/>
		<path class="st1" d="M264,734.6c-10.1,0-15.5-8-15.5-16.3c0-4.3,1.4-8,4-11.2c2.9-3.3,6.9-5.1,11.9-5.1c4.7,0,9,1.8,11.9,5.1
			c2.5,2.9,4,6.9,4,11.2C279.9,726.3,274.5,734.6,264,734.6z M264,705.6c-8.3,0-12.3,6.5-12.3,12.7s4,12.7,12.3,12.7
			c8.3,0,12.3-6.5,12.3-12.7S272.7,705.6,264,705.6z"/>
		<path class="st1" d="M204.7,714c-10.1,0-15.6-8-15.6-16.3c0-4.3,1.4-8,4-11.2c2.9-3.3,6.9-5.1,11.9-5.1c4.7,0,9,1.8,11.9,5.1
			c2.5,2.9,4,6.9,4,11.2C220.2,705.6,214.8,714,204.7,714z M204.7,685c-8.3,0-12.3,6.5-12.3,12.7c0,6.1,4,12.7,12.3,12.7
			c8.3,0,12.3-6.5,12.3-12.7C216.6,691.5,213,685,204.7,685z"/>
		<path class="st1" d="M165.6,750.5c-10.1,0-15.6-8-15.6-16.3c0-4.3,1.4-8,4-11.2c2.9-3.3,6.9-5.1,11.9-5.1c4.7,0,9,1.8,11.9,5.1
			c2.5,2.9,4,6.9,4,11.2C181.5,742.5,176.1,750.5,165.6,750.5z M165.6,721.5c-8.3,0-12.3,6.5-12.3,12.7c0,6.1,4,12.7,12.3,12.7
			c8.3,0,12.3-6.5,12.3-12.7C177.9,728.4,174.3,721.5,165.6,721.5z"/>
		<path class="st1" d="M162.4,801.5c-10.1,0-15.6-8-15.6-16.3c0-4.3,1.4-8,4-11.2c2.9-3.3,6.9-5.1,11.9-5.1c4.7,0,9,1.8,11.9,5.1
			c2.5,2.9,4,6.9,4,11.2C178.3,793.2,172.8,801.5,162.4,801.5z M162.4,772.6c-8.3,0-12.3,6.5-12.3,12.7s4,12.7,12.3,12.7
			c8.3,0,12.3-6.5,12.3-12.7S170.7,772.6,162.4,772.6z"/>
		<path class="st1" d="M158.4,868.4c-10.1,0-15.6-8-15.6-16.3c0-4.3,1.4-8,4-11.2c2.9-3.3,6.9-5.1,11.9-5.1c4.7,0,9,1.8,11.9,5.1
			c2.5,2.9,4,6.9,4,11.2C173.9,860.1,168.9,868.4,158.4,868.4z M158.4,839.5c-8.3,0-12.3,6.5-12.3,12.7c0,6.1,4,12.7,12.3,12.7
			s12.3-6.5,12.3-12.7C170.7,846,166.7,839.5,158.4,839.5z"/>
		<path class="st1" d="M227.1,884.3c-2.2,0-4.3-0.4-6.1-1.4c-1.8-0.7-3.6-1.8-5.1-3.2c-1.4-1.5-2.5-3.3-3.3-5.4
			c-1.1-1.8-1.4-4-1.4-6.2v-1.4c0-2.9,0.7-5.8,2.2-8.3l2.5-3.2c2.2-2.2,4.7-3.6,7.2-4.3l4-0.7c2.5,0,4.7,0.4,6.5,1.4
			c1.8,0.7,3.6,1.8,5.1,3.3c1.4,1.5,2.5,3.3,3.3,5.1c1.1,1.8,1.4,4,1.4,6.1v1.5c0,2.9-0.7,5.8-2.2,8.3l-2.2,4
			c-2.2,2.2-4.7,3.6-7.2,4.3l-4,0.7C227.5,884.3,227.1,884.3,227.1,884.3z M227.8,854.3h-0.4l-3.6,0.4c-1.8,0.7-3.6,1.8-5.4,3.3
			l-2.2,2.9c-1.1,1.8-1.4,4-1.4,6.2v1.5c0,1.8,0.4,3.3,1.1,4.7c0.7,1.8,1.4,2.9,2.5,4.3c1.1,1.4,2.5,2.2,4,2.5
			c1.8,0.7,3.3,1.1,5.1,1.1l3.6-0.4c1.8-0.7,3.6-1.8,5.4-3.2l2.2-2.9c1.1-1.8,1.4-4,1.4-6.1V867c0-1.8-0.4-3.2-1.1-4.7v-0.4
			c-0.4-1.5-1.4-2.9-2.5-4c-1.1-1.5-2.5-2.2-4-2.5C230.7,854.7,229.3,854.3,227.8,854.3z"/>
		<path class="st1" d="M275.6,855c-10.1,0-15.5-8-15.5-16.3c0-4.3,1.4-8,4-11.2c2.9-3.3,6.9-5.1,11.9-5.1c4.7,0,9,1.8,11.9,5.1
			c2.5,2.9,4,6.9,4,11.2C291.1,846.7,285.7,855,275.6,855z M275.6,826.1c-8.3,0-12.3,6.5-12.3,12.7c0,6.2,4,12.7,12.3,12.7
			c8.3,0,12.3-6.5,12.3-12.7C287.8,832.6,283.9,826.1,275.6,826.1z"/>
		<path class="st1" d="M315,793.5c-10.1,0-15.5-8-15.5-16.3c0-4.3,1.4-8,4-11.2c2.9-3.3,6.9-5.1,11.9-5.1c4.7,0,9,1.8,11.9,5.1
			c2.5,2.9,4,6.9,4,11.2C330.5,785.2,325.1,793.5,315,793.5z M315,764.6c-8.3,0-12.3,6.5-12.3,12.7c0,6.1,4,12.7,12.3,12.7
			c8.3,0,12.3-6.5,12.3-12.7C327.3,771.1,323.3,764.6,315,764.6z"/>
		<path class="st1" d="M315.7,729.1c-10.1,0-15.6-8-15.6-16.3c0-4.3,1.4-8,4-11.2c2.9-3.3,6.9-5.1,11.9-5.1c4.7,0,9,1.8,11.9,5.1
			c2.5,2.9,4,6.9,4,11.2C331.2,721.2,325.8,729.1,315.7,729.1z M315.7,700.2c-8.3,0-12.3,6.5-12.3,12.7s4,12.7,12.3,12.7
			c8.3,0,12.3-6.5,12.3-12.7S324,700.2,315.7,700.2z"/>
		<path class="st1" d="M246.6,687.5c-10.1,0-15.6-8-15.6-16.3c0-4.3,1.4-8,4-11.2c2.9-2.9,6.9-4.7,11.6-4.7c4.7,0,9,1.8,11.9,5.1
			c2.5,2.9,4,6.9,4,11.2C262.5,679.6,257.1,687.5,246.6,687.5z M246.6,659c-8.3,0-12.3,6.5-12.3,12.7c0,6.1,4,12.7,12.3,12.7
			c8.3,0,12.3-6.5,12.3-12.7C258.9,665.5,254.9,659,246.6,659z"/>
		<path class="st1" d="M156.6,695.1c-10.1,0-15.6-8-15.6-16.3c0-4.3,1.4-8,4-11.2c2.5-3.3,6.5-5.1,11.6-5.1c4.7,0,9,1.8,11.9,5.1
			c2.5,2.9,4,6.9,4,11.2C172.1,686.8,166.7,695.1,156.6,695.1z M156.6,666.2c-8.3,0-12.3,6.5-12.3,12.7c0,6.1,4,12.7,12.3,12.7
			c8.3,0,12.3-6.5,12.3-12.7C168.5,672.7,164.9,666.2,156.6,666.2z"/>
		<path class="st1" d="M123.7,766c-10.1,0-15.6-8-15.6-16.3c0-4.3,1.4-8,4-11.2c2.9-3.3,6.9-5.1,11.9-5.1c4.7,0,9,1.8,11.9,5.1
			c2.5,2.9,4,6.9,4,11.2C139.2,757.7,133.8,766,123.7,766z M123.7,737.1c-8.3,0-12.3,6.5-12.3,12.7s4,12.7,12.3,12.7
			s12.3-6.5,12.3-12.7S132,737.1,123.7,737.1z"/>
		<path class="st1" d="M116.8,828.3c-10.1,0-15.6-8-15.6-16.3c0-8,5.4-16.3,15.6-16.3c4.7,0,9,1.8,11.9,5.1c2.5,2.9,4,6.9,4,11.2
			C132.7,819.9,127.3,828.3,116.8,828.3z M116.8,799.3c-8.3,0-11.9,6.5-11.9,12.7c0,3.3,1.1,6.5,2.9,8.7c2.2,2.5,5.4,4,9,4
			c8.3,0,12.3-6.5,12.3-12.7S125.5,799.3,116.8,799.3z"/>
	</g>
</g>
</svg>
