<?xml version="1.0" encoding="utf-8"?>
<!-- Generator: Adobe Illustrator 25.2.0, SVG Export Plug-In . SVG Version: 6.00 Build 0)  -->
<svg version="1.1" id="Layer_1" xmlns="http://www.w3.org/2000/svg" xmlns:xlink="http://www.w3.org/1999/xlink" x="0px" y="0px"
	 viewBox="0 0 448.9 329.7" style="enable-background:new 0 0 448.9 329.7;" xml:space="preserve">
<style type="text/css">
	.st0{fill:#EAE4D2;}
	.st1{fill:#E07857;}
	.st2{fill:#322918;}
	.st3{fill:#C86F52;}
	.st4{fill:#EBE4D2;}
	.st5{fill:#DD6442;}
	.st6{fill:#9F7D56;}
	.st7{fill:#322816;}
</style>
<path class="st0" d="M156.4,233.2c-1.1,1.5-1.1,3.5-0.1,5.2l3.8,6c0.5,0.9,1.4,1.4,2.5,1.4l5,0.1v3.2l6.8-6.8l-6.8-6.9v3.2l-5.7-0.1
	C161.8,238.4,156.2,238.3,156.4,233.2z"/>
<path class="st1" d="M156.4,233.2c-0.1,5.2,5.4,5.2,5.4,5.2l7.1-10.4l-6.1-4.2L156.4,233.2z"/>
<path class="st0" d="M164.8,216.4l3,9.2l9.2-2.9l-2.8-1.4l2.6-5.1c0,0,2.5-5,7.1-2.5c-0.9-1.7-2.7-2.6-4.6-2.4l-7.1,0.7
	c-1,0.1-1.9,0.7-2.3,1.5l-2.3,4.5L164.8,216.4z"/>
<path class="st1" d="M176.8,216.2l6.2,11l6.4-3.6l-5.6-9.9C179.4,211.2,176.8,216.2,176.8,216.2z"/>
<path class="st1" d="M178,238.9v7.4h11.4c4.4-2.7,1.3-7.4,1.3-7.4H178z"/>
<path class="st0" d="M186.7,226.4l-1.9,9.5l2.7-1.8l3.2,4.8c0,0,3.1,4.7-1.3,7.4c1.9,0,3.5-1.1,4.4-2.8l2.9-6.5
	c0.4-0.9,0.3-1.9-0.3-2.8l-2.7-4.2l2.7-1.8L186.7,226.4z"/>
<path class="st2" d="M167.6,238.4c-0.5,0.1-1.1,0.1-1.5,0.1c-0.5,0-1.1,0-1.6,0c-1.1,0-2.1,0-3.2-0.1c-1.7-0.1-3.3-0.9-4.3-2.3
	c-0.5-0.9-0.8-1.7-0.8-2.7c0-0.3,0.4-0.3,0.4,0c0.1,2.2,1.6,4.1,3.8,4.6c0.6,0.1,1.1,0.1,1.7,0.1c0.7,0.1,1.3,0.1,1.9,0.1
	c0.7,0,1.3,0,1.9,0c0.3,0,0.6,0,0.9,0s0.7-0.1,0.9,0.1C167.7,238.3,167.7,238.4,167.6,238.4z"/>
<path class="st2" d="M183.7,213.7c-1-0.5-2.2-0.9-3.3-0.5c-1,0.3-1.8,1.1-2.5,1.9c-0.8,0.9-1.3,1.9-1.7,2.9
	c-0.5,1.1-1.1,2.2-1.7,3.4c-0.1,0.3-0.5,0.1-0.4-0.2c0.6-1.3,1.1-2.5,1.8-3.8c0.5-1.1,1.1-2.2,2.1-3c0.8-0.7,1.7-1.5,2.9-1.7
	c0.6-0.1,1.1-0.1,1.7,0.1c0.5,0.1,1,0.3,1.3,0.7C184,213.6,183.9,213.8,183.7,213.7z"/>
<path class="st2" d="M188.6,223.2c-0.3-0.5-0.7-0.9-1-1.4s-0.7-0.9-0.9-1.4c-0.7-0.9-1.3-1.9-1.9-2.9c-0.1-0.2,0.2-0.4,0.3-0.2
	c0.7,0.9,1.3,1.9,1.9,2.9c0.3,0.5,0.7,0.9,0.9,1.4c0.3,0.5,0.6,1,0.9,1.5C188.9,223.2,188.7,223.3,188.6,223.2z"/>
<path class="st2" d="M187.6,223c-0.1-0.1-0.3-0.3-0.4-0.5c-0.1-0.1-0.2-0.3-0.3-0.5c-0.1-0.1-0.2-0.3-0.3-0.5
	c-0.1-0.1-0.1-0.1-0.1-0.3c-0.1-0.1-0.1-0.1-0.1-0.3c-0.1-0.1,0.1-0.3,0.3-0.1c0.1,0.1,0.1,0.1,0.1,0.3c0.1,0.1,0.1,0.1,0.1,0.3
	c0.1,0.1,0.2,0.3,0.3,0.5s0.2,0.3,0.3,0.5c0.1,0.1,0.2,0.3,0.3,0.5C187.9,223,187.7,223.1,187.6,223z"/>
<path class="st2" d="M163.1,225.2c-0.4,0.6-0.7,1.1-1.1,1.8c-0.4,0.6-0.7,1.1-1.1,1.7c-0.4,0.6-0.7,1.1-1.1,1.7
	c-0.4,0.6-0.7,1.1-1.2,1.7c-0.1,0.1-0.4-0.1-0.3-0.2c0.3-0.6,0.8-1.1,1.1-1.7c0.4-0.6,0.8-1.1,1.1-1.7c0.4-0.6,0.7-1.1,1.1-1.7
	c0.4-0.6,0.9-1.1,1.2-1.7C163,225,163.2,225.1,163.1,225.2z"/>
<path class="st2" d="M160.5,230.5c-0.1,0.3-0.4,0.7-0.6,0.9c-0.1,0.1-0.3,0.3-0.4,0.5c-0.1,0.1-0.1,0.1-0.2,0.2
	c-0.1,0.1-0.1,0.1-0.2,0.2c-0.1,0.1-0.3-0.1-0.3-0.2c0.1-0.1,0.1-0.1,0.1-0.3c0.1-0.1,0.1-0.1,0.2-0.2c0.1-0.1,0.3-0.3,0.4-0.5
	c0.2-0.3,0.5-0.5,0.7-0.9C160.3,230.2,160.6,230.4,160.5,230.5z"/>
<path class="st2" d="M189.2,246c0.9-0.5,1.5-1.4,1.8-2.3c0.4-1.1,0.5-2.2,0.1-3.3c-0.1-0.6-0.5-1.1-0.8-1.5c-0.3-0.5-0.7-1-1-1.5
	c-0.7-1-1.3-2.1-2.1-3c-0.1-0.2,0.2-0.4,0.3-0.2c0.7,1.1,1.5,2.3,2.3,3.4c0.7,1,1.5,2,1.7,3.2c0.2,1.1,0.1,2.3-0.4,3.3
	c-0.4,0.9-1,2.1-2.1,2.3C189.2,246.4,189,246.1,189.2,246z"/>
<path class="st2" d="M182.2,245.4c-0.3,0.1-0.7,0.1-1.1,0.1c-0.3,0-0.7,0-1.1-0.1c-0.1,0-0.2-0.1-0.2-0.2c0-0.1,0.1-0.2,0.2-0.2
	c0.3,0.1,0.7,0.1,1.1,0.1c0.3,0.1,0.7,0.1,1.1,0C182.4,245.2,182.4,245.4,182.2,245.4z"/>
<path class="st2" d="M196.1,235.9c0-0.2-0.1-0.5-0.2-0.7c-0.1-0.2-0.2-0.4-0.3-0.7c-0.2-0.4-0.5-0.8-0.7-1.1c-0.1-0.1-0.1-0.2,0-0.3
	c0.1-0.1,0.2-0.1,0.3,0c0.3,0.4,0.6,0.9,0.9,1.3c0.2,0.4,0.5,0.9,0.4,1.4C196.4,236.1,196.2,236.1,196.1,235.9z"/>
<path class="st2" d="M195.5,235.5c-0.3-0.5-0.7-0.9-1-1.4c-0.1-0.1-0.1-0.2,0-0.3c0.1-0.1,0.2-0.1,0.3,0c0.2,0.2,0.4,0.5,0.5,0.7
	c0.1,0.3,0.3,0.5,0.4,0.8c0.1,0.1,0.1,0.1-0.1,0.2C195.7,235.6,195.5,235.5,195.5,235.5z"/>
<path class="st2" d="M160.6,243.4c0.1,0.1,0.2,0.3,0.4,0.4c0.1,0.1,0.3,0.2,0.4,0.3c0.3,0.2,0.7,0.3,1,0.5c0.1,0.1,0.1,0.1,0.1,0.3
	c-0.1,0.1-0.1,0.1-0.3,0.1c-0.4-0.1-0.8-0.3-1.1-0.5c-0.1-0.1-0.3-0.3-0.5-0.4c-0.1-0.1-0.2-0.3-0.3-0.5
	C160.3,243.4,160.4,243.3,160.6,243.4z"/>
<path class="st2" d="M161.8,243.8c0.1,0.1,0.2,0.1,0.3,0.1c0.1,0.1,0.1,0.1,0.2,0.1c0.1,0,0.1,0.1,0.1,0.1c0.1,0,0.1,0,0,0
	c0,0,0.1,0,0.1,0.1c0.1,0.1,0.2,0.1,0.3,0.1c0.1,0.1,0.3,0.1,0.4,0.1c0.1,0.1,0.1,0.1,0.1,0.2c-0.1,0.1-0.1,0.1-0.1,0.1
	c-0.1,0-0.2-0.1-0.3-0.1s-0.2-0.1-0.3-0.1c-0.2-0.1-0.4-0.2-0.6-0.4C161.4,243.9,161.6,243.7,161.8,243.8z"/>
<path class="st2" d="M172.1,212.6c-0.3,0.1-0.5,0.3-0.7,0.5c-0.1,0.1-0.1,0.3-0.3,0.4c-0.1,0.1-0.1,0.3-0.2,0.5
	c-0.1,0.1-0.1,0.1-0.2,0.1c-0.1-0.1-0.1-0.1-0.1-0.1c0.1-0.1,0.1-0.4,0.3-0.5c0.1-0.1,0.2-0.3,0.3-0.5c0.2-0.3,0.5-0.5,0.9-0.5
	C172.1,212.4,172.2,212.6,172.1,212.6z"/>
<path class="st2" d="M172.7,213.1C172.6,213.1,172.6,213.2,172.7,213.1l-0.1,0.1c-0.1,0.1-0.1,0.1-0.1,0.1c-0.1,0.1-0.1,0.1-0.2,0.2
	s-0.1,0.1-0.1,0.1c-0.1,0.1-0.1,0.1-0.1,0.1l-0.1,0.1c0.1-0.1,0.1-0.1,0,0c0,0,0,0,0,0.1c-0.1,0.1-0.1,0.1-0.1,0.2
	c-0.1,0.1-0.1,0.1-0.3,0.1c-0.1-0.1-0.1-0.1-0.1-0.3c0.1-0.1,0.2-0.3,0.4-0.5c0.1-0.1,0.1-0.1,0.3-0.1c0.1-0.1,0.1-0.1,0.1-0.1h0.1
	c-0.1,0,0.1-0.1,0,0c0.1,0,0.1-0.1,0.1-0.1C172.6,213,172.6,213.1,172.7,213.1C172.7,213,172.7,213.1,172.7,213.1z"/>
<circle class="st3" cx="105.3" cy="203.2" r="87.5"/>
<g>
	<path class="st1" d="M127.1,277c-1.4,17.8-4.8,20.1-2.3,24.8c1.5,2.7,10.8,2.3,25.2,1.4c0.7,4,1.3,8.1,2.1,12.2
		c0.8,4.9,1.5,10-0.3,14.5H2.1c-1-3.6-0.8-7.6-0.2-11.3c0.8-5,2.4-9.8,2.7-14.9c0.5-6.7-1.4-13.5-1.6-20.2
		c-0.3-9.5,2.6-18.9,3.8-28.4c1.2-8.9,0.9-17.9,1.5-26.9c0.7-9,2.5-18.1,7.4-25.5c4.4-6.6,10.8-11.4,17.2-16l1.8,2.1
		c0,0,15.5,18.5,45.4,16.6c29.9-2.1,36.2-19.5,39-25.9l-3.8-0.2c1.1-1.3,1.9-2.7,2.6-4.3c3.9,0.2,7.8-1.1,11.5-2.6
		c4.2-1.7,8.4-3.6,12.9-3.9c4.4-0.3,8.6,1.1,12.9,1.9c2.5,0.5,5,0.7,7.6,1.1l-1.5,4.4h-24.8C136.5,175.7,128.6,259.2,127.1,277z"/>
	<path class="st4" d="M28,201.1C27.9,201.4,27.9,201.2,28,201.1z"/>
	<path class="st4" d="M43.4,211.4c-0.6-2.1-1.2-4-1.8-6.1c-0.2-0.7-0.9-1.2-1.7-0.9c-0.7,0.3-1.1,0.9-0.9,1.7c0.6,2.1,1.2,4,1.8,6.1
		c0.2,0.7,0.9,1.2,1.7,0.9C43.1,212.9,43.6,212.1,43.4,211.4z"/>
	<path class="st4" d="M35.6,217.9c-1.1-2-2.2-4-3.3-6c-0.3-0.7-1.3-0.9-1.9-0.5c-0.7,0.4-0.8,1.2-0.5,1.9c1.1,2,2.2,4,3.3,6
		c0.3,0.7,1.3,0.9,1.9,0.5C35.7,219.4,36,218.6,35.6,217.9z"/>
	<path class="st4" d="M21.1,226.1c-0.6-2.1-1.1-4-1.7-6.1c-0.2-0.7-0.9-1.1-1.7-0.9c-0.7,0.3-1.1,0.9-0.9,1.7c0.6,2.1,1.1,4,1.7,6.1
		c0.2,0.7,0.9,1.1,1.7,0.9C20.9,227.6,21.3,226.8,21.1,226.1z"/>
	<path class="st4" d="M43.9,229.7c-2-1.7-4-3.3-6-5c-0.6-0.5-1.4-0.6-1.9,0c-0.5,0.5-0.6,1.5,0,1.9c2,1.7,4,3.3,6,5
		c0.6,0.5,1.4,0.6,1.9,0C44.3,231.1,44.4,230.2,43.9,229.7z"/>
	<path class="st4" d="M28.6,234.7c-0.7-0.2-1.5,0.2-1.7,0.9c-0.7,2.3-1.5,4.8-2.2,7.1c-0.2,0.7,0.3,1.5,0.9,1.7
		c0.7,0.2,1.5-0.2,1.7-0.9c0.7-2.3,1.5-4.8,2.2-7.1C29.8,235.7,29.4,234.9,28.6,234.7z"/>
	<path class="st4" d="M16.3,248.3c-0.5-2.3-0.8-4.6-1.3-6.8c-0.1-0.7-1-1.1-1.7-0.9c-0.7,0.3-1.1,0.9-0.9,1.7
		c0.5,2.3,0.8,4.6,1.3,6.8c0.1,0.7,1,1.1,1.7,0.9C16.1,249.8,16.5,249.1,16.3,248.3z"/>
	<path class="st4" d="M31.9,259.2c-1.1-2.1-2.3-4.2-3.5-6.4c-0.3-0.7-1.3-0.9-1.9-0.5c-0.7,0.4-0.9,1.2-0.5,1.9
		c1.1,2.1,2.3,4.2,3.5,6.4c0.3,0.7,1.3,0.9,1.9,0.5C32,260.6,32.3,259.8,31.9,259.2z"/>
	<path class="st4" d="M22.2,264.1c-0.7-0.1-1.5,0.2-1.7,0.9c-0.5,2.5-0.8,5.1-1.3,7.6c-0.1,0.7,0.2,1.5,0.9,1.7
		c0.7,0.1,1.5-0.2,1.7-0.9c0.5-2.5,0.8-5.1,1.3-7.6C23.3,265.1,23,264.3,22.2,264.1z"/>
	<path class="st4" d="M13.4,265.2c-0.7-0.2-1.4,0.3-1.7,0.9c-0.7,1.9-1.3,3.7-2,5.6c-0.3,0.7,0.3,1.5,0.9,1.7
		c0.7,0.2,1.4-0.3,1.7-0.9l2-5.6C14.6,266.2,14.1,265.3,13.4,265.2z"/>
	<path class="st4" d="M19.5,288.1c-1.3-1.9-2.5-3.9-3.8-5.8c-0.4-0.6-1.2-0.9-1.9-0.5c-0.6,0.4-0.9,1.2-0.5,1.9
		c1.3,1.9,2.5,3.9,3.8,5.8c0.4,0.6,1.2,0.9,1.9,0.5C19.6,289.6,19.8,288.8,19.5,288.1z"/>
	<path class="st4" d="M29.4,294.2c-0.7-2.4-1.2-4.9-1.9-7.3c-0.2-0.7-0.9-1.1-1.7-0.9c-0.7,0.3-1.1,0.9-0.9,1.7
		c0.7,2.4,1.2,4.9,1.9,7.3c0.2,0.7,0.9,1.1,1.7,0.9C29.2,295.7,29.6,295,29.4,294.2z"/>
	<path class="st4" d="M21.7,299.8c-0.7,0.1-1.3,0.6-1.3,1.3c0,2.4-0.1,5-0.1,7.4c0,0.7,0.7,1.4,1.3,1.3c0.7-0.1,1.3-0.6,1.3-1.3
		c0-2.4,0.1-5,0.1-7.4C23.1,300.5,22.5,299.7,21.7,299.8z"/>
	<path class="st4" d="M12.3,302.1c-0.7,0.1-1.3,0.6-1.3,1.3l-0.3,7.2c0,0.7,0.7,1.4,1.3,1.3c0.7-0.1,1.3-0.6,1.3-1.3l0.3-7.1
		C13.6,302.8,13,302,12.3,302.1z"/>
	<path class="st4" d="M51.9,217.8c-0.5-0.7-1.2-0.8-1.9-0.5c-1.9,1-3.9,2-5.8,3c-0.7,0.3-0.9,1.3-0.5,1.9c0.5,0.7,1.2,0.8,1.9,0.5
		c1.9-1,3.9-2,5.8-3C52,219.4,52.3,218.4,51.9,217.8z"/>
	<path class="st4" d="M65.3,220c-1.8-2.1-3.6-4.3-5.4-6.4c-0.5-0.6-1.5-0.5-1.9,0c-0.5,0.6-0.5,1.3,0,1.9l5.4,6.4
		c0.5,0.6,1.5,0.5,1.9,0C65.7,221.3,65.7,220.5,65.3,220z"/>
	<path class="st4" d="M68.4,232.8c-1.5-1.5-2.9-3-4.4-4.6c-0.5-0.5-1.5-0.5-1.9,0c-0.5,0.6-0.5,1.4,0,1.9c1.5,1.5,2.9,3,4.4,4.6
		c0.5,0.5,1.5,0.5,1.9,0C68.9,234.2,68.9,233.4,68.4,232.8z"/>
	<path class="st4" d="M55.6,235.2c-0.7-0.2-1.5,0.2-1.7,0.9c-0.7,2.6-1.3,5.2-2.1,7.9c-0.2,0.7,0.3,1.5,0.9,1.7
		c0.7,0.2,1.5-0.2,1.7-0.9c0.7-2.6,1.3-5.2,2.1-7.9C56.8,236.3,56.3,235.4,55.6,235.2z"/>
	<path class="st4" d="M48.5,255.2l-2.1-7.8c-0.2-0.7-0.9-1.1-1.7-0.9c-0.7,0.3-1.1,0.9-0.9,1.7l2.1,7.8c0.2,0.7,0.9,1.1,1.7,0.9
		C48.3,256.7,48.7,255.9,48.5,255.2z"/>
	<path class="st4" d="M25.4,205.7c-2.4,0.2-5,0.3-7.4,0.5c-0.7,0.1-1.4,0.6-1.3,1.3c0,0.7,0.6,1.4,1.3,1.3c2.4-0.2,5-0.3,7.4-0.5
		c0.7-0.1,1.4-0.6,1.3-1.3C26.7,206.4,26.2,205.7,25.4,205.7z"/>
	<path class="st4" d="M31.9,194c-0.1-0.7-0.6-1.4-1.3-1.3c-0.7,0-1.4,0.6-1.3,1.3c0.2,2.7,0.5,5.4,0.7,8.1c0.1,0.7,0.6,1.4,1.3,1.3
		c0.7,0,1.4-0.6,1.3-1.3C32.4,199.4,32.1,196.7,31.9,194z"/>
	<path class="st4" d="M82.5,214.6c-0.4-0.6-1.2-0.9-1.9-0.5c-2.3,1.6-4.7,3.1-7,4.8c-0.6,0.4-0.9,1.2-0.5,1.9
		c0.4,0.6,1.2,0.9,1.9,0.5l7-4.8C82.6,216,82.9,215.2,82.5,214.6z"/>
	<path class="st4" d="M95.7,214.4c-1.7-1.7-3.5-3.3-5.2-5c-0.5-0.5-1.4-0.6-1.9,0c-0.5,0.5-0.6,1.4,0,1.9c1.7,1.7,3.5,3.3,5.2,5
		c0.5,0.5,1.4,0.6,1.9,0C96.1,215.8,96.2,214.8,95.7,214.4z"/>
	<path class="st4" d="M93,230.4c-0.8-2.3-1.7-4.8-2.5-7.1c-0.3-0.7-0.9-1.2-1.7-0.9c-0.7,0.2-1.2,0.9-0.9,1.7
		c0.8,2.3,1.7,4.8,2.5,7.1c0.3,0.7,0.9,1.2,1.7,0.9C92.7,231.8,93.3,231.1,93,230.4z"/>
	<path class="st4" d="M118.4,207.5c-0.4-0.7-1.2-0.9-1.9-0.5c-2.1,1.3-4.4,2.5-6.6,3.8c-0.7,0.4-0.9,1.3-0.5,1.9
		c0.4,0.7,1.2,0.9,1.9,0.5c2.1-1.3,4.4-2.5,6.6-3.8C118.6,208.9,118.8,208.1,118.4,207.5z"/>
	<path class="st4" d="M123.7,192.5c-0.2-0.3-0.5-0.6-0.8-0.7c-0.7-0.2-1.4,0.3-1.7,0.9c-0.7,1.9-1.5,3.7-2.2,5.6
		c-0.1,0.3,0,0.7,0.1,1c0.2,0.3,0.5,0.6,0.8,0.7c0.7,0.2,1.4-0.3,1.7-0.9c0.7-1.9,1.5-3.7,2.2-5.6
		C124,193.3,123.9,192.8,123.7,192.5z"/>
	<path class="st4" d="M128.7,202.4c-0.1-0.7-0.6-1.4-1.3-1.3c-0.7,0-1.4,0.6-1.3,1.3c0.2,2.4,0.4,4.9,0.6,7.4
		c0.1,0.7,0.6,1.4,1.3,1.3c0.7,0,1.4-0.6,1.3-1.3C129.1,207.3,128.9,204.8,128.7,202.4z"/>
	<path class="st4" d="M132.6,189.5c-1-2.3-2.1-4.8-3-7.1c-0.3-0.7-1.3-0.8-1.9-0.5c-0.7,0.5-0.7,1.1-0.5,1.9c1,2.3,2.1,4.8,3,7.1
		c0.3,0.7,1.3,0.8,1.9,0.5C132.8,191,132.9,190.2,132.6,189.5z"/>
	<path class="st4" d="M221,159c-0.1-0.3-0.3-0.7-0.7-0.8c-0.3-0.2-0.7-0.3-1-0.1c-0.4,0.1-0.6,0.3-0.8,0.7c-1.1,1.5-2.2,3-3.4,4.5
		c-0.2,0.3-0.2,0.7-0.1,1c0.1,0.3,0.3,0.7,0.7,0.8c0.3,0.2,0.7,0.3,1,0.1c0.4-0.1,0.6-0.3,0.8-0.7c1.1-1.5,2.2-3,3.4-4.5
		C221,159.7,221,159.2,221,159z"/>
	<path class="st4" d="M228.3,170c-1.4-1.7-2.9-3.4-4.3-5.1c-0.5-0.6-1.5-0.5-1.9,0c-0.5,0.6-0.5,1.3,0,1.9c1.4,1.7,2.9,3.4,4.3,5.1
		c0.5,0.6,1.5,0.5,1.9,0C228.8,171.4,228.8,170.6,228.3,170z"/>
	<path class="st4" d="M195.8,164.8c-0.7-0.2-1.5,0.2-1.7,0.9c-0.5,1.9-1,3.9-1.5,5.8c-0.2,0.7,0.3,1.5,0.9,1.7
		c0.7,0.2,1.5-0.2,1.7-0.9l1.5-5.8C196.9,165.8,196.6,165,195.8,164.8z"/>
	<path class="st4" d="M124.7,225c-1.1-2.4-2.2-4.9-3.3-7.3c-0.3-0.7-1.3-0.8-1.9-0.5c-0.7,0.5-0.8,1.1-0.5,1.9
		c1.1,2.4,2.2,4.9,3.3,7.3c0.3,0.7,1.3,0.8,1.9,0.5C124.9,226.5,125,225.7,124.7,225z"/>
	<path class="st4" d="M117.9,243c-0.5-2.5-0.8-5.1-1.3-7.6c-0.1-0.7-1-1.1-1.7-0.9c-0.7,0.3-1.1,0.9-0.9,1.7
		c0.5,2.5,0.8,5.1,1.3,7.6c0.1,0.7,1,1.1,1.7,0.9C117.7,244.5,118,243.8,117.9,243z"/>
	<path class="st4" d="M128.2,237.7c-1.7-0.1-3.4-0.1-5-0.1c-0.7,0-1.4,0.7-1.3,1.3c0.1,0.7,0.6,1.3,1.3,1.3c1.7,0.1,3.4,0.1,5,0.1
		c0.7,0,1.4-0.7,1.3-1.3C129.5,238.2,128.9,237.7,128.2,237.7z"/>
	<path class="st4" d="M110.4,247.6c-0.7-2.1-1.4-4-2.1-6.1c-0.3-0.7-0.9-1.2-1.7-0.9c-0.7,0.2-1.2,0.9-0.9,1.7
		c0.7,2.1,1.4,4,2.1,6.1c0.3,0.7,0.9,1.2,1.7,0.9C110.1,249.1,110.7,248.3,110.4,247.6z"/>
	<path class="st4" d="M96.5,251.5c-1.1-2.3-2.1-4.6-3.3-6.8c-0.3-0.7-1.3-0.9-1.9-0.5c-0.7,0.5-0.8,1.1-0.5,1.9
		c1.1,2.3,2.1,4.6,3.3,6.8c0.3,0.7,1.3,0.9,1.9,0.5C96.7,253,96.8,252.3,96.5,251.5z"/>
	<path class="st4" d="M80.4,247.1c-0.5-2.3-1-4.8-1.5-7.1c-0.1-0.7-1-1.1-1.7-0.9c-0.7,0.3-1.1,0.9-0.9,1.7c0.5,2.3,1,4.8,1.5,7.1
		c0.1,0.7,1,1.1,1.7,0.9C80.1,248.5,80.5,247.8,80.4,247.1z"/>
	<path class="st4" d="M71.3,259c-1.2-2.8-2.3-5.6-3.5-8.4c-0.3-0.7-1.3-0.8-1.9-0.5c-0.7,0.5-0.7,1.1-0.5,1.9
		c1.2,2.8,2.3,5.6,3.5,8.4c0.3,0.7,1.3,0.8,1.9,0.5C71.5,260.4,71.6,259.7,71.3,259z"/>
	<path class="st4" d="M61.1,269c-2.5-1.5-5-3.1-7.5-4.6c-0.7-0.4-1.5-0.1-1.9,0.5c-0.4,0.7-0.1,1.5,0.5,1.9c2.5,1.5,5,3.1,7.5,4.6
		c0.7,0.4,1.5,0.1,1.9-0.5C61.9,270.2,61.7,269.5,61.1,269z"/>
	<path class="st4" d="M45.2,273.4c-0.7-0.3-1.5-0.2-1.9,0.5c-1.3,2.6-2.7,5.2-4.1,7.8c-0.3,0.7-0.2,1.5,0.5,1.9
		c0.7,0.3,1.5,0.2,1.9-0.5c1.3-2.6,2.7-5.2,4.1-7.8C46,274.7,45.9,273.8,45.2,273.4z"/>
	<path class="st4" d="M58.4,284.2c0-0.7-0.7-1.4-1.3-1.3c-0.7,0.1-1.4,0.6-1.3,1.3c0.1,2.3,0.1,4.6,0.2,6.8c0,0.7,0.7,1.4,1.3,1.3
		c0.7-0.1,1.4-0.6,1.3-1.3C58.6,288.8,58.5,286.5,58.4,284.2z"/>
	<path class="st4" d="M76.8,288.9c-0.9-2.5-1.9-5.1-2.7-7.6c-0.3-0.7-0.9-1.2-1.7-0.9c-0.7,0.2-1.2,0.9-0.9,1.7
		c0.9,2.5,1.9,5.1,2.7,7.6c0.3,0.7,0.9,1.2,1.7,0.9C76.5,290.4,77,289.6,76.8,288.9z"/>
	<path class="st4" d="M86.8,274.9c-1-2.1-2.1-4.2-3.1-6.4c-0.3-0.7-1.3-0.9-1.9-0.5c-0.7,0.5-0.8,1.1-0.5,1.9c1,2.1,2.1,4.2,3.1,6.4
		c0.3,0.7,1.3,0.9,1.9,0.5C87,276.4,87,275.6,86.8,274.9z"/>
	<path class="st4" d="M122.8,261.2c-1.5-1.5-2.9-3-4.4-4.5c-0.5-0.5-1.4-0.5-1.9,0c-0.5,0.6-0.5,1.4,0,1.9c1.5,1.5,2.9,3,4.4,4.5
		c0.5,0.5,1.4,0.5,1.9,0C123.3,262.6,123.3,261.7,122.8,261.2z"/>
	<path class="st4" d="M123.1,275.3c-1.9-1.3-3.7-2.6-5.6-4c-0.6-0.4-1.5-0.1-1.9,0.5c-0.4,0.7-0.1,1.4,0.5,1.9
		c1.9,1.3,3.7,2.6,5.6,4c0.6,0.4,1.5,0.1,1.9-0.5C124,276.4,123.8,275.8,123.1,275.3z"/>
	<path class="st4" d="M110.1,278.6c-0.7-0.2-1.4,0.3-1.7,0.9c-0.9,2.8-1.9,5.6-2.8,8.4c-0.3,0.7,0.3,1.5,0.9,1.7
		c0.7,0.2,1.4-0.3,1.7-0.9c0.9-2.8,1.9-5.6,2.8-8.4C111.2,279.6,110.8,278.7,110.1,278.6z"/>
	<path class="st4" d="M85.3,307.9c-0.5-2.2-0.9-4.6-1.4-6.8c-0.1-0.7-1-1.1-1.7-0.9c-0.7,0.3-1.1,0.9-0.9,1.7
		c0.5,2.2,0.9,4.6,1.4,6.8c0.1,0.7,1,1.1,1.7,0.9C85.1,309.4,85.4,308.7,85.3,307.9z"/>
	<path class="st4" d="M70.9,299.9c-0.7-0.3-1.5-0.2-1.9,0.5c-1.3,2.5-2.5,5-3.8,7.5c-0.3,0.7-0.2,1.5,0.5,1.9
		c0.7,0.3,1.5,0.2,1.9-0.5c1.3-2.5,2.5-5,3.8-7.5C71.7,301.1,71.6,300.3,70.9,299.9z"/>
	<path class="st4" d="M53.5,300.4c-0.7-0.1-1.5,0.2-1.7,0.9c-0.6,2.5-1.2,5.1-1.8,7.6c-0.2,0.7,0.2,1.5,0.9,1.7s1.5-0.2,1.7-0.9
		c0.6-2.5,1.2-5.1,1.8-7.6C54.6,301.4,54.2,300.5,53.5,300.4z"/>
	<path class="st4" d="M42.4,302.3c-0.6-2.3-1.1-4.8-1.8-7.1c-0.2-0.7-0.9-1.1-1.7-0.9c-0.7,0.3-1.1,0.9-0.9,1.7
		c0.6,2.3,1.1,4.8,1.8,7.1c0.2,0.7,0.9,1.1,1.7,0.9C42.2,303.8,42.6,303.1,42.4,302.3z"/>
	<path class="st4" d="M118.4,307.2c-1.7-2.3-3.5-4.6-5.2-6.9c-0.5-0.6-1.2-0.9-1.9-0.5c-0.6,0.4-0.9,1.3-0.5,1.9
		c1.7,2.3,3.5,4.6,5.2,6.9c0.5,0.6,1.2,0.9,1.9,0.5C118.4,308.8,118.8,307.8,118.4,307.2z"/>
	<path class="st4" d="M128.1,292.1c-1.7-1.1-3.5-2.2-5.2-3.4c-0.6-0.4-1.5-0.1-1.9,0.5c-0.4,0.7-0.1,1.5,0.5,1.9l5.2,3.4
		c0.6,0.4,1.5,0.1,1.9-0.5S128.7,292.6,128.1,292.1z"/>
	<path class="st4" d="M133.2,257.1c-2-1.8-4-3.6-6-5.4c-0.5-0.5-1.4-0.6-1.9,0c-0.5,0.5-0.6,1.4,0,1.9c2,1.8,4,3.6,6,5.4
		c0.5,0.5,1.4,0.6,1.9,0C133.7,258.5,133.8,257.6,133.2,257.1z"/>
	<path class="st4" d="M105,260.2c-0.5-0.7-1.1-0.7-1.9-0.5l-7.1,3.1c-0.7,0.3-0.8,1.3-0.5,1.9c0.5,0.7,1.1,0.7,1.9,0.5l7.1-3.1
		C105.2,261.8,105.5,260.8,105,260.2z"/>
	<path class="st4" d="M98.9,275.1c-0.1-0.7-0.6-1.4-1.3-1.3c-0.7,0-1.5,0.6-1.3,1.3c0.4,2.7,0.7,5.6,1.1,8.3
		c0.1,0.7,0.6,1.4,1.3,1.3c0.7,0,1.5-0.6,1.3-1.3C99.7,280.7,99.3,277.9,98.9,275.1z"/>
	<path class="st4" d="M96,297.1c-1.9-1.4-3.7-2.9-5.6-4.3c-0.3-0.3-0.6-0.4-0.9-0.4c-0.3,0-0.7,0.1-0.9,0.4c-0.5,0.5-0.6,1.5,0,1.9
		c1.9,1.4,3.7,2.9,5.6,4.3c0.3,0.3,0.6,0.4,0.9,0.4s0.7-0.1,0.9-0.4C96.5,298.6,96.6,297.6,96,297.1z"/>
	<path class="st4" d="M107.7,227.6c-0.6-2.4-1.1-5-1.8-7.4c-0.2-0.7-1-1.1-1.7-0.9c-0.7,0.3-1.1,0.9-0.9,1.7c0.6,2.4,1.1,5,1.8,7.4
		c0.2,0.7,1,1.1,1.7,0.9C107.5,229,107.9,228.3,107.7,227.6z"/>
	<path class="st4" d="M110.1,156.8c-0.7,7.6-4.7,15-12.4,17.7c-3.1,1.1-6.7,1.5-11,0.8C72.1,173.2,64.9,154,64.9,154
		c-0.4,0-0.8-0.1-1.2-0.1c-2.8-0.4-5.6-1.7-7.6-3.8c-2.3-2.3-3.7-5.6-3.8-8.8c-0.1-1.7,0.3-3.4,1.1-4.9c0.5-0.9,1.2-1.6,2.1-2.2
		c0.6-0.4,1.2-0.7,1.9-0.7c2.1-0.4,4.3,0.7,6,2.2c0.9-2.5,2.4-4.8,4-7c1.8-2.7,3.5-5.5,4.2-8.6c0.6-3.1-0.3-6.7-2.9-8.4
		c1.2-1.1,2.9-1.3,4.5-0.9c1.6,0.3,3.1,1.2,4.5,2.2c1.3,0.9,2.7,2,4.2,2.7c2.3,1,5,1.2,7.4,0.5c2.4-0.7,4.6-2.4,5.8-4.6
		c1.4,1.7,3.5,2.7,5.6,3.3c2,0.5,4.1,0.5,6-0.3c2.5,5.2,3,12.8,2.6,19.1C108.6,139.8,111.1,146.2,110.1,156.8z"/>
	<path class="st5" d="M94.1,186.4c5.6-2.9,8.7-6.3,8.7-6.3l-4.4-2.7l-0.7-2.9c-3.1,1.1-6.7,1.5-11,0.8c-5.6-0.8-10-4.2-13.5-7.9
		C77.3,176.7,85.1,182.8,94.1,186.4z"/>
	<path class="st4" d="M73.3,167.6C67.8,161.4,65,154,65,154c-0.4,0-0.8-0.1-1.2-0.1l-2.9,21.8l-5.8,4.2c0,0,8.4,11.6,23.6,10.8
		c6.3-0.3,11.5-2.2,15.5-4.2C85.1,182.8,77.3,176.7,73.3,167.6z"/>
	<path class="st4" d="M111.3,108.2c-0.2,2.3-1.8,4.6-3.9,5.6c-0.3,0.2-0.7,0.3-1,0.5c-1.9,0.7-4,0.7-6,0.3c-2.1-0.5-4.1-1.6-5.6-3.3
		c-1.3,2.2-3.4,3.8-5.8,4.6c-2.4,0.8-5.1,0.7-7.4-0.5c-1.5-0.7-2.9-1.7-4.2-2.7c-1.3-0.9-2.8-1.9-4.5-2.2c-1.5-0.3-3.3-0.1-4.5,0.9
		c2.6,1.8,3.5,5.4,2.9,8.4c-0.6,3.2-2.3,6-4.2,8.6c-1.5,2.2-3,4.5-4,7c-1.7-1.5-3.8-2.6-6-2.2c-0.7,0.1-1.3,0.4-1.9,0.7l-0.1-0.2
		c-2.7-1.4-4.6-4.2-5-7.3c-0.3-3.1,1.1-6.2,3.5-8c-2.1-3-2.3-7.2-0.5-10.4c1.9-3.1,5.6-5.1,9.3-4.7c0-3.6,2-7,5-8.8
		c3.1-1.8,7-1.9,10.2-0.1c1-3.5,4.2-6.4,7.8-7c3.6-0.7,7.6,0.9,9.7,3.9c3.1-1.9,7.4-1.5,10.1,0.9s3.5,6.6,2,10l0.3,0.1
		C110.1,103.3,111.5,105.8,111.3,108.2z"/>
	<path class="st6" d="M119.1,179.3c-2.8,6.6-9.2,23.9-39,25.9c-29.9,2.1-45.4-16.6-45.4-16.6l18.7-10.2l1.6,1.5
		c0,0,8.4,11.6,23.6,10.8c15.2-0.8,24.2-10.5,24.2-10.5l1.2-1.7l11.4,0.7L119.1,179.3z"/>
	<path class="st1" d="M178.6,175.7h-5l0.4-2.1C175.6,174.2,177.2,174.9,178.6,175.7z"/>
	<path class="st4" d="M182.1,126.2l-1.7,9.9l-6.4,37.4l-0.4,2.1h-12.3l1.5-4.4l14.1-42.3l2.7-8C180,126,182.1,126.2,182.1,126.2z"/>
	<path class="st5" d="M203.2,175.7h-11.6c-0.6-1.4-1.1-2.9-1.5-4.4c-0.7-2.5-0.7-5.3,0.1-7.9c0.8-2.4,2.5-4.7,2.9-7.1
		c0.6-0.1,1.1-0.1,1.6-0.2c1.7-0.3,3.3-0.7,4.9-1.1L203.2,175.7z"/>
	<path class="st5" d="M234,175.7h-17.9l-8.2-24.6c2-1.2,3.8-2.7,5.5-4.3c1.1-1,2.1-2.1,3-3.3c1.8,3.4,6,5.2,7.8,8.6
		c1.3,2.6,1.1,5.7,1.9,8.5c0.9,3.3,3.4,6,5.3,8.8C232.6,171.4,233.6,173.6,234,175.7z"/>
	<path class="st4" d="M213.3,146.9c-1.7,1.6-3.5,3.1-5.5,4.3l-6.3-18.9l-5.4,2.3l3.5,20.4c-1.6,0.5-3.3,0.9-4.9,1.1
		c-1.1-4.1-2.3-8.2-3.5-12.3c-4.4-0.9-8.2-3.6-10.7-7.4c-0.1-0.1-0.1-0.3-0.3-0.4l1.7-9.9c0,0-2.1-0.2-2.4-5.2
		c-0.4-0.8-0.3-1.7,0-2.6c0.1-0.1,0.1-0.3,0.2-0.5c0.5-0.9,1.2-1.7,2-2.4c1.5-1.3,3-2.6,4.7-3.7c1.5-1.1,3.3-2.1,5.2-1.8
		c1.5,0.2,2.9,1.2,4.1,2.2c1.1-0.2,2.1,0,3.2,0.5c1.2,0.7,2.2,1.8,2.6,3.1c1.1,0.3,2.1,1,2.9,2c0.6,0.8,0.9,1.8,1.2,2.7
		c0.8,0.4,1.5,1,2.1,1.7c0.7,1,1.3,2.3,1.7,3.6c1,3.5,1.3,7.1,1.6,10.7C211.3,140.2,211.8,143.7,213.3,146.9z"/>
	<path class="st4" d="M179.6,121.1l-2.7,8c-0.3-0.7-0.7-1.3-1-2c-1.3-2.3-3.1-4.4-5.2-6c-1.1-0.9-2.4-1.9-2.3-3.3
		c0.1-1.2,1.2-2.1,2.3-2.3c1.7-0.5,3.5-0.1,5.1,0.7c1.3,0.7,2.5,1.5,3.6,2.5C179.2,119.3,179.2,120.2,179.6,121.1z"/>
	<path class="st4" d="M173.7,175.7h-12.1v15h12.1V175.7z"/>
	<path class="st5" d="M245.9,303.4c-3.1,1.5-23.9-1.6-58.2-1.6c-14.4,0-27.3,0.8-37.6,1.4c-14.3,0.8-23.7,1.3-25.2-1.4
		c-2.5-4.7,0.9-7,2.3-24.8c1.4-17.8,9.4-101.2,9.4-101.2h25v14.9h12.1v-15h29.5v15H216v-15h24.6c0.2,9.7,0.7,33.1,0.1,52.4
		C240.2,253.3,248.9,301.8,245.9,303.4z"/>
	<path class="st4" d="M216.1,175.7h-12.9v15h12.9V175.7z"/>
	<path class="st4" d="M216.1,175.7h-12.9l-3.5-20.7l-3.5-20.4l5.4-2.3l6.4,18.9L216.1,175.7z"/>
	<path class="st7" d="M56.2,134.3c1.5-0.3,3-0.5,4.5,0.2c0.6,0.3,1.1,0.7,1.6,1.1c0.5,0.5,0.9,1,1.3,1.6c0.2,0.3,0.7,0,0.6-0.3
		c-0.5-1.5-1.9-2.5-3.3-3.1c-1.5-0.7-3.5-0.7-5,0.2C55.8,134.1,55.9,134.4,56.2,134.3z"/>
	<path class="st7" d="M64.4,137c1.1-3.8,4.1-6.8,5.7-10.4c1.7-3.8,1.7-8.2-0.1-12.1c-0.9-1.9-2.3-3.8-4-5.1
		c-0.4-0.3-0.8,0.3-0.5,0.7c1.9,1.7,3.3,3.6,4,6.1c0.7,2.5,0.9,5.2,0.2,7.8c-1.2,4.6-5.1,8-6,12.9C63.7,137.2,64.3,137.3,64.4,137z"
		/>
	<path class="st7" d="M69,117.9c-0.3-0.6-0.7-1.1-1.1-1.6c-0.5-0.5-0.9-0.9-1.5-1.3s-1.1-0.7-1.7-0.9c-0.3-0.1-0.6-0.3-0.9-0.3
		c-0.3-0.1-0.7-0.3-1-0.2c-0.4,0.1-0.7,0.6-0.2,0.7c0.3,0.1,0.6,0.2,0.9,0.3c0.3,0.1,0.6,0.2,0.8,0.3c0.5,0.2,1.1,0.5,1.5,0.8
		c0.5,0.3,0.9,0.7,1.4,1.1c0.5,0.4,0.9,0.8,1.3,1.3C68.6,118.4,69.1,118.2,69,117.9z"/>
	<path class="st7" d="M67.8,118.8c-1.7-1.1-3.7-1.6-5.8-1.3c-0.3,0-0.5,0.2-0.5,0.5c0,0.3,0.3,0.5,0.5,0.5c1.9-0.2,3.7,0.2,5.3,1
		C67.9,119.8,68.3,119.1,67.8,118.8z"/>
	<path class="st7" d="M69.8,113.6c4.3-1.9,8.4,2.1,12.7,1.6c3.6-0.4,6.8-2.9,7.8-6.6c0.6-2.1,0.3-4.4-0.7-6.3
		c-0.3-0.6-1.1-0.1-0.8,0.5c0.9,2.2,1,4.8-0.1,7c-1,2.1-2.9,3.6-5.2,4.2c-2.5,0.7-5-0.3-7.4-1.1c-2.1-0.7-4.7-1.2-6.7,0.1
		C69,113.2,69.3,113.7,69.8,113.6z"/>
	<path class="st7" d="M91.4,110.4c0.8-0.8,1.5-1.7,1.9-2.9c0.4-1.1,0.5-2.3,0.5-3.5c0-0.3-0.2-0.5-0.5-0.5c-0.3,0-0.5,0.2-0.5,0.5
		c0.3,2.1-0.5,4.4-1.8,5.9C90.7,110.2,91.1,110.6,91.4,110.4z"/>
	<path class="st7" d="M93.7,110.2c0.4-0.3,0.7-0.5,1.1-0.7c0.3-0.3,0.7-0.7,0.8-1.1c0.3-0.4,0.5-0.7,0.6-1.2c0.1-0.5,0.3-1,0.2-1.5
		c-0.1-0.5-0.7-0.4-0.8,0c-0.1,0.2-0.1,0.4-0.1,0.7c0,0.2-0.1,0.4-0.1,0.6c-0.1,0.4-0.3,0.7-0.4,1.1c-0.4,0.7-0.9,1.3-1.5,1.8
		C93.2,109.9,93.4,110.4,93.7,110.2z"/>
	<path class="st7" d="M95.5,114.5c1.3,0.5,2.5,0.8,3.9,0.7c1.3-0.2,2.6-0.7,3.7-1.5c2.1-1.5,3.5-4.3,3.2-6.8c-0.1-0.7-1-0.7-1,0
		c0,1.1-0.2,2.3-0.7,3.4c-0.5,1-1.2,2-2.1,2.7c-1.9,1.4-4.6,1.9-6.8,1.1C95.3,113.9,95.1,114.4,95.5,114.5z"/>
	<path class="st7" d="M105.2,113.5c0.9-0.5,1.7-1.1,2.3-1.9c0.3-0.4,0.5-0.8,0.7-1.3s0.4-1.1,0.3-1.6c-0.1-0.4-0.7-0.5-0.9-0.1
		c-0.2,0.5-0.3,0.9-0.4,1.3c-0.1,0.4-0.3,0.7-0.5,1.1c-0.5,0.7-1,1.5-1.8,1.9C104.5,113.2,104.8,113.7,105.2,113.5z"/>
	<path class="st7" d="M107.7,102.8c2.1,0.9,3.5,3.4,3.3,5.8c-0.3,2.6-2.2,4.6-4.6,5.7c-0.5,0.3-0.1,1,0.5,0.7c2.6-1.1,4.8-3.6,5-6.6
		c0.2-2.7-1.3-5.4-3.9-6.2C107.6,102.2,107.3,102.7,107.7,102.8z"/>
	<path class="st7" d="M107.9,102.3c1.1-1.5,1.4-3.7,1.1-5.6c-0.3-1.9-1.2-3.6-2.6-4.9c-2.9-2.6-7.4-3.1-10.6-0.7
		c-0.5,0.3-0.1,1.1,0.5,0.8c3-1.9,6.8-1.8,9.4,0.7c1.2,1.1,2,2.5,2.3,4.2c0.3,1.9-0.1,3.6-0.8,5.2
		C107.1,102.4,107.7,102.5,107.9,102.3z"/>
	<path class="st7" d="M95.9,91.3c-1.1-1.8-3.2-2.9-5.2-3.5c-2.1-0.7-4.4-0.7-6.4-0.1c-2.1,0.6-4.2,1.8-5.4,3.6
		c-1.3,1.9-1.7,4.4-0.8,6.5c0.2,0.5,1,0.3,0.8-0.3c-0.7-2-0.3-4.2,0.9-5.9s3.1-2.7,5.1-3.1c1.9-0.5,3.7-0.3,5.6,0.2
		c2,0.5,3.4,1.7,4.9,3.1C95.6,92.1,96.1,91.7,95.9,91.3z"/>
	<path class="st7" d="M80.2,97.1c-0.1-2.3,1.1-4.8,3.1-6c0.5-0.3,0.1-1-0.5-0.7c-2.3,1.4-3.6,4.1-3.3,6.8
		C79.6,97.6,80.2,97.6,80.2,97.1z"/>
	<path class="st7" d="M81.9,96.1c0.7-1.8,2.1-3.4,3.6-4.4c0.5-0.3,0.1-1.1-0.5-0.8c-0.9,0.6-1.7,1.3-2.4,2.1
		c-0.7,0.8-1.1,1.9-1.4,2.9C81.1,96.3,81.7,96.5,81.9,96.1z"/>
	<path class="st7" d="M78.1,94.4c-3.3-1.9-7.4-1.7-10.5,0.3c-2.9,1.9-4.8,5.2-5,8.7c0,0.7,0.9,0.6,0.9,0c0.2-3.2,1.9-6.2,4.6-8
		c2.9-1.8,6.6-1.9,9.7-0.6C78.3,95,78.4,94.5,78.1,94.4z"/>
	<path class="st7" d="M62.5,103.5c-0.9-0.1-1.8-0.1-2.7,0.1c-0.8,0.2-1.7,0.5-2.4,0.9c-1.6,0.8-2.9,2.1-3.8,3.6
		c-1.9,3.2-1.8,7.5,0.3,10.6c0.3,0.5,1.1,0.1,0.7-0.5c-1.9-2.9-2-6.7-0.3-9.6c1.7-2.8,5-4.4,8.2-4.6C62.9,104,62.9,103.6,62.5,103.5
		z"/>
	<path class="st7" d="M56,133.8c-2.1-1.6-3.8-3.5-4.5-6c-0.7-2.7,0-5.8,1.7-8c0.4-0.5-0.3-1.1-0.7-0.7c-2,2.4-2.7,5.7-2.1,8.8
		c0.7,2.7,2.5,5.4,5.2,6.6C56.1,134.5,56.2,134.1,56,133.8z"/>
	<path class="st7" d="M56.5,132.3c-2.3-2.4-3.5-5.8-2.9-9.2c0.1-0.6-0.8-0.9-0.9-0.3c-0.7,3.6,0.7,7.5,3.4,9.8
		C56.4,133,56.8,132.6,56.5,132.3z"/>
	<path class="st7" d="M57.6,131.1c-0.5-0.7-0.7-1.6-0.9-2.4c-0.1-0.4-0.2-0.7-0.3-1.2c-0.1-0.5-0.1-0.9-0.1-1.3
		c-0.1-0.6-0.9-0.6-0.9,0c-0.1,0.9,0.1,1.9,0.4,2.8c0.3,0.9,0.7,1.7,1.3,2.5C57.2,131.8,57.8,131.5,57.6,131.1z"/>
	<path class="st7" d="M55,134.2c-0.8,0.7-1.5,1.5-2,2.6c-0.5,1-0.7,2.1-0.9,3.1c-0.3,2.2,0.2,4.5,1.1,6.6c2,4.2,6.2,7.2,10.6,8.4
		c0.6,0.1,0.7-0.7,0.3-0.8c-4-1.5-7.8-3.6-9.8-7.6c-0.9-1.8-1.4-3.9-1.2-6c0.2-2,1-4.2,2.3-5.8C55.6,134.3,55.3,133.9,55,134.2z"/>
	<path class="st7" d="M56.5,137.2c4.4,2.3,6.9,7.3,5.9,12.2c-0.1,0.7,0.9,0.9,1,0.3c1-5.3-1.7-10.8-6.6-13
		C56.4,136.6,56.1,137.1,56.5,137.2z"/>
	<path class="st7" d="M98.8,128.8c-0.1,0.7-0.4,1.2-0.5,1.9c-0.1,0.7-0.1,1.2-0.1,1.9c0.1,1.2,0.3,2.3,0.5,3.5
		c0.7,2.5,1.8,4.8,3.1,7c0.7,1.1,1.4,2.1,2.1,3.1c0.7,1.1,0.9,2.2,0.2,3.4c-1.3,2.1-3.6,3.1-5.9,3.8c-0.7,0.2-0.6,1.3,0.2,1.2
		c2.3-0.3,4.8-1.7,6.3-3.6c0.7-0.8,1.2-1.9,1.2-2.9c0-1.3-0.7-2.3-1.4-3.3c-1.5-2.3-3.1-4.6-4-7.2c-0.5-1.3-0.8-2.7-1-4.1
		c-0.1-0.7-0.1-1.5-0.1-2.2s-0.1-1.5,0.1-2.2C99.4,128.6,98.8,128.5,98.8,128.8z"/>
	<path class="st7" d="M93.3,151c0.1,0.2,0.3,0.3,0.5,0.5c0.2,0.1,0.3,0.3,0.5,0.4c0.3,0.2,0.6,0.5,0.9,0.7c0.2,0.1,0.4,0.1,0.5,0.1
		c0.2-0.1,0.3-0.2,0.4-0.3c0.1-0.2,0.1-0.4,0.1-0.5c0-0.1-0.1-0.1-0.1-0.2c-0.1-0.1-0.1-0.2-0.3-0.3c-0.3-0.2-0.7-0.4-0.9-0.5
		c-0.1-0.1-0.3-0.1-0.5-0.3c-0.3-0.1-0.5-0.2-0.7-0.2c-0.1,0-0.3,0.1-0.4,0.2C93.2,150.7,93.2,150.9,93.3,151z"/>
	<path class="st7" d="M88.2,156.3c0.4,0.9,0.8,1.6,1.5,2.3c0.7,0.7,1.5,1.2,2.3,1.6c0.8,0.4,1.8,0.7,2.7,0.8
		c0.5,0.1,0.9,0.1,1.4,0.1c0.5,0,1.1,0,1.5-0.3c0.5-0.3,0.4-0.9-0.1-1.1c-0.5-0.1-0.9,0-1.3,0c-0.4,0-0.8,0-1.2-0.1
		c-0.8-0.1-1.6-0.3-2.3-0.7c-1.5-0.7-2.8-1.8-3.8-3.1C88.6,155.7,88.1,156,88.2,156.3z"/>
	<path class="st7" d="M70.6,163.5c0.9,2.7,2.9,5,5,6.8c2.1,1.9,4.6,3.4,7.3,4.4c5.4,2,11.3,1.7,16.4-0.7c5.6-2.7,9.3-7.6,10.8-13.6
		c1.7-7,0.4-14.3,0-21.4c-0.5-7.9,0.5-16.1-2.3-23.6c-0.2-0.6-1.1-0.3-0.9,0.3c2.2,6.4,1.9,13.3,2.1,20c0.1,6.9,1.5,13.8,0.7,20.7
		c-0.4,3.3-1.2,6.5-2.8,9.4c-1.4,2.3-3.3,4.4-5.6,5.9c-4.6,3.1-10.3,4.2-15.7,2.9c-3-0.7-5.8-2.2-8.2-4.1c-1.2-0.9-2.3-2.1-3.3-3.2
		c-1-1.2-1.9-2.5-2.9-3.8C70.9,163.1,70.4,163.2,70.6,163.5z"/>
	<path class="st7" d="M78.1,137c2-1.1,3.9-2.3,6.3-2.6c2.3-0.3,4.8,0.3,6.8,1.5c0.8,0.5,1.6-0.8,0.7-1.3c-2.3-1.4-5-2-7.8-1.7
		c-2.5,0.3-5.2,1.4-6.6,3.6C77.4,136.8,77.8,137.2,78.1,137z"/>
	<path class="st7" d="M78.4,131.3c0.4-0.2,0.7-0.3,1.1-0.5c0.4-0.2,0.7-0.4,1.1-0.5c0.7-0.3,1.5-0.6,2.3-0.7
		c1.7-0.4,3.2-0.3,4.9-0.1c0.9,0.1,1.3-1.1,0.4-1.3c-1.7-0.5-3.8-0.3-5.5,0.1c-0.8,0.2-1.7,0.5-2.5,0.9c-0.5,0.2-0.8,0.5-1.2,0.7
		c-0.4,0.3-0.7,0.7-0.9,0.9C77.9,131.1,78.2,131.5,78.4,131.3z"/>
	<path class="st7" d="M101.4,134.8c0.6-0.1,1.1-0.3,1.7-0.5c0.6-0.1,1.1-0.2,1.7-0.3c0.6,0,1.1,0.1,1.7,0.2c0.3,0.1,0.6,0.2,0.8,0.3
		c0.3,0.1,0.5,0.3,0.8,0.4c0.6,0.2,1.1-0.7,0.7-1.1c-0.5-0.5-1.3-0.7-2-0.7c-0.7-0.1-1.4-0.2-2.1-0.2c-0.7,0.1-1.3,0.1-2,0.4
		c-0.7,0.2-1.3,0.5-1.7,1.1C101,134.5,101.2,134.9,101.4,134.8z"/>
	<path class="st7" d="M102.1,128c0.5,0.1,1,0.2,1.6,0.3c0.5,0.1,1,0.2,1.5,0.3c0.5,0.1,0.9,0.4,1.3,0.7c0.3,0.1,0.5,0.3,0.7,0.5
		c0.3,0.2,0.5,0.4,0.7,0.5c0.4,0.1,0.8-0.3,0.7-0.7c-0.2-0.6-0.9-0.9-1.4-1.3c-0.5-0.3-1.1-0.6-1.7-0.7c-1-0.3-2.5-0.6-3.5,0.1
		C101.8,127.6,101.8,127.9,102.1,128z"/>
	<path class="st7" d="M87.7,138.6c1.4,0,2.5-1.1,2.5-2.5c0-1.4-1.1-2.5-2.5-2.5c-1.4,0-2.5,1.1-2.5,2.5S86.3,138.6,87.7,138.6z"/>
	<path class="st7" d="M106.7,138.6c1.4,0,2.5-1.1,2.5-2.5c0-1.4-1.1-2.5-2.5-2.5c-1.4,0-2.5,1.1-2.5,2.5
		C104.1,137.4,105.3,138.6,106.7,138.6z"/>
	<path class="st5" d="M84.7,148.9c0.5-3.5-1.8-6.8-5.3-7.4c-3.5-0.5-6.8,1.8-7.4,5.3c-0.5,3.5,1.8,6.8,5.3,7.4
		C80.9,154.8,84.2,152.4,84.7,148.9z"/>
	<path class="st7" d="M63.3,154.7c-0.1,0.7-0.3,1.3-0.5,1.9c-0.1,0.6-0.2,1.1-0.3,1.7c-0.2,1.1-0.3,2.3-0.5,3.5
		c-0.3,2.4-0.7,4.9-0.9,7.3c-0.3,2.1-0.3,4.6-1.5,6.5c-1.1,1.8-3,2.8-4.6,4c-0.5,0.4-0.1,1.1,0.5,0.8c1.8-0.8,3.5-2,4.8-3.6
		c1.3-1.9,1.5-4.2,1.9-6.4c0.3-2.5,0.7-5.1,0.9-7.8c0.1-1.3,0.3-2.5,0.5-3.8c0.1-0.7,0.1-1.3,0.2-2s0-1.3,0.1-2
		C63.9,154.4,63.3,154.3,63.3,154.7z"/>
	<path class="st7" d="M97.1,174.2c-0.3,1.4,0.7,2.7,1.6,3.7c1.1,1,2.4,1.7,3.8,2.3c0.3,0.1,0.6,0.1,0.7-0.2c0.1-0.3,0.1-0.6-0.2-0.7
		c-1.2-0.6-2.4-1.2-3.5-2.1c-0.5-0.4-0.8-0.8-1.1-1.4c-0.3-0.5-0.5-1.1-0.7-1.7C97.6,174,97.2,173.9,97.1,174.2z"/>
	<path class="st7" d="M55,182.1c-1.1,0.7-2.1,1.5-3.2,2.3c-0.5,0.4-1,0.7-1.5,1.1c-0.3,0.2-0.5,0.4-0.8,0.7
		c-0.3,0.2-0.6,0.4-0.7,0.7c-0.2,0.3,0.1,0.8,0.5,0.7c0.3-0.1,0.6-0.3,0.8-0.5s0.5-0.5,0.8-0.7c0.5-0.4,1-0.8,1.5-1.2
		c1-0.8,2.1-1.6,3-2.5C55.7,182.3,55.4,181.9,55,182.1z"/>
	<path class="st7" d="M59.8,186c-0.7,0.6-1.3,1.1-1.9,1.8c-0.7,0.7-1.2,1.3-1.8,2c-0.6,0.7-1.1,1.3-1.7,2c-0.3,0.3-0.5,0.7-0.7,0.9
		c-0.3,0.4-0.7,0.7-0.8,1.1c-0.3,0.6,0.4,1.1,0.9,0.7c0.7-0.5,1.1-1.3,1.6-2c0.5-0.7,1.1-1.3,1.7-2c0.5-0.7,1.1-1.3,1.6-1.9
		c0.6-0.7,1.1-1.4,1.7-2.1C60.7,186.2,60.1,185.7,59.8,186z"/>
	<path class="st7" d="M65.3,189.4c-0.6,0.7-1.1,1.6-1.7,2.4c-0.5,0.8-1.1,1.5-1.7,2.3c-0.3,0.6,0.5,1.2,0.9,0.7
		c0.7-0.7,1.2-1.7,1.7-2.5c0.5-0.9,0.9-1.8,1.1-2.7C65.9,189.3,65.5,189.1,65.3,189.4z"/>
	<path class="st7" d="M72.3,191.6c-0.1,1.6-0.1,3.3-0.2,4.9c-0.1,1.6-0.3,3.3-0.2,4.9c0,0.5,0.9,0.7,0.9,0.1
		c0.3-1.6,0.2-3.3,0.3-4.9c0-1.7-0.1-3.3-0.1-5C73,191.2,72.4,191.2,72.3,191.6z"/>
	<path class="st7" d="M79.7,192.5c0,0.7,0,1.6,0,2.3c0,0.4,0.1,0.7,0.1,1.1c0,0.2,0.1,0.4,0.1,0.7c0,0.3,0,0.6,0.3,0.7
		c0.3,0.3,0.7,0.2,0.9-0.1c0.2-0.2,0.1-0.5,0.1-0.7c0-0.2-0.1-0.4-0.1-0.7c-0.1-0.4-0.1-0.8-0.2-1.2c-0.1-0.7-0.3-1.5-0.5-2.3
		C80.2,192.1,79.7,192.1,79.7,192.5z"/>
	<path class="st7" d="M88.2,190.3c0,1.7,0.4,3.3,0.7,5c0.1,0.8,0.3,1.7,0.5,2.4c0.1,0.4,0.1,0.8,0.2,1.2c0.1,0.5,0.1,0.9,0.3,1.3
		c0.3,0.4,0.9,0.4,1-0.1c0.1-0.7-0.2-1.7-0.3-2.3c-0.2-0.8-0.3-1.7-0.5-2.5c-0.3-1.7-0.6-3.4-1.2-5
		C88.6,189.9,88.2,189.9,88.2,190.3z"/>
	<path class="st7" d="M95.1,188.1c0.1,0.5,0.2,0.8,0.3,1.3c0.1,0.4,0.2,0.7,0.3,1.1c0.3,0.8,0.5,1.6,0.7,2.4
		c0.1,0.3,0.5,0.6,0.8,0.5c0.3-0.1,0.6-0.5,0.5-0.8c-0.3-0.7-0.6-1.6-0.9-2.3c-0.2-0.4-0.3-0.7-0.5-1.1s-0.5-0.7-0.6-1.1
		C95.5,187.5,94.9,187.6,95.1,188.1z"/>
	<path class="st7" d="M100.6,184c0.3,0.7,0.7,1.3,1.1,2c0.5,0.7,0.9,1.3,1.5,1.9c0.5,0.6,1,1.1,1.5,1.7c0.3,0.3,0.5,0.6,0.8,0.8
		c0.3,0.3,0.6,0.7,0.9,0.8c0.5,0.3,1.2-0.3,0.8-0.8c-0.5-0.7-1.1-1.1-1.6-1.7c-0.6-0.6-1.1-1.1-1.6-1.7c-0.5-0.6-0.9-1.1-1.5-1.7
		c-0.5-0.6-0.9-1.2-1.5-1.8C101.1,183.3,100.5,183.6,100.6,184z"/>
	<path class="st7" d="M104.2,180.9c1.1,0.4,2.1,0.7,3.3,1c0.6,0.2,1.1,0.3,1.7,0.5c0.5,0.2,1.1,0.5,1.7,0.4c0.4-0.1,0.5-0.7,0.3-0.9
		c-0.2-0.2-0.5-0.3-0.8-0.4c-0.3-0.1-0.6-0.2-0.8-0.3c-0.6-0.2-1.1-0.3-1.7-0.5c-1.1-0.3-2.2-0.5-3.4-0.7
		C104,180,103.8,180.7,104.2,180.9z"/>
	<path class="st7" d="M31.9,231.4c3.2,5,5.4,10.6,6.2,16.6c0.8,6,0.1,12.1-1.7,17.8c-2,6-4.8,11.9-5.1,18.2
		c-0.2,3.5,0.4,6.8,0.9,10.2c0.7,3.5,1.2,6.9,1.5,10.5c0.6,8,0,15.9-0.7,23.8c-0.1,0.7,1,0.7,1.1,0c0.6-7.2,1.2-14.3,1.1-21.5
		c-0.1-3.5-0.5-6.9-1-10.4c-0.6-3.5-1.3-7-1.3-10.5c-0.1-6.6,2.5-12.6,4.7-18.7c2-5.8,2.9-11.9,2.3-18c-0.7-6.6-3-13.1-7.1-18.4
		C32.3,230.6,31.6,230.9,31.9,231.4z"/>
	<path class="st7" d="M213.6,146.9c-0.3-2.5-0.7-5-1-7.5c-0.3-2.4-0.5-5-0.9-7.4c-0.4-2.4-0.9-4.9-1.9-7.1c-0.7-1.9-1.8-4-3.8-4.8
		c-2.3-0.8-4.5,1-6.2,2.2c-2.1,1.4-3.9,3-5.7,4.8c-0.9,0.9-1.8,1.8-2.6,2.7c-0.7,0.8-1.5,1.7-1.8,2.7c-0.3,1,0.1,2,0.8,2.8
		c0.7,0.8,1.6,1.7,2.6,2.1c1.1,0.5,2.1-0.1,3-0.8c0.9-0.9,1.7-1.9,2.7-2.5c2.2-1.5,4.8-2.5,7.4-3.3c0.7-0.3,0.5-1.4-0.3-1.1
		c-1.9,0.7-3.8,1.3-5.6,2.2c-1.9,0.9-3.3,2.2-4.8,3.6c-0.7,0.8-1.6,1.3-2.7,0.5c-0.7-0.5-1.8-1.4-2-2.3c-0.2-1.1,0.7-2.1,1.5-2.9
		c0.7-0.8,1.5-1.6,2.2-2.3c1.6-1.6,3.3-3,5-4.4c0.9-0.7,1.8-1.3,2.7-1.9c0.9-0.6,2-1.2,3.1-0.8c1.9,0.6,2.8,3,3.5,4.7
		c0.7,2.1,1.2,4.2,1.6,6.3c0.4,2.4,0.6,5,0.9,7.4c0.3,2.5,0.6,5,1.5,7.3C213.1,147.4,213.7,147.4,213.6,146.9z"/>
	<path class="st7" d="M205.5,120.5c0.1-2.1-1.6-4.8-3.8-5c-1.2-0.1-2.3,0.5-3.4,1.1c-1.1,0.7-2.1,1.3-3.1,2.1
		c-2.1,1.6-3.8,3.4-5.6,5.2c-1.5,1.6-3.6,3.5-3.8,5.9c-0.1,1.1,0.4,2.3,1.3,2.9c1.1,0.7,2.4,0.7,3.6,0.5c0.7-0.1,0.5-1.3-0.2-1.2
		c-1.1,0.1-2.7,0.3-3.4-0.8c-0.7-1.1,0-2.4,0.7-3.3c1.5-2.1,3.3-4,5.2-5.7c1.9-1.8,3.8-3.4,6.1-4.6c1.1-0.7,2.5-1.3,3.8-0.5
		c1.2,0.8,1.3,2.3,2.1,3.5C205,120.9,205.5,120.8,205.5,120.5z"/>
	<path class="st7" d="M201.7,115.7c-0.6-1.9-2.4-3.6-4.4-4c-2.3-0.5-4.2,1-5.8,2.5c-2.1,1.9-4.1,3.9-6,6c-1.5,1.6-2.9,3.5-3.1,5.8
		c-0.1,2.3,1.6,5.2,4.3,4.5c0.6-0.1,0.5-1.1-0.1-1.1c-3.1,0.3-3.5-3.3-2.3-5.5c1.1-2.3,3.3-4.1,5-5.8c1-1,2-2,3-3
		c0.9-0.9,1.9-1.8,3.1-2.2c2.6-0.8,4.3,1.3,5.7,3.1C201.2,116.3,201.8,116.2,201.7,115.7z"/>
	<path class="st7" d="M195.8,112.2c-0.5-0.9-1.7-1.5-2.5-2c-0.9-0.5-1.9-0.8-2.9-0.7c-2.2,0.1-4,1.9-5.6,3.2c-1,0.8-2.1,1.6-3,2.4
		c-0.8,0.7-1.7,1.3-2.1,2.2c-1.2,1.9-0.7,4.4-0.3,6.4c0.3,1.1,0.6,2.2,1.5,2.9c0.7,0.7,1.9,0.8,2.8,0.3c0.7-0.4,0.1-1.5-0.7-1
		c-1.2,0.7-2.1-0.9-2.3-1.8c-0.3-1.1-0.6-2.2-0.7-3.3c-0.1-1.1,0.1-2.3,0.8-3.3c0.7-0.9,1.6-1.5,2.5-2.2c0.9-0.7,2-1.5,2.9-2.3
		c0.9-0.7,1.9-1.7,3-2.1c1.1-0.5,2.2-0.3,3.3,0.2c1,0.5,1.9,1.3,2.9,1.7C195.7,112.7,195.9,112.4,195.8,112.2z"/>
	<path class="st7" d="M179.6,118.4c-0.3-1.7-2.4-3-3.9-3.6c-1.7-0.7-3.8-0.7-5.6-0.1c-1.7,0.7-3.4,2.3-2.6,4.4
		c0.7,1.9,2.9,2.8,4.4,4.1c1.9,1.7,3.5,3.9,4.5,6.3c0.3,0.7,1.2,0.1,0.9-0.6c-0.7-1.7-1.7-3.3-2.9-4.8c-1.2-1.5-2.7-2.5-4.2-3.7
		c-0.7-0.5-1.4-1.1-1.7-1.9c-0.3-0.9,0.3-1.9,1.1-2.3c1.4-0.9,3.3-1,4.8-0.7c0.9,0.3,1.7,0.6,2.5,1.1c0.7,0.6,1.3,1.4,2.1,2
		C179.3,118.9,179.6,118.7,179.6,118.4z"/>
	<path class="st7" d="M180.3,136.5c0.6,1.3,1.8,2.5,2.8,3.5c1.1,1,2.3,2,3.5,2.7c1.3,0.7,2.7,1.3,4.2,1.5c1.3,0.3,3.1,0.4,4.4-0.2
		c0.5-0.2,0.2-0.9-0.3-0.9c-0.7,0-1.3,0.2-2.1,0.2c-0.7,0-1.5-0.1-2.1-0.2c-1.4-0.3-2.7-0.8-4-1.6c-1.1-0.7-2.2-1.6-3.2-2.5
		c-0.9-0.9-1.8-2.1-2.9-2.9C180.4,136,180.2,136.3,180.3,136.5z"/>
	<path class="st7" d="M190.4,143.9c0.4,1,0.7,2.1,0.9,3.2c0.3,1,0.7,2.1,0.9,3.1c0.6,2.1,1.1,4.2,1.5,6.4c0.1,0.7,1.1,0.4,1-0.3
		c-0.4-2.2-0.9-4.4-1.5-6.6c-0.3-1.1-0.7-2.1-1-3.2c-0.4-1-0.8-2-1.3-2.9C190.9,143.3,190.3,143.5,190.4,143.9z"/>
	<path class="st7" d="M193.7,157.4c-0.1,0.9-0.3,1.8-0.5,2.7c-0.1,0.5-0.1,0.9-0.2,1.4c-0.1,0.5-0.2,0.9-0.1,1.5
		c0.1,0.3,0.3,0.4,0.5,0.4c0.3,0,0.5-0.2,0.5-0.4c0.1-0.3,0.1-0.5,0.1-0.7c0-0.2,0.1-0.5,0.1-0.7c0.1-0.5,0.1-0.9,0.1-1.3
		c0.1-0.9,0.1-1.8,0.2-2.7C194.4,157.1,193.8,157,193.7,157.4z"/>
	<path class="st7" d="M197.1,157.7c0.1,1.7,0.1,3.4,0.3,5.1c0.1,0.3,0.4,0.5,0.6,0.4c0.3-0.1,0.5-0.3,0.5-0.5
		c-0.1-1.7-0.4-3.3-0.7-5C197.8,157.2,197.1,157.3,197.1,157.7z"/>
	<path class="st7" d="M210.4,152c0.2,0.3,0.3,0.7,0.5,1c0.2,0.4,0.4,0.7,0.6,1c0.2,0.3,0.4,0.7,0.6,1c0.2,0.4,0.4,0.8,0.7,1
		s0.8-0.1,0.7-0.5c0-0.1,0-0.3-0.1-0.5c-0.1-0.1-0.1-0.2-0.2-0.3c-0.1-0.1-0.2-0.3-0.3-0.5c-0.2-0.3-0.5-0.7-0.7-1
		c-0.2-0.3-0.5-0.7-0.7-0.9c-0.3-0.3-0.5-0.7-0.7-0.9C210.8,151.3,210.1,151.6,210.4,152z"/>
	<path class="st7" d="M214.1,149.2c0.3,0.3,0.5,0.7,0.7,0.9c0.3,0.3,0.5,0.7,0.7,0.9c0.3,0.3,0.5,0.7,0.7,0.9
		c0.1,0.1,0.3,0.3,0.4,0.5c0.1,0.2,0.3,0.4,0.5,0.5c0.2,0.1,0.5,0.1,0.7-0.1c0.2-0.1,0.3-0.4,0.2-0.7c-0.1-0.3-0.3-0.5-0.5-0.7
		c-0.1-0.1-0.3-0.3-0.4-0.5c-0.3-0.3-0.5-0.6-0.7-0.9c-0.3-0.3-0.5-0.6-0.8-0.8c-0.3-0.3-0.6-0.6-0.9-0.8
		C214.3,148.5,213.9,148.9,214.1,149.2z"/>
	<path class="st7" d="M216.7,147.3c0.5,0.5,0.9,0.9,1.3,1.3c0.2,0.2,0.5,0.5,0.7,0.7c0.1,0.1,0.3,0.3,0.4,0.3
		c0.2,0.1,0.3,0.3,0.6,0.3c0.2,0.1,0.5-0.1,0.5-0.2c0.1-0.2,0.1-0.4,0.1-0.6c-0.2-0.3-0.5-0.5-0.7-0.7c-0.3-0.2-0.5-0.4-0.7-0.7
		c-0.5-0.4-1-0.7-1.5-1.2c-0.2-0.1-0.4-0.2-0.6,0C216.5,146.9,216.5,147.1,216.7,147.3z"/>
	<path class="st7" d="M201.3,132.5c0.2,0.7,0.3,1.4,0.5,2.1c0.2,0.7,0.5,1.5,0.7,2.3c0.5,1.4,0.8,2.8,1.3,4.2
		c0.9,2.9,1.9,5.8,2.7,8.6c1.9,5.7,3.8,11.3,5.8,16.9c1.1,3.2,2.3,6.4,3.5,9.6c0.3,0.7,1.2,0.4,1-0.3c-4-11.3-7.8-22.6-11.5-34.1
		c-0.5-1.6-1-3.2-1.5-4.8c-0.3-0.8-0.5-1.7-0.7-2.4c-0.3-0.8-0.7-1.6-0.9-2.4C201.8,132,201.3,132.1,201.3,132.5z"/>
	<path class="st7" d="M196.8,135.5c0.1,1.3,0.2,2.7,0.4,4c0.1,1.3,0.3,2.5,0.5,3.8c0.4,2.7,0.7,5.4,1.1,8.1
		c0.7,5.3,1.5,10.6,2.3,15.9c0.5,3,0.8,6.1,1.3,9.1c0.1,0.7,1.1,0.4,1-0.3c-1.5-10.6-3-21.2-4.6-31.8c-0.2-1.5-0.4-2.9-0.7-4.4
		c-0.3-1.5-0.6-3.1-0.9-4.6C197.3,135.1,196.8,135.1,196.8,135.5z"/>
	<path class="st7" d="M205.5,177c1.5,0,2.9,0,4.4,0c1.5,0,2.9,0.1,4.4,0c0.5,0,0.5-0.8,0-0.8c-1.5-0.1-2.9,0-4.4,0
		c-1.5,0-2.9,0-4.4,0C205,176.2,205,177,205.5,177z"/>
	<path class="st7" d="M178.6,122.5c-0.7,1.7-1.1,3.5-1.7,5.2c-0.5,1.7-1,3.5-1.5,5.2c-1.1,3.5-2.1,7-3.3,10.6
		c-2.2,7-4.6,13.9-7,20.8c-1.4,3.9-2.9,7.8-4.4,11.7c-0.2,0.6,0.7,0.8,0.9,0.3c5.2-13.7,9.9-27.5,14.2-41.5c0.7-2,1.2-4,1.8-6
		c0.6-2,1.3-4,1.6-6C179.3,122.4,178.8,122.1,178.6,122.5z"/>
	<path class="st7" d="M182.1,126.7c-1.7,6.2-2.9,12.6-4.2,19c-1.3,6.4-2.3,12.7-3.4,19.1c-0.6,3.6-1.1,7.2-1.7,10.8
		c-0.1,0.7,0.9,0.9,1,0.3c1.9-12.8,4.1-25.5,6.7-38.2c0.7-3.6,1.5-7.1,2.1-10.7C182.8,126.4,182.2,126.2,182.1,126.7z"/>
	<path class="st7" d="M162.6,176.5c1.1,0,2.3,0,3.5,0c1.1,0,2.3,0.1,3.5-0.1c0.4-0.1,0.4-0.6,0-0.7c-1.1-0.1-2.3-0.1-3.5-0.1
		c-1.1,0-2.3,0-3.5,0C162.2,175.9,162.2,176.5,162.6,176.5z"/>
	<path class="st7" d="M137.7,176.2c3.8,0,7.6,0.1,11.4,0.1c1.9,0,3.7,0,5.6,0c0.9,0,1.9,0,2.9,0c0.9,0,1.9,0.1,2.7-0.1
		c0.4-0.1,0.4-0.7,0-0.8c-1.8-0.3-3.7-0.1-5.5-0.1c-1.9,0-3.8,0-5.7,0c-3.8,0-7.6,0-11.4,0.1C137.1,175.3,137.1,176.2,137.7,176.2z"
		/>
	<path class="st7" d="M175.5,176.4c4.6,0,9.1,0.1,13.7,0.1c2.2,0,4.5,0,6.7,0c2.3,0,4.7,0.1,7-0.1c0.6-0.1,0.7-0.9,0-0.9
		c-2.2-0.2-4.6-0.1-6.8-0.1c-2.3,0-4.6,0-6.8,0c-4.6,0-9.1,0-13.7,0.1C174.8,175.3,174.8,176.4,175.5,176.4z"/>
	<path class="st7" d="M217.6,176.2c7.4,0,14.9,0,22.2,0c0.6,0,0.6-0.9,0-0.9c-7.4,0-14.9,0-22.2,0
		C216.9,175.3,216.9,176.2,217.6,176.2z"/>
	<path class="st7" d="M141.2,300.7c9.5-2.2,19.2-4,29-5.1c9.7-1.1,19.4-1.6,29.3-1.3c2.7,0.1,5.4,0.2,8.1,0.3
		c2.8,0.2,5.6,0.5,8.4,0.7c0.5,0,0.7-0.8,0.1-0.9c-2.3-0.4-4.9-0.5-7.2-0.7c-2.5-0.2-5-0.3-7.4-0.4c-5-0.1-9.8-0.1-14.7,0.1
		c-9.8,0.4-19.6,1.4-29.3,3.1c-5.5,0.9-10.8,2.2-16.3,3.8C140.7,300.3,140.8,300.7,141.2,300.7z"/>
	<path class="st7" d="M184.1,299c5.2-0.4,10.4-0.4,15.6-0.2c5.2,0.2,10.5,0.7,15.7,1.6c0.7,0.1,1-0.9,0.3-1.1
		c-5.2-0.9-10.4-1.4-15.7-1.5c-5.3-0.2-10.6,0.1-15.9,0.7C183.8,298.5,183.8,299,184.1,299z"/>
</g>
<path class="st4" d="M232.6,246.6c2.3,3.5,2.4,8,0.3,11.7l-8.4,13.5c-1.2,1.9-3.3,3.1-5.5,3.1l-11.3,0.1v7.2l-15.4-15.4l15.3-15.5
	v7.2l12.9-0.1C220.5,258.3,233,258.2,232.6,246.6z"/>
<path class="st1" d="M232.6,246.6c0.4,11.6-12.1,11.7-12.1,11.7l-16-23.6l13.7-9.4L232.6,246.6z"/>
<path class="st4" d="M213.8,208.9l-6.8,20.8l-20.8-6.6l6.4-3.3l-5.8-11.5c0,0-5.8-11.1-15.9-5.6c2.1-3.7,6.1-5.8,10.3-5.4l15.9,1.4
	c2.2,0.2,4.2,1.5,5.2,3.5l5.1,10L213.8,208.9z"/>
<path class="st1" d="M186.7,208.3l-13.9,24.9l-14.5-8.1l12.5-22.4C181,197.1,186.7,208.3,186.7,208.3z"/>
<path class="st1" d="M184.1,259.5v16.7h-25.6c-9.8-6.2-2.9-16.7-2.9-16.7H184.1z"/>
<path class="st4" d="M164.4,231.4l4.3,21.4l-6-4l-7.2,10.7c0,0-6.9,10.5,2.9,16.7c-4.2,0-8-2.5-9.8-6.4l-6.5-14.6
	c-0.9-2.1-0.7-4.4,0.6-6.4l6.3-9.4l-6-4L164.4,231.4z"/>
<path class="st7" d="M207.4,258.4c1,0.3,2.3,0.1,3.4,0.2c1.2,0,2.4,0,3.6,0c2.4,0,4.8,0,7.2-0.1c3.8-0.1,7.5-1.9,9.6-5.2
	c1.2-1.9,1.8-4,1.8-6.2c0-0.6-0.8-0.6-0.9,0c-0.1,4.9-3.5,9.2-8.4,10.2c-1.3,0.3-2.6,0.3-3.9,0.3c-1.4,0.1-2.8,0.1-4.2,0.1
	c-1.4,0-2.8,0-4.2,0c-0.7,0-1.3,0-2.1,0s-1.5-0.1-2.1,0.1C207.1,258,207.1,258.3,207.4,258.4z"/>
<path class="st7" d="M171.1,202.8c2.2-1.1,5-1.9,7.4-1c2.2,0.7,4.1,2.4,5.6,4.2c1.8,1.9,2.9,4.2,4,6.6c1.2,2.5,2.5,5.1,3.7,7.6
	c0.3,0.6,1.1,0.1,0.8-0.5c-1.3-2.8-2.7-5.6-4-8.4c-1.2-2.5-2.6-4.9-4.7-6.8c-1.8-1.7-3.9-3.4-6.4-3.8c-1.3-0.2-2.6-0.1-3.9,0.3
	c-1.1,0.3-2.3,0.7-2.9,1.7C170.5,202.7,170.9,202.9,171.1,202.8z"/>
<path class="st7" d="M160.2,224.2c0.7-1.1,1.5-2.1,2.2-3.2c0.7-1.1,1.4-2.2,2.1-3.3c1.4-2.2,2.9-4.3,4.2-6.6
	c0.3-0.5-0.5-0.9-0.7-0.5c-1.5,2.1-2.8,4.4-4.2,6.6c-0.7,1.1-1.4,2.2-2.1,3.3c-0.7,1.1-1.3,2.2-1.9,3.4
	C159.6,224.2,160,224.5,160.2,224.2z"/>
<path class="st7" d="M162.4,223.7c0.3-0.3,0.6-0.7,0.8-1c0.3-0.3,0.5-0.7,0.7-1c0.3-0.4,0.5-0.7,0.7-1.1c0.1-0.2,0.3-0.4,0.4-0.6
	c0.1-0.2,0.3-0.4,0.3-0.6c0.1-0.4-0.4-0.7-0.7-0.4c-0.2,0.1-0.3,0.4-0.4,0.6c-0.1,0.2-0.3,0.4-0.4,0.6c-0.3,0.4-0.5,0.7-0.7,1.1
	c-0.3,0.4-0.5,0.7-0.7,1.1c-0.3,0.4-0.5,0.7-0.7,1.1C161.8,223.7,162.2,223.9,162.4,223.7z"/>
<path class="st7" d="M217.5,228.8c0.8,1.3,1.6,2.7,2.4,4c0.8,1.3,1.7,2.6,2.6,3.9c0.8,1.3,1.7,2.5,2.6,3.7c0.9,1.3,1.7,2.6,2.7,3.8
	c0.3,0.4,0.9-0.1,0.7-0.5c-0.7-1.3-1.8-2.5-2.6-3.7c-0.9-1.3-1.8-2.5-2.7-3.8s-1.7-2.5-2.6-3.8c-0.9-1.3-1.9-2.5-2.7-3.8
	C217.8,228.2,217.4,228.5,217.5,228.8z"/>
<path class="st7" d="M223.4,240.6c0.4,0.7,0.9,1.4,1.3,2.1c0.3,0.3,0.6,0.7,0.8,1c0.1,0.2,0.3,0.4,0.5,0.5c0.1,0.2,0.3,0.4,0.5,0.5
	c0.3,0.1,0.7-0.1,0.6-0.5c-0.1-0.3-0.3-0.4-0.4-0.6s-0.3-0.3-0.5-0.5c-0.3-0.3-0.6-0.7-0.9-1c-0.5-0.6-1.1-1.1-1.5-1.9
	C223.8,239.9,223.2,240.3,223.4,240.6z"/>
<path class="st7" d="M158.8,275.6c-2.1-1.1-3.3-3.2-4.1-5.3c-0.9-2.3-1.1-5-0.4-7.4c0.4-1.3,1-2.3,1.8-3.5c0.7-1.1,1.5-2.2,2.2-3.4
	c1.5-2.3,3-4.6,4.6-6.8c0.3-0.5-0.5-0.9-0.7-0.5c-1.7,2.5-3.5,5.1-5.2,7.7c-1.6,2.2-3.4,4.6-4,7.3c-0.5,2.5-0.1,5.1,0.8,7.5
	c0.8,2,2.3,4.8,4.7,5.1C158.9,276.3,159.2,275.8,158.8,275.6z"/>
<path class="st7" d="M174.5,274.2c0.7,0.1,1.5,0.2,2.3,0.3c0.7,0,1.5,0,2.3-0.1c0.3,0,0.5-0.2,0.5-0.5c0-0.2-0.2-0.5-0.5-0.5
	c-0.7,0.1-1.5,0.1-2.3,0.2c-0.7,0.1-1.5,0.1-2.3,0C174.1,273.6,174.2,274.1,174.5,274.2z"/>
<path class="st7" d="M143.3,252.7c0-0.5,0.3-1,0.5-1.5c0.3-0.5,0.5-0.9,0.7-1.4c0.5-0.9,1.1-1.8,1.7-2.6c0.2-0.2,0.2-0.5,0-0.7
	c-0.2-0.2-0.5-0.2-0.7,0c-0.7,0.9-1.3,1.9-1.9,2.9c-0.5,0.9-1,2.1-0.9,3.3C142.7,253.1,143.2,253.1,143.3,252.7z"/>
<path class="st7" d="M144.7,251.9c0.7-1.1,1.4-2.2,2.2-3.1c0.2-0.2,0.2-0.5,0-0.7s-0.5-0.2-0.7,0c-0.5,0.5-0.8,1.1-1.2,1.7
	c-0.3,0.6-0.7,1.1-0.9,1.8c-0.1,0.2-0.1,0.4,0.1,0.5C144.4,252.1,144.6,252,144.7,251.9z"/>
<path class="st7" d="M223.3,269.7c-0.2,0.3-0.5,0.7-0.8,0.9c-0.3,0.3-0.7,0.5-0.9,0.7c-0.7,0.5-1.5,0.7-2.3,1.1
	c-0.2,0.1-0.3,0.4-0.2,0.6c0.1,0.2,0.3,0.3,0.6,0.3c0.9-0.2,1.8-0.7,2.5-1.1c0.4-0.3,0.7-0.6,1-0.9c0.3-0.4,0.5-0.7,0.7-1.1
	C224,269.7,223.5,269.3,223.3,269.7z"/>
<path class="st7" d="M220.6,270.4c-0.2,0.1-0.5,0.2-0.7,0.3c-0.1,0.1-0.3,0.1-0.5,0.2c-0.1,0-0.1,0.1-0.1,0.1s-0.1,0,0,0
	c0,0-0.1,0-0.1,0.1c-0.3,0.1-0.5,0.2-0.7,0.3c-0.3,0.1-0.6,0.2-0.8,0.4c-0.1,0.1-0.1,0.3-0.1,0.5s0.3,0.3,0.4,0.3
	c0.3,0,0.5-0.1,0.7-0.3c0.3-0.1,0.5-0.3,0.7-0.4c0.5-0.3,0.9-0.5,1.3-0.8C221.3,270.7,221,270.2,220.6,270.4z"/>
<path class="st7" d="M197.3,200.3c0.6,0.3,1.1,0.7,1.5,1.2c0.2,0.3,0.4,0.7,0.6,0.9c0.2,0.3,0.3,0.7,0.5,1c0.1,0.1,0.3,0.2,0.5,0.1
	c0.1-0.1,0.3-0.3,0.2-0.4c-0.1-0.4-0.3-0.8-0.6-1.1c-0.2-0.4-0.5-0.7-0.7-1c-0.5-0.6-1.1-1-1.9-1.2
	C197.1,199.8,197,200.2,197.3,200.3z"/>
<path class="st7" d="M196,201.4c0.1,0,0.1,0.1,0.1,0.1l0.1,0.1c0.1,0.1,0.1,0.1,0.3,0.2c0.1,0.1,0.3,0.3,0.5,0.5
	c0.1,0.1,0.1,0.1,0.2,0.2c0.1,0.1,0.1,0.1,0.1,0.1l0.1,0.1c-0.1-0.1-0.1-0.1,0,0c0,0,0,0,0,0.1c0.1,0.2,0.3,0.3,0.3,0.5
	c0.1,0.2,0.4,0.3,0.6,0.1c0.2-0.1,0.3-0.4,0.1-0.6c-0.2-0.4-0.5-0.7-0.8-1.1c-0.2-0.2-0.4-0.3-0.6-0.4c-0.1-0.1-0.2-0.1-0.3-0.1
	h-0.1c0.1,0-0.1-0.1,0,0c-0.1,0-0.1-0.1-0.2-0.1c-0.1-0.1-0.3,0.1-0.3,0.2C195.9,201.2,195.9,201.4,196,201.4z"/>
</svg>
