<?xml version="1.0" encoding="utf-8"?>
<!-- Generator: Adobe Illustrator 25.2.0, SVG Export Plug-In . SVG Version: 6.00 Build 0)  -->
<svg version="1.1" id="Layer_1" xmlns="http://www.w3.org/2000/svg" xmlns:xlink="http://www.w3.org/1999/xlink" x="0px" y="0px"
	 viewBox="0 0 210.6 242.4" style="enable-background:new 0 0 210.6 242.4;" xml:space="preserve">
<style type="text/css">
	.st0{fill:#878D7C;}
	.st1{fill:#EBE4D2;}
	.st2{fill:#9F7D56;}
	.st3{fill:#94AF9F;}
	.st4{fill:#B0BB9A;}
	.st5{fill:#B1C571;}
	.st6{fill:#8CA33C;}
	.st7{fill:#322816;}
</style>
<circle class="st0" cx="102" cy="135.6" r="89.5"/>
<g>
	<path class="st1" d="M184.9,88.9c-3.4-1.1-7.1-1.5-10.7-1.5c-4.1,0.1-8.1,0.8-12.1,1.5c-0.1-3.3,0.2-7.1,0.8-11.3
		c1.3-2,2.5-4.2,3.5-6.7c0,0,8.1-1.5,9.5-10.3c1.3-8.6-5.7-13.7-10.8-9.6c-0.6-0.4-1.1-0.9-1.5-1.5c-2.5-3.2-3.4-7.3-4.6-11.1
		c-1.1-3.8-2.7-7.9-5.8-10.4c-2.3-1.8-5.1-2.7-8-3.4c0.1,1.8-0.5,3.6-1.1,5.3c-2,5.4-4.8,10.4-8.4,14.9c-5.4,0-10.7-0.1-16.2-0.1
		c-0.2,1.6-0.5,4.6-1,8.6c-0.8,6.1-3.6,8-2.5,16.8c0.8,5.2,5.1,12.3,10.1,17.4c-7-0.5-14.2,0-21.2,1.3c-2.1,0.4-4.4,0.9-6.1,2.2
		h-0.2c-0.2-3.6-0.2-7.3,1-10.6c1.5-4.1,4.4-7.4,6.4-11.1c3.4-6.5,3.4-14.6,0.3-21.3l0.4-0.2c2.8-4.2,5.6-9,6.7-16.3
		c3.4-24,30.3-21.8,30.3-21.8s24.4-3.1,31,20.5C181,53.6,198.6,67.9,184.9,88.9z"/>
	<path class="st1" d="M175.8,60.7c-1.4,8.7-9.5,10.3-9.5,10.3c-1.1,2.5-2.3,4.6-3.5,6.7c-8.1,12.8-19.1,17.1-26.3,16
		c-2.5-0.3-5.2-1.8-7.9-3.9c-0.9-0.7-1.7-1.5-2.5-2.2c-5.1-5.1-9.4-12.1-10.1-17.4c-1.2-8.7,1.6-10.8,2.5-16.8c0.5-4,0.9-7,1-8.6
		c5.4,0,10.8,0.1,16.2,0.1c3.6-4.4,6.4-9.4,8.4-14.9c0.6-1.7,1.1-3.4,1.1-5.3c2.8,0.8,5.7,1.5,8,3.4c3.1,2.5,4.7,6.5,5.8,10.4
		c1.1,3.8,2.1,8,4.6,11.1c0.5,0.6,0.9,1.1,1.5,1.5C170.1,47,177.1,52.1,175.8,60.7z"/>
	<path class="st2" d="M126.4,96.9c-0.2,0.4-0.2,0.8-0.3,1.1c0,0.1-0.1,0.1-0.1,0.2c-3.3,5.2-15.5,25.8-20,49.3
		c-0.5,0.1-0.9,0.2-1.4,0.2c-3.1,0.4-6.1,0.8-9,1.6c0,0,10.4-33.2,27.2-50.7c0.5-0.6,1.1-1.1,1.7-1.7L126.4,96.9L126.4,96.9z"/>
	<path class="st3" d="M95.7,149.4c-0.4,5.6-0.5,9.3-0.2,14.5c-0.1-0.2-0.2-0.5-0.4-0.7c-0.3-0.5-0.9-0.8-1.5-0.7
		c-0.5,0.1-0.8,0.5-1.1,0.9c-0.5,0.7-0.8,1.5-0.9,2.3l-0.6-0.2l2-9.2c0-0.1,0.1-0.2,0.1-0.2c0-1.4-6.4-2.5-15.7-3.1l-0.2-0.1
		c1.5-3.1,2.1-6.6,2.1-10c0-1.5-0.1-2.9-0.2-4.4l0.8-0.1c2.5-4.7,2.1-14.2,5.4-22.1c3.9-3.6,8.7-6.7,11.2-11.1
		c8.5-3.9,20.6-6.1,26.3-6.8C106.1,116.1,95.7,149.4,95.7,149.4z"/>
	<path class="st2" d="M164.5,97.3c-1.3,6.4-5.1,28-4.1,51c-3.4-0.8-7-1.5-10.5-1.8c0,0,2.2-20.8,10.3-44.8c0.7-2,1.4-3.8,2.1-5.8
		c0.1-0.2,0.2-0.3,0.2-0.5h2.4C165,95.4,164.8,96,164.5,97.3z"/>
	<path class="st3" d="M210.3,194.8c-2.1,14.6-5.2,14.3-3.3,22.6c1.9,8.3-2.7,16.6-7.8,18.6c0,0-2.7,5.9-6.8,4.4
		c0,0-6.1-28-19.3-30.6c-0.2-0.1-0.4-0.1-0.7-0.2h-0.1c-1.1-0.2-2-1.3-2.2-2.5c-0.4-1.9,0.3-3.8,1.5-5.4c0.8-1,1.8-1.8,2.8-2.7
		c-0.3-2.7-1.5-5.3-3-7.6c-1.8-2.8-3.9-5.4-5.3-8.4c-1.8-4.1-2.1-8.9-0.6-13.1c0.2-0.6,0.5-1.2,0.4-1.8c-0.1-0.6-0.3-1.1-0.6-1.8
		c-2.7-5.4-2.8-11.6-2.1-17.5c-0.9-0.3-1.8-0.5-2.8-0.7c-1-23,2.8-44.6,4.1-51c6,1.4,23.6,6.4,30.9,20.8c8.9,17.4,3.6,28.9,8.3,47.7
		C208.5,184.5,212.5,180.2,210.3,194.8z"/>
	<path class="st2" d="M190.2,273c-11.8-1.8-23.9-1.5-35.6,0.9c-5.7,1.1-11.2,2.8-16.8,3.4c-5.7,0.6-11.6,0.2-17.4-0.6
		c-13.2-1.6-26.6-4.7-37.9-11.6c1.3-3.3,2.4-6.5,2.8-10c0.5-4.4,0.1-8.8,1.3-13c0.8-2.7,2.2-5.1,3.3-7.7c1.1-2.8,1.8-5.7,1.9-8.7
		c0.2-4.1-0.5-8.6,1.5-12.1c3.3,1.5,6.7,2.9,10.3,3.3c1.7,0.2,3.4,0.1,5.1-0.3c5.7,2.1,27.5,10.2,44.5,17.9
		c14.8,6.7,26.6,7.6,33.6,7c0.9,2.1,0.6,5.1,0.3,7.5c-0.4,4.2-0.1,8.4,0.9,12.5C189,265.4,190.6,269.2,190.2,273z"/>
	<path class="st1" d="M192.3,240.5c-1.2,0.4-3.1,0.8-5.4,1c-7,0.6-19-0.3-33.6-7c-16.9-7.7-38.7-15.8-44.5-17.9
		c-1.7,0.4-3.4,0.5-5.1,0.3c-3.6-0.3-7-1.8-10.3-3.3c-1.6-0.7-3.2-1.4-4.9-1.8c-2.3-0.7-4.6-1.1-7-1.4c-5.7-0.7-11.7-0.6-17.4-2.2
		c-1.6-0.5-3.3-1.3-3.9-2.8c-0.2-0.3-0.2-0.8,0-1.1c0.3-0.9,1.5-1.1,2.4-1.2c6.3-0.5,12.5,0.9,18.7,0.4c-5.2-1.4-10.4-2.8-15.6-4.1
		c-1.6-0.4-3.3-0.9-4.9-1.6c-1.1-0.5-2.1-1.1-2.8-2.1c-0.5-0.7-0.9-1.5-0.5-2.4c0.2-0.4,0.5-0.8,0.9-0.9c0.7-0.5,1.5-0.8,2.4-0.9
		c-0.7-0.3-1.3-0.7-2-1.1c-0.7-0.4-1.5-0.9-1.9-1.5c-0.5-0.7-0.8-1.5-0.4-2.3c0.3-0.6,0.9-1.1,1.5-1.3c1.3-0.5,2.8-0.3,4.2-0.2
		c6.6,0.8,13,2.1,19.5,3.6c-5.1-1.9-10-3.8-14.8-6.3c-1.8-0.9-3.8-2.1-4.4-4c-0.2-0.5-0.3-1.1,0-1.5c0.5-0.9,1.8-1,2.8-0.9
		c7.7,0.6,15.1,3.5,22.6,5.7c2.5,0.7,4.9,1.3,7.4,1.8c-2-5.1-4-10.3-3.7-15.7c0-0.5,0.1-1,0.2-1.5c0.2-0.8,0.4-1.6,0.9-2.3
		c0.3-0.4,0.6-0.8,1.1-0.9c0.5-0.2,1.1,0.2,1.5,0.7c0.2,0.2,0.3,0.4,0.4,0.7c0.2,0.3,0.2,0.6,0.3,0.9c2.1,6.2,5.7,11.6,9.7,16.8
		c0.7,0.8,1.3,1.6,1.9,2.5c2.2,3.3,3.3,7.2,3.9,11.1c3.8,2.2,46.9,11.9,61,14.6h0.1c0.2,0.1,0.4,0.1,0.7,0.2
		C186.3,212.5,192.3,240.5,192.3,240.5z"/>
	<path class="st3" d="M157.5,84.4c-7.2,7.5-15.4,10.2-21.2,9.3c-2.5-0.3-5.2-1.8-7.9-3.9c-0.1,0.2-1,3.6-2.1,7.1
		c0,0-0.3,1.2-0.3,1.3c0,0.1-0.1,0.2-0.1,0.2C138,103.2,153.8,96,157.5,84.4z"/>
	<path class="st1" d="M162.1,89.1c0,2.8,0.2,5.1,0.4,6.8c-0.8,2-1.5,3.9-2.1,5.8c-5,3.8-16.1,11.3-24.6,10.5
		c-4.8-0.5-7.5-2.1-9.2-3.8c-2.1-2.3-2.1-4.8-2.1-4.8c0.3-1.2,0.9-3.1,1.5-5.1c12.1,4.9,27.8-2.5,31.6-13.9c0.2-0.2,0.4-0.4,0.5-0.6
		c1.6-1.8,3.2-3.8,4.6-6.1C162.1,81.9,162,85.7,162.1,89.1z"/>
	<path class="st3" d="M160.3,101.7c-8.1,24-10.3,44.8-10.3,44.8c-14.6-1.8-29.4-0.8-44,1c4.5-23.5,16.6-44.1,20-49.3h0.1
		c-0.6,2.1-1.1,4.1-1.5,5.4c0,0,0,7.6,11.3,8.7C144.2,113,155.4,105.5,160.3,101.7z"/>
	<path class="st2" d="M172.2,209.8c-14.1-2.8-57.2-12.4-61-14.6c-0.6-3.9-1.7-7.8-3.9-11.1c-0.6-0.9-1.2-1.7-1.9-2.5
		c-4-5.1-7.6-10.6-9.7-16.8c-0.1-0.3-0.2-0.6-0.3-0.9c-0.3-5.1-0.2-8.9,0.2-14.5c2.9-0.8,6-1.3,9-1.6c0.5-0.1,0.9-0.2,1.4-0.2
		c14.6-1.8,29.5-2.8,44-1c3.5,0.4,7,1,10.5,1.8c0.9,0.2,1.8,0.4,2.8,0.7c-0.8,6.1-0.7,12.2,2.1,17.5c0.3,0.5,0.6,1.1,0.6,1.8
		c0.1,0.6-0.2,1.3-0.4,1.8c-1.5,4.2-1.2,9,0.6,13.1c1.4,3.1,3.4,5.7,5.3,8.4c1.5,2.3,2.8,5,3,7.6c-1.1,0.8-2.1,1.6-2.8,2.7
		c-1.2,1.5-2,3.5-1.5,5.4C170.3,208.5,171.2,209.6,172.2,209.8z"/>
	<path class="st1" d="M48.3,179.1c0.1,0.7-0.2,1.5-0.5,2.1c-0.1,0.2-0.2,0.2-0.2,0.3c-1.2,1.6-3.3,2.6-5.4,2.2
		c-0.9-0.2-1.8-0.5-2.6-1.1c-0.7-0.5-1.3-1.2-1.6-2.1h0.1c-0.3-0.6-0.4-1.3-0.3-1.9c0.2-0.6,0.5-1.1,1.1-1.6c0.5-0.4,1-0.8,1.6-1
		c1.8-0.7,4-0.5,5.7,0.5C47.3,177.1,48.3,178,48.3,179.1z"/>
	<path class="st1" d="M47.7,194.2c0.1,1,0.1,2.1-0.5,2.9c-0.5,0.7-1.3,1-2.1,1.1c-0.3,0-0.7-0.1-1-0.2c-1.1-0.4-1.9-1.5-2.3-2.6
		c-0.2-0.8-0.3-1.5-0.2-2.3c0.1,0.1,0.2,0.2,0.2,0.2c1.3,1.3,3.3,1.8,5.1,1.2C47.1,194.4,47.5,194.2,47.7,194.2L47.7,194.2z"/>
	<path class="st1" d="M54.8,159.5c-10.3-0.5-17.8-1.6-18.5-3.1l-0.1-0.2c0-1.5,6.8-2.6,16.6-3.2C54.2,154.9,55.1,157.2,54.8,159.5z"
		/>
	<path class="st1" d="M49.6,191.9c-0.3,0.9-1,1.6-1.8,2.1c-0.3,0.2-0.5,0.3-0.9,0.4c-1.7,0.5-3.8,0.1-5.1-1.2
		c-0.1-0.1-0.2-0.2-0.2-0.2c-1.1-1.3-1.5-3.1-1-4.7c0.7,0.5,1.5,0.8,2.3,0.9c1.5,0.2,2.9-0.1,4.1-0.9c0.7-0.5,1.2-1.1,1.5-1.9
		C49.5,188.2,50.2,190.1,49.6,191.9z"/>
	<path class="st1" d="M49.1,184.7c0,0.6-0.2,1.2-0.4,1.8c-0.3,0.8-0.9,1.5-1.5,1.9c-1.1,0.8-2.7,1.1-4.1,0.9
		c-0.8-0.2-1.6-0.5-2.3-0.9c-0.5-0.4-0.9-0.9-1.2-1.5c-0.3-0.8-0.4-1.5-0.4-2.4c0.1-0.7,0.2-1.4,0.6-1.8c0.8,0.5,1.6,0.9,2.6,1.1
		c2.1,0.3,4.1-0.6,5.4-2.2C48.6,182.2,49.1,183.4,49.1,184.7z"/>
	<path class="st4" d="M92.8,156.3l-2,9.2l-3.3,15.5v0.1c-7.5-2.1-14.8-5.1-22.6-5.7c-1-0.1-2.3,0-2.8,0.9c-0.2,0.5-0.2,1.1,0,1.5
		c0.7,1.9,2.7,3.1,4.4,4c4.7,2.5,9.8,4.4,14.8,6.3c-6.4-1.5-12.9-2.7-19.5-3.6c-1.5-0.2-2.8-0.3-4.2,0.2c-0.7,0.3-1.3,0.7-1.5,1.3
		c-0.3,0.8-0.1,1.7,0.4,2.3c0.5,0.7,1.2,1.1,1.9,1.5c0.6,0.4,1.3,0.8,2,1.1c-0.9,0.2-1.7,0.4-2.4,0.9c-0.3,0.3-0.7,0.5-0.9,0.9
		c-0.3,0.8,0.1,1.7,0.5,2.4c0.8,0.9,1.8,1.5,2.8,2.1c1.5,0.8,3.3,1.1,4.9,1.6c5.2,1.4,10.4,2.8,15.6,4.1c-6.3,0.5-12.5-0.9-18.7-0.4
		c-0.9,0.1-2.1,0.3-2.4,1.2c-0.2,0.3-0.1,0.8,0,1.1c0.5,1.5,2.2,2.4,3.9,2.8c5.6,1.6,11.6,1.5,17.4,2.2l-0.6,2.9
		c0,0-2.5,2.1-16.2,2.1s-16.2-2.1-16.2-2.1L45,197.8v-0.2c0.8,0,1.6-0.4,2.1-1.1c0.5-0.8,0.5-1.9,0.5-2.9l-0.1-0.1
		c0.8-0.5,1.5-1.2,1.8-2.1c0.7-1.8-0.1-3.8-0.9-5.5c0.3-0.5,0.4-1.1,0.4-1.8c0-1.2-0.5-2.5-1.5-3.2c0.1-0.1,0.2-0.2,0.2-0.3
		c0.4-0.6,0.7-1.3,0.5-2.1c-0.2-1.1-1.1-2.1-2.1-2.6c-1.7-0.9-3.9-1.1-5.7-0.5l-0.2-0.5L36,155.9c0.7,1.5,8.1,2.6,18.5,3.1
		c0.8,0.1,1.7,0.1,2.6,0.1s1.8,0.1,2.7,0.1c1.5,0,3.1,0.1,4.6,0.1c0.9,0,1.7,0,2.5,0c1.6,0,3.2-0.1,4.7-0.1
		C83.5,159.2,92.2,157.9,92.8,156.3z"/>
	<path class="st5" d="M95,182.9c-2.5-0.4-5-1.1-7.4-1.8v-0.1l3.3-15.5l0.6,0.2c-0.1,0.5-0.2,1-0.2,1.5C91,172.6,93.1,177.9,95,182.9
		z"/>
	<path class="st5" d="M77.8,56.2c-0.4,8.5-5,16.5-4.4,25c0.3,4.4,2,8.7,2.9,13c0.4,1.8,0.7,3.5,0.8,5.4c0.2,5.1-1.8,10.3-4.4,14.7
		c-2.6,4.4-6,8.7-6.7,13.8c-0.8,5.5,1.6,11,3.1,16.3c1.4,5.1,1.5,11.4-2.1,15.1c-0.8,0-1.7,0-2.5,0c-1.5,0-3.1,0-4.6-0.1
		c0.9-4,0.5-8.2-1-11.9c-3-7.2-10.3-12.5-11.6-20.2c-0.9-4.9,0.9-9.9,3.3-14.2c1.6-2.8,3.5-5.5,5.1-8.4c0-0.1,0.1-0.1,0.1-0.2
		c1-2,1.7-4.1,1.9-6.3c0.7-7.6-5.1-14.2-6.7-21.7c-1.5-6.9,0.9-14.2,4.7-20.1c1.9-3.1,4.2-6.1,5.4-9.6c1.9-5.8,0.3-12.4-2.8-17.7
		C69.7,32.2,78.4,44.2,77.8,56.2z"/>
	<path class="st6" d="M60,159.6c-0.9,0-1.8-0.1-2.7-0.1c0.3-5.3-3.8-9.9-8-13.2c-4.4-3.4-9.5-6.4-11.8-11.5
		c-2.1-4.4-1.5-9.5-0.7-14.4c0.2-1.1,0.4-2.2,0.6-3.3c1.1-5.9,1.8-12.6-1.6-17.5c-1.8-2.5-4.5-4.2-6.8-6.3
		c-3.5-3.3-6.1-7.6-7.2-12.3c-2.1-9.1,1.1-19-2.1-27.8c-2.1-6.1-7.4-10.9-13.6-12.6c7.3-0.5,15.2-0.7,21.3,3.3
		c7,4.4,10,13,10.6,21.2c0.3,4.1,0.3,8.6,2.8,11.9c2,2.7,5.1,4.1,7.6,6.1C54.7,88,57.4,97,55,104.6l0.3,0.2
		c-1.5,2.8-3.4,5.6-5.1,8.4c-2.5,4.4-4.1,9.3-3.3,14.2c1.4,7.7,8.7,13,11.7,20.2C60.5,151.4,60.8,155.6,60,159.6z"/>
	<path class="st1" d="M92.9,156.2l-0.1,0.2c-0.7,1.5-9.3,2.8-21.1,3.2c2.3-1.6,4-3.8,5.2-6.5l0.2,0.1
		C86.5,153.6,92.9,154.8,92.9,156.2z"/>
	<path class="st6" d="M106,69.4c-2,3.8-5,7-6.4,11.1c-1.1,3.4-1.1,7-1,10.6c0.2,4.4,0.4,9-1.4,12.9c-0.2,0.5-0.5,0.9-0.7,1.5
		c-2.6,4.4-7.3,7.5-11.2,11.1c-2.3,2.1-4.4,4.4-5.5,7.2c-1.9,4.7-1.1,9.8-0.7,14.9c0.2,1.5,0.2,2.9,0.2,4.4c0,3.4-0.7,6.8-2.1,10
		c-1.2,2.6-3,4.9-5.2,6.5c-1.5,0.1-3.1,0.1-4.7,0.1c3.7-3.8,3.4-10,2.1-15.2c-1.5-5.4-3.9-10.8-3.1-16.3c0.8-5.1,4.1-9.3,6.7-13.8
		c2.6-4.4,4.5-9.6,4.4-14.7c-0.1-1.8-0.3-3.6-0.8-5.4c3.5-2.6,4.7-7.4,5.1-11.6c0.4-4.5,0.2-9.3,2.1-13.4c2.4-5.1,7.5-8,11.9-11.4
		c4.5-3.3,8.8-8,8.7-13.5c0.9,1.1,1.5,2.5,2.1,3.8C109.4,54.8,109.4,62.8,106,69.4z"/>
	<path class="st5" d="M57.3,159.5c-0.9,0-1.8-0.1-2.6-0.1c0.4-2.2-0.5-4.6-2-6.4c-0.6-0.8-1.4-1.5-2.1-2.1c-2.9-2.1-6.4-2.8-9.9-3.8
		c-3.4-0.9-7-2.1-9.4-4.5c-1.1-1.1-2.1-2.6-2.8-4c-2.1-3.9-3.9-8.2-6.2-12.1S17,119,12.9,117c-4-2.1-9.3-2.1-12.9,0.5
		c1.4-2.8,4.2-4.4,7.1-5.7c4.6-1.8,9.8-2.6,14.6-1.3c4.2,1.1,7.8,3.8,11.2,6.4c1.4,1,2.7,2.1,3.8,3.4c-0.9,4.9-1.5,10,0.7,14.4
		c2.3,5.1,7.5,8,11.8,11.5C53.6,149.7,57.7,154.3,57.3,159.5z"/>
	<path class="st7" d="M145.7,24.5c-0.5,1.9-0.8,3.8-1.4,5.7c-0.6,1.9-1.4,3.8-2.2,5.4c-1.8,3.4-4.4,6.4-7.4,9
		c-0.5,0.4,0.2,1.1,0.7,0.7c3.1-2.5,5.7-5.7,7.5-9.3c1.8-3.4,3.3-7.4,3.3-11.3C146.2,24.3,145.8,24.1,145.7,24.5z"/>
	<path class="st7" d="M146.7,24.8c1.8,1,3.8,1.8,5.4,3.1c1.6,1.3,3.1,2.8,4.1,4.5c2.6,4,2.9,9,4.5,13.3c0.8,2.1,1.8,4.6,3.7,6.2
		c0.4,0.3,0.8-0.2,0.5-0.5c-1.5-1.9-2.5-3.8-3.3-6.2c-0.7-2.4-1.1-4.7-1.7-7.1c-1.1-4.3-3.3-8-6.8-10.9c-1.8-1.4-3.9-2.7-6.2-3
		C146.7,24.3,146.4,24.7,146.7,24.8z"/>
	<path class="st7" d="M165.6,51.8c0.9-1.7,3-2.7,4.8-2.7c2.1,0.1,3.9,1.5,5,3.3c2.5,4.4,0,9.7-2.9,13.2c-1.5,1.9-3.6,3.6-6.2,3.8
		c-0.7,0-0.7,1.1,0,1.1c2.5-0.2,4.7-1.6,6.4-3.4c1.8-2.1,3.4-4.4,4.2-7.1c0.8-2.6,0.8-5.6-0.6-8c-1.1-2-3.1-3.4-5.4-3.8
		c-1.2-0.2-2.5,0.2-3.5,0.8c-1.1,0.6-1.8,1.5-2.2,2.7C165,51.9,165.4,52.1,165.6,51.8z"/>
	<path class="st7" d="M172.4,54.7c-0.8,0.7-1.5,1.4-2.1,2.2c-0.6,0.8-1.1,1.8-1.5,2.8c-0.4,0.9-0.6,2.1-0.8,3.1
		c-0.2,1-0.3,2.1-0.1,3.1c0.2,0.5,0.9,0.4,0.9-0.2c0.1-0.9,0-2,0.2-2.9s0.4-1.9,0.8-2.8c0.3-0.9,0.8-1.8,1.3-2.6
		c0.5-0.8,1.1-1.8,1.8-2.5C173,54.8,172.6,54.5,172.4,54.7z"/>
	<path class="st7" d="M146.3,9.6c1.7,0.3,3.4,0.6,5.1,1c1.7,0.4,3.3,0.9,5,1.5c3.1,1.1,6.1,2.7,8.7,4.6c2.5,1.8,4.7,4.1,6.4,6.8
		c1.8,2.8,2.9,5.9,3.8,9.1c0.9,3.3,1.5,6.7,2.7,9.8c1.1,3.1,2.6,6,4,8.8c3,5.8,6.1,11.7,6.8,18.4c0.8,7.4-1.1,14.6-5.1,20.8
		c-0.4,0.6,0.5,1.1,1,0.5c3.7-5.4,5.5-12.2,5.4-18.7c-0.2-6.8-2.7-13-5.7-19.1c-1.5-3.1-3.2-6.1-4.5-9.2c-1.4-3.3-2.2-6.7-3.1-10.2
		c-0.8-3.3-1.8-6.7-3.5-9.7c-1.5-2.7-3.6-5.1-5.9-7.1c-2.8-2.4-5.9-4.2-9.3-5.6c-1.9-0.8-3.9-1.4-5.8-1.8c-1-0.2-2-0.4-3-0.5
		c-0.9-0.2-1.9-0.2-2.9-0.2C146,8.9,145.9,9.5,146.3,9.6z"/>
	<path class="st7" d="M184.4,82c-0.4,1.5-0.9,2.8-1.7,4.1c-0.3,0.6-0.8,1.2-1.1,1.8c-0.4,0.6-1,1.1-1.4,1.8c-0.3,0.4,0.3,1,0.7,0.7
		c0.6-0.5,1.1-1.1,1.5-1.8c0.5-0.7,0.9-1.4,1.2-2.1c0.8-1.4,1.2-2.9,1.5-4.4C185.3,81.7,184.5,81.5,184.4,82z"/>
	<path class="st7" d="M181.4,82.1c-0.7,1.5-1.5,2.7-2.5,4c-0.4,0.6-0.9,1.2-1.4,1.8c-0.5,0.6-1.1,1.1-1.5,1.8
		c-0.3,0.5,0.3,1,0.8,0.8c0.7-0.4,1.2-1.1,1.7-1.8c0.5-0.6,1-1.3,1.5-2c0.9-1.4,1.5-2.8,2.1-4.4C182.2,82,181.5,81.7,181.4,82.1z"/>
	<path class="st7" d="M176.3,81.7c-1.5,3.2-3.8,5.8-6.4,8c-0.5,0.4,0.2,1.2,0.7,0.9c1.5-1.1,2.8-2.4,3.9-3.8
		c1.1-1.5,1.9-3.1,2.6-4.7C177.2,81.6,176.5,81.3,176.3,81.7z"/>
	<path class="st7" d="M169.9,82.7c-0.3,1.1-0.8,2.2-1.5,3.3c-0.3,0.5-0.6,0.9-1,1.4s-0.9,0.9-1.3,1.4c-0.3,0.4,0.2,1.1,0.6,0.8
		c1.1-0.7,1.9-1.8,2.5-2.9c0.6-1.1,1-2.4,1.2-3.6C170.7,82.5,170,82.3,169.9,82.7z"/>
	<path class="st7" d="M103,78c-1.9,3.5-2.1,8.1,0.2,11.6c0.3,0.5,1.2,0.1,0.9-0.5c-1.8-3.3-2.1-7.3-0.5-10.6
		C103.7,78,103.2,77.7,103,78z"/>
	<path class="st7" d="M106.6,79.9c-0.3,1.8-0.3,3.5,0.2,5.3c0.2,0.8,0.5,1.7,0.8,2.5c0.3,0.8,0.8,1.7,1.4,2.4c0.3,0.3,1.1,0,0.9-0.5
		c-0.3-0.8-0.8-1.5-1.1-2.1c-0.3-0.8-0.6-1.5-0.8-2.4c-0.4-1.6-0.5-3.3-0.5-5C107.3,79.6,106.6,79.4,106.6,79.9z"/>
	<path class="st7" d="M111.4,80.6c-0.1,1.5,0.1,3.2,0.5,4.7c0.2,0.8,0.5,1.5,0.8,2.1c0.3,0.7,0.8,1.5,1.4,2.1
		c0.5,0.4,1.1-0.1,0.8-0.6c-0.3-0.7-0.8-1.2-1.1-1.9c-0.3-0.7-0.7-1.4-0.9-2.1c-0.5-1.5-0.8-2.8-0.8-4.4
		C112.1,80.1,111.4,80.1,111.4,80.6z"/>
	<path class="st7" d="M116.3,84c0.8,1.6,1.8,3.1,3.1,4.3c0.2,0.2,0.5,0.2,0.8,0c0.2-0.2,0.2-0.6,0-0.8c-1.3-1.1-2.5-2.4-3.2-3.8
		c-0.1-0.2-0.3-0.3-0.5-0.2C116.3,83.6,116.3,83.8,116.3,84z"/>
	<path class="st7" d="M146.6,8.1c0.3-1.5,0.2-2.8-0.3-4.3c-0.2-0.7-0.5-1.4-0.9-2c-0.3-0.6-0.8-1.3-1.4-1.8
		c-0.4-0.3-0.9,0.3-0.7,0.7c0.3,0.5,0.8,1.1,1.1,1.6c0.3,0.5,0.6,1.1,0.8,1.8c0.4,1.2,0.6,2.6,0.6,3.8
		C145.8,8.5,146.4,8.6,146.6,8.1z"/>
	<path class="st7" d="M145,7.1c-0.3-0.4-0.6-0.8-0.9-1.1c-0.3-0.3-0.8-0.7-1.1-0.9c-0.8-0.5-1.8-1-2.8-1.2c-0.7-0.2-0.9,0.8-0.3,1
		c0.9,0.3,1.7,0.6,2.5,1.1c0.8,0.5,1.5,1,2.1,1.7C144.7,7.9,145.2,7.4,145,7.1z"/>
	<path class="st7" d="M142.3,7.2c-1.9-0.5-4-0.5-5.9-0.1c-0.6,0.2-0.3,1,0.3,0.9c1.8-0.3,3.6-0.3,5.4,0.1
		C142.7,8.2,142.8,7.3,142.3,7.2z"/>
	<path class="st7" d="M166.1,71.4c-0.9,1.3-1.8,2.5-2.4,3.9c-0.6,1.4-1.1,2.8-1.5,4.2c-0.3,1.5-0.6,2.8-0.8,4.3
		c-0.2,1.5-0.3,3.1,0.1,4.5c0.1,0.5,0.8,0.3,0.8-0.2c0.1-1.5-0.1-2.8,0.1-4.2s0.4-3,0.8-4.4c0.8-2.7,1.8-5.6,3.4-8
		C166.7,71.4,166.3,71.2,166.1,71.4z"/>
	<path class="st7" d="M162.7,83.8c-0.2,1.1-0.1,2.2,0.2,3.4c0.1,0.3,0.3,0.4,0.6,0.3c0.3-0.1,0.4-0.3,0.3-0.6
		c-0.3-1-0.5-2.1-0.4-3.1c0-0.2-0.2-0.3-0.3-0.3C162.8,83.4,162.7,83.6,162.7,83.8z"/>
	<path class="st7" d="M161.4,90.1c-0.1,1.1-0.2,2.4-0.1,3.5c0.1,1.1,0.3,2.3,0.5,3.4c0.2,0.6,1,0.3,0.9-0.3
		c-0.2-1.1-0.4-2.2-0.5-3.4c-0.1-1.1-0.2-2.2-0.2-3.4C162.1,89.7,161.5,89.7,161.4,90.1z"/>
	<path class="st7" d="M128.4,89.7c-0.8,2.4-1.4,4.7-2.1,7.1c-0.7,2.4-1.6,4.7-2.3,7c-0.2,0.5,0.7,0.9,0.9,0.4c1-2.3,1.7-4.8,2.4-7.2
		c0.7-2.5,1.4-4.8,1.6-7.4C129.1,89.5,128.6,89.4,128.4,89.7z"/>
	<path class="st7" d="M118.7,46c0.3,5.9-2.2,11.3-3.4,17c-0.6,2.8-0.8,5.7-0.2,8.5c0.5,2.9,1.7,5.7,3.2,8.2c1.5,2.6,3.5,4.9,5.7,7
		c2,2,4.1,3.9,6.6,5.4c5.2,3.1,11.3,2.4,16.7,0.1c5.4-2.2,10.6-6.2,13.6-11.3c0.3-0.5-0.5-0.9-0.8-0.5c-3.1,4.2-6.9,7.7-11.6,10
		c-5.1,2.5-11.3,3.8-16.6,1.1c-2.5-1.3-4.5-3.1-6.4-5c-2.1-2-3.9-4.1-5.5-6.5c-1.5-2.5-2.8-5.1-3.4-8c-0.6-2.8-0.6-5.7-0.1-8.4
		c1.1-5.9,4.1-11.6,3.1-17.8C119.5,45.3,118.7,45.5,118.7,46z"/>
	<path class="st7" d="M136.6,51.1c-0.5,2.1-1.3,4.4-2.3,6.3c-1,2.1-2.5,3.8-4,5.4c-1.4,1.5-2.4,3.3-1.5,5.2c0.8,2.1,3,3.2,5,3.8
		c0.8,0.2,1.2-0.9,0.5-1.2c-1.8-0.9-4.4-1.6-4.4-4c-0.1-1.9,2.1-3.4,3.1-4.7c2.5-3.1,4-6.8,4.4-10.7
		C137.4,50.7,136.7,50.6,136.6,51.1z"/>
	<path class="st7" d="M144.7,52.9c0.4-0.2,0.9-0.2,1.3-0.3c0.4-0.2,0.8-0.3,1.1-0.3c0.9-0.2,1.7-0.3,2.6-0.3
		c1.6,0.1,3.3,0.8,4.5,1.9c0.8,0.7,1.8-0.4,1.1-1.1c-1.5-1.3-3.4-2.1-5.4-2.3c-1-0.1-2.1,0.1-3,0.3c-0.5,0.2-0.9,0.3-1.4,0.5
		c-0.2,0.2-0.4,0.3-0.6,0.4c-0.2,0.2-0.3,0.4-0.5,0.6C144.1,52.5,144.3,53,144.7,52.9z"/>
	<path class="st7" d="M144.8,48.1c0.4-0.2,0.9-0.2,1.4-0.3c0.4-0.2,0.8-0.3,1.1-0.4c0.9-0.2,1.7-0.3,2.6-0.3c0.9,0,1.8,0.2,2.6,0.4
		c0.9,0.3,1.5,0.8,2.4,1.1c0.8,0.3,1.2-0.8,0.8-1.2c-0.7-0.7-1.8-1.1-2.7-1.4c-0.9-0.3-2-0.5-3-0.5c-0.9,0-2,0.2-2.9,0.5
		c-0.5,0.2-0.9,0.3-1.4,0.6c-0.5,0.3-0.8,0.7-1.1,1C144.2,47.8,144.4,48.3,144.8,48.1z"/>
	<path class="st7" d="M150.6,53.2c0,1.3-1,2.3-2.3,2.3c-1.3,0-2.3-1-2.3-2.3c0-1.3,1-2.3,2.3-2.3C149.6,50.9,150.6,51.9,150.6,53.2z
		"/>
	<path class="st7" d="M121.2,52.9c0.4-0.2,0.9-0.2,1.3-0.3c0.4-0.2,0.8-0.3,1.1-0.3c0.9-0.2,1.7-0.3,2.6-0.3
		c1.6,0.1,3.3,0.8,4.5,1.9c0.8,0.7,1.8-0.4,1.1-1.1c-1.5-1.3-3.4-2.1-5.4-2.3c-1-0.1-2.1,0.1-3,0.3c-0.5,0.2-0.9,0.3-1.4,0.5
		c-0.2,0.2-0.4,0.3-0.6,0.4c-0.2,0.2-0.3,0.4-0.5,0.6C120.8,52.5,121,52.9,121.2,52.9z"/>
	<path class="st7" d="M121.4,48.1c0.4-0.2,0.9-0.2,1.4-0.3c0.4-0.2,0.8-0.3,1.1-0.4c0.9-0.2,1.7-0.3,2.6-0.3c0.9,0,1.8,0.2,2.6,0.4
		c0.9,0.3,1.5,0.8,2.4,1.1c0.8,0.3,1.2-0.8,0.8-1.2c-0.7-0.7-1.8-1.1-2.7-1.4c-0.9-0.3-2-0.5-3-0.5c-0.9,0-2,0.2-2.9,0.5
		c-0.5,0.2-0.9,0.3-1.4,0.6c-0.5,0.3-0.8,0.7-1.1,1C120.9,47.7,121.2,48.2,121.4,48.1z"/>
	<path class="st7" d="M125,55.5c1.3,0,2.3-1,2.3-2.3c0-1.3-1.1-2.3-2.3-2.3c-1.3,0-2.3,1-2.3,2.3C122.7,54.5,123.7,55.5,125,55.5z"
		/>
	<path class="st3" d="M155.2,72.1c3.5,0,6.4-2.8,6.4-6.4c0-3.5-2.8-6.4-6.4-6.4s-6.4,2.8-6.4,6.4C148.8,69.2,151.6,72.1,155.2,72.1z
		"/>
	<path class="st3" d="M140.2,80.1c1.9,0,3.5-1.6,3.5-3.5c0-1.9-1.6-3.5-3.5-3.5c-1.9,0-3.5,1.6-3.5,3.5
		C136.7,78.5,138.2,80.1,140.2,80.1z"/>
	<path class="st7" d="M135,77.9c0.5,0.1,0.9,0.2,1.5,0.2c0.5,0,0.9-0.1,1.5-0.2c0.9-0.2,1.8-0.5,2.7-0.9c1.8-0.8,3.3-2.1,4.5-3.7
		c0.5-0.8-0.7-1.5-1.2-0.8c-1,1.5-2.3,2.5-3.9,3.3c-0.8,0.4-1.5,0.7-2.4,0.9c-0.4,0.1-0.8,0.2-1.2,0.3c-0.5,0.1-0.9,0.3-1.4,0.3
		C134.6,77.4,134.6,77.9,135,77.9z"/>
	<path class="st7" d="M105.8,123.6c-1.4,2.1-2.1,4.5-3.1,6.8c-1,2.5-2.1,4.8-3.1,7.3c-0.9,2.3-2,4.7-2.9,7c-0.8,2.1-1.5,4.3-1.1,6.5
		c0.3,1.6,1.3,3.3,2.8,4.1c1.6,0.9,3.7,0.7,5.2-0.4c1.7-1.1,2.7-3,3.2-4.9c0.6-2.3,0.9-4.7,1.4-7c1.1-5.5,2.7-10.9,4.5-16.1
		c0.3-0.8-0.9-1-1.1-0.3c-1.6,4.2-2.9,8.6-3.9,12.9c-0.5,2.1-0.9,4.4-1.4,6.7c-0.3,2-0.6,4-1.6,5.7c-0.9,1.5-2.7,3-4.5,2.7
		c-1.7-0.3-2.8-2-3.1-3.5c-0.5-2.1,0.3-4.2,1-6.2c0.8-2.1,1.7-4.2,2.6-6.3c1-2.5,2-4.9,3-7.3c1-2.5,2.2-4.9,2.8-7.4
		C106.4,123.5,106,123.4,105.8,123.6z"/>
	<path class="st7" d="M153.7,123.8c-0.3,1.1-0.7,2.3-1,3.4c-0.3,1.3-0.6,2.5-0.9,3.8c-0.5,2.5-0.9,4.9-1.4,7.4
		c-0.3,2.3-0.6,4.6-0.7,7c-0.1,2.1,0,4.4,0.9,6.4c0.8,1.7,2,3.3,3.8,3.9c1.6,0.6,3.5,0.5,4.8-0.8c1.5-1.5,1.6-3.8,1.7-5.7
		c0-2.5,0.1-5,0.1-7.4c0.1-5.7,0.1-11.6,0.1-17.3c0-0.6-0.9-0.6-1,0c-0.1,4.6-0.2,9.2-0.3,13.8c-0.1,2.3-0.1,4.6-0.1,6.9
		c0,1,0,2.1,0,3.1c0,1.1,0.1,2.4-0.2,3.6c-0.4,2-1.8,3.4-3.9,3c-1.8-0.3-3.1-1.8-3.9-3.4c-0.8-1.9-0.9-4-0.8-6.1
		c0.2-2.2,0.3-4.4,0.7-6.7c0.3-2.5,0.8-5,1.3-7.4c0.2-1.1,0.5-2.4,0.8-3.5c0.3-1.3,0.4-2.6,0.7-3.8
		C154.4,123.6,153.7,123.5,153.7,123.8z"/>
	<path class="st7" d="M164.2,148.8c1.4-3.1,2.6-6.3,4.1-9.3c0.8-1.5,1.5-2.9,2.5-4.4c0.9-1.5,2-2.9,2.8-4.4c0.3-0.6-0.5-1.3-0.9-0.8
		c-1.1,1.3-2,2.8-2.8,4.3c-0.9,1.5-1.8,3.1-2.6,4.6c-1.5,3.1-3,6.3-3.8,9.7C163.5,149,164.1,149.2,164.2,148.8z"/>
	<path class="st7" d="M162.9,144.5c0.4-3.8,1.5-7.5,2.8-11c0.3-0.7-0.8-0.9-1.1-0.3c-1.5,3.7-2.3,7.4-2.5,11.3
		C162.1,145,162.8,145,162.9,144.5z"/>
	<path class="st7" d="M163,157.5c-0.9,2.1-0.8,4.3,0.2,6.4c0.9,2.1,2.6,3.8,4.4,5.3c2,1.5,4.1,2.7,6.2,4.1c1,0.7,2,1.5,2.8,2.2
		c0.9,0.9,1.7,1.9,2.5,2.9c0.5,0.6,1.3,0.1,1-0.6c-0.9-2-2.8-3.5-4.5-4.7c-1.8-1.4-3.9-2.5-5.7-3.8c-2-1.3-3.9-2.8-5.1-4.9
		c-1.1-1.9-1.8-4.4-1.1-6.7C163.7,157.4,163.1,157.2,163,157.5z"/>
	<path class="st7" d="M166.6,167.8c-1.3,2.1-1.9,4.8-2.2,7.4c-0.3,2.5-0.3,5,0.4,7.4c1.2,4.2,4.3,7.4,6.6,10.9
		c1.2,2,2.4,4.1,2.7,6.4c0.1,0.3,0.3,0.7,0.7,0.7c4.1-0.2,8.2,0.9,11.8,2.9c3.7,2.1,6.5,5.1,8.7,8.6c0.4,0.7,1.4,0.1,1-0.6
		c-3.9-7.7-12.9-12.5-21.5-12.2c0.2,0.2,0.4,0.4,0.7,0.7c-0.5-4.1-2.9-7.4-5.3-10.6c-1.2-1.6-2.5-3.4-3.3-5.2
		c-1-2.2-1.4-4.7-1.2-7.2c0.1-1.5,0.3-2.8,0.6-4.3c0.3-1.5,0.8-2.8,1.1-4.4C167.3,167.7,166.8,167.5,166.6,167.8z"/>
	<path class="st7" d="M199.1,234.3c-0.2-9.3-5.7-18.3-12.9-23.8c-2.1-1.6-4.4-3-7-4c-0.6-0.3-1.1,0.8-0.5,1.1
		c4.1,2,7.7,4.4,10.9,7.8c3.1,3.3,5.4,7.4,7,11.6c0.8,2.4,1.4,4.9,1.7,7.4C198.4,234.8,199.1,234.7,199.1,234.3z"/>
	<path class="st7" d="M95.2,182.4c-1.6-1-3.8-1.4-5.6-1.9c-2-0.5-3.9-1.1-5.9-1.6c-4-1.1-8-2.1-12-3c-1.9-0.5-3.8-0.9-5.7-1
		c-1.4-0.1-3.3-0.2-4,1.2c-0.6,1.3,0.2,2.8,1.1,3.8c1.1,1.1,2.6,1.9,4,2.5c4.1,1.8,8.3,3.8,12.5,5.4c0.5,0.2,0.9-0.7,0.4-0.9
		c-3.3-1.5-6.8-3.1-10.2-4.5c-1.5-0.6-2.8-1.1-4.1-2c-1.1-0.7-2.7-1.9-2.7-3.3c0.1-1.7,3.5-0.9,4.5-0.8c1.8,0.3,3.5,0.7,5.3,1.1
		c3.5,0.8,7,1.7,10.6,2.7c2,0.5,3.9,1.1,5.9,1.6c1.9,0.5,3.9,1.4,5.9,1.5C95.4,183.1,95.5,182.7,95.2,182.4z"/>
	<path class="st7" d="M82.6,188.1c-1-0.7-2.4-0.9-3.5-1.1c-1.3-0.3-2.7-0.6-3.9-0.9c-2.6-0.5-5.2-1-7.9-1.5
		c-2.7-0.5-11.6-2.6-11.2,2.7c0.2,2.4,2.5,3.7,4.5,4.4c0.5,0.2,0.9-0.6,0.4-0.9c-1-0.5-2.1-0.9-2.9-1.8c-0.8-0.8-1.2-2.3-0.2-3.1
		c0.9-0.8,2.4-0.7,3.4-0.6c1.5,0.1,3,0.3,4.5,0.5c2.8,0.5,5.6,1,8.3,1.5c1.4,0.3,2.8,0.5,4.1,0.9c1.3,0.3,2.8,0.8,4.1,0.8
		C82.9,188.7,83,188.3,82.6,188.1z"/>
	<path class="st7" d="M81.8,196.5c-3.4-1.5-7-2.5-10.4-3.4c-3.3-1-6.8-2.4-10.3-2.5c-1.5,0-2.8,0.3-3.8,1.5
		c-0.9,1.1-0.8,2.5,0.1,3.5c0.9,1.1,2.5,1.6,3.8,2.1c1.7,0.7,3.4,1.3,5.1,1.8c3.8,1.2,7.7,2.4,11.6,3.3c0.5,0.2,0.7-0.6,0.2-0.8
		c-5.9-1.9-11.9-3.4-17.7-6c-1.1-0.5-3.1-1.5-2.4-3c0.6-1.4,2.5-1.4,3.7-1.2c3.1,0.2,6.2,1.5,9.2,2.3c3.5,1.1,7,2.3,10.6,3
		C81.9,197.3,82.3,196.8,81.8,196.5z"/>
	<path class="st7" d="M69.7,202.9c-2.1-0.7-4.1-0.9-6.4-0.5c-1.3,0.2-3.9,0.4-4.1,2.1c-0.2,1.8,2.3,2.9,3.6,3.6
		c1.8,0.9,3.7,1.5,5.7,2c4.2,0.9,8.6,1,12.9,1.5c2.2,0.3,4.5,0.7,6.7,1.4c2.1,0.6,4.1,1.5,6.2,2.2c4.5,1.8,9.5,3.4,14.5,2.7
		c0.5-0.1,0.4-1-0.2-0.9c-4.1,0.3-8-0.7-11.9-2.1c-3.7-1.4-7.3-2.9-11.2-3.8c-7.5-1.6-15.7-0.5-22.6-4.2c-0.8-0.4-2-0.9-2.4-1.7
		c-0.5-0.9,1.8-1.2,2.3-1.4c2.1-0.4,4.5-0.5,6.7-0.2C69.9,203.5,69.9,203,69.7,202.9z"/>
	<path class="st7" d="M109.4,215.9c0.3-0.5,0.4-1.1,0.6-1.8c0.2-0.6,0.3-1.1,0.5-1.8c0.3-1.2,0.8-2.4,1.1-3.6c0.3-0.7-0.9-1-1.1-0.3
		c-0.4,1.1-0.8,2.4-1.1,3.6c-0.2,0.6-0.3,1.2-0.5,1.8c-0.2,0.6-0.3,1.2-0.3,1.8C108.7,216.1,109.2,216.2,109.4,215.9z"/>
	<path class="st7" d="M41,175.5c-0.9-0.5-2.2,0.3-2.8,1c-0.8,0.9-1.1,2.1-0.9,3.3c0.3,2.3,2.8,3.7,5,3.7c1.6,0,3.1-0.5,4.6-1.1
		c0.5-0.2,0.3-0.9-0.2-0.8c-2.3,0.6-5.4,1.5-7.4-0.4c-0.9-0.8-1.1-2.1-0.7-3.2c0.2-0.5,0.5-0.9,1-1.2s1.1-0.4,1.5-0.8
		C41.2,176,41.3,175.7,41,175.5z"/>
	<path class="st7" d="M39.3,182.3c-0.4,0.6-0.5,1.5-0.5,2.2c0,0.7,0.1,1.4,0.3,2.1c0.5,1.2,1.4,2.1,2.6,2.6c1.2,0.4,2.7,0.2,3.9-0.3
		c1.2-0.5,2.5-1.1,3.2-2.2c0.9-1.1,1-2.8,0.1-4c-0.3-0.3-0.8,0.1-0.6,0.5c0.7,1.3,0.1,2.8-0.9,3.7c-1,0.9-2.4,1.5-3.7,1.5
		c-1.4,0.2-2.7-0.3-3.3-1.5c-0.3-0.6-0.5-1.4-0.5-2.1c0-0.8,0.3-1.5,0.2-2.3C39.9,182.1,39.4,182.1,39.3,182.3z"/>
	<path class="st7" d="M40.7,187.7c-0.8,1-1,2.2-0.6,3.4c0.4,1.2,1.4,2.1,2.5,2.7c2.3,1,5.7,0.8,7.2-1.5c0.8-1.1,0.9-2.8,0-3.9
		c-0.3-0.4-0.9,0.2-0.8,0.5c0.5,1.1,0.3,2.5-0.6,3.3c-0.9,0.9-2.4,1.1-3.7,1c-1.2-0.2-2.6-0.7-3.3-1.7c-0.8-1-0.9-2.5-0.3-3.5
		C41.4,187.9,40.9,187.5,40.7,187.7z"/>
	<path class="st7" d="M41.4,192.5c-0.2,0.3-0.2,0.5-0.2,0.8c0,0.3,0,0.5,0,0.8c0,0.5,0.1,0.9,0.3,1.5c0.3,0.8,0.8,1.6,1.5,2.1
		c0.7,0.5,1.5,0.8,2.4,0.8c0.9-0.1,1.7-0.4,2.1-1.1c0.3-0.4-0.3-0.9-0.7-0.5c-0.5,0.5-0.9,0.8-1.6,0.8c-0.7,0-1.3-0.2-1.8-0.7
		c-0.5-0.5-0.9-1.1-1.1-1.7c-0.2-0.4-0.2-0.8-0.2-1.2c0-0.2,0-0.4,0-0.6s0-0.4-0.1-0.7C42,192.3,41.5,192.2,41.4,192.5z"/>
	<path class="st7" d="M52.9,152.5c-3.3,0-6.6,0.4-9.9,0.9c-1.6,0.2-3.3,0.5-4.9,0.8c-1,0.2-2.4,0.7-2.3,2c0,1.1,1.4,1.5,2.2,1.8
		c1.5,0.4,3.2,0.8,4.7,1c3.2,0.5,6.4,0.9,9.7,1.1c6.6,0.4,13.2,0.3,19.8,0.1c3.3-0.1,6.6-0.2,10-0.5c1.5-0.2,3.1-0.3,4.7-0.7
		c1.5-0.3,3.2-0.5,4.6-1.1c0.9-0.4,1.9-1.3,1.3-2.4c-0.3-0.5-0.9-0.8-1.5-0.9c-0.8-0.3-1.7-0.5-2.6-0.7c-3.6-0.8-7.3-1.3-11-1.5
		c-0.5,0-0.5,0.8,0,0.8c2.9,0.2,5.7,0.5,8.7,1.1c1.4,0.3,2.7,0.6,4,0.9c0.4,0.2,1.9,0.4,1.4,1.1c-0.3,0.4-1.3,0.5-1.7,0.6
		c-5.5,1.4-11.2,1.7-16.8,1.8c-11.4,0.3-23,0.7-34.2-1.7c-0.6-0.2-1.5-0.2-2.1-0.5c-1.1-0.7,0.5-1.4,1.1-1.5
		c1.5-0.3,3.1-0.5,4.7-0.8c3.3-0.5,6.6-0.7,10-1.1C53.4,153.2,53.4,152.5,52.9,152.5z"/>
	<path class="st7" d="M145.1,9c-2.1-0.4-4.4,0.1-6.4,0.3c-2.1,0.3-4.4,0.6-6.4,1.1c-3.8,0.9-7.4,2.4-10.6,4.7
		c-3.1,2.3-5.3,5.4-6.8,8.9c-1.5,3.8-2.3,7.7-3.2,11.6c-1,4.4-2.4,8.8-5.4,12.3c-0.5,0.5,0.3,1.3,0.8,0.8c5.1-5.9,5.7-14.2,7.9-21.4
		c1.1-3.8,2.9-7.3,5.9-9.9c2.7-2.5,6.2-4.1,9.7-5.2c2.3-0.7,4.7-1.1,7.1-1.5c1.3-0.2,2.6-0.3,3.9-0.5c1.2-0.2,2.5-0.2,3.6-0.6
		C145.3,9.6,145.4,9.1,145.1,9z"/>
	<path class="st7" d="M65.3,37.6c3,2.9,4.3,6.8,4.2,11c-0.1,4.7-2,9.2-3.8,13.5c-1.9,4.4-3.9,8.9-4.5,13.8
		c-0.5,4.4,0.6,8.6,2.4,12.7c1.7,3.9,3.7,8,3.8,12.3c0.1,3.7-1.5,7-3.4,10c-3.8,5.7-9.6,11.1-9.4,18.5c0.2,9.3,9.3,16.2,8.6,25.7
		c-0.1,1.1-0.3,2.3-0.8,3.4c-0.3,0.7,0.7,1.3,1,0.6c2-4.2,0.9-8.8-0.8-12.9c-1.9-4.4-4.7-8.3-6.1-12.9c-1.1-3.9-0.5-7.7,1.5-11.3
		c1.7-3.2,4-6.1,6.1-9c2-2.8,3.8-6.1,4.4-9.5c0.7-4.2-0.8-8.2-2.2-12.2c-1.5-4.1-3.4-8.3-3.4-12.8c0-5.1,2-10,3.9-14.6
		c1.8-4.4,3.8-8.8,4.1-13.6c0.3-3.8-0.6-8-3.1-11.2c-0.5-0.7-1.2-1.3-1.9-1.8C65.4,37,65,37.5,65.3,37.6z"/>
	<path class="st7" d="M71.9,159.3c2.4-3.3,2.9-7.4,2.8-11.4c-0.1-4.3-1-8.4-1.5-12.6c-0.5-4.2-0.8-8.6,0.8-12.7
		c1.2-3.3,3.5-5.9,5.9-8.3c4.7-4.8,10.3-9.4,11.2-16.6c0.5-4.3-0.4-8.6-0.6-12.8c-0.2-2.1-0.1-4.3,0.5-6.4c0.5-2,1.5-3.8,2.5-5.5
		c2.5-3.8,5.8-6.9,8.3-10.6c2.6-3.8,4.5-8.3,3.5-13c-0.2-0.8-1.5-0.5-1.2,0.3c1.8,8.7-6.4,15.1-11,21.4c-2.3,3.3-3.9,6.8-4.1,10.9
		c-0.2,4.2,0.8,8.3,0.8,12.6c0.1,3.8-0.9,7.2-3.1,10.3c-1.9,2.7-4.4,5-6.8,7.4c-2.3,2.3-4.6,4.7-6.3,7.7c-2,3.6-2.5,7.7-2.3,11.6
		c0.2,4.7,1.4,9.4,1.8,14.2c0.4,4.5,0.1,9.1-1.9,13.3C71.1,159.4,71.7,159.8,71.9,159.3z"/>
	<path class="st7" d="M17.8,45.3c3.9,0.5,7,3.2,8.7,6.8c2,4.4,1.5,9.5,1.2,14.1c-0.3,4.4-0.4,9.2,1.4,13.3c1.5,3.4,4.1,6.1,6.7,8.5
		c2.7,2.5,5.4,4.9,7.3,8c2.1,3.6,2.1,7.7,1.5,11.7c-0.7,4.2-2.1,8.3-2.5,12.5c-0.4,4.3,0.3,8.3,2.4,12.1
		c4.1,7.7,12.1,13.7,13.3,22.8c0.2,1.1,0.2,2.1,0.1,3.3c-0.1,0.8,1,0.7,1.1,0c0.9-9.4-6.9-16.4-11.6-23.6c-2.5-3.8-4.1-7.7-4.1-12.3
		c0.1-4.4,1.4-8.6,2.2-12.9c0.8-4,1.3-8.2-0.3-12.2c-1.4-3.4-3.9-6.2-6.6-8.7c-2.7-2.5-5.6-5-7.4-8.2c-2.3-4.1-2.3-8.8-2.1-13.3
		c0.3-4.8,0.8-9.9-0.9-14.6c-1.3-3.4-3.9-6.6-7.5-7.7c-0.9-0.3-1.8-0.3-2.7-0.2C17.4,44.7,17.4,45.2,17.8,45.3z"/>
	<path class="st7" d="M7,113.5c4.7-0.5,9.8,0.3,14.2,2.1c4,1.8,7.6,4.5,10.3,8c0.8,0.9,1.5,2.1,2.1,3.1c0.6,1.1,1.1,2.1,1.6,3.3
		c0.3,0.5,1.2,0.2,1-0.4c-0.6-2.1-2-4.1-3.2-5.9c-1.4-1.8-2.9-3.5-4.7-5.1c-3.8-3.1-8.3-5.1-13-5.9c-1.4-0.2-2.7-0.3-4-0.3
		c-1.5,0-2.8,0.2-4.2,0.5C6.5,112.9,6.6,113.5,7,113.5z"/>
	<path class="st7" d="M111.2,173.5c9.9,2.7,19.6,6.4,28.7,11c2.6,1.3,5.1,2.7,7.7,4.1c0.7,0.4,1.3-0.7,0.6-1.1
		c-4.4-2.7-9.2-4.9-13.9-6.9c-4.7-2.1-9.5-3.8-14.4-5.4c-2.8-0.9-5.7-1.5-8.6-2.3C110.9,172.8,110.7,173.4,111.2,173.5z"/>
	<path class="st7" d="M128.6,187.1c2.8,1,5.6,2.3,8.2,3.7c1.3,0.7,2.6,1.4,3.8,2.1c1.3,0.8,2.5,1.7,3.8,2.4c0.6,0.3,1.4-0.5,0.8-1
		c-1.1-1-2.5-1.7-3.8-2.5c-1.4-0.8-2.7-1.5-4.1-2.1c-2.7-1.3-5.7-2.4-8.5-3.3C128.4,186.3,128.2,187,128.6,187.1z"/>
	<path class="st7" d="M158.5,162.2c-0.1,0.3-0.2,0.6-0.2,0.9c-0.1,0.3-0.2,0.7-0.2,1c-0.1,0.3-0.2,0.8-0.2,1.1s-0.2,0.8,0,1.1
		c0.1,0.3,0.3,0.4,0.5,0.5s0.5-0.1,0.6-0.3c0.2-0.3,0.2-0.8,0.2-1.1c0-0.3,0-0.7,0-1.1c0-0.7-0.1-1.4-0.1-2.1c0-0.2-0.2-0.4-0.4-0.4
		C158.7,161.8,158.5,162.1,158.5,162.2z"/>
	<path class="st7" d="M158,171.7c-0.2,1.2-0.3,2.5-0.2,3.7c0,0.3,0.3,0.6,0.6,0.6c0.3,0,0.6-0.3,0.6-0.6c0.1-1.2-0.1-2.5-0.2-3.7
		C158.8,171.2,158.1,171.2,158,171.7z"/>
	<path class="st7" d="M158.3,180.2c0,0.4-0.1,0.8-0.2,1.1c-0.1,0.4-0.1,0.8-0.1,1.1c0,0.8-0.1,1.5,0,2.3c0.1,0.8,1.1,0.8,1.2,0
		c0.1-0.8,0-1.5,0-2.3c0-0.4-0.1-0.8-0.1-1.1c-0.1-0.4-0.2-0.8-0.2-1.1C159.1,179.7,158.4,179.7,158.3,180.2z"/>
	<path class="st7" d="M158.6,190.2c0.1,0.5,0.1,1.1,0.1,1.7c0,0.3,0.1,0.5,0.1,0.8c0,0.2,0.1,0.3,0.1,0.4c0,0.2,0.1,0.4,0.2,0.6
		c0.1,0.2,0.4,0.3,0.7,0.3c0.3-0.1,0.4-0.3,0.4-0.5c0.1-0.3,0-0.6-0.1-0.9c-0.1-0.3-0.1-0.5-0.2-0.8c-0.2-0.5-0.3-1.1-0.4-1.6
		C159.4,189.6,158.5,189.7,158.6,190.2z"/>
	<path class="st7" d="M160.1,198.7c0,0.4,0,0.8,0,1.2c0,0.4,0,0.8,0.1,1.2c0,0.4,0.1,0.8,0.2,1.2c0.1,0.4,0.1,0.9,0.2,1.3
		c0.2,0.8,1.3,0.6,1.4-0.2c0-0.4-0.1-0.9-0.2-1.3c-0.1-0.4-0.2-0.8-0.2-1.2c-0.1-0.4-0.2-0.8-0.2-1.2c-0.1-0.4-0.2-0.8-0.3-1.2
		C160.8,198.1,160,198.2,160.1,198.7z"/>
	<path class="st7" d="M164,241.3c0,0.5,0,0.9,0,1.3c0,0.4,0,0.9,0,1.3s0,0.9,0.1,1.3c0,0.5,0.1,0.9,0.2,1.4c0.1,0.3,0.3,0.4,0.5,0.4
		c0.3,0,0.5-0.2,0.5-0.4c0.1-0.5,0.1-0.9,0-1.4c-0.1-0.5-0.2-0.9-0.2-1.4c-0.1-0.4-0.2-0.9-0.2-1.3c-0.1-0.4-0.2-0.8-0.3-1.3
		c0-0.2-0.2-0.4-0.4-0.4C164.1,241,164,241.1,164,241.3z"/>
	<path class="st7" d="M164.1,252c-0.1,0.3-0.2,0.7-0.2,1c-0.1,0.3-0.1,0.7-0.1,1.1c0,0.3,0,0.7,0,1c0,0.4-0.1,0.8,0.2,1.2
		c0.2,0.4,0.8,0.4,1,0c0.2-0.3,0.2-0.8,0.2-1.1c0-0.3,0-0.7,0-1.1c0-0.3,0-0.7-0.1-1c-0.1-0.3-0.2-0.7-0.2-1.1
		C164.8,251.5,164.1,251.5,164.1,252z"/>
	<path class="st7" d="M131.1,45c2.5-2.3,4.3-5.4,5.8-8.3c1.5-3,2.7-6.2,3.4-9.6c0.2-0.6-0.8-0.9-0.9-0.3c-0.8,3.3-1.8,6.4-3.4,9.4
		s-3.4,5.6-5.4,8.2C130.3,44.8,130.8,45.3,131.1,45z"/>
	<path class="st7" d="M136.5,26.6c-0.4,2-1.6,3.7-2.7,5.3c-1,1.6-2.1,3.2-3.4,4.7c-2.4,3-5.1,5.6-8.1,8c-0.5,0.4,0.2,1.3,0.7,0.9
		c3.2-2.5,6.1-5.3,8.6-8.4c1.2-1.5,2.4-3.2,3.4-4.9c1-1.7,2-3.4,2.1-5.4C137.1,26.4,136.6,26.3,136.5,26.6z"/>
	<path class="st7" d="M130.3,30.4c-2.1,3.4-4.6,6.7-7.4,9.6c-1.5,1.5-2.8,2.8-4.4,4c-0.8,0.7-1.6,1.3-2.5,1.8
		c-0.8,0.5-1.7,1-2.5,1.6c-0.5,0.5,0.2,1.1,0.7,0.9c0.9-0.4,1.8-1.1,2.7-1.7c0.8-0.5,1.5-1.1,2.4-1.8c1.6-1.3,3.1-2.7,4.5-4.1
		c2.8-3,5.1-6.3,7-10C131,30.4,130.5,30,130.3,30.4z"/>
	<path class="st5" d="M100.7,152.7c1.5,0,2.7-1.2,2.7-2.7c0-1.5-1.2-2.7-2.7-2.7c-1.5,0-2.7,1.2-2.7,2.7
		C98,151.5,99.3,152.7,100.7,152.7z"/>
	<path class="st5" d="M155.5,152c1.5,0,2.7-1.2,2.7-2.7c0-1.5-1.2-2.7-2.7-2.7c-1.5,0-2.7,1.2-2.7,2.7
		C152.7,150.9,153.9,152,155.5,152z"/>
</g>
</svg>
