<svg id="Layer_1" data-name="Layer 1" xmlns="http://www.w3.org/2000/svg" viewBox="0 0 1701.96 1143.19"><defs><style>.cls-1{fill:#fed46e;}</style></defs><path class="cls-1" d="M1511-51.79c6.3,9,20.89-1.22,14.58-10.22S1504.71-60.79,1511-51.79Z" transform="translate(-26.34 122.27)"/><path class="cls-1" d="M1544.14-70.66c6.3,9,20.89-1.23,14.58-10.23S1537.83-79.66,1544.14-70.66Z" transform="translate(-26.34 122.27)"/><path class="cls-1" d="M1503.47-84.13c6.29,9,20.89-1.22,14.58-10.22S1497.16-93.13,1503.47-84.13Z" transform="translate(-26.34 122.27)"/><path class="cls-1" d="M1477.24-60.44c6.3,9,20.9-1.22,14.59-10.22S1470.94-69.44,1477.24-60.44Z" transform="translate(-26.34 122.27)"/><path class="cls-1" d="M1487-24.31c6.3,9,20.89-1.22,14.59-10.22S1480.64-33.31,1487-24.31Z" transform="translate(-26.34 122.27)"/><path class="cls-1" d="M1518.68-18.57c6.3,9,20.9-1.22,14.59-10.22S1512.38-27.57,1518.68-18.57Z" transform="translate(-26.34 122.27)"/><path class="cls-1" d="M1545.49-34.95c6.3,9,20.9-1.22,14.59-10.22S1539.19-43.95,1545.49-34.95Z" transform="translate(-26.34 122.27)"/><path class="cls-1" d="M1580.64-56.69c6.3,9,20.89-1.22,14.58-10.22S1574.33-65.69,1580.64-56.69Z" transform="translate(-26.34 122.27)"/><path class="cls-1" d="M1564.73-104.74a6.61,6.61,0,0,0-1.34,3.09,6.36,6.36,0,0,0,.07,3.3,6.15,6.15,0,0,0,1.26,3.13l1.56,1.68a8.44,8.44,0,0,0,4,1.76l2.24.06a9.21,9.21,0,0,0,4.35-1.63l.68-.47a7,7,0,0,0,2.39-2.57,6.79,6.79,0,0,0,1.33-3.09,6.25,6.25,0,0,0-.07-3.3,6,6,0,0,0-1.26-3.13l-1.56-1.68a8.34,8.34,0,0,0-4-1.76l-2.24-.06a9.11,9.11,0,0,0-4.35,1.63l-.68.47A6.89,6.89,0,0,0,1564.73-104.74Z" transform="translate(-26.34 122.27)"/><path class="cls-1" d="M1534.2-108.56c6.3,9,20.89-1.23,14.58-10.23S1527.89-117.57,1534.2-108.56Z" transform="translate(-26.34 122.27)"/><path class="cls-1" d="M1489.74-105.87c6.3,9,20.89-1.22,14.58-10.22S1483.43-114.87,1489.74-105.87Z" transform="translate(-26.34 122.27)"/><path class="cls-1" d="M1457.08-83.46c6.3,9,20.89-1.22,14.58-10.22S1450.77-92.46,1457.08-83.46Z" transform="translate(-26.34 122.27)"/><path class="cls-1" d="M1459.49-35.45c6.3,9,20.89-1.23,14.58-10.23S1453.18-44.46,1459.49-35.45Z" transform="translate(-26.34 122.27)"/><path class="cls-1" d="M1493.82,5.61c6.3,9,20.89-1.22,14.58-10.22S1487.51-3.39,1493.82,5.61Z" transform="translate(-26.34 122.27)"/><path class="cls-1" d="M1540.74-3.63c6.3,9,20.89-1.23,14.58-10.23S1534.43-12.63,1540.74-3.63Z" transform="translate(-26.34 122.27)"/><path class="cls-1" d="M1574.43-22.42c6.3,9,20.89-1.22,14.58-10.22S1568.12-31.42,1574.43-22.42Z" transform="translate(-26.34 122.27)"/><path class="cls-1" d="M1690.69,174c-6.34-33.35-35.27-59.42-51.19-89a130.74,130.74,0,0,0,20.3,93.25C1667.86,194.61,1690.25,195.12,1690.69,174Z" transform="translate(-26.34 122.27)"/><path class="cls-1" d="M1699.16,142.3c36.47-16.58-30.24-82.45-40-105.5C1653.4,65.85,1664,137.71,1699.16,142.3Z" transform="translate(-26.34 122.27)"/><path class="cls-1" d="M1561.17,57c-10,7.51-9,24.9,5.54,25.11,33.55-5,64.38-24.54,90.6-45.43C1626.34,46.47,1587.24,32.86,1561.17,57Z" transform="translate(-26.34 122.27)"/><path class="cls-1" d="M1541.53,105.13c-5.11,4.6-9.21,12.44-5.51,19,19.15,20.9,83.8-25.12,101.66-39.37C1606.81,94.63,1567.34,81.09,1541.53,105.13Z" transform="translate(-26.34 122.27)"/><path class="cls-1" d="M1574.33,147.46c-73.44,56.18,12.71,100.14,55.46-45.73Z" transform="translate(-26.34 122.27)"/><path class="cls-1" d="M1719,89c34.72-19.93-38-79.19-49.9-101.17C1665.85,16.57,1684.19,88.68,1719,89Z" transform="translate(-26.34 122.27)"/><path class="cls-1" d="M1594,38.2a230.52,230.52,0,0,0,73.26-50.32C1637.52.56,1596.73-9,1573.48,17.29,1558.11,33.94,1577,48.77,1594,38.2Z" transform="translate(-26.34 122.27)"/><path class="cls-1" d="M1672.73-43.63c-9.57,80.05-42.59,157.05-97.24,216.72,50.09-38.94,99.17-150.81,97.24-216.72Z" transform="translate(-26.34 122.27)"/><path class="cls-1" d="M1560.44,116c97.52-23.88,63.38-58.61,92.71,16.28,2.22,4,17.29,38.25,19.35,31-60.43-97.45,8.31-92.43-112.06-47.31Z" transform="translate(-26.34 122.27)"/><path class="cls-1" d="M1691.07,116.59c-10.49-27.22-26.55-52.51-32.8-81.5-25.86,9.54-56.42,18.26-84.52,25.53-1.44.38-.65,2.54.77,2.17,27.71-8.46,57.48-13,83.32-26.37l-1.74-.55C1663.4,63.13,1677.24,95.79,1691.07,116.59Z" transform="translate(-26.34 122.27)"/><path class="cls-1" d="M1592,22.82c27.89-6.91,52.49-22.49,77.72-35.64l-1.73-.55A491.52,491.52,0,0,0,1707.22,66c.77,1.25,2.64-.06,1.87-1.32-63.48-102.79-4.49-88-117.08-41.82Z" transform="translate(-26.34 122.27)"/><path class="cls-1" d="M74.94,54.78c-5.14,0-5.15,8,0,8S80.09,54.78,74.94,54.78Z" transform="translate(-26.34 122.27)"/><path class="cls-1" d="M73.28,71.8c-5.14,0-5.15,8,0,8S78.42,71.8,73.28,71.8Z" transform="translate(-26.34 122.27)"/><path class="cls-1" d="M89.37,60.33c-5.14,0-5.15,8,0,8S94.52,60.33,89.37,60.33Z" transform="translate(-26.34 122.27)"/><path class="cls-1" d="M87.34,44.61c-5.14,0-5.15,8,0,8S92.48,44.61,87.34,44.61Z" transform="translate(-26.34 122.27)"/><path class="cls-1" d="M70.87,38.87c-5.14,0-5.15,8,0,8S76,38.87,70.87,38.87Z" transform="translate(-26.34 122.27)"/><path class="cls-1" d="M60.14,49c-5.14,0-5.14,8,0,8S65.29,49,60.14,49Z" transform="translate(-26.34 122.27)"/><path class="cls-1" d="M59.22,63.1c-5.14,0-5.15,8,0,8S64.36,63.1,59.22,63.1Z" transform="translate(-26.34 122.27)"/><path class="cls-1" d="M58.11,81.6c-5.14,0-5.15,8,0,8S63.25,81.6,58.11,81.6Z" transform="translate(-26.34 122.27)"/><path class="cls-1" d="M80.81,88.13A3.58,3.58,0,0,0,78.7,86a3,3,0,0,0-1.54-.35l-1.06.14a4,4,0,0,0-1.76,1l-.63.81a3.93,3.93,0,0,0-.54,2V90a3,3,0,0,0,.34,1.54,3.58,3.58,0,0,0,2.11,2.11,3,3,0,0,0,1.54.35l1.06-.15a3.86,3.86,0,0,0,1.76-1l.63-.81a3.94,3.94,0,0,0,.54-2v-.37A3,3,0,0,0,80.81,88.13Z" transform="translate(-26.34 122.27)"/><path class="cls-1" d="M90.48,77.9c-5.14,0-5.15,8,0,8S95.63,77.9,90.48,77.9Z" transform="translate(-26.34 122.27)"/><path class="cls-1" d="M101.39,60.88c-5.13,0-5.14,8,0,8S106.54,60.88,101.39,60.88Z" transform="translate(-26.34 122.27)"/><path class="cls-1" d="M101.58,43.13c-5.14,0-5.15,8,0,8S106.73,43.13,101.58,43.13Z" transform="translate(-26.34 122.27)"/><path class="cls-1" d="M82.53,31.66c-5.14,0-5.15,8,0,8S87.67,31.66,82.53,31.66Z" transform="translate(-26.34 122.27)"/><path class="cls-1" d="M57.55,33.69c-5.14,0-5.14,8,0,8S62.7,33.69,57.55,33.69Z" transform="translate(-26.34 122.27)"/><path class="cls-1" d="M48.49,53.3c-5.14,0-5.15,8,0,8S53.63,53.3,48.49,53.3Z" transform="translate(-26.34 122.27)"/><path class="cls-1" d="M46.64,70.5c-5.14,0-5.15,8,0,8S51.78,70.5,46.64,70.5Z" transform="translate(-26.34 122.27)"/><path class="cls-1" d="M93.51,157.3c-10.73,0-10.75,16.33,0,16.33S104.26,157.3,93.51,157.3Z" transform="translate(-26.34 122.27)"/><path class="cls-1" d="M90,192.1c-10.73,0-10.74,16.33,0,16.33S100.78,192.1,90,192.1Z" transform="translate(-26.34 122.27)"/><path class="cls-1" d="M123.65,168.65c-10.73,0-10.75,16.33,0,16.33S134.4,168.65,123.65,168.65Z" transform="translate(-26.34 122.27)"/><path class="cls-1" d="M119.4,136.49c-10.73,0-10.75,16.33,0,16.33S130.15,136.49,119.4,136.49Z" transform="translate(-26.34 122.27)"/><path class="cls-1" d="M85,124.77c-10.73,0-10.75,16.33,0,16.33S95.76,124.77,85,124.77Z" transform="translate(-26.34 122.27)"/><path class="cls-1" d="M62.6,145.57c-10.73,0-10.75,16.33,0,16.33S73.35,145.57,62.6,145.57Z" transform="translate(-26.34 122.27)"/><path class="cls-1" d="M60.67,174.32c-10.73,0-10.75,16.33,0,16.33S71.42,174.32,60.67,174.32Z" transform="translate(-26.34 122.27)"/><path class="cls-1" d="M58.35,212.15c-10.73,0-10.75,16.33,0,16.33S69.1,212.15,58.35,212.15Z" transform="translate(-26.34 122.27)"/><path class="cls-1" d="M105.77,225.49a6.12,6.12,0,0,0-1.73-2.63,6.32,6.32,0,0,0-2.68-1.69,6.4,6.4,0,0,0-3.21-.7l-2.22.29a8.43,8.43,0,0,0-3.68,2.1L91,224.52a7.87,7.87,0,0,0-1.14,4.12v.75a9,9,0,0,0,2.44,5.78,6.23,6.23,0,0,0,2.69,1.68,6.31,6.31,0,0,0,3.21.71l2.21-.29a8.37,8.37,0,0,0,3.68-2.1l1.31-1.66a8.06,8.06,0,0,0,1.14-4.12v-.75A6.09,6.09,0,0,0,105.77,225.49Z" transform="translate(-26.34 122.27)"/><path class="cls-1" d="M126,204.58c-10.74,0-10.75,16.33,0,16.33S136.71,204.58,126,204.58Z" transform="translate(-26.34 122.27)"/><path class="cls-1" d="M148.76,169.78c-10.73,0-10.75,16.33,0,16.33S159.51,169.78,148.76,169.78Z" transform="translate(-26.34 122.27)"/><path class="cls-1" d="M149.15,133.47c-10.73,0-10.75,16.33,0,16.33S159.9,133.47,149.15,133.47Z" transform="translate(-26.34 122.27)"/><path class="cls-1" d="M109.35,110c-10.73,0-10.75,16.33,0,16.33S120.1,110,109.35,110Z" transform="translate(-26.34 122.27)"/><path class="cls-1" d="M57.19,114.17c-10.73,0-10.74,16.33,0,16.33S67.94,114.17,57.19,114.17Z" transform="translate(-26.34 122.27)"/><path class="cls-1" d="M38.26,154.27c-10.73,0-10.75,16.33,0,16.33S49,154.27,38.26,154.27Z" transform="translate(-26.34 122.27)"/><path class="cls-1" d="M34.4,189.45c-10.73,0-10.75,16.33,0,16.33S45.15,189.45,34.4,189.45Z" transform="translate(-26.34 122.27)"/><path class="cls-1" d="M1453.26,989.82c-9.48,2.06-18.87-3.08-33.88-15.7-29.7-24.94-83,1.55-122.94-59.15s16-117.09,16-117.09S1366,739.11,1428.58,776s38.85,91.4,65.26,119.8c13.38,14.37,19,23.5,17.38,33.06-1.56,9.34-10,19.1-24.68,34.57S1462.49,987.81,1453.26,989.82Z" transform="translate(-26.34 122.27)"/><path class="cls-1" d="M1511.22,928.87c.42.17,1.94,1,5.37,5.55a21.74,21.74,0,0,1,3.47,14.41,10.06,10.06,0,0,1-1.94,4.7c-3.7,4.71-9.64,11.63-19.2,21.68s-16.17,16.34-20.69,20.27a10.36,10.36,0,0,1-5.24,2.28,21.94,21.94,0,0,1-13.91-2.86c-4.7-3.19-5.65-4.67-5.82-5.08,9.23-2,18.56-10.9,33.28-26.38S1509.66,938.21,1511.22,928.87Z" transform="translate(-26.34 122.27)"/><path class="cls-1" d="M1538.89,965s6-1.78,5.47,5.2c0,0-.31,1.19-4.88,6.74-3.27,4-8.77,10.2-17.92,19.81s-15.08,15.43-18.88,18.89c-5.3,4.84-6.48,5.2-6.48,5.2-7,.89-5.47-5.2-5.47-5.2l-3.32-3.16c-6.89.5-5.78-5.5-5.78-5.5l-2.89-2.74c-6.35-.62-5.73-5.46-5.73-5.46l0-1a10.36,10.36,0,0,0,5.24-2.28c4.52-3.93,11.13-10.22,20.69-20.27s15.5-17,19.2-21.68a10.06,10.06,0,0,0,1.94-4.7l1.1-.7s4.81-.85,5.74,5.46l2.88,2.74s5.94-1.41,5.79,5.5Z" transform="translate(-26.34 122.27)"/><path class="cls-1" d="M1539.48,976.93s7.49,8.54-10.2,27.15-26.6,11.55-26.6,11.55c3.8-3.46,9.74-9.27,18.88-18.89S1536.21,980.9,1539.48,976.93Z" transform="translate(-26.34 122.27)"/><path class="cls-1" d="M1472.14,998.13a14.2,14.2,0,0,0,5.91-2.79q3-2.05,5.92-4.18c3.91-2.85,7.75-5.79,11.45-8.91a101.77,101.77,0,0,0,18.63-20c2.74-4,5.5-8.38,7-13,.25-.82-1-1.24-1.38-.5a120.64,120.64,0,0,1-6,11.15,82.62,82.62,0,0,1-7.9,10.17,139.06,139.06,0,0,1-21,18.41c-4.14,3.06-8.31,6.46-12.92,8.78-.4.2-.18.92.26.85Z" transform="translate(-26.34 122.27)"/><path class="cls-1" d="M1479.4,1004.08c4.1-2.31,7.8-5.45,11.46-8.38s7.21-5.93,10.65-9.08a130.7,130.7,0,0,0,17.87-19.74,85.43,85.43,0,0,0,7.57-12.31.8.8,0,0,0-1.42-.73A111.65,111.65,0,0,1,1510.71,975a172.54,172.54,0,0,1-19.87,18.64c-4,3.24-8.31,6.17-12,9.73-.37.37.15.91.57.68Z" transform="translate(-26.34 122.27)"/><path class="cls-1" d="M1482.05,1007.1c4.48-1.45,8-4.67,11.69-7.54,3.82-3,7.62-6,11.3-9.22a111.2,111.2,0,0,0,18.61-20,66,66,0,0,0,7.2-13c.37-.9-1-1.61-1.36-.7-7.26,16.78-20.82,29.11-34.87,40.26q-3.11,2.46-6.23,4.89a27.86,27.86,0,0,1-6.62,4.35c-.57.22-.31,1.1.28.9Z" transform="translate(-26.34 122.27)"/><path class="cls-1" d="M1487.63,1012.29c16-8.54,29.8-21.82,40.36-36.5a118,118,0,0,0,8.32-13.12.82.82,0,0,0-1.46-.76,141.18,141.18,0,0,1-15.61,22.35,130.6,130.6,0,0,1-19.59,18.38c-4.05,3.1-8.29,6-12.56,8.8a.5.5,0,0,0,.54.85Z" transform="translate(-26.34 122.27)"/><path class="cls-1" d="M1491.5,1015.28a101.17,101.17,0,0,0,21.82-15.73,121.09,121.09,0,0,0,17.66-20.3,108.67,108.67,0,0,0,8-13.31.72.72,0,0,0-1.27-.66,127.37,127.37,0,0,1-14.94,22.4,121.07,121.07,0,0,1-19.25,18.27c-4,3-8.27,5.79-12.53,8.49-.55.35,0,1.13.54.84Z" transform="translate(-26.34 122.27)"/><path class="cls-1" d="M1496.59,1020.33c8.42-4.2,15.63-10.59,22.33-17.11a180.3,180.3,0,0,0,18.24-19.94,56,56,0,0,0,7.56-12.47c.37-.95-1-1.69-1.45-.74a82.66,82.66,0,0,1-6.67,11.14,120.4,120.4,0,0,1-8.15,9.74,197.41,197.41,0,0,1-19.75,19.27,140,140,0,0,1-12.67,9.24.52.52,0,0,0,.56.87Z" transform="translate(-26.34 122.27)"/><path class="cls-1" d="M1503.8,945.41c5.34-7.85,10.54-17.45,8.22-27.26-1.38-5.85-5.46-10.41-9.63-14.51-4.32-4.26-8.54-8.4-11.75-13.6-6.14-9.95-8.82-21.55-11.14-32.88-2.35-11.5-4.33-23.14-8.69-34.1a101.15,101.15,0,0,0-45.68-51.57,79.56,79.56,0,0,0-30.71-9.39c-11.66-1-23.5,1.31-34.57,4.88-22.24,7.16-42.53,20.92-56.66,39.61a103.88,103.88,0,0,0-20.8,57.07,92.94,92.94,0,0,0,16.6,58.43c12.13,17.16,30,30,50.45,35.13,19.51,4.86,40.64,3.51,59.27,11.77a63.78,63.78,0,0,1,12.66,7.67c3.94,3,7.74,6.15,11.89,8.85a33,33,0,0,0,13,5.42,25.78,25.78,0,0,0,14.86-2.43,40.26,40.26,0,0,0,12.28-9.52c.74-.8-.51-1.94-1.26-1.14-7,7.57-17.36,13.31-27.85,10.63-9.32-2.38-16.44-9.71-24-15.15-7.89-5.63-16.8-9-26.24-11-9.65-2.07-19.5-2.9-29.26-4.27-10-1.41-19.88-3.49-29.12-7.72a86.74,86.74,0,0,1-25.21-17.72,89.93,89.93,0,0,1-25.67-54.21,101.12,101.12,0,0,1,11.81-57.79c10.73-19.79,28.12-35.48,48.25-45.36a113.47,113.47,0,0,1,33.13-10.47,71,71,0,0,1,32.73,2.72c21.43,7,39.66,22.78,51.18,42a108.33,108.33,0,0,1,12.43,32.23c2.55,11.25,4.18,22.75,7.7,33.77a71.37,71.37,0,0,0,6.57,15,65,65,0,0,0,11,13.14c4.28,4.15,8.87,8.54,10.54,14.47,1.3,4.62.59,9.49-1,14a63.71,63.71,0,0,1-6.56,12.74c-.52.8.78,1.44,1.3.67Z" transform="translate(-26.34 122.27)"/><path class="cls-1" d="M1326.85,933.21c-4.18-2.51-7.79-6.13-11.08-9.69a93.82,93.82,0,0,1-8.81-11,95,95,0,0,1-12.22-25.33,93.62,93.62,0,0,1-3.38-15.63c-.16-1.24-2.11-1.18-1.95.07a94.47,94.47,0,0,0,23.94,52c3.81,4.17,8,7.95,13.05,10.46a.49.49,0,0,0,.45-.86Z" transform="translate(-26.34 122.27)"/><path class="cls-1" d="M1311.47,909.6c-.26-.57-.4-1.19-.65-1.78s-.44-1-.66-1.49l-1.47-3.24c-.48-1.06-1-2.11-1.49-3.17a21.45,21.45,0,0,0-1.69-3.35.88.88,0,0,0-1.57.73,21.21,21.21,0,0,0,1.56,3.22c.55,1.09,1.11,2.18,1.69,3.26l1.62,3c.28.52.56,1,.85,1.56s.73,1,1,1.6,1,.09.77-.36Z" transform="translate(-26.34 122.27)"/><path class="cls-1" d="M1443.51,793.39c2.84,3.71,5.44,7.7,7.9,11.66a133.61,133.61,0,0,1,6.84,12.33,129,129,0,0,1,9.41,26.48c.6,2.57,1.13,5.15,1.56,7.75s.68,5.26,1.2,7.85c.2,1,1.73.67,1.72-.29a49.83,49.83,0,0,0-.85-7.19c-.39-2.34-.83-4.67-1.35-7a126,126,0,0,0-3.88-13.76,124.44,124.44,0,0,0-12.2-25.66c-1.42-2.27-2.93-4.49-4.52-6.64s-3.34-4.14-5.08-6.18c-.35-.42-1.09.19-.75.63Z" transform="translate(-26.34 122.27)"/><path class="cls-1" d="M1432.39,789.84c.47,6,4.95,10.73,8.84,15.26a124,124,0,0,1,23.78,42c3.19,9.65,5.18,20,3.1,29.94-3.27,15.72-16.31,28.74-17.37,44.62l-1.31.45a123.86,123.86,0,0,1-29.91-45.54,83.15,83.15,0,0,1-5.26-21.51c-1.79-20,6.07-39.44,13.82-57.94C1429.19,794.52,1430.34,791.82,1432.39,789.84Z" transform="translate(-26.34 122.27)"/><path class="cls-1" d="M1496.06,904.85s23.25,18.22-10.71,53.93-54.45,14.6-54.45,14.6c10.62-19.16,29.33-18.93,49.3-38.32S1496.06,904.85,1496.06,904.85Z" transform="translate(-26.34 122.27)"/><path class="cls-1" d="M1391.16,848.15a72.43,72.43,0,0,1,11.21,13.43,109,109,0,0,1,7,13.76l14.44,32-.09.27q-16.93-5.6-33.83-11.32c-10.26-3.49-20.56-7-30.2-11.95-9-4.64-17.59-10.61-23.9-18.58-10.9-13.81-14-32-21.36-48,13.28,1.57,26.64,3.35,39.3,7.66A102.12,102.12,0,0,1,1391.16,848.15Z" transform="translate(-26.34 122.27)"/><path class="cls-1" d="M1371.39,905.63a171.61,171.61,0,0,1,72,20.53c-5.45,3.32-10.59,7.14-16.09,10.42-17.44,10.43-39.21,15.09-58.48,8.54-17.78-6-31.44-20.67-48.79-27.83,10.54-4.81,21.32-9.51,32.79-11.15A93,93,0,0,1,1371.39,905.63Z" transform="translate(-26.34 122.27)"/><path class="cls-1" d="M1413.69,964.73a49.35,49.35,0,0,1,13.23,6.6c4.13,2.73,8.18,5.71,12.8,7.58,9.91,4,20.33.94,29.12-4.35a83.28,83.28,0,0,0,25.75-24.84c6.27-9.32,11.9-20.6,9.61-32.15-1.28-6.43-5.34-11.24-10-15.64s-10.06-8.7-12.79-14.7c-.4-.87-1.84-.44-1.44.44,2.25,5,6.11,9,10.07,12.7s8.39,7.79,10.66,13c4.69,10.69,0,22.41-5.66,31.71a83.21,83.21,0,0,1-24.36,25.79c-8.28,5.58-18.64,10-28.65,6.69-5.09-1.69-9.49-5-13.91-7.93s-9.07-5.79-14.35-6.24c-.82-.07-.82,1.15-.12,1.36Z" transform="translate(-26.34 122.27)"/><path class="cls-1" d="M1331.63,830.73c23.25,9,41.89,26.32,58.77,44.16,9.29,9.82,18.25,20,27.94,29.42a258.24,258.24,0,0,0,25.06,21.17c9.06,6.84,18.37,13.57,28.42,18.9a.72.72,0,0,0,.66-1.29A240.18,240.18,0,0,1,1447,926a252.72,252.72,0,0,1-24.59-20.55c-18.89-18.13-35.07-39-55.42-55.62-10.51-8.56-22.11-15.76-35-20.15-.58-.2-1,.8-.37,1Z" transform="translate(-26.34 122.27)"/><path class="cls-1" d="M1346.84,918.39c3.24-.1,6.53,0,9.78.07s6.38.1,9.57.24q9.76.43,19.45,1.7c13,1.7,25.66,5.27,38.72,6.34,7.38.6,14.8.6,22.2.59,1.12,0,1-1.74-.07-1.74-6.65,0-13.3,0-19.94-.41a152.82,152.82,0,0,1-20.09-2.88,256.6,256.6,0,0,0-38.14-5.11c-3.58-.16-7.17-.26-10.76-.22s-7.16.36-10.75.59a.42.42,0,0,0,0,.83Z" transform="translate(-26.34 122.27)"/><path class="cls-1" d="M1452.61,930.46c-.89-3.84-2.29-7.61-3.44-11.39s-2.23-7.61-3.22-11.45c-2-7.74-3.77-15.54-5.18-23.41a290.91,290.91,0,0,1-4.43-47.68c-.1-9,.3-17.9.91-26.83.07-1-1.65-1.16-1.74-.16a271.58,271.58,0,0,0,0,48.14,292.42,292.42,0,0,0,8,47.47c1.11,4.34,2.35,8.64,3.67,12.92a90.53,90.53,0,0,0,4.6,12.75c.23.47.89.09.79-.36Z" transform="translate(-26.34 122.27)"/><path class="cls-1" d="M1336.69,855.32c14.39.42,28.36,3.78,42.23,7.34a.74.74,0,0,0,.85-.93c-2.09-5.3-4.34-10.54-6.85-15.66a151,151,0,0,0-8.28-15.21.76.76,0,0,0-1.28.81c2.73,4.94,5.56,9.79,8.05,14.86s4.87,10.33,7,15.63l.86-.92c-13.91-3.54-28.12-7.32-42.58-6.78a.43.43,0,0,0,0,.86Z" transform="translate(-26.34 122.27)"/><path class="cls-1" d="M1367,881.45c6.79,1.25,13.57,2.9,20.27,4.58s13.37,3.65,19.94,5.87c.58.2,1.07-.47.92-1q-2.3-7.68-4.64-15.34-1.15-3.72-2.32-7.44a76.11,76.11,0,0,0-2.55-7.83.71.71,0,0,0-1.36.42,79.51,79.51,0,0,0,2.34,7.66q1.2,3.82,2.38,7.65,2.36,7.66,4.65,15.34l.92-1q-9.85-3.33-19.94-5.86c-3.3-.83-6.62-1.55-10-2.21-3.48-.7-7-1.15-10.48-1.67-.53-.08-.71.72-.18.82Z" transform="translate(-26.34 122.27)"/><path class="cls-1" d="M1360.81,907.47c5.43,3.8,10.93,7.49,16.47,11.14l-.06-1.26c-7.65,4.73-15.36,9.38-22.89,14.31a.83.83,0,0,0,.89,1.4c7.69-4.67,15.21-9.63,22.78-14.48a.75.75,0,0,0,0-1.27c-5.5-3.61-11-7.17-16.6-10.63-.46-.29-1,.47-.54.79Z" transform="translate(-26.34 122.27)"/><path class="cls-1" d="M1382.48,940.06a141.35,141.35,0,0,1,31.82-15.25.74.74,0,0,0,.12-1.35c-6-4.06-11.87-8.33-17.48-12.89-.71-.58-1.67.47-1,1.06,5.73,4.65,11.61,9,17.77,13.13l.12-1.35A124.59,124.59,0,0,0,1382,939.24a.49.49,0,0,0,.52.82Z" transform="translate(-26.34 122.27)"/><path class="cls-1" d="M1421.87,874.16c6.5,6.82,13.31,13.3,20.32,19.59a.75.75,0,0,0,1.22-.39,28.23,28.23,0,0,1,3.13-8.43c1.55-3,3.17-6,4.76-9,3.27-6.18,6.67-12.31,9.8-18.57a.77.77,0,0,0-1.36-.7c-3.48,6.24-6.71,12.63-10,18.94-1.58,3-3.19,5.94-4.71,8.94a28,28,0,0,0-3,8.5l1.21-.39c-7-6.25-13.88-12.71-20.66-19.22-.46-.44-1.08.27-.65.72Z" transform="translate(-26.34 122.27)"/><path class="cls-1" d="M1416.69,834.53a168.48,168.48,0,0,1,19,22,.81.81,0,0,0,1.38-.07c2-4.54,4.08-9.08,6.11-13.62s4.26-9.05,6.1-13.68c.36-.89-.91-1.6-1.36-.7-2.23,4.45-4.12,9.11-6.17,13.65s-4.09,9.07-6.1,13.62l1.39-.06a143.82,143.82,0,0,0-19.66-21.88c-.48-.43-1.13.3-.67.75Z" transform="translate(-26.34 122.27)"/><path class="cls-1" d="M103.75,734.18l-4.81-3c.8-8.68,3.52-10.18,3.52-10.18L303.07,845.07s-.13,3.11-7.55,7.69l-53.6-33.15-7.51,4.12L152.22,772.9l.34-8.54Z" transform="translate(-26.34 122.27)"/><path class="cls-1" d="M269.85,898.15c-5.15,7-9.51-1.45-14.91-4.4l30.17-37.08,2.26,10.57Z" transform="translate(-26.34 122.27)"/><path class="cls-1" d="M290.71,849.79c-21,26.07-63.38,77.7-84.76,104.16a15.58,15.58,0,0,1-20.28,3.42L120.06,916.8,54.43,876.22a15.59,15.59,0,0,1-6-19.66c14.3-31.1,41.29-91.73,55.31-122.38l23.3,14.4L71.42,864,189,936.72l78.4-101.33Z" transform="translate(-26.34 122.27)"/><path class="cls-1" d="M267.42,835.39,189,936.72,71.42,864l55.63-115.42,25.51,15.78-.34,8.54,82.19,50.83,7.51-4.12Z" transform="translate(-26.34 122.27)"/><path class="cls-1" d="M100.1,742.27,80.41,785.82c-5-3.49-14.52-3.68-10.61-11.37L89.64,745Z" transform="translate(-26.34 122.27)"/><path class="cls-1" d="M99.28,731.85c17.42,9.59,37.54,25.45,53.63,32C135.5,754.29,115.37,738.42,99.28,731.85Z" transform="translate(-26.34 122.27)"/><path class="cls-1" d="M243.79,821.21c16.65,9.11,36,24.5,51.32,30.6C278.47,842.7,259.11,827.3,243.79,821.21Z" transform="translate(-26.34 122.27)"/><path class="cls-1" d="M152.6,773.85c26.87,15.44,56.44,37.12,82,49.56C207.72,808,178.14,786.28,152.6,773.85Z" transform="translate(-26.34 122.27)"/><path class="cls-1" d="M151.75,764.83c.37,1.14-.48,10.79,1.29,8.34-.37-1.14.48-10.79-1.29-8.34Z" transform="translate(-26.34 122.27)"/><path class="cls-1" d="M241,819.77c-.84,1.12-8.89,3.3-6.37,4.19,1-.5,9.34-3.62,6.37-4.19Z" transform="translate(-26.34 122.27)"/><path class="cls-1" d="M104.75,723C170,762.2,238,807.61,301.92,843.8,236.67,804.6,168.68,759.2,104.75,723Z" transform="translate(-26.34 122.27)"/><path class="cls-1" d="M58,843.12A34.66,34.66,0,0,0,52.68,868a.57.57,0,0,0,1.13-.13,37.5,37.5,0,0,1,4.8-24.27c.24-.4-.32-.86-.59-.46Z" transform="translate(-26.34 122.27)"/><path class="cls-1" d="M56,859.91c-.87,1.12-1,10.36,1.07,7.8-1.17-1.36.11-8.87-1.07-7.8Z" transform="translate(-26.34 122.27)"/><path class="cls-1" d="M72,780.62c5.2-9.6,12.22-18.33,21.15-24.7.62-6.78-25.79,24.42-21.15,24.7Z" transform="translate(-26.34 122.27)"/><path class="cls-1" d="M274.18,870.49a71.32,71.32,0,0,1-10.6,27.57c2.21,4.57,14.3-28,10.6-27.57Z" transform="translate(-26.34 122.27)"/><path class="cls-1" d="M247.36,897.26c-13.68,15.38-27.16,30.94-40.78,46.37-.66,1.17-7.37,6.91-4.27,6.53C216.63,933,236,914.1,247.36,897.26Z" transform="translate(-26.34 122.27)"/><path class="cls-1" d="M208.7,935.32c-1.23,1.61-14.15,13-10.43,12.88,1.91-2,3.62-4.17,5.43-6.23.74-1.46,6.43-6,5-6.65Z" transform="translate(-26.34 122.27)"/><path class="cls-1" d="M196,898.94c-20.69,9-16.23,14.76-36.54,1.14l-4.53,7.41-6-25.66,25.6-6.27-4.54,7.4,13.26,8.14-1.43-34.38,20.06-.84C200.69,865.44,208.52,894.21,196,898.94Z" transform="translate(-26.34 122.27)"/><path class="cls-1" d="M207.63,836.28,187.42,853.2l-17.12-20,8.66.71,1.29-15.5L150.2,835.14l-9.78-17.54c9.09-3.31,31.16-23.24,41.08-14.15,17.27,14.41,20.5,7.83,17.47,32.1Z" transform="translate(-26.34 122.27)"/><path class="cls-1" d="M145.08,869.25l-10.56,17.08c-7.32-6.34-35.46-15.92-32.36-29,4.16-22-3.11-21.76,19.55-30.88l-3.58-7.92,24.62,9.41-9.17,24.71L130,844.73l-14.18,6.42Z" transform="translate(-26.34 122.27)"/><path class="cls-1" d="M120.5,829.25c-1.37.36-12.22,3.28-9.19,4.64,1.16-1.16,10.81-3.77,9.19-4.64Z" transform="translate(-26.34 122.27)"/><path class="cls-1" d="M116.86,833.52c-1.06.45-8.56,2-5.76,3.2.72-.69,7.82-2.55,5.76-3.2Z" transform="translate(-26.34 122.27)"/><path class="cls-1" d="M144.48,818.61a219.18,219.18,0,0,1,22.8-11.12c3.74-4.76-26.22,10.64-22.8,11.12Z" transform="translate(-26.34 122.27)"/><path class="cls-1" d="M151.14,817.65c1.2-1.47,12.92-5.14,10.07-6.45-1.26.47-12.88,5.95-10.07,6.45Z" transform="translate(-26.34 122.27)"/><path class="cls-1" d="M169.65,802.64c12.65,2.79,8.75,20.8,8,30.36,2.48,3.65,2.38-13,2.43-14.75-.21-6.54-2.11-16.89-10.53-16.42-.53,0-.42.82.09.81Z" transform="translate(-26.34 122.27)"/><path class="cls-1" d="M129.7,844.64c-10.57,2.81-26.3,10.68-23.1,23.85.32.66,1.52.47,1.33-.34-2.51-12.74,12.45-19,22.07-22.76a.4.4,0,0,0-.3-.75Z" transform="translate(-26.34 122.27)"/><path class="cls-1" d="M169.83,883.44c8.49,5.66,23.49,17.66,32.26,6.93.31-.5-.41-1.08-.75-.57C192.26,900.86,177.71,884.8,169.83,883.44Z" transform="translate(-26.34 122.27)"/><path class="cls-1" d="M184.59,860.67c.23,8.42.62,16.86,1.28,25.25,0,.63,1,.5.95-.11-.9-7.66.17-19.52-2.23-25.14Z" transform="translate(-26.34 122.27)"/><path class="cls-1" d="M187.83,877.62c.28,1.08-.51,8.57,1.32,6.2-.33-1,0-7.75-1.32-6.2Z" transform="translate(-26.34 122.27)"/><path class="cls-1" d="M179.38,197.47c-8.8,6.43-12.73,10.16-14.49,12.24a2.62,2.62,0,0,1-1.79-2.47c-9.39-19-24.72-2.22-37.45-21.14L60.39,95.61c0,.33-8.21-11.19,22.14-33.16C113.46,40.64,120.81,52,120.81,52l65.26,90.49c13.93,18-6.82,27.34,8.24,42.2a2.65,2.65,0,0,1,1.78,2.48C193.51,188.25,188.59,190.88,179.38,197.47Z" transform="translate(-26.34 122.27)"/><path class="cls-1" d="M163.49,212.14c1.8-5.76,29.61-25.7,35.34-25.5l11.38,15.78c-6.85,10-23.51,22.09-35.35,25.49Z" transform="translate(-26.34 122.27)"/><path class="cls-1" d="M192.61,184.89c-3.83.07-34,19.57-28.32,20.92,7.45-8.69,21.31-14.71,28.32-20.92Z" transform="translate(-26.34 122.27)"/><path class="cls-1" d="M197.46,186.55c-5.12-1.67-39.36,23.36-33.34,24.37C172.35,200.07,187.19,191.81,197.46,186.55Z" transform="translate(-26.34 122.27)"/><path class="cls-1" d="M198.67,186.79c1.52,1.48,11.74,18.4,12,14.75q-2.74-3.93-5.58-7.8c-1.31-1.13-5.39-8.78-6.44-7Z" transform="translate(-26.34 122.27)"/><path class="cls-1" d="M210.2,201.87c-8.34,12-21.76,21.11-35.41,26.16a.57.57,0,0,0,.29,1.11c9.51-2.42,35.42-18.63,35.12-27.27Z" transform="translate(-26.34 122.27)"/><path class="cls-1" d="M175.67,228c-1.53-1.42-13.07-19.22-13-15.29,1.9,2.8,3.89,5.52,6,8.19,1.54,1.36,5.68,8.57,7.08,7.1Z" transform="translate(-26.34 122.27)"/><path class="cls-1" d="M209.65,202.14a88.06,88.06,0,0,0-34.82,26c-.42.53.49,1.26.94.74,8.41-11.63,23.81-19.89,33.88-26.73Z" transform="translate(-26.34 122.27)"/><path class="cls-1" d="M207.26,203.29c-1.13-1.82-11.45-19.33-11.8-15.42,4,5.13,7.33,10.69,11.17,15.89.29.37.83-.08.63-.47Z" transform="translate(-26.34 122.27)"/><path class="cls-1" d="M200.87,206.4c-1.35-1.74-11.62-19.09-12.13-15.82,3.91,5.36,7.34,11.13,11.55,16.25.28.31.77-.07.58-.43Z" transform="translate(-26.34 122.27)"/><path class="cls-1" d="M194.55,210.62c-15.39-22.44-18-19.8-.64.47.3.32.89-.09.64-.47Z" transform="translate(-26.34 122.27)"/><path class="cls-1" d="M187.33,215.94c-3.58-5.68-7.36-11.24-11.24-16.71-4.09-2.49,11.79,20.08,11.24,16.71Z" transform="translate(-26.34 122.27)"/><path class="cls-1" d="M182.65,220.69c-1.26-2-11.52-20.2-12.35-16.7,4.13,5.57,7.75,11.49,11.75,17.15.26.35.79-.09.6-.45Z" transform="translate(-26.34 122.27)"/><path class="cls-1" d="M177.39,224.94c-1.9-1.74-11.75-18.87-12.55-15.63,3.74,4.15,8.73,14.18,12.55,15.63Z" transform="translate(-26.34 122.27)"/><path class="cls-1" d="M182.73,176c-4.07-1.88-28.62,16.4-23.68,17.63C165,185.85,175.51,179.67,182.73,176Z" transform="translate(-26.34 122.27)"/><path class="cls-1" d="M140.89,85.38c-7.44-11-15.28-21.73-23.12-32.45-.63-.86-2.1,0-1.46.82,8,9.66,16.3,25,24.58,31.63Z" transform="translate(-26.34 122.27)"/><path class="cls-1" d="M120.12,60.72c-1.77-1.88-3.19-6.68-5.86-6.59-1.27.46,6.45,9.42,5.86,6.59Z" transform="translate(-26.34 122.27)"/><path class="cls-1" d="M133.22,189c-10.63-15.07-21.74-29.79-32.65-44.65-.53-.73-1.78,0-1.24.69,11.25,13.57,22.53,33.59,33.89,44Z" transform="translate(-26.34 122.27)"/></svg>