<svg id="Layer_1" data-name="Layer 1" xmlns="http://www.w3.org/2000/svg" viewBox="0 0 1701.96 1274.25"><defs><style>.cls-1{fill:#ad9c86;}</style></defs><path class="cls-1" d="M1695.47,603.54c36.86,40.62,37.92,101,5,138-27.36,34.35-68.7,52.63-104.55,76.77a462.18,462.18,0,0,0-128.6,130.09c-21,33.09-44.64,75.38-90.37,74.5-52.65-3.67-95.34-52.65-114.36-100C1186.29,724.68,1523.54,431.84,1695.47,603.54Z" transform="translate(-26.34 122.27)"/><path class="cls-1" d="M89.71,1064.93C78.8,1074.8,65.94,1082.2,53,1089.24c-1-19.94-15.32-37.58-16.59-57.65C35.17,1012,47,993.41,62.79,981.84s35.12-17.2,54.24-21.43c-4.76,9.86-4.88,21.27-4.12,32.18s2.25,21.94.42,32.73C110.71,1040.76,101.32,1054.42,89.71,1064.93Z" transform="translate(-26.34 122.27)"/><path class="cls-1" d="M105.55,969a95.67,95.67,0,0,0-20.71,22.07,94.58,94.58,0,0,0-12.06,26.72c-5.46,18.71-7.23,38.44-14.83,56.53a76.61,76.61,0,0,1-7.76,14.26,70.21,70.21,0,0,1-10.94,11.72c-1.22,1.09.31,3.31,1.72,2.36,7.66-5.17,13.34-13.57,17.4-21.72a126.09,126.09,0,0,0,9.38-27.26c4.53-19.09,6.92-39.25,16.93-56.51,5.88-10.12,14-18.52,22.12-26.85a.91.91,0,0,0-1.25-1.32Z" transform="translate(-26.34 122.27)"/><path class="cls-1" d="M48.05,1017.49c2.83,9.42,5.61,19,7.69,28.63a103,103,0,0,1,2.47,29.43,1.38,1.38,0,0,0,2.31,1c5.93-5.57,11.89-11.1,17.84-16.65s12.09-10.91,17.79-16.69a1.52,1.52,0,0,0-2.09-2.2c-6.11,5.34-11.84,11.17-17.73,16.76s-11.77,11.22-17.69,16.8l2.31,1a103.66,103.66,0,0,0-2.54-29.53c-2.16-9.93-5.47-19.38-8.75-29-.34-1-1.93-.64-1.61.4Z" transform="translate(-26.34 122.27)"/><path class="cls-1" d="M66.38,986.91c.08,6.66,1.59,13.35,2.32,20s1.2,13.42,1.39,20.15a1.55,1.55,0,0,0,2.58,1.12A116.32,116.32,0,0,1,87.48,1015c2.71-2,5.52-3.89,8.4-5.64s5.85-3.1,8.66-4.83c1.38-.84.59-3.45-1.09-2.8-6.2,2.41-12.07,6.52-17.4,10.44a110.62,110.62,0,0,0-15.48,13.77l2.57,1.13q-.36-10.37-1.58-20.66c-.78-6.59-1.49-13.59-3.94-19.8-.25-.63-1.24-.31-1.24.31Z" transform="translate(-26.34 122.27)"/><path class="cls-1" d="M122.94,1074.58a85.11,85.11,0,0,0,11.87,2.15,53.7,53.7,0,0,0,10.22-.28,67.08,67.08,0,0,0,20.32-5.88c14.42-6.65,26.15-18.18,34.17-31.78a96.71,96.71,0,0,0,10.69-26.85,1.38,1.38,0,0,0-1.64-1.69,69.55,69.55,0,0,1-13.53.82c-4.36,0-8.73-.2-13.09-.29-8.14-.16-16.36,0-24.29,2.09-7.32,1.92-14.38,5.46-19.33,11.32-5.18,6.13-7.67,13.86-9.61,21.52-1.12,4.43-2.12,8.89-3.38,13.29a67.91,67.91,0,0,1-5.29,13.1,1.41,1.41,0,0,0,2.42,1.46c4.79-6.21,6.68-14.41,8.52-21.88s3.6-15.45,8-22c9.06-13.73,26.72-15.43,41.74-15.31,4.77,0,9.54.19,14.31.07a113.28,113.28,0,0,0,14.23-1.49l-1.65-1.69c-4.3,15.81-11.92,31-23.64,42.57A68.16,68.16,0,0,1,123.38,1073c-1-.18-1.48,1.34-.44,1.57Z" transform="translate(-26.34 122.27)"/><path class="cls-1" d="M111.83,1079.65a120,120,0,0,0,15.6-5.75q7.66-3.6,14.95-7.91a166.15,166.15,0,0,0,26.91-19.61,134.16,134.16,0,0,0,13.48-13.81c.87-1.06-.48-2.62-1.52-1.6a245.27,245.27,0,0,1-24.67,21.79,177.65,177.65,0,0,1-28.49,17.4c-5.57,2.71-11.18,5.48-16.9,7.86-.92.39-.31,1.92.64,1.63Z" transform="translate(-26.34 122.27)"/><path class="cls-1" d="M182,1051.17c-4.79-.27-9.71.58-14.44,1.25-4.91.7-9.72,1.68-14.57,2.67.46.47.92,1,1.39,1.42,4.13-10.13,8.39-20.21,12.59-30.31.54-1.32-1.59-1.9-2.14-.6-4.22,10.1-8.39,20.22-12.67,30.29-.37.86.64,1.57,1.38,1.43,4.76-.89,9.57-1.56,14.36-2.27s9.65-1,14.3-2.2a.86.86,0,0,0-.2-1.68Z" transform="translate(-26.34 122.27)"/><path class="cls-1" d="M139,1066.6c3.23-8.69,5.42-17.8,8-26.69a1.11,1.11,0,0,0-2.13-.59c-2.61,8.88-5.54,17.81-7.2,26.92a.67.67,0,0,0,1.3.36Z" transform="translate(-26.34 122.27)"/><path class="cls-1" d="M91.59,1094.78c-11.36,4.56-21.59,11.5-31.58,18.63,14.57,8,22.56,25.16,37.12,33.42,14.19,8.05,32.44,6,46.87-1.61s25.67-20,35.8-32.81c-9.11,0-17.69-4.1-25.59-8.64s-15.61-9.68-24.35-12.24C117.34,1087.86,103.69,1089.92,91.59,1094.78Z" transform="translate(-26.34 122.27)"/><path class="cls-1" d="M168.72,1116.29c-8.13,2.56-16.27,5.28-24.76,6.36s-17.23.25-25.67-1.4c-16-3.12-31.61-8.82-48.09-9.1-8.12-.13-17.48.83-24.6,5.08-1.36.82-.57,3.36,1.06,2.73a67.1,67.1,0,0,1,11.11-3.63,57.29,57.29,0,0,1,11.31-1,105.08,105.08,0,0,1,23.08,3c16.55,3.78,33.18,9.43,50.39,7.59a76.71,76.71,0,0,0,26.83-7.93c.91-.47.34-2-.66-1.69Z" transform="translate(-26.34 122.27)"/><path class="cls-1" d="M113,1142.16c-3-3-5.88-6.17-9-9.08s-6.22-5.55-9.48-8.13A86.86,86.86,0,0,0,73,1112.14l0,2.64c6.43-2.44,12.89-4.82,19.34-7.22s12.83-4.5,19-7.18c1.58-.68.54-3.34-1.09-2.8-6.42,2.11-12.68,4.82-19,7.25s-12.64,4.9-19,7.3a1.38,1.38,0,0,0,0,2.65,85.48,85.48,0,0,1,20.85,12.42c6.43,5,12.62,10.58,18.64,16.1.78.72,2-.38,1.2-1.14Z" transform="translate(-26.34 122.27)"/><path class="cls-1" d="M142.22,1139.72c-3.54-4.2-8.69-7.28-13.26-10.23-4.81-3.1-9.76-6-14.81-8.67-.13.93-.27,1.86-.41,2.79a93.51,93.51,0,0,0,15.87-6.47q3.85-2,7.5-4.35a44.09,44.09,0,0,0,6.89-5c1.21-1.16-.27-3.34-1.77-2.42-2.29,1.39-4.38,3.16-6.64,4.62s-4.76,2.93-7.23,4.23a96,96,0,0,1-15.36,6.41c-1.16.38-1.67,2.13-.42,2.79q7.47,3.9,14.59,8.38c4.68,3,9.18,6.64,14.23,8.92a.66.66,0,0,0,.82-1Z" transform="translate(-26.34 122.27)"/><path class="cls-1" d="M1511-51.79c6.3,9,20.89-1.22,14.58-10.22S1504.71-60.79,1511-51.79Z" transform="translate(-26.34 122.27)"/><path class="cls-1" d="M1544.14-70.66c6.3,9,20.89-1.23,14.58-10.23S1537.83-79.66,1544.14-70.66Z" transform="translate(-26.34 122.27)"/><path class="cls-1" d="M1503.47-84.13c6.29,9,20.89-1.22,14.58-10.22S1497.16-93.13,1503.47-84.13Z" transform="translate(-26.34 122.27)"/><path class="cls-1" d="M1477.24-60.44c6.3,9,20.9-1.22,14.59-10.22S1470.94-69.44,1477.24-60.44Z" transform="translate(-26.34 122.27)"/><path class="cls-1" d="M1487-24.31c6.3,9,20.89-1.22,14.59-10.22S1480.64-33.31,1487-24.31Z" transform="translate(-26.34 122.27)"/><path class="cls-1" d="M1518.68-18.57c6.3,9,20.9-1.22,14.59-10.22S1512.38-27.57,1518.68-18.57Z" transform="translate(-26.34 122.27)"/><path class="cls-1" d="M1545.49-34.95c6.3,9,20.9-1.22,14.59-10.22S1539.19-43.95,1545.49-34.95Z" transform="translate(-26.34 122.27)"/><path class="cls-1" d="M1580.64-56.69c6.3,9,20.89-1.22,14.58-10.22S1574.33-65.69,1580.64-56.69Z" transform="translate(-26.34 122.27)"/><path class="cls-1" d="M1564.73-104.74a6.61,6.61,0,0,0-1.34,3.09,6.36,6.36,0,0,0,.07,3.3,6.15,6.15,0,0,0,1.26,3.13l1.56,1.68a8.44,8.44,0,0,0,4,1.76l2.24.06a9.21,9.21,0,0,0,4.35-1.63l.68-.47a7,7,0,0,0,2.39-2.57,6.79,6.79,0,0,0,1.33-3.09,6.25,6.25,0,0,0-.07-3.3,6,6,0,0,0-1.26-3.13l-1.56-1.68a8.34,8.34,0,0,0-4-1.76l-2.24-.06a9.11,9.11,0,0,0-4.35,1.63l-.68.47A6.89,6.89,0,0,0,1564.73-104.74Z" transform="translate(-26.34 122.27)"/><path class="cls-1" d="M1534.2-108.56c6.3,9,20.89-1.23,14.58-10.23S1527.89-117.57,1534.2-108.56Z" transform="translate(-26.34 122.27)"/><path class="cls-1" d="M1489.74-105.87c6.3,9,20.89-1.22,14.58-10.22S1483.43-114.87,1489.74-105.87Z" transform="translate(-26.34 122.27)"/><path class="cls-1" d="M1457.08-83.46c6.3,9,20.89-1.22,14.58-10.22S1450.77-92.46,1457.08-83.46Z" transform="translate(-26.34 122.27)"/><path class="cls-1" d="M1459.49-35.45c6.3,9,20.89-1.23,14.58-10.23S1453.18-44.46,1459.49-35.45Z" transform="translate(-26.34 122.27)"/><path class="cls-1" d="M1493.82,5.61c6.3,9,20.89-1.22,14.58-10.22S1487.51-3.39,1493.82,5.61Z" transform="translate(-26.34 122.27)"/><path class="cls-1" d="M1540.74-3.63c6.3,9,20.89-1.23,14.58-10.23S1534.43-12.63,1540.74-3.63Z" transform="translate(-26.34 122.27)"/><path class="cls-1" d="M1574.43-22.42c6.3,9,20.89-1.22,14.58-10.22S1568.12-31.42,1574.43-22.42Z" transform="translate(-26.34 122.27)"/><path class="cls-1" d="M1690.69,174c-6.34-33.35-35.27-59.42-51.19-89a130.74,130.74,0,0,0,20.3,93.25C1667.86,194.61,1690.25,195.12,1690.69,174Z" transform="translate(-26.34 122.27)"/><path class="cls-1" d="M1699.16,142.3c36.47-16.58-30.24-82.45-40-105.5C1653.4,65.85,1664,137.71,1699.16,142.3Z" transform="translate(-26.34 122.27)"/><path class="cls-1" d="M1561.17,57c-10,7.51-9,24.9,5.54,25.11,33.55-5,64.38-24.54,90.6-45.43C1626.34,46.47,1587.24,32.86,1561.17,57Z" transform="translate(-26.34 122.27)"/><path class="cls-1" d="M1541.53,105.13c-5.11,4.6-9.21,12.44-5.51,19,19.15,20.9,83.8-25.12,101.66-39.37C1606.81,94.63,1567.34,81.09,1541.53,105.13Z" transform="translate(-26.34 122.27)"/><path class="cls-1" d="M1574.33,147.46c-73.44,56.18,12.71,100.14,55.46-45.73Z" transform="translate(-26.34 122.27)"/><path class="cls-1" d="M1719,89c34.72-19.93-38-79.19-49.9-101.17C1665.85,16.57,1684.19,88.68,1719,89Z" transform="translate(-26.34 122.27)"/><path class="cls-1" d="M1594,38.2a230.52,230.52,0,0,0,73.26-50.32C1637.52.56,1596.73-9,1573.48,17.29,1558.11,33.94,1577,48.77,1594,38.2Z" transform="translate(-26.34 122.27)"/><path class="cls-1" d="M1672.73-43.63c-9.57,80.05-42.59,157.05-97.24,216.72,50.09-38.94,99.17-150.81,97.24-216.72Z" transform="translate(-26.34 122.27)"/><path class="cls-1" d="M1560.44,116c97.52-23.88,63.38-58.61,92.71,16.28,2.22,4,17.29,38.25,19.35,31-60.43-97.45,8.31-92.43-112.06-47.31Z" transform="translate(-26.34 122.27)"/><path class="cls-1" d="M1691.07,116.59c-10.49-27.22-26.55-52.51-32.8-81.5-25.86,9.54-56.42,18.26-84.52,25.53-1.44.38-.65,2.54.77,2.17,27.71-8.46,57.48-13,83.32-26.37l-1.74-.55C1663.4,63.13,1677.24,95.79,1691.07,116.59Z" transform="translate(-26.34 122.27)"/><path class="cls-1" d="M1592,22.82c27.89-6.91,52.49-22.49,77.72-35.64l-1.73-.55A491.52,491.52,0,0,0,1707.22,66c.77,1.25,2.64-.06,1.87-1.32-63.48-102.79-4.49-88-117.08-41.82Z" transform="translate(-26.34 122.27)"/><path class="cls-1" d="M74.94,54.78c-5.14,0-5.15,8,0,8S80.09,54.78,74.94,54.78Z" transform="translate(-26.34 122.27)"/><path class="cls-1" d="M73.28,71.8c-5.14,0-5.15,8,0,8S78.42,71.8,73.28,71.8Z" transform="translate(-26.34 122.27)"/><path class="cls-1" d="M89.37,60.33c-5.14,0-5.15,8,0,8S94.52,60.33,89.37,60.33Z" transform="translate(-26.34 122.27)"/><path class="cls-1" d="M87.34,44.61c-5.14,0-5.15,8,0,8S92.48,44.61,87.34,44.61Z" transform="translate(-26.34 122.27)"/><path class="cls-1" d="M70.87,38.87c-5.14,0-5.15,8,0,8S76,38.87,70.87,38.87Z" transform="translate(-26.34 122.27)"/><path class="cls-1" d="M60.14,49c-5.14,0-5.14,8,0,8S65.29,49,60.14,49Z" transform="translate(-26.34 122.27)"/><path class="cls-1" d="M59.22,63.1c-5.14,0-5.15,8,0,8S64.36,63.1,59.22,63.1Z" transform="translate(-26.34 122.27)"/><path class="cls-1" d="M58.11,81.6c-5.14,0-5.15,8,0,8S63.25,81.6,58.11,81.6Z" transform="translate(-26.34 122.27)"/><path class="cls-1" d="M80.81,88.13A3.58,3.58,0,0,0,78.7,86a3,3,0,0,0-1.54-.35l-1.06.14a4,4,0,0,0-1.76,1l-.63.81a3.93,3.93,0,0,0-.54,2V90a3,3,0,0,0,.34,1.54,3.58,3.58,0,0,0,2.11,2.11,3,3,0,0,0,1.54.35l1.06-.15a3.86,3.86,0,0,0,1.76-1l.63-.81a3.94,3.94,0,0,0,.54-2v-.37A3,3,0,0,0,80.81,88.13Z" transform="translate(-26.34 122.27)"/><path class="cls-1" d="M90.48,77.9c-5.14,0-5.15,8,0,8S95.63,77.9,90.48,77.9Z" transform="translate(-26.34 122.27)"/><path class="cls-1" d="M101.39,60.88c-5.13,0-5.14,8,0,8S106.54,60.88,101.39,60.88Z" transform="translate(-26.34 122.27)"/><path class="cls-1" d="M101.58,43.13c-5.14,0-5.15,8,0,8S106.73,43.13,101.58,43.13Z" transform="translate(-26.34 122.27)"/><path class="cls-1" d="M82.53,31.66c-5.14,0-5.15,8,0,8S87.67,31.66,82.53,31.66Z" transform="translate(-26.34 122.27)"/><path class="cls-1" d="M57.55,33.69c-5.14,0-5.14,8,0,8S62.7,33.69,57.55,33.69Z" transform="translate(-26.34 122.27)"/><path class="cls-1" d="M48.49,53.3c-5.14,0-5.15,8,0,8S53.63,53.3,48.49,53.3Z" transform="translate(-26.34 122.27)"/><path class="cls-1" d="M46.64,70.5c-5.14,0-5.15,8,0,8S51.78,70.5,46.64,70.5Z" transform="translate(-26.34 122.27)"/><path class="cls-1" d="M93.51,157.3c-10.73,0-10.75,16.33,0,16.33S104.26,157.3,93.51,157.3Z" transform="translate(-26.34 122.27)"/><path class="cls-1" d="M90,192.1c-10.73,0-10.74,16.33,0,16.33S100.78,192.1,90,192.1Z" transform="translate(-26.34 122.27)"/><path class="cls-1" d="M123.65,168.65c-10.73,0-10.75,16.33,0,16.33S134.4,168.65,123.65,168.65Z" transform="translate(-26.34 122.27)"/><path class="cls-1" d="M119.4,136.49c-10.73,0-10.75,16.33,0,16.33S130.15,136.49,119.4,136.49Z" transform="translate(-26.34 122.27)"/><path class="cls-1" d="M85,124.77c-10.73,0-10.75,16.33,0,16.33S95.76,124.77,85,124.77Z" transform="translate(-26.34 122.27)"/><path class="cls-1" d="M62.6,145.57c-10.73,0-10.75,16.33,0,16.33S73.35,145.57,62.6,145.57Z" transform="translate(-26.34 122.27)"/><path class="cls-1" d="M60.67,174.32c-10.73,0-10.75,16.33,0,16.33S71.42,174.32,60.67,174.32Z" transform="translate(-26.34 122.27)"/><path class="cls-1" d="M58.35,212.15c-10.73,0-10.75,16.33,0,16.33S69.1,212.15,58.35,212.15Z" transform="translate(-26.34 122.27)"/><path class="cls-1" d="M105.77,225.49a6.12,6.12,0,0,0-1.73-2.63,6.32,6.32,0,0,0-2.68-1.69,6.4,6.4,0,0,0-3.21-.7l-2.22.29a8.43,8.43,0,0,0-3.68,2.1L91,224.52a7.87,7.87,0,0,0-1.14,4.12v.75a9,9,0,0,0,2.44,5.78,6.23,6.23,0,0,0,2.69,1.68,6.31,6.31,0,0,0,3.21.71l2.21-.29a8.37,8.37,0,0,0,3.68-2.1l1.31-1.66a8.06,8.06,0,0,0,1.14-4.12v-.75A6.09,6.09,0,0,0,105.77,225.49Z" transform="translate(-26.34 122.27)"/><path class="cls-1" d="M126,204.58c-10.74,0-10.75,16.33,0,16.33S136.71,204.58,126,204.58Z" transform="translate(-26.34 122.27)"/><path class="cls-1" d="M148.76,169.78c-10.73,0-10.75,16.33,0,16.33S159.51,169.78,148.76,169.78Z" transform="translate(-26.34 122.27)"/><path class="cls-1" d="M149.15,133.47c-10.73,0-10.75,16.33,0,16.33S159.9,133.47,149.15,133.47Z" transform="translate(-26.34 122.27)"/><path class="cls-1" d="M109.35,110c-10.73,0-10.75,16.33,0,16.33S120.1,110,109.35,110Z" transform="translate(-26.34 122.27)"/><path class="cls-1" d="M57.19,114.17c-10.73,0-10.74,16.33,0,16.33S67.94,114.17,57.19,114.17Z" transform="translate(-26.34 122.27)"/><path class="cls-1" d="M38.26,154.27c-10.73,0-10.75,16.33,0,16.33S49,154.27,38.26,154.27Z" transform="translate(-26.34 122.27)"/><path class="cls-1" d="M34.4,189.45c-10.73,0-10.75,16.33,0,16.33S45.15,189.45,34.4,189.45Z" transform="translate(-26.34 122.27)"/></svg>