<svg id="Layer_1" data-name="Layer 1" xmlns="http://www.w3.org/2000/svg" viewBox="0 0 1596.58 1181.25"><defs><style>.cls-1{fill:#d3e0d4;}</style></defs><path class="cls-1" d="M1394.44,200.76c19,0,28.79-14.69,28.79-29.38a32.24,32.24,0,0,0-7.06-20.13c-5.42-6-12.51-9.25-21.73-9.25-19,0-28.82,14.69-28.82,29.38C1365.57,185.52,1375.35,200.76,1394.44,200.76Zm0-49c13,0,18.47,9.79,18.47,19.59,0,4.89-1.63,10.33-4.89,13.6-3.26,3.81-8.16,6-14.14,6-13.05,0-18.48-9.79-18.48-19.58,0-4.9,1.63-10.34,4.89-13.6,3.22-4.35,8.15-6,14.15-6Z" transform="translate(0 -0.01)"/><path class="cls-1" d="M1404.71,305.26c19,0,28.82-14.69,28.82-29.38s-9.79-29.37-28.82-29.37-28.81,14.68-28.81,29.37C1375.9,290,1385.67,305.26,1404.71,305.26Zm0-49c13,0,18.47,9.79,18.47,19.58,0,4.9-1.63,10.34-4.89,13.61-3.26,3.8-8.16,6-14.12,6-13,0-18.5-9.79-18.5-19.59S1391.66,256.26,1404.71,256.26Z" transform="translate(0 -0.01)"/><path class="cls-1" d="M1305.78,234.49c19,0,28.8-14.69,28.8-29.38s-9.78-29.38-28.8-29.38S1277,190.42,1277,205.11,1286.75,234.49,1305.78,234.49Zm0-49c13,0,18.48,9.79,18.48,19.59s-6,19.58-18.48,19.58c-13,0-18.49-9.79-18.49-19.58,0-4.9,1.64-10.34,4.9-13.6,2.72-3.78,7.61-6,13.59-6Z" transform="translate(0 -0.01)"/><path class="cls-1" d="M1318.28,138.19c19,0,28.81-14.69,28.81-29.38s-9.79-29.38-28.81-29.38-28.84,14.69-28.84,29.38S1299.25,138.19,1318.28,138.19Zm0-49c13,0,18.48,9.79,18.48,19.58,0,4.9-1.63,10.34-4.89,13.6-3.26,3.81-8.16,6-14.14,6-13,0-18.48-9.8-18.48-19.59.55-9.76,6-19.52,19-19.52Z" transform="translate(0 -0.01)"/><path class="cls-1" d="M1419.38,102.83c19,0,28.82-14.69,28.82-29.38s-9.78-29.38-28.82-29.38-28.82,14.69-28.82,29.38S1400.35,102.83,1419.38,102.83Zm0-49c13,0,18.48,9.8,18.48,19.59,0,4.9-1.63,10.34-4.9,13.6-3.26,3.81-8.15,6-14.11,6-13,0-18.5-9.79-18.5-19.58s6-19.58,19-19.58Z" transform="translate(0 -0.01)"/><path class="cls-1" d="M1485.15,165.39c19,0,28.82-14.69,28.82-29.38s-9.78-29.37-28.82-29.37-28.79,14.68-28.79,29.37S1466.11,165.39,1485.15,165.39Zm0-49c13,0,18.47,9.79,18.47,19.58s-6,19.59-18.47,19.59c-13,0-18.47-9.79-18.47-19.59,0-4.89,1.63-10.33,4.89-13.6,2.7-3.77,7.59-5.94,13.58-5.94Z" transform="translate(0 -0.01)"/><path class="cls-1" d="M1490.58,251.9c19,0,28.82-14.69,28.82-29.38s-9.79-29.38-28.82-29.38-28.8,14.69-28.8,29.38C1461.78,236.66,1472.1,251.9,1490.58,251.9Zm0-49c13,0,18.5,9.79,18.5,19.59s-6,19.58-18.5,19.58c-13,0-18.48-9.79-18.48-19.58,0-4.9,1.63-10.34,4.9-13.6,2.72-4.33,7.62-6,13.58-6Z" transform="translate(0 -0.01)"/><path class="cls-1" d="M1497.66,365.06c19,0,28.79-14.69,28.79-29.38a32.2,32.2,0,0,0-7-20.13c-5.43-6-12.52-9.25-21.74-9.25-19,0-28.82,14.69-28.82,29.38S1478.63,365.06,1497.66,365.06Zm0-49c13,0,18.48,9.8,18.48,19.59,0,4.89-1.64,10.34-4.9,13.6-3.26,3.81-8.15,6-14.14,6-13,0-18.47-9.79-18.47-19.58s6-19.58,19-19.58Z" transform="translate(0 -0.01)"/><path class="cls-1" d="M1381.34,392.26a22.94,22.94,0,0,0,10.85-2.72,24.58,24.58,0,0,0,9.25-6,22.67,22.67,0,0,0,6-9.79,19,19,0,0,0,2.17-11.42v-2.17a32.73,32.73,0,0,0-3.8-14.69l-4.36-5.44a32.48,32.48,0,0,0-13.58-8.16l-7.08-1.09c-4.88,0-8.69.55-12.49,2.72a24.35,24.35,0,0,0-9.24,6c-2.72,2.72-4.9,5.44-6,9.24a29.39,29.39,0,0,0-2.72,11.43v2.18a32.73,32.73,0,0,0,3.8,14.69l4.35,5.44a32.58,32.58,0,0,0,13.59,8.16l7.06,1.08A4.13,4.13,0,0,0,1381.34,392.26Zm-1.63-51.14h.53l6,1.09c2.7.54,5.43,2.17,8.16,4.89l3.26,4.36a17.82,17.82,0,0,1,2.16,9.24v2.18a24.86,24.86,0,0,1-5.42,13.6c-2.2,2.18-3.83,3.26-6,3.81-2.73,1.63-4.89,1.63-7.62,1.63l-6-1.09q-4.08-.81-8.15-4.89l-3.27-4.35a18,18,0,0,1-2.17-9.25v-2.18a15.1,15.1,0,0,1,1.63-7.07l.54-.55a14.15,14.15,0,0,1,3.81-6c2.17-2.18,3.81-3.27,6-3.81A14.31,14.31,0,0,1,1379.71,341.12Z" transform="translate(0 -0.01)"/><path class="cls-1" d="M1299.26,342.26c19,0,28.8-14.69,28.8-29.38a32.35,32.35,0,0,0-7.06-20.13c-5.44-6-12.51-9.25-21.74-9.25-19,0-28.81,14.69-28.81,29.38S1280.23,342.26,1299.26,342.26Zm0-49c13,0,18.48,9.8,18.48,19.59,0,4.89-1.63,10.33-4.9,13.6-3.26,3.81-8.15,6-14.13,6-13,0-18.48-9.8-18.48-19.59S1286.21,293.26,1299.26,293.26Z" transform="translate(0 -0.01)"/><path class="cls-1" d="M1231.85,238.26c19,0,28.81-14.69,28.81-29.38s-9.78-29.38-28.81-29.38S1203,194.26,1203,208.92C1203.59,223.06,1213.37,238.26,1231.85,238.26Zm0-49c13,0,18.48,9.79,18.48,19.59,0,4.89-1.63,10.33-4.89,13.6-3.26,3.81-8.15,6-14.13,6-13,0-18.48-9.79-18.48-19.58.54-9.75,6.52-19.54,19-19.54Z" transform="translate(0 -0.01)"/><path class="cls-1" d="M1230.76,128.94c19,0,28.81-14.69,28.81-29.38s-9.78-29.38-28.81-29.38S1202,84.87,1202,99.56C1202.5,114.26,1212.29,128.94,1230.76,128.94Zm0-49c13,0,18.49,9.79,18.49,19.58s-6,19.59-18.49,19.59c-13,0-18.47-9.79-18.47-19.59,0-4.89,1.62-10.33,4.89-13.6A17.63,17.63,0,0,1,1230.76,80Z" transform="translate(0 -0.01)"/><path class="cls-1" d="M1347.63,58.76c19,0,28.82-14.69,28.82-29.38a32.35,32.35,0,0,0-7.08-20.12c-5.43-6-12.5-9.25-21.74-9.25-19,0-28.81,14.69-28.81,29.38C1319.36,44.07,1329.15,58.76,1347.63,58.76Zm0-49c13,0,18.48,9.79,18.48,19.58,0,4.9-1.63,10.34-4.89,13.6-3.26,3.81-8.15,6-14.13,6-13,0-18.48-9.8-18.48-19.59.54-9.76,6-19.55,19-19.55Z" transform="translate(0 -0.01)"/><path class="cls-1" d="M1500.92,71.26c19,0,28.8-14.69,28.8-29.38a32.21,32.21,0,0,0-7.06-20.12c-5.43-6-12.51-9.25-21.74-9.25-19,0-28.82,14.69-28.82,29.37S1481.89,71.26,1500.92,71.26Zm0-49c13,0,18.48,9.79,18.48,19.58,0,4.9-1.63,10.34-4.9,13.61-3.26,3.8-8.15,6-14.14,6-13,0-18.47-9.79-18.47-19.59,0-4.89,1.63-10.33,4.89-13.6,3.26-3.77,8.15-6,14.14-6Z" transform="translate(0 -0.01)"/><path class="cls-1" d="M1556.37,191.51c19,0,28.79-14.69,28.79-29.38s-9.78-29.38-28.79-29.38-28.82,14.69-28.82,29.38S1537.87,191.51,1556.37,191.51Zm0-49c13,0,18.47,9.8,18.47,19.59s-6,19.58-18.47,19.58c-13,0-18.5-9.79-18.5-19.58,0-4.9,1.63-10.34,4.89-13.6,2.73-3.78,7.62-6,13.61-6Z" transform="translate(0 -0.01)"/><path class="cls-1" d="M1567.79,297.05c19,0,28.79-14.69,28.79-29.38s-9.79-29.41-28.79-29.41S1539,252.94,1539,267.63,1548.75,297.05,1567.79,297.05Zm0-49c13,0,18.47,9.79,18.47,19.58s-6,19.59-18.47,19.59c-13,0-18.5-9.79-18.5-19.59,0-4.89,1.63-10.33,4.89-13.6,2.73-3.77,7.62-5.94,13.61-5.94Z" transform="translate(0 -0.01)"/><path class="cls-1" d="M177.85,1004.26c17.59,0,26.59-13.57,26.59-27.15a29.86,29.86,0,0,0-6.53-18.6c-5-5.53-11.55-8.55-20.09-8.55-17.58,0-26.63,13.58-26.63,27.15C151.22,990.19,160.27,1004.26,177.85,1004.26Zm0-45.25c12.06,0,17.08,9,17.08,18.1,0,4.53-1.51,9.56-4.52,12.57-3,3.52-7.54,5.53-13.06,5.53-12.06,0-17.08-9.05-17.08-18.1,0-4.52,1.5-9.55,4.52-12.57C167.8,960.52,172.32,959,177.85,959Z" transform="translate(0 -0.01)"/><path class="cls-1" d="M187.44,1100.81c17.59,0,26.63-13.58,26.63-27.15s-9-27.16-26.63-27.16-26.62,13.58-26.62,27.16C160.77,1086.73,169.81,1100.81,187.44,1100.81Zm0-45.26c12.06,0,17.09,9,17.09,18.11,0,4.52-1.51,9.55-4.53,12.57-3,3.51-7.53,5.53-13.06,5.53-12.06,0-17.08-9.06-17.08-18.1S175.34,1055.55,187.44,1055.55Z" transform="translate(0 -0.01)"/><path class="cls-1" d="M96,1035.44c17.58,0,26.63-13.58,26.63-27.15s-9-27.16-26.63-27.16-26.63,13.58-26.63,27.16S78.38,1035.44,96,1035.44Zm0-45.25c12.06,0,17.08,9,17.08,18.1s-5.53,18.1-17.08,18.1c-12.06,0-17.08-9.05-17.08-18.1,0-4.53,1.51-9.56,4.52-12.57,2.51-3.52,7-5.53,12.56-5.53Z" transform="translate(0 -0.01)"/><path class="cls-1" d="M107.51,946.44c17.59,0,26.63-13.58,26.63-27.15s-9-27.16-26.63-27.16-26.62,13.58-26.62,27.16S89.93,946.44,107.51,946.44Zm0-45.25c12.06,0,17.08,9,17.08,18.1,0,4.52-1.5,9.55-4.52,12.57-3,3.52-7.53,5.53-13.06,5.53-12.06,0-17.08-9-17.08-18.1C90.44,910.26,95.44,901.19,107.51,901.19Z" transform="translate(0 -0.01)"/><path class="cls-1" d="M201,913.76c17.58,0,26.62-13.58,26.62-27.16s-9-27.15-26.62-27.15S174.33,873,174.33,886.6,183.37,913.76,201,913.76Zm0-45.26c12.06,0,17.08,9,17.08,18.1,0,4.53-1.51,9.56-4.52,12.57-3,3.52-7.54,5.53-13.07,5.53-12,0-17.08-9.05-17.08-18.1S188.9,868.5,201,868.5Z" transform="translate(0 -0.01)"/><path class="cls-1" d="M257.75,974.58c17.58,0,26.62-13.57,26.62-27.15s-9-27.17-26.62-27.17-26.63,13.58-26.63,27.16S240.16,974.58,257.75,974.58Zm0-45.25c12,0,17.08,9,17.08,18.1s-5.53,18.1-17.08,18.1c-12.06,0-17.09-9-17.09-18.1,0-4.53,1.51-9.56,4.52-12.57C247.7,931.34,252.22,929.33,257.75,929.33Z" transform="translate(0 -0.01)"/><path class="cls-1" d="M266.77,1051.53c17.58,0,26.63-13.58,26.63-27.15s-9-27.16-26.63-27.16-26.63,13.58-26.63,27.16C240.14,1037.45,249.69,1051.53,266.77,1051.53Zm0-45.25c12.06,0,17.08,9,17.08,18.1s-5.52,18.1-17.08,18.1c-12.06,0-17.08-9-17.08-18.1,0-4.53,1.51-9.56,4.52-12.57,2.51-4,7-5.55,12.56-5.55Z" transform="translate(0 -0.01)"/><path class="cls-1" d="M273.3,1156.12c17.58,0,26.63-13.58,26.63-27.15a29.93,29.93,0,0,0-6.49-18.61c-5-5.53-11.55-8.55-20.09-8.55-17.58,0-26.63,13.58-26.63,27.16S255.72,1156.12,273.3,1156.12Zm0-45.26c12.06,0,17.08,9.05,17.08,18.11,0,4.52-1.51,9.55-4.52,12.57-3,3.52-7.54,5.53-13.06,5.53-12.06,0-17.08-9-17.08-18.1S261.24,1110.86,273.3,1110.86Z" transform="translate(0 -0.01)"/><path class="cls-1" d="M165.79,1181.26a21.16,21.16,0,0,0,10-2.51,22.82,22.82,0,0,0,8.54-5.53,21.13,21.13,0,0,0,5.52-9.06,17.32,17.32,0,0,0,2-10.56v-2a30.18,30.18,0,0,0-3.41-13.58l-4-5a30,30,0,0,0-12.56-7.54l-6.53-1c-4.52,0-8,.5-11.56,2.51a22.82,22.82,0,0,0-8.54,5.53c-2.51,2.52-4.52,5-5.52,8.55a27,27,0,0,0-2.52,10.56v2a30.23,30.23,0,0,0,3.52,13.58l4,5a30.1,30.1,0,0,0,12.56,7.54l6.53,1A3.89,3.89,0,0,0,165.79,1181.26ZM164.28,1134h.51l5.52,1a15.17,15.17,0,0,1,7.54,4.52l3,4a16.45,16.45,0,0,1,2,8.55v2a22.69,22.69,0,0,1-5,12.53,11.42,11.42,0,0,1-5.53,3.52c-2.51,1.51-4.52,1.51-7,1.51l-5.53-1a15.14,15.14,0,0,1-7.53-4.52l-3-4a16.45,16.45,0,0,1-2-8.55v-2a13.83,13.83,0,0,1,1.51-6.53l.5-.51a13,13,0,0,1,3.52-5.53,11.51,11.51,0,0,1,5.52-3.52A13.45,13.45,0,0,1,164.28,1134Z" transform="translate(0 -0.01)"/><path class="cls-1" d="M89.93,1135c17.58,0,26.63-13.58,26.63-27.15a29.9,29.9,0,0,0-6.53-18.59c-5-5.53-11.56-8.54-20.1-8.54-17.58,0-26.63,13.57-26.63,27.15S72.35,1135,89.93,1135Zm0-45.26c12.06,0,17.08,9.06,17.08,18.11,0,4.52-1.5,9.55-4.52,12.57-3,3.52-7.54,5.53-13.06,5.53-12.06,0-17.08-9-17.08-18.1S77.87,1089.74,89.93,1089.74Z" transform="translate(0 -0.01)"/><path class="cls-1" d="M27.64,1039c17.58,0,26.62-13.58,26.62-27.15s-9-27.16-26.62-27.16S1,998.23,1,1011.81C1.51,1024.88,10.55,1039,27.64,1039Zm0-45.25c12,0,17.08,9,17.08,18.1,0,4.52-1.51,9.55-4.53,12.57-3,3.52-7.53,5.53-13.06,5.53-12,0-17.08-9.05-17.08-18.1.5-9,6-18.1,17.59-18.1Z" transform="translate(0 -0.01)"/><path class="cls-1" d="M26.63,937.89c17.58,0,26.63-13.58,26.63-27.15s-9-27.15-26.63-27.15S0,897.16,0,910.74C.51,924.31,9.55,937.89,26.63,937.89Zm0-45.25c12.06,0,17.08,9,17.08,18.1s-5.52,18.1-17.08,18.1c-12.06,0-17.08-9.05-17.08-18.1,0-4.53,1.51-9.55,4.52-12.57A16.32,16.32,0,0,1,26.63,892.64Z" transform="translate(0 -0.01)"/><path class="cls-1" d="M134.64,873c17.59,0,26.63-13.58,26.63-27.16a29.91,29.91,0,0,0-6.53-18.61c-5-5.53-11.56-8.55-20.1-8.55-17.58,0-26.62,13.58-26.62,27.15C108.52,859.45,117.56,873,134.64,873Zm0-45.26c12.06,0,17.08,9,17.08,18.1,0,4.53-1.5,9.56-4.52,12.58-3,3.51-7.53,5.53-13.06,5.53-12.06,0-17.08-9.06-17.08-18.11C117.56,836.82,122.59,827.77,134.64,827.77Z" transform="translate(0 -0.01)"/><path class="cls-1" d="M276.32,884.59c17.58,0,26.62-13.57,26.62-27.15a29.88,29.88,0,0,0-6.5-18.61c-5-5.57-11.58-8.57-20.12-8.57-17.59,0-26.63,13.57-26.63,27.15S258.73,884.59,276.32,884.59Zm0-45.25c12.05,0,17.08,9,17.08,18.1,0,4.52-1.51,9.55-4.52,12.57-3,3.52-7.54,5.53-13.07,5.53-12.05,0-17.08-9-17.08-18.1,0-4.53,1.51-9.55,4.52-12.57C266.27,841.35,270.79,839.34,276.32,839.34Z" transform="translate(0 -0.01)"/><path class="cls-1" d="M327.56,995.72c17.58,0,26.63-13.58,26.63-27.16s-9.05-27.15-26.63-27.15S300.93,955,300.93,968.56,310.44,995.72,327.56,995.72Zm0-45.26c12.06,0,17.08,9,17.08,18.1s-5.52,18.11-17.08,18.11c-12.06,0-17.08-9-17.08-18.11C310.48,964,312,959,315,956,317.51,952.47,322,950.46,327.56,950.46Z" transform="translate(0 -0.01)"/><path class="cls-1" d="M338.11,1093.26c17.58,0,26.62-13.58,26.62-27.16s-9-27.15-26.62-27.15-26.67,13.59-26.67,27.16S320.52,1093.26,338.11,1093.26Zm0-45.26c12.06,0,17.08,9,17.08,18.1s-5.53,18.1-17.08,18.1c-12.06,0-17.08-9-17.08-18.1,0-4.52,1.5-9.55,4.52-12.57,2.51-3.51,7-5.52,12.56-5.52Z" transform="translate(0 -0.01)"/></svg>