<svg id="Layer_1" data-name="Layer 1" xmlns="http://www.w3.org/2000/svg" viewBox="0 0 1596.57 1181.26"><defs><style>.cls-1{fill:#d8998b;}</style></defs><path class="cls-1" d="M1191,228.5c19,0,28.79-14.69,28.79-29.38a32.26,32.26,0,0,0-7.06-20.13c-5.42-6-12.51-9.25-21.73-9.25-19,0-28.82,14.69-28.82,29.38C1162.13,213.26,1171.91,228.5,1191,228.5Zm0-49c13,0,18.47,9.79,18.47,19.59,0,4.89-1.63,10.33-4.89,13.6-3.26,3.81-8.16,6-14.14,6-13.05,0-18.48-9.79-18.48-19.58,0-4.9,1.63-10.34,4.89-13.6C1180.07,181.16,1185,179.53,1191,179.53Z" transform="translate(203.44 -27.74)"/><path class="cls-1" d="M1201.27,333c19,0,28.82-14.69,28.82-29.38s-9.79-29.37-28.82-29.37-28.81,14.68-28.81,29.37C1172.46,317.72,1182.23,333,1201.27,333Zm0-49c13,0,18.47,9.79,18.47,19.58,0,4.9-1.63,10.34-4.89,13.61-3.26,3.8-8.16,6-14.12,6-13,0-18.5-9.79-18.5-19.59S1188.22,284,1201.27,284Z" transform="translate(203.44 -27.74)"/><path class="cls-1" d="M1102.34,262.23c19,0,28.8-14.69,28.8-29.38s-9.78-29.38-28.8-29.38-28.81,14.69-28.81,29.38S1083.31,262.23,1102.34,262.23Zm0-49c13,0,18.48,9.79,18.48,19.59s-6,19.58-18.48,19.58c-13,0-18.49-9.79-18.49-19.58,0-4.9,1.64-10.34,4.9-13.6C1091.47,215.44,1096.36,213.26,1102.34,213.26Z" transform="translate(203.44 -27.74)"/><path class="cls-1" d="M1114.84,165.93c19,0,28.81-14.69,28.81-29.38s-9.79-29.38-28.81-29.38S1086,121.86,1086,136.55,1095.81,165.93,1114.84,165.93Zm0-49c13,0,18.48,9.79,18.48,19.58,0,4.9-1.63,10.34-4.89,13.6-3.26,3.81-8.16,6-14.14,6-13,0-18.48-9.8-18.48-19.59C1096.36,126.76,1101.79,117,1114.84,117Z" transform="translate(203.44 -27.74)"/><path class="cls-1" d="M1215.94,130.57c19,0,28.82-14.69,28.82-29.38s-9.78-29.38-28.82-29.38-28.82,14.69-28.82,29.38S1196.91,130.57,1215.94,130.57Zm0-49c13,0,18.48,9.8,18.48,19.59,0,4.9-1.63,10.34-4.9,13.6-3.26,3.81-8.15,6-14.11,6-13.05,0-18.5-9.79-18.5-19.58S1202.9,81.6,1215.94,81.6Z" transform="translate(203.44 -27.74)"/><path class="cls-1" d="M1281.71,193.13c19,0,28.82-14.69,28.82-29.38s-9.78-29.37-28.82-29.37-28.79,14.68-28.79,29.37S1262.67,193.13,1281.71,193.13Zm0-49c13,0,18.47,9.79,18.47,19.58s-6,19.59-18.47,19.59c-13,0-18.47-9.79-18.47-19.59,0-4.89,1.63-10.33,4.89-13.6C1270.83,146.34,1275.72,144.17,1281.71,144.17Z" transform="translate(203.44 -27.74)"/><path class="cls-1" d="M1287.14,279.64c19,0,28.82-14.69,28.82-29.38s-9.79-29.38-28.82-29.38-28.8,14.69-28.8,29.38C1258.34,264.4,1268.66,279.64,1287.14,279.64Zm0-49c13,0,18.5,9.79,18.5,19.59s-6,19.58-18.5,19.58c-13.05,0-18.48-9.79-18.48-19.58,0-4.9,1.63-10.34,4.9-13.6C1276.28,232.3,1281.18,230.67,1287.14,230.67Z" transform="translate(203.44 -27.74)"/><path class="cls-1" d="M1294.22,392.8c19,0,28.79-14.69,28.79-29.38a32.25,32.25,0,0,0-7-20.13c-5.43-6-12.52-9.25-21.74-9.25-19,0-28.82,14.69-28.82,29.38S1275.19,392.8,1294.22,392.8Zm0-49c13,0,18.48,9.8,18.48,19.59,0,4.89-1.64,10.34-4.9,13.6-3.26,3.81-8.15,6-14.14,6-13.05,0-18.47-9.79-18.47-19.58S1281.18,343.83,1294.22,343.83Z" transform="translate(203.44 -27.74)"/><path class="cls-1" d="M1177.9,420a23,23,0,0,0,10.85-2.72,24.57,24.57,0,0,0,9.25-6,22.68,22.68,0,0,0,6-9.79,18.91,18.91,0,0,0,2.17-11.42V387.9a32.75,32.75,0,0,0-3.8-14.69l-4.36-5.44a32.43,32.43,0,0,0-13.58-8.16l-7.08-1.09c-4.88,0-8.69.55-12.49,2.72a24.46,24.46,0,0,0-9.24,6c-2.72,2.72-4.9,5.44-6,9.24a29.3,29.3,0,0,0-2.72,11.43v2.18a32.79,32.79,0,0,0,3.8,14.69l4.35,5.44a32.52,32.52,0,0,0,13.59,8.16l7.06,1.08A4.09,4.09,0,0,0,1177.9,420Zm-1.63-51.14h.53l6,1.09c2.7.54,5.43,2.17,8.16,4.89l3.26,4.36a17.87,17.87,0,0,1,2.16,9.24v2.18a24.83,24.83,0,0,1-5.42,13.6c-2.2,2.18-3.83,3.26-6,3.81-2.73,1.63-4.89,1.63-7.62,1.63l-6-1.09q-4.08-.81-8.15-4.89l-3.27-4.35a17.91,17.91,0,0,1-2.17-9.25V387.9a15,15,0,0,1,1.63-7.07l.54-.55a14.18,14.18,0,0,1,3.81-6c2.17-2.18,3.81-3.27,6-3.81A14.4,14.4,0,0,1,1176.27,368.86Z" transform="translate(203.44 -27.74)"/><path class="cls-1" d="M1095.82,370c19,0,28.8-14.69,28.8-29.38a32.32,32.32,0,0,0-7.06-20.13c-5.44-6-12.51-9.25-21.74-9.25-19,0-28.81,14.69-28.81,29.38S1076.79,370,1095.82,370Zm0-49c13,0,18.48,9.8,18.48,19.59,0,4.89-1.63,10.33-4.9,13.6-3.26,3.81-8.15,6-14.13,6-13,0-18.48-9.8-18.48-19.59S1082.77,321,1095.82,321Z" transform="translate(203.44 -27.74)"/><path class="cls-1" d="M1028.41,266c19,0,28.81-14.69,28.81-29.38s-9.78-29.38-28.81-29.38S999.6,222,999.6,236.66C1000.15,250.8,1009.93,266,1028.41,266Zm0-49c13,0,18.48,9.79,18.48,19.59,0,4.89-1.63,10.33-4.89,13.6-3.26,3.81-8.15,6-14.13,6-13,0-18.48-9.79-18.48-19.58C1009.93,226.86,1015.91,217.07,1028.41,217.07Z" transform="translate(203.44 -27.74)"/><path class="cls-1" d="M1027.32,156.68c19,0,28.81-14.69,28.81-29.38s-9.78-29.38-28.81-29.38-28.8,14.69-28.8,29.38C999.06,142,1008.85,156.68,1027.32,156.68Zm0-49c13,0,18.49,9.79,18.49,19.58s-6,19.59-18.49,19.59c-13,0-18.47-9.79-18.47-19.59,0-4.89,1.62-10.33,4.89-13.6A17.64,17.64,0,0,1,1027.32,107.72Z" transform="translate(203.44 -27.74)"/><path class="cls-1" d="M1144.19,86.5c19,0,28.82-14.69,28.82-29.38A32.36,32.36,0,0,0,1165.93,37c-5.43-6-12.5-9.25-21.74-9.25-19,0-28.81,14.69-28.81,29.38C1115.92,71.81,1125.71,86.5,1144.19,86.5Zm0-49c13,0,18.48,9.79,18.48,19.58,0,4.9-1.63,10.34-4.89,13.6-3.26,3.81-8.15,6-14.13,6-13.05,0-18.48-9.8-18.48-19.59C1125.71,47.33,1131.14,37.54,1144.19,37.54Z" transform="translate(203.44 -27.74)"/><path class="cls-1" d="M1297.48,99c19,0,28.8-14.69,28.8-29.38a32.25,32.25,0,0,0-7.06-20.12c-5.43-6-12.51-9.25-21.74-9.25-19,0-28.82,14.69-28.82,29.37S1278.45,99,1297.48,99Zm0-49c13,0,18.48,9.79,18.48,19.58,0,4.9-1.63,10.34-4.9,13.61-3.26,3.8-8.15,6-14.14,6-13.05,0-18.47-9.79-18.47-19.59,0-4.89,1.63-10.33,4.89-13.6C1286.6,52.23,1291.49,50.05,1297.48,50.05Z" transform="translate(203.44 -27.74)"/><path class="cls-1" d="M1352.93,219.25c19,0,28.79-14.69,28.79-29.38s-9.78-29.38-28.79-29.38-28.82,14.69-28.82,29.38S1334.43,219.25,1352.93,219.25Zm0-49c13,0,18.47,9.8,18.47,19.59s-6,19.58-18.47,19.58c-13,0-18.5-9.79-18.5-19.58,0-4.9,1.63-10.34,4.89-13.6C1342.05,172.46,1346.94,170.28,1352.93,170.28Z" transform="translate(203.44 -27.74)"/><path class="cls-1" d="M1364.35,324.79c19,0,28.79-14.69,28.79-29.38S1383.35,266,1364.35,266s-28.82,14.68-28.82,29.37S1345.31,324.79,1364.35,324.79Zm0-49c13,0,18.47,9.79,18.47,19.58s-6,19.59-18.47,19.59c-13,0-18.5-9.79-18.5-19.59,0-4.89,1.63-10.33,4.89-13.6C1353.47,278,1358.36,275.83,1364.35,275.83Z" transform="translate(203.44 -27.74)"/><path class="cls-1" d="M-25.59,1032C-8,1032,1,1018.43,1,1004.85a29.87,29.87,0,0,0-6.53-18.6c-5-5.53-11.55-8.55-20.09-8.55-17.58,0-26.63,13.58-26.63,27.15C-52.22,1017.93-43.17,1032-25.59,1032Zm0-45.25c12.06,0,17.08,9,17.08,18.1,0,4.53-1.51,9.56-4.52,12.57-3,3.52-7.54,5.53-13.06,5.53-12.06,0-17.08-9.05-17.08-18.1,0-4.52,1.5-9.55,4.52-12.57C-35.64,988.26-31.12,986.75-25.59,986.75Z" transform="translate(203.44 -27.74)"/><path class="cls-1" d="M-16,1128.55c17.59,0,26.63-13.58,26.63-27.15s-9-27.16-26.63-27.16-26.62,13.58-26.62,27.16C-42.67,1114.47-33.63,1128.55-16,1128.55Zm0-45.26c12.06,0,17.09,9,17.09,18.11,0,4.52-1.51,9.55-4.53,12.57-3,3.51-7.53,5.53-13.06,5.53-12.06,0-17.08-9.06-17.08-18.1S-28.1,1083.29-16,1083.29Z" transform="translate(203.44 -27.74)"/><path class="cls-1" d="M-107.48,1063.18c17.58,0,26.63-13.58,26.63-27.15s-9.05-27.16-26.63-27.16-26.63,13.58-26.63,27.16S-125.06,1063.18-107.48,1063.18Zm0-45.25c12.06,0,17.08,9.05,17.08,18.1s-5.53,18.1-17.08,18.1c-12.06,0-17.08-9.05-17.08-18.1,0-4.53,1.51-9.56,4.52-12.57C-117.53,1019.94-113,1017.93-107.48,1017.93Z" transform="translate(203.44 -27.74)"/><path class="cls-1" d="M-95.93,974.18c17.59,0,26.63-13.58,26.63-27.15s-9-27.16-26.63-27.16-26.62,13.58-26.62,27.16S-113.51,974.18-95.93,974.18Zm0-45.25c12.06,0,17.08,9.05,17.08,18.1,0,4.52-1.5,9.55-4.52,12.57-3,3.52-7.53,5.53-13.06,5.53-12.06,0-17.08-9-17.08-18.1C-113,938-108,928.93-95.93,928.93Z" transform="translate(203.44 -27.74)"/><path class="cls-1" d="M-2.48,941.5c17.58,0,26.62-13.58,26.62-27.16s-9-27.15-26.62-27.15-26.63,13.58-26.63,27.15S-20.07,941.5-2.48,941.5Zm0-45.26c12.06,0,17.08,9,17.08,18.1,0,4.53-1.51,9.56-4.52,12.57-3,3.52-7.54,5.53-13.07,5.53-12,0-17.08-9.05-17.08-18.1S-14.54,896.24-2.48,896.24Z" transform="translate(203.44 -27.74)"/><path class="cls-1" d="M54.31,1002.32c17.58,0,26.62-13.57,26.62-27.15S71.89,948,54.31,948s-26.63,13.58-26.63,27.16S36.72,1002.32,54.31,1002.32Zm0-45.25c12,0,17.08,9,17.08,18.1s-5.53,18.1-17.08,18.1c-12.06,0-17.09-9-17.09-18.1,0-4.53,1.51-9.56,4.52-12.57C44.26,959.08,48.78,957.07,54.31,957.07Z" transform="translate(203.44 -27.74)"/><path class="cls-1" d="M63.33,1079.27c17.58,0,26.63-13.58,26.63-27.15s-9-27.16-26.63-27.16-26.63,13.58-26.63,27.16C36.7,1065.19,46.25,1079.27,63.33,1079.27Zm0-45.25c12.06,0,17.08,9,17.08,18.1s-5.52,18.1-17.08,18.1c-12.06,0-17.08-9-17.08-18.1,0-4.53,1.51-9.56,4.52-12.57C53.28,1035.53,57.81,1034,63.33,1034Z" transform="translate(203.44 -27.74)"/><path class="cls-1" d="M69.86,1183.86c17.58,0,26.63-13.58,26.63-27.15A29.91,29.91,0,0,0,90,1138.1c-5-5.53-11.55-8.55-20.09-8.55-17.58,0-26.63,13.58-26.63,27.16S52.28,1183.86,69.86,1183.86Zm0-45.26c12.06,0,17.08,9.05,17.08,18.11,0,4.52-1.51,9.55-4.52,12.57-3,3.52-7.54,5.53-13.06,5.53-12.06,0-17.08-9-17.08-18.1S57.8,1138.6,69.86,1138.6Z" transform="translate(203.44 -27.74)"/><path class="cls-1" d="M-37.65,1209a21.23,21.23,0,0,0,10-2.51,22.81,22.81,0,0,0,8.54-5.53,21.07,21.07,0,0,0,5.52-9.06,17.31,17.31,0,0,0,2-10.56v-2A30.18,30.18,0,0,0-15,1165.76l-4-5a30,30,0,0,0-12.56-7.54l-6.53-1c-4.52,0-8,.5-11.56,2.51a22.81,22.81,0,0,0-8.54,5.53c-2.51,2.52-4.52,5-5.52,8.55a27,27,0,0,0-2.52,10.56v2a30.22,30.22,0,0,0,3.52,13.58l4,5a30.09,30.09,0,0,0,12.56,7.54l6.53,1A3.83,3.83,0,0,0-37.65,1209Zm-1.51-47.27h.51l5.52,1a15.15,15.15,0,0,1,7.54,4.52l3,4a16.5,16.5,0,0,1,2,8.55v2a13.85,13.85,0,0,1-1.51,6.53,13.71,13.71,0,0,1-3.51,6,11.46,11.46,0,0,1-5.53,3.52c-2.51,1.51-4.52,1.51-7,1.51l-5.53-1a15.13,15.13,0,0,1-7.53-4.52l-3-4a16.5,16.5,0,0,1-2-8.55v-2a13.85,13.85,0,0,1,1.51-6.53l.5-.51a13,13,0,0,1,3.52-5.53,11.49,11.49,0,0,1,5.52-3.52A13.45,13.45,0,0,1-39.16,1161.73Z" transform="translate(203.44 -27.74)"/><path class="cls-1" d="M-113.51,1162.74c17.58,0,26.63-13.58,26.63-27.15A29.9,29.9,0,0,0-93.41,1117c-5-5.53-11.56-8.54-20.1-8.54-17.58,0-26.63,13.57-26.63,27.15S-131.09,1162.74-113.51,1162.74Zm0-45.26c12.06,0,17.08,9.06,17.08,18.11,0,4.52-1.5,9.55-4.52,12.57-3,3.52-7.54,5.53-13.06,5.53-12.06,0-17.08-9-17.08-18.1S-125.57,1117.48-113.51,1117.48Z" transform="translate(203.44 -27.74)"/><path class="cls-1" d="M-175.8,1066.7c17.58,0,26.62-13.58,26.62-27.15s-9-27.16-26.62-27.16-26.63,13.58-26.63,27.16C-201.93,1052.62-192.89,1066.7-175.8,1066.7Zm0-45.25c12.05,0,17.08,9,17.08,18.1,0,4.52-1.51,9.55-4.53,12.57-3,3.52-7.53,5.53-13.06,5.53-12.05,0-17.08-9.05-17.08-18.1C-192.89,1030.5-187.36,1021.45-175.8,1021.45Z" transform="translate(203.44 -27.74)"/><path class="cls-1" d="M-176.81,965.63c17.58,0,26.63-13.58,26.63-27.15s-9-27.15-26.63-27.15-26.63,13.57-26.63,27.15C-202.93,952.05-193.89,965.63-176.81,965.63Zm0-45.25c12.06,0,17.08,9,17.08,18.1s-5.52,18.1-17.08,18.1c-12.06,0-17.08-9.05-17.08-18.1,0-4.53,1.51-9.55,4.52-12.57A16.34,16.34,0,0,1-176.81,920.38Z" transform="translate(203.44 -27.74)"/><path class="cls-1" d="M-68.8,900.77c17.59,0,26.63-13.58,26.63-27.16A29.87,29.87,0,0,0-48.7,855c-5-5.53-11.56-8.55-20.1-8.55-17.58,0-26.62,13.58-26.62,27.15C-94.92,887.19-85.88,900.77-68.8,900.77Zm0-45.26c12.06,0,17.08,9,17.08,18.1,0,4.53-1.5,9.56-4.52,12.58-3,3.51-7.53,5.53-13.06,5.53-12.06,0-17.08-9.06-17.08-18.11C-85.88,864.56-80.85,855.51-68.8,855.51Z" transform="translate(203.44 -27.74)"/><path class="cls-1" d="M72.88,912.33c17.58,0,26.62-13.57,26.62-27.15A29.9,29.9,0,0,0,93,866.57C88,861,81.42,858,72.88,858c-17.59,0-26.63,13.57-26.63,27.15S55.29,912.33,72.88,912.33Zm0-45.25c12.05,0,17.08,9,17.08,18.1,0,4.52-1.51,9.55-4.52,12.57-3,3.52-7.54,5.53-13.07,5.53-12.05,0-17.08-9-17.08-18.1,0-4.53,1.51-9.55,4.52-12.57C62.83,869.09,67.35,867.08,72.88,867.08Z" transform="translate(203.44 -27.74)"/><path class="cls-1" d="M124.12,1023.46c17.58,0,26.63-13.58,26.63-27.16s-9.05-27.15-26.63-27.15S97.49,982.73,97.49,996.3,107,1023.46,124.12,1023.46Zm0-45.26c12.06,0,17.08,9,17.08,18.1s-5.52,18.11-17.08,18.11c-12.06,0-17.08-9-17.08-18.11,0-4.52,1.51-9.55,4.52-12.57C114.07,980.21,118.59,978.2,124.12,978.2Z" transform="translate(203.44 -27.74)"/><path class="cls-1" d="M134.67,1121c17.58,0,26.62-13.58,26.62-27.16s-9-27.15-26.62-27.15S108,1080.28,108,1093.85,117.08,1121,134.67,1121Zm0-45.26c12.06,0,17.08,9,17.08,18.1s-5.53,18.1-17.08,18.1c-12.06,0-17.08-9-17.08-18.1,0-4.52,1.5-9.55,4.52-12.57C124.62,1077.76,129.14,1075.75,134.67,1075.75Z" transform="translate(203.44 -27.74)"/></svg>