<svg id="Layer_1" data-name="Layer 1" xmlns="http://www.w3.org/2000/svg" viewBox="0 0 142.01 215.31"><defs><style>.cls-1{fill:#fff;}.cls-1,.cls-2{fill-rule:evenodd;}.cls-2{fill:#1d262d;}</style></defs><path class="cls-1" d="M128.82,134.53c2-1.13,3.3-.27,4.78.47a22.71,22.71,0,0,0,.56,2.85,37.44,37.44,0,0,0,2.42,6.58c2.81,5.08,9.87,8.07,15.56,6.78a10.39,10.39,0,0,0,5.88-3.69c2.1-2.69,3.72-5.7,3.58-9.28-.1-2.77-.31-5.54-.49-8.7a15.8,15.8,0,0,1,1.42-1,19.26,19.26,0,0,1,1.93-.93,58.81,58.81,0,0,1,.39,13.28c-.5,3.64-1,7.27-1.48,10.92A47.15,47.15,0,0,1,155,173.34a26.25,26.25,0,0,1-14.5,10.13,51.39,51.39,0,0,1-28.28.23,21.82,21.82,0,0,1-8.63-4.25c-1.69-1.42-3.4-2.81-5.11-4.2a24.19,24.19,0,0,1-7.76-12.05,98.13,98.13,0,0,1-3.19-16.43c-.78-6.13-1.29-12.28-1.9-18.43a15.44,15.44,0,0,1,.08-1.94c2.36.54,4.05,1.91,6,3.1-.33,1.5-.72,2.91-.91,4.34s-.18,2.93-.24,4.4a13.34,13.34,0,0,0,4.88,10.88,29.75,29.75,0,0,0,3.16,2.39c5.13,3.45,10.26,3,15.3-.18a17.85,17.85,0,0,0,5.74-6,12,12,0,0,0,1.84-7.15c-.06-1-.1-2-.16-3.22l3.79-.32c.25,1.94.6,3.66.69,5.39.23,4.18,1.49,7.79,5.18,10a4.1,4.1,0,0,1-2,3.43c-.81.63-1.75,1.09-2.55,1.73-.59.45-1.1,1.19-.59,1.88a2.63,2.63,0,0,0,1.78,1.05c3.63,0,7.64-4.25,7.6-7.86a4,4,0,0,0-2-3.68c-2.28-1.3-3.13-3.37-3.44-5.81C129.44,138.7,129.13,136.68,128.82,134.53Zm-14.65,28.66a10.9,10.9,0,0,0,7.74,10.16,15.82,15.82,0,0,0,10-.12,11.17,11.17,0,0,0,7.19-6.65c.89-2.25-.23-4.09-2.66-4.49a11.27,11.27,0,0,0-1.75-.1c-4.39,0-8.79,0-13.18.18A29.34,29.34,0,0,0,114.17,163.19Z" transform="translate(-56.4 -40.69)"/><path class="cls-1" d="M93.56,126.75l-8.66-4.9c-.08-1.64-.15-3.22-.22-4.67,5.36-2.77,5.36-2.77,9.64-10.83,2.51,0,5.16,0,7.34-1.55a15,15,0,0,1,1.31.74c3.72,2.8,7.72,2.11,11-1.4l2.33-2.46c.76,1,1.4,1.93,2.08,2.81,3,3.8,6.53,4.25,10.31,1.24,1.14-.9,2.16-2,3.45-3.15.52.8,1,1.5,1.43,2.18a23.64,23.64,0,0,0,1.78,2.51c2.61,2.9,5.4,3.17,8.57.85.82-.6,1.55-1.32,2.22-1.91,1.17,0,1.2.86,1.53,1.45,2.48,4.5,3.26,5,8.33,5,1.05,1.16,1.95,2.61,3.25,3.43s3,1,4.57,1.48c.08.14.32.37.35.62.66,5.4,1.8,4.56-4.84,8.42-.73-.52-1.56-1.07-2.33-1.68a22.26,22.26,0,0,0-7.42-3.77A11.68,11.68,0,0,0,135,127.6c-.37.79-.68,1.61-1,2.37-4.47.68-4.6.65-7.51-1.72-1.74,1.65-3.68,3.15-6.36,2.8C110.36,119.62,102.1,121,93.56,126.75Zm46.6-9.11a35.86,35.86,0,0,0,7.63,1,1.75,1.75,0,0,0,1.29-.87,1.26,1.26,0,0,0-.8-1.73,8.79,8.79,0,0,0-6.75-.3C141,115.87,140.78,116.72,140.16,117.64Zm-32,0a1.7,1.7,0,0,0-1.38-2.19,6.27,6.27,0,0,0-6,1.94c-.14.15,0,.54,0,1C103.4,119.21,105.72,117.74,108.13,117.61Z" transform="translate(-56.4 -40.69)"/><path class="cls-1" d="M110.26,186.79c5.35,1.25,10.53,2.56,15.78,2.27,5.08-.28,10.11-1.33,15.38-2.07,1,2.55,2,5.16,3.13,7.65s2.64,4.86,4.06,7.42c-1.93,2.33-4.64,3.36-7.45,4.17a48.32,48.32,0,0,1-19.61,1.37,113.05,113.05,0,0,1-12-2.43,17.89,17.89,0,0,1-6.79-3c1.53-2.56,3.2-5,4.48-7.59C108.41,192.14,109.22,189.49,110.26,186.79Z" transform="translate(-56.4 -40.69)"/><path class="cls-1" d="M61,240.11v-3a5.86,5.86,0,0,1,1.46-.06c3.41.88,6.77,2,10.22,2.65a162.42,162.42,0,0,0,32.05,2.48c11.47-.17,22.94-.32,34.4-.73a313.39,313.39,0,0,0,32.94-3c6.11-.87,12.21-1.8,18.32-2.68a6.1,6.1,0,0,1,1.31.11c.86,1.38.78,2.77.37,4.51-3.14.58-6.28,1.29-9.45,1.73-13.84,1.89-27.72,3.45-41.67,4.24-1.91.11-3.82.23-5.73.23-11.62,0-23.25.22-34.86-.09-10.28-.28-20.56-1-30.64-3.3A30.16,30.16,0,0,1,61,240.11Z" transform="translate(-56.4 -40.69)"/><path class="cls-1" d="M94.08,137.12a32.17,32.17,0,0,1,.42-3.92c.58-2.55,1.88-4.59,4.55-5.46,1.53-.49,3.06-1,4.57-1.53a7.13,7.13,0,0,1,6.31.77c4.59,2.68,7.6,6.37,7.73,11.92a6.12,6.12,0,0,1-.33,2.57c-1.88,4.25-4.91,7.24-9.59,8.23a8.6,8.6,0,0,1-6.36-1c-.62-.37-1.26-.74-1.86-1.16C96,145,93.69,141.76,94.08,137.12ZM109,139.47a38.43,38.43,0,0,0-.72-3.78,2.57,2.57,0,0,0-2.11-1.95,2.71,2.71,0,0,0-2.78,1.66,7.56,7.56,0,0,0,.3,6.31,2.4,2.4,0,0,0,4,.53A10.21,10.21,0,0,0,109,139.47Z" transform="translate(-56.4 -40.69)"/><path class="cls-1" d="M146,124.53c3.64,0,6.44.9,8.32,3.8.62,1,1.5,1.8,2.14,2.78a11.6,11.6,0,0,1-.15,12.8,7.64,7.64,0,0,1-5,3.29c-6.79,1.33-12.31-2-13.74-9.95a21.42,21.42,0,0,1-.15-5.25c.29-4.42,2.73-6.84,7.19-7.34Zm3.19,12.06a10.67,10.67,0,0,0-.7-2.79,4,4,0,0,0-1.95-1.51c-.76-.3-2,.67-2.36,1.61a6.24,6.24,0,0,0,.52,5.08c.41.84,1.1,1.61,2,1.39a3.82,3.82,0,0,0,2-1.5A6.62,6.62,0,0,0,149.23,136.59Z" transform="translate(-56.4 -40.69)"/><path class="cls-1" d="M94.29,207.56c1.82-1,3.23-1.75,4.65-2.5a5.67,5.67,0,0,1,1.09-.27,49.61,49.61,0,0,0,12.85,5.06c9.13,2.19,18.28,2.73,27.48.56a22.92,22.92,0,0,0,9.56-4.31c.54-.45,1.16-.83,1.88-1.32l4.38,2.45c-1.19,2.39-3.37,3.33-5.38,4.39a50.68,50.68,0,0,1-28.08,5.64c-9.77-.73-18.51-4.27-27.09-8.53A9.87,9.87,0,0,1,94.29,207.56Z" transform="translate(-56.4 -40.69)"/><path class="cls-1" d="M83,131.77c-2.08-.92-3.5-1.64-5-2.16-.35-.12-1,.3-1.37.66a1.21,1.21,0,0,0,.16,1.16c.61.61,1.4,1,2,1.62,1.29,1.18,2.54,2.41,3.78,3.63a4,4,0,0,1,1.15,2.77c.17,3.2.4,6.39.6,9.47-.8,1-1.68.68-2.5.46-10.48-2.88-13.51-14.92-9.47-22.74,1.81-3.49,4.91-4.72,8-3.24a3.54,3.54,0,0,1,2.27,3C82.75,128,82.85,129.58,83,131.77Z" transform="translate(-56.4 -40.69)"/><path class="cls-1" d="M169.75,122.43a5.34,5.34,0,0,1,5.32.11,7.67,7.67,0,0,1,3.7,5.25c1.14,6.16-.15,11.68-4.82,16.09a26.11,26.11,0,0,1-3.92,2.81,10.46,10.46,0,0,1-2.11.76,23.24,23.24,0,0,1,.17-6.81,8.55,8.55,0,0,1,1.6-3.53c1.49-2.17,3.19-4.19,4.74-6.32a1.22,1.22,0,0,0-.06-1.17,1.37,1.37,0,0,0-1.15-.4,6,6,0,0,0-1.92.95c-.8.58-1.5,1.29-2.63,2.29C168.32,128.69,168.3,125.58,169.75,122.43Z" transform="translate(-56.4 -40.69)"/><path class="cls-1" d="M70,232a2.31,2.31,0,0,1-2.16,2.24,2.34,2.34,0,0,1-2.56-2.28,2.24,2.24,0,0,1,2.11-2.27A2.47,2.47,0,0,1,70,232Z" transform="translate(-56.4 -40.69)"/><path class="cls-1" d="M181.85,232a2.27,2.27,0,1,1-4.51-.43,2.29,2.29,0,0,1,2.47-2A2.26,2.26,0,0,1,181.85,232Z" transform="translate(-56.4 -40.69)"/><path class="cls-1" d="M78.49,236.31a2.26,2.26,0,0,1-2-2.74,2,2,0,0,1,2-1.86,2.55,2.55,0,0,1,2.38,2.58A2.14,2.14,0,0,1,78.49,236.31Z" transform="translate(-56.4 -40.69)"/><path class="cls-1" d="M154,231.88a2.34,2.34,0,0,1,2.1,2.31,2.15,2.15,0,0,1-2.29,2.06,2.11,2.11,0,0,1-2.08-2.25A2.28,2.28,0,0,1,154,231.88Z" transform="translate(-56.4 -40.69)"/><path class="cls-1" d="M128.64,235.62a2.21,2.21,0,0,1-2.15,2.28,2,2,0,0,1-2-1.84,2.38,2.38,0,0,1,2.12-2.38A2.32,2.32,0,0,1,128.64,235.62Z" transform="translate(-56.4 -40.69)"/><path class="cls-1" d="M168.73,233.6a2.17,2.17,0,0,1-2.27,2.08,2.34,2.34,0,0,1-2.1-2.31,2.27,2.27,0,0,1,2.33-2.05A2.12,2.12,0,0,1,168.73,233.6Z" transform="translate(-56.4 -40.69)"/><path class="cls-1" d="M140.21,238.09a2.08,2.08,0,0,1-2.16-2.21,2.25,2.25,0,0,1,2-1.94,2,2,0,0,1,2.11,2.26A1.91,1.91,0,0,1,140.21,238.09Z" transform="translate(-56.4 -40.69)"/><path class="cls-1" d="M115.64,236a2.43,2.43,0,0,1-2.23,2.57,1.94,1.94,0,0,1-1.86-1.94,2.33,2.33,0,0,1,2.48-1.88C114.71,234.93,115.24,235.68,115.64,236Z" transform="translate(-56.4 -40.69)"/><path class="cls-1" d="M102.25,237.17a2,2,0,0,1-2.18,1.69,2.23,2.23,0,0,1-2-2.45,2,2,0,0,1,2-1.45A2.14,2.14,0,0,1,102.25,237.17Z" transform="translate(-56.4 -40.69)"/><path class="cls-1" d="M89.94,234.31a1.8,1.8,0,0,1,1.71,2.05,2,2,0,0,1-2.29,1.48,1.91,1.91,0,0,1-1.75-2.05A2.13,2.13,0,0,1,89.94,234.31Z" transform="translate(-56.4 -40.69)"/><path class="cls-1" d="M117.8,165c5.75-.09,11-.18,16.25-.24a7.89,7.89,0,0,1,1.6.28c.46,1.6-.52,2.37-1.33,3.15a8.93,8.93,0,0,1-5.48,2.53,12.94,12.94,0,0,1-7.7-1.14C119.66,168.78,119.14,168.09,117.8,165Z" transform="translate(-56.4 -40.69)"/><path class="cls-2" d="M69.77,90a12.62,12.62,0,0,1,.06-12c1.87-3.69,3.68-7.48,8.42-8.5.08-.88.18-1.58.2-2.28a19,19,0,0,1,4.72-11.64c3.48-4.2,7.22-5,12.17-2.62.66.31,1.28.69,2,1.07A35.61,35.61,0,0,1,110,43.14a21.1,21.1,0,0,1,10.17-2.45,12,12,0,0,1,10.38,5.64c.57.83,1.07,1.71,1.68,2.68a29.65,29.65,0,0,1,12.23-1.78,29,29,0,0,1,3.94.43c5.08.93,8.61,3.59,9.64,8.93a8.92,8.92,0,0,0,.42,1.11,21.68,21.68,0,0,0,2.81.26c7-.22,12.22,3.3,14.33,10a29.79,29.79,0,0,1,1,6c.17,1.74,0,3.52,0,5.4,1.05.63,2,1.21,3,1.83a11.78,11.78,0,0,1,5.16,13.37,30.63,30.63,0,0,1-1.49,4.15,3.63,3.63,0,0,0,.55,4.07c3.75,4.81,3.72,5.26.3,10.37-.25.36-.45.74-.68,1.13a22.5,22.5,0,0,1,1.77,4.37A8.14,8.14,0,0,1,185,123c-.56,1.43-1.82,2.58-2.89,4,2.14,12.53-3.44,20.76-15,25.33-.33,1.16-.66,2.13-.87,3.13-1.41,6.56-4.39,12.44-7.73,18.17-2.19,3.74-5.42,6.58-8.57,9.43a23.37,23.37,0,0,1-4.4,2.56c1.6,10.49,7.58,17.33,17.23,19.67a83.61,83.61,0,0,1,18.77,7.52,28.77,28.77,0,0,1,8.76,7.29,18.29,18.29,0,0,1,4.23,8.63c1.35,7.81,2.57,15.64,3.81,23.47a15,15,0,0,1,0,2.12c-1.73.9-3.38.57-5,.59-16.47.13-32.94.2-49.41.33q-36.61.3-73.22.65L56.92,256a11.56,11.56,0,0,1-.51-2.34,153.19,153.19,0,0,1,1.83-26.8,16,16,0,0,1,7.06-11.22A47.32,47.32,0,0,1,73,211.43a180.19,180.19,0,0,1,16.83-6.55c8.42-2.61,13.21-8.36,15.73-16.43.31-1,.55-2,.87-3.13-.86-.58-1.69-1.16-2.54-1.69s-1.79-1-2.66-1.55c-7.78-4.79-12.88-11.48-14.7-20.53-.51-2.58-1-5.16-1.61-8-7.37-.89-13.07-4.33-16-11.33-2.82-6.71-1.82-13.22,1.82-19.51-.84-.4-1.51-.68-2.14-1-3.07-1.71-3.93-3.48-3.18-6.9a40.11,40.11,0,0,1,1.51-4.37c-4.08-5.37-2.57-10.9.24-16.36C67.84,92.76,68.75,91.59,69.77,90Zm59.05,44.52c.31,2.15.62,4.17.87,6.21.31,2.44,1.16,4.51,3.44,5.81a4,4,0,0,1,2,3.68c0,3.61-4,7.86-7.6,7.86a2.63,2.63,0,0,1-1.78-1.05c-.51-.69,0-1.43.59-1.88.8-.64,1.74-1.1,2.55-1.73a4.1,4.1,0,0,0,2-3.43c-3.69-2.19-5-5.8-5.18-10-.09-1.73-.44-3.45-.69-5.39l-3.79.32c.06,1.24.1,2.23.16,3.22a12,12,0,0,1-1.84,7.15,17.85,17.85,0,0,1-5.74,6c-5,3.17-10.17,3.63-15.3.18a29.75,29.75,0,0,1-3.16-2.39,13.34,13.34,0,0,1-4.88-10.88c.06-1.47,0-3,.24-4.4s.58-2.84.91-4.34c-1.93-1.19-3.62-2.56-6-3.1a15.44,15.44,0,0,0-.08,1.94c.61,6.15,1.12,12.3,1.9,18.43a98.13,98.13,0,0,0,3.19,16.43,24.19,24.19,0,0,0,7.76,12.05c1.71,1.39,3.42,2.78,5.11,4.2a21.82,21.82,0,0,0,8.63,4.25,51.39,51.39,0,0,0,28.28-.23A26.25,26.25,0,0,0,155,173.34a47.15,47.15,0,0,0,8.37-21.57c.45-3.65,1-7.28,1.48-10.92a58.81,58.81,0,0,0-.39-13.28,19.26,19.26,0,0,0-1.93.93,15.8,15.8,0,0,0-1.42,1c.18,3.16.39,5.93.49,8.7.14,3.58-1.48,6.59-3.58,9.28a10.39,10.39,0,0,1-5.88,3.69c-5.69,1.29-12.75-1.7-15.56-6.78a37.44,37.44,0,0,1-2.42-6.58,22.71,22.71,0,0,1-.56-2.85C132.12,134.26,130.86,133.4,128.82,134.53Zm-35.26-7.78c8.54-5.77,16.8-7.13,26.51,4.3,2.68.35,4.62-1.15,6.36-2.8,2.91,2.37,3,2.4,7.51,1.72.33-.76.64-1.58,1-2.37a11.68,11.68,0,0,1,14.63-6.49,22.26,22.26,0,0,1,7.42,3.77c.77.61,1.6,1.16,2.33,1.68,6.64-3.86,5.5-3,4.84-8.42,0-.25-.27-.48-.35-.62-1.6-.48-3.28-.66-4.57-1.48s-2.2-2.27-3.25-3.43c-5.07,0-5.85-.45-8.33-5-.33-.59-.36-1.49-1.53-1.45-.67.59-1.4,1.31-2.22,1.91-3.17,2.32-6,2-8.57-.85a23.64,23.64,0,0,1-1.78-2.51c-.47-.68-.91-1.38-1.43-2.18-1.29,1.19-2.31,2.25-3.45,3.15-3.78,3-7.35,2.56-10.31-1.24-.68-.88-1.32-1.79-2.08-2.81L114,104.14c-3.28,3.51-7.28,4.2-11,1.4a15,15,0,0,0-1.31-.74c-2.18,1.57-4.83,1.57-7.34,1.55-4.28,8.06-4.28,8.06-9.64,10.83.07,1.45.14,3,.22,4.67Zm16.7,60c-1,2.7-1.85,5.35-3.06,7.81-1.28,2.61-3,5-4.48,7.59a17.89,17.89,0,0,0,6.79,3,113.05,113.05,0,0,0,12,2.43,48.32,48.32,0,0,0,19.61-1.37c2.81-.81,5.52-1.84,7.45-4.17-1.42-2.56-2.88-4.93-4.06-7.42s-2.1-5.1-3.13-7.65c-5.27.74-10.3,1.79-15.38,2.07C120.79,189.35,115.61,188,110.26,186.79ZM61,240.11a30.16,30.16,0,0,0,8.72,3.08c10.08,2.31,20.36,3,30.64,3.3,11.61.31,23.24.1,34.86.09,1.91,0,3.82-.12,5.73-.23,14-.79,27.83-2.35,41.67-4.24,3.17-.44,6.31-1.15,9.45-1.73.41-1.74.49-3.13-.37-4.51a6.1,6.1,0,0,0-1.31-.11c-6.11.88-12.21,1.81-18.32,2.68a313.39,313.39,0,0,1-32.94,3c-11.46.41-22.93.56-34.4.73a162.42,162.42,0,0,1-32-2.48c-3.45-.63-6.81-1.77-10.22-2.65a5.86,5.86,0,0,0-1.46.06Zm33.08-103c-.39,4.64,1.87,7.86,5.44,10.39.6.42,1.24.79,1.86,1.16a8.6,8.6,0,0,0,6.36,1c4.68-1,7.71-4,9.59-8.23a6.12,6.12,0,0,0,.33-2.57c-.13-5.55-3.14-9.24-7.73-11.92a7.13,7.13,0,0,0-6.31-.77c-1.51.54-3,1-4.57,1.53-2.67.87-4,2.91-4.55,5.46A32.17,32.17,0,0,0,94.08,137.12Zm52-12.59-1.35.13c-4.46.5-6.9,2.92-7.19,7.34a21.42,21.42,0,0,0,.15,5.25c1.43,8,6.95,11.28,13.74,9.95a7.64,7.64,0,0,0,5-3.29,11.6,11.6,0,0,0,.15-12.8c-.64-1-1.52-1.8-2.14-2.78C152.48,125.43,149.68,124.54,146,124.53Zm-51.75,83a9.87,9.87,0,0,0,1.34,1.17c8.58,4.26,17.32,7.8,27.09,8.53a50.68,50.68,0,0,0,28.08-5.64c2-1.06,4.19-2,5.38-4.39l-4.38-2.45c-.72.49-1.34.87-1.88,1.32a22.92,22.92,0,0,1-9.56,4.31c-9.2,2.17-18.35,1.63-27.48-.56A49.61,49.61,0,0,1,100,204.79a5.67,5.67,0,0,0-1.09.27C97.52,205.81,96.11,206.58,94.29,207.56ZM83,131.77c-.14-2.19-.24-3.78-.34-5.38a3.54,3.54,0,0,0-2.27-3c-3.08-1.48-6.18-.25-8,3.24-4,7.82-1,19.86,9.47,22.74.82.22,1.7.5,2.5-.46-.2-3.08-.43-6.27-.6-9.47a4,4,0,0,0-1.15-2.77c-1.24-1.22-2.49-2.45-3.78-3.63-.64-.58-1.43-1-2-1.62a1.21,1.21,0,0,1-.16-1.16c.33-.36,1-.78,1.37-.66C79.49,130.13,80.91,130.85,83,131.77Zm86.76-9.34c-1.45,3.15-1.43,6.26-1.08,10,1.13-1,1.83-1.71,2.63-2.29a6,6,0,0,1,1.92-.95,1.37,1.37,0,0,1,1.15.4,1.22,1.22,0,0,1,.06,1.17c-1.55,2.13-3.25,4.15-4.74,6.32a8.55,8.55,0,0,0-1.6,3.53,23.24,23.24,0,0,0-.17,6.81,10.46,10.46,0,0,0,2.11-.76,26.11,26.11,0,0,0,3.92-2.81c4.67-4.41,6-9.93,4.82-16.09a7.67,7.67,0,0,0-3.7-5.25A5.34,5.34,0,0,0,169.75,122.43ZM70,232a2.47,2.47,0,0,0-2.61-2.31,2.24,2.24,0,0,0-2.11,2.27,2.34,2.34,0,0,0,2.56,2.28A2.31,2.31,0,0,0,70,232Zm111.87,0a2.26,2.26,0,0,0-2-2.38,2.29,2.29,0,0,0-2.47,2,2.27,2.27,0,1,0,4.51.43ZM78.49,236.31a2.14,2.14,0,0,0,2.34-2,2.55,2.55,0,0,0-2.38-2.58,2,2,0,0,0-2,1.86A2.26,2.26,0,0,0,78.49,236.31ZM154,231.88a2.28,2.28,0,0,0-2.27,2.12,2.11,2.11,0,0,0,2.08,2.25,2.15,2.15,0,0,0,2.29-2.06A2.34,2.34,0,0,0,154,231.88Zm-25.38,3.74a2.32,2.32,0,0,0-2.08-1.94,2.38,2.38,0,0,0-2.12,2.38,2,2,0,0,0,2,1.84A2.21,2.21,0,0,0,128.64,235.62Zm40.09-2a2.12,2.12,0,0,0-2-2.28,2.27,2.27,0,0,0-2.33,2.05,2.34,2.34,0,0,0,2.1,2.31A2.17,2.17,0,0,0,168.73,233.6Zm-28.52,4.49a1.91,1.91,0,0,0,2-1.89,2,2,0,0,0-2.11-2.26,2.25,2.25,0,0,0-2,1.94A2.08,2.08,0,0,0,140.21,238.09ZM115.64,236c-.4-.33-.93-1.08-1.61-1.25a2.33,2.33,0,0,0-2.48,1.88,1.94,1.94,0,0,0,1.86,1.94A2.43,2.43,0,0,0,115.64,236Zm-13.39,1.16a2.14,2.14,0,0,0-2.2-2.21,2,2,0,0,0-2,1.45,2.23,2.23,0,0,0,2,2.45A2,2,0,0,0,102.25,237.17Zm-12.31-2.86a2.13,2.13,0,0,0-2.33,1.48,1.91,1.91,0,0,0,1.75,2.05,2,2,0,0,0,2.29-1.48A1.8,1.8,0,0,0,89.94,234.31Z" transform="translate(-56.4 -40.69)"/><path class="cls-2" d="M114.17,163.19a29.34,29.34,0,0,1,7.29-1c4.39-.13,8.79-.13,13.18-.18a11.27,11.27,0,0,1,1.75.1c2.43.4,3.55,2.24,2.66,4.49a11.17,11.17,0,0,1-7.19,6.65,15.82,15.82,0,0,1-10,.12A10.9,10.9,0,0,1,114.17,163.19ZM117.8,165c1.34,3.08,1.86,3.77,3.34,4.58a12.94,12.94,0,0,0,7.7,1.14,8.93,8.93,0,0,0,5.48-2.53c.81-.78,1.79-1.55,1.33-3.15a7.89,7.89,0,0,0-1.6-.28C128.8,164.83,123.55,164.92,117.8,165Z" transform="translate(-56.4 -40.69)"/><path class="cls-2" d="M140.16,117.64c.62-.92.88-1.77,1.37-1.94a8.79,8.79,0,0,1,6.75.3,1.26,1.26,0,0,1,.8,1.73,1.75,1.75,0,0,1-1.29.87A35.86,35.86,0,0,1,140.16,117.64Z" transform="translate(-56.4 -40.69)"/><path class="cls-2" d="M108.13,117.61c-2.41.13-4.73,1.6-7.35.77,0-.48-.12-.87,0-1a6.27,6.27,0,0,1,6-1.94A1.7,1.7,0,0,1,108.13,117.61Z" transform="translate(-56.4 -40.69)"/><path class="cls-2" d="M109,139.47a10.21,10.21,0,0,1-1.31,2.77,2.4,2.4,0,0,1-4-.53,7.56,7.56,0,0,1-.3-6.31,2.71,2.71,0,0,1,2.78-1.66,2.57,2.57,0,0,1,2.11,1.95A38.43,38.43,0,0,1,109,139.47Z" transform="translate(-56.4 -40.69)"/><path class="cls-2" d="M149.23,136.59a6.62,6.62,0,0,1-.52,2.28,3.82,3.82,0,0,1-2,1.5c-.9.22-1.59-.55-2-1.39a6.24,6.24,0,0,1-.52-5.08c.33-.94,1.6-1.91,2.36-1.61a4,4,0,0,1,1.95,1.51A10.67,10.67,0,0,1,149.23,136.59Z" transform="translate(-56.4 -40.69)"/></svg>