<svg id="Layer_1" data-name="Layer 1" xmlns="http://www.w3.org/2000/svg" viewBox="0 0 158.03 217.7"><defs><style>.cls-1{fill:#fff;}.cls-1,.cls-2{fill-rule:evenodd;}.cls-2{fill:#1d262d;}</style></defs><path class="cls-1" d="M118.2,88.59c.62,1,1,1.7,1.4,2.39a31.81,31.81,0,0,0,12.73,13c3,1.71,5.85,3.71,8.8,5.52,2.55,1.57,5.09,3.17,7.74,4.56,3.72,2,6.46,4.89,9.14,8.06,6.27,7.47,7.24,16.22,6.57,25.4-.36,4.89-1.18,9.67-3.63,14.08a31.76,31.76,0,0,1-8.89,10.31c-1.9,1.4-3.86,2.73-5.81,4.06-5.05,3.41-10.93,4.07-16.71,4.54-4.53.37-9.13-.14-13.69-.3a20,20,0,0,1-9-2.71c-3.42-1.92-7.35-3-10.2-5.88a49.29,49.29,0,0,1-4.25-4.43,45.24,45.24,0,0,1-8.16-17.41,29.5,29.5,0,0,1-.56-4.19,43.39,43.39,0,0,0-.21-4.72,13.32,13.32,0,0,1,2.27-10.29c2.94-4.47,5.63-9.14,8.89-13.38,4.23-5.5,8.92-10.64,13.38-16,2.43-2.89,4.81-5.84,7.19-8.78C116.17,91.28,117.08,90.05,118.2,88.59ZM114,155.77c-.68,3.26.73,5.34,2.31,7.3a9.49,9.49,0,0,0,5.94,3.5c5.78,1,13.6-3.34,15.84-8.79a2.42,2.42,0,0,0-2-3.51,27.2,27.2,0,0,0-4.69-.07q-7.51.44-15,1A16,16,0,0,0,114,155.77Zm18.51-13.86c-1.75,1.74-3.11,3-4.36,4.41a1.4,1.4,0,0,0,.08,1.28,1.43,1.43,0,0,0,1.15.58,9.87,9.87,0,0,0,6.4-4.43,3.2,3.2,0,0,0-.52-4.29,16.38,16.38,0,0,0-2.56-2.06,6.72,6.72,0,0,1-3.1-5.51,43.91,43.91,0,0,0-.76-5.59c-.08-.41-.84-.82-1.35-.94-.25-.06-.91.54-1,.9-.19,1.71-.23,3.43-.34,5.15a8.94,8.94,0,0,0,4,8.51A28.37,28.37,0,0,1,132.5,141.91Zm16.4-7.5a17.88,17.88,0,0,0-1-2.69,2.05,2.05,0,0,0-3.49-.25,6.54,6.54,0,0,0-.07,7.38,2.22,2.22,0,0,0,3.28.2C148.75,138,149,136.66,148.9,134.41Zm-47,1.09c.23,1.18.34,2.11.6,3a2.22,2.22,0,0,0,2.07,1.6,2.18,2.18,0,0,0,2.35-1.18,7,7,0,0,0,0-6.31,2,2,0,0,0-2.32-1.19,3.09,3.09,0,0,0-1.83,1.19A12.24,12.24,0,0,0,101.89,135.5Zm43.51-18.06a6.13,6.13,0,0,0,1.83.32c.53-.1,1.29-.34,1.47-.74.41-.92-.41-1.37-1.11-1.71a6,6,0,0,0-5.8.38,1.68,1.68,0,0,0-.59,1.52,1.77,1.77,0,0,0,1.47.68A17.93,17.93,0,0,0,145.4,117.44ZM106.89,119c-.07-.48,0-1.08-.23-1.29a4.44,4.44,0,0,0-6.53.41.9.9,0,0,0-.14.82c.25.31.68.72,1,.7C102.79,119.55,104.57,119.3,106.89,119Z" transform="translate(-44 -38.21)"/><path class="cls-1" d="M134.51,183.61c.66,2.46,1,4.5,1.74,6.41a17.56,17.56,0,0,0,5.84,8.43c3.8,2.82,7.53,5.72,11.29,8.58.73.56,1.47,1.1,2.47,1.85-3.25,3.27-7.16,4.92-11.06,6.38A59.7,59.7,0,0,1,115,218.32C105.91,217,99.83,214.6,95.35,211c0-1.19,1.1-1.38,1.8-1.9,4.43-3.29,8.91-6.51,13.31-9.84a23.3,23.3,0,0,0,9.05-13.46,9.29,9.29,0,0,1,.66-1.43c2.33,0,4.69.1,7,0S131.85,183.89,134.51,183.61Z" transform="translate(-44 -38.21)"/><path class="cls-1" d="M129.86,63.25a15.52,15.52,0,0,1-.24,2,3,3,0,0,0,1.19,3.35,26.12,26.12,0,0,0,3.59,2.26,30.93,30.93,0,0,0,11.28,3.34,29.33,29.33,0,0,1,12.39,3.93c.35.82.8,2,1.32,3.11,1.27,2.71,2.22,5.65,3.94,8,2.41,3.38,3,7.19,3.68,11,0,.24-.2.53-.42,1.08a15.17,15.17,0,0,1-3.06-4.78c-3.82-8.41-10.31-14.23-18.06-18.81a59.86,59.86,0,0,0-12.53-5.51q-18.48-5.8-34.1,5.56a104.59,104.59,0,0,0-18.55,17.5c-.89,1.06-1.81,2.09-3.34,3.84A40.29,40.29,0,0,1,81.59,86.5C87.37,76.21,96,69.07,106.83,64.63a28.36,28.36,0,0,1,9.22-1.91c2.21-.13,4.42-.22,6.62-.13S127.34,63,129.86,63.25Z" transform="translate(-44 -38.21)"/><path class="cls-1" d="M154,68.6l-5.68-2.81c0,.92-.26,1.67,0,1.94,1.15,1.22,2.44,2.3,3.76,3.52-5.46,1-14.11-1.31-19.16-5.06.85-4,3.26-7.3,5.41-10.7,1.46-2.3,2.08-2.74,4.82-4.4,1.83,1,2.92,2.75,4,4.45,2.51,4,4.91,8,7.32,12C154.56,67.68,154.25,68.06,154,68.6Z" transform="translate(-44 -38.21)"/><path class="cls-1" d="M80.16,143a5.67,5.67,0,0,1-5.27-.77,19,19,0,0,1-8.8-10.7c-1.94-5.94,1.22-11.41,7.12-12.57a7,7,0,0,1,1.58.14c2.38,3.2,3,7,3.7,10.8-1.15.88-1.45-.15-2-.57l-2.83-2.21c.42,1.74.41,2.71.86,3.38a55,55,0,0,0,4,5.27A7.74,7.74,0,0,1,80.16,143Z" transform="translate(-44 -38.21)"/><path class="cls-1" d="M168.82,140.76c-1.9-5.41.91-8.5,3.65-11.56.84-.93,1.93-1.62,2.79-2.52a1.35,1.35,0,0,0,.06-1.27,1.44,1.44,0,0,0-1.21-.52c-1.33.39-2.62.94-4.1,1.5-.36-2.79.7-5.29,1.2-7.84a2.24,2.24,0,0,1,1.8-1.13c2.66.14,4.93,1.21,6,3.8,1.77,4.22,1.7,8.32-1.45,11.94C175.12,136,172,138.09,168.82,140.76Z" transform="translate(-44 -38.21)"/><path class="cls-1" d="M168.47,90.34a28.65,28.65,0,0,1-6.89-13.5c1.68-.36,2.4,1.1,3.48,1.78.86.54,1.67.9,2.63-.14-.45-2.29-2.78-3.12-4.19-4.92.31-.26.66-.77.91-.73A38.43,38.43,0,0,1,175.68,76c.25.12.41.46.6.69C175.4,81.59,172.1,87.47,168.47,90.34Z" transform="translate(-44 -38.21)"/><path class="cls-1" d="M110.05,244.24c-.09,3-2.82,6.17-5.39,6.17s-5.73-3.7-5.48-6.6c.21-2.35,3.19-5.18,5.41-5.14C107.05,238.72,110.13,241.85,110.05,244.24Z" transform="translate(-44 -38.21)"/><path class="cls-1" d="M126.8,237.5a4.66,4.66,0,0,1-4.94-2.9,4.56,4.56,0,0,1,1.15-5.16,14.2,14.2,0,0,1,1.64-1.65,4.33,4.33,0,0,1,5.57.27,4.5,4.5,0,0,1,.63.68c1.33,1.8,2.54,3.63,1.35,6S129.07,237.6,126.8,237.5Z" transform="translate(-44 -38.21)"/><path class="cls-1" d="M88.09,231.14c-2.49,0-5.08-2.75-5-5.32s2.91-5.38,5.18-5.27c2.66.13,5.65,3,5.65,5.46S91,231.14,88.09,231.14Z" transform="translate(-44 -38.21)"/><path class="cls-1" d="M153.61,243.63a5.24,5.24,0,0,1-5.52,5.21,5.6,5.6,0,0,1-2.55-1c-1.62-1.21-2-3.39-1.16-5.6.78-2,1.87-3.68,4.32-3.8C151.44,238.26,153.52,240.48,153.61,243.63Z" transform="translate(-44 -38.21)"/><path class="cls-1" d="M80.92,245.2c0,2.52-1.16,4.12-3,4.61a4.16,4.16,0,0,1-5-2.38,10.42,10.42,0,0,1-.92-2.65A3.94,3.94,0,0,1,74.75,240a4.74,4.74,0,0,1,5.78,2.73A14.19,14.19,0,0,1,80.92,245.2Z" transform="translate(-44 -38.21)"/><path class="cls-1" d="M166.87,225.65c-.06,2.66-2.6,5.29-5.05,5.23a4.36,4.36,0,0,1-4.14-4.29c-.05-3.05,2-5.35,4.7-5.36A4.41,4.41,0,0,1,166.87,225.65Z" transform="translate(-44 -38.21)"/><path class="cls-1" d="M171.4,245.5a13,13,0,0,1,.6-2.34,4.06,4.06,0,0,1,5.48-2.06,5.39,5.39,0,0,1,2.12,7.26,4.48,4.48,0,0,1-4.83,2C172.64,249.78,171.4,248.11,171.4,245.5Z" transform="translate(-44 -38.21)"/><path class="cls-1" d="M159.09,75l-3.44-1.6c.44-1.74.77-3.23,2.25-4.33l3,1.68C160.37,72.13,159.84,73.33,159.09,75Z" transform="translate(-44 -38.21)"/><path class="cls-1" d="M117.53,158.16c1.23-.12,2-.2,2.71-.24,4.49-.26,9-.5,13.6-.75a9.82,9.82,0,0,1-6.5,5.71C123,164.33,120.19,163.13,117.53,158.16Z" transform="translate(-44 -38.21)"/><path class="cls-2" d="M150.89,178l-12.77,5.11a13.24,13.24,0,0,0,2.64,9.9,20.94,20.94,0,0,0,4.14,3.84c4.68,3.22,9.42,6.37,14.23,9.38,9.44,5.9,16.69,13.93,22.79,23.09a27.14,27.14,0,0,1,4.31,11.43,60.59,60.59,0,0,1,.65,13.92c-1.29,1.38-2.77,1.22-4.16,1.23-4.27,0-8.53,0-12.79,0q-47.86-.14-95.72-.28c-3,0-5.94-.16-9.14-.25a14.65,14.65,0,0,1-.46-2.94,66.41,66.41,0,0,1,.76-8.93c.84-4.33,2-8.61,3.22-12.84A28,28,0,0,1,81.2,214.08c2.29-1.4,4.59-2.78,7-4.05a125.25,125.25,0,0,0,21-14.49c3.58-3,6.38-6.54,7.39-11.6-3.13-1-6.28-1.83-9.3-3s-5.73-2.63-8.93-4.12c-.69.22-1.74.51-2.74.9a25.57,25.57,0,0,1-9.25,1.71c-14.26.06-27-4.17-38-13.43-.48-.4-.92-.86-1.39-1.28a7.69,7.69,0,0,1-2.21-9.41c.83-2.05,1.68-4.09,2.5-6.14A109.32,109.32,0,0,0,55,112.28c.42-13.29,3.63-25.92,8.65-38.12A60.82,60.82,0,0,1,80.3,51.4a53.15,53.15,0,0,1,28.6-12.62c5.22-.69,10.4.31,15.55,1a8.82,8.82,0,0,0,4.18-.19c7.07-2.4,14-1.59,20.84,1,3.1,1.18,6.17,2.47,8.53,5A9.84,9.84,0,0,0,159.91,47,61.34,61.34,0,0,1,183,75.7a108.56,108.56,0,0,1,7.24,26.91c.59,4.69.77,9.44,1.09,14.17a109,109,0,0,0,8.28,34.37c.6,1.46,1.16,2.93,1.74,4.4a7.57,7.57,0,0,1-2.1,9,49.24,49.24,0,0,1-18,11.1A107.48,107.48,0,0,1,167.48,179,34.76,34.76,0,0,1,150.89,178ZM118.2,88.59c-1.12,1.46-2,2.69-3,3.87-2.38,2.94-4.76,5.89-7.19,8.78-4.46,5.32-9.15,10.46-13.38,16-3.26,4.24-6,8.91-8.89,13.38a13.32,13.32,0,0,0-2.27,10.29,43.39,43.39,0,0,1,.21,4.72,29.5,29.5,0,0,0,.56,4.19,45.24,45.24,0,0,0,8.16,17.41,49.29,49.29,0,0,0,4.25,4.43c2.85,2.91,6.78,4,10.2,5.88a20,20,0,0,0,9,2.71c4.56.16,9.16.67,13.69.3,5.78-.47,11.66-1.13,16.71-4.54,1.95-1.33,3.91-2.66,5.81-4.06A31.76,31.76,0,0,0,161,161.6c2.45-4.41,3.27-9.19,3.63-14.08.67-9.18-.3-17.93-6.57-25.4-2.68-3.17-5.42-6.1-9.14-8.06-2.65-1.39-5.19-3-7.74-4.56-2.95-1.81-5.79-3.81-8.8-5.52A31.81,31.81,0,0,1,119.6,91C119.23,90.29,118.82,89.64,118.2,88.59Zm16.31,95c-2.66.28-5,.62-7.32.75s-4.69,0-7,0a9.29,9.29,0,0,0-.66,1.43,23.3,23.3,0,0,1-9.05,13.46c-4.4,3.33-8.88,6.55-13.31,9.84-.7.52-1.79.71-1.8,1.9,4.48,3.59,10.56,6,19.63,7.31a59.7,59.7,0,0,0,29.81-3.06c3.9-1.46,7.81-3.11,11.06-6.38-1-.75-1.74-1.29-2.47-1.85-3.76-2.86-7.49-5.76-11.29-8.58a17.56,17.56,0,0,1-5.84-8.43C135.55,188.11,135.17,186.07,134.51,183.61ZM129.86,63.25c-2.52-.24-4.85-.56-7.19-.66s-4.41,0-6.62.13a28.36,28.36,0,0,0-9.22,1.91C96,69.07,87.37,76.21,81.59,86.5A40.29,40.29,0,0,0,77,99.25c1.53-1.75,2.45-2.78,3.34-3.84a104.59,104.59,0,0,1,18.55-17.5q15.59-11.34,34.1-5.56a59.86,59.86,0,0,1,12.53,5.51c7.75,4.58,14.24,10.4,18.06,18.81a15.17,15.17,0,0,0,3.06,4.78c.22-.55.46-.84.42-1.08-.71-3.85-1.27-7.66-3.68-11-1.72-2.4-2.67-5.34-3.94-8-.52-1.13-1-2.29-1.32-3.11a29.33,29.33,0,0,0-12.39-3.93A30.93,30.93,0,0,1,134.4,70.9a26.12,26.12,0,0,1-3.59-2.26,3,3,0,0,1-1.19-3.35A15.52,15.52,0,0,0,129.86,63.25ZM154,68.6c.24-.54.55-.92.46-1.07-2.41-4-4.81-8-7.32-12-1.08-1.7-2.17-3.47-4-4.45-2.74,1.66-3.36,2.1-4.82,4.4-2.15,3.4-4.56,6.7-5.41,10.7,5.05,3.75,13.7,6,19.16,5.06-1.32-1.22-2.61-2.3-3.76-3.52-.25-.27,0-1,0-1.94ZM80.16,143a7.74,7.74,0,0,0-1.65-7.23,55,55,0,0,1-4-5.27c-.45-.67-.44-1.64-.86-3.38l2.83,2.21c.53.42.83,1.45,2,.57-.66-3.78-1.32-7.6-3.7-10.8a7,7,0,0,0-1.58-.14c-5.9,1.16-9.06,6.63-7.12,12.57a19,19,0,0,0,8.8,10.7A5.67,5.67,0,0,0,80.16,143Zm88.66-2.26c3.2-2.67,6.3-4.77,8.77-7.6,3.15-3.62,3.22-7.72,1.45-11.94-1.1-2.59-3.37-3.66-6-3.8a2.24,2.24,0,0,0-1.8,1.13c-.5,2.55-1.56,5-1.2,7.84,1.48-.56,2.77-1.11,4.1-1.5a1.44,1.44,0,0,1,1.21.52,1.35,1.35,0,0,1-.06,1.27c-.86.9-1.95,1.59-2.79,2.52C169.73,132.26,166.92,135.35,168.82,140.76Zm-.35-50.42c3.63-2.87,6.93-8.75,7.81-13.69-.19-.23-.35-.57-.6-.69a38.43,38.43,0,0,0-11.27-3.13c-.25,0-.6.47-.91.73,1.41,1.8,3.74,2.63,4.19,4.92-1,1-1.77.68-2.63.14-1.08-.68-1.8-2.14-3.48-1.78A28.65,28.65,0,0,0,168.47,90.34Zm-58.42,153.9c.08-2.39-3-5.52-5.46-5.57-2.22,0-5.2,2.79-5.41,5.14-.25,2.9,2.82,6.61,5.48,6.6S110,247.28,110.05,244.24Zm16.75-6.74c2.27.1,4.26-.5,5.4-2.77s0-4.19-1.35-6a4.5,4.5,0,0,0-.63-.68,4.33,4.33,0,0,0-5.57-.27,14.2,14.2,0,0,0-1.64,1.65,4.56,4.56,0,0,0-1.15,5.16A4.66,4.66,0,0,0,126.8,237.5Zm-38.71-6.36c2.91,0,5.82-2.57,5.82-5.13s-3-5.33-5.65-5.46c-2.27-.11-5.11,2.78-5.18,5.27S85.6,231.14,88.09,231.14Zm65.52,12.49c-.09-3.15-2.17-5.37-4.91-5.23-2.45.12-3.54,1.82-4.32,3.8-.88,2.21-.46,4.39,1.16,5.6a5.6,5.6,0,0,0,2.55,1A5.24,5.24,0,0,0,153.61,243.63ZM80.92,245.2a14.19,14.19,0,0,0-.39-2.45A4.74,4.74,0,0,0,74.75,240,3.94,3.94,0,0,0,72,244.78a10.42,10.42,0,0,0,.92,2.65,4.16,4.16,0,0,0,5,2.38C79.76,249.32,80.87,247.72,80.92,245.2Zm86-19.55a4.41,4.41,0,0,0-4.49-4.42c-2.74,0-4.75,2.31-4.7,5.36a4.36,4.36,0,0,0,4.14,4.29C164.27,230.94,166.81,228.31,166.87,225.65Zm4.53,19.85c0,2.61,1.24,4.28,3.37,4.9a4.48,4.48,0,0,0,4.83-2,5.39,5.39,0,0,0-2.12-7.26,4.06,4.06,0,0,0-5.48,2.06A13,13,0,0,0,171.4,245.5ZM159.09,75c.75-1.71,1.28-2.91,1.86-4.25l-3-1.68c-1.48,1.1-1.81,2.59-2.25,4.33Z" transform="translate(-44 -38.21)"/><path class="cls-2" d="M114,155.77a16,16,0,0,1,2.43-.57q7.5-.55,15-1a27.2,27.2,0,0,1,4.69.07,2.42,2.42,0,0,1,2,3.51c-2.24,5.45-10.06,9.79-15.84,8.79a9.49,9.49,0,0,1-5.94-3.5C114.72,161.11,113.31,159,114,155.77Zm3.54,2.39c2.66,5,5.43,6.17,9.81,4.72a9.82,9.82,0,0,0,6.5-5.71c-4.61.25-9.11.49-13.6.75C119.5,158,118.76,158,117.53,158.16Z" transform="translate(-44 -38.21)"/><path class="cls-2" d="M132.5,141.91a28.37,28.37,0,0,0-2.3-2,8.94,8.94,0,0,1-4-8.51c.11-1.72.15-3.44.34-5.15,0-.36.7-1,1-.9.51.12,1.27.53,1.35.94a43.91,43.91,0,0,1,.76,5.59,6.72,6.72,0,0,0,3.1,5.51,16.38,16.38,0,0,1,2.56,2.06,3.2,3.2,0,0,1,.52,4.29,9.87,9.87,0,0,1-6.4,4.43,1.43,1.43,0,0,1-1.15-.58,1.4,1.4,0,0,1-.08-1.28C129.39,144.94,130.75,143.65,132.5,141.91Z" transform="translate(-44 -38.21)"/><path class="cls-2" d="M148.9,134.41c.07,2.25-.15,3.59-1.27,4.64a2.22,2.22,0,0,1-3.28-.2,6.54,6.54,0,0,1,.07-7.38,2.05,2.05,0,0,1,3.49.25A17.88,17.88,0,0,1,148.9,134.41Z" transform="translate(-44 -38.21)"/><path class="cls-2" d="M101.89,135.5a12.24,12.24,0,0,1,.82-2.88,3.09,3.09,0,0,1,1.83-1.19,2,2,0,0,1,2.32,1.19,7,7,0,0,1,0,6.31,2.18,2.18,0,0,1-2.35,1.18,2.22,2.22,0,0,1-2.07-1.6C102.23,137.61,102.12,136.68,101.89,135.5Z" transform="translate(-44 -38.21)"/><path class="cls-2" d="M145.4,117.44a17.93,17.93,0,0,1-2.73.45,1.77,1.77,0,0,1-1.47-.68,1.68,1.68,0,0,1,.59-1.52,6,6,0,0,1,5.8-.38c.7.34,1.52.79,1.11,1.71-.18.4-.94.64-1.47.74A6.13,6.13,0,0,1,145.4,117.44Z" transform="translate(-44 -38.21)"/><path class="cls-2" d="M106.89,119c-2.32.26-4.1.51-5.89.64-.33,0-.76-.39-1-.7a.9.9,0,0,1,.14-.82,4.44,4.44,0,0,1,6.53-.41C106.91,118,106.82,118.56,106.89,119Z" transform="translate(-44 -38.21)"/></svg>