<svg id="Layer_1" data-name="Layer 1" xmlns="http://www.w3.org/2000/svg" viewBox="0 0 152.78 219.87"><defs><style>.cls-1{fill:#fff;}.cls-1,.cls-2{fill-rule:evenodd;}.cls-2{fill:#1d262d;}</style></defs><path class="cls-1" d="M163.34,218.83c.56,6.43,1.15,12.87,1.61,19.31.29,4.11.43,8.23.57,12.35l1.64-.15,2.3-.19c-.54-8.4-1-16.8-1.72-25.18-.5-5.8-1.53-11.56-2.39-17.32-.13-.9-.34-1.92-1.53-2.12-.84-.14-1.64.95-1.52,2.48C162.58,211.62,163,215.22,163.34,218.83Z" transform="translate(-47.9 -35.13)"/><path class="cls-1" d="M152.09,249.89c0,.61,0,1.23,0,1.84l6.48-.62a1.69,1.69,0,0,1,0-.23,228.67,228.67,0,0,0-2.14-29.7c-.44-3.27-1.26-6.49-1.91-9.73a9.25,9.25,0,0,0-.41-1.36c-.59-1.47-1.83-2.44-2.77-2.1a3.21,3.21,0,0,0-2.22,2.81,14.49,14.49,0,0,0,.22,3.28A271.58,271.58,0,0,1,152.09,249.89Z" transform="translate(-47.9 -35.13)"/><path class="cls-1" d="M176,239.68c.2,3.3.25,6.6.31,9.91q3.25-.27,6.51-.45c-.61-9.82-1.18-19.65-1.83-29.47-.16-2.51-.71-5-.9-7.5a5.73,5.73,0,0,0-5.09-5.73c-1.23.82-1.14,1.94-1.06,3.05C174.6,219.55,175.34,229.62,176,239.68Z" transform="translate(-47.9 -35.13)"/><path class="cls-1" d="M133.22,246.51a31.21,31.21,0,0,1,0,7l4.26-.39c-.28-2.26-.08-4.37-.23-6.45-.18-2.67-.32-5.35-.51-8-.19-2.83-.39-5.67-.62-8.49-.22-2.67-.46-5.35-.74-8s-.65-5.26-1-7.79c-1.46-.67-2.5-.34-2.71,1a21.77,21.77,0,0,0-.11,4.71C132.09,228.89,132.7,237.69,133.22,246.51Z" transform="translate(-47.9 -35.13)"/><path class="cls-1" d="M71,250.35c0-12.75-.2-25.51,1-38.23.18-2,.58-4.05-.55-6.17-2.16,0-3.73.72-4.26,2.87a46.92,46.92,0,0,0-1.47,7.39c-.48,5.81-.78,11.64-1,17.47-.23,5.49-.34,11-.51,16.48C66.38,250.2,68.66,250.26,71,250.35Z" transform="translate(-47.9 -35.13)"/><path class="cls-1" d="M117.83,248.89a16.61,16.61,0,0,1-.21,4.94l6.16.53,1.32-.1a23.9,23.9,0,0,1-.39-2.71c-.51-9-.94-18-1.48-26.91a72.58,72.58,0,0,0-.9-7.51c-.4-2.45-.72-2.63-3.51-2.75a3.86,3.86,0,0,0-1.12.33c-1.12,2.23-.74,4.77-.67,7.24C117.28,230.93,117.61,239.91,117.83,248.89Z" transform="translate(-47.9 -35.13)"/><path class="cls-1" d="M90.71,251.54l7,.57c0-.27,0-.55,0-.82q-.5-19.38-.94-38.77c0-.63-.06-1.27,0-1.9,0-2.59-1.1-4.17-3.81-4.52a2.8,2.8,0,0,0-1.62,2.6,49.88,49.88,0,0,0-.35,5.19c-.11,11.5-.15,23-.28,34.52C90.6,249.43,90.72,250.47,90.71,251.54Z" transform="translate(-47.9 -35.13)"/><path class="cls-1" d="M104.13,252.57s0,.06,0,.09L108,253a10.9,10.9,0,0,1-.17-1.57c-.26-11.51-.47-23-.71-34.53a23.45,23.45,0,0,0-.19-3.76,1.82,1.82,0,0,0-1.28-1.14,1.62,1.62,0,0,0-1.31.92,21.49,21.49,0,0,0-.62,4.65c0,6.15.14,12.3.22,18.44C104,241.53,104.08,247.05,104.13,252.57Z" transform="translate(-47.9 -35.13)"/><path class="cls-1" d="M79.63,250.78q.33-17.17.74-34.36c.11-4.87.27-9.74.41-14.8-1.81-.12-2.92.51-3.2,2.11a33.77,33.77,0,0,0-.41,4.71c-.15,5.83-.21,11.66-.37,17.5q-.33,12.31-.74,24.64Z" transform="translate(-47.9 -35.13)"/><path class="cls-1" d="M111.17,143.46c-3.54,1.71-6.67,3.13-9.71,4.73-3.67,1.93-7.56,2-11.52,1.69a4.33,4.33,0,0,1-4-2.82c-2-4.95-4.13-9.85-4.62-15.3-.64-7.21-1.53-14.41-2.3-21.61a16.53,16.53,0,0,1-.15-3.29,2.92,2.92,0,0,1,1-2c5.88-3.09,9-8.68,12.63-13.77l1-1.43c.73.07,1.62.19,2.51.24A5.93,5.93,0,0,0,100.71,88c1.53-1.58,3-3.26,4.39-4.93,1.22-1.43,2.38-2.89,3.48-4.24,1.84.27,1.52,1.72,1.88,2.61,2.28,5.62,7.66,5.34,10.75,2.52,1.16-1.06,2.21-2.23,3.32-3.35.64-.65,1.3-1.29,2-2,.72,1.67,1.22,3.17,2,4.53,2.4,4.26,6.59,5,10.29,1.86.94-.81,1.8-1.72,3-2.84.55,1.53.94,2.84,1.48,4.07,1.78,4.06,4.81,5.07,8.8,3l2.08-1.06c.33,2.79.5,5.3.94,7.77.89,5,3.13,8.92,8.51,10.23.78,1.75.36,3.49.39,5.18a30.86,30.86,0,0,1-.26,4.71c-1.14,8.11-2.28,16.22-3.55,24.3a58.36,58.36,0,0,1-1.69,6.27,13.57,13.57,0,0,1-11.18.75c-3.89-1.28-7.74-2.65-11.61-4a26,26,0,0,0-11.65-1.22c-1.25.14-2.52.12-3.77.3-3.57.49-6-1.47-8.13-3.88a2.37,2.37,0,0,1,.21-3.76c4.37-3.57,5.2-8.37,5.33-13.57.08-2.83.54-5.65.71-8.48a11.76,11.76,0,0,0-.37-3.22,1.16,1.16,0,0,0-2.14-.14,23.44,23.44,0,0,0-1,4.1c-.44,3.28-.84,6.57-1.09,9.86a11.66,11.66,0,0,1-3.46,8c-3.78,3.69-3.8,6.18-.64,10.27C110.05,142.14,110.46,142.6,111.17,143.46Zm30.34-40c-1.54.08-3.28.08-5,.28a13.56,13.56,0,0,0-3.17.87,2.29,2.29,0,0,0-1.57,2.15,2.53,2.53,0,0,0,1.79,2.5,10.1,10.1,0,0,0,2.26.67,26.3,26.3,0,0,0,12.15-.73,3,3,0,0,0,1.26-.61,4.28,4.28,0,0,0,1.28-1.84,2.06,2.06,0,0,0-1.42-2.21,9.68,9.68,0,0,0-2.68-.77C144.86,103.56,143.28,103.54,141.51,103.43ZM97.16,110c2-.19,4.19-.35,6.36-.65a5.9,5.9,0,0,0,2.15-.83,2.12,2.12,0,0,0,.22-3.55,6.86,6.86,0,0,0-1.64-.89c-4.16-1.53-8.31-1-12.45.08a4.08,4.08,0,0,0-1.23.66,2.7,2.7,0,0,0-1.21,2.83,2.38,2.38,0,0,0,2,1.73C93.23,109.59,95.1,109.75,97.16,110Zm47.2,13.27a32.93,32.93,0,0,0-.88-3.65,2.23,2.23,0,0,0-2.54-1.67,3.56,3.56,0,0,0-2.21,1.49,8.22,8.22,0,0,0-.58,6.84,2.72,2.72,0,0,0,2.41,2,2.83,2.83,0,0,0,3-1.75A24.21,24.21,0,0,0,144.36,123.23Zm-44.17.38c-.19-2-.26-3.72-1.54-5.09a2.25,2.25,0,0,0-3.6.36,7.7,7.7,0,0,0-.3,7.21,2.51,2.51,0,0,0,2.17,1.56,2.47,2.47,0,0,0,2.61-1.59A16,16,0,0,0,100.19,123.61Z" transform="translate(-47.9 -35.13)"/><path class="cls-1" d="M101.32,158.06a57.62,57.62,0,0,0,20.08-8c3.79,1.28,7.44,2.66,11.19,3.73s7.53,1.8,11.49,2.72c-.59,2.5-2.21,4-3.45,5.77-4,5.65-9.68,7.66-16.33,7.74a31.88,31.88,0,0,1-15.36-3.9A17.23,17.23,0,0,1,101.32,158.06Zm28.7-.15c-1.71-1.09-3.26-.54-4.71-.06a14.51,14.51,0,0,1-9.23,0,8.14,8.14,0,0,0-2.76-.4,1.79,1.79,0,0,0-1.37.91,1.77,1.77,0,0,0,.58,1.57c4.81,2.83,11.52,3.72,17.15-.82C129.87,159,129.85,158.54,130,157.91Z" transform="translate(-47.9 -35.13)"/><path class="cls-1" d="M96.59,195l6.1-8.31a4.64,4.64,0,0,1,1,.63c5.77,6.69,13.26,7.22,21.17,5.7a32.37,32.37,0,0,0,12.8-5.78,4.93,4.93,0,0,1,5.07-.95c.86,1.4,1.78,3,2.82,4.58s2,2.72,3,4c-1.09,1.58-2.64,2-4.13,2.44a57.23,57.23,0,0,1-15.23,2.89c-3.46.1-6.91.35-10.37.54A37.4,37.4,0,0,1,96.59,195Z" transform="translate(-47.9 -35.13)"/><path class="cls-1" d="M89.76,199.25l3.91-2.12a7.69,7.69,0,0,1,1.42.45c.82.47,1.58,1,2.38,1.54a36.8,36.8,0,0,0,21.63,5.52c3.62-.15,7.24-.41,10.86-.49a58.91,58.91,0,0,0,14.83-2.69,17.7,17.7,0,0,0,7.24-3.74c.65.27,1.38.51,2,.85s1.23.79,2,1.31a15,15,0,0,1-5.47,3.23c-4.67,1.88-9.36,3.73-14.09,5.44A25.3,25.3,0,0,1,125.35,210c-4.71-.45-9.44-.64-14.12-1.25a47.91,47.91,0,0,1-18-6.64A30.87,30.87,0,0,1,89.76,199.25Z" transform="translate(-47.9 -35.13)"/><path class="cls-1" d="M75.91,136.63c-2.68.35-4.37-.89-5.94-2.13-7.25-5.71-7.65-15.58-4.7-21.37a10.45,10.45,0,0,1,1.91-2.66,5.49,5.49,0,0,1,7.31-.77,2.29,2.29,0,0,1,1.34,2.3c-.22,1.68-.52,3.35-.84,5.3a15.86,15.86,0,0,0-2.93-1.07,2.74,2.74,0,0,0-2.09.38c-.66.69,0,1.45.61,2s1.54,1.08,2.33,1.61a5.14,5.14,0,0,1,2.49,4.27C75.6,128.48,75.84,132.51,75.91,136.63Z" transform="translate(-47.9 -35.13)"/><path class="cls-1" d="M167.86,134.78a33.32,33.32,0,0,1,.13-7.4,5.44,5.44,0,0,1,1.15-2.52c1.45-2,3-4,4.51-6,.54-.72,1-1.46,1.5-2.09-.66-1.32-1.57-1.51-2.45-.93-1.29.83-2.45,1.85-3.68,2.8-.87-2.6-.87-3.08,0-8.76l7.35-.59c3.29,2.58,3.74,6.2,3.48,9.82-.52,7.32-4.07,12.73-10.89,15.79C168.72,135,168.36,134.82,167.86,134.78Z" transform="translate(-47.9 -35.13)"/><path class="cls-2" d="M151.34,254.7c-4.35.57-8.85.12-13.56.27-.75-3-.37-5.65-.56-8.27s-.32-5.35-.51-8c-.19-2.83-.39-5.67-.62-8.49-.22-2.67-.46-5.35-.74-8s-.65-5.26-1-7.79c-1.46-.67-2.5-.34-2.71,1a21.77,21.77,0,0,0-.11,4.71c.53,8.81,1.14,17.61,1.66,26.43a26.76,26.76,0,0,1-.25,8.11,24.77,24.77,0,0,1-7.79.12c-.17-1.1-.41-2.14-.47-3.19-.51-9-.94-18-1.48-26.91a72.58,72.58,0,0,0-.9-7.51c-.4-2.45-.72-2.63-3.51-2.75a3.86,3.86,0,0,0-1.12.33c-1.12,2.23-.74,4.77-.67,7.24.25,9,.58,18,.8,26.94,0,1.85.33,3.75-.49,5.82a47.4,47.4,0,0,1-9.08,0,28.37,28.37,0,0,1-.45-3.32c-.26-11.51-.47-23-.71-34.53a23.45,23.45,0,0,0-.19-3.76,1.82,1.82,0,0,0-1.28-1.14,1.62,1.62,0,0,0-1.31.92,21.49,21.49,0,0,0-.62,4.65c0,6.15.14,12.3.22,18.44.08,5.52.16,11,.21,16.56a11.63,11.63,0,0,1-.32,1.92,11.61,11.61,0,0,1-5.83.09c-.12-1.17-.29-2.23-.32-3.29q-.5-19.38-.94-38.77c0-.63-.06-1.27,0-1.9,0-2.59-1.1-4.17-3.81-4.52a2.8,2.8,0,0,0-1.62,2.6,49.88,49.88,0,0,0-.35,5.19c-.11,11.5-.15,23-.28,34.52,0,2,.47,4.07-.53,6.27-.9.06-1.81.18-2.72.18-2.34,0-4.68,0-7.33-.05a33.57,33.57,0,0,1-.4-3.86q.33-17.26.74-34.53c.11-4.87.27-9.74.41-14.8-1.81-.12-2.92.51-3.2,2.11a33.77,33.77,0,0,0-.41,4.71c-.15,5.83-.21,11.66-.37,17.5q-.36,13.47-.81,26.94a6.64,6.64,0,0,1-.33,1.37c-1.32,1-2.68.41-4.26.44a18.84,18.84,0,0,1-.46-2.87c.09-13.24-.24-26.49,1-39.7.18-2,.58-4.05-.55-6.17-2.16,0-3.73.72-4.26,2.87a46.92,46.92,0,0,0-1.47,7.39c-.48,5.81-.78,11.64-1,17.47s-.35,12-.55,18a24.59,24.59,0,0,1-.44,2.87,30,30,0,0,1-3.39.23q-4.48-.21-9-.6c-2.08-.18-2.77-.84-3.17-2.82a7.86,7.86,0,0,1-.18-1.87c.19-4.4.28-8.81.66-13.2.48-5.49,1.15-11,1.82-16.44a16.08,16.08,0,0,1,6.29-10.74,34,34,0,0,1,9-5.16c6.88-2.75,13.74-5.54,20.69-8.07a21.77,21.77,0,0,0,12.32-11.09,18.88,18.88,0,0,0,.69-1.94c-.85-.34-1.54-.65-2.25-.88-10.76-3.52-17-11.07-19.12-22a111.16,111.16,0,0,1-1.16-11.27c-.22-2.33-.38-4.66-.57-7L73,140.37c-7.33-2.76-11.37-8.29-12.73-15.77A20.49,20.49,0,0,1,61.51,113a12.19,12.19,0,0,1,6.59-7.06c.56-.23,1.11-.48,1.89-.82a15.41,15.41,0,0,1,.46-10.63c-.58-.4-.93-.82-1.32-.88-5.86-1-7.85-9.41-5.76-13.94C66,74,69.67,69.52,75.55,67.08c.58-.24,1.15-.51,2-.88.11-1.45.18-3,.36-4.55C79.53,47.79,89,41.56,98.42,40.23c4.82-.67,5.62-.35,9.64,3,.87-.78,1.78-1.59,2.68-2.42,4.8-4.46,10.55-6.11,17-5.59a11.41,11.41,0,0,1,9.86,6.35c.28.56.62,1.09.95,1.62.08.12.26.18.18.13,3.64-.93,7.09-2,10.61-2.66a18.54,18.54,0,0,1,8.43.37c5.56,1.48,7.53,5.23,7.12,9.64-.11,1.07-.18,2.14-.28,3.31,1.85.77,3.61,1.41,5.3,2.21,5.54,2.6,7.25,6.38,5.65,12.35-.45,1.66-.95,3.3-1.51,5.21,1.14.88,2.21,1.76,3.35,2.55a8.67,8.67,0,0,1,3.91,8.58c-.34,2.79-1.09,5.54-1.74,8.74.44.7,1.13,1.73,1.75,2.8,2,3.45,1.87,5.44-.59,8.64-.29.38-.67.68-1,1a7.26,7.26,0,0,0-.44.83c7.95,9.09,4.08,24.77-6.54,30.52-1.38.75-2.73,1.55-4.37,2.48-.11,1.6-.31,3.3-.31,5,0,8-1.81,15.61-3.81,23.26-2.21,8.43-7.21,14.18-15.4,17.17a6.64,6.64,0,0,0-1.33,1,19.1,19.1,0,0,0,7.24,7.82,22.75,22.75,0,0,0,7.4,3c7.19,1.47,13.7,4.7,20.16,8a30.49,30.49,0,0,1,9.41,7.81,20.31,20.31,0,0,1,4.36,8.3,206.5,206.5,0,0,1,4.54,28.93,10.83,10.83,0,0,1,0,1.89,2.36,2.36,0,0,1-1.65,2.1,6,6,0,0,1-1.79.55,134.26,134.26,0,0,1-13.75,0,16.32,16.32,0,0,1-.42-2c-.68-11-1.32-22-2-33-.16-2.51-.71-5-.9-7.5a5.73,5.73,0,0,0-5.09-5.73c-1.23.82-1.14,1.94-1.06,3.05.69,10.06,1.43,20.13,2.06,30.19.25,4.09.27,8.2.36,12.29,0,.77-.11,1.54-.16,2.24-2.76.95-2.76.93-6.07.29a4.5,4.5,0,0,1-.44-1.23c-.64-9.44-1.09-18.88-1.92-28.3-.5-5.8-1.53-11.56-2.39-17.32-.13-.9-.34-1.92-1.53-2.12-.84-.14-1.64.95-1.52,2.48.28,3.61.72,7.21,1,10.82.56,6.43,1.15,12.87,1.61,19.31.3,4.24.44,8.5.58,12.76,0,1.21-.15,2.43-.24,3.81-1.33.1-2.41.24-3.48.24s-1.84-.15-3-.26c-.11-1.36-.3-2.59-.3-3.81a228.67,228.67,0,0,0-2.14-29.7c-.44-3.27-1.26-6.49-1.91-9.73a9.25,9.25,0,0,0-.41-1.36c-.59-1.47-1.83-2.44-2.77-2.1a3.21,3.21,0,0,0-2.22,2.81,14.49,14.49,0,0,0,.22,3.28,271.58,271.58,0,0,1,2.8,35.81c0,1.25-.08,2.51-.18,3.76C151.89,253.92,151.63,254.18,151.34,254.7ZM111.17,143.46c-.71-.86-1.12-1.32-1.49-1.81-3.16-4.09-3.14-6.58.64-10.27a11.66,11.66,0,0,0,3.46-8c.25-3.29.65-6.58,1.09-9.86a23.44,23.44,0,0,1,1-4.1,1.16,1.16,0,0,1,2.14.14,11.76,11.76,0,0,1,.37,3.22c-.17,2.83-.63,5.65-.71,8.48-.13,5.2-1,10-5.33,13.57a2.37,2.37,0,0,0-.21,3.76c2.15,2.41,4.56,4.37,8.13,3.88,1.25-.18,2.52-.16,3.77-.3a26,26,0,0,1,11.65,1.22c3.87,1.32,7.72,2.69,11.61,4a13.57,13.57,0,0,0,11.18-.75,58.36,58.36,0,0,0,1.69-6.27c1.27-8.08,2.41-16.19,3.55-24.3a30.86,30.86,0,0,0,.26-4.71c0-1.69.39-3.43-.39-5.18-5.38-1.31-7.62-5.27-8.51-10.23-.44-2.47-.61-5-.94-7.77l-2.08,1.06c-4,2.07-7,1.06-8.8-3-.54-1.23-.93-2.54-1.48-4.07-1.16,1.12-2,2-3,2.84-3.7,3.13-7.89,2.4-10.29-1.86-.76-1.36-1.26-2.86-2-4.53-.74.72-1.4,1.36-2,2-1.11,1.12-2.16,2.29-3.32,3.35-3.09,2.82-8.47,3.1-10.75-2.52-.36-.89,0-2.34-1.88-2.61-1.1,1.35-2.26,2.81-3.48,4.24-1.44,1.67-2.86,3.35-4.39,4.93A5.93,5.93,0,0,1,96,89.89c-.89,0-1.78-.17-2.51-.24l-1,1.43c-3.66,5.09-6.75,10.68-12.63,13.77a2.92,2.92,0,0,0-1,2,16.53,16.53,0,0,0,.15,3.29c.77,7.2,1.66,14.4,2.3,21.61.49,5.45,2.57,10.35,4.62,15.3a4.33,4.33,0,0,0,4,2.82c4,.27,7.85.24,11.52-1.69C104.5,146.59,107.63,145.17,111.17,143.46Zm-9.85,14.6a17.23,17.23,0,0,0,7.62,8.09,31.88,31.88,0,0,0,15.36,3.9c6.65-.08,12.34-2.09,16.33-7.74,1.24-1.75,2.86-3.27,3.45-5.77-4-.92-7.77-1.66-11.49-2.72s-7.4-2.45-11.19-3.73A57.62,57.62,0,0,1,101.32,158.06Zm-4.73,37a37.4,37.4,0,0,0,22.23,5.77c3.46-.19,6.91-.44,10.37-.54a57.23,57.23,0,0,0,15.23-2.89c1.49-.46,3-.86,4.13-2.44-1-1.31-2.09-2.63-3-4s-2-3.18-2.82-4.58a4.93,4.93,0,0,0-5.07.95,32.37,32.37,0,0,1-12.8,5.78c-7.91,1.52-15.4,1-21.17-5.7a4.64,4.64,0,0,0-1-.63Zm-6.83,4.21a30.87,30.87,0,0,0,3.42,2.82,47.91,47.91,0,0,0,18,6.64c4.68.61,9.41.8,14.12,1.25a25.3,25.3,0,0,0,11.16-1.41c4.73-1.71,9.42-3.56,14.09-5.44a15,15,0,0,0,5.47-3.23c-.77-.52-1.36-1-2-1.31s-1.39-.58-2-.85a17.7,17.7,0,0,1-7.24,3.74A58.91,58.91,0,0,1,130,204.15c-3.62.08-7.24.34-10.86.49a36.8,36.8,0,0,1-21.63-5.52c-.8-.5-1.56-1.07-2.38-1.54a7.69,7.69,0,0,0-1.42-.45ZM75.91,136.63c-.07-4.12-.31-8.15-.51-12.19a5.14,5.14,0,0,0-2.49-4.27c-.79-.53-1.59-1-2.33-1.61s-1.27-1.26-.61-2a2.74,2.74,0,0,1,2.09-.38A15.86,15.86,0,0,1,75,117.3c.32-2,.62-3.62.84-5.3a2.29,2.29,0,0,0-1.34-2.3,5.49,5.49,0,0,0-7.31.77,10.45,10.45,0,0,0-1.91,2.66c-2.95,5.79-2.55,15.66,4.7,21.37C71.54,135.74,73.23,137,75.91,136.63Zm92-1.85c.5,0,.86.19,1.1.08,6.82-3.06,10.37-8.47,10.89-15.79.26-3.62-.19-7.24-3.48-9.82l-7.35.59c-.87,5.68-.87,6.16,0,8.76,1.23-.95,2.39-2,3.68-2.8.88-.58,1.79-.39,2.45.93-.45.63-1,1.37-1.5,2.09-1.51,2-3.06,4-4.51,6a5.44,5.44,0,0,0-1.15,2.52A33.32,33.32,0,0,0,167.86,134.78Z" transform="translate(-47.9 -35.13)"/><path class="cls-2" d="M141.51,103.43c1.77.11,3.35.13,4.91.31a9.68,9.68,0,0,1,2.68.77,2.06,2.06,0,0,1,1.42,2.21,4.28,4.28,0,0,1-1.28,1.84,3,3,0,0,1-1.26.61,26.3,26.3,0,0,1-12.15.73,10.1,10.1,0,0,1-2.26-.67,2.53,2.53,0,0,1-1.79-2.5,2.29,2.29,0,0,1,1.57-2.15,13.56,13.56,0,0,1,3.17-.87C138.23,103.51,140,103.51,141.51,103.43Z" transform="translate(-47.9 -35.13)"/><path class="cls-2" d="M97.16,110c-2.06-.21-3.93-.37-5.78-.62a2.38,2.38,0,0,1-2-1.73,2.7,2.7,0,0,1,1.21-2.83,4.08,4.08,0,0,1,1.23-.66c4.14-1.07,8.29-1.61,12.45-.08a6.86,6.86,0,0,1,1.64.89,2.12,2.12,0,0,1-.22,3.55,5.9,5.9,0,0,1-2.15.83C101.35,109.61,99.17,109.77,97.16,110Z" transform="translate(-47.9 -35.13)"/><path class="cls-2" d="M144.36,123.23a24.21,24.21,0,0,1-.76,3.23,2.83,2.83,0,0,1-3,1.75,2.72,2.72,0,0,1-2.41-2,8.22,8.22,0,0,1,.58-6.84,3.56,3.56,0,0,1,2.21-1.49,2.23,2.23,0,0,1,2.54,1.67A32.93,32.93,0,0,1,144.36,123.23Z" transform="translate(-47.9 -35.13)"/><path class="cls-2" d="M100.19,123.61a16,16,0,0,1-.66,2.45,2.47,2.47,0,0,1-2.61,1.59,2.51,2.51,0,0,1-2.17-1.56,7.7,7.7,0,0,1,.3-7.21,2.25,2.25,0,0,1,3.6-.36C99.93,119.89,100,121.63,100.19,123.61Z" transform="translate(-47.9 -35.13)"/><path class="cls-2" d="M130,157.91c-.17.63-.15,1.05-.34,1.2-5.63,4.54-12.34,3.65-17.15.82a1.77,1.77,0,0,1-.58-1.57,1.79,1.79,0,0,1,1.37-.91,8.14,8.14,0,0,1,2.76.4,14.51,14.51,0,0,0,9.23,0C126.76,157.37,128.31,156.82,130,157.91Z" transform="translate(-47.9 -35.13)"/></svg>