<svg id="Layer_1" data-name="Layer 1" xmlns="http://www.w3.org/2000/svg" viewBox="0 0 149.83 222.36"><defs><style>.cls-1{fill:#fff;}.cls-1,.cls-2{fill-rule:evenodd;}.cls-2{fill:#1d262d;}</style></defs><path class="cls-1" d="M193.85,228.22c-.69-5.91-3.69-10.33-8.18-14.07a61.19,61.19,0,0,0-17.36-9.71,10,10,0,0,0-6.06-.86,89.19,89.19,0,0,0-5.76,9.9,64.28,64.28,0,0,1-23.11,24.93c-6,3.73-11.76,3.07-17.28-1.06A67.33,67.33,0,0,1,100,219.47c-2.94-4.57-5.77-9.2-8.67-13.79-.65-1-1.36-2-2.18-3.23-1.1.35-2.13.6-3.1,1-5.06,1.94-10.15,3.82-15.15,5.92a47.78,47.78,0,0,0-7.37,3.93,12.28,12.28,0,0,0-5.94,9c-.6,4.92-1.29,9.84-1.63,14.78-.29,4.29-1.83,11.39-1.91,15.69,4.36,1.66,34.33,5.72,73.87,3.64s69.06-4.18,70.74-4.68C197.71,244.29,194.71,235.68,193.85,228.22Z" transform="translate(-51.27 -34.64)"/><path class="cls-1" d="M82.13,115.16c.29-.21.4-.37.54-.38,5.18-.56,7.84-4.08,9.58-8.43a18.4,18.4,0,0,1,4.32-6.46,21.77,21.77,0,0,0,6.25-13.48c1-1,1.89-.44,2.73-.31a9.8,9.8,0,0,0,8.55-2.72,67,67,0,0,0,4.65-5.16c.6-.7,1-1.59,1.56-2.31a2,2,0,0,1,2.5-.59c6.53,3,5.82,2,11.81,2.08.58,1.32,1.1,2.78,1.84,4.11,1.95,3.48,4.82,5.61,9,5.66,1.83,0,3.66,0,5.79,0-.18,1.78-.43,3.28-.45,4.78a34.06,34.06,0,0,0,.2,6.47,11.33,11.33,0,0,0,7.12,9.09l2.23.9a22.08,22.08,0,0,0,1.59,4.79c.85,1.41,2.28,2.47,3.73,4,.49,4.15.06,8.63-.23,13.09-.25,4-.84,8-1.26,12a50.22,50.22,0,0,1-8,22.09,28.28,28.28,0,0,1-16.5,12,54.8,54.8,0,0,1-29.84,0c-8.92-2.36-19.1-11.79-22-20.55a49.55,49.55,0,0,1-2-8.1c-1-6.59-1.78-13.21-2.61-19.82-.33-2.62-.6-5.24-.86-7.86A15.11,15.11,0,0,1,82.13,115.16ZM132,139.42c-1.67,2.69-3.27,4.13-6.23,4.06-3.19-.07-6.27,1.56-9.57,1.06a1.6,1.6,0,0,0-.9.19c-4.81,2.4-9.28,5.08-10.06,11.15a12.52,12.52,0,0,1-1,3.54c-.57,1.26-1.43,2.39-2.08,3.61a1.75,1.75,0,0,0,1.42,2.72c1.69.15,3.43-.05,5.09.23,4.13.7,7.68-.21,10.62-3.26.16-.17.56-.11.84-.16,4.31,4.27,5.59,4.55,11,2.41,5.13,2.86,5.13,2.86,10.91-.45,4,1.08,5.88,1.1,8.11.08s2.51-2.51,1.19-4.46c-1.83-2.68-3.71-5.34-5.28-8.17-3.62-6.5-3.55-6.54-11.1-7.56a15.74,15.74,0,0,1,.68-1.65c1.53-2.83,1.07-5.35-1.1-7.64-.54-.57-1-1.18-1.6-1.69a8.45,8.45,0,0,1-2.79-6.63c0-2-.11-4-.17-6a8.66,8.66,0,0,0-.11-2.29,1.86,1.86,0,0,0-1.26-1.11,2,2,0,0,0-1.53.76,3.26,3.26,0,0,0-.51,1.74c-.21,3.09-.35,6.18-.54,9.27a7.8,7.8,0,0,0,2.23,5.91C129.47,136.41,130.65,137.82,132,139.42Zm-18.89-41a1.45,1.45,0,0,0,.39,2.46,6.79,6.79,0,0,0,5.82.53,13.66,13.66,0,0,1,8.2.07c2,.6,4.27.3,6.42.26.49,0,1-.59,1.68-1-.75-.51-1.21-1-1.75-1.15-3-.64-6-1.26-9.11-1.7a12.76,12.76,0,0,0-3.68.25,39.35,39.35,0,0,1-4.09.8A21.22,21.22,0,0,1,113.15,98.38Zm24.43-6.68c-.67-1.86-2.13-2.22-3.39-2.49-2.86-.6-5.77-1-8.67-1.36a10.38,10.38,0,0,0-2.78.09c-2.55.34-5.1.75-7.73,1.15-.47.75,0,1.32.61,1.82a4.24,4.24,0,0,0,4,.74c3.85-1.29,7.61-.7,11.41,0a33.66,33.66,0,0,0,4.58.65A6,6,0,0,0,137.58,91.7Zm6.61,36.5c.05,1.09,0,1.87.14,2.63a2.77,2.77,0,0,0,5.35.78,11.24,11.24,0,0,0,.72-6.33,2.8,2.8,0,0,0-5.53-.37A25.82,25.82,0,0,0,144.19,128.2Zm-35,1.63a39.24,39.24,0,0,0-.54-4.12,2.56,2.56,0,0,0-2.3-2,2.69,2.69,0,0,0-2.6,1.58,10.07,10.07,0,0,0,.07,7.68,2.36,2.36,0,0,0,4.16.32A16,16,0,0,0,109.18,129.83Zm1.29-19.26a7.73,7.73,0,0,0-2.35-1.14c-3.45-.31-6.59,1-9.77,2.09a1.23,1.23,0,0,0-.64.61,2.78,2.78,0,0,0-.2,1.27c0,.21.38.49.63.55a2.83,2.83,0,0,0,1.35.1c3.28-.72,6.55-1.46,9.81-2.27C109.66,111.69,109.91,111.16,110.47,110.57ZM153.19,115c.11-.91.28-1.28.16-1.49-1.56-2.94-7.66-4.52-10.52-2.7a1.41,1.41,0,0,0-.49,1.16c0,.37.39,1,.7,1C146.3,113.69,149.57,114.3,153.19,115Z" transform="translate(-51.27 -34.64)"/><path class="cls-1" d="M141.07,48.36A4.09,4.09,0,0,0,143.78,46a3.57,3.57,0,0,1,2.91-2,18.27,18.27,0,0,1,11.81,1.28,13.1,13.1,0,0,1,7.37,8.53c.8,3,1.27,6,1.85,9.08.12.6,0,1.25.11,1.86.19,1.51,1.23,2.41,2.55,1.76,1.67-.83,3-.35,4.32.41,4.81,2.69,6.75,6.87,5.74,12.56-.29,1.67-.89,3.29-1.28,4.94s.36,2.29,2.37,2c.44-.08.88-.09,1.53-.16,3.25,5.41,3.32,11.16,2,17a11.46,11.46,0,0,1-1.77,3.24c-.4.65-1.15,1.16-1.35,1.86-1.28,4.32-4.81,5.34-8.59,5.85a12.89,12.89,0,0,1-4.14-.29c-2.68-.49-4.47-2-4.89-4.84-.24-1.66-.65-3.29-1-5.08-1,0-1.72,0-2.46,0-2.5,0-4-1.54-5.1-3.49a13.78,13.78,0,0,1-1.52-7.65,22.61,22.61,0,0,1,1.85-8.12,1.67,1.67,0,0,0-2-2.23c-.61.1-1.18.42-1.79.47a49.08,49.08,0,0,1-6.94.49,7.23,7.23,0,0,1-6.8-7.82c.07-1.1.43-2.13-.71-3.21-1,.31-2.19.59-3.3,1a12.26,12.26,0,0,1-6.43.47c-3.18-.48-4.54-1.94-5-5.15-.13-.88-.23-1.78-.4-3.11-.77.49-1.41.68-1.65,1.09-1.33,2.27-2.59,4.59-3.82,6.91a23.6,23.6,0,0,1-5,6.66c-2.72,2.45-5.64,3-9,1.41-1.22-.58-2.32-1.65-4.07-1.27a34.74,34.74,0,0,1-.08,6.12A20.67,20.67,0,0,1,97,92.66,21.37,21.37,0,0,1,93,97.8a45.44,45.44,0,0,1-5.4,3.86l1.64,2.67a35.63,35.63,0,0,1-1.74,3.51c-2,3.2-4.31,4-8,2.78-1.6-.54-3.12-1.34-4.69-2-1.37.29-2.73.55-4.07.88a3.14,3.14,0,0,1-3.54-1.61,11.58,11.58,0,0,1-1.93-5.66A38,38,0,0,1,69.4,81a8.92,8.92,0,0,1,2.54-3.23A7.14,7.14,0,0,0,74.46,74c.89-2.47,1.78-5,2.77-7.39,2.45-6,6.26-10.63,12.86-12.42a5.26,5.26,0,0,0,2.39-2c1.11-1.49,1.89-3.22,3-4.68,4-5.19,9.21-7.69,15.87-6.29a10.54,10.54,0,0,0,6.79-.78,23.8,23.8,0,0,1,10.4-2.09c4.61,0,8,1.93,10.08,6.17C139.3,45.89,139.57,47.53,141.07,48.36Z" transform="translate(-51.27 -34.64)"/><path class="cls-1" d="M108,179.88c5.8,1.09,11.24,2.65,16.83,2.19,5.35-.43,10.67-1.31,15.94-2l6.54,14.57c-5.82,2.82-11.56,5.85-18.34,5.9a63.07,63.07,0,0,1-12.51-.74c-3.64-.72-7.33-1.27-11-2a26.61,26.61,0,0,1-4-1.28,5.49,5.49,0,0,1-1.15-.91c1.5-2.54,3.14-5,4.41-7.56S106.86,182.92,108,179.88Z" transform="translate(-51.27 -34.64)"/><path class="cls-1" d="M79.26,121.66c-2.07-.85-3.61-1.54-5.18-2.11a1,1,0,0,0-1.46.7,1.6,1.6,0,0,0,.31,1.27c.65.64,1.47,1.12,2.16,1.73,1.15,1,2.28,2.08,3.38,3.16a5.76,5.76,0,0,1,1.71,4.17c.11,3.09.39,6.18.58,9.27,0,.13-.16.26-.42.66a12.67,12.67,0,0,1-8.18-3.28,17.42,17.42,0,0,1-4.42-20,12.26,12.26,0,0,1,2.69-3.7c1.75-1.67,3.85-1.76,6-.66A4,4,0,0,1,79,116.47C79.05,118,79.15,119.54,79.26,121.66Z" transform="translate(-51.27 -34.64)"/><path class="cls-1" d="M125.15,206.39c4,5.09,7.29,10.45,13.59,12.37-2.26,3.42-5.35,6.59-7.85,8-2.88,1.64-5.86,1.94-8.75.11a38.42,38.42,0,0,1-8.51-7.95A32,32,0,0,0,125.15,206.39Z" transform="translate(-51.27 -34.64)"/><path class="cls-1" d="M128,205.19c.78-.48,1-.76,1.26-.76,5.75.06,10.93-1.93,16-4.4a38.1,38.1,0,0,1,4.74-1.9,2.07,2.07,0,0,1,2.72,1.74,19.73,19.73,0,0,1-2.09,11.73,6.49,6.49,0,0,1-3,2.75,12.24,12.24,0,0,1-10-.08C133.5,212.29,131.09,208.49,128,205.19Z" transform="translate(-51.27 -34.64)"/><path class="cls-1" d="M121.1,204.61c-1.78,5.3-5.95,9.69-10.32,11.16-5.81,2-10.54-.45-12.28-6.37a53.55,53.55,0,0,1-1.58-9.89c1-.88,1.63-.21,2.23.09a31.73,31.73,0,0,0,9.3,2.85Z" transform="translate(-51.27 -34.64)"/><path class="cls-1" d="M105.09,220.33l5.15-.37c.9,1,1.82,2,2.76,3,1.7,1.8,3.34,3.66,5.14,5.35a12.17,12.17,0,0,0,16.49.42c3-2.65,5.66-5.68,8.46-8.55.31-.33.57-.72.93-1.19l3.95-.6c.68,1.06-.09,1.55-.53,2-2.57,2.89-5.13,5.78-7.8,8.58a41.24,41.24,0,0,1-8.95,6.56,10,10,0,0,1-11-.19,26.19,26.19,0,0,1-4.76-3.68c-2.86-2.82-5.57-5.78-8.29-8.73A17.32,17.32,0,0,1,105.09,220.33Z" transform="translate(-51.27 -34.64)"/><path class="cls-1" d="M169.67,122.22v-3.87l9.92-1.57a7.12,7.12,0,0,1,1,2.11c1.19,8.79-3,15.91-11.16,19.12a12.45,12.45,0,0,1,1.15-10.39c.86-1.28,1.8-2.51,2.74-3.75s1.9-2.41,2.76-3.49c-.27-1.4-1.09-1.92-2-1.37A49.13,49.13,0,0,0,169.67,122.22Z" transform="translate(-51.27 -34.64)"/><path class="cls-1" d="M94,203.53a8.3,8.3,0,0,1-1.34-1.66c-.1-.25.3-.69.47-1.05.33.18.89.31,1,.56A9.33,9.33,0,0,1,94,203.53Z" transform="translate(-51.27 -34.64)"/><path class="cls-1" d="M157.15,204.07c-.18-.57-.44-1-.36-1.28s.49-.59.75-.88c.21.33.64.71.58,1S157.6,203.56,157.15,204.07Z" transform="translate(-51.27 -34.64)"/><path class="cls-1" d="M122.26,159.14a3.4,3.4,0,0,0-3.71.24,12,12,0,0,0-1.79,1.46c-2.9,3-6.2,2.91-9.8,1.47.6-2.54,1.17-4.91,1.72-7.28.62-2.63,2.73-4,4.62-5.62s4.22-2.62,6.83-1.4c.83.39,1.39.08,2-.49a4.25,4.25,0,0,1,5.54-.2,7.55,7.55,0,0,0,6.63,1A12.83,12.83,0,0,1,138,148a4.24,4.24,0,0,1,3.72,2.35c2,3.48,4.13,6.88,6.19,10.33a3.68,3.68,0,0,1,.11,1.11c-2.58,1.43-4.22-.16-5.68-1.91-1.86.29-2.6,1.82-3.77,2.76-1.78,1.43-2.62,1.48-4.55.21L131.21,161c-.82.59-1.51,1.15-2.27,1.62-2.34,1.45-4,1.06-5.41-1.25C123.05,160.6,122.62,159.78,122.26,159.14Z" transform="translate(-51.27 -34.64)"/><path class="cls-2" d="M66.34,112.06c-5.19-4.61-5.09-10.87-4.6-17.11a38.56,38.56,0,0,1,4.13-14.68,19.06,19.06,0,0,1,3.1-4.6,12.35,12.35,0,0,0,2.6-4.31c1.13-2.88,2.15-5.82,3.53-8.59,2.63-5.29,6.46-9.48,12.16-11.58a5.6,5.6,0,0,0,3-2.68A28.07,28.07,0,0,1,92.6,45c5-6.16,11.36-8.9,19.28-7.53a8.45,8.45,0,0,0,5-.6,28.86,28.86,0,0,1,9-2.17c6.69-.51,12.31,1.16,16,7.56.89-.33,1.7-.68,2.52-.94,10.38-3.34,22.09,1.48,25.28,12,.85,2.81,1.45,5.69,2.27,9,.75.35,1.83.88,2.93,1.39,6.56,3,10.49,8.45,9,16.47a13.86,13.86,0,0,0-.16,1.44,60.45,60.45,0,0,1,4,6.66,23.55,23.55,0,0,1,1,15.08c-.74,3.05-2.86,5.78-4.4,8.63a22.41,22.41,0,0,1-1.52,2.11A21.63,21.63,0,0,1,182,132c-2.83,5.8-8,8.83-13.83,11.38-.26.8-.6,1.65-.8,2.54a69.69,69.69,0,0,1-5.27,14.36,46.46,46.46,0,0,1-11.51,15,15.68,15.68,0,0,1-2.3,1.5c-.92.57-1.86,1.11-2.77,1.68-.12.07-.17.26-.37.59a30.07,30.07,0,0,0,5.61,12.42,20.41,20.41,0,0,0,11.42,7.43,93.4,93.4,0,0,1,19.09,7.22,35.36,35.36,0,0,1,8.75,6.08,22.86,22.86,0,0,1,7.22,12.72q1.67,9.15,3,18.35c.42,2.87,1.16,5.76.64,9l-3.67.43a12.8,12.8,0,0,1-.59-1.91c-1-7.53-1.94-15.06-2.81-22.6-.69-5.91-3.69-10.33-8.18-14.07a61.19,61.19,0,0,0-17.36-9.71,10,10,0,0,0-6.06-.86,89.19,89.19,0,0,0-5.76,9.9,64.28,64.28,0,0,1-23.11,24.93c-6,3.73-11.76,3.07-17.28-1.06A67.33,67.33,0,0,1,100,219.47c-2.94-4.57-5.77-9.2-8.67-13.79-.65-1-1.36-2-2.18-3.23-1.1.35-2.13.6-3.1,1-5.06,1.94-10.15,3.82-15.15,5.92a47.78,47.78,0,0,0-7.37,3.93,12.28,12.28,0,0,0-5.94,9c-.6,4.92-1.29,9.84-1.63,14.78s-.27,9.92-.4,14.88c0,.75-.17,1.49-.27,2.39l-3.48.25a16.65,16.65,0,0,1-.51-2.78,167.46,167.46,0,0,1,1.88-29.67,16.77,16.77,0,0,1,7.37-11.88,55.13,55.13,0,0,1,9-4.84c6.43-2.69,13-5.17,19.49-7.58a20.68,20.68,0,0,0,10.86-9,36.37,36.37,0,0,0,4.2-10.83c-1.31-.75-2.41-1.29-3.42-2-2.44-1.65-4.91-3.25-7.22-5.07a25.85,25.85,0,0,1-9-13.26c-1-3.26-1.63-6.61-2.42-9.92-.21-.9-.39-1.8-.61-2.87C76.71,143.8,72,142.7,68.57,139A20.4,20.4,0,0,1,62.86,126C62.59,121.63,63.44,118.31,66.34,112.06Zm15.79,3.1a15.11,15.11,0,0,0,.15,4.91c.26,2.62.53,5.24.86,7.86.83,6.61,1.62,13.23,2.61,19.82a49.55,49.55,0,0,0,2,8.1c2.88,8.76,13.06,18.19,22,20.55a54.8,54.8,0,0,0,29.84,0,28.28,28.28,0,0,0,16.5-12,50.22,50.22,0,0,0,8-22.09c.42-4,1-8,1.26-12,.29-4.46.72-8.94.23-13.09-1.45-1.49-2.88-2.55-3.73-4a22.08,22.08,0,0,1-1.59-4.79l-2.23-.9A11.33,11.33,0,0,1,151,98.42a34.06,34.06,0,0,1-.2-6.47c0-1.5.27-3,.45-4.78-2.13,0-4,0-5.79,0-4.15,0-7-2.18-9-5.66-.74-1.33-1.26-2.79-1.84-4.11-6,0-5.28.89-11.81-2.08a2,2,0,0,0-2.5.59c-.58.72-1,1.61-1.56,2.31a67,67,0,0,1-4.65,5.16,9.8,9.8,0,0,1-8.55,2.72c-.84-.13-1.78-.74-2.73.31a21.77,21.77,0,0,1-6.25,13.48,18.4,18.4,0,0,0-4.32,6.46c-1.74,4.35-4.4,7.87-9.58,8.43C82.53,114.79,82.42,115,82.13,115.16Zm58.94-66.8c-1.5-.83-1.77-2.47-2.43-3.83-2-4.24-5.47-6.12-10.08-6.17a23.8,23.8,0,0,0-10.4,2.09,10.54,10.54,0,0,1-6.79.78c-6.66-1.4-11.83,1.1-15.87,6.29-1.13,1.46-1.91,3.19-3,4.68a5.26,5.26,0,0,1-2.39,2C83.49,56,79.68,60.62,77.23,66.65c-1,2.44-1.88,4.92-2.77,7.39a7.14,7.14,0,0,1-2.52,3.76A8.92,8.92,0,0,0,69.4,81a38,38,0,0,0-4.07,21.17,11.58,11.58,0,0,0,1.93,5.66,3.14,3.14,0,0,0,3.54,1.61c1.34-.33,2.7-.59,4.07-.88,1.57.69,3.09,1.49,4.69,2,3.65,1.23,5.94.42,8-2.78a35.63,35.63,0,0,0,1.74-3.51l-1.64-2.67A45.44,45.44,0,0,0,93,97.8,21.37,21.37,0,0,0,97,92.66a20.67,20.67,0,0,0,2.12-6.1,34.74,34.74,0,0,0,.08-6.12c1.75-.38,2.85.69,4.07,1.27,3.35,1.59,6.27,1,9-1.41a23.6,23.6,0,0,0,5-6.66c1.23-2.32,2.49-4.64,3.82-6.91.24-.41.88-.6,1.65-1.09.17,1.33.27,2.23.4,3.11.5,3.21,1.86,4.67,5,5.15a12.26,12.26,0,0,0,6.43-.47c1.11-.43,2.28-.71,3.3-1,1.14,1.08.78,2.11.71,3.21a7.23,7.23,0,0,0,6.8,7.82A49.08,49.08,0,0,0,152.3,83c.61,0,1.18-.37,1.79-.47a1.67,1.67,0,0,1,2,2.23,22.61,22.61,0,0,0-1.85,8.12,13.78,13.78,0,0,0,1.52,7.65c1.13,2,2.6,3.51,5.1,3.49.74,0,1.47,0,2.46,0,.36,1.79.77,3.42,1,5.08.42,2.88,2.21,4.35,4.89,4.84a12.89,12.89,0,0,0,4.14.29c3.78-.51,7.31-1.53,8.59-5.85.2-.7,1-1.21,1.35-1.86a11.46,11.46,0,0,0,1.77-3.24c1.31-5.89,1.24-11.64-2-17-.65.07-1.09.08-1.53.16-2,.33-2.77-.26-2.37-2s1-3.27,1.28-4.94c1-5.69-.93-9.87-5.74-12.56-1.35-.76-2.65-1.24-4.32-.41-1.32.65-2.36-.25-2.55-1.76-.09-.61,0-1.26-.11-1.86-.58-3-1.05-6.1-1.85-9.08a13.1,13.1,0,0,0-7.37-8.53A18.27,18.27,0,0,0,146.69,44a3.57,3.57,0,0,0-2.91,2A4.09,4.09,0,0,1,141.07,48.36ZM108,179.88c-1.17,3-2,5.71-3.22,8.2s-2.91,5-4.41,7.56a5.49,5.49,0,0,0,1.15.91,26.61,26.61,0,0,0,4,1.28c3.64.72,7.33,1.27,11,2a63.07,63.07,0,0,0,12.51.74c6.78-.05,12.52-3.08,18.34-5.9l-6.54-14.57c-5.27.67-10.59,1.55-15.94,2C119.27,182.53,113.83,181,108,179.88ZM79.26,121.66c-.11-2.12-.21-3.66-.26-5.19a4,4,0,0,0-2.54-3.57c-2.18-1.1-4.28-1-6,.66a12.26,12.26,0,0,0-2.69,3.7,17.42,17.42,0,0,0,4.42,20,12.67,12.67,0,0,0,8.18,3.28c.26-.4.42-.53.42-.66-.19-3.09-.47-6.18-.58-9.27a5.76,5.76,0,0,0-1.71-4.17c-1.1-1.08-2.23-2.14-3.38-3.16-.69-.61-1.51-1.09-2.16-1.73a1.6,1.6,0,0,1-.31-1.27,1,1,0,0,1,1.46-.7C75.65,120.12,77.19,120.81,79.26,121.66Zm45.89,84.73a32,32,0,0,1-11.52,12.54,38.42,38.42,0,0,0,8.51,7.95c2.89,1.83,5.87,1.53,8.75-.11,2.5-1.42,5.59-4.59,7.85-8C132.44,216.84,129.19,211.48,125.15,206.39Zm2.87-1.2c3.07,3.3,5.48,7.1,9.65,9.08a12.24,12.24,0,0,0,10,.08,6.49,6.49,0,0,0,3-2.75,19.73,19.73,0,0,0,2.09-11.73,2.07,2.07,0,0,0-2.72-1.74,38.1,38.1,0,0,0-4.74,1.9c-5.06,2.47-10.24,4.46-16,4.4C129,204.43,128.8,204.71,128,205.19Zm-6.92-.58-12.65-2.16a31.73,31.73,0,0,1-9.3-2.85c-.6-.3-1.24-1-2.23-.09a53.55,53.55,0,0,0,1.58,9.89c1.74,5.92,6.47,8.33,12.28,6.37C115.15,214.3,119.32,209.91,121.1,204.61Zm-16,15.72a17.32,17.32,0,0,0,1.59,2.63c2.72,2.95,5.43,5.91,8.29,8.73a26.19,26.19,0,0,0,4.76,3.68,10,10,0,0,0,11,.19,41.24,41.24,0,0,0,8.95-6.56c2.67-2.8,5.23-5.69,7.8-8.58.44-.49,1.21-1,.53-2L144,219c-.36.47-.62.86-.93,1.19-2.8,2.87-5.46,5.9-8.46,8.55a12.17,12.17,0,0,1-16.49-.42c-1.8-1.69-3.44-3.55-5.14-5.35-.94-1-1.86-2-2.76-3Zm64.58-98.11A49.13,49.13,0,0,1,174,119c1-.55,1.77,0,2,1.37-.86,1.08-1.83,2.27-2.76,3.49s-1.88,2.47-2.74,3.75A12.45,12.45,0,0,0,169.4,138c8.17-3.21,12.35-10.33,11.16-19.12a7.12,7.12,0,0,0-1-2.11l-9.92,1.57ZM94,203.53a9.33,9.33,0,0,0,.08-2.15c-.06-.25-.62-.38-1-.56-.17.36-.57.8-.47,1.05A8.3,8.3,0,0,0,94,203.53Zm63.17.54c.45-.51.9-.8,1-1.17s-.37-.66-.58-1c-.26.29-.66.55-.75.88S157,203.5,157.15,204.07Z" transform="translate(-51.27 -34.64)"/><path class="cls-2" d="M132,139.42c-1.39-1.6-2.57-3-3.8-4.37a7.8,7.8,0,0,1-2.23-5.91c.19-3.09.33-6.18.54-9.27a3.26,3.26,0,0,1,.51-1.74,2,2,0,0,1,1.53-.76,1.86,1.86,0,0,1,1.26,1.11,8.66,8.66,0,0,1,.11,2.29c.06,2,.16,4,.17,6a8.45,8.45,0,0,0,2.79,6.63c.58.51,1.06,1.12,1.6,1.69,2.17,2.29,2.63,4.81,1.1,7.64a15.74,15.74,0,0,0-.68,1.65c7.55,1,7.48,1.06,11.1,7.56,1.57,2.83,3.45,5.49,5.28,8.17,1.32,2,1,3.46-1.19,4.46s-4.14,1-8.11-.08c-5.78,3.31-5.78,3.31-10.91.45-5.38,2.14-6.66,1.86-11-2.41-.28.05-.68,0-.84.16-2.94,3.05-6.49,4-10.62,3.26-1.66-.28-3.4-.08-5.09-.23a1.75,1.75,0,0,1-1.42-2.72c.65-1.22,1.51-2.35,2.08-3.61a12.52,12.52,0,0,0,1-3.54c.78-6.07,5.25-8.75,10.06-11.15a1.6,1.6,0,0,1,.9-.19c3.3.5,6.38-1.13,9.57-1.06C128.77,143.55,130.37,142.11,132,139.42Zm-9.78,19.72c.36.64.79,1.46,1.27,2.23,1.42,2.31,3.07,2.7,5.41,1.25.76-.47,1.45-1,2.27-1.62l2.82,1.89c1.93,1.27,2.77,1.22,4.55-.21,1.17-.94,1.91-2.47,3.77-2.76,1.46,1.75,3.1,3.34,5.68,1.91a3.68,3.68,0,0,0-.11-1.11c-2.06-3.45-4.2-6.85-6.19-10.33A4.24,4.24,0,0,0,138,148a12.83,12.83,0,0,0-3.67.23,7.55,7.55,0,0,1-6.63-1,4.25,4.25,0,0,0-5.54.2c-.65.57-1.21.88-2,.49-2.61-1.22-4.83-.28-6.83,1.4s-4,3-4.62,5.62c-.55,2.37-1.12,4.74-1.72,7.28,3.6,1.44,6.9,1.54,9.8-1.47a12,12,0,0,1,1.79-1.46A3.4,3.4,0,0,1,122.26,159.14Z" transform="translate(-51.27 -34.64)"/><path class="cls-2" d="M113.15,98.38a21.22,21.22,0,0,0,3.88.48,39.35,39.35,0,0,0,4.09-.8,12.76,12.76,0,0,1,3.68-.25c3.06.44,6.08,1.06,9.11,1.7.54.11,1,.64,1.75,1.15-.71.45-1.19,1-1.68,1-2.15,0-4.43.34-6.42-.26a13.66,13.66,0,0,0-8.2-.07,6.79,6.79,0,0,1-5.82-.53A1.45,1.45,0,0,1,113.15,98.38Z" transform="translate(-51.27 -34.64)"/><path class="cls-2" d="M137.58,91.7a6,6,0,0,1-2,.64,33.66,33.66,0,0,1-4.58-.65c-3.8-.74-7.56-1.33-11.41,0a4.24,4.24,0,0,1-4-.74c-.64-.5-1.08-1.07-.61-1.82,2.63-.4,5.18-.81,7.73-1.15a10.38,10.38,0,0,1,2.78-.09c2.9.38,5.81.76,8.67,1.36C135.45,89.48,136.91,89.84,137.58,91.7Z" transform="translate(-51.27 -34.64)"/><path class="cls-2" d="M144.19,128.2a25.82,25.82,0,0,1,.68-3.29,2.8,2.8,0,0,1,5.53.37,11.24,11.24,0,0,1-.72,6.33,2.77,2.77,0,0,1-5.35-.78C144.22,130.07,144.24,129.29,144.19,128.2Z" transform="translate(-51.27 -34.64)"/><path class="cls-2" d="M109.18,129.83a16,16,0,0,1-1.21,3.46,2.36,2.36,0,0,1-4.16-.32,10.07,10.07,0,0,1-.07-7.68,2.69,2.69,0,0,1,2.6-1.58,2.56,2.56,0,0,1,2.3,2A39.24,39.24,0,0,1,109.18,129.83Z" transform="translate(-51.27 -34.64)"/><path class="cls-2" d="M110.47,110.57c-.56.59-.81,1.12-1.17,1.21-3.26.81-6.53,1.55-9.81,2.27a2.83,2.83,0,0,1-1.35-.1c-.25-.06-.61-.34-.63-.55a2.78,2.78,0,0,1,.2-1.27,1.23,1.23,0,0,1,.64-.61c3.18-1.1,6.32-2.4,9.77-2.09A7.73,7.73,0,0,1,110.47,110.57Z" transform="translate(-51.27 -34.64)"/><path class="cls-2" d="M153.19,115c-3.62-.7-6.89-1.31-10.15-2-.31-.06-.66-.65-.7-1a1.41,1.41,0,0,1,.49-1.16c2.86-1.82,9-.24,10.52,2.7C153.47,113.72,153.3,114.09,153.19,115Z" transform="translate(-51.27 -34.64)"/></svg>