<svg id="Layer_1" data-name="Layer 1" xmlns="http://www.w3.org/2000/svg" viewBox="0 0 165.75 216"><defs><style>.cls-1{fill:#fff;}.cls-1,.cls-2{fill-rule:evenodd;}.cls-2{fill:#1d262d;}</style></defs><path class="cls-1" d="M159.05,121.92a5.3,5.3,0,0,1,.42,1.17,155.38,155.38,0,0,1-.76,28.85,29.87,29.87,0,0,1-10,18.7,43.74,43.74,0,0,1-11.55,7.75,36.59,36.59,0,0,1-6,1.71c-7.76,1.91-15.59,1.47-23.42.68a5.58,5.58,0,0,1-1.42-.27c-6.15-2.35-12.29-4.75-17.3-9.21a20.07,20.07,0,0,1-2.93-3.18A61.52,61.52,0,0,1,77.22,149a19.89,19.89,0,0,1-.34-4.78c-.2-6.1-.41-12.2-.56-18.3,0-1.75.1-3.5.17-5.52a15.38,15.38,0,0,1,2.45-.1,11.74,11.74,0,0,0,8.69-2.07c2.25-1.54,4.41-3.21,6.55-4.9,1.5-1.19,2.9-2.51,4.39-3.8,1.67,1,1.62,2.8,2.36,4.15,2.71,4.92,7.59,7.37,12.91,6.22a15.06,15.06,0,0,0,7.43-4.25c1.12-1.11,2.18-2.29,3.25-3.42,9.94,7.92,11.89,5.29,18,.89.72,1,1.41,2,2.2,2.93a42.89,42.89,0,0,0,4.75,5.38c2.5,2.12,5.4,2.78,8.37.62C158.11,121.93,158.47,122,159.05,121.92Zm-35.21,38.49c-2.53.16-4,.18-5.4.35-1.1.13-2.18.51-3.29.64-3.86.48-4,2.31-2.92,5.38a6.72,6.72,0,0,0,4.77,4.37,14.29,14.29,0,0,0,14.2-3.57c2.38-2.2,1.77-4.79-1.41-5.86A47.08,47.08,0,0,0,123.84,160.41Zm-4.6-9.87c.77.57,1.22,1.15,1.75,1.24a5.58,5.58,0,0,0,6.13-3.48c.88-2,.53-3.71-1.7-5.4a5.6,5.6,0,0,1-2.47-4.36,22,22,0,0,0-.88-4.2,1.37,1.37,0,0,0-1.1-.67,1.42,1.42,0,0,0-1.13.62c-1.51,3.28-.44,8.54,2.14,11,.43.4.78.88,1.24,1.4Zm-16.35-10a16.66,16.66,0,0,0-.78-2.87,2.71,2.71,0,0,0-4.66-.72,6.19,6.19,0,0,0-1.32,5.78,3.35,3.35,0,0,0,3.46,2.65,3.29,3.29,0,0,0,3-2.63C102.73,142.14,102.76,141.5,102.89,140.53Zm39.73-.17c-.06-2.56-1.07-3.84-2.67-4a3.14,3.14,0,0,0-3.53,3,11.37,11.37,0,0,0,.34,3.72A2.6,2.6,0,0,0,139.2,145a2.56,2.56,0,0,0,2.64-1.64A17.21,17.21,0,0,0,142.62,140.36Zm-40.31-15.5c-.14-.59-.11-1.24-.38-1.42a6.24,6.24,0,0,0-7.47.27,1,1,0,0,0,.08,1.79Zm42.54.34c-.28-1.88-1.5-2.27-2.77-2.51a4.91,4.91,0,0,0-4.45,1.11,1.38,1.38,0,0,0-.22,1.26,1.42,1.42,0,0,0,1.1.67C140.54,125.62,142.56,125.4,144.85,125.2Z" transform="translate(-54.9 -40)"/><path class="cls-1" d="M113.6,185.19l14.83-.49a6.2,6.2,0,0,1,.63,1.43c1.05,6.79,5.34,11.48,10.19,15.81,1.53,1.36,3.17,2.62,4.81,4a27.85,27.85,0,0,1-12.52,4.53,109,109,0,0,1-21.6-.75,25,25,0,0,1-11.26-4.35,12.12,12.12,0,0,1,1.24-1.57c1-.85,2-1.64,3-2.42C108.32,197.27,112.44,192.31,113.6,185.19Z" transform="translate(-54.9 -40)"/><path class="cls-1" d="M95.14,207.58c1.53.88,2.62,1.55,3.75,2.14a32.52,32.52,0,0,0,13.72,4.08c5.6.22,11.21.5,16.82.56a25.59,25.59,0,0,0,10.76-2.18c2.76-1.23,5.7-2.06,8.64-3.1,1.14.65,2.27,1.25,3.34,1.93.8.51,1.53,1.14,2.45,1.85a20.67,20.67,0,0,1-.4,2.27,2.86,2.86,0,0,1-3.22,2.29,32.32,32.32,0,0,1-4.26-.59,3.14,3.14,0,0,0-3.69,1.52,15.71,15.71,0,0,1-1.11,1.56c-1.69,2-3.28,2.19-5.33.43-.72-.62-1.32-1.39-2-2.08a2.24,2.24,0,0,0-3.06-.32c-2,1.33-3.91,2.76-5.71,4-3.5-.12-3.94-3.83-6.53-4.93-1.73-.07-2.78,1.28-4,2.22-.76.58-1.41,1.31-2.16,1.92-2.33,1.91-4,1.67-5.33-1.07a25.62,25.62,0,0,1-1.34-4.57c-.49-1.73-1.76-2.28-3.3-1.35-1.09.66-2.1,1.47-3.19,2.15a14.59,14.59,0,0,1-2.53,1.34,2.92,2.92,0,0,1-4.11-2.1A8.88,8.88,0,0,1,95.14,207.58Z" transform="translate(-54.9 -40)"/><path class="cls-1" d="M72.88,132.25c-2.6-1.32-3.06-4.14-6-4.56.09.82,0,1.51.26,1.92a53.1,53.1,0,0,0,4,5.43,8.71,8.71,0,0,1,2.36,7.61c-1.33,1.32-3,.92-4.38.23a18.46,18.46,0,0,1-10.36-12.57A9.46,9.46,0,0,1,66,118.57a7.41,7.41,0,0,1,5.13.7A3.05,3.05,0,0,1,73,121.84,83.43,83.43,0,0,1,72.88,132.25Z" transform="translate(-54.9 -40)"/><path class="cls-1" d="M163.06,142c-.1-2.29-.28-4-.19-5.76a6.37,6.37,0,0,1,.92-2.65,22.42,22.42,0,0,1,6-6.8c.29-.22.5-1.08.35-1.23a2.13,2.13,0,0,0-1.53-.72,7.89,7.89,0,0,0-2.61,1.1,26.55,26.55,0,0,0-2.61,2.11c-.75-2.54-1-6.23-.61-7.55a5.13,5.13,0,0,1,6.67-3.07c3.61,1.43,6.27,4,7.11,7.89a8.13,8.13,0,0,1-.45,4.21C174.58,133.91,168.66,139.61,163.06,142Z" transform="translate(-54.9 -40)"/><path class="cls-1" d="M163.21,82.55l3.87-8.2a9,9,0,0,1,2.92.05,77.72,77.72,0,0,1,8.92,3.35c2.41,1.12,2.76,2.87,1.18,5.09a27.55,27.55,0,0,1-12.23,9.78C165.66,89.34,164.76,85.77,163.21,82.55Z" transform="translate(-54.9 -40)"/><path class="cls-1" d="M147.71,52.72a36.42,36.42,0,0,1,9,12.54,3.18,3.18,0,0,1-.38,3.59c-.63.71-1.15,1.52-1.87,2.48-2.46-2.12-4.71-4.33-7.23-6.16s-5.13-3.09-7.69-4.61C141.53,56.62,143.54,54.68,147.71,52.72Z" transform="translate(-54.9 -40)"/><path class="cls-1" d="M111.39,232.69a9.71,9.71,0,0,1,2.51-1.43c5.34-1,7.83-.9,10.78.39a45.11,45.11,0,0,1-5.58,10.59C114.77,240.41,113.61,236.35,111.39,232.69Z" transform="translate(-54.9 -40)"/><path class="cls-1" d="M151.35,229.46c.6-.36,1.08-.88,1.62-1,2.73-.33,7.89.57,11.37,1.92.22,1.57-.8,2.88-1.33,4.29s-1.14,2.59-1.6,3.62a2.86,2.86,0,0,1-3.4-.26A16.57,16.57,0,0,1,151.35,229.46Z" transform="translate(-54.9 -40)"/><path class="cls-1" d="M147,244.13l-12.89.92c-.11-.84-.51-1.69-.27-2.28,1.32-3.27,2.87-6.43,6.14-8.61A35.26,35.26,0,0,1,147,244.13Z" transform="translate(-54.9 -40)"/><path class="cls-1" d="M93.09,247.34A25.44,25.44,0,0,1,97,235.67c2.14.89,3.23,3,4.78,4.43a30.42,30.42,0,0,1,4.29,5.06C101.45,246.26,97.28,246.58,93.09,247.34Z" transform="translate(-54.9 -40)"/><path class="cls-1" d="M82,237.26c-2.82-2.87-4.26-6.35-6.15-9.83A26.17,26.17,0,0,1,85,224.26c1,2.39-.4,4.43-.76,6.5S83.58,235.15,82,237.26Z" transform="translate(-54.9 -40)"/><path class="cls-1" d="M161.19,79.36c-1.64-1.94-2.86-3.21-3.86-4.63s.14-4.15,2-4.68a3.44,3.44,0,0,1,3.18,1.75,11.35,11.35,0,0,1,.61,4.18C163,77,162.08,77.86,161.19,79.36Z" transform="translate(-54.9 -40)"/><path class="cls-1" d="M115.65,164.91c4.72-1.83,8.65-1.78,12.8.26a10.19,10.19,0,0,1-8.7,3C117.62,167.92,116.86,167.25,115.65,164.91Z" transform="translate(-54.9 -40)"/><path class="cls-2" d="M203.83,162.59h-5.7a30.45,30.45,0,0,1-17.66-5.5,20.87,20.87,0,0,1-8.54-11.3c-.32-1.06-.73-2.09-1.17-3.33l-7.46,4.2c-.2,1.05-.44,2.28-.68,3.51-2.29,12.1-8.31,21.86-18.63,28.64-2.89,1.89-6.43,2.8-9.67,4.16L132,184a14.71,14.71,0,0,0,3.57,9.2c4.51,5.19,10,9,15.6,12.75,8,5.4,15.69,11.19,21.49,19.08,1,1.3,1.94,2.57,2.87,3.87a32.31,32.31,0,0,1,6,15.08,88.79,88.79,0,0,1,.52,9.28c-2.23,2.63-4.9,2.79-7.7,2.78q-26.75,0-53.5,0c-18.47,0-36.95,0-55.42-.07a71.64,71.64,0,0,1-7.41-.82,15.5,15.5,0,0,1-.53-3.24,34.65,34.65,0,0,1,.73-6.2c1.2-5,2.45-10,3.94-14.88a26.27,26.27,0,0,1,11.19-14.62c2.42-1.58,4.88-3.11,7.42-4.48a129.48,129.48,0,0,0,21.84-14.92c4.6-3.84,6.39-6.7,7.6-12.11-.67-.25-1.36-.56-2.08-.78-2.3-.69-4.66-1.22-6.92-2-11-4-19-11.26-23.38-22.16-1.61-4-2.85-8.12-4.31-12.31-8.65-.51-13.73-5.9-17.28-13.23a13.86,13.86,0,0,1-.39-10.81,11.86,11.86,0,0,1,9-7.94c1.06-.26,2.15-.42,3.43-.68a12.11,12.11,0,0,0-.43-2.47c-1.89-4.76-1.3-9.46.31-14.13,1.11-3.18,2.42-6.29,3.39-9.52,2.08-6.91,6.59-12,11.89-16.6,2.55-2.19,5.29-4.19,8-6.16,6-4.32,12.47-7.26,19.94-7.69,3.69-.22,7.38-.89,11-.75,4.46.17,8.89,1,13.79,1.58,1.29-1.39,2.82-3.23,4.55-4.87a24.4,24.4,0,0,1,4.55-3.5c2.28-1.3,3.77-1,5.6.93C152,52.66,152.93,54,154,55.15a17.41,17.41,0,0,0,1.56,1.36c.54-1,1-1.85,1.41-2.7a23.39,23.39,0,0,1,11.74-10.94,32.5,32.5,0,0,1,23-1.41A48.57,48.57,0,0,1,208,49.7c10.88,8.46,14.64,19.54,11.72,32.9-1.9,8.72-5.81,16.63-10.36,24.25-2,3.31-3.9,6.65-5.62,10.1a50.41,50.41,0,0,0-5,23.82,43.2,43.2,0,0,0,4.39,17.16C203.77,159.43,204.39,160.78,203.83,162.59Zm-44.78-40.67c-.58.07-.94,0-1.16.16-3,2.16-5.87,1.5-8.37-.62a42.89,42.89,0,0,1-4.75-5.38c-.79-.94-1.48-2-2.2-2.93-6.16,4.4-8.11,7-18-.89-1.07,1.13-2.13,2.31-3.25,3.42a15.06,15.06,0,0,1-7.43,4.25c-5.32,1.15-10.2-1.3-12.91-6.22-.74-1.35-.69-3.17-2.36-4.15-1.49,1.29-2.89,2.61-4.39,3.8-2.14,1.69-4.3,3.36-6.55,4.9a11.74,11.74,0,0,1-8.69,2.07,15.38,15.38,0,0,0-2.45.1c-.07,2-.21,3.77-.17,5.52.15,6.1.36,12.2.56,18.3a19.89,19.89,0,0,0,.34,4.78,61.52,61.52,0,0,0,8.89,19.09A20.07,20.07,0,0,0,89,171.3c5,4.46,11.15,6.86,17.3,9.21a5.58,5.58,0,0,0,1.42.27c7.83.79,15.66,1.23,23.42-.68a36.59,36.59,0,0,0,6-1.71,43.74,43.74,0,0,0,11.55-7.75,29.87,29.87,0,0,0,10-18.7,155.38,155.38,0,0,0,.76-28.85A5.3,5.3,0,0,0,159.05,121.92ZM113.6,185.19c-1.16,7.12-5.28,12.08-10.69,16.17-1,.78-2,1.57-3,2.42a12.12,12.12,0,0,0-1.24,1.57,25,25,0,0,0,11.26,4.35,109,109,0,0,0,21.6.75,27.85,27.85,0,0,0,12.52-4.53c-1.64-1.36-3.28-2.62-4.81-4-4.85-4.33-9.14-9-10.19-15.81a6.2,6.2,0,0,0-.63-1.43ZM95.14,207.58a8.88,8.88,0,0,0-1.8,8,2.92,2.92,0,0,0,4.11,2.1,14.59,14.59,0,0,0,2.53-1.34c1.09-.68,2.1-1.49,3.19-2.15,1.54-.93,2.81-.38,3.3,1.35a25.62,25.62,0,0,0,1.34,4.57c1.36,2.74,3,3,5.33,1.07.75-.61,1.4-1.34,2.16-1.92,1.24-.94,2.29-2.29,4-2.22,2.59,1.1,3,4.81,6.53,4.93,1.8-1.28,3.72-2.71,5.71-4a2.24,2.24,0,0,1,3.06.32c.67.69,1.27,1.46,2,2.08,2,1.76,3.64,1.61,5.33-.43a15.71,15.71,0,0,0,1.11-1.56,3.14,3.14,0,0,1,3.69-1.52,32.32,32.32,0,0,0,4.26.59,2.86,2.86,0,0,0,3.22-2.29,20.67,20.67,0,0,0,.4-2.27c-.92-.71-1.65-1.34-2.45-1.85-1.07-.68-2.2-1.28-3.34-1.93-2.94,1-5.88,1.87-8.64,3.1a25.59,25.59,0,0,1-10.76,2.18c-5.61-.06-11.22-.34-16.82-.56a32.52,32.52,0,0,1-13.72-4.08C97.76,209.13,96.67,208.46,95.14,207.58ZM72.88,132.25A83.43,83.43,0,0,0,73,121.84a3.05,3.05,0,0,0-1.93-2.57,7.41,7.41,0,0,0-5.13-.7,9.46,9.46,0,0,0-7.25,11.74,18.46,18.46,0,0,0,10.36,12.57c1.41.69,3,1.09,4.38-.23A8.71,8.71,0,0,0,71.11,135a53.1,53.1,0,0,1-4-5.43c-.28-.41-.17-1.1-.26-1.92C69.82,128.11,70.28,130.93,72.88,132.25ZM163.06,142c5.6-2.38,11.52-8.08,13.08-12.47a8.13,8.13,0,0,0,.45-4.21c-.84-3.9-3.5-6.46-7.11-7.89a5.13,5.13,0,0,0-6.67,3.07c-.41,1.32-.14,5,.61,7.55a26.55,26.55,0,0,1,2.61-2.11,7.89,7.89,0,0,1,2.61-1.1,2.13,2.13,0,0,1,1.53.72c.15.15-.06,1-.35,1.23a22.42,22.42,0,0,0-6,6.8,6.37,6.37,0,0,0-.92,2.65C162.78,138,163,139.7,163.06,142Zm.15-59.44c1.55,3.22,2.45,6.79,4.66,10.07a27.55,27.55,0,0,0,12.23-9.78c1.58-2.22,1.23-4-1.18-5.09A77.72,77.72,0,0,0,170,74.4a9,9,0,0,0-2.92-.05Zm-15.5-29.83c-4.17,2-6.18,3.9-8.15,7.84,2.56,1.52,5.27,2.86,7.69,4.61s4.77,4,7.23,6.16c.72-1,1.24-1.77,1.87-2.48a3.18,3.18,0,0,0,.38-3.59A36.42,36.42,0,0,0,147.71,52.72Zm-36.32,180c2.22,3.66,3.38,7.72,7.71,9.55a45.11,45.11,0,0,0,5.58-10.59c-3-1.29-5.44-1.41-10.78-.39A9.71,9.71,0,0,0,111.39,232.69Zm40-3.23a16.57,16.57,0,0,0,6.66,8.62,2.86,2.86,0,0,0,3.4.26c.46-1,1.1-2.3,1.6-3.62s1.55-2.72,1.33-4.29c-3.48-1.35-8.64-2.25-11.37-1.92C152.43,228.58,152,229.1,151.35,229.46ZM147,244.13a35.26,35.26,0,0,0-7-10c-3.27,2.18-4.82,5.34-6.14,8.61-.24.59.16,1.44.27,2.28Zm-53.86,3.21c4.19-.76,8.36-1.08,13-2.18a30.42,30.42,0,0,0-4.29-5.06c-1.55-1.48-2.64-3.54-4.78-4.43A25.44,25.44,0,0,0,93.09,247.34ZM82,237.26c1.62-2.11,1.87-4.38,2.24-6.5s1.72-4.11.76-6.5a26.17,26.17,0,0,0-9.15,3.17C77.7,230.91,79.14,234.39,82,237.26Zm79.23-157.9c.89-1.5,1.81-2.4,1.9-3.38a11.35,11.35,0,0,0-.61-4.18,3.44,3.44,0,0,0-3.18-1.75c-1.83.53-3,3.17-2,4.68S159.55,77.42,161.19,79.36Z" transform="translate(-54.9 -40)"/><path class="cls-2" d="M123.84,160.41a47.08,47.08,0,0,1,5.95,1.31c3.18,1.07,3.79,3.66,1.41,5.86a14.29,14.29,0,0,1-14.2,3.57,6.72,6.72,0,0,1-4.77-4.37c-1.08-3.07-.94-4.9,2.92-5.38,1.11-.13,2.19-.51,3.29-.64C119.87,160.59,121.31,160.57,123.84,160.41Zm-8.19,4.5c1.21,2.34,2,3,4.1,3.25a10.19,10.19,0,0,0,8.7-3C124.3,163.13,120.37,163.08,115.65,164.91Z" transform="translate(-54.9 -40)"/><path class="cls-2" d="M119.24,150.54l4-3.86c-.46-.52-.81-1-1.24-1.4-2.58-2.45-3.65-7.71-2.14-11a1.42,1.42,0,0,1,1.13-.62,1.37,1.37,0,0,1,1.1.67,22,22,0,0,1,.88,4.2,5.6,5.6,0,0,0,2.47,4.36c2.23,1.69,2.58,3.37,1.7,5.4a5.58,5.58,0,0,1-6.13,3.48C120.46,151.69,120,151.11,119.24,150.54Z" transform="translate(-54.9 -40)"/><path class="cls-2" d="M102.89,140.53c-.13,1-.16,1.61-.31,2.21a3.29,3.29,0,0,1-3,2.63,3.35,3.35,0,0,1-3.46-2.65,6.19,6.19,0,0,1,1.32-5.78,2.71,2.71,0,0,1,4.66.72A16.66,16.66,0,0,1,102.89,140.53Z" transform="translate(-54.9 -40)"/><path class="cls-2" d="M142.62,140.36a17.21,17.21,0,0,1-.78,3A2.56,2.56,0,0,1,139.2,145a2.6,2.6,0,0,1-2.44-1.92,11.37,11.37,0,0,1-.34-3.72,3.14,3.14,0,0,1,3.53-3C141.55,136.52,142.56,137.8,142.62,140.36Z" transform="translate(-54.9 -40)"/><path class="cls-2" d="M102.31,124.86l-7.77.64a1,1,0,0,1-.08-1.79,6.24,6.24,0,0,1,7.47-.27C102.2,123.62,102.17,124.27,102.31,124.86Z" transform="translate(-54.9 -40)"/><path class="cls-2" d="M144.85,125.2c-2.29.2-4.31.42-6.34.53a1.42,1.42,0,0,1-1.1-.67,1.38,1.38,0,0,1,.22-1.26,4.91,4.91,0,0,1,4.45-1.11C143.35,122.93,144.57,123.32,144.85,125.2Z" transform="translate(-54.9 -40)"/></svg>