<svg id="Layer_1" data-name="Layer 1" xmlns="http://www.w3.org/2000/svg" viewBox="0 0 134.3 221.18"><defs><style>.cls-1{fill:#fff;}.cls-1,.cls-2{fill-rule:evenodd;}.cls-2{fill:#1d262d;}</style></defs><path class="cls-1" d="M183.36,247.8c-.3-2.52-.53-5.05-.84-7.56a22.22,22.22,0,0,0-3.33-9,74.74,74.74,0,0,0-10-12.78A5,5,0,0,0,168,218c-.44.53-1,1.13-1.46,1.75-6.35,7.84-14.12,13.48-24.05,16.06a17.22,17.22,0,0,1-14.09-2c-1.44-.9-2.81-1.89-4.51-3-1.5.77-3.08,1.69-4.74,2.43a57.39,57.39,0,0,1-7,2.86,14.72,14.72,0,0,1-10-.42,81.32,81.32,0,0,1-17.89-9.49c-3.23-2.38-5.94-5.46-9.22-8.55a10.85,10.85,0,0,0-4.26,3.54,40,40,0,0,0-4.28,7.43,74.5,74.5,0,0,0-5.21,22.14c0,.55-.1,1.1-.17,1.65.11.76.21,1.52.29,2.28,8.94,1.24,17.86,2.56,26.87,3.27,13.46,1.07,27,1.34,40.46,1.1s27.22-1.06,40.75-2.62c4.86-.56,9.71-1.19,14.55-1.93l.51-1.77C183.32,251,183.55,249.34,183.36,247.8Z" transform="translate(-54.14 -37.82)"/><path class="cls-1" d="M132.26,86.05c.75,1.09,1.28,1.72,1.66,2.43A62.73,62.73,0,0,0,143.33,101c4.83,5.21,9.5,10.58,14.43,15.71,3,3.16,4.38,7.18,6.24,11a5.06,5.06,0,0,1,.32,2.49c-.32,5.22-.55,10.46-1.1,15.67-.87,8.21-5.36,14.46-11.38,19.73a51.44,51.44,0,0,1-5.7,4.25,35.31,35.31,0,0,1-12.09,5,58.45,58.45,0,0,1-23.19.31c-8.41-1.55-16.2-5.18-22-11.67A43.66,43.66,0,0,1,78,140.9c-.79-5-.42-10.14-.35-15.21,0-2.87,1.59-4.49,4.53-5.16a23.72,23.72,0,0,0,8.55-4.31c2.19-1.57,4.33-3.22,6.61-4.92.92.68,1.68,1.31,2.5,1.86a7,7,0,0,0,8.12.21,34.12,34.12,0,0,0,5.9-4.75A163.77,163.77,0,0,0,130.06,89.1C130.64,88.28,131.24,87.47,132.26,86.05Zm-16.94,52.79c1.42-2.06,3-3.7,3.77-5.66a19.93,19.93,0,0,0,.94-9.94,5.21,5.21,0,0,0-.79-1.81,1.06,1.06,0,0,0-.83-.36c-.29,0-.76.22-.81.42a47.5,47.5,0,0,0-1.18,5.86c-.3,2.94-.94,5.63-3.35,7.62a6.19,6.19,0,0,0-1.21,1.59,3.93,3.93,0,0,0-.31,3.86,9.9,9.9,0,0,0,5.69,5.41c1.11.38,2.37.39,2.88-1.24C119,142.34,116.06,141.61,115.32,138.84Zm17.33,13.37a7.26,7.26,0,0,0-1.3.29c-.57.34-1.1.74-1.67,1.08-5.63,3.23-11.28,4.17-17,.23a7.44,7.44,0,0,0-2.19-1.19,1.92,1.92,0,0,0-1.72.46,1.86,1.86,0,0,0,.2,1.76c2.63,3,5.75,5.11,9.87,5.42a22.72,22.72,0,0,0,10.79-2c1.44-.61,2.75-1.45,3.15-3A11.62,11.62,0,0,0,132.65,152.21Zm-39.89-18c.09,1.43.08,1.94.15,2.44.25,1.86,1.24,3.08,2.62,3.29a3.6,3.6,0,0,0,4-2.46,7.74,7.74,0,0,0-.87-7.23,2.63,2.63,0,0,0-4.59.1A17.25,17.25,0,0,0,92.76,134.22ZM145,132.38a19.61,19.61,0,0,0-.77-3.45,2.89,2.89,0,0,0-5.2-.52,7.52,7.52,0,0,0-.7,7.16,3,3,0,0,0,5.72.12A25.72,25.72,0,0,0,145,132.38Zm1.25-13.3c.13-.74.22-.94.16-1-1-1.79-2.82-1.51-4.44-1.47s-3.37-.36-4.67,1a1,1,0,0,0-.12.87,1.15,1.15,0,0,0,.63.68A25.73,25.73,0,0,0,146.22,119.08Zm-52.9,2c2,0,4.15,0,6.25,0a1.07,1.07,0,0,0,.35-2,7.55,7.55,0,0,0-6.24-.08C92.79,119.27,92.69,120.1,93.32,121.06Z" transform="translate(-54.14 -37.82)"/><path class="cls-1" d="M160.08,210.35c-2.2,1-3.52,1.78-4.92,2.3a116.71,116.71,0,0,1-23.07,5.72,26.13,26.13,0,0,1-6.06.09c-6.39-.6-12.77-1.34-19.16-2s-12.47-3-18.58-4.92a6.29,6.29,0,0,1-1.39-1c1.2-.84,2.26-1.65,3.38-2.35a160,160,0,0,0,15.64-11.25c5.28-4.24,9.46-9.16,10.73-16.37,2.59,0,5.09,0,7.59-.09s5-.47,7.2-.69c.38.42.58.54.6.68,1,8.57,6.39,14.32,12.86,19.21,3.63,2.75,7.54,5.13,11.31,7.71C157.28,208.09,158.27,209,160.08,210.35Z" transform="translate(-54.14 -37.82)"/><path class="cls-1" d="M165,214.64a37.55,37.55,0,0,1-14.58,13.69,55.91,55.91,0,0,1-9,3.51,12.46,12.46,0,0,1-11.15-1.63c-1.42-.92-2.78-1.92-4.17-2.89a3.9,3.9,0,0,0-4.69-.13,81.93,81.93,0,0,1-8.55,4.38,12.41,12.41,0,0,1-10.82-.21C97.18,229,92.32,226.6,87.59,224a29.4,29.4,0,0,1-9.1-8.19c.86-1.92,2.73-2.37,4.52-3.41a64.81,64.81,0,0,0,15.87,6.08,98,98,0,0,0,10,1.86c4.18.62,8.39,1.09,12.59,1.58,5.23.62,10.44.88,15.63-.5,4.41-1.17,8.89-2,13.3-3.19,4.1-1.07,8.14-2.34,11.68-4.8C163,212.69,163.94,213,165,214.64Z" transform="translate(-54.14 -37.82)"/><path class="cls-1" d="M73.37,135.68A10.47,10.47,0,0,1,67.09,134a21.55,21.55,0,0,1-7.77-9.74,10.8,10.8,0,0,1,.29-8.84c1.15-2.64,3.35-4.13,6.31-4.92,2.23,2.79,3.15,6.2,4.72,9.19-.79,1.14-1.22.16-1.73,0l-1.72-.53A1.92,1.92,0,0,0,67,122c1.57,2.2,3.09,4.44,4.85,6.48S74,132.92,73.37,135.68Z" transform="translate(-54.14 -37.82)"/><path class="cls-1" d="M168.93,132.39a7.32,7.32,0,0,1,1.53-7.79c1.54-1.78,3.27-3.38,4.84-5.14a19.8,19.8,0,0,0,1.71-2.68l-4.22-.76c-.14-.26-.29-.42-.27-.53a46,46,0,0,1,1.26-4.85c.18-.51,1-.77,1.61-1.17,2.69.81,4.29,2.79,5.75,4.85a7,7,0,0,1,.46,7.66,31.21,31.21,0,0,1-7.71,9.32A5.19,5.19,0,0,1,168.93,132.39Z" transform="translate(-54.14 -37.82)"/><path class="cls-1" d="M174.55,146.53l8.81,10.92c-1.49,1.61-3.41,1.6-5.05,2.15s-3.48,1.06-5.54,1.68C171.64,156.18,173.42,151.59,174.55,146.53Z" transform="translate(-54.14 -37.82)"/><path class="cls-1" d="M67.92,151.31c1.25,4.22,2.29,7.75,3.35,11.31-3.83.89-3.89.88-9.53-1C62.26,158.51,63.7,156,67.92,151.31Z" transform="translate(-54.14 -37.82)"/><path class="cls-1" d="M72.72,141.63c.09,2.09-1.2,3.41-2.82,3.38a3.57,3.57,0,0,1-3.58-3.51A3.43,3.43,0,0,1,69,138.21a2.75,2.75,0,0,1,2.92,1.57A13.18,13.18,0,0,1,72.72,141.63Z" transform="translate(-54.14 -37.82)"/><path class="cls-1" d="M172.43,135.27a20.41,20.41,0,0,1,2.51,1.88,1.78,1.78,0,0,1-.54,2.62,8.44,8.44,0,0,1-1.87.76,2.5,2.5,0,0,1-3-1.19,3.1,3.1,0,0,1,1.54-3.84A8.77,8.77,0,0,1,172.43,135.27Z" transform="translate(-54.14 -37.82)"/><path class="cls-1" d="M72.86,123.16c-.24,0-.47.14-.49.1-.2-.34-.36-.69-.54-1,.11,0,.3-.12.32-.09C72.39,122.45,72.61,122.79,72.86,123.16Z" transform="translate(-54.14 -37.82)"/><path class="cls-2" d="M139.63,43.18c8.2-2.8,15.09.28,21.4,5.48a20.56,20.56,0,0,1,2.58,2.44c7.18,8.28,12.86,17.4,15.63,28.13A33.88,33.88,0,0,1,180.3,90.3c-.38,5.21-.49,10.46-2.4,15.62,1.33,1,2.61,1.8,3.74,2.76,6,5.08,6.58,12.24,2.69,17.69-1.28,1.78-2.71,3.46-4.12,5.14-.86,1-1.82,2-2.85,3.08,1.44,2.81,1.73,5.54-.8,8a54.22,54.22,0,0,0,5.82,7.91c1.27,1.59,2.68,3.06,3.89,4.69,2.4,3.26,1.8,5.19-2,6.42q-5.07,1.65-10.19,3.12c-3.32,1-5.33-.4-5.34-3.94a79.63,79.63,0,0,1,.78-9.09c.21-1.85.58-3.68.78-5.52a10.86,10.86,0,0,0-.31-2.36c-.78.46-1.55.65-1.72,1.07-.74,1.89-1.27,3.86-1.94,5.78A44.93,44.93,0,0,1,148,174.2c-1.8,1.17-4,1.71-6.05,2.53-1.72.7-3.46,1.37-5.21,2.06-.61,4.66,0,5.83,2.95,9.43,4.78,5.91,10.73,10.31,17.18,14.08,9.84,5.77,17.46,13.84,24.24,22.82a35.39,35.39,0,0,1,7.3,20.73c.06,2.17,0,4.33,0,6.86l-3.63.19c-1.52-1.69-1.22-3.46-1.42-5.1-.3-2.52-.53-5.05-.84-7.56a22.22,22.22,0,0,0-3.33-9,74.74,74.74,0,0,0-10-12.78A5,5,0,0,0,168,218c-.44.53-1,1.13-1.46,1.75-6.35,7.84-14.12,13.48-24.05,16.06a17.22,17.22,0,0,1-14.09-2c-1.44-.9-2.81-1.89-4.51-3-1.5.77-3.08,1.69-4.74,2.43a57.39,57.39,0,0,1-7,2.86,14.72,14.72,0,0,1-10-.42,81.32,81.32,0,0,1-17.89-9.49c-3.23-2.38-5.94-5.46-9.22-8.55a10.85,10.85,0,0,0-4.26,3.54,40,40,0,0,0-4.28,7.43,74.5,74.5,0,0,0-5.21,22.14,21,21,0,0,1-.3,2.51,1.76,1.76,0,0,1-1.73,1.54c-1.22.09-2.24-.39-2.36-1.4a19.22,19.22,0,0,1-.18-4.54,92.18,92.18,0,0,1,5.69-22.57,25.91,25.91,0,0,1,9.13-11.94,114.47,114.47,0,0,1,10.28-6.48,141.87,141.87,0,0,0,22.56-15.5,23.91,23.91,0,0,0,7.25-9.64,26.41,26.41,0,0,0,.73-2.73c-1.55-.47-3-.92-4.38-1.32-9-2.5-17-6.66-23.1-13.94a47.41,47.41,0,0,1-7.32-12.69c-.71-1.71-1.4-3.41-2.2-5.35l-4.73,2.72c.82,2.52,1.69,4.89,2.35,7.31a51.51,51.51,0,0,1,1.63,7.4c.3,2.48-.92,3.56-3.29,3.18-3.17-.51-6.32-1.15-9.46-1.81a12.78,12.78,0,0,1-2.86-1A2.56,2.56,0,0,1,57.52,161a27.21,27.21,0,0,1,2.29-4.5c1.8-2.86,3.73-5.64,5.63-8.49-.86-1.7-2.08-3.24-2.4-5s.23-3.61.41-5.56c-1.85-2.14-4-4.32-5.79-6.74a17,17,0,0,1-3.49-11.4c.32-5.54,2.54-9.73,7.71-12.12.62-.28,1.2-.63,1.79-1a2.91,2.91,0,0,0,.46-.47c-.32-3-.67-6.23-1-9.41a33.33,33.33,0,0,1,4.21-20A135.48,135.48,0,0,1,80.16,56.93,44.64,44.64,0,0,1,100.88,42c5.61-1.92,11.21-3.67,17.2-4.11a30.49,30.49,0,0,1,14.37,2.23Zm-7.37,42.87c-1,1.42-1.62,2.23-2.2,3a163.77,163.77,0,0,1-16.21,19.52,34.12,34.12,0,0,1-5.9,4.75,7,7,0,0,1-8.12-.21c-.82-.55-1.58-1.18-2.5-1.86-2.28,1.7-4.42,3.35-6.61,4.92a23.72,23.72,0,0,1-8.55,4.31c-2.94.67-4.48,2.29-4.53,5.16-.07,5.07-.44,10.24.35,15.21a43.66,43.66,0,0,0,10.82,22.58c5.85,6.49,13.64,10.12,22,11.67a58.45,58.45,0,0,0,23.19-.31,35.31,35.31,0,0,0,12.09-5,51.44,51.44,0,0,0,5.7-4.25c6-5.27,10.51-11.52,11.38-19.73.55-5.21.78-10.45,1.1-15.67a5.06,5.06,0,0,0-.32-2.49c-1.86-3.77-3.2-7.79-6.24-11-4.93-5.13-9.6-10.5-14.43-15.71a62.73,62.73,0,0,1-9.41-12.56C133.54,87.77,133,87.14,132.26,86.05Zm27.82,124.3c-1.81-1.4-2.8-2.26-3.87-3-3.77-2.58-7.68-5-11.31-7.71-6.47-4.89-11.82-10.64-12.86-19.21,0-.14-.22-.26-.6-.68-2.24.22-4.71.55-7.2.69s-5,.07-7.59.09c-1.27,7.21-5.45,12.13-10.73,16.37a160,160,0,0,1-15.64,11.25c-1.12.7-2.18,1.51-3.38,2.35a6.29,6.29,0,0,0,1.39,1c6.11,2,12.13,4.23,18.58,4.92s12.77,1.42,19.16,2a26.13,26.13,0,0,0,6.06-.09,116.71,116.71,0,0,0,23.07-5.72C156.56,212.13,157.88,211.39,160.08,210.35Zm4.88,4.29c-1-1.66-1.92-1.95-2.93-1.24-3.54,2.46-7.58,3.73-11.68,4.8-4.41,1.14-8.89,2-13.3,3.19-5.19,1.38-10.4,1.12-15.63.5-4.2-.49-8.41-1-12.59-1.58a98,98,0,0,1-10-1.86A64.81,64.81,0,0,1,83,212.37c-1.79,1-3.66,1.49-4.52,3.41a29.4,29.4,0,0,0,9.1,8.19c4.73,2.63,9.59,5,14.45,7.39a12.41,12.41,0,0,0,10.82.21,81.93,81.93,0,0,0,8.55-4.38,3.9,3.9,0,0,1,4.69.13c1.39,1,2.75,2,4.17,2.89a12.46,12.46,0,0,0,11.15,1.63,55.91,55.91,0,0,0,9-3.51A37.55,37.55,0,0,0,165,214.64Zm-91.59-79c.59-2.76.31-5.05-1.53-7.19S68.56,124.21,67,122a1.92,1.92,0,0,1,.2-2.88l1.72.53c.51.14.94,1.12,1.73,0-1.57-3-2.49-6.4-4.72-9.19-3,.79-5.16,2.28-6.31,4.92a10.8,10.8,0,0,0-.29,8.84A21.55,21.55,0,0,0,67.09,134,10.47,10.47,0,0,0,73.37,135.68Zm95.56-3.29a5.19,5.19,0,0,0,5-1.09A31.21,31.21,0,0,0,181.6,122a7,7,0,0,0-.46-7.66c-1.46-2.06-3.06-4-5.75-4.85-.57.4-1.43.66-1.61,1.17a46,46,0,0,0-1.26,4.85c0,.11.13.27.27.53l4.22.76a19.8,19.8,0,0,1-1.71,2.68c-1.57,1.76-3.3,3.36-4.84,5.14A7.32,7.32,0,0,0,168.93,132.39Zm5.62,14.14c-1.13,5.06-2.91,9.65-1.78,14.75,2.06-.62,3.81-1.09,5.54-1.68s3.56-.54,5.05-2.15ZM67.92,151.31c-4.22,4.7-5.66,7.2-6.18,10.34,5.64,1.85,5.7,1.86,9.53,1C70.21,159.06,69.17,155.53,67.92,151.31Zm4.8-9.68a13.18,13.18,0,0,0-.82-1.85A2.75,2.75,0,0,0,69,138.21a3.43,3.43,0,0,0-2.66,3.29A3.57,3.57,0,0,0,69.9,145C71.52,145,72.81,143.72,72.72,141.63Zm99.71-6.36a8.77,8.77,0,0,0-1.38.23,3.1,3.1,0,0,0-1.54,3.84,2.5,2.5,0,0,0,3,1.19,8.44,8.44,0,0,0,1.87-.76,1.78,1.78,0,0,0,.54-2.62A20.41,20.41,0,0,0,172.43,135.27ZM72.86,123.16c-.25-.37-.47-.71-.71-1,0,0-.21.05-.32.09.18.35.34.7.54,1C72.39,123.3,72.62,123.21,72.86,123.16Z" transform="translate(-54.14 -37.82)"/><path class="cls-2" d="M115.32,138.84c.74,2.77,3.72,3.5,4.8,5.75-.51,1.63-1.77,1.62-2.88,1.24a9.9,9.9,0,0,1-5.69-5.41,3.93,3.93,0,0,1,.31-3.86,6.19,6.19,0,0,1,1.21-1.59c2.41-2,3.05-4.68,3.35-7.62a47.5,47.5,0,0,1,1.18-5.86c.05-.2.52-.41.81-.42a1.06,1.06,0,0,1,.83.36,5.21,5.21,0,0,1,.79,1.81,19.93,19.93,0,0,1-.94,9.94C118.36,135.14,116.74,136.78,115.32,138.84Z" transform="translate(-54.14 -37.82)"/><path class="cls-2" d="M132.65,152.21a11.62,11.62,0,0,1,.12,3c-.4,1.58-1.71,2.42-3.15,3a22.72,22.72,0,0,1-10.79,2c-4.12-.31-7.24-2.43-9.87-5.42a1.86,1.86,0,0,1-.2-1.76,1.92,1.92,0,0,1,1.72-.46,7.44,7.44,0,0,1,2.19,1.19c5.73,3.94,11.38,3,17-.23.57-.34,1.1-.74,1.67-1.08A7.26,7.26,0,0,1,132.65,152.21Z" transform="translate(-54.14 -37.82)"/><path class="cls-2" d="M92.76,134.22A17.25,17.25,0,0,1,94,130.36a2.63,2.63,0,0,1,4.59-.1,7.74,7.74,0,0,1,.87,7.23,3.6,3.6,0,0,1-4,2.46c-1.38-.21-2.37-1.43-2.62-3.29C92.84,136.16,92.85,135.65,92.76,134.22Z" transform="translate(-54.14 -37.82)"/><path class="cls-2" d="M145,132.38a25.72,25.72,0,0,1-.95,3.31,3,3,0,0,1-5.72-.12,7.52,7.52,0,0,1,.7-7.16,2.89,2.89,0,0,1,5.2.52A19.61,19.61,0,0,1,145,132.38Z" transform="translate(-54.14 -37.82)"/><path class="cls-2" d="M146.22,119.08a25.73,25.73,0,0,1-8.44.08,1.15,1.15,0,0,1-.63-.68,1,1,0,0,1,.12-.87c1.3-1.4,3.07-1,4.67-1s3.41-.32,4.44,1.47C146.44,118.14,146.35,118.34,146.22,119.08Z" transform="translate(-54.14 -37.82)"/><path class="cls-2" d="M93.32,121.06c-.63-1-.53-1.79.36-2.16a7.55,7.55,0,0,1,6.24.08,1.07,1.07,0,0,1-.35,2C97.47,121.1,95.36,121.06,93.32,121.06Z" transform="translate(-54.14 -37.82)"/></svg>