<?xml version="1.0" encoding="utf-8"?>
<!-- Generator: Adobe Illustrator 25.2.0, SVG Export Plug-In . SVG Version: 6.00 Build 0)  -->
<svg version="1.1" id="Layer_1" xmlns="http://www.w3.org/2000/svg" xmlns:xlink="http://www.w3.org/1999/xlink" x="0px" y="0px"
	 viewBox="0 0 133.6 93" style="enable-background:new 0 0 133.6 93;" xml:space="preserve">
<style type="text/css">
	.st0{clip-path:url(#SVGID_2_);}
	.st1{fill:#617143;}
	.st2{fill:#8BA13C;}
	.st3{fill:#312816;}
	.st4{fill:#EAE4D1;}
</style>
<g>
	<defs>
		<rect id="SVGID_1_" x="0.6" width="133" height="93"/>
	</defs>
	<clipPath id="SVGID_2_">
		<use xlink:href="#SVGID_1_"  style="overflow:visible;"/>
	</clipPath>
	<g class="st0">
		<circle class="st1" cx="57.1" cy="51.5" r="41.5"/>
		<path class="st2" d="M37.3,38.1l17.9,2.3c1.5,0.2,2.7,1.5,2.6,3l-0.5,18.1c0,0.8-0.4,1.6-1,2.2L22.9,92.3c-1.3,1-3.1,0.9-4.2-0.3
			L1.3,71.6c-1.1-1.3-0.9-3.1,0.4-4.2L35,38.8C35.7,38.3,36.6,38,37.3,38.1z M50.7,46.9c1,1.1,2.7,1.3,3.9,0.3
			c1.1-1,1.3-2.7,0.3-3.8c-1-1.1-2.7-1.3-3.8-0.3C49.9,44,49.7,45.8,50.7,46.9z"/>
		<path class="st3" d="M6.3,64.7c-0.7,1.2-1.3,2.4-1.8,3.8c-0.2,0.6-0.4,1.3-0.6,2c-0.1,0.6-0.3,1.3-0.4,2c0,0.3,0.6,0.4,0.6,0.1
			c0.2-0.6,0.3-1.3,0.4-1.9c0.1-0.6,0.3-1.3,0.6-2C5.5,67.5,6,66.2,6.5,65C6.7,64.7,6.4,64.5,6.3,64.7z"/>
		<path class="st3" d="M6.2,68.6c-0.2,0.6-0.4,1.2-0.6,1.8c-0.1,0.6-0.3,1.3-0.3,2c0,0.3,0.5,0.4,0.6,0.1c0.1-0.3,0.1-0.6,0.2-1
			c0.1-0.3,0.1-0.6,0.1-0.9c0.1-0.6,0.3-1.3,0.5-1.8C6.7,68.4,6.3,68.3,6.2,68.6z"/>
		<path class="st3" d="M54.8,62.5c-1.9,1.5-3.8,3.1-5.7,4.6c-1.9,1.5-3.7,3.1-5.6,4.7c-3.6,3.1-7.3,6.2-11,9.3
			c-2.1,1.7-4.2,3.5-6.2,5.3c-0.3,0.3,0.1,0.6,0.4,0.4c1.9-1.5,3.7-3.1,5.6-4.7c1.8-1.5,3.7-3.1,5.5-4.7c3.6-3.1,7.3-6.2,11-9.3
			c1-0.8,2-1.7,3.1-2.6c1-0.9,2.1-1.9,3.1-2.8C55.3,62.6,55,62.3,54.8,62.5z"/>
		<path class="st3" d="M133.6,17.1c-1.1-2-2.2-4.1-3.5-5.9c-1.2-1.6-2.4-3.1-4.1-4.4c-1.5-1.1-3.2-2-5-2.2c-1.9-0.2-3.7,0.4-5.2,1.5
			c-3.4,2.4-4.9,6.3-7.4,9.4c-1.3,1.5-3,3.3-5.2,3.4c-2.2,0.1-3.7-2-4.9-3.5c-1.3-1.6-2.6-3.4-4-4.9C93,9,91.4,7.4,89.7,6.4
			c-1.7-1-3.8-1.5-5.6-0.6c-1.7,0.8-2.7,2.4-3.5,4c-1.8,3.7-2.8,7.8-4.1,11.7c-0.6,2-1.4,3.8-2.4,5.7c-0.5,0.9-1.1,1.7-1.8,2.6
			c-0.6,0.7-1.3,1.4-2.3,1.5c-1.6,0.3-3.2-0.8-4.5-1.5c-1.4-0.8-3.1-1.5-4.7-1c-1.9,0.6-3.1,2.4-3.7,4.1c-0.4,1-0.6,2.2-0.8,3.2
			c-0.3,1.2-0.5,2.4-0.8,3.6c-0.2,1.2-0.5,2.4-0.7,3.6c0.2,0.1,0.3,0.1,0.6,0.1c0.8-5.9-0.7-12-4.1-16.9c-0.8-1.2-1.8-2.4-2.9-3.4
			c-0.8-0.7-2.4-1.4-3.1-0.1c-0.6,1.3,0.5,2.9,1,4c0.8,1.7,1.6,3.3,2.5,5c1.9,3.8,3.9,7.5,6,11.1c0.1,0.1,0.3,0.2,0.5,0.1
			c3.4-3.3,8.1-5.6,12.8-6.1c0.9-0.1,2-0.1,2.8,0.6c0.9,0.8,0.8,2.2,0.1,3c-0.7,0.9-1.9,1.4-2.9,1.7c-1.3,0.4-2.6,0.7-3.9,0.9
			c-3,0.4-6,0.3-9-0.3c-0.3-0.1-0.6,0.5-0.1,0.6c2.9,0.6,5.9,0.8,8.8,0.4c1.5-0.2,2.9-0.5,4.3-0.9c1.2-0.3,2.5-0.8,3.3-1.8
			c0.7-0.8,1.1-2,0.7-3.1c-0.4-1-1.3-1.5-2.4-1.7c-1.2-0.1-2.4,0.1-3.6,0.3c-1.3,0.3-2.6,0.6-3.8,1.1c-2.8,1.1-5.2,2.7-7.4,4.8
			c0.1,0,0.3,0.1,0.5,0.1c-1.7-3-3.3-6-4.8-9c-0.8-1.5-1.5-3-2.3-4.5c-0.3-0.8-0.8-1.5-1.1-2.3c-0.3-0.7-0.8-1.5-1-2.2
			c-0.2-0.5-0.4-1.3,0-1.7c0.6-0.6,1.4-0.1,1.9,0.3c1,0.8,2,2,2.8,3.1c1.6,2.2,2.9,4.7,3.6,7.3c0.8,3,1.1,6.2,0.7,9.3
			c-0.1,0.3,0.5,0.5,0.6,0.1c0.5-2.4,1-4.7,1.6-7.1c0.4-2,0.8-4.3,2.4-5.8c0.6-0.7,1.5-1.2,2.5-1.3c0.8-0.1,1.5,0.2,2.3,0.5
			c1.5,0.6,2.7,1.7,4.3,2.1c1.8,0.4,3.3-0.3,4.4-1.7c1.3-1.5,2.2-3.3,3-5.1c1.6-3.7,2.5-7.7,3.9-11.5c1.1-3.2,3-8.5,7.3-7.7
			c2.1,0.3,3.9,1.8,5.3,3.3c1.5,1.5,2.7,3.1,4,4.7c0.6,0.8,1.3,1.6,2,2.4c0.6,0.8,1.3,1.5,2.1,2.2c0.7,0.6,1.5,0.9,2.5,1
			c1,0,1.9-0.3,2.7-0.8c3.5-2,5.1-6.2,7.4-9.2c1.2-1.5,2.6-2.9,4.3-3.8c1.8-0.8,3.8-0.8,5.6,0c3.8,1.5,6.4,5.4,8.5,8.8
			c0.6,1,1.1,2,1.6,2.9C133.3,17.5,133.7,17.3,133.6,17.1z"/>
		<path class="st4" d="M17,56.8l-1.3,4.6c-0.2,0.6,0,1.3,0.4,1.8l2.3,2.5l-1.6,1.5l6.6,0.3l0.4-6.6l-1.6,1.5l-2.7-2.8l8.5-1.3
			l-0.8-5l-7.6,1.1C18.4,54.7,17.3,55.6,17,56.8z"/>
		<path class="st4" d="M31.7,50.9l-3.1,5.7l5.7,3.2l-0.6-2.1l3.7-1l-2.7,8.1l4.8,1.5l2.3-7.2c0.4-1.2,0.1-2.5-0.9-3.4l-3.6-3.2
			c-0.4-0.5-1.1-0.7-1.8-0.5L32.3,53L31.7,50.9z"/>
		<path class="st4" d="M26.6,67.8l-3.7,3.4l5.2,5.7c0.8,0.9,2.2,1.3,3.4,0.8l4.6-1.5c0.6-0.2,1.1-0.8,1.3-1.4l0.8-3.3l2.1,0.5
			l-3.5-5.6l-5.6,3.4l2.1,0.5L32.3,74L26.6,67.8z"/>
	</g>
</g>
</svg>
