<?xml version="1.0" encoding="utf-8"?>
<!-- Generator: Adobe Illustrator 25.2.0, SVG Export Plug-In . SVG Version: 6.00 Build 0)  -->
<svg version="1.1" id="Layer_1" xmlns="http://www.w3.org/2000/svg" xmlns:xlink="http://www.w3.org/1999/xlink" x="0px" y="0px"
	 viewBox="0 0 68.3 110.9" style="enable-background:new 0 0 68.3 110.9;" xml:space="preserve">
<style type="text/css">
	.st0{fill:#617143;}
	.st1{fill:#B1C470;}
	.st2{fill:#312816;}
</style>
<ellipse transform="matrix(0.5489 -0.8359 0.8359 0.5489 -35.222 57.4497)" class="st0" cx="35.6" cy="61.4" rx="33.5" ry="32.4"/>
<path class="st1" d="M15,70.8c1.3,9.7,4.6,18.8,8.2,27.6C32,88,46.5,83.9,55.5,73.3c8.7-10.3,10.7-25,7.6-37.5
	C60,23.3,52.6,12.7,44.9,2.9c-1.7,7.2-6.5,13.6-11.4,19.3C28.8,27.8,23.2,33.3,19.7,40C14.5,49.5,13.6,60.6,15,70.8z"/>
<path class="st2" d="M45.9,12.4c0.5,7,1,13.8,0.1,20.9c-0.8,6.9-3,13.3-5.7,19.7C35,65.1,27.8,76.7,24.5,89.5
	c-1.8,6.7-2.9,14.4-1,20.9c0.3,1.2,2.1,0.4,1.9-0.6c-0.4-3.1-0.7-6.2-0.6-9.5c0.2-3.2,0.7-6.4,1.5-9.6c1.6-6.4,4.1-12.6,7-18.6
	C39.1,59.9,46,48,47.9,34.7c1.1-7.7,0.8-15.5-0.7-22.9C47,11.4,46,11.7,45.9,12.4z"/>
<path class="st2" d="M55,60.3c-5.7,3.9-11.3,7.9-16.6,12.5c-5.1,4.5-9.8,9.6-13.7,15.1c0.6,0.1,1,0.2,1.6,0.3
	c-0.6-5.4-1.2-10.8-1.8-16.2c-0.6-5.4-1.1-10.7-1.9-16.1c-0.2-1.3-2.1-0.9-2,0.4c0.5,5.3,1.2,10.8,1.9,16.1
	c0.6,5.4,1.3,10.7,1.9,16.1c0.1,0.8,1.1,1,1.6,0.3c3.7-5.7,8.4-10.7,13.5-15.2c5.1-4.5,10.5-8.6,15.8-12.8
	C56.3,60.7,55.5,59.9,55,60.3z"/>
<path class="st2" d="M58.8,36.6c-3.8,2.5-7.1,6.1-10.3,9.3c-3.3,3.3-6.4,7-9.5,10.7c0.6,0.1,1.1,0.3,1.7,0.4c-0.2-4.7-1-9.2-2-13.7
	c-1-4.2-2.1-8.8-4.2-12.6c-0.6-1.1-2,0.1-1.8,1c0.6,2.1,1.6,3.9,2.4,6.1c0.6,2.1,1.4,4.2,1.7,6.4c1,4.2,1.5,8.7,2,13
	c0,1,1.3,1.1,1.7,0.4c2.8-3.6,6-7.1,9.1-10.5c3.1-3.4,6.6-6.4,9.4-10C59.5,37.1,59.1,36.3,58.8,36.6z"/>
</svg>
