<?xml version="1.0" encoding="utf-8"?>
<!-- Generator: Adobe Illustrator 25.2.0, SVG Export Plug-In . SVG Version: 6.00 Build 0)  -->
<svg version="1.1" id="Layer_1" xmlns="http://www.w3.org/2000/svg" xmlns:xlink="http://www.w3.org/1999/xlink" x="0px" y="0px"
	 viewBox="0 0 91.4 124.1" style="enable-background:new 0 0 91.4 124.1;" xml:space="preserve">
<style type="text/css">
	.st0{fill:#617143;}
	.st1{clip-path:url(#SVGID_2_);}
	.st2{fill:#B1C470;}
	.st3{fill:#312816;}
	.st4{fill:#9E7D55;}
</style>
<ellipse transform="matrix(0.5489 -0.8359 0.8359 0.5489 -32.8644 66.8128)" class="st0" cx="45.5" cy="63.9" rx="40.4" ry="42.6"/>
<g>
	<defs>
		<rect id="SVGID_1_" y="3.1" width="82" height="121"/>
	</defs>
	<clipPath id="SVGID_2_">
		<use xlink:href="#SVGID_1_"  style="overflow:visible;"/>
	</clipPath>
	<g class="st1">
		<path class="st2" d="M71.9,93.5c0.1,0.1,0.4,0.8,0.6,3.1c0.1,1.5-0.5,4.1-2,5.7c-0.5,0.5-1.1,1-1.7,1.2c-2.3,0.8-5.9,1.9-11.4,3.3
			c-5.5,1.4-9.2,2.1-11.6,2.4c-0.8,0.1-1.6,0-2.3-0.3c-1.9-0.8-3.6-2.8-4.2-4c-0.9-2.1-0.9-2.9-0.9-3c3.6,1.3,8.8,0.3,17.3-1.8
			C64.3,97.8,69.4,96.3,71.9,93.5z"/>
		<path class="st2" d="M73.6,112c0,0,2.5,0.7,0.7,3c0,0-0.4,0.3-3.2,1.3c-2,0.6-5.3,1.6-10.5,2.9c-5.3,1.3-8.6,2-10.7,2.4
			c-2.9,0.5-3.4,0.4-3.4,0.4c-2.6-1.2-0.7-3-0.7-3l-0.4-1.8c-2.5-1.4-0.8-3.2-0.8-3.2l-0.4-1.6c-2.1-1.6-0.8-3.1-0.8-3.1l0.2-0.3
			c0.8,0.3,1.6,0.5,2.3,0.3c2.4-0.3,6.1-1.1,11.6-2.4c5.5-1.4,9.1-2.4,11.4-3.3c0.6-0.2,1.2-0.6,1.7-1.2h0.5c0,0,1.9,0.8,0.8,3.1
			l0.4,1.6c0,0,2.3,0.8,0.8,3.2L73.6,112z"/>
		<path class="st2" d="M71.2,116.2c0,0,0.7,4.6-9.5,7.1c-10.2,2.5-11.7-1.8-11.7-1.8c2.1-0.3,5.4-1.1,10.7-2.4
			C65.9,117.8,69.2,116.8,71.2,116.2z"/>
		<path class="st3" d="M43.2,108.7c0.9,0.4,1.7,0.4,2.6,0.3c1,0,2-0.1,3-0.1c2-0.1,4-0.3,5.9-0.5c3.7-0.5,7.4-1.3,10.8-2.8
			c1.8-0.8,3.8-1.7,5.3-3c0.2-0.2-0.1-0.6-0.4-0.5c-1.5,0.9-2.9,1.8-4.5,2.5c-1.6,0.7-3.3,1.3-5,1.7c-3.7,1-7.5,1.5-11.3,1.7
			c-2.1,0.1-4.3,0.4-6.4,0.2C43.1,108.4,43,108.7,43.2,108.7z"/>
		<path class="st3" d="M44.4,112.4c1.9,0.1,3.9-0.1,5.8-0.4c1.9-0.2,3.8-0.4,5.7-0.8c3.6-0.6,7.1-1.6,10.5-2.9
			c1.8-0.7,3.7-1.6,5.3-2.6c0.3-0.2,0-0.8-0.3-0.6c-3.1,1.7-6.3,3.1-9.8,4c-3.6,1-7.3,1.7-11,2c-2.1,0.2-4.2,0.3-6.3,0.7
			C44.2,112.1,44.2,112.4,44.4,112.4z"/>
		<path class="st3" d="M44.6,114c1.9,0.5,3.8,0.1,5.7,0c2-0.2,4-0.4,6-0.7c3.7-0.5,7.4-1.4,10.8-2.8c1.9-0.8,3.7-1.7,5.3-2.9
			c0.3-0.2,0-0.8-0.3-0.5c-6.2,4.2-13.6,5.4-20.9,6.2c-1.1,0.1-2.1,0.2-3.2,0.3c-1.1,0.1-2.2,0.2-3.2,0
			C44.5,113.6,44.4,113.9,44.6,114z"/>
		<path class="st3" d="M45.4,117c7.4,0.6,15.1-1,22-3.7c2-0.8,3.9-1.7,5.8-2.7c0.4-0.2,0-0.8-0.3-0.6c-3.3,1.7-6.7,3.2-10.3,4.3
			c-3.5,1.1-7.2,1.7-10.8,2c-2.1,0.2-4.2,0.2-6.3,0.3C45.2,116.6,45.2,117,45.4,117z"/>
		<path class="st3" d="M46.1,118.9c3.7,0.3,7.4,0,11-0.6c3.6-0.6,7.2-1.7,10.6-3.1c2-0.8,3.9-1.7,5.7-2.8c0.3-0.2,0-0.7-0.3-0.5
			c-3.2,1.8-6.5,3.4-10.1,4.4c-3.5,1.1-7,1.8-10.7,2.1c-2.1,0.1-4.2,0.2-6.2,0.2C45.9,118.5,45.9,118.9,46.1,118.9z"/>
		<path class="st3" d="M46.7,121.7c3.9,0.4,7.7-0.2,11.5-1c3.6-0.7,7.2-1.6,10.7-2.9c1.9-0.7,3.8-1.5,5.4-2.6c0.3-0.2,0-0.8-0.3-0.6
			c-1.6,0.9-3.1,1.7-4.7,2.4c-1.6,0.6-3.3,1.1-5,1.6c-3.6,1-7.3,1.8-11.1,2.3c-2.1,0.2-4.3,0.4-6.4,0.4
			C46.5,121.3,46.5,121.7,46.7,121.7z"/>
		<path class="st3" d="M65.7,97.6c3.6-1.5,7.5-3.7,8.8-7.6c0.8-2.3,0.4-4.8-0.1-7.1c-0.5-2.4-1.1-4.8-1.1-7.2
			c0-4.8,1.7-9.3,3.4-13.7c1.7-4.5,3.6-8.9,4.5-13.6c1.8-9.4,0.3-19.4-4.4-27.7c-2.1-3.8-5-7.3-8.5-10c-3.8-2.9-8.4-4.7-13-5.9
			c-9.3-2.4-19.3-2.1-28.3,1.2C18.9,8.8,12,14.2,7.1,21C2.2,27.9-0.4,36.2,0,44.7c0.4,8.5,3.8,16.9,9.7,23.1
			c5.7,5.9,13.3,10.1,17.9,17c1.1,1.7,2,3.5,2.7,5.4s1.3,3.8,2.1,5.6c0.8,1.7,1.9,3.4,3.3,4.7c1.6,1.4,3.6,2.1,5.7,2.4
			c2.1,0.3,4.2,0,6.3-0.6c0.4-0.1,0.2-0.8-0.2-0.7c-4.1,1.1-8.9,0.8-12-2.4c-2.7-2.9-3.6-6.9-5-10.5c-1.5-3.6-3.8-6.8-6.6-9.5
			c-2.9-2.8-6.1-5.2-9.2-7.9c-3.2-2.7-6.1-5.5-8.4-9c-2.3-3.5-3.9-7.5-4.8-11.6C-0.1,42.6,1,34,4.8,26.5c3.7-7.3,9.7-13.4,16.8-17.3
			c8-4.4,17.5-6,26.6-5c4.7,0.5,9.4,1.7,13.8,3.6c4.2,1.8,7.8,4.6,10.7,8.1c5.9,7.1,8.7,16.5,8.4,25.6c-0.1,4.8-1.2,9.3-2.8,13.8
			c-1.6,4.4-3.6,8.7-4.8,13.3c-0.6,2.1-1,4.4-1,6.6c0,2.4,0.3,4.6,0.9,6.9c0.6,2.4,1.2,4.9,0.4,7.3c-0.6,1.9-1.9,3.4-3.4,4.6
			c-1.6,1.2-3.3,2.1-5.1,3C65.1,97.2,65.4,97.7,65.7,97.6z"/>
		<path class="st3" d="M7.2,54.6c-0.9-1.8-1.4-3.8-1.7-5.7c-0.3-1.9-0.6-3.8-0.6-5.7c-0.1-3.8,0.3-7.7,1.4-11.4
			c0.6-2.1,1.3-4.1,2.2-6.1c0.2-0.4-0.5-0.9-0.7-0.4c-3.4,7-4.5,15.3-3.1,23c0.4,2.3,1,4.5,2.2,6.5C7,55.1,7.3,54.9,7.2,54.6z"/>
		<path class="st3" d="M7.1,43.1c0-0.2,0.1-0.5,0.1-0.8c0-0.2,0-0.4,0.1-0.7c0-0.5,0.1-1,0.2-1.5c0-0.5,0.1-0.9,0.2-1.4
			c0-0.5,0.2-1,0.1-1.5c0-0.4-0.6-0.5-0.7-0.1C7,37.6,7,38.2,7,38.6c0,0.5-0.1,1-0.1,1.5c0,0.5,0,0.9-0.1,1.4c0,0.2,0,0.5,0,0.7
			c0,0.2,0,0.5,0,0.8C6.7,43.3,7.1,43.3,7.1,43.1z"/>
		<path class="st3" d="M78.3,32.1c0.1,1.9,0.2,3.8,0.1,5.7c0,1.9-0.1,3.8-0.3,5.7c-0.4,3.8-1.3,7.5-2.6,11.2c-0.3,1-0.7,2-1.2,3
			c-0.4,1-0.9,1.9-1.3,3c-0.1,0.4,0.4,0.6,0.6,0.3c0.5-0.8,0.9-1.7,1.3-2.7c0.4-0.9,0.7-1.8,1.1-2.7c0.7-1.8,1.2-3.7,1.7-5.6
			c0.9-3.7,1.4-7.6,1.4-11.5c0-1.1,0-2.2-0.1-3.3c-0.1-1.1-0.2-2.1-0.4-3.3C78.7,31.8,78.3,31.8,78.3,32.1z"/>
		<path class="st2" d="M75.3,28.4c-1.2,2.1-0.6,4.8-0.3,7.2c1,6.6,0.6,13.3-1,19.7c-1,4-2.6,8-5.5,11c-4.6,4.7-12,6.3-15.8,11.6
			l-0.5-0.1c-1.8-7.2-1.9-14.9-0.3-22.2c0.6-3,1.5-5.9,2.9-8.5c3.8-7.3,10.8-12.2,17.5-16.9C73.2,29.3,74.1,28.6,75.3,28.4z"/>
		<path class="st4" d="M72,81.9c0,0,4.1,11.4-15.6,16.2c-19.6,4.9-22-6.9-22-6.9c7.9-4.3,14.3-0.1,25.5-2.4C71,86.5,72,81.9,72,81.9
			z"/>
		<path class="st2" d="M48.2,39.4c0.6,2.3,0.9,4.7,0.9,7.1c0,2.1-0.3,4.2-0.6,6.3c-0.7,4.7-1.4,9.5-2.1,14.2l-0.1,0.1
			c-3.1-3.7-6.2-7.5-9.2-11.3c-2.8-3.4-5.6-6.9-7.8-10.7c-2.1-3.6-3.8-7.5-4.2-11.6c-0.7-7.1,2.2-14.1,3.2-21.2
			c4.2,3.4,8.5,7,11.9,11.2C44,28.1,46.7,33.6,48.2,39.4z"/>
		<path class="st2" d="M28.7,54.9c8.4,6,15.4,13.8,20.4,22.8c-2.6,0-5.2,0.1-7.9,0c-8.4-0.2-16.9-3.4-22.1-9.9
			c-4.8-6-6.3-14-10.7-20.3C13,48.3,17.8,49,22.2,51C24.5,52,26.6,53.4,28.7,54.9z"/>
		<path class="st3" d="M30.3,84.4c1.4,1.6,2.3,3.3,3.1,5.1c0.8,1.8,1.6,3.7,2.7,5.4c2.5,3.5,6.8,4.8,11,4.9c4.9,0.1,9.9-1,14.4-2.9
			c4.2-1.8,8.6-4.5,10.4-8.9c1-2.5,0.6-5.1,0-7.6c-0.6-2.5-1.6-5.2-1.2-7.9c0-0.4-0.5-0.5-0.6-0.1c-0.3,2.2,0.1,4.4,0.7,6.6
			c0.5,2.2,1.2,4.5,0.8,6.8c-0.7,4.7-4.9,7.7-8.9,9.7c-4.4,2.1-9.2,3.4-14.1,3.5c-4.1,0.1-8.6-0.6-11.4-4c-1.4-1.7-2.2-3.8-3.1-5.8
			c-0.9-1.9-1.9-4-3.6-5.3C30.4,83.8,30.1,84.2,30.3,84.4z"/>
		<path class="st3" d="M31.5,20.4c6.1,8.2,8.7,18.2,10.6,28c1.1,5.4,1.9,10.9,3.2,16.2c1,4.4,2.4,8.6,4,12.8
			c1.6,4.3,3.4,8.7,5.7,12.7c0.2,0.3,0.7,0,0.5-0.3c-2-3.6-3.6-7.6-5.1-11.5c-1.6-4.1-2.9-8.2-4-12.4c-2.5-10.3-3.5-21.1-6.9-31.3
			c-1.8-5.2-4.2-10.2-7.7-14.6C31.6,19.9,31.3,20.2,31.5,20.4z"/>
		<path class="st3" d="M17.4,53.9c1.1,0.7,2.2,1.5,3.4,2.2c1.1,0.7,2.2,1.4,3.3,2.2c2.2,1.5,4.3,3.2,6.3,4.9
			c4.1,3.4,7.7,7.4,12,10.6c2.4,1.8,5,3.4,7.6,5.1c0.4,0.2,0.7-0.4,0.3-0.6c-2.3-1.5-4.6-2.9-6.8-4.5c-2.2-1.7-4.3-3.5-6.3-5.4
			c-3.8-3.6-7.7-7.1-12.1-10.1c-1.2-0.8-2.4-1.7-3.7-2.4c-1.3-0.8-2.5-1.5-3.9-2.1C17.4,53.5,17.2,53.8,17.4,53.9z"/>
		<path class="st3" d="M51.3,81.2c0.5-1.5,0.9-3.1,1.3-4.7c0.4-1.6,0.9-3.1,1.4-4.7c1-3.1,2.1-6.2,3.4-9.2c2.5-6,5.5-11.9,8.9-17.4
			c2-3.1,4.1-6.1,6.2-9c0.2-0.3-0.3-0.8-0.6-0.4c-4.1,5.1-7.5,10.8-10.6,16.6c-3.1,5.8-5.6,11.9-7.7,18.1c-0.6,1.7-1.1,3.5-1.6,5.2
			s-1,3.6-1.2,5.4C50.9,81.4,51.3,81.4,51.3,81.2z"/>
		<path class="st3" d="M27.8,30c4.9,3.3,9,7.5,13,11.8c0.1,0.1,0.4,0.1,0.5-0.1c0.4-2.3,0.8-4.6,1.1-6.9c0.2-2.3,0.5-4.7,0.5-7
			c0-0.4-0.6-0.4-0.6,0c-0.1,2.3-0.2,4.6-0.5,6.8c-0.2,2.3-0.6,4.6-1,6.9c0.1,0,0.3-0.1,0.5-0.1c-4-4.3-8.1-8.6-13.2-11.7
			C27.7,29.6,27.6,29.8,27.8,30z"/>
		<path class="st3" d="M32.5,45.6c2.1,1.9,4.1,4,6,6c2,2,3.8,4.2,5.6,6.4c0.1,0.2,0.5,0,0.5-0.1c0.6-2.1,1.2-4.2,1.8-6.3
			c0.3-1,0.5-2,0.8-3.1c0.3-1.1,0.7-2.1,0.8-3.3c0-0.4-0.4-0.5-0.6-0.1c-0.4,1-0.6,2.1-0.9,3.2c-0.3,1.1-0.6,2.1-0.9,3.2
			c-0.6,2.1-1.2,4.2-1.8,6.3c0.2,0,0.3-0.1,0.5-0.1c-1.8-2.2-3.7-4.3-5.6-6.4c-1-1-2-2-2.9-2.9c-1.1-1-2.1-1.9-3.3-2.9
			C32.6,45.2,32.3,45.4,32.5,45.6z"/>
		<path class="st3" d="M24.6,53.2c1,2.5,2.1,5,3.2,7.4c0.1-0.1,0.2-0.3,0.2-0.4c-3.7,0-7.4-0.1-11.1-0.1c-0.4,0-0.4,0.7,0,0.7
			c3.7,0.1,7.4,0,11.1,0c0.2,0,0.3-0.2,0.2-0.4c-1.1-2.4-2.2-4.9-3.4-7.3C24.9,52.8,24.6,53,24.6,53.2z"/>
		<path class="st3" d="M25,69.1c4.8,0,9.7,0.5,14.4,1.7c0.3,0,0.4-0.2,0.3-0.4c-1.2-2.7-2.2-5.4-3.2-8.3c-0.1-0.3-0.7-0.2-0.6,0.1
			c1,2.9,2,5.6,3.3,8.4c0.1-0.1,0.2-0.3,0.3-0.4c-4.7-1.2-9.6-1.7-14.5-1.6C24.7,68.8,24.7,69.1,25,69.1z"/>
		<path class="st3" d="M53.1,55.1c0.7,3.8,1.7,7.5,2.7,11.2c0,0.2,0.3,0.3,0.5,0.1c0.8-0.9,1.9-1.6,2.9-2.2c1.2-0.7,2.4-1.4,3.6-2
			c2.5-1.4,5-2.8,7.5-4.2c0.3-0.2,0-0.7-0.3-0.5c-2.6,1.4-5.1,2.9-7.7,4.3c-1.2,0.7-2.4,1.4-3.6,2c-1.1,0.6-2.1,1.3-2.9,2.3
			c0.1,0,0.3,0.1,0.5,0.1c-1.1-3.7-2-7.4-2.9-11.1C53.4,54.8,53,54.9,53.1,55.1z"/>
		<path class="st3" d="M60,40.3c0.9,3.8,1.5,7.8,1.7,11.7c0,0.2,0.3,0.4,0.5,0.3c1.7-1.1,3.4-2.2,5.1-3.4c1.7-1.1,3.5-2.2,5.1-3.4
			c0.3-0.2,0-0.7-0.3-0.5c-1.8,1-3.4,2.2-5.1,3.4c-1.7,1.1-3.4,2.2-5.1,3.4c0.1,0.1,0.3,0.2,0.5,0.3c-0.2-4-0.9-8-2-11.8
			C60.4,40,60,40.1,60,40.3z"/>
	</g>
</g>
</svg>
