<?xml version="1.0" encoding="utf-8"?>
<!-- Generator: Adobe Illustrator 25.2.0, SVG Export Plug-In . SVG Version: 6.00 Build 0)  -->
<svg version="1.1" id="Layer_1" xmlns="http://www.w3.org/2000/svg" xmlns:xlink="http://www.w3.org/1999/xlink" x="0px" y="0px"
	 viewBox="0 0 96.9 102.7" style="enable-background:new 0 0 96.9 102.7;" xml:space="preserve">
<style type="text/css">
	.st0{fill:#F4FAF5;}
	.st1{fill:#617143;}
	.st2{clip-path:url(#SVGID_2_);}
	.st3{fill:#B1C470;}
	.st4{fill:#312816;}
</style>
<ellipse transform="matrix(0.5489 -0.8359 0.8359 0.5489 -26.4956 66.7076)" class="st0" cx="48.6" cy="57.9" rx="40.4" ry="42.6"/>
<ellipse transform="matrix(0.5489 -0.8359 0.8359 0.5489 -21.1764 62.8146)" class="st1" cx="47.6" cy="51" rx="48.7" ry="47.1"/>
<g>
	<defs>
		<rect id="SVGID_1_" x="2.1" y="6.1" width="91" height="92"/>
	</defs>
	<clipPath id="SVGID_2_">
		<use xlink:href="#SVGID_1_"  style="overflow:visible;"/>
	</clipPath>
	<g class="st2">
		<path class="st3" d="M86.6,29.2c4.6,7.9,6.9,17.1,6,26.9c-0.1,0.8-0.1,1.7-0.3,2.5c-0.4-0.6-0.9-1.2-1.4-1.7
			c-1.5-1.5-3.2-3.2-3.4-5.3c-0.1-1.8,0.8-3.7,0.5-5.4c-0.6-2.9-4.3-4.4-4.6-7.4c-0.1-1.6,1-3,1.7-4.4c0.8-1.5,1.3-3.3,1.3-5.1
			L86.6,29.2z"/>
		<path class="st3" d="M61.9,12.9c0.6,0.1,0.8,0.8,0.7,1.4c-0.1,0.6-0.6,1-1.2,1.2c-0.6,0.2-1.1,0.3-1.7,0.3c-0.4,0-0.8,0.1-1.1-0.1
			c-0.3-0.1-0.6-0.1-0.8-0.4c-0.4-0.4-0.4-0.8-0.6-1.3c-0.4-1.1-1.3-1.9-2.3-2.2c-0.3-0.1-0.7-0.2-0.8-0.6c-0.1-0.4,0.2-0.9,0-1.3
			c0.7-0.3,1.4-0.6,2.1-0.8c0.4,0,0.8,0,1.3,0.1c0.6,0.1,1.3,0.2,1.9,0.6c0.6,0.4,1,1,0.9,1.7c-0.1,0.4-0.2,0.6-0.1,1
			c0.1,0.3,0.5,0.4,0.8,0.4C61.3,12.9,61.6,12.9,61.9,12.9z"/>
		<path class="st3" d="M55.2,42.3c-0.3,0.2-0.5,0.5-0.8,0.7c-0.3,0.2-0.8,0.2-1-0.1c-0.1-0.2-0.1-0.5,0-0.7c0-0.1,0.1-0.3,0.1-0.4
			c0.8-0.5,0.4-2.2,1.3-2.7c0.4-0.2,1,0,1.4,0.3c0.6,0.4,1.2,1.1,0.9,1.8C56.8,41.7,55.9,41.8,55.2,42.3z"/>
		<path class="st3" d="M51.9,12.9c0.1,0.4,0.3,0.8,0.1,1.2c-0.1,0.4-0.5,0.8-0.9,0.7c-0.6-0.1-0.8-1.1-1.5-1.2
			c-0.5-0.1-1.1,0.3-1.5,0c-0.2-0.1-0.3-0.5-0.2-0.8c0.1-0.3,0.2-0.6,0.4-0.8c0.4-0.3,0.9-0.4,1.3-0.4c0.6,0,1.3,0.1,1.8,0.5
			C51.7,12.4,51.8,12.6,51.9,12.9z"/>
		<path class="st3" d="M47.9,44.5c0.5-0.3,1.3-0.1,1.5,0.5c0.1,0.4,0,0.8-0.3,1.1c-0.4,0.4-1.1,0.4-1.6,0.2
			c-0.1-0.1-0.2-0.2-0.4-0.3C47.2,45.4,47.4,44.8,47.9,44.5z"/>
		<path class="st3" d="M51.5,8.2c0.4,0.1,0.6,0.7,0.4,1.1c-0.1,0.4-0.6,0.7-1,0.7c-0.4,0-0.8-0.3-1-0.7c0.2-0.3,0.4-0.6,0.6-0.8
			C50.8,8.3,51.2,8.2,51.5,8.2z"/>
		<path class="st3" d="M22.7,28.2c-1.4,0.6-1.3,2.6-0.7,4c0.6,1.4,1.3,3,0.5,4.3c-1.3,0.3-2.5-1-2.8-2.2c-0.3-1.3,0-2.7,0.1-4
			c0.2-2.1-0.1-4.3-0.8-6.3c-0.2-0.6-0.5-1.3-0.4-2c0.4-1.2,1.8-1.5,2.8-2.1c1.5-0.8,2.3-2.6,2.2-4.2c-0.1-0.8-0.4-1.5-0.5-2.3
			c6.9-4.3,14.9-6.7,23.4-6.8c0.6,0.9,1.1,2,0.6,3c-0.6,1-1.8,1.2-2.9,1.6c-1.1,0.4-2,1.8-1.1,2.6c0.6,0.5,1.5,0.3,2.1,0.6
			c1.1,0.7,0.6,2.8,1.8,3.4c1,0.6,2.2-0.6,3.3-0.4c1,0.2,1.6,1.3,2.6,1.3c1.5-0.1,1.8-2.7,3.3-2.5c0.5,0.1,0.8,0.4,1.2,0.8l0.1,0.1
			c0.9,0.9,1.8,1.8,2.7,2.8c0.5,0.5,1,1.1,1.1,1.8s-0.4,1.5-1.1,1.5c-1,0-1.4-1.4-2.4-1.7c-1.1-0.3-1.8,1-2.5,2
			c-0.6,1-2.3,1.5-2.7,0.5c0.1,1.3,1.1,2.5,2.3,2.7c0.4,0.1,1,0.1,1.3,0.4c0.7,0.6-0.2,1.9-1.1,2c-1,0-1.8-0.6-2.5-1.3
			c-0.8-0.6-1.7-1.1-2.6-0.8c-1.1,0.4-1.5,1.7-2.5,2.2c-0.5,0.3-1.1,0.3-1.5,0.6c-0.8,0.6-0.6,1.8-0.3,2.6c0.4,0.8,1,1.7,1,2.7
			c0,0.8-0.7,1.6-1.5,1.5c-0.1,0-0.3-0.1-0.4-0.1c-1-0.6-0.3-2.2-0.7-3.2c-0.5-1.2-2.2-1.3-3.4-0.9c-1.3,0.4-2.7,0.8-3.8,0
			c-0.5-0.4-0.8-0.9-1.3-1.3c-1.2-1-3.1-0.3-3.9,1.1c-0.8,1.3-0.8,2.9-0.6,4.4c0.1,1.3,0.4,2.8,1.3,3.8c1,1,2.8,1.1,3.6,0
			c0.4-0.6,0.4-1.3,0.7-2c0.4-0.6,1.3-1,1.6-0.4c0.4,0.6,0.2,1.8,0.8,1.5c0.1-0.8,1.3-1,1.9-0.4c0.1,0.1,0.3,0.3,0.4,0.5
			c0.3,0.5,0.4,1.1,0.4,1.8c0.1,0.8,0.3,1.7,1,2.1c0.6,0.4,1.3,0.4,1.6,1c0.4,1-1.1,1.5-1.8,2.4c-0.6,0.8-0.3,2,0.4,2.8
			c0.7,0.7,1.8,1.1,2.7,1.3c1.3,0.4,3,0.7,3.9-0.4c0.8-0.9,0.8-2.7,2-2.9c1.8-0.1,1.5,3.6,3.2,3.7c0.4,0,0.8-0.2,1.3-0.4
			c1.9-0.8,4.3-0.2,5.5,1.5c0.4,0.5,0.6,1,1.1,1.3c1.9,1.6,4.7-0.8,7.2-0.8c0.4,0,0.9,0.1,1.1,0.5c0.2,0.4,0.2,0.8,0.1,1.1
			c-0.3,4.1,2.5,8.1,6.3,9.4c0.8,0.3,1.8,0.4,2.5,1c0.7,0.6,1.2,1.5,0.8,2.3c-0.2,0.4-0.6,0.6-0.8,0.8c-5.1,3.8-7.9,9.8-12,14.7
			c-2.3,2.8-6,5.4-9.3,3.9c0.3,1,0.6,2,0.9,3c-0.8,1-2.2,0.1-3.5-0.1c-1.5-0.2-2.9,0.8-3.8,1.9c-1,1.1-1.8,2.5-2.9,3.4
			c-1.2,0.8-3.1,1.1-4.1,0c-1.1-1.3-0.4-3.3,0.4-4.8c1.9-3.9,3.4-7.9,4.6-12.1c0.1-0.6,0.3-1.3-0.1-1.8c-0.4-0.5-1.2-0.5-1.8-0.6
			c-1.1-0.2-2-1-2.2-2c-0.2-0.7-0.1-1.5-0.4-2.2c-0.5-2-2.4-3.1-3.8-4.5c-1.4-1.4-2.3-3.9-0.8-5.2c0.6-0.5,1.4-0.6,2.2-0.9
			c1.6-0.6,3.2-1.8,3.5-3.5c0.4-1.7-0.7-3.7-2.4-3.9c-1.2-0.2-2.5,0.4-3.6,0c-2.8-1.1-1.5-6.6-4.3-7.2c-1.3-0.3-3.1,0.7-3.8-0.4
			c-0.3-0.4-0.2-1-0.3-1.5c-0.5-2.6-4.5-2.3-6.2-4.3c-0.6-0.7-0.9-1.7-1.2-2.6C24.4,34.1,23.5,31.2,22.7,28.2z"/>
		<path class="st3" d="M45.1,38.4c0.6,0.1,1.3,0.2,2,0.2v0.1c0.7-0.1,1.3-0.1,2,0.1c0.6,0.1,1.3,0.3,1.8,0.7
			c0.5,0.4,0.8,1.1,0.8,1.8c0,0.5-0.2,1-0.6,1.3c-0.3,0.1-0.6,0.1-0.8,0.1c-1.8-0.2-2.5-2.6-4.2-2.9c-0.9-0.1-2,0.4-2.7-0.2
			c-0.1-0.1-0.1-0.1-0.1-0.1c-0.1-0.1-0.1-0.3-0.1-0.4c0-0.4,0.6-0.6,1-0.6C44.4,38.3,44.7,38.3,45.1,38.4z"/>
		<path class="st4" d="M47.1,98.1c-1.3,0-2.5-0.1-3.8-0.1C31.1,96.9,20,91.2,12.1,81.8c-8-9.4-11.8-21.3-10.7-33.6
			C2.6,33.8,10.7,20.6,23,13c7.1-4.4,15.2-6.8,23.6-6.9c1.5,0,3,0.1,4.5,0.1c2,0.1,3.9,0.5,5.8,0.8c0.6,0.1,1.2,0.3,1.8,0.4
			c11.8,3,22.1,10.8,28.3,21.4c4.8,8.2,6.9,17.6,6,27.1c-0.1,0.8-0.1,1.6-0.3,2.5C89.5,81,70.1,98,47.5,98.1
			C47.4,98.1,47.2,98.1,47.1,98.1z M47,6.8c-0.1,0-0.3,0-0.4,0c-8.2,0.1-16.3,2.5-23.2,6.7C11.3,21.1,3.3,34.1,2.1,48.3
			C1,60.3,4.8,72.1,12.5,81.3c7.8,9.3,18.7,15,30.8,15.9c1.4,0.1,2.8,0.2,4.1,0.1c22.3-0.1,41.4-16.9,44.5-39
			c0.1-0.9,0.2-1.7,0.3-2.5c0.8-9.3-1.3-18.6-6-26.7c-6.1-10.3-16.2-18-27.8-21c-0.6-0.1-1.1-0.3-1.7-0.4C54.9,7.4,53,7.1,51.1,7
			C49.8,6.8,48.4,6.8,47,6.8z"/>
		<path class="st4" d="M6.2,64.7c-0.6-1.9-1.1-3.9-1.4-6c-0.4-2-0.6-4.1-0.6-6.1c-0.1-4,0.4-8.1,1.4-12c0.6-2.2,1.4-4.3,2.3-6.5
			c0.2-0.4-0.4-0.8-0.7-0.4c-0.9,1.9-1.6,3.9-2.2,5.8c-0.6,2-1.1,4.1-1.3,6.1C3.1,49.7,3.1,54,3.8,58c0.2,1.1,0.4,2.2,0.8,3.4
			c0.3,1.1,0.8,2.2,1.2,3.4C5.9,65,6.2,64.9,6.2,64.7z"/>
		<path class="st4" d="M5.8,51.3c-0.3-1.6,0.2-3.2,0.5-4.8c0.1-0.8,0.4-1.5,0.5-2.2c0.1-0.7,0.5-1.5,0.5-2.2c0-0.4-0.5-0.5-0.6-0.1
			c-0.4,0.7-0.4,1.5-0.6,2.3c-0.2,0.8-0.4,1.6-0.5,2.5c-0.3,1.6-0.6,3.2-0.2,4.8C5.5,51.6,5.9,51.5,5.8,51.3z"/>
		<path class="st4" d="M75.9,19.8c1.3,1.4,2.7,2.8,4,4.3c0.6,0.7,1.3,1.5,1.8,2.2c0.3,0.4,0.6,0.7,0.8,1.1c0.3,0.4,0.4,0.8,0.6,1.3
			c0.1,0.4,0.6,0.3,0.6-0.1c0.1-0.9-0.6-1.8-1.1-2.5c-0.6-0.8-1.3-1.6-2-2.4c-1.3-1.5-2.8-3.1-4.4-4.4
			C76.1,19.3,75.8,19.6,75.9,19.8z"/>
		<path class="st4" d="M80,26.6c0.2,0.6,0.4,1.2,0.6,1.8c0.1,0.3,0.3,0.6,0.4,0.9c0.1,0.3,0.2,0.6,0.4,0.8c0.2,0.4,0.8,0.1,0.6-0.3
			c-0.1-0.3-0.3-0.6-0.4-0.9c-0.1-0.3-0.3-0.6-0.4-0.8c-0.3-0.6-0.6-1.1-0.9-1.6C80.3,26.3,80,26.4,80,26.6z"/>
		<path class="st4" d="M69.3,79.2c0.6-0.6,1.1-1.3,1.7-1.9c0.6-0.7,1.1-1.3,1.5-2c1.1-1.3,2.1-2.7,3-4.2c0.2-0.4-0.4-0.7-0.6-0.4
			c-1.1,1.3-2,2.8-2.9,4.1c-0.5,0.7-1,1.4-1.5,2c-0.5,0.7-0.9,1.4-1.4,2.1C68.9,79.2,69.2,79.4,69.3,79.2z"/>
		<path class="st4" d="M69.9,75.8c0.5-0.7,1-1.4,1.5-2.1c0.5-0.7,1-1.4,1.4-2.1c0.2-0.4-0.4-0.7-0.6-0.4c-0.5,0.7-0.9,1.4-1.4,2.2
			c-0.4,0.7-0.8,1.5-1.3,2.2C69.3,75.8,69.7,76,69.9,75.8z"/>
		<path class="st4" d="M25.9,14.8c1.2-0.8,2.5-1.5,3.7-2.2c0.6-0.3,1.3-0.6,1.9-0.8c0.6-0.3,1.4-0.4,2-0.7c0.4-0.2,0.1-0.7-0.3-0.6
			c-0.7,0.1-1.4,0.4-2,0.7c-0.7,0.3-1.3,0.6-2,0.9c-1.3,0.7-2.5,1.5-3.6,2.5C25.4,14.6,25.6,14.9,25.9,14.8z"/>
		<path class="st4" d="M28.1,15.2c0.6-0.4,1.4-0.8,2.1-1.1c0.4-0.1,0.7-0.3,1.1-0.4c0.4-0.1,0.8-0.3,1.1-0.4
			c0.3-0.1,0.1-0.6-0.1-0.6c-0.4,0.1-0.8,0.2-1.2,0.4c-0.4,0.1-0.8,0.4-1.1,0.6c-0.7,0.4-1.4,0.8-2.1,1.3
			C27.6,15,27.8,15.3,28.1,15.2z"/>
		<path class="st4" d="M87.3,34.7c0.3,1.1,0.6,2.2,1,3.3c0.1,0.6,0.3,1.1,0.4,1.6c0.1,0.6,0.2,1.1,0.4,1.7c0.1,0.4,0.7,0.4,0.7-0.1
			c0-0.6-0.2-1.1-0.3-1.7c-0.1-0.6-0.4-1.2-0.5-1.8c-0.4-1.1-0.7-2.2-1.3-3.2C87.6,34.4,87.3,34.5,87.3,34.7z"/>
		<path class="st4" d="M87.2,38.4c0.1,0.3,0.1,0.6,0.1,0.8c0.1,0.3,0.1,0.6,0.1,0.8c0.1,0.6,0.2,1.1,0.4,1.7
			c0.1,0.2,0.3,0.3,0.4,0.3c0.2-0.1,0.3-0.3,0.3-0.4c-0.1-0.6-0.3-1.1-0.4-1.7c-0.1-0.3-0.1-0.6-0.2-0.8s-0.2-0.6-0.3-0.8
			C87.5,38.1,87.1,38.2,87.2,38.4z"/>
		<path class="st4" d="M26.4,24.9c0.7-0.8,1.5-1.7,2.2-2.6c0.4-0.5,0.8-1,1.1-1.5c0.1-0.2,0.4-0.4,0.5-0.6c0.1-0.1,0.1-0.2,0.2-0.3
			c0.1-0.1,0.1,0,0.2,0.1c0.6,0.9,1.2,1.8,1.7,2.7c0.3,0.5,0.5,1,0.7,1.5s0.4,1.1,0.7,1.5c0.2,0.3,0.6,0.1,0.6-0.2
			c-0.1-0.3-0.2-0.6-0.4-0.8c-0.1-0.3-0.3-0.6-0.4-0.9c-0.3-0.6-0.6-1.1-0.8-1.6c-0.3-0.6-0.6-1.1-1-1.6c-0.2-0.4-0.6-1.1-1-1.3
			c-0.4-0.2-0.8,0.1-1.1,0.4c-0.4,0.6-0.8,1.1-1.3,1.7c-0.4,0.5-0.8,1.1-1.1,1.5c-0.4,0.6-0.8,1.2-1.1,1.8
			C26.1,24.8,26.3,25,26.4,24.9z"/>
		<path class="st4" d="M33.4,23.6c0.4-0.1,0.7-0.4,1-0.6c0.3-0.2,0.6-0.4,0.9-0.7c0.3-0.2,0.6-0.4,0.8-0.6c0.1-0.1,0.3-0.2,0.4-0.1
			c0.1,0.1,0.2,0.2,0.3,0.3c0.4,0.6,0.8,1.3,1.1,2c0.2,0.4,0.4,0.7,0.6,1.1c0.2,0.4,0.4,0.7,0.6,1c0.2,0.3,0.7,0,0.6-0.4
			c-0.1-0.4-0.4-0.8-0.6-1.2c-0.2-0.4-0.4-0.8-0.7-1.2c-0.2-0.4-0.4-0.8-0.7-1.2c-0.2-0.3-0.4-0.7-0.6-0.9c-0.7-0.6-1.4,0.1-2,0.6
			c-0.4,0.3-0.7,0.6-1,0.8c-0.4,0.3-0.7,0.6-1,0.9C32.9,23.5,33.1,23.7,33.4,23.6z"/>
		<path class="st4" d="M38.5,23.7c0.7-0.6,1.3-1.3,2-1.9c0.7-0.6,1.4-1.2,2.2-1.8c0.1-0.1,0.4-0.4,0.5-0.2c0.1,0.1,0.2,0.4,0.3,0.5
			c0.2,0.4,0.5,0.8,0.7,1.3c0.2,0.5,0.5,0.9,0.7,1.4c0.2,0.4,0.4,0.9,0.8,1.3c0.3,0.3,0.6,0,0.6-0.4c-0.1-0.6-0.5-1.1-0.8-1.5
			s-0.6-1.1-0.8-1.5c-0.4-0.6-0.8-2.2-1.8-1.8c-0.4,0.2-0.8,0.6-1.2,0.8c-0.4,0.4-0.8,0.7-1.3,1.1c-0.8,0.7-1.6,1.5-2.2,2.4
			C38.1,23.7,38.3,23.8,38.5,23.7z"/>
		<path class="st4" d="M49.1,66.2c0.9-0.6,1.8-1.3,2.7-2c0.5-0.4,0.9-0.7,1.4-1.1c0.2-0.1,0.4-0.4,0.6-0.5c0.1-0.1,0.2-0.1,0.4-0.3
			c0.1-0.1,0.4-0.4,0.4-0.4c0.1,0,0.4,0.4,0.4,0.5c0.2,0.2,0.4,0.4,0.6,0.6c0.4,0.4,0.8,0.8,1.2,1.2c0.8,0.8,1.5,1.8,2.4,2.5
			c0.3,0.3,0.7-0.1,0.4-0.4c-0.8-1-1.7-1.8-2.5-2.7c-0.4-0.5-0.9-0.9-1.3-1.4c-0.3-0.3-0.7-0.9-1.2-0.9c-0.4,0-0.9,0.6-1.2,0.8
			c-0.5,0.4-1,0.8-1.5,1.2c-1,0.8-2,1.7-2.9,2.5C48.7,66,48.9,66.2,49.1,66.2z"/>
		<path class="st4" d="M57.1,64.2c0.6-0.5,1.2-1.1,1.8-1.7c0.3-0.3,0.6-0.6,0.9-0.8c0.2-0.1,0.4-0.3,0.6-0.4
			c0.1-0.1,0.4-0.4,0.6-0.4c0.3-0.1,0.8,0.6,1,0.8c0.4,0.3,0.6,0.6,1,0.9c0.4,0.3,0.6,0.6,1,0.9c0.3,0.3,0.6,0.7,1,0.8
			c0.3,0.1,0.6-0.1,0.4-0.4c-0.3-0.4-0.7-0.7-1.1-1.1c-0.4-0.4-0.8-0.8-1.2-1.1c-0.4-0.4-0.8-0.7-1.1-1.1c-0.3-0.3-0.6-0.6-1-0.5
			c-0.4,0.1-0.7,0.4-1,0.6c-0.4,0.3-0.8,0.6-1.1,0.9c-0.7,0.6-1.5,1.3-2,2.2C56.8,64.2,57,64.3,57.1,64.2z"/>
		<path class="st4" d="M55.5,58.6c1.1-0.8,1.9-1.7,2.7-2.7c0.1-0.1,0.1-0.1,0.1-0.1c0.1-0.1,0.1-0.1,0-0.1c0.1,0,0.3,0.3,0.4,0.4
			c0.2,0.3,0.5,0.5,0.7,0.8c0.2,0.3,0.5,0.5,0.7,0.8c0.3,0.3,0.5,0.6,0.8,0.8c0.3,0.2,0.8-0.1,0.6-0.4c-0.2-0.4-0.6-0.6-0.8-0.9
			c-0.3-0.3-0.6-0.6-0.8-0.9c-0.3-0.3-0.6-0.6-0.8-0.9c-0.2-0.2-0.6-0.4-0.8-0.3c-0.3,0.1-0.5,0.5-0.6,0.8c-0.2,0.3-0.4,0.6-0.7,0.9
			c-0.5,0.6-1,1.1-1.5,1.7C55.2,58.4,55.4,58.7,55.5,58.6z"/>
		<path class="st4" d="M53.8,77.2c0.6-0.4,1.1-0.8,1.5-1.3c0.2-0.3,0.4-0.6,0.6-0.8c0.1-0.1,0.2-0.3,0.4-0.4
			c0.1-0.1,0.1-0.1,0.1-0.2c0.1-0.1,0.1-0.1,0-0.1c-0.1-0.1-0.1,0-0.1,0.1c0,0.1,0.1,0.4,0.2,0.4c0.1,0.1,0.2,0.3,0.4,0.4
			c0.2,0.3,0.5,0.6,0.8,0.8c0.6,0.6,1.3,1.3,2,1.9c0.4,0.4,0.8-0.1,0.5-0.5c-0.6-0.7-1.4-1.4-2.1-2.1c-0.3-0.3-0.6-0.6-0.8-0.9
			c-0.2-0.3-0.3-0.8-0.6-0.9c-0.4-0.1-0.6,0.1-0.8,0.4c-0.2,0.4-0.5,0.6-0.7,1c-0.4,0.6-0.9,1.4-1.5,1.8
			C53.3,77,53.5,77.3,53.8,77.2z"/>
		<path class="st4" d="M60.6,76.1c0.7-0.5,1.3-1,1.9-1.6c0.3-0.3,0.6-0.6,0.8-0.9c0.3-0.3,0.6-0.6,0.8-1c0,0.1-0.1-0.1,0,0.1
			c0.1,0.1,0.1,0.1,0.2,0.3c0.1,0.1,0.3,0.4,0.4,0.5c0.3,0.3,0.6,0.6,0.9,0.9c0.6,0.6,1.3,1.3,2,1.8c0.4,0.2,0.8-0.3,0.4-0.6
			c-0.4-0.4-0.8-0.6-1.1-1c-0.4-0.4-0.7-0.6-1.1-1c-0.4-0.4-0.7-0.7-1-1.1c-0.2-0.3-0.6-0.8-1-0.7c-0.4,0-0.6,0.5-0.8,0.8
			c-0.3,0.4-0.6,0.8-0.9,1.1c-0.6,0.7-1.3,1.5-2,2.2C60.3,76,60.4,76.3,60.6,76.1z"/>
		<path class="st4" d="M43.4,62.2c-0.6,0.3-0.9,0.8-1.1,1.4c-0.1,0.6-0.1,1.3,0.4,1.8c0.1,0.2,0.4-0.1,0.4-0.3
			c-0.1-0.2-0.2-0.4-0.3-0.7c-0.1-0.2-0.1-0.5,0-0.7c0.1-0.5,0.4-1,0.8-1.3C43.7,62.4,43.5,62.2,43.4,62.2z"/>
		<path class="st4" d="M43.8,63.9c-0.3,0.7-0.1,1.6,0.6,2c0.1,0.1,0.2,0,0.3-0.1c0.1-0.1,0-0.2-0.1-0.3c0,0,0,0-0.1-0.1l-0.1-0.1
			c-0.1-0.1-0.1-0.1-0.1-0.1c0,0,0-0.1-0.1-0.1L44.2,65L44.1,65c0-0.1,0,0.1,0,0v-0.1C44,64.8,44,64.6,44,64.5c0-0.1,0-0.3,0.1-0.4
			C44.2,63.9,43.9,63.7,43.8,63.9z"/>
		<path class="st4" d="M67.1,80.7c-0.3,1.1-1.1,2-1.9,2.6c-0.5,0.4-1,0.7-1.5,1c-0.6,0.3-1.1,0.5-1.7,0.8c-0.3,0.1-0.1,0.6,0.2,0.5
			c0.6-0.2,1.3-0.6,1.8-0.8c0.6-0.3,1.1-0.6,1.6-1.1c0.9-0.8,1.6-1.8,1.9-2.9C67.5,80.6,67.1,80.4,67.1,80.7z"/>
		<path class="st4" d="M20.9,22.5c-0.4,0.4-0.6,0.9-0.7,1.4c0,0.3,0,0.6,0.1,0.8c0.1,0.3,0.1,0.6,0.4,0.8c0.2,0.1,0.4-0.1,0.4-0.3
			c-0.1-0.2-0.2-0.4-0.3-0.6c-0.1-0.2-0.1-0.4-0.1-0.7c0-0.4,0.2-0.9,0.5-1.2C21.2,22.6,21,22.3,20.9,22.5z"/>
		<path class="st4" d="M22.6,22.5c-0.6,0.8-0.8,1.8-0.6,2.7c0,0.1,0.2,0.2,0.4,0.2c0.1-0.1,0.2-0.2,0.2-0.4c-0.1-0.8,0-1.7,0.4-2.4
			C23,22.5,22.7,22.3,22.6,22.5z"/>
		<path class="st4" d="M35.2,18.3c0.6-0.5,1.1-1.1,1.7-1.8c0.6-0.6,1.1-1.2,1.6-1.8c0.1-0.1,0.1-0.1,0.2-0.2l0.1-0.1h-0.1
			c0.1,0.1,0.1,0.3,0.2,0.4c0.2,0.4,0.4,0.7,0.6,1.1c0.4,0.7,0.8,1.5,1.1,2.2c0.2,0.4,0.7,0.1,0.5-0.3c-0.4-0.8-0.8-1.6-1.3-2.5
			c-0.2-0.4-0.4-0.8-0.6-1.2c-0.2-0.3-0.5-0.4-0.8-0.2c-0.1,0.1-0.3,0.3-0.4,0.4c-0.1,0.1-0.3,0.4-0.4,0.5c-0.3,0.4-0.6,0.7-0.9,1.1
			c-0.6,0.7-1.3,1.3-1.8,2.1C34.8,18.3,35,18.5,35.2,18.3z"/>
		<path class="st4" d="M15.9,60.6c0.6,1.1,1.8,1.6,3,1.5c1.3-0.1,2.5-1,3.3-2c-0.1,0-0.4-0.1-0.5-0.1c0.6,1.2,1.9,2,3.2,2
			c1.3,0,2.6-0.8,3.2-2c-0.2,0-0.4,0-0.6,0c0.8,1.1,2.2,1.9,3.6,1.7c1.4-0.1,2.6-1,3.2-2.2c0.2-0.4-0.4-0.7-0.6-0.4
			c-0.5,1.1-1.5,1.8-2.7,2c-1.2,0.1-2.5-0.4-3.2-1.4c-0.1-0.2-0.4-0.2-0.6,0c-0.5,1-1.5,1.6-2.7,1.6s-2.1-0.7-2.7-1.6
			c-0.1-0.1-0.4-0.1-0.5,0c-0.7,0.8-1.6,1.6-2.7,1.8c-1.1,0.2-2.2-0.2-2.7-1.1C16.1,60.1,15.8,60.3,15.9,60.6z"/>
		<path class="st4" d="M62.2,37.6c0.6,1,1.7,1.5,2.8,1.4c1.3-0.1,2.4-0.8,3.2-1.8c-0.2,0-0.4-0.1-0.6-0.1c0.7,1.1,2,1.8,3.3,1.6
			c1.3-0.1,2.4-1.1,2.9-2.2c0.1-0.4-0.5-0.6-0.7-0.2c-0.4,0.9-1.3,1.6-2.3,1.8c-1,0.1-2-0.4-2.6-1.3c-0.1-0.2-0.4-0.2-0.6,0
			c-0.6,0.8-1.5,1.5-2.7,1.6c-0.9,0.1-1.9-0.3-2.5-1.1C62.3,37.2,62,37.4,62.2,37.6z"/>
		<path class="st4" d="M62.5,46.2c0,1.1,0.9,2,2,2.2c1.3,0.2,2.5-0.6,3.4-1.5c-0.2,0-0.4-0.1-0.6-0.1c0.6,1.2,2,1.8,3.3,1.7
			c1.4-0.1,2.6-1.1,3.4-2.2c-0.2,0-0.4,0.1-0.6,0.1c1.6,1.9,4.6,1.8,6.2-0.1c0.3-0.4-0.2-0.8-0.5-0.5c-1.3,1.7-3.7,1.7-5.1,0.1
			c-0.1-0.2-0.4-0.1-0.6,0.1c-0.6,0.9-1.6,1.7-2.8,1.8c-1.1,0.1-2.2-0.4-2.7-1.3c-0.1-0.2-0.4-0.2-0.6-0.1c-0.7,0.7-1.6,1.4-2.7,1.3
			c-0.9-0.1-1.8-0.7-1.9-1.6C62.9,45.9,62.5,45.9,62.5,46.2z"/>
		<path class="st4" d="M21.4,52.8c0.6,1,1.7,1.5,2.8,1.4c1.3-0.1,2.4-0.8,3.2-1.8c-0.2,0-0.4-0.1-0.6-0.1c0.7,1.1,2,1.8,3.3,1.6
			c1.3-0.1,2.4-1.1,2.9-2.2c0.1-0.4-0.5-0.6-0.7-0.2C32,52.3,31,53,30,53.2c-1,0.1-2-0.4-2.6-1.3c-0.1-0.2-0.4-0.2-0.6,0
			c-0.6,0.8-1.5,1.5-2.7,1.6c-0.9,0.1-1.9-0.3-2.5-1.1C21.6,52.3,21.3,52.5,21.4,52.8z"/>
		<path class="st4" d="M9.4,68.9c0,1.1,0.9,2,2,2.2c1.3,0.2,2.5-0.6,3.4-1.5c-0.2,0-0.4-0.1-0.6-0.1c0.6,1.2,2,1.8,3.3,1.7
			c1.4-0.1,2.6-1.1,3.4-2.2c-0.2,0-0.4,0.1-0.6,0.1c1.6,1.9,4.6,1.8,6.2-0.1c0.3-0.4-0.2-0.8-0.5-0.5c-1.3,1.7-3.7,1.7-5.1,0.1
			c-0.1-0.2-0.4-0.1-0.6,0.1c-0.6,0.9-1.6,1.7-2.8,1.8c-1.1,0.1-2.2-0.4-2.7-1.3c-0.1-0.2-0.4-0.2-0.6-0.1c-0.7,0.7-1.6,1.4-2.7,1.3
			c-0.9-0.1-1.8-0.7-1.9-1.6C9.8,68.6,9.4,68.7,9.4,68.9z"/>
		<path class="st4" d="M27.5,74.2c0.6,1,1.7,1.5,2.8,1.4c1.3-0.1,2.4-0.8,3.2-1.8c-0.2,0-0.4-0.1-0.6-0.1c0.7,1.1,2,1.8,3.3,1.6
			c1.3-0.1,2.4-1.1,2.9-2.2c0.1-0.4-0.5-0.6-0.7-0.2c-0.4,0.9-1.3,1.6-2.3,1.8c-1,0.1-2-0.4-2.6-1.3c-0.1-0.2-0.4-0.2-0.6,0
			c-0.6,0.8-1.5,1.5-2.7,1.6c-0.9,0.1-1.9-0.3-2.5-1.1C27.7,73.8,27.5,74,27.5,74.2z"/>
	</g>
</g>
</svg>
