<?xml version="1.0" encoding="utf-8"?>
<!-- Generator: Adobe Illustrator 25.2.0, SVG Export Plug-In . SVG Version: 6.00 Build 0)  -->
<svg version="1.1" id="Layer_1" xmlns="http://www.w3.org/2000/svg" xmlns:xlink="http://www.w3.org/1999/xlink" x="0px" y="0px"
	 viewBox="0 0 91.1 88.4" style="enable-background:new 0 0 91.1 88.4;" xml:space="preserve">
<style type="text/css">
	.st0{fill:#617143;}
	.st1{clip-path:url(#SVGID_2_);}
	.st2{fill:#B1C470;}
</style>
<ellipse transform="matrix(0.5489 -0.8359 0.8359 0.5489 -16.5358 57.7151)" class="st0" cx="45.2" cy="44.2" rx="40.4" ry="42.6"/>
<g>
	<defs>
		<rect id="SVGID_1_" x="6.7" y="5.4" width="76.7" height="77"/>
	</defs>
	<clipPath id="SVGID_2_">
		<use xlink:href="#SVGID_1_"  style="overflow:visible;"/>
	</clipPath>
	<g class="st1">
		<path class="st2" d="M82.5,28.9c0.8,0.4,1.1,1.3,0.7,2l-4.4,8.8l-1.7,3.5c-0.4,0.8-1.3,1.1-2.1,0.6l-4.1-2.3l-7.8-4.4
			c-0.7-0.4-1-1.3-0.6-2.1l1.4-2.5c0.4-0.7,1.3-1,2.1-0.6l4,2.3c-4.2-9.8-13.9-16.4-24.9-16.4c-12.6,0-23.5,8.7-26.3,20.8
			c-0.2,0.8-0.9,1.3-1.7,1.1l-2.8-0.5c-0.9-0.2-1.4-1-1.2-1.8C16.5,22.6,29.7,12,45.1,12c13.7,0,25.8,8.4,30.6,20.8l2.2-4.5
			c0.4-0.8,1.3-1.1,2-0.7L82.5,28.9z"/>
		<path class="st2" d="M75.9,50.5c0.9,0.2,1.4,1,1.2,1.8c-3.4,14.9-16.6,25.5-32,25.5c-13.8,0-25.9-8.5-30.7-21l-2.3,4.7
			c-0.4,0.8-1.3,1.1-2,0.7l-2.5-1.3c-0.7-0.4-1.1-1.3-0.7-2l4.4-8.8l1.7-3.4c0.4-0.8,1.3-1.1,2.1-0.7l4.2,2.4l7.7,4.3
			c0.7,0.4,1,1.3,0.6,2.1l-1.4,2.5c-0.4,0.7-1.3,1-2.1,0.6l-3.8-2.2C24.5,65.4,34.1,72,45.1,72c12.6,0,23.5-8.7,26.3-20.8
			c0.2-0.8,0.9-1.3,1.7-1.1L75.9,50.5z"/>
	</g>
</g>
</svg>
