<svg id="Layer_1" data-name="Layer 1" xmlns="http://www.w3.org/2000/svg" xmlns:xlink="http://www.w3.org/1999/xlink" viewBox="0 0 1384.56 813.12"><defs><style>.cls-1{fill:#fff;}.cls-2{fill:none;}.cls-3{fill:#94af9f;}.cls-4{clip-path:url(#clip-path);}.cls-5{mask:url(#mask);}.cls-6{fill:#ebe4d2;}.cls-7{fill:#9f7d56;}.cls-8{fill:#b0bb9a;}.cls-9{fill:#b1c571;}.cls-10{fill:#8ca33c;}.cls-11{fill:#322816;}</style><clipPath id="clip-path" transform="translate(-3.43 -269)"><rect class="cls-2" x="794.99" y="278.06" width="641.44" height="804.03"/></clipPath><mask id="mask" x="791.5" y="9.06" width="641.43" height="804.06" maskUnits="userSpaceOnUse"><g transform="translate(-3.43 -269)"><g id="mask0_0_1" data-name="mask0 0 1"><path class="cls-1" d="M1434.55,813c-1.69,23.07-4.32,46.14-7.89,69-3.19,19.51-7.5,39-15.21,57.21-7.32,17.44-18,33.94-32.86,45.94-15.39,12.57-34,20.26-53.32,24.2-46,9.19-92.39-3.75-136.7-14.63l-145.91-36c-24.22-6-48.63-12-73-18-20.28-5.07-40.56-10-60.27-17.07-18.78-6.75-36.81-15.57-52.39-28.13a140.18,140.18,0,0,1-36.62-45.77c-18.4-36.19-24.59-78-25.35-118.34a395.58,395.58,0,0,1,18.78-127.16c3-9.19,6.2-18.2,10-27.2v-299h522.2V472.18a383.67,383.67,0,0,1,46.38,75.4,461.93,461.93,0,0,1,37,121.91C1436.8,716.75,1437.93,765.14,1434.55,813Z"/></g></g></mask></defs><path class="cls-3" d="M93.69,937.27c8.93,0,13.52-6.89,13.52-13.78a15.15,15.15,0,0,0-3.32-9.44,13.06,13.06,0,0,0-10.2-4.34c-8.92,0-13.51,6.89-13.51,13.78C80.18,930.12,84.77,937.27,93.69,937.27Zm0-23c6.12,0,8.67,4.59,8.67,9.19a9.34,9.34,0,0,1-2.29,6.38,8.48,8.48,0,0,1-6.63,2.81c-6.12,0-8.67-4.6-8.67-9.19a9.32,9.32,0,0,1,2.29-6.38C88.59,915.07,90.89,914.3,93.69,914.3Z" transform="translate(-3.43 -269)"/><path class="cls-3" d="M98.54,986.27c8.92,0,13.51-6.89,13.51-13.78s-4.59-13.78-13.51-13.78S85,965.6,85,972.49C85,979.12,89.61,986.27,98.54,986.27Zm0-23c6.12,0,8.67,4.59,8.67,9.19a9.35,9.35,0,0,1-2.3,6.38,8.46,8.46,0,0,1-6.63,2.8c-6.12,0-8.67-4.59-8.67-9.18S92.42,963.3,98.54,963.3Z" transform="translate(-3.43 -269)"/><path class="cls-3" d="M52.13,953.09c8.92,0,13.51-6.89,13.51-13.78s-4.59-13.78-13.51-13.78-13.51,6.89-13.51,13.78S43.21,953.09,52.13,953.09Zm0-23c6.12,0,8.67,4.6,8.67,9.19S58,948.5,52.13,948.5c-6.12,0-8.67-4.6-8.67-9.19a9.33,9.33,0,0,1,2.3-6.38A7.55,7.55,0,0,1,52.13,930.12Z" transform="translate(-3.43 -269)"/><path class="cls-3" d="M58,907.92c8.93,0,13.52-6.89,13.52-13.78S66.92,880.36,58,880.36s-13.51,6.89-13.51,13.78S49.07,907.92,58,907.92Zm0-23c6.12,0,8.67,4.6,8.67,9.19a9.32,9.32,0,0,1-2.29,6.38,8.45,8.45,0,0,1-6.63,2.81c-6.12,0-8.67-4.6-8.67-9.19C49.33,889.55,51.88,885,58,885Z" transform="translate(-3.43 -269)"/><path class="cls-3" d="M105.42,891.33c8.92,0,13.51-6.89,13.51-13.78s-4.59-13.78-13.51-13.78-13.51,6.89-13.51,13.78S96.5,891.33,105.42,891.33Zm0-23c6.12,0,8.67,4.6,8.67,9.19a9.37,9.37,0,0,1-2.29,6.38,8.45,8.45,0,0,1-6.63,2.81c-6.12,0-8.67-4.6-8.67-9.19S99.3,868.36,105.42,868.36Z" transform="translate(-3.43 -269)"/><path class="cls-3" d="M136.27,920.68c8.93,0,13.52-6.89,13.52-13.78s-4.59-13.78-13.52-13.78S122.76,900,122.76,906.9,127.35,920.68,136.27,920.68Zm0-23c6.12,0,8.67,4.6,8.67,9.19s-2.8,9.19-8.67,9.19c-6.12,0-8.67-4.6-8.67-9.19a9.33,9.33,0,0,1,2.3-6.38A7.55,7.55,0,0,1,136.27,897.71Z" transform="translate(-3.43 -269)"/><path class="cls-3" d="M138.82,961.26c8.93,0,13.52-6.89,13.52-13.78s-4.59-13.78-13.52-13.78-13.51,6.89-13.51,13.78C125.31,954.11,130.15,961.26,138.82,961.26Zm0-23c6.12,0,8.67,4.59,8.67,9.19s-2.8,9.18-8.67,9.18c-6.12,0-8.67-4.59-8.67-9.18a9.33,9.33,0,0,1,2.3-6.38C133.72,939.06,136,938.29,138.82,938.29Z" transform="translate(-3.43 -269)"/><path class="cls-3" d="M142.14,1014.34c8.92,0,13.51-6.89,13.51-13.78a15.16,15.16,0,0,0-3.31-9.44,13.08,13.08,0,0,0-10.2-4.34c-8.93,0-13.52,6.89-13.52,13.78S133.21,1014.34,142.14,1014.34Zm0-23c6.12,0,8.67,4.6,8.67,9.19a9.33,9.33,0,0,1-2.3,6.38,8.43,8.43,0,0,1-6.63,2.81c-6.12,0-8.67-4.6-8.67-9.19S136,991.37,142.14,991.37Z" transform="translate(-3.43 -269)"/><path class="cls-3" d="M87.57,1027.1a10.72,10.72,0,0,0,5.1-1.28A11.62,11.62,0,0,0,97,1023a10.74,10.74,0,0,0,2.8-4.6,8.75,8.75,0,0,0,1-5.36v-1a15.34,15.34,0,0,0-1.78-6.89l-2-2.55a15.3,15.3,0,0,0-6.38-3.83l-3.31-.51a11.08,11.08,0,0,0-5.87,1.28,11.51,11.51,0,0,0-4.33,2.8,9.88,9.88,0,0,0-2.81,4.34A13.85,13.85,0,0,0,73,1012v1a15.3,15.3,0,0,0,1.78,6.89l2,2.56a15.17,15.17,0,0,0,6.38,3.82l3.31.51A1.91,1.91,0,0,0,87.57,1027.1Zm-.76-24h.25l2.81.51a7.69,7.69,0,0,1,3.82,2.3l1.53,2a8.36,8.36,0,0,1,1,4.34v1a7.09,7.09,0,0,1-.76,3.32,6.92,6.92,0,0,1-1.79,3.06,5.72,5.72,0,0,1-2.8,1.78,6.06,6.06,0,0,1-3.57.77l-2.81-.51a7.69,7.69,0,0,1-3.82-2.3l-1.53-2a8.34,8.34,0,0,1-1-4.34v-1a7.12,7.12,0,0,1,.76-3.32l.26-.25a6.64,6.64,0,0,1,1.78-2.81,5.75,5.75,0,0,1,2.81-1.78A6.8,6.8,0,0,1,86.81,1003.11Z" transform="translate(-3.43 -269)"/><path class="cls-3" d="M49.07,1003.62c8.93,0,13.51-6.89,13.51-13.78a15.16,15.16,0,0,0-3.31-9.44,13.06,13.06,0,0,0-10.2-4.34c-8.92,0-13.51,6.89-13.51,13.78S40.15,1003.62,49.07,1003.62Zm0-23c6.12,0,8.67,4.6,8.67,9.19a9.32,9.32,0,0,1-2.29,6.38A8.45,8.45,0,0,1,48.82,999c-6.12,0-8.67-4.6-8.67-9.19S43,980.65,49.07,980.65Z" transform="translate(-3.43 -269)"/><path class="cls-3" d="M17.45,954.88C26.38,954.88,31,948,31,941.1s-4.59-13.78-13.52-13.78S3.94,934.21,3.94,941.1C4.19,947.73,8.78,954.88,17.45,954.88Zm0-23c6.12,0,8.67,4.59,8.67,9.19a9.34,9.34,0,0,1-2.29,6.38,8.47,8.47,0,0,1-6.63,2.8c-6.12,0-8.67-4.59-8.67-9.18C8.78,936.5,11.59,931.91,17.45,931.91Z" transform="translate(-3.43 -269)"/><path class="cls-3" d="M16.94,903.58c8.93,0,13.52-6.89,13.52-13.78S25.87,876,16.94,876,3.43,882.91,3.43,889.8C3.69,896.69,8.27,903.58,16.94,903.58Zm0-23c6.12,0,8.67,4.6,8.67,9.19S22.81,899,16.94,899c-6.12,0-8.67-4.6-8.67-9.19a9.33,9.33,0,0,1,2.3-6.38A8.26,8.26,0,0,1,16.94,880.61Z" transform="translate(-3.43 -269)"/><path class="cls-3" d="M71.76,870.66c8.93,0,13.52-6.89,13.52-13.78A15.17,15.17,0,0,0,82,847.44a13.06,13.06,0,0,0-10.2-4.34c-8.92,0-13.51,6.89-13.51,13.78C58.5,863.77,63.09,870.66,71.76,870.66Zm0-23c6.12,0,8.67,4.6,8.67,9.19a9.32,9.32,0,0,1-2.29,6.38,8.45,8.45,0,0,1-6.63,2.81c-6.12,0-8.67-4.6-8.67-9.19C63.09,852.29,65.64,847.69,71.76,847.69Z" transform="translate(-3.43 -269)"/><path class="cls-3" d="M143.67,876.53c8.92,0,13.51-6.89,13.51-13.78a15.16,15.16,0,0,0-3.31-9.44,13.08,13.08,0,0,0-10.2-4.34c-8.93,0-13.52,6.89-13.52,13.78S134.74,876.53,143.67,876.53Zm0-23c6.12,0,8.67,4.6,8.67,9.19a9.33,9.33,0,0,1-2.3,6.38,8.43,8.43,0,0,1-6.63,2.81c-6.12,0-8.67-4.6-8.67-9.19a9.33,9.33,0,0,1,2.3-6.38A8.43,8.43,0,0,1,143.67,853.56Z" transform="translate(-3.43 -269)"/><path class="cls-3" d="M169.68,932.93c8.92,0,13.51-6.89,13.51-13.78s-4.59-13.78-13.51-13.78-13.52,6.89-13.52,13.78S161,932.93,169.68,932.93Zm0-23c6.11,0,8.66,4.6,8.66,9.19s-2.8,9.19-8.66,9.19c-6.12,0-8.67-4.6-8.67-9.19a9.32,9.32,0,0,1,2.29-6.38A7.57,7.57,0,0,1,169.68,910Z" transform="translate(-3.43 -269)"/><path class="cls-3" d="M175,982.44c8.92,0,13.51-6.89,13.51-13.78S184,954.88,175,954.88s-13.51,6.89-13.51,13.78S166.1,982.44,175,982.44Zm0-23c6.12,0,8.67,4.6,8.67,9.19s-2.81,9.19-8.67,9.19c-6.12,0-8.67-4.6-8.67-9.19a9.32,9.32,0,0,1,2.29-6.38A7.57,7.57,0,0,1,175,959.47Z" transform="translate(-3.43 -269)"/><path class="cls-3" d="M886.5,900.64c10,0,15.2-7.73,15.2-15.46a17,17,0,0,0-3.73-10.6,14.73,14.73,0,0,0-11.47-4.86c-10,0-15.2,7.73-15.2,15.46C871.3,892.62,876.46,900.64,886.5,900.64Zm0-25.77c6.88,0,9.75,5.15,9.75,10.31a10.48,10.48,0,0,1-2.58,7.16,9.53,9.53,0,0,1-7.46,3.15c-6.88,0-9.75-5.16-9.75-10.31A10.51,10.51,0,0,1,879,878C880.77,875.73,883.35,874.87,886.5,874.87Z" transform="translate(-3.43 -269)"/><path class="cls-3" d="M892,955.61c10,0,15.19-7.73,15.19-15.46S902,924.69,892,924.69s-15.2,7.73-15.2,15.46C876.75,947.6,881.91,955.61,892,955.61Zm0-25.77c6.88,0,9.75,5.16,9.75,10.31a10.42,10.42,0,0,1-2.59,7.16,9.52,9.52,0,0,1-7.45,3.15c-6.88,0-9.75-5.15-9.75-10.31S885.07,929.84,892,929.84Z" transform="translate(-3.43 -269)"/><path class="cls-3" d="M839.76,918.39c10,0,15.2-7.73,15.2-15.46s-5.16-15.46-15.2-15.46-15.19,7.73-15.19,15.46S829.73,918.39,839.76,918.39Zm0-25.77c6.89,0,9.75,5.16,9.75,10.31s-3.15,10.31-9.75,10.31c-6.88,0-9.74-5.16-9.74-10.31a10.46,10.46,0,0,1,2.58-7.16C834,893.77,836.61,892.62,839.76,892.62Z" transform="translate(-3.43 -269)"/><path class="cls-3" d="M846.36,867.71c10,0,15.19-7.73,15.19-15.46s-5.16-15.46-15.19-15.46-15.2,7.73-15.2,15.46S836.32,867.71,846.36,867.71Zm0-25.77c6.88,0,9.75,5.16,9.75,10.31a10.46,10.46,0,0,1-2.58,7.16,9.56,9.56,0,0,1-7.46,3.15c-6.88,0-9.75-5.15-9.75-10.31C836.61,847.1,839.48,841.94,846.36,841.94Z" transform="translate(-3.43 -269)"/><path class="cls-3" d="M899.69,849.1c10,0,15.2-7.73,15.2-15.46s-5.17-15.46-15.2-15.46-15.2,7.73-15.2,15.46S889.65,849.1,899.69,849.1Zm0-25.77c6.88,0,9.75,5.16,9.75,10.31a10.46,10.46,0,0,1-2.58,7.16A9.53,9.53,0,0,1,899.4,844c-6.88,0-9.75-5.15-9.75-10.31S892.81,823.33,899.69,823.33Z" transform="translate(-3.43 -269)"/><path class="cls-3" d="M934.38,882c10,0,15.2-7.73,15.2-15.46s-5.16-15.46-15.2-15.46-15.19,7.73-15.19,15.46S924.35,882,934.38,882Zm0-25.77c6.88,0,9.75,5.15,9.75,10.31s-3.15,10.3-9.75,10.3c-6.88,0-9.75-5.15-9.75-10.3a10.46,10.46,0,0,1,2.58-7.16C928.65,857.41,931.23,856.26,934.38,856.26Z" transform="translate(-3.43 -269)"/><path class="cls-3" d="M937.25,927.55c10,0,15.2-7.73,15.2-15.46s-5.17-15.46-15.2-15.46-15.2,7.73-15.2,15.46C922.05,919.54,927.5,927.55,937.25,927.55Zm0-25.76c6.88,0,9.75,5.15,9.75,10.3s-3.16,10.31-9.75,10.31c-6.88,0-9.75-5.15-9.75-10.31a10.48,10.48,0,0,1,2.58-7.16C931.51,902.64,934.1,901.79,937.25,901.79Z" transform="translate(-3.43 -269)"/><path class="cls-3" d="M941,987.11c10,0,15.19-7.73,15.19-15.46a17,17,0,0,0-3.72-10.6A14.73,14.73,0,0,0,941,956.19c-10,0-15.2,7.73-15.2,15.46S930.94,987.11,941,987.11Zm0-25.77c6.88,0,9.74,5.15,9.74,10.31a10.39,10.39,0,0,1-2.58,7.15,9.49,9.49,0,0,1-7.45,3.15c-6.88,0-9.75-5.15-9.75-10.3S934.1,961.34,941,961.34Z" transform="translate(-3.43 -269)"/><path class="cls-3" d="M879.62,1001.42a12.12,12.12,0,0,0,5.73-1.43,13,13,0,0,0,4.88-3.15,12,12,0,0,0,3.15-5.15,9.93,9.93,0,0,0,1.15-6v-1.15a17.15,17.15,0,0,0-2-7.73l-2.29-2.86a17.23,17.23,0,0,0-7.17-4.3l-3.73-.57a12.47,12.47,0,0,0-6.59,1.43,13,13,0,0,0-4.88,3.15,11,11,0,0,0-3.15,4.87,15.37,15.37,0,0,0-1.44,6v1.15a17.15,17.15,0,0,0,2,7.73l2.3,2.86a17,17,0,0,0,7.16,4.29l3.73.58A2.21,2.21,0,0,0,879.62,1001.42Zm-.86-26.91H879l3.16.57a8.69,8.69,0,0,1,4.3,2.58l1.72,2.29a9.4,9.4,0,0,1,1.15,4.87V986a13,13,0,0,1-2.87,7.16,6.52,6.52,0,0,1-3.15,2,6.86,6.86,0,0,1-4,.86l-3.15-.57a8.65,8.65,0,0,1-4.3-2.58l-1.72-2.29a9.39,9.39,0,0,1-1.15-4.86v-1.15a7.94,7.94,0,0,1,.86-3.72l.29-.29a7.37,7.37,0,0,1,2-3.15,6.5,6.5,0,0,1,3.16-2A7.64,7.64,0,0,1,878.76,974.51Z" transform="translate(-3.43 -269)"/><path class="cls-3" d="M836.32,975.08c10,0,15.2-7.73,15.2-15.46A17,17,0,0,0,847.79,949a14.72,14.72,0,0,0-11.47-4.87c-10,0-15.19,7.73-15.19,15.46S826.29,975.08,836.32,975.08Zm0-25.77c6.88,0,9.75,5.16,9.75,10.31a10.46,10.46,0,0,1-2.58,7.16,9.52,9.52,0,0,1-7.45,3.15c-6.89,0-9.75-5.16-9.75-10.31S829.44,949.31,836.32,949.31Z" transform="translate(-3.43 -269)"/><path class="cls-3" d="M800.77,920.4c10,0,15.2-7.73,15.2-15.46s-5.16-15.47-15.2-15.47-15.2,7.73-15.2,15.47C785.86,912.38,791,920.4,800.77,920.4Zm0-25.77c6.88,0,9.75,5.15,9.75,10.31a10.46,10.46,0,0,1-2.58,7.15,9.49,9.49,0,0,1-7.46,3.15c-6.88,0-9.74-5.15-9.74-10.3C791,899.78,794.18,894.63,800.77,894.63Z" transform="translate(-3.43 -269)"/><path class="cls-3" d="M800.2,862.85c10,0,15.19-7.73,15.19-15.47s-5.16-15.46-15.19-15.46S785,839.65,785,847.38C785.29,855.12,790.45,862.85,800.2,862.85Zm0-25.77c6.88,0,9.74,5.15,9.74,10.3s-3.15,10.31-9.74,10.31c-6.89,0-9.75-5.15-9.75-10.31a10.44,10.44,0,0,1,2.58-7.15A9.31,9.31,0,0,1,800.2,837.08Z" transform="translate(-3.43 -269)"/><path class="cls-3" d="M861.84,825.91c10,0,15.2-7.73,15.2-15.46a17,17,0,0,0-3.73-10.59A14.73,14.73,0,0,0,861.84,795c-10,0-15.2,7.73-15.2,15.46C846.93,818.18,852.09,825.91,861.84,825.91Zm0-25.77c6.88,0,9.75,5.16,9.75,10.31a10.46,10.46,0,0,1-2.58,7.16,9.53,9.53,0,0,1-7.46,3.15c-6.88,0-9.74-5.16-9.74-10.31C852.09,805.3,855,800.14,861.84,800.14Z" transform="translate(-3.43 -269)"/><path class="cls-3" d="M942.7,832.5c10,0,15.19-7.73,15.19-15.46a17,17,0,0,0-3.72-10.6,14.73,14.73,0,0,0-11.47-4.87c-10,0-15.2,7.73-15.2,15.47S932.66,832.5,942.7,832.5Zm0-25.77c6.88,0,9.75,5.15,9.75,10.31a10.46,10.46,0,0,1-2.58,7.15,9.49,9.49,0,0,1-7.46,3.15c-6.88,0-9.75-5.15-9.75-10.3a10.45,10.45,0,0,1,2.58-7.16A9.49,9.49,0,0,1,942.7,806.73Z" transform="translate(-3.43 -269)"/><path class="cls-3" d="M971.94,895.77c10,0,15.2-7.73,15.2-15.46s-5.16-15.46-15.2-15.46-15.19,7.73-15.19,15.46S962.19,895.77,971.94,895.77Zm0-25.77c6.88,0,9.75,5.16,9.75,10.31s-3.15,10.31-9.75,10.31c-6.88,0-9.75-5.15-9.75-10.31a10.46,10.46,0,0,1,2.58-7.16C966.21,871.15,968.79,870,971.94,870Z" transform="translate(-3.43 -269)"/><path class="cls-3" d="M978,951.32c10,0,15.2-7.73,15.2-15.46S988,920.39,978,920.39s-15.19,7.74-15.19,15.47S967.93,951.32,978,951.32Zm0-25.77c6.89,0,9.75,5.15,9.75,10.31s-3.15,10.3-9.75,10.3c-6.88,0-9.74-5.15-9.74-10.3a10.46,10.46,0,0,1,2.58-7.16C972.23,926.69,974.81,925.55,978,925.55Z" transform="translate(-3.43 -269)"/><g class="cls-4"><g class="cls-5"><path class="cls-6" d="M1316.07,560.33c-9.39-3.19-19.72-4.31-29.67-4.13-11.26.19-22.35,2.07-33.42,4.32A192.22,192.22,0,0,1,1255,529.2a130.26,130.26,0,0,0,9.77-18.38s22.53-4.32,26.28-28.51c3.57-23.82-15.77-37.89-29.86-26.45a15.65,15.65,0,0,1-4.31-4.31c-6.76-8.82-9.58-20.07-12.78-30.76S1236.64,399,1228,392.1c-6.39-5.07-14.27-7.32-22.16-9.38.19,4.87-1.31,9.94-3,14.63a146.5,146.5,0,0,1-23.28,41.07c-14.84,0-29.68-.19-44.7-.19-.56,4.5-1.49,12.76-2.81,23.82-2.26,16.7-10,22.32-6.76,46.33,2.06,14.44,13.89,34.13,28,48a236,236,0,0,0-58.58,3.56c-5.82,1.13-12,2.44-16.71,6.19h-.38c-.37-9.94-.37-20.06,2.82-29.25,3.94-11.26,12.21-20.26,17.65-30.76,9.39-18,9.58-40.51.94-58.89l1.13-.57c7.89-11.62,15.39-24.75,18.4-45.2,9.38-66.2,83.56-60.39,83.56-60.39s67.41-8.63,85.62,56.83C1305.36,462.8,1354,502.38,1316.07,560.33Z" transform="translate(-3.43 -269)"/><path class="cls-6" d="M1291.09,482.31c-3.75,24.19-26.28,28.51-26.28,28.51A169.45,169.45,0,0,1,1255,529.2c-22.34,35.26-52.76,47.26-72.86,44.26-6.94-.94-14.45-5.06-21.78-10.88a71.63,71.63,0,0,1-7-6.19c-14.27-13.88-26.1-33.38-28-48-3.38-24,4.51-29.82,6.76-46.33,1.5-11.06,2.43-19.5,2.82-23.82,14.82,0,29.85.19,44.69.19A140.89,140.89,0,0,0,1203,397.35c1.69-4.69,3.2-9.57,3-14.63,7.89,2.06,15.77,4.31,22.16,9.38,8.63,6.94,13,18,16.15,28.69s6,21.95,12.77,30.76a18.6,18.6,0,0,0,4.32,4.31C1275.32,444.42,1294.66,458.49,1291.09,482.31Z" transform="translate(-3.43 -269)"/><path class="cls-7" d="M1154.58,582.46c-.37,1.13-.56,2.07-.94,3.19,0,.19-.19.19-.19.38-9,14.44-42.81,71.27-55.2,136.34-1.32.19-2.44.38-3.76.57-8.45,1.12-16.9,2.25-25,4.5,0,0,28.73-91.9,75.11-140.29,1.5-1.69,3.19-3.19,4.69-4.69Z" transform="translate(-3.43 -269)"/><path class="cls-3" d="M1069.52,727.44a284.5,284.5,0,0,0-.56,39.95,5,5,0,0,0-1.13-1.88,4.2,4.2,0,0,0-4.13-1.87c-1.32.18-2.26,1.31-3,2.43a15.57,15.57,0,0,0-2.43,6.38l-1.69-.37,5.44-25.51c0-.19.19-.38.19-.56,0-3.76-17.65-6.94-43.38-8.63l-.38-.19a66.15,66.15,0,0,0,6-27.57c0-3.94-.19-8.06-.57-12l2.07-.19c7-13.13,5.63-39.2,15-60.95,10.9-9.94,24-18.38,31-30.76,23.47-10.88,56.9-16.7,72.85-19C1098.25,635.54,1069.52,727.44,1069.52,727.44Z" transform="translate(-3.43 -269)"/><path class="cls-7" d="M1259.93,583.59c-3.57,17.81-14.1,77.46-11.28,141a250.83,250.83,0,0,0-28.91-5.07s6.2-57.58,28.35-123.78c1.88-5.44,3.76-10.69,5.82-16.13.19-.38.38-.94.56-1.32h6.58C1261.05,578.15,1260.67,580,1259.93,583.59Z" transform="translate(-3.43 -269)"/><path class="cls-3" d="M1386.3,853.1c-6,40.51-14.47,39.57-9.21,62.45s-7.32,46-21.59,51.39c0,0-7.51,16.32-18.77,12.38,0,0-16.72-77.46-53.34-84.58-.56-.19-1.12-.19-1.88-.38h-.18c-3.2-.56-5.45-3.56-6.19-6.75-1.13-5.25.93-10.69,4.12-14.82a48.46,48.46,0,0,1,7.89-7.31c-.75-7.51-4.13-14.63-8.26-21-4.88-7.69-10.9-14.81-14.65-23.26a50.21,50.21,0,0,1-1.69-36.19c.57-1.69,1.32-3.38,1.13-5.07a16.93,16.93,0,0,0-1.69-4.87c-7.52-14.82-7.7-32.07-5.63-48.58-2.63-.75-5.07-1.31-7.7-1.87-2.83-63.58,7.7-123.23,11.27-141,16.51,3.75,65.15,17.81,85.43,57.39,24.6,48,10,79.89,22.91,131.85C1381.41,824.59,1392.3,812.77,1386.3,853.1Z" transform="translate(-3.43 -269)"/><path class="cls-7" d="M1330.9,1069.35a275.26,275.26,0,0,0-98.39,2.43c-15.59,3.19-30.79,7.88-46.57,9.57-16,1.69-32.11.37-48.07-1.69-36.61-4.5-73.42-12.94-104.78-31.88,3.57-9,6.58-18,7.88-27.57,1.51-12,.2-24.38,3.58-36,2.25-7.51,6.19-14.07,9.2-21.2a71.59,71.59,0,0,0,5.25-24.19c.56-11.44-1.5-23.82,4.13-33.38,9.21,3.93,18.4,8.06,28.36,9a45.81,45.81,0,0,0,14.27-.94c16,5.81,76,28.13,123,49.51,40.75,18.57,73.42,21,93,19.32,2.62,6,1.69,13.88.93,20.82a101.64,101.64,0,0,0,2.64,34.51C1327.52,1048.15,1331.84,1058.84,1330.9,1069.35Z" transform="translate(-3.43 -269)"/><path class="cls-6" d="M1336.54,979.51a67.15,67.15,0,0,1-15,2.81c-19.53,1.69-52.39-.75-93-19.32-46.75-21.38-106.84-43.7-123-49.51a45.45,45.45,0,0,1-14.27.94c-10-.94-19.15-5.07-28.36-9a115.19,115.19,0,0,0-13.52-5.07,113.82,113.82,0,0,0-19.33-3.75c-16-1.87-32.49-1.69-48.07-6.19-4.51-1.31-9.2-3.56-10.71-7.88a4.19,4.19,0,0,1,0-3c.94-2.43,4-3.18,6.58-3.37,17.27-1.31,34.55,2.62,51.64,1.12-14.47-3.75-28.74-7.69-43.2-11.44a71.18,71.18,0,0,1-13.51-4.5,20.08,20.08,0,0,1-7.89-5.81c-1.5-1.88-2.44-4.32-1.5-6.57a5.5,5.5,0,0,1,2.44-2.62,13.61,13.61,0,0,1,6.57-2.63c-1.88-.94-3.57-1.87-5.45-3a16.62,16.62,0,0,1-5.25-4.31c-1.32-1.88-2.07-4.32-1.13-6.38a7,7,0,0,1,4.13-3.56c3.57-1.32,7.7-.94,11.64-.57a477.83,477.83,0,0,1,53.89,9.94c-13.89-5.25-27.6-10.69-40.93-17.44-5.07-2.62-10.33-5.63-12.21-11.06a5,5,0,0,1,0-4.32c1.32-2.62,4.89-2.81,7.7-2.62,21.41,1.68,41.69,9.75,62.34,15.56,6.76,1.88,13.52,3.57,20.47,4.88-5.44-13.88-11.07-28.51-10.14-43.51a14.83,14.83,0,0,1,.56-4.13,15.51,15.51,0,0,1,2.45-6.37,5.43,5.43,0,0,1,3-2.44,4.18,4.18,0,0,1,4.13,1.87,19,19,0,0,1,1.13,1.88c.37.75.56,1.69.93,2.44,5.64,17.06,15.59,32.26,26.67,46.51,1.88,2.25,3.57,4.5,5.26,6.94,6.2,9.19,9.2,19.88,10.89,30.76,10.52,6.19,129.75,32.82,168.62,40.51h.19c.57.19,1.13.19,1.87.37C1319.82,902.05,1336.54,979.51,1336.54,979.51Z" transform="translate(-3.43 -269)"/><path class="cls-3" d="M1240.58,547.76c-19.9,20.82-42.44,28.14-58.58,25.7-7-.94-14.46-5.06-21.79-10.88-.19.56-2.81,9.94-5.63,19.69,0,0-.94,3.38-.94,3.57s-.19.37-.19.56C1186.69,599.9,1230.25,579.84,1240.58,547.76Z" transform="translate(-3.43 -269)"/><path class="cls-6" d="M1253,560.71a163.83,163.83,0,0,0,1.12,18.94c-2.07,5.44-3.94,10.88-5.82,16.13-13.71,10.5-44.5,31.32-68,29.07-13.34-1.32-20.85-6-25.36-10.69a21.6,21.6,0,0,1-5.81-13.32c.93-3.38,2.62-8.63,4.12-14.25,33.43,13.5,76.8-6.75,87.13-38.64a10.91,10.91,0,0,0,1.5-1.69,110.19,110.19,0,0,0,12.78-16.88A236.18,236.18,0,0,0,1253,560.71Z" transform="translate(-3.43 -269)"/><path class="cls-3" d="M1248.28,595.78c-22.34,66.2-28.36,123.78-28.36,123.78-40.17-5.06-81.3-2.25-121.67,2.81,12.39-65.08,46-121.9,55.2-136.35h.19c-1.69,5.82-3.19,11.26-4.32,14.82,0,0,0,21,31.17,24.2C1203.78,627.1,1234.57,606.28,1248.28,595.78Z" transform="translate(-3.43 -269)"/><path class="cls-7" d="M1281.14,894.55c-38.87-7.69-158.1-34.32-168.62-40.51-1.69-10.88-4.69-21.57-10.89-30.76-1.69-2.44-3.38-4.69-5.26-6.94-11.08-14.07-21-29.45-26.67-46.51a12.83,12.83,0,0,0-.93-2.44,284.5,284.5,0,0,1,.56-39.95,158.76,158.76,0,0,1,25-4.5l3.75-.57c40.37-5.06,81.5-7.87,121.68-2.81a251.38,251.38,0,0,1,28.92,5.07c2.63.56,5.07,1.12,7.7,1.87-2.07,16.69-1.89,33.76,5.63,48.58.75,1.5,1.69,3.19,1.69,4.87a11.63,11.63,0,0,1-1.13,5.07,50.21,50.21,0,0,0,1.69,36.19c3.75,8.45,9.58,15.57,14.65,23.26,4.13,6.38,7.69,13.69,8.26,21a36.58,36.58,0,0,0-7.89,7.31c-3.38,4.13-5.44,9.75-4.12,14.82C1275.88,891,1278.13,894,1281.14,894.55Z" transform="translate(-3.43 -269)"/><path class="cls-6" d="M938.83,809.77a10.13,10.13,0,0,1-1.5,5.63,2.56,2.56,0,0,1-.57.75,15.73,15.73,0,0,1-14.83,6.19,16.12,16.12,0,0,1-7.14-3,14.72,14.72,0,0,1-4.5-5.63h.18a8.65,8.65,0,0,1-.75-5.25,8.75,8.75,0,0,1,3-4.5,18,18,0,0,1,4.5-2.81A19.32,19.32,0,0,1,933,802.46C935.82,804.15,938.64,806.59,938.83,809.77Z" transform="translate(-3.43 -269)"/><path class="cls-6" d="M937.14,851.22c.19,2.82.19,5.82-1.5,8.07a7.81,7.81,0,0,1-5.82,3,7.66,7.66,0,0,1-2.82-.56,11.53,11.53,0,0,1-6.39-7.13,14.67,14.67,0,0,1-.37-6.38l.56.57a14.13,14.13,0,0,0,13.9,3.37,7.2,7.2,0,0,0,2.44-1.12Z" transform="translate(-3.43 -269)"/><path class="cls-6" d="M956.48,755.38c-28.54-1.31-49.2-4.5-51.08-8.44l-.18-.56c0-3.94,18.77-7.13,45.81-8.81C955.17,742.63,957.61,749,956.48,755.38Z" transform="translate(-3.43 -269)"/><path class="cls-6" d="M942.21,845a11.85,11.85,0,0,1-5.07,5.82c-.75.37-1.5.75-2.44,1.12a14.13,14.13,0,0,1-13.9-3.37l-.56-.57a13.92,13.92,0,0,1-2.82-13.12,15.87,15.87,0,0,0,6.39,2.62,16.48,16.48,0,0,0,11.45-2.44,13,13,0,0,0,4.32-5.25C942,834.72,944.09,840.16,942.21,845Z" transform="translate(-3.43 -269)"/><path class="cls-6" d="M940.89,825a10.94,10.94,0,0,1-1.12,4.87,13,13,0,0,1-4.32,5.25A16.29,16.29,0,0,1,924,837.53a15.89,15.89,0,0,1-6.38-2.62,13.61,13.61,0,0,1-3.38-3.94,15.66,15.66,0,0,1-1.13-6.57,9.14,9.14,0,0,1,1.69-5.06,15.58,15.58,0,0,0,22-3.19A11.3,11.3,0,0,1,940.89,825Z" transform="translate(-3.43 -269)"/><path class="cls-8" d="M1061.82,746.76l-5.45,25.5-9.2,43v.19c-20.65-6-40.93-13.88-62.34-15.57-2.81-.18-6.38,0-7.7,2.63a6.83,6.83,0,0,0,0,4.31c1.88,5.25,7.33,8.44,12.21,11.07,13.14,6.75,27,12.19,40.93,17.44a515.7,515.7,0,0,0-53.89-9.94c-3.94-.56-7.88-.94-11.64.56-1.88.75-3.57,1.88-4.13,3.57-.94,2.06-.19,4.69,1.13,6.37a16.58,16.58,0,0,0,5.26,4.32,51.63,51.63,0,0,0,5.44,3,13.5,13.5,0,0,0-6.57,2.62,8.09,8.09,0,0,0-2.44,2.63c-.94,2.25.18,4.69,1.5,6.56a22.11,22.11,0,0,0,7.89,5.82c4.31,2.06,9,3.19,13.52,4.5,14.45,3.75,28.72,7.69,43.19,11.44-17.28,1.5-34.56-2.44-51.64-1.13-2.63.19-5.64.94-6.58,3.38a5.56,5.56,0,0,0,0,3c1.32,4.32,6.2,6.57,10.71,7.88,15.39,4.5,31.92,4.31,48.07,6.19l-1.69,8.06s-6.76,6-44.88,6-44.69-6-44.69-6l-8.83-42v-.37a7.21,7.21,0,0,0,5.82-3c1.51-2.26,1.51-5.26,1.51-8.07l-.19-.19a11.78,11.78,0,0,0,5.07-5.81c1.88-4.88-.19-10.5-2.44-15.19a11,11,0,0,0,1.12-4.88,11.28,11.28,0,0,0-4.13-8.81c.19-.19.38-.57.57-.75a7.66,7.66,0,0,0,1.5-5.63c-.38-3.19-3-5.63-5.82-7.13A19.36,19.36,0,0,0,917.23,801l-.56-1.5L905.4,746.57c1.88,3.94,22.54,7.13,51.08,8.44,2.25.19,4.69.19,7.14.19s4.88.18,7.32.18c4.13,0,8.45.19,12.77.19h6.94c4.51,0,8.83-.19,13.15-.19C1035.91,754.45,1060,751.07,1061.82,746.76Z" transform="translate(-3.43 -269)"/><path class="cls-9" d="M1067.83,820.28a191,191,0,0,1-20.47-4.88v-.19l9.21-43,1.69.38c-.2,1.31-.39,2.81-.57,4.12C1056.75,791.77,1062.38,806.4,1067.83,820.28Z" transform="translate(-3.43 -269)"/><path class="cls-9" d="M1020.32,469.93c-1.12,23.44-13.71,45.76-12.2,69.21.75,12.19,5.44,24,8.07,36a78,78,0,0,1,2.07,14.81c.37,14.26-4.89,28.32-12,40.7s-16.52,24-18.59,38.07c-2.25,15.2,4.51,30.2,8.45,45.2,3.75,14.26,4.32,31.51-5.63,41.83h-7c-4.32,0-8.64,0-12.77-.19a55.09,55.09,0,0,0-2.82-33c-8.26-19.88-28.35-34.51-32.11-55.89-2.44-13.5,2.45-27.38,9.2-39.2,4.51-7.69,9.77-15.19,13.9-23.25,0-.19.19-.19.19-.38a47.29,47.29,0,0,0,5.26-17.44c1.87-21-14.28-39.2-18.59-59.83-3.95-19.13,2.62-39.2,13-55.7,5.26-8.63,11.64-16.88,14.84-26.45,5.25-16.13.75-34.32-7.89-48.95C997.79,403.72,1022,436.73,1020.32,469.93Z" transform="translate(-3.43 -269)"/><path class="cls-10" d="M970.94,755.76c-2.44,0-4.88-.19-7.33-.19.94-14.63-10.32-27.38-22.15-36.57-12.21-9.38-26.29-17.82-32.68-31.7-5.63-12.19-4.31-26.25-1.87-39.76.56-3,1.12-6.19,1.69-9.19,3.19-16.32,5.07-34.7-4.51-48.2-4.88-6.94-12.39-11.63-18.78-17.44a67.21,67.21,0,0,1-19.9-34.14c-5.82-25.13,3-52.51-5.82-76.89A56.43,56.43,0,0,0,822,427c20.1-1.5,41.88-1.87,58.78,9,19.15,12.19,27.6,36,29.48,58.71.94,11.44.94,23.63,7.7,32.82,5.44,7.31,14.08,11.25,21,16.69,17.46,13.5,25.16,38.45,18.4,59.45l.94.57c-4,7.87-9.39,15.38-13.9,23.25-6.76,12-11.45,25.7-9.2,39.2,3.76,21.38,23.85,36,32.3,55.89A52,52,0,0,1,970.94,755.76Z" transform="translate(-3.43 -269)"/><path class="cls-6" d="M1062,746.38l-.19.56c-1.87,4.13-25.91,7.69-58.21,8.82a44,44,0,0,0,14.46-18l.37.19C1044.35,739.25,1062,742.44,1062,746.38Z" transform="translate(-3.43 -269)"/><path class="cls-10" d="M1098.06,506.32c-5.44,10.5-13.7,19.5-17.65,30.75-3.19,9.38-3.19,19.32-2.82,29.26.38,12.38,1.13,24.76-3.75,35.82-.57,1.32-1.32,2.63-1.88,3.94-7.14,12.38-20.09,20.82-31,30.76-6.37,5.81-12,12-15.2,19.88-5.26,12.94-3.19,27-1.88,41.26.38,3.94.57,8.07.57,12a64,64,0,0,1-6,27.57,47.07,47.07,0,0,1-14.45,18c-4.13.19-8.64.19-13.15.19,10.14-10.32,9.58-27.76,5.63-41.83-3.94-15-10.7-29.82-8.44-45.2,2.06-14.06,11.45-25.69,18.59-38.07s12.39-26.44,12-40.7a78,78,0,0,0-2.06-14.81c9.76-7.13,13.14-20.26,14.08-32.26,1.13-12.57.38-25.7,5.82-37.14,6.58-13.88,20.66-22.32,32.86-31.51,12.39-9.19,24.41-21.94,23.85-37.32a56.8,56.8,0,0,1,6,10.32C1107.64,465.8,1107.45,488.12,1098.06,506.32Z" transform="translate(-3.43 -269)"/><path class="cls-9" d="M963.61,755.57c-2.44,0-4.88-.19-7.13-.19,1.13-6.18-1.31-12.75-5.45-17.81a28.21,28.21,0,0,0-6-5.63c-8.07-5.63-17.83-7.88-27.22-10.31s-19.15-5.63-26.1-12.57A44.69,44.69,0,0,1,884,698c-6-10.87-10.7-22.69-17.09-33.38-6.38-10.88-14.65-21-25.72-26.63s-25.73-6-35.68,1.5c3.75-7.69,11.64-12.38,19.72-15.57,12.76-5.06,27-7.13,40.37-3.56,11.64,3.19,21.59,10.5,31,17.81a56.47,56.47,0,0,1,10.33,9.57c-2.44,13.5-3.95,27.57,1.87,39.76,6.39,13.88,20.66,22.32,32.68,31.7C953.29,728.19,964.55,740.94,963.61,755.57Z" transform="translate(-3.43 -269)"/><path class="cls-11" d="M1207.91,382.16c-1.32,5.25-2.25,10.31-3.76,15.56a96.11,96.11,0,0,1-6.2,15,86.65,86.65,0,0,1-20.27,24.94c-1.32,1.13.56,3,1.88,1.88a81.18,81.18,0,0,0,20.84-25.7c5.07-9.38,9.2-20.63,9-31.32C1209.22,381.59,1208.09,381.22,1207.91,382.16Z" transform="translate(-3.43 -269)"/><path class="cls-11" d="M1210.73,383.09c5.07,2.82,10.32,4.88,14.83,8.63A48.77,48.77,0,0,1,1237,404.29c7.13,11.06,8.08,24.75,12.4,36.94,2.06,6,5.06,12.76,10.13,17.07,1.13.94,2.26-.37,1.51-1.5a53.33,53.33,0,0,1-9-17.07c-1.87-6.56-3-13.12-4.69-19.69-3.2-11.81-9-22.32-18.78-30-4.88-3.75-10.89-7.5-17.09-8.25C1210.54,381.59,1209.78,382.72,1210.73,383.09Z" transform="translate(-3.43 -269)"/><path class="cls-11" d="M1262.74,457.74c2.44-4.69,8.26-7.5,13.33-7.31,5.83.18,10.89,4.31,13.71,9.19,6.76,12.19,0,26.81-8.08,36.38-4.31,5.25-9.94,9.94-17.09,10.32a1.5,1.5,0,0,0,0,3c7-.38,13-4.5,17.66-9.57,5.07-5.63,9.57-12.38,11.64-19.69,2.07-7.13,2.07-15.38-1.69-21.95a20.6,20.6,0,0,0-15-10.31,16.21,16.21,0,0,0-9.77,2.06c-3.19,1.69-4.88,4.13-6.2,7.32C1261.05,457.93,1262.36,458.49,1262.74,457.74Z" transform="translate(-3.43 -269)"/><path class="cls-11" d="M1281.51,465.62a30.24,30.24,0,0,0-5.81,6.19,30.55,30.55,0,0,0-3.94,7.87,43.42,43.42,0,0,0-2.26,8.44,26.61,26.61,0,0,0-.19,8.63,1.34,1.34,0,0,0,2.63-.37c.19-2.63,0-5.44.38-8.07a39.42,39.42,0,0,1,5.63-14.82,58,58,0,0,1,4.88-6.94C1283.2,466,1282.27,465.05,1281.51,465.62Z" transform="translate(-3.43 -269)"/><path class="cls-11" d="M1209.41,340.89c4.7.75,9.58,1.69,14.27,2.82s9.2,2.44,13.71,3.94a90.75,90.75,0,0,1,24.23,12.75,70.91,70.91,0,0,1,17.83,18.75c5.07,7.69,8.08,16.32,10.51,25.14,2.45,9,4.33,18.38,7.52,27.19a260.33,260.33,0,0,0,11.07,24.38c8.27,16.13,16.91,32.45,18.78,50.83a89.58,89.58,0,0,1-13.89,57.39c-1.13,1.69,1.5,3.19,2.82,1.5A89.8,89.8,0,0,0,1331.09,514c-.38-18.94-7.51-36-16-52.7-4.32-8.44-8.83-16.69-12.39-25.32-3.76-9.19-6.2-18.56-8.45-28.13-2.26-9.19-4.89-18.38-9.77-26.63a78.65,78.65,0,0,0-16.34-19.7,91.65,91.65,0,0,0-25.73-15.37,98.46,98.46,0,0,0-16.14-4.88c-2.82-.56-5.44-1.13-8.26-1.5-2.63-.38-5.26-.38-8.08-.56C1208.66,339,1208.48,340.71,1209.41,340.89Z" transform="translate(-3.43 -269)"/><path class="cls-11" d="M1314.75,541.2a49.48,49.48,0,0,1-4.69,11.25c-.94,1.69-2.07,3.38-3.2,5.07s-2.81,3.19-3.75,4.87c-.75,1.13.75,2.82,1.88,1.88a20.37,20.37,0,0,0,4.13-4.88,44,44,0,0,0,3.37-5.62,40.58,40.58,0,0,0,4.14-12.2C1317.19,540.45,1315.13,539.89,1314.75,541.2Z" transform="translate(-3.43 -269)"/><path class="cls-11" d="M1306.3,541.57a82.06,82.06,0,0,1-6.76,11.07c-1.13,1.69-2.44,3.38-3.75,5.06s-3.19,3.19-4.32,5.07a1.52,1.52,0,0,0,2.06,2.06c1.88-1.12,3.38-3.19,4.7-4.87a59.82,59.82,0,0,0,4.13-5.44,58.88,58.88,0,0,0,5.82-12A1.05,1.05,0,0,0,1306.3,541.57Z" transform="translate(-3.43 -269)"/><path class="cls-11" d="M1292.41,540.45c-4,8.81-10.33,16.13-17.66,22.32-1.3,1.12.39,3.37,1.88,2.44a48.27,48.27,0,0,0,10.71-10.69,59.28,59.28,0,0,0,7.13-13.13C1294.85,540.26,1293,539.32,1292.41,540.45Z" transform="translate(-3.43 -269)"/><path class="cls-11" d="M1274.94,543.26a27.45,27.45,0,0,1-3.94,9,17.89,17.89,0,0,1-2.82,3.75c-1.12,1.31-2.44,2.43-3.57,3.75-.93,1.12.39,3,1.69,2.06,3-1.87,5.26-5.06,7-8.06a31.21,31.21,0,0,0,3.38-9.94C1277,542.51,1275.14,542.14,1274.94,543.26Z" transform="translate(-3.43 -269)"/><path class="cls-11" d="M1089.8,530.32c-5.26,9.75-5.63,22.51.56,31.89a1.44,1.44,0,0,0,2.45-1.5c-4.89-9-5.83-20.07-1.51-29.45C1091.86,530.13,1090.36,529.2,1089.8,530.32Z" transform="translate(-3.43 -269)"/><path class="cls-11" d="M1099.75,535.39a38.14,38.14,0,0,0,.37,14.63,40.53,40.53,0,0,0,2.26,6.75,22.85,22.85,0,0,0,3.76,6.56c.93.94,3,0,2.44-1.5-.75-2.06-2.07-3.94-3-6a38.83,38.83,0,0,1-2.25-6.57,47.94,47.94,0,0,1-1.32-13.69C1101.82,534.45,1099.94,534.07,1099.75,535.39Z" transform="translate(-3.43 -269)"/><path class="cls-11" d="M1113.09,537.26a44.76,44.76,0,0,0,1.3,13.13,33.24,33.24,0,0,0,2.26,6c.94,1.88,2.07,4.32,3.76,5.63a1.42,1.42,0,0,0,2.25-1.69c-.75-1.87-2.07-3.38-3-5.25a36.12,36.12,0,0,1-2.45-5.63,37.64,37.64,0,0,1-2.06-12C1115.15,536,1113.09,536,1113.09,537.26Z" transform="translate(-3.43 -269)"/><path class="cls-11" d="M1126.79,546.83a36,36,0,0,0,8.45,11.81,1.59,1.59,0,0,0,2.25-2.25,34.48,34.48,0,0,1-8.82-10.69,1,1,0,0,0-1.5-.37A1.19,1.19,0,0,0,1126.79,546.83Z" transform="translate(-3.43 -269)"/><path class="cls-11" d="M1210.35,337a22.94,22.94,0,0,0-.94-11.82,28,28,0,0,0-2.44-5.44,15.58,15.58,0,0,0-3.76-4.88c-1.12-.93-2.44.75-1.88,1.88.76,1.5,2.08,3,3,4.5a22.75,22.75,0,0,1,2.25,4.88,34.24,34.24,0,0,1,1.69,10.69C1208.09,337.89,1210,338.27,1210.35,337Z" transform="translate(-3.43 -269)"/><path class="cls-11" d="M1205.84,334.14a21.25,21.25,0,0,0-2.63-3.19,22.81,22.81,0,0,0-10.89-6,1.46,1.46,0,0,0-.74,2.82,28.5,28.5,0,0,1,12.57,7.69C1204.9,336.21,1206.59,335.08,1205.84,334.14Z" transform="translate(-3.43 -269)"/><path class="cls-11" d="M1198.52,334.33a34.47,34.47,0,0,0-16.34-.19c-1.69.38-.93,2.82.76,2.63a36.72,36.72,0,0,1,15,.19C1199.46,337.14,1200,334.71,1198.52,334.33Z" transform="translate(-3.43 -269)"/><path class="cls-11" d="M1264.24,511.94c-2.44,3.57-4.88,6.94-6.57,10.88a72.27,72.27,0,0,0-6.19,23.44c-.38,4.13-.76,8.63.18,12.57.19,1.31,2.25.94,2.25-.38.19-3.93-.18-7.69.19-11.62a87.12,87.12,0,0,1,2.06-12.19c2.08-7.51,5.07-15.38,9.4-21.95A.77.77,0,0,0,1264.24,511.94Z" transform="translate(-3.43 -269)"/><path class="cls-11" d="M1254.86,546.08a26,26,0,0,0,.56,9.37,1.37,1.37,0,1,0,2.63-.75,26.24,26.24,0,0,1-1.13-8.62.88.88,0,0,0-.94-.94C1255.23,545.14,1255,545.51,1254.86,546.08Z" transform="translate(-3.43 -269)"/><path class="cls-11" d="M1251.29,563.52a81.37,81.37,0,0,0-.19,9.75,84.91,84.91,0,0,0,1.31,9.57c.38,1.68,2.82.93,2.44-.75a72.55,72.55,0,0,1-1.31-9.38c-.19-3.19-.56-6.19-.56-9.38C1253,562.39,1251.47,562.39,1251.29,563.52Z" transform="translate(-3.43 -269)"/><path class="cls-11" d="M1160.21,562.39c-2.25,6.57-3.75,13.13-5.63,19.7s-4.51,12.94-6.39,19.5c-.37,1.5,1.88,2.44,2.45,1.13,2.81-6.38,4.69-13.32,6.57-19.88,1.88-6.75,3.76-13.32,4.5-20.26C1161.9,561.83,1160.59,561.64,1160.21,562.39Z" transform="translate(-3.43 -269)"/><path class="cls-11" d="M1133.37,441.61c.74,16.32-6.2,31.32-9.4,47.08a58.13,58.13,0,0,0-.56,23.44,69.7,69.7,0,0,0,8.83,22.69,110.58,110.58,0,0,0,15.58,19.51c5.44,5.44,11.46,10.88,18.22,14.82,14.45,8.44,31.35,6.56,46.19.18,15-6.19,29.1-17.06,37.56-31.13.93-1.5-1.32-2.63-2.26-1.31-8.64,11.62-19,21.19-31.92,27.75-14.09,6.94-31.18,10.69-45.82,3.19-6.76-3.56-12.39-8.44-17.65-13.69a107.26,107.26,0,0,1-15.21-18c-4.32-6.76-7.89-14.07-9.58-21.95a56.91,56.91,0,0,1-.18-23.25c3.19-16.32,11.45-32.26,8.63-49.33A1.22,1.22,0,0,0,1133.37,441.61Z" transform="translate(-3.43 -269)"/><path class="cls-11" d="M1182.74,455.68a71.65,71.65,0,0,1-6.37,17.44,62.12,62.12,0,0,1-11.09,15c-3.75,3.94-6.57,9-4.31,14.44,2.25,5.63,8.26,8.82,13.71,10.51,2.06.56,3.38-2.44,1.5-3.38-4.89-2.44-12-4.5-12.21-11.06-.19-5.26,5.63-9.38,8.44-13.13a56,56,0,0,0,12.22-29.64C1185,454.74,1182.94,454.55,1182.74,455.68Z" transform="translate(-3.43 -269)"/><path class="cls-11" d="M1204.9,460.55c1.13-.37,2.45-.56,3.58-.94a20.1,20.1,0,0,1,3.18-.93,30.47,30.47,0,0,1,7.14-.75,20.47,20.47,0,0,1,12.39,5.25c2.07,1.87,5.07-1.13,3-3a27.11,27.11,0,0,0-14.84-6.38,24.29,24.29,0,0,0-8.26.94,22.05,22.05,0,0,0-3.75,1.5l-1.69,1.12c-.56.57-1,1.13-1.51,1.69C1203.41,459.8,1204,460.93,1204.9,460.55Z" transform="translate(-3.43 -269)"/><path class="cls-11" d="M1205.28,447.42c1.12-.37,2.44-.56,3.76-.93,1.12-.38,2.06-.75,3.19-1.13a31.15,31.15,0,0,1,7.13-.94,22.75,22.75,0,0,1,7.14,1.13c2.44.75,4.32,2.25,6.57,3,2.06.75,3.38-2.06,2.06-3.38-1.87-1.87-5.07-3-7.5-3.75a30.54,30.54,0,0,0-8.27-1.31,24.18,24.18,0,0,0-8.07,1.31,13.72,13.72,0,0,0-3.76,1.69c-1.31.75-2.06,1.88-3.19,2.81C1203.78,446.67,1204.34,447.8,1205.28,447.42Z" transform="translate(-3.43 -269)"/><path class="cls-11" d="M1221.43,461.68a6.39,6.39,0,1,1-6.39-6.38A6.22,6.22,0,0,1,1221.43,461.68Z" transform="translate(-3.43 -269)"/><path class="cls-11" d="M1140.31,460.55c1.12-.37,2.44-.56,3.57-.94a19.9,19.9,0,0,1,3.19-.93,30.36,30.36,0,0,1,7.14-.75,20.47,20.47,0,0,1,12.39,5.25c2.06,1.87,5.07-1.13,3-3a27.08,27.08,0,0,0-14.83-6.38,24.38,24.38,0,0,0-8.27.94,22.39,22.39,0,0,0-3.75,1.5l-1.69,1.12c-.56.57-.94,1.13-1.5,1.69S1139.56,460.74,1140.31,460.55Z" transform="translate(-3.43 -269)"/><path class="cls-11" d="M1140.69,447.42c1.12-.37,2.43-.56,3.75-.93,1.13-.38,2.06-.75,3.19-1.13a31.24,31.24,0,0,1,7.14-.94,22.69,22.69,0,0,1,7.13,1.13c2.45.75,4.32,2.25,6.58,3,2.06.75,3.38-2.06,2.06-3.38-1.88-1.87-5.07-3-7.51-3.75a30.4,30.4,0,0,0-8.26-1.31,24.24,24.24,0,0,0-8.08,1.31,13.79,13.79,0,0,0-3.75,1.69c-1.32.75-2.07,1.88-3.2,2.81C1139.37,446.49,1139.93,447.61,1140.69,447.42Z" transform="translate(-3.43 -269)"/><path class="cls-11" d="M1150.64,467.87a6.38,6.38,0,1,0-6.39-6.38A6.38,6.38,0,0,0,1150.64,467.87Z" transform="translate(-3.43 -269)"/><path class="cls-3" d="M1234,513.82a17.63,17.63,0,1,0-17.65-17.63A17.65,17.65,0,0,0,1234,513.82Z" transform="translate(-3.43 -269)"/><path class="cls-3" d="M1192.7,536a9.76,9.76,0,1,0-9.76-9.75A9.76,9.76,0,0,0,1192.7,536Z" transform="translate(-3.43 -269)"/><path class="cls-11" d="M1178.24,530a29.89,29.89,0,0,0,3.94.56,27.37,27.37,0,0,0,3.94-.38,35.32,35.32,0,0,0,7.52-2.43A34,34,0,0,0,1206,517.57c1.5-2.06-1.88-4.13-3.38-2.06a27.8,27.8,0,0,1-10.7,9,28.25,28.25,0,0,1-6.57,2.44c-1.13.18-2.25.56-3.38.75a35.12,35.12,0,0,1-3.76.75A.75.75,0,0,0,1178.24,530Z" transform="translate(-3.43 -269)"/><path class="cls-11" d="M1097.5,656.36c-3.76,5.81-6,12.56-8.64,18.94-2.82,6.75-5.64,13.32-8.45,20.07-2.63,6.37-5.45,12.94-8.07,19.32-2.26,5.62-4.14,11.81-3,18,.94,4.5,3.57,9.19,7.7,11.44,4.5,2.63,10.14,1.88,14.46-1.12,4.7-3.19,7.32-8.26,8.82-13.51,1.69-6.37,2.45-12.94,3.76-19.32a301,301,0,0,1,12.58-44.45c.75-2.06-2.44-2.81-3.19-.93a267.17,267.17,0,0,0-10.89,35.63c-1.5,6-2.63,12.19-3.76,18.38-.93,5.44-1.69,11.07-4.5,15.94-2.45,4.32-7.33,8.26-12.59,7.32-4.69-.94-7.69-5.44-8.64-9.75-1.31-5.82.76-11.63,2.82-17.07,2.25-5.82,4.7-11.63,7.14-17.44,2.82-6.76,5.44-13.51,8.26-20.07,2.82-6.75,6.2-13.51,7.89-20.63C1099.19,656.17,1098.06,655.61,1097.5,656.36Z" transform="translate(-3.43 -269)"/><path class="cls-11" d="M1229.88,656.92c-.75,3.19-1.88,6.38-2.82,9.56-.94,3.57-1.69,6.94-2.44,10.51-1.5,6.75-2.63,13.5-3.75,20.44a162.24,162.24,0,0,0-1.88,19.32c-.19,6,0,12.19,2.44,17.82,2.06,4.68,5.44,9,10.51,10.87,4.51,1.69,9.77,1.32,13.34-2.06,4.32-4.12,4.51-10.31,4.69-15.94,0-6.75.19-13.69.19-20.44.19-16,.19-31.89.19-47.83,0-1.69-2.63-1.69-2.82,0-.19,12.75-.38,25.32-.75,38.07-.19,6.38-.19,12.76-.19,19.13V725c0,3.19.19,6.56-.56,9.94-1.13,5.44-5.07,9.38-10.71,8.25-5.07-.93-8.64-4.87-10.7-9.37-2.25-5.26-2.44-11.07-2.25-16.7.37-6.19.93-12.37,1.88-18.38.93-6.94,2.25-13.69,3.56-20.44.56-3.19,1.32-6.56,2.07-9.75.75-3.57,1.13-7.13,1.87-10.69C1231.94,656.36,1230.06,655.79,1229.88,656.92Z" transform="translate(-3.43 -269)"/><path class="cls-11" d="M1259,725.94c3.76-8.63,7.14-17.44,11.46-25.7,2.06-4.12,4.31-8.06,6.76-12,2.44-4.13,5.44-8.06,7.88-12.19.94-1.69-1.31-3.56-2.62-2.06-3,3.56-5.45,7.87-7.89,11.81-2.44,4.13-4.89,8.44-7.14,12.76-4.31,8.62-8.26,17.44-10.33,26.82C1257.1,726.31,1258.61,727.06,1259,725.94Z" transform="translate(-3.43 -269)"/><path class="cls-11" d="M1255.42,714.12a114.41,114.41,0,0,1,7.89-30.57c.74-1.87-2.26-2.62-3-.75a94.49,94.49,0,0,0-7,31.32C1253.17,715.44,1255.23,715.44,1255.42,714.12Z" transform="translate(-3.43 -269)"/><path class="cls-11" d="M1255.6,750a21.45,21.45,0,0,0,.56,17.62c2.64,6,7.15,10.69,12.22,14.63,5.44,4.13,11.44,7.51,17.08,11.26a62.83,62.83,0,0,1,7.88,6.19,53.7,53.7,0,0,1,6.76,8.06,1.65,1.65,0,0,0,2.82-1.69c-2.44-5.44-7.7-9.75-12.39-13.13-5.07-3.75-10.71-6.94-16-10.5-5.45-3.56-10.7-7.88-14.08-13.5-3.2-5.25-4.89-12.19-3.2-18.38C1257.67,749.76,1256,749,1255.6,750Z" transform="translate(-3.43 -269)"/><path class="cls-11" d="M1265.56,778.45c-3.57,6-5.26,13.32-6.2,20.26a49,49,0,0,0,1.13,20.25c3.38,11.63,11.83,20.26,18.21,30,3.38,5.44,6.57,11.26,7.32,17.63.19.94.75,1.88,1.88,1.88a63.9,63.9,0,0,1,32.67,8.06c10.14,5.63,18,13.88,24,23.63,1.13,1.88,3.75.19,2.82-1.68-10.89-21.39-35.87-34.51-59.53-33.76l1.88,1.87c-1.32-11.25-8.08-20.25-14.64-29.26a77.42,77.42,0,0,1-9-14.44,42.46,42.46,0,0,1-3.38-19.88,63.2,63.2,0,0,1,1.69-11.81c.94-3.94,2.26-7.88,3-12C1267.43,778.08,1266.12,777.52,1265.56,778.45Z" transform="translate(-3.43 -269)"/><path class="cls-11" d="M1355.5,962.25c-.38-25.69-15.78-50.64-35.86-65.83a81,81,0,0,0-19.16-11.06c-1.69-.75-3,2.25-1.31,3.19,11.26,5.43,21.4,12.19,30,21.56a92.07,92.07,0,0,1,19.15,32.26,107.44,107.44,0,0,1,4.7,20.45C1353.43,963.75,1355.5,963.57,1355.5,962.25Z" transform="translate(-3.43 -269)"/><path class="cls-11" d="M1068.39,819c-4.5-2.81-10.33-3.75-15.4-5.25l-16.33-4.5c-11.08-3-22.16-5.81-33.24-8.25a91.32,91.32,0,0,0-16-2.81c-3.75-.19-9.2-.57-11.08,3.37-1.69,3.57.57,7.69,3.2,10.32,3,3.19,7.13,5.25,11.07,6.94,11.46,5.06,22.91,10.31,34.55,15,1.32.56,2.45-1.88,1.13-2.44-9.2-4.31-18.78-8.44-28.16-12.56a80.32,80.32,0,0,1-11.46-5.44c-3.19-1.88-7.51-5.25-7.32-9.19.19-4.69,9.76-2.63,12.58-2.25,4.88.75,9.76,1.87,14.65,3,9.76,2.25,19.53,4.69,29.1,7.31l16.34,4.5c5.25,1.5,10.88,3.75,16.33,3.94C1069,820.65,1069.14,819.53,1068.39,819Z" transform="translate(-3.43 -269)"/><path class="cls-11" d="M1033.65,834.53c-2.81-1.87-6.57-2.44-9.76-3.19-3.57-.94-7.33-1.68-10.89-2.44-7.14-1.5-14.46-2.81-21.78-4.31-7.51-1.31-32.11-7.13-30.8,7.5.57,6.57,7,10.13,12.58,12a1.36,1.36,0,0,0,1.13-2.44c-2.82-1.5-5.82-2.63-8.07-5.07-2.07-2.25-3.38-6.37-.57-8.62,2.44-2.07,6.57-1.88,9.58-1.69a93.5,93.5,0,0,1,12.39,1.5c7.7,1.31,15.4,2.81,22.91,4.31,3.76.75,7.7,1.5,11.45,2.44,3.57.75,7.71,2.25,11.46,2.06C1034.22,836.22,1034.6,835.09,1033.65,834.53Z" transform="translate(-3.43 -269)"/><path class="cls-11" d="M1031.22,858c-9.4-3.93-19.16-6.75-28.74-9.56-9.2-2.81-18.77-6.56-28.54-6.75-3.94,0-7.88.75-10.51,3.94a7.41,7.41,0,0,0,.18,9.75c2.63,3.19,6.95,4.5,10.52,6q7,2.82,14.08,5.06c10.52,3.38,21.22,6.57,32.11,9a1.07,1.07,0,0,0,.57-2.07c-16.34-5.25-33-9.37-48.83-16.5-3-1.31-8.45-3.94-6.57-8.25,1.69-3.75,6.76-3.75,10.14-3.38,8.64.56,17.09,3.94,25.35,6.38,9.77,3,19.34,6.37,29.29,8.25C1031.59,860,1032.53,858.54,1031.22,858Z" transform="translate(-3.43 -269)"/><path class="cls-11" d="M997.79,875.42a37.33,37.33,0,0,0-17.65-1.5c-3.57.56-10.7,1.12-11.27,6s6.39,8.06,10,9.94a72.85,72.85,0,0,0,15.59,5.44c11.64,2.62,23.66,2.81,35.49,4.12a103.74,103.74,0,0,1,18.4,3.75c5.82,1.69,11.45,3.94,17.09,6.19,12.58,4.88,26.29,9.57,40,7.32,1.51-.19,1.13-2.81-.37-2.63-11.46.94-22.16-1.87-32.86-5.81-10.14-3.75-20.09-8.07-30.79-10.5-20.66-4.51-43.38-1.32-62.35-11.63-2.06-1.13-5.44-2.63-6.57-4.69-1.5-2.63,5.07-3.38,6.38-3.75a60.53,60.53,0,0,1,18.41-.56C998.54,877.11,998.54,875.79,997.79,875.42Z" transform="translate(-3.43 -269)"/><path class="cls-11" d="M1107.45,911.43a36.81,36.81,0,0,0,1.69-4.88c.57-1.69.94-3.19,1.5-4.88.94-3.37,2.06-6.56,3.19-9.94.76-1.87-2.43-2.81-3-.93-1.12,3.18-2.25,6.56-3.19,9.94-.38,1.68-.94,3.37-1.31,4.87a23.38,23.38,0,0,0-.76,5.07C1105.57,911.8,1107.07,912.36,1107.45,911.43Z" transform="translate(-3.43 -269)"/><path class="cls-11" d="M918.55,799.83c-2.63-1.31-6.2.94-7.89,2.82a10.84,10.84,0,0,0-2.63,9.19c.94,6.37,7.7,10.12,13.71,10.12,4.51,0,8.64-1.5,12.77-3a1.07,1.07,0,0,0-.56-2.06c-6.39,1.69-14.84,4.13-20.28-1.12a7.81,7.81,0,0,1-1.88-8.82,7,7,0,0,1,2.82-3.38c1.31-.93,3-1.12,4.13-2.06A1.07,1.07,0,0,0,918.55,799.83Z" transform="translate(-3.43 -269)"/><path class="cls-11" d="M913.86,818.4c-1.13,1.69-1.32,4.13-1.32,6.19a14.82,14.82,0,0,0,.94,5.63,11.65,11.65,0,0,0,7.13,7.12c3.38,1.13,7.33.57,10.71-.75s6.76-3.18,8.82-6.19c2.44-3.18,2.82-7.87.19-11.06-.75-.94-2.25.19-1.69,1.31,1.88,3.57.19,7.69-2.63,10.13a17.47,17.47,0,0,1-10.14,4.31c-3.75.38-7.32-.93-9.2-4.31a12,12,0,0,1-1.5-5.63c0-2.06.75-4.31.37-6.37C915.54,817.84,914.23,817.84,913.86,818.4Z" transform="translate(-3.43 -269)"/><path class="cls-11" d="M917.61,833.59a9.83,9.83,0,0,0-1.69,9.57,13,13,0,0,0,7,7.5c6.38,2.81,15.58,2.06,19.9-4.13a9.28,9.28,0,0,0,0-10.87c-.94-1.13-2.63.37-2.06,1.5a7.72,7.72,0,0,1-1.69,9c-2.63,2.44-6.58,3.19-10.14,2.81-3.38-.37-7.14-1.87-9.2-4.69a9.21,9.21,0,0,1-.94-9.75C919.49,834,918.36,832.84,917.61,833.59Z" transform="translate(-3.43 -269)"/><path class="cls-11" d="M919.68,846.91a4.22,4.22,0,0,0-.57,2.06V851a9.81,9.81,0,0,0,.75,3.94,12.06,12.06,0,0,0,4.13,6,9.24,9.24,0,0,0,6.58,2.06,7.5,7.5,0,0,0,6-3.19c.75-1.13-.94-2.44-1.88-1.5a6,6,0,0,1-4.51,2.06,6.65,6.65,0,0,1-4.88-1.87,11.16,11.16,0,0,1-3.57-8.07v-1.69a6.92,6.92,0,0,0-.19-1.87A1,1,0,0,0,919.68,846.91Z" transform="translate(-3.43 -269)"/><path class="cls-11" d="M951.41,736.07a188.86,188.86,0,0,0-27.23,2.43c-4.5.57-9,1.32-13.52,2.07-2.81.56-6.57,1.87-6.38,5.44,0,3.19,3.75,4.12,6.19,4.87,4.32,1.13,8.83,2.07,13.15,2.82a257.55,257.55,0,0,0,26.85,3c18.21,1.12,36.43.75,54.64.18,9.2-.18,18.22-.56,27.42-1.5a101,101,0,0,0,13-1.87c4.14-.75,8.83-1.5,12.78-3.19,2.43-1.12,5.25-3.56,3.56-6.56-.75-1.5-2.44-2.07-4-2.44-2.25-.75-4.68-1.32-7.13-1.88a165.23,165.23,0,0,0-30.23-3.94c-1.31,0-1.31,2.07,0,2.25a176.46,176.46,0,0,1,24,3c3.75.75,7.51,1.68,11.07,2.62,1.13.38,5.26,1.13,3.76,3-.94,1.13-3.57,1.31-4.7,1.69-15.2,3.75-31,4.69-46.56,5.06-31.55.94-63.47,1.88-94.45-4.69-1.69-.37-4.13-.56-5.82-1.5-3-1.87,1.31-3.75,3.19-4.12,4.32-.75,8.64-1.5,13.14-2.06,9.2-1.32,18.22-1.88,27.42-3C952.72,737.94,952.72,736.07,951.41,736.07Z" transform="translate(-3.43 -269)"/><path class="cls-11" d="M1206,339.58c-5.63-1.12-12.2.19-17.83.75-6,.75-12,1.69-17.85,3-10.33,2.44-20.47,6.57-29.1,12.94a59.3,59.3,0,0,0-18.78,24.57c-4.31,10.32-6.39,21.2-8.82,31.89-2.82,12.19-6.58,24.38-14.84,33.94-1.31,1.5.94,3.57,2.07,2.07,14.27-16.32,15.59-39.2,21.78-59.08,3.19-10.32,8.07-20.07,16.34-27.38,7.5-6.94,17.08-11.45,26.85-14.45a137,137,0,0,1,19.71-4.12c3.57-.57,7.14-.94,10.7-1.32,3.38-.37,6.76-.56,10-1.68C1206.79,340.89,1207,339.77,1206,339.58Z" transform="translate(-3.43 -269)"/><path class="cls-11" d="M985.77,418.54c8.26,8.07,11.83,18.94,11.64,30.38-.18,13.13-5.44,25.51-10.32,37.33-5.26,12.38-10.71,24.57-12.4,38.07-1.5,12.38,1.69,23.82,6.58,35.07,4.69,10.88,10.14,22,10.32,34,.19,10.13-4.13,19.5-9.57,27.76-10.52,15.75-26.48,30.76-26.1,51.2.37,25.88,25.53,44.64,23.66,70.89a27.36,27.36,0,0,1-2.26,9.38c-.94,1.88,1.88,3.56,2.82,1.69,5.44-11.63,2.63-24.38-2.25-35.82-5.26-12-13.15-22.88-16.9-35.64-3.2-10.88-1.32-21.38,3.94-31.32,4.69-8.81,11.08-16.69,16.9-24.94,5.44-7.88,10.51-16.7,12-26.26,1.87-11.63-2.07-22.69-6.2-33.57-4.32-11.44-9.58-23.07-9.58-35.45,0-14.07,5.45-27.57,10.89-40.32,5.07-12,10.33-24.39,11.27-37.7.75-10.69-1.69-22.32-8.45-30.95a33.6,33.6,0,0,0-5.26-5.06C986,416.85,985,418,985.77,418.54Z" transform="translate(-3.43 -269)"/><path class="cls-11" d="M1004,755c6.57-9,8.07-20.44,7.88-31.51-.18-11.82-2.81-23.26-4.32-34.88s-2.06-23.82,2.07-35.08c3.38-9,9.77-16.31,16.34-23.07,13.14-13.31,28.35-26.07,30.79-46,1.51-11.81-1.13-23.63-1.69-35.26a56.23,56.23,0,0,1,1.31-17.63,50.79,50.79,0,0,1,7-15.19c6.75-10.5,16.14-19.13,23.09-29.44,7.13-10.51,12.58-23.07,9.77-36-.57-2.25-4-1.32-3.38.94,4.88,24-17.85,41.82-30.24,59.26-6.39,9-10.7,18.94-11.26,30-.57,11.63,2.06,23.07,2.25,34.7a46.75,46.75,0,0,1-8.45,28.5c-5.26,7.51-12.2,13.7-18.78,20.26-6.38,6.38-12.77,13.13-17.27,21.19-5.45,9.94-6.95,21.2-6.39,32.26.57,13.13,3.76,26.07,4.88,39.2,1.13,12.57.19,25.13-5.25,36.76A1,1,0,1,0,1004,755Z" transform="translate(-3.43 -269)"/><path class="cls-11" d="M854.52,439.55c10.89,1.31,19.53,8.81,23.85,18.75,5.44,12.19,4.13,26.26,3.38,39-.76,12.38-1.13,25.32,3.75,36.95,3.94,9.38,11.27,16.69,18.4,23.44,7.33,6.76,15,13.51,20.09,22.14,5.64,9.94,5.83,21.38,4,32.44-1.88,11.63-5.64,22.88-7,34.51a57.35,57.35,0,0,0,6.57,33.39c11.27,21.38,33.43,37.88,36.81,63a50.06,50.06,0,0,1,.18,9.19c-.18,2.07,2.82,1.88,3,0,2.44-26.07-19-45.39-31.92-65.26-6.76-10.32-11.46-21.39-11.27-34,.19-12,3.76-23.82,6.2-35.64,2.25-11.06,3.56-22.69-.75-33.57-3.76-9.56-10.9-17.07-18.22-24s-15.4-13.69-20.47-22.69c-6.38-11.25-6.38-24.38-5.82-36.95.75-13.31,2.07-27.38-2.63-40.32-3.56-9.38-10.89-18.19-20.84-21.19a16.93,16.93,0,0,0-7.51-.57C853.39,438.05,853.39,439.36,854.52,439.55Z" transform="translate(-3.43 -269)"/><path class="cls-11" d="M824.47,628.22a77.57,77.57,0,0,1,39.06,6,74.77,74.77,0,0,1,28.54,22.13,68.44,68.44,0,0,1,5.82,8.62c1.69,3,3,6,4.51,9,.75,1.5,3.38.56,2.82-1.13-1.69-5.81-5.45-11.44-8.83-16.32a82.07,82.07,0,0,0-12.95-13.87,75.19,75.19,0,0,0-47.14-17.26,59.89,59.89,0,0,0-11.64,1.31C823.35,626.72,823.54,628.22,824.47,628.22Z" transform="translate(-3.43 -269)"/><path class="cls-11" d="M1112.52,794.21A447.2,447.2,0,0,1,1192,824.4c7.13,3.57,14.27,7.51,21.21,11.26,1.88,1.12,3.57-1.88,1.69-3a318.27,318.27,0,0,0-38.48-19.13,376.13,376.13,0,0,0-39.82-14.82c-7.69-2.44-15.77-4.31-23.65-6.38C1111.77,792.14,1111.21,794,1112.52,794.21Z" transform="translate(-3.43 -269)"/><path class="cls-11" d="M1160.59,831.9A191.65,191.65,0,0,1,1183.31,842c3.57,1.88,7.14,3.75,10.52,5.82,3.56,2.06,6.94,4.69,10.51,6.56,1.69.94,3.75-1.31,2.25-2.81-3-2.81-6.95-4.69-10.51-6.75-3.76-2.07-7.51-4.13-11.45-6a210.67,210.67,0,0,0-23.48-9.18C1159.84,829.47,1159.46,831.34,1160.59,831.9Z" transform="translate(-3.43 -269)"/><path class="cls-11" d="M1243.4,763.07c-.19.94-.38,1.69-.56,2.63a14.29,14.29,0,0,0-.39,2.81,17.2,17.2,0,0,0-.37,3c0,.94-.37,2.25,0,3a1.84,1.84,0,0,0,1.5,1.32,1.43,1.43,0,0,0,1.69-.94c.56-.94.38-2.25.56-3.19v-3c0-1.88-.18-3.75-.18-5.81a1.21,1.21,0,0,0-1.12-1.13A1.37,1.37,0,0,0,1243.4,763.07Z" transform="translate(-3.43 -269)"/><path class="cls-11" d="M1241.89,789.33a46.45,46.45,0,0,0-.37,10.13,1.69,1.69,0,1,0,3.38,0,92.7,92.7,0,0,0-.37-10.13A1.34,1.34,0,0,0,1241.89,789.33Z" transform="translate(-3.43 -269)"/><path class="cls-11" d="M1242.65,812.77a16.22,16.22,0,0,1-.38,3.19,18,18,0,0,0-.19,3.19c0,2.06-.18,4.32,0,6.38a1.69,1.69,0,0,0,3.38,0c.19-2.06,0-4.32,0-6.38,0-1.12-.18-2.06-.18-3.19a20.54,20.54,0,0,1-.38-3.19A1.13,1.13,0,1,0,1242.65,812.77Z" transform="translate(-3.43 -269)"/><path class="cls-11" d="M1243.58,840.35a38.56,38.56,0,0,1,.19,4.68c0,.75.19,1.5.19,2.25,0,.38.18.75.18,1.13a3.08,3.08,0,0,0,.57,1.69,1.66,1.66,0,0,0,1.88.75,1.43,1.43,0,0,0,1.13-1.5,6,6,0,0,0-.2-2.63c-.18-.75-.18-1.5-.37-2.25-.37-1.5-.75-3-1.12-4.5C1245.65,838.66,1243.4,839,1243.58,840.35Z" transform="translate(-3.43 -269)"/><path class="cls-11" d="M1247.52,863.79v3.38a19.07,19.07,0,0,0,.2,3.37,21.57,21.57,0,0,0,.37,3.38,24.38,24.38,0,0,0,.56,3.56,1.92,1.92,0,0,0,3.76-.56,22.78,22.78,0,0,0-.38-3.57c-.18-1.12-.37-2.25-.56-3.37s-.37-2.25-.57-3.38-.56-2.25-.74-3.37C1249.6,862.1,1247.34,862.48,1247.52,863.79Z" transform="translate(-3.43 -269)"/><path class="cls-11" d="M1258.24,981.76v7.13a23.66,23.66,0,0,0,.18,3.56,12.27,12.27,0,0,0,.56,3.75,1.44,1.44,0,0,0,1.51,1.13c.74,0,1.5-.57,1.5-1.13a12.41,12.41,0,0,0,0-3.75c-.19-1.31-.37-2.63-.56-3.75s-.38-2.44-.57-3.57-.56-2.25-.75-3.56a1.08,1.08,0,0,0-1.13-1.12C1258.8,980.82,1258.24,981.2,1258.24,981.76Z" transform="translate(-3.43 -269)"/><path class="cls-11" d="M1258.61,1011.2a14.35,14.35,0,0,0-.37,2.82,15,15,0,0,0-.19,3v2.81a6.91,6.91,0,0,0,.37,3.38,1.6,1.6,0,0,0,2.81,0,6,6,0,0,0,.39-3.19v-3a13.93,13.93,0,0,0-.19-2.81,13.83,13.83,0,0,1-.38-3A1.25,1.25,0,0,0,1258.61,1011.2Z" transform="translate(-3.43 -269)"/><path class="cls-11" d="M1167.54,438.8c6.76-6.38,11.83-14.82,16.15-22.88a109.33,109.33,0,0,0,9.58-26.45c.37-1.69-2.26-2.44-2.64-.75a108.36,108.36,0,0,1-9.38,26.07c-4.14,8.25-9.58,15.38-15,22.69C1165.28,438.42,1166.79,439.55,1167.54,438.8Z" transform="translate(-3.43 -269)"/><path class="cls-11" d="M1182.37,388c-1.12,5.44-4.5,10.13-7.32,14.63a127.19,127.19,0,0,1-9.39,12.94,144.85,144.85,0,0,1-22.35,21.94c-1.5,1.13.57,3.57,1.88,2.44a138.83,138.83,0,0,0,23.66-23.25,134.6,134.6,0,0,0,9.39-13.51c2.82-4.69,5.45-9.56,5.82-15C1184.06,387.41,1182.56,387,1182.37,388Z" transform="translate(-3.43 -269)"/><path class="cls-11" d="M1165.28,398.66a139.67,139.67,0,0,1-20.47,26.45,135,135,0,0,1-12.2,11.06,58.87,58.87,0,0,1-6.95,5.06c-2.25,1.5-4.69,2.82-6.76,4.51-1.5,1.31.38,3.18,1.88,2.43a37.32,37.32,0,0,0,7.32-4.68c2.26-1.5,4.32-3.19,6.57-4.88a122.09,122.09,0,0,0,12.59-11.44,118.6,118.6,0,0,0,19.53-27.57C1167.35,398.47,1165.85,397.53,1165.28,398.66Z" transform="translate(-3.43 -269)"/><path class="cls-9" d="M1083.6,736.82a7.51,7.51,0,1,0-7.51-7.51A7.51,7.51,0,0,0,1083.6,736.82Z" transform="translate(-3.43 -269)"/><path class="cls-9" d="M1234.76,734.94a7.5,7.5,0,1,0-7.51-7.5A7.5,7.5,0,0,0,1234.76,734.94Z" transform="translate(-3.43 -269)"/></g></g><path class="cls-3" d="M1028,346c7.32,0,11.08-5.63,11.08-11.27a12.41,12.41,0,0,0-2.72-7.72,10.71,10.71,0,0,0-8.36-3.55c-7.31,0-11.07,5.64-11.07,11.27C1016.9,340.17,1020.66,346,1028,346Zm0-18.78c5,0,7.11,3.75,7.11,7.51a7.64,7.64,0,0,1-1.88,5.22,7,7,0,0,1-5.44,2.29c-5,0-7.1-3.75-7.1-7.51a7.66,7.66,0,0,1,1.88-5.22C1023.79,327.85,1025.67,327.23,1028,327.23Z" transform="translate(-3.43 -269)"/><path class="cls-3" d="M1031.94,386.08c7.32,0,11.08-5.63,11.08-11.27s-3.76-11.27-11.08-11.27-11.07,5.64-11.07,11.27C1020.87,380.24,1024.63,386.08,1031.94,386.08Zm0-18.78c5,0,7.11,3.75,7.11,7.51a7.64,7.64,0,0,1-1.88,5.22,7,7,0,0,1-5.44,2.29c-5,0-7.1-3.75-7.1-7.51S1026.93,367.3,1031.94,367.3Z" transform="translate(-3.43 -269)"/><path class="cls-3" d="M993.91,359c7.31,0,11.08-5.63,11.08-11.27s-3.77-11.27-11.08-11.27-11.08,5.64-11.08,11.27S986.59,359,993.91,359Zm0-18.78c5,0,7.1,3.75,7.1,7.51s-2.29,7.51-7.1,7.51c-5,0-7.11-3.75-7.11-7.51a7.64,7.64,0,0,1,1.88-5.22A6.23,6.23,0,0,1,993.91,340.17Z" transform="translate(-3.43 -269)"/><path class="cls-3" d="M998.71,322c7.32,0,11.08-5.64,11.08-11.27s-3.76-11.27-11.08-11.27-11.07,5.64-11.07,11.27S991.4,322,998.71,322Zm0-18.78c5,0,7.11,3.75,7.11,7.51a7.64,7.64,0,0,1-1.88,5.22,6.92,6.92,0,0,1-5.43,2.29c-5,0-7.11-3.75-7.11-7.51C991.61,307,993.7,303.23,998.71,303.23Z" transform="translate(-3.43 -269)"/><path class="cls-3" d="M1037.59,308.44c7.31,0,11.08-5.63,11.08-11.27s-3.77-11.26-11.08-11.26-11.08,5.63-11.08,11.26S1030.27,308.44,1037.59,308.44Zm0-18.78c5,0,7.1,3.76,7.1,7.51a7.64,7.64,0,0,1-1.88,5.22,6.92,6.92,0,0,1-5.43,2.3c-5,0-7.11-3.76-7.11-7.52S1032.57,289.66,1037.59,289.66Z" transform="translate(-3.43 -269)"/><path class="cls-3" d="M1062.88,332.44c7.31,0,11.08-5.63,11.08-11.27s-3.77-11.26-11.08-11.26-11.08,5.63-11.08,11.26S1055.57,332.44,1062.88,332.44Zm0-18.78c5,0,7.1,3.76,7.1,7.51s-2.29,7.52-7.1,7.52c-5,0-7.1-3.76-7.1-7.52a7.59,7.59,0,0,1,1.88-5.21A6.2,6.2,0,0,1,1062.88,313.66Z" transform="translate(-3.43 -269)"/><path class="cls-3" d="M1065,365.63c7.31,0,11.07-5.64,11.07-11.27s-3.76-11.27-11.07-11.27-11.08,5.63-11.08,11.27C1053.89,359.78,1057.86,365.63,1065,365.63Zm0-18.78c5,0,7.1,3.75,7.1,7.51s-2.29,7.51-7.1,7.51c-5,0-7.11-3.76-7.11-7.51a7.6,7.6,0,0,1,1.89-5.22C1060.79,347.47,1062.67,346.85,1065,346.85Z" transform="translate(-3.43 -269)"/><path class="cls-3" d="M1067.69,409c7.31,0,11.07-5.64,11.07-11.27a12.33,12.33,0,0,0-2.72-7.72,10.69,10.69,0,0,0-8.35-3.55c-7.32,0-11.08,5.63-11.08,11.27S1060.37,409,1067.69,409Zm0-18.78c5,0,7.1,3.75,7.1,7.51a7.66,7.66,0,0,1-1.88,5.22,6.92,6.92,0,0,1-5.43,2.29c-5,0-7.11-3.75-7.11-7.51S1062.67,390.26,1067.69,390.26Z" transform="translate(-3.43 -269)"/><path class="cls-3" d="M1023,419.47a8.82,8.82,0,0,0,4.18-1,9.39,9.39,0,0,0,3.55-2.3,8.76,8.76,0,0,0,2.3-3.75,7.21,7.21,0,0,0,.83-4.39v-.83a12.41,12.41,0,0,0-1.46-5.63l-1.67-2.09a12.41,12.41,0,0,0-5.22-3.13l-2.72-.42a9.15,9.15,0,0,0-4.81,1,9.51,9.51,0,0,0-3.55,2.3,8,8,0,0,0-2.3,3.55,11.13,11.13,0,0,0-1,4.38V408a12.48,12.48,0,0,0,1.46,5.64l1.67,2.09a12.55,12.55,0,0,0,5.23,3.13l2.71.41A1.59,1.59,0,0,0,1023,419.47Zm-.63-19.61h.21l2.3.41a6.33,6.33,0,0,1,3.13,1.88l1.26,1.67a6.92,6.92,0,0,1,.83,3.55v.83a5.89,5.89,0,0,1-.62,2.72,5.63,5.63,0,0,1-1.47,2.5,4.67,4.67,0,0,1-2.3,1.46,4.94,4.94,0,0,1-2.92.63l-2.3-.42a6.26,6.26,0,0,1-3.13-1.88l-1.26-1.67a6.8,6.8,0,0,1-.83-3.55v-.83a5.73,5.73,0,0,1,.62-2.71l.21-.21a5.41,5.41,0,0,1,1.47-2.3,4.76,4.76,0,0,1,2.29-1.46A5.57,5.57,0,0,1,1022.33,399.86Z" transform="translate(-3.43 -269)"/><path class="cls-3" d="M991.4,400.27c7.32,0,11.08-5.63,11.08-11.27a12.41,12.41,0,0,0-2.72-7.72,10.76,10.76,0,0,0-8.36-3.55c-7.31,0-11.08,5.64-11.08,11.27S984.09,400.27,991.4,400.27Zm0-18.78c5,0,7.11,3.76,7.11,7.51a7.6,7.6,0,0,1-1.89,5.22,6.92,6.92,0,0,1-5.43,2.3c-5,0-7.1-3.76-7.1-7.52S986.38,381.49,991.4,381.49Z" transform="translate(-3.43 -269)"/><path class="cls-3" d="M965.49,360.41c7.31,0,11.07-5.63,11.07-11.27s-3.76-11.27-11.07-11.27-11.08,5.64-11.08,11.27C954.62,354.57,958.38,360.41,965.49,360.41Zm0-18.78c5,0,7.1,3.75,7.1,7.51a7.64,7.64,0,0,1-1.88,5.22,6.93,6.93,0,0,1-5.43,2.29c-5,0-7.11-3.75-7.11-7.51C958.38,345.38,960.68,341.63,965.49,341.63Z" transform="translate(-3.43 -269)"/><path class="cls-3" d="M965.07,318.46c7.31,0,11.07-5.63,11.07-11.27s-3.76-11.27-11.07-11.27S954,301.56,954,307.19C954.2,312.83,958,318.46,965.07,318.46Zm0-18.78c5,0,7.1,3.76,7.1,7.51s-2.3,7.52-7.1,7.52c-5,0-7.11-3.76-7.11-7.52a7.66,7.66,0,0,1,1.88-5.22A6.82,6.82,0,0,1,965.07,299.68Z" transform="translate(-3.43 -269)"/><path class="cls-3" d="M1010,291.54c7.32,0,11.08-5.64,11.08-11.27a12.39,12.39,0,0,0-2.72-7.72A10.72,10.72,0,0,0,1010,269c-7.31,0-11.08,5.63-11.08,11.27C999.13,285.9,1002.89,291.54,1010,291.54Zm0-18.78c5,0,7.11,3.75,7.11,7.51a7.64,7.64,0,0,1-1.88,5.22,7,7,0,0,1-5.44,2.29c-5,0-7.1-3.75-7.1-7.51C1002.89,276.51,1005,272.76,1010,272.76Z" transform="translate(-3.43 -269)"/><path class="cls-3" d="M1068.94,296.34c7.31,0,11.08-5.63,11.08-11.27a12.41,12.41,0,0,0-2.72-7.72,10.72,10.72,0,0,0-8.36-3.55c-7.31,0-11.08,5.64-11.08,11.27S1061.63,296.34,1068.94,296.34Zm0-18.78c5,0,7.1,3.75,7.1,7.51a7.59,7.59,0,0,1-1.88,5.22,6.92,6.92,0,0,1-5.43,2.29c-5,0-7.1-3.75-7.1-7.51a7.61,7.61,0,0,1,1.88-5.22A6.92,6.92,0,0,1,1068.94,277.56Z" transform="translate(-3.43 -269)"/><path class="cls-3" d="M1090.25,342.46c7.32,0,11.08-5.63,11.08-11.27s-3.76-11.27-11.08-11.27-11.07,5.64-11.07,11.27S1083.15,342.46,1090.25,342.46Zm0-18.78c5,0,7.11,3.76,7.11,7.51s-2.3,7.52-7.11,7.52c-5,0-7.1-3.76-7.1-7.52A7.62,7.62,0,0,1,1085,326,6.2,6.2,0,0,1,1090.25,323.68Z" transform="translate(-3.43 -269)"/><path class="cls-3" d="M1094.64,383c7.32,0,11.08-5.63,11.08-11.27s-3.76-11.27-11.08-11.27-11.07,5.64-11.07,11.27S1087.33,383,1094.64,383Zm0-18.78c5,0,7.11,3.75,7.11,7.51s-2.3,7.51-7.11,7.51c-5,0-7.1-3.75-7.1-7.51a7.61,7.61,0,0,1,1.88-5.22A6.19,6.19,0,0,1,1094.64,364.17Z" transform="translate(-3.43 -269)"/></svg>