<?xml version="1.0" encoding="utf-8"?>
<!-- Generator: Adobe Illustrator 25.2.0, SVG Export Plug-In . SVG Version: 6.00 Build 0)  -->
<svg version="1.1" id="Layer_1" xmlns="http://www.w3.org/2000/svg" xmlns:xlink="http://www.w3.org/1999/xlink" x="0px" y="0px"
	 viewBox="0 0 531.5 166.4" style="enable-background:new 0 0 531.5 166.4;" xml:space="preserve">
<style type="text/css">
	.st0{fill:#FFFFFF;}
	.st1{clip-path:url(#SVGID_1_);fill:#FFFFFF;}
	.st2{fill:none;stroke:#FFFFFF;stroke-width:5;stroke-linejoin:round;stroke-miterlimit:10;}
</style>
<g>
	<path class="st0" d="M47.4,135.6c-1.1,0.6-2.2,1.2-3.4,1.7c-3.5,1.5-7.2,2.2-11,2.2c-3.8,0-7.5-0.7-11-2.2
		c-3.5-1.5-6.6-3.5-9.3-6.2c-2.7-2.7-4.8-5.8-6.2-9.3c-1.5-3.5-2.2-7.2-2.2-11s0.7-7.5,2.2-11c1.5-3.5,3.5-6.6,6.2-9.3
		s5.8-4.8,9.3-6.2c3.5-1.5,7.2-2.2,11-2.2c3.8,0,7.5,0.7,11,2.2c3.5,1.5,6.6,3.5,9.3,6.2s4.8,5.8,6.2,9.3c1.5,3.5,2.2,7.2,2.2,11
		v28.7H47.4V135.6z M33.1,96.4c-4,0-7.3,1.4-10.1,4.2c-2.8,2.8-4.2,6.2-4.2,10.1c0,4,1.4,7.3,4.2,10.1c2.8,2.8,6.2,4.2,10.1,4.2
		c4,0,7.3-1.4,10.1-4.2c2.8-2.8,4.2-6.2,4.2-10.1c0-4-1.4-7.3-4.2-10.1C40.4,97.8,37,96.4,33.1,96.4z"/>
	<path class="st0" d="M71.2,110.8V67.7h14.4v43.1c0,4,1.4,7.3,4.2,10.1c2.8,2.8,6.2,4.2,10.1,4.2v14.4c-3.8,0-7.5-0.7-11-2.2
		c-3.5-1.5-6.6-3.5-9.3-6.2c-2.7-2.7-4.8-5.8-6.2-9.3C71.9,118.3,71.2,114.6,71.2,110.8z"/>
	<path class="st0" d="M166.2,110.8V82.1h14.4v28.7c0,4,1.4,7.3,4.2,10.1c2.8,2.8,6.2,4.2,10.1,4.2c4,0,7.3-1.4,10.1-4.2
		c2.8-2.8,4.2-6.2,4.2-10.1V82.1h14.4v28.7c0,3.8-0.7,7.5-2.2,11c-1.5,3.5-3.5,6.6-6.2,9.3c-2.7,2.7-5.8,4.8-9.3,6.2
		c-3.5,1.5-7.2,2.2-11,2.2c-3.8,0-7.5-0.7-11-2.2c-3.5-1.5-6.6-3.5-9.3-6.2c-2.7-2.7-4.8-5.8-6.2-9.3
		C166.9,118.3,166.2,114.6,166.2,110.8z"/>
	<g>
		<defs>
			<path id="SVGID_22_" d="M105.1,93.4c0,0,1.4,8.2,9.1,13.6c0,0-1.4,6,1.6,10.5c0,0,4.7,8.2,13.4,7c0,0,7.5,0.2,11.9-8.2
				c0,0,2.4-4.6,0.7-10.3c0,0,6.9-5.1,8.2-14.2c0,0,3.8,4.7,4.9,8.3c0,0,2.1,5.4,1.9,11.8l0,16.1l0,36.2h-14.3V135
				c0,0-8,5.1-18.2,3.6s-16-7.7-17.1-9s-5-6.1-6.5-11.6c-1.4-5.5-1.4-8.5-0.4-13.9C101.1,98.7,105.1,93.4,105.1,93.4z"/>
		</defs>
		<use xlink:href="#SVGID_22_"  style="overflow:visible;fill:#FFFFFF;"/>
		<clipPath id="SVGID_1_">
			<use xlink:href="#SVGID_22_"  style="overflow:visible;"/>
		</clipPath>
		<path class="st1" d="M142.4,135c-1.1,0.6-2.2,1.2-3.3,1.7c-3.5,1.5-7.1,2.2-10.9,2.2c-3.8,0-7.4-0.7-10.9-2.2
			c-3.5-1.5-6.6-3.5-9.3-6.2c-2.7-2.7-4.7-5.8-6.2-9.3c-1.5-3.5-2.2-7.1-2.2-10.9c0-3.8,0.7-7.4,2.2-10.9c1.5-3.5,3.5-6.6,6.2-9.3
			c2.7-2.7,5.8-4.7,9.3-6.2c3.5-1.5,7.1-2.2,10.9-2.2c3.8,0,7.4,0.7,10.9,2.2c3.5,1.4,6.6,3.5,9.3,6.2c2.7,2.7,4.7,5.8,6.2,9.3
			c1.4,3.5,2.2,7.1,2.2,10.9v54h-14.3V135z M128.1,124.5c3.9,0,7.3-1.4,10.1-4.2c2.8-2.8,4.2-6.2,4.2-10.1s-1.4-7.3-4.2-10.1
			c-2.8-2.8-6.2-4.2-10.1-4.2c-3.9,0-7.3,1.4-10.1,4.2c-2.8,2.8-4.2,6.2-4.2,10.1s1.4,7.3,4.2,10.1
			C120.8,123.1,124.2,124.5,128.1,124.5z"/>
	</g>
	<path class="st0" d="M240.6,74.9c-2.5,0-4.6-0.9-6.3-2.6c-1.8-1.8-2.6-3.9-2.6-6.3s0.9-4.6,2.6-6.3c1.8-1.8,3.9-2.6,6.3-2.6
		c2.5,0,4.6,0.9,6.3,2.6c1.8,1.8,2.6,3.9,2.6,6.3s-0.9,4.6-2.6,6.3C245.1,74,243,74.9,240.6,74.9z M247.7,139.5h-14.4V82.1h14.4
		V139.5z"/>
	<path class="st0" d="M271.7,110.8v28.7h-14.4v-28.7c0-3.8,0.7-7.5,2.2-11c1.5-3.5,3.5-6.6,6.2-9.3s5.8-4.8,9.3-6.2
		c3.5-1.5,7.2-2.2,11-2.2c3.8,0,7.5,0.7,11,2.2c3.5,1.5,6.6,3.5,9.3,6.2c0.4,0.4,0.8,0.8,1.2,1.3c0.4-0.4,0.8-0.9,1.2-1.3
		c2.7-2.7,5.8-4.8,9.3-6.2c3.5-1.5,7.2-2.2,11-2.2s7.5,0.7,11,2.2c3.5,1.5,6.6,3.5,9.3,6.2s4.8,5.8,6.2,9.3c1.5,3.5,2.2,7.2,2.2,11
		v28.7h-14.4v-28.7c0-4-1.4-7.3-4.2-10.1c-2.8-2.8-6.2-4.2-10.1-4.2c-4,0-7.3,1.4-10.1,4.2c-2.8,2.8-4.2,6.2-4.2,10.1v28.7h-14.4
		v-28.7c0-4-1.4-7.3-4.2-10.1c-2.8-2.8-6.2-4.2-10.1-4.2c-4,0-7.3,1.4-10.1,4.2C273.1,103.4,271.7,106.8,271.7,110.8z"/>
	<path class="st0" d="M374.7,74.9c-2.5,0-4.6-0.9-6.3-2.6c-1.8-1.8-2.6-3.9-2.6-6.3s0.9-4.6,2.6-6.3c1.8-1.8,3.9-2.6,6.3-2.6
		c2.5,0,4.6,0.9,6.3,2.6c1.8,1.8,2.6,3.9,2.6,6.3s-0.9,4.6-2.6,6.3C379.3,74,377.2,74.9,374.7,74.9z M381.9,139.5h-14.4V82.1h14.4
		V139.5z"/>
	<path class="st0" d="M435.2,135.6c-1.1,0.6-2.2,1.2-3.4,1.7c-3.5,1.5-7.2,2.2-11,2.2c-3.8,0-7.5-0.7-11-2.2
		c-3.5-1.5-6.6-3.5-9.3-6.2c-2.7-2.7-4.8-5.8-6.2-9.3c-1.5-3.5-2.2-7.2-2.2-11s0.7-7.5,2.2-11c1.5-3.5,3.5-6.6,6.2-9.3
		s5.8-4.8,9.3-6.2c3.5-1.5,7.2-2.2,11-2.2c3.8,0,7.5,0.7,11,2.2c3.5,1.5,6.6,3.5,9.3,6.2c3.3,3.3,5.6,7.2,7.1,11.6
		c1,3,1.3,6.1,1.3,9.2l0,28.1h-14.4V135.6z M422,96.5c-4.9-0.3-8.9,1.3-12.2,5c-2,2.2-3.1,5.1-3.3,8.1c-0.3,4.9,1.3,8.9,5,12.2
		c2.2,2,5.1,3.1,8.1,3.3c4.9,0.3,8.9-1.3,12.2-5c2-2.2,3.1-5.1,3.3-8.1c0.3-4.9-1.3-8.9-5-12.2C427.8,97.9,425,96.7,422,96.5z"/>
	<path class="st0" d="M145,41.4c-0.6-0.2-1.8-0.2-2-0.2c-1,0-2.7,0.1-3.5,1c-10,11.2-23.6,20.1-29.3,34.5
		c-4.2,10.7-2.3,24.4,8.4,30.2c0,0.2-0.1,0.4-0.1,0.6c-0.1,0.5,4.3,0.8,5.5-0.3c0.1,0,0.2-0.1,0.3-0.1c10.8-0.3,20.5-7.5,24.2-17.9
		c5.5-15.4-0.2-31.6-1.2-47.2C147.3,41.5,146.2,41.4,145,41.4z M144.5,82.8c-1,6.2-3.3,12.3-7.8,16.8c-3.2,3.2-7.6,6-12.2,5.7
		c0.3-1.9,0.3-3.9,0.7-5.8c0.6-2.6,1.3-5,2.1-7.5c0.9-2.6,1.5-5.2,2.4-7.7c1-2.9,2.3-5.6,3.5-8.4c2.2-5.2,4.4-10.3,6.6-15.5
		c0.9-2.2,1.9-4.4,2.9-6.5C144.2,63.4,146,73.1,144.5,82.8z M134.2,60.5c-2.3,5.4-4.6,10.9-6.9,16.3c-2.1,4.9-3.8,9.8-5.4,14.9
		c-0.8,2.7-1.7,5.3-2.3,8c-0.2,0.8-0.3,1.6-0.4,2.4c-6.7-7.2-6.6-19.3-2.4-28c5.3-11.1,15-18.8,23.6-27.3
		C138.4,51.5,136.2,55.9,134.2,60.5z"/>
	<circle class="st0" cx="163.1" cy="22.4" r="3.8"/>
	<path class="st2" d="M435.4,136.4c70.3,3.1,90.5-25.7,91.7-53.5c1.1-23.3-25-55.4-61.2-62.4C390.8,6.1,289.3-0.3,192.2,13"/>
	<ellipse class="st0" cx="240.6" cy="65.9" rx="9" ry="9"/>
	<ellipse class="st0" cx="374.7" cy="65.9" rx="9.1" ry="9"/>
</g>
</svg>
