<?xml version="1.0" encoding="utf-8"?>
<!-- Generator: Adobe Illustrator 25.2.0, SVG Export Plug-In . SVG Version: 6.00 Build 0)  -->
<svg version="1.1" id="Layer_1" xmlns="http://www.w3.org/2000/svg" xmlns:xlink="http://www.w3.org/1999/xlink" x="0px" y="0px"
	 viewBox="0 0 531.5 166.4" style="enable-background:new 0 0 531.5 166.4;" xml:space="preserve">
<style type="text/css">
	.st0{fill:#9DC18C;}
	.st1{clip-path:url(#SVGID_1_);fill:#9DC18C;}
	.st2{fill:#E07857;}
	.st3{fill:none;stroke:#9DC18C;stroke-width:5;stroke-linejoin:round;stroke-miterlimit:10;}
</style>
<g>
	<path class="st0" d="M46.4,135.5c-1.1,0.6-2.2,1.2-3.4,1.7c-3.5,1.5-7.2,2.2-11,2.2c-3.8,0-7.5-0.7-11-2.2
		c-3.5-1.5-6.6-3.5-9.3-6.2c-2.7-2.7-4.8-5.8-6.2-9.3c-1.5-3.5-2.2-7.2-2.2-11s0.7-7.5,2.2-11c1.5-3.5,3.5-6.6,6.2-9.3
		c2.7-2.7,5.8-4.8,9.3-6.2c3.5-1.5,7.2-2.2,11-2.2c3.8,0,7.5,0.7,11,2.2c3.5,1.5,6.6,3.5,9.3,6.2c2.7,2.7,4.8,5.8,6.2,9.3
		c1.5,3.5,2.2,7.2,2.2,11v28.7H46.4V135.5z M32,96.3c-4,0-7.3,1.4-10.1,4.2c-2.8,2.8-4.2,6.2-4.2,10.1c0,4,1.4,7.3,4.2,10.1
		c2.8,2.8,6.2,4.2,10.1,4.2c4,0,7.3-1.4,10.1-4.2c2.8-2.8,4.2-6.2,4.2-10.1c0-4-1.4-7.3-4.2-10.1C39.4,97.7,36,96.3,32,96.3z"/>
	<path class="st0" d="M70.2,110.7v-43h14.3v43c0,4,1.4,7.3,4.2,10.1c2.8,2.8,6.2,4.2,10.1,4.2v14.3c-3.8,0-7.5-0.7-11-2.2
		c-3.5-1.5-6.6-3.5-9.3-6.2c-2.7-2.7-4.8-5.8-6.2-9.3C70.9,118.1,70.2,114.5,70.2,110.7z"/>
	<path class="st0" d="M165,110.7V82h14.3v28.7c0,4,1.4,7.3,4.2,10.1c2.8,2.8,6.2,4.2,10.1,4.2c4,0,7.3-1.4,10.1-4.2
		c2.8-2.8,4.2-6.2,4.2-10.1V82h14.3v28.7c0,3.8-0.7,7.5-2.2,11c-1.5,3.5-3.5,6.6-6.2,9.3c-2.7,2.7-5.8,4.8-9.3,6.2
		c-3.5,1.5-7.2,2.2-11,2.2s-7.5-0.7-11-2.2c-3.5-1.5-6.6-3.5-9.3-6.2c-2.7-2.7-4.8-5.8-6.2-9.3C165.7,118.1,165,114.5,165,110.7z"/>
	<g>
		<defs>
			<path id="SVGID_3_" d="M104,93.3c0,0,1.4,8.2,9.1,13.6c0,0-1.4,6,1.6,10.5c0,0,4.7,8.1,13.4,7c0,0,7.5,0.2,11.9-8.2
				c0,0,2.4-4.6,0.7-10.2c0,0,6.9-5.1,8.2-14.1c0,0,3.8,4.7,4.9,8.3c0,0,2.1,5.4,1.8,11.8l0,16l0,36.2h-14.3v-29.2
				c0,0-8,5.1-18.2,3.6s-16-7.7-17.1-9s-5-6.1-6.5-11.6c-1.4-5.5-1.3-8.5-0.4-13.9S104,93.3,104,93.3z"/>
		</defs>
		<clipPath id="SVGID_1_">
			<use xlink:href="#SVGID_3_"  style="overflow:visible;"/>
		</clipPath>
		<path class="st1" d="M141.3,134.8c-1.1,0.6-2.2,1.2-3.3,1.7c-3.5,1.4-7.1,2.2-10.9,2.2c-3.8,0-7.4-0.7-10.9-2.2
			c-3.5-1.4-6.6-3.5-9.3-6.2c-2.7-2.7-4.7-5.8-6.2-9.3c-1.4-3.5-2.2-7.1-2.2-10.9c0-3.8,0.7-7.4,2.2-10.9c1.4-3.5,3.5-6.6,6.2-9.3
			c2.7-2.7,5.8-4.7,9.3-6.2c3.5-1.4,7.1-2.2,10.9-2.2c3.8,0,7.4,0.7,10.9,2.2c3.5,1.4,6.6,3.5,9.3,6.2c2.7,2.7,4.7,5.8,6.2,9.3
			c1.4,3.5,2.2,7.1,2.2,10.9V164h-14.3V134.8z M127,124.4c3.9,0,7.3-1.4,10.1-4.2c2.8-2.8,4.2-6.1,4.2-10.1c0-3.9-1.4-7.3-4.2-10.1
			c-2.8-2.8-6.1-4.2-10.1-4.2c-3.9,0-7.3,1.4-10.1,4.2c-2.8,2.8-4.2,6.1-4.2,10.1c0,3.9,1.4,7.3,4.2,10.1
			C119.7,123,123.1,124.4,127,124.4z"/>
	</g>
	<path class="st0" d="M239.3,74.8c-2.5,0-4.6-0.9-6.3-2.6c-1.8-1.8-2.6-3.9-2.6-6.3s0.9-4.6,2.6-6.3c1.8-1.8,3.9-2.6,6.3-2.6
		c2.5,0,4.6,0.9,6.3,2.6c1.8,1.8,2.6,3.9,2.6,6.3s-0.9,4.6-2.6,6.3C243.9,74,241.8,74.8,239.3,74.8z M246.5,139.3h-14.3V82h14.3
		V139.3z"/>
	<path class="st0" d="M270.4,110.7v28.7h-14.3v-28.7c0-3.8,0.7-7.5,2.2-11c1.5-3.5,3.5-6.6,6.2-9.3c2.7-2.7,5.8-4.8,9.3-6.2
		c3.5-1.5,7.2-2.2,11-2.2c3.8,0,7.5,0.7,11,2.2c3.5,1.5,6.6,3.5,9.3,6.2c0.4,0.4,0.8,0.8,1.2,1.3c0.4-0.4,0.8-0.9,1.2-1.3
		c2.7-2.7,5.8-4.8,9.3-6.2c3.5-1.5,7.2-2.2,11-2.2c3.8,0,7.5,0.7,11,2.2c3.5,1.5,6.6,3.5,9.3,6.2c2.7,2.7,4.8,5.8,6.2,9.3
		c1.5,3.5,2.2,7.2,2.2,11v28.7h-14.3v-28.7c0-4-1.4-7.3-4.2-10.1c-2.8-2.8-6.2-4.2-10.1-4.2c-4,0-7.3,1.4-10.1,4.2
		c-2.8,2.8-4.2,6.2-4.2,10.1v28.7h-14.3v-28.7c0-4-1.4-7.3-4.2-10.1c-2.8-2.8-6.2-4.2-10.1-4.2c-4,0-7.3,1.4-10.1,4.2
		C271.8,103.3,270.4,106.7,270.4,110.7z"/>
	<path class="st0" d="M373.3,74.8c-2.5,0-4.6-0.9-6.3-2.6c-1.8-1.8-2.6-3.9-2.6-6.3s0.9-4.6,2.6-6.3c1.8-1.8,3.9-2.6,6.3-2.6
		c2.5,0,4.6,0.9,6.3,2.6c1.8,1.8,2.6,3.9,2.6,6.3s-0.9,4.6-2.6,6.3C377.9,74,375.8,74.8,373.3,74.8z M380.5,139.3h-14.3V82h14.3
		V139.3z"/>
	<path class="st0" d="M433.8,135.5c-1.1,0.6-2.2,1.2-3.4,1.7c-3.5,1.5-7.2,2.2-11,2.2c-3.8,0-7.5-0.7-11-2.2
		c-3.5-1.5-6.6-3.5-9.3-6.2c-2.7-2.7-4.8-5.8-6.2-9.3c-1.5-3.5-2.2-7.2-2.2-11s0.7-7.5,2.2-11c1.5-3.5,3.5-6.6,6.2-9.3
		c2.7-2.7,5.8-4.8,9.3-6.2c3.5-1.5,7.2-2.2,11-2.2c3.8,0,7.5,0.7,11,2.2c3.5,1.5,6.6,3.5,9.3,6.2c3.3,3.3,5.6,7.1,7.1,11.6
		c1,3,1.3,6.1,1.3,9.2l0,28.1h-14.3V135.5z M420.6,96.4c-4.9-0.3-8.9,1.3-12.2,5c-2,2.2-3.1,5.1-3.3,8.1c-0.3,4.9,1.3,8.9,5,12.2
		c2.2,2,5.1,3.1,8.1,3.3c4.9,0.3,8.9-1.3,12.2-5c2-2.2,3.1-5.1,3.3-8.1c0.3-4.9-1.3-8.9-5-12.2C426.4,97.8,423.6,96.6,420.6,96.4z"
		/>
	<path class="st2" d="M143.8,41.4c-0.6-0.2-1.8-0.2-2-0.2c-1,0-2.7,0.1-3.5,1c-10,11.2-23.6,20.1-29.3,34.5
		c-4.2,10.7-2.3,24.4,8.4,30.2c0,0.2-0.1,0.4-0.1,0.6c-0.1,0.5,4.3,0.8,5.5-0.3c0.1,0,0.2-0.1,0.3-0.1c10.8-0.3,20.5-7.5,24.2-17.9
		c5.5-15.4-0.2-31.6-1.2-47.2C146.1,41.5,145.1,41.3,143.8,41.4z M143.4,82.8c-1,6.2-3.3,12.2-7.8,16.7c-3.2,3.2-7.6,6-12.2,5.7
		c0.3-1.9,0.3-3.9,0.7-5.8c0.6-2.6,1.3-5,2.1-7.5c0.9-2.6,1.5-5.2,2.4-7.7c1-2.9,2.3-5.6,3.5-8.4c2.2-5.2,4.4-10.3,6.6-15.5
		c0.9-2.2,1.9-4.4,2.9-6.5C143.1,63.3,144.9,73,143.4,82.8z M133.1,60.5c-2.3,5.4-4.6,10.9-6.9,16.3c-2.1,4.9-3.8,9.8-5.4,14.9
		c-0.8,2.6-1.7,5.2-2.3,8c-0.2,0.8-0.3,1.6-0.4,2.4c-6.7-7.1-6.5-19.3-2.4-27.9c5.3-11.1,15-18.8,23.6-27.3
		C137.3,51.5,135.1,55.9,133.1,60.5z"/>
	<circle class="st2" cx="161.9" cy="22.4" r="3.8"/>
	<path class="st3" d="M434,137.1c77.2,10.6,91-33.6,91.6-54.2c1-36-25-55.4-61.2-62.3C389.5,6.1,288-0.3,191,13"/>
	<ellipse class="st2" cx="239.4" cy="65.9" rx="9" ry="9"/>
	<ellipse class="st2" cx="373.3" cy="65.9" rx="9.1" ry="9"/>
</g>
</svg>
