<?xml version="1.0" encoding="utf-8"?>
<!-- Generator: Adobe Illustrator 25.2.0, SVG Export Plug-In . SVG Version: 6.00 Build 0)  -->
<svg version="1.1" id="Layer_1" xmlns="http://www.w3.org/2000/svg" xmlns:xlink="http://www.w3.org/1999/xlink" x="0px" y="0px"
	 viewBox="0 0 500 500" style="enable-background:new 0 0 500 500;" xml:space="preserve">
<style type="text/css">
	.st0{clip-path:url(#SVGID_2_);}
	.st1{fill:#92A242;}
	.st2{fill:#F7E3C7;}
	.st3{fill:#FBB244;}
	.st4{fill:#FFFFFF;}
	.st5{fill:#70BF68;}
	.st6{fill:#D5EA59;}
	.st7{fill:#2D854D;}
	.st8{fill:#1C6439;}
	.st9{fill:none;stroke:#222222;stroke-width:0.5;stroke-miterlimit:10;}
	.st10{fill:#85CC90;}
	.st11{fill:none;stroke:#162C29;stroke-miterlimit:10;}
	.st12{fill:#FCC467;}
	.st13{fill:#EE7E3C;}
	.st14{fill:none;stroke:#15302B;stroke-width:0.5;stroke-linecap:round;stroke-linejoin:round;stroke-miterlimit:10;}
	.st15{fill:#E55F78;}
	.st16{fill:none;stroke:#222222;stroke-width:0.75;stroke-linecap:round;stroke-linejoin:round;stroke-miterlimit:10;}
	.st17{fill:#FFFCEE;}
	.st18{fill:#302E2E;}
	.st19{fill:#222222;}
	.st20{fill:#F47365;}
	.st21{fill:#F43D4F;}
	.st22{opacity:0.5;fill:#F43D4F;enable-background:new    ;}
	.st23{fill:#FFB674;}
	.st24{fill:none;stroke:#222222;stroke-width:0.5;stroke-linecap:round;stroke-linejoin:round;stroke-miterlimit:10;}
	.st25{fill:none;stroke:#222222;stroke-width:2;stroke-miterlimit:10;}
	.st26{fill:#333333;}
	.st27{fill:#893E29;}
	.st28{clip-path:url(#SVGID_4_);}
	.st29{fill:none;stroke:#222222;stroke-linecap:round;stroke-linejoin:round;stroke-miterlimit:10;}
	.st30{opacity:0.3;fill:#FFFFFF;enable-background:new    ;}
</style>
<g>
	<defs>
		<rect id="SVGID_1_" x="24.4" y="329.4" width="126.8" height="126.1"/>
	</defs>
	<clipPath id="SVGID_2_">
		<use xlink:href="#SVGID_1_"  style="overflow:visible;"/>
	</clipPath>
	<g class="st0">
		<path class="st1" d="M89.4,393.4c-5.6,0-8.6-4.4-8.6-9c0-2.4,0.8-4.4,2.2-6.2c1.6-1.8,3.8-2.8,6.6-2.8c2.6,0,5,1,6.6,2.8
			c1.4,1.6,2.2,3.8,2.2,6.2C98.2,388.8,95.2,393.4,89.4,393.4z M89.4,377.5c-4.6,0-6.8,3.6-6.8,7c0,3.4,2.2,7,6.8,7
			c4.6,0,6.8-3.6,6.8-7C96.2,381,94.2,377.5,89.4,377.5z"/>
		<path class="st1" d="M86.2,427.3c-5.6,0-8.6-4.4-8.6-9c0-2.4,0.8-4.4,2.2-6.2c1.6-1.8,3.8-2.8,6.6-2.8c2.6,0,5,1,6.6,2.8
			c1.4,1.6,2.2,3.8,2.2,6.2C94.8,422.7,91.8,427.3,86.2,427.3z M86.2,411.3c-4.6,0-6.8,3.6-6.8,7s2.2,7,6.8,7c4.6,0,6.8-3.6,6.8-7
			S90.8,411.3,86.2,411.3z"/>
		<path class="st1" d="M118.3,404.4c-5.6,0-8.6-4.4-8.6-9c0-2.4,0.8-4.4,2.2-6.2c1.6-1.8,3.8-2.8,6.6-2.8c2.6,0,5,1,6.6,2.8
			c1.4,1.6,2.2,3.8,2.2,6.2C126.9,400,123.9,404.4,118.3,404.4z M118.3,388.4c-4.6,0-6.8,3.6-6.8,7s2.2,7,6.8,7c4.6,0,6.8-3.6,6.8-7
			C124.9,392.2,122.9,388.4,118.3,388.4z"/>
		<path class="st1" d="M114.2,373.1c-5.6,0-8.6-4.4-8.6-9c0-2.4,0.8-4.4,2.2-6.2c1.6-1.8,3.8-2.8,6.6-2.8c2.6,0,5,1,6.6,2.8
			c1.4,1.6,2.2,3.8,2.2,6.2C122.9,368.5,119.9,373.1,114.2,373.1z M114.2,357.1c-4.6,0-6.8,3.6-6.8,7c0,3.4,2.2,7,6.8,7
			c4.6,0,6.8-3.6,6.8-7C120.9,360.7,118.9,357.1,114.2,357.1z"/>
		<path class="st1" d="M81.4,361.7c-5.6,0-8.6-4.4-8.6-9c0-2.4,0.8-4.4,2.2-6.2c1.6-1.8,3.8-2.8,6.6-2.8c2.6,0,5,1,6.6,2.8
			c1.4,1.6,2.2,3.8,2.2,6.2C90,357.1,87,361.7,81.4,361.7z M81.4,345.8c-4.6,0-6.8,3.6-6.8,7c0,3.4,2.2,7,6.8,7s6.8-3.6,6.8-7
			C88,349.4,86,345.8,81.4,345.8z"/>
		<path class="st1" d="M59.9,381.8c-5.6,0-8.6-4.4-8.6-9c0-2.4,0.8-4.4,2.2-6.2c1.6-1.8,3.8-2.8,6.6-2.8c2.6,0,5,1,6.6,2.8
			c1.4,1.6,2.2,3.8,2.2,6.2C68.7,377.5,65.7,381.8,59.9,381.8z M59.9,365.9c-4.6,0-6.8,3.6-6.8,7c0,3.4,2.2,7,6.8,7
			c4.6,0,6.8-3.6,6.8-7C66.7,369.7,64.7,365.9,59.9,365.9z"/>
		<path class="st1" d="M58.1,409.9c-5.6,0-8.6-4.4-8.6-9c0-2.4,0.8-4.4,2.2-6.2c1.6-1.8,3.8-2.8,6.6-2.8c2.6,0,5,1,6.6,2.8
			c1.4,1.6,2.2,3.8,2.2,6.2C66.9,405.4,63.9,409.9,58.1,409.9z M58.1,394c-4.6,0-6.8,3.6-6.8,7c0,3.4,2.2,7,6.8,7s6.8-3.6,6.8-7
			C64.9,397.6,62.7,394,58.1,394z"/>
		<path class="st1" d="M55.9,446.8c-5.6,0-8.6-4.4-8.6-9c0-2.4,0.8-4.4,2.2-6.2c1.6-1.8,3.8-2.8,6.6-2.8c2.6,0,5,1,6.6,2.8
			c1.4,1.6,2.2,3.8,2.2,6.2C64.5,442.2,61.7,446.8,55.9,446.8z M55.9,430.9c-4.6,0-6.8,3.6-6.8,7c0,3.4,2.2,7,6.8,7
			c4.6,0,6.8-3.6,6.8-7C62.7,434.4,60.5,430.9,55.9,430.9z"/>
		<path class="st1" d="M93.8,455.6c-1.2,0-2.4-0.2-3.4-0.8c-1-0.4-2-1-2.8-1.8c-0.8-0.8-1.4-1.8-1.8-3c-0.6-1-0.8-2.2-0.8-3.4v-0.8
			c0-1.6,0.4-3.2,1.2-4.6l1.4-1.8c1.2-1.2,2.6-2,4-2.4l2.2-0.4c1.4,0,2.6,0.2,3.6,0.8c1,0.4,2,1,2.8,1.8s1.4,1.8,1.8,2.8
			c0.6,1,0.8,2.2,0.8,3.4v0.8c0,1.6-0.4,3.2-1.2,4.6l-1.2,2.2c-1.2,1.2-2.6,2-4,2.4l-2.2,0.4C94,455.6,93.8,455.6,93.8,455.6z
			 M94.2,439H94l-2,0.2c-1,0.4-2,1-3,1.8l-1.2,1.6c-0.6,1-0.8,2.2-0.8,3.4v0.8c0,1,0.2,1.8,0.6,2.6c0.4,1,0.8,1.6,1.4,2.4
			c0.6,0.8,1.4,1.2,2.2,1.4c1,0.4,1.8,0.6,2.8,0.6l2-0.2c1-0.4,2-1,3-1.8l1.2-1.6c0.6-1,0.8-2.2,0.8-3.4V446c0-1-0.2-1.8-0.6-2.6
			v-0.2c-0.2-0.8-0.8-1.6-1.4-2.2c-0.6-0.8-1.4-1.2-2.2-1.4C95.8,439.2,95,439,94.2,439z"/>
		<path class="st1" d="M120.5,439.4c-5.6,0-8.6-4.4-8.6-9c0-2.4,0.8-4.4,2.2-6.2c1.6-1.8,3.8-2.8,6.6-2.8c2.6,0,5,1,6.6,2.8
			c1.4,1.6,2.2,3.8,2.2,6.2C129.1,434.8,126.1,439.4,120.5,439.4z M120.5,423.5c-4.6,0-6.8,3.6-6.8,7c0,3.4,2.2,7,6.8,7
			c4.6,0,6.8-3.6,6.8-7C127.3,427.1,125.1,423.5,120.5,423.5z"/>
		<path class="st1" d="M142.3,405.6c-5.6,0-8.6-4.4-8.6-9c0-2.4,0.8-4.4,2.2-6.2c1.6-1.8,3.8-2.8,6.6-2.8c2.6,0,5,1,6.6,2.8
			c1.4,1.6,2.2,3.8,2.2,6.2C150.8,401,147.9,405.6,142.3,405.6z M142.3,389.6c-4.6,0-6.8,3.6-6.8,7c0,3.4,2.2,7,6.8,7s6.8-3.6,6.8-7
			C149,393.2,146.9,389.6,142.3,389.6z"/>
		<path class="st1" d="M142.7,370.1c-5.6,0-8.6-4.4-8.6-9c0-2.4,0.8-4.4,2.2-6.2c1.6-1.8,3.8-2.8,6.6-2.8c2.6,0,5,1,6.6,2.8
			c1.4,1.6,2.2,3.8,2.2,6.2C151.2,365.7,148.3,370.1,142.7,370.1z M142.7,354.1c-4.6,0-6.8,3.6-6.8,7c0,3.4,2.2,7,6.8,7
			c4.6,0,6.8-3.6,6.8-7C149.4,357.7,147.3,354.1,142.7,354.1z"/>
		<path class="st1" d="M104.6,347.2c-5.6,0-8.6-4.4-8.6-9c0-2.4,0.8-4.4,2.2-6.2c1.6-1.6,3.8-2.6,6.4-2.6c2.6,0,5,1,6.6,2.8
			c1.4,1.6,2.2,3.8,2.2,6.2C113.4,342.8,110.4,347.2,104.6,347.2z M104.6,331.4c-4.6,0-6.8,3.6-6.8,7c0,3.4,2.2,7,6.8,7
			c4.6,0,6.8-3.6,6.8-7C111.4,335,109.2,331.4,104.6,331.4z"/>
		<path class="st1" d="M54.9,351.4c-5.6,0-8.6-4.4-8.6-9c0-2.4,0.8-4.4,2.2-6.2c1.4-1.8,3.6-2.8,6.4-2.8c2.6,0,5,1,6.6,2.8
			c1.4,1.6,2.2,3.8,2.2,6.2C63.5,346.8,60.5,351.4,54.9,351.4z M54.9,335.4c-4.6,0-6.8,3.6-6.8,7c0,3.4,2.2,7,6.8,7s6.8-3.6,6.8-7
			C61.5,339,59.5,335.4,54.9,335.4z"/>
		<path class="st1" d="M36.8,390.4c-5.6,0-8.6-4.4-8.6-9c0-2.4,0.8-4.4,2.2-6.2c1.6-1.8,3.8-2.8,6.6-2.8c2.6,0,5,1,6.6,2.8
			c1.4,1.6,2.2,3.8,2.2,6.2C45.4,385.8,42.4,390.4,36.8,390.4z M36.8,374.5c-4.6,0-6.8,3.6-6.8,7c0,3.4,2.2,7,6.8,7
			c4.6,0,6.8-3.6,6.8-7C43.6,378.1,41.4,374.5,36.8,374.5z"/>
		<path class="st1" d="M33,424.7c-5.6,0-8.6-4.4-8.6-9c0-4.4,3-9,8.6-9c2.6,0,5,1,6.6,2.8c1.4,1.6,2.2,3.8,2.2,6.2
			C41.8,420.1,38.8,424.7,33,424.7z M33,408.7c-4.6,0-6.6,3.6-6.6,7c0,1.8,0.6,3.6,1.6,4.8c1.2,1.4,3,2.2,5,2.2c4.6,0,6.8-3.6,6.8-7
			C39.8,412.3,37.8,408.7,33,408.7z"/>
	</g>
</g>
<g id="BACKGROUND">
</g>
<g id="OBJECTS">
	<g>
		<g>
			<g>
				<g>
					<path class="st2" d="M120.3,347.5c83.5,71.7,194.3,66.4,264.2-30.7c69.9-97.2,1.3-221.9-94.3-238.4s-188.8,1.6-212.5,96
						C54,268.7,86.7,318.7,120.3,347.5z"/>
				</g>
			</g>
		</g>
		<g>
			<path class="st3" d="M198.3,101.3c6,5.1,13.9,4.8,18.9-2.2s0.1-15.9-6.8-17.1c-6.8-1.2-13.5,0.1-15.2,6.9
				C193.5,95.6,195.9,99.2,198.3,101.3z"/>
			<path class="st4" d="M102.9,113.3h46.4c0,0-6.4-4.9-13.9-5.6c-7.4-0.7-8.7-10.5-14.5-8.5c-11.9,4.2-11.4-9-22.2,0
				c-5.9,4.9-18.4,7.1-18.4,14.1H102.9z"/>
			<path class="st4" d="M244.5,140.5H105.1c0,0,20.5-13.3,38-12s23.2-23.3,39.5-13.3S243,117.2,244.5,140.5z"/>
			<path class="st4" d="M203,183.2h45.1c0,0-6-5.2-12.5-5.2c-6.4,0-4.7-7.5-12.9-7.5s-9.9,6.4-9.9,6.4S203,178,203,183.2z"/>
		</g>
	</g>
	<g>
		<g>
			<g>
				<path class="st5" d="M305.2,334c-1.1-2.8-2.3-5.7-3.5-8.5c-33.1-43.8-86.4-92.1-104.9-108c-2.5,0.1-5,0.3-7.6,0.7
					C204.9,232.4,273.2,294.6,305.2,334z"/>
				<path class="st5" d="M234.9,288.6c-21.8-16.8,37.3,43.6,56.6,74.8c7.9,12.7,14.3,24,18.2,32.7h15.1c-2.5-2.7-5.4-6.5-8.6-11.3
					C299.3,359.8,256.7,305.4,234.9,288.6z"/>
				<path class="st6" d="M301.7,325.5c-21.1-50.6-56.2-109.6-104.9-108C215.3,233.4,268.6,281.7,301.7,325.5z"/>
				<path class="st6" d="M310.6,348.4c-1.7-4.6-3.5-9.5-5.4-14.4c-32-39.4-100.2-101.7-115.9-115.8c-1.6,0.3-3.2,0.6-4.9,1
					C202.7,238.8,285,326.2,310.6,348.4z"/>
				<path class="st6" d="M318.2,371.2c-27.5-36-125.6-131.9-125.6-131.9c-6.8,4.1,37.6,43.3,26.7,39.7c-10.9-3.6,20.8,29,47.1,64.7
					c14.5,19.6,21.2,38.8,26.6,52.4h16.5c-3.8-8.7-10.2-20-18.2-32.7c-19.3-31.1-78.4-91.6-56.6-74.8s64.4,71.2,81.3,96.2
					c3.2,4.8,6.1,8.5,8.6,11.3h0.6C325.3,396.1,322.9,386.3,318.2,371.2z"/>
			</g>
			<path class="st5" d="M82.5,350.9c-8.4,25.9-12,45.2-12,45.2H134C126.6,387.6,110.9,372.1,82.5,350.9z"/>
			<path class="st5" d="M155,379.1c-2.4-7.9-32.3-39.2-63.2-54.2c-0.3,0.9-0.7,1.7-1,2.6c8.8,3.6,18.1,9.1,26.2,16.6
				C149.1,373.4,157.5,387.3,155,379.1z"/>
			<path class="st6" d="M93.7,320.3c-0.6,1.5-1.3,3.1-1.9,4.6c30.9,14.9,60.9,46.3,63.2,54.2c2.5,8.2-6-5.7-38-35.1
				c-8.1-7.4-17.5-13-26.2-16.6c-3.2,8.2-6,16.1-8.3,23.4c28.5,21.1,44.1,36.7,51.6,45.2h35.3C148.1,343,109.4,326,93.7,320.3z"/>
			<g>
				<path class="st5" d="M266.5,343.7c-26.4-35.8-58-68.3-47.1-64.7c10.9,3.6-33.5-35.7-26.7-39.7c0,0,98,95.9,125.6,131.9
					c-2.1-6.7-4.6-14.4-7.6-22.8c-25.7-22.2-108-109.6-126.3-129.2c-1.7,0.4-3.5,0.9-5.2,1.5c-41,13.2-68.4,58.4-85.4,99.6
					c15.7,5.7,54.4,22.7,75.6,75.8h115.8c-13.6-20.1-63.8-94.9-40-68.3c21.9,24.4,36.3,56.3,41.3,68.3h6.8
					C287.8,382.5,281,363.3,266.5,343.7z"/>
				<path class="st6" d="M285.1,396.1h1.3c-5-12-19.5-44-41.3-68.3C221.2,301.2,271.5,376,285.1,396.1z"/>
			</g>
			<g>
				<g>
					<path class="st7" d="M150.7,148.3c-7.2,9.6-12.9,29.4-16.2,60.7c-5.4,52.1,7.5,98.9,21.6,96.3c13.8-2.6,10.2-63,13.4-100
						C153,189.5,151,158.1,150.7,148.3z"/>
					<path class="st8" d="M166.7,142.1c-5.7-2.1-11.2-0.2-15.9,6.2c0.2,9.8,2.3,41.2,18.9,57c0.1-1,0.2-1.9,0.3-2.9
						C173.6,165.7,178.2,146.4,166.7,142.1z"/>
				</g>
				<path class="st9" d="M166.7,142.1c0,0,18.7-7.2,19.7,25.9c1.1,33.1-6.6,93.5-6.6,93.5"/>
				<path class="st9" d="M164.3,141.4c0,0-11.6,2.6-16.2,48c-4.3,42.2,6.3,115.9,6.3,115.9"/>
			</g>
			<g>
				<g>
					<path class="st7" d="M180,213.3c-7.2,9.6-12.9,29.4-16.2,60.7c-5.4,52.1,7.5,98.9,21.6,96.3c13.8-2.6,10.2-63,13.4-100
						C182.3,254.5,180.3,223.1,180,213.3z"/>
					<path class="st8" d="M196,207.1c-5.7-2.1-11.2-0.2-15.9,6.2c0.2,9.8,2.3,41.2,18.9,57c0.1-1,0.2-1.9,0.3-2.9
						C202.9,230.7,207.5,211.4,196,207.1z"/>
				</g>
				<path class="st9" d="M196,207.1c0,0,18.7-7.2,19.7,25.9s-2.5,54.1-2.5,54.1"/>
				<path class="st9" d="M193.6,206.4c0,0-11.6,2.6-16.2,48c-4.3,42.2,6.3,115.9,6.3,115.9"/>
			</g>
		</g>
		<g>
			<g>
				<path class="st10" d="M145.6,396.1c0,0-12.2-72.1-41.7-118.3c-11.8-18.5-17.5-22.5-26.7-19.6c-12,3.8-2.4,22.9,7.6,46.6
					c8.8,20.9,29,91.2,29,91.2h31.8V396.1z"/>
				<path class="st9" d="M77.3,258.3c0,0,17.7,20.6,35.1,68.9c17.3,48.3,22.9,68.9,22.9,68.9"/>
			</g>
			<g>
				<path class="st10" d="M168,396.1c0,0-3.9-59.4-2.1-81.8c1.8-22.4-0.4-40.5-20.2-23.9c-19.9,16.6-5.1,105.7-5.1,105.7L168,396.1
					L168,396.1z"/>
				<path class="st9" d="M158.4,283.9c0,0-9.4,10.9-11.2,57.7c-1.6,41.7,0,54.5,0,54.5"/>
			</g>
			<g>
				<path class="st10" d="M88.6,396.1c0,0-12.4-35.6-33-67.9s9.4-35.5,24-16c14.6,19.4,38.3,83.9,38.3,83.9H88.6z"/>
				<path class="st9" d="M52.2,301.9c0,0,14.9,2.2,31,36.8s23,57.4,23,57.4"/>
			</g>
			<g>
				<g>
					<g>
						<path class="st11" d="M74.9,301.5c0,0-2.4,0.6-2.4,1.5s6.2,1.5,6,1.4c-0.1-0.1-6.5,2.4-5.6,4.7c0.9,2.3,9.8-2.8,9.8-2.8
							s5.8,8.4,8.1,7.6c2.3-0.9-2.2-6.5-2.2-6.5s4.4,3.5,5.4,2.4s-0.7-2.9-0.7-2.9"/>
						<path class="st12" d="M109.9,290.4c-2.1,11-13.2,18.8-24.6,16.5c-11.4-2.2-18.7-13.6-16.6-24.6s13.1-18,24.5-15.8
							C104.6,268.8,112.1,279.5,109.9,290.4z"/>
						<path class="st13" d="M84.3,292.2c-5.1-1-10.1-0.1-14.3,2.1c2.6,6.2,8.2,11.2,15.3,12.6c5.1,1,10.2,0,14.4-2.5
							C97.1,298.4,91.5,293.6,84.3,292.2z"/>
						<path class="st11" d="M72.4,274.2c0,0,4.4,1.6,5,10c0,0,3.1-6.5,9.7-4.3s4,9.6,4,9.6s9-8.6,19.1-1.5"/>
						<line class="st11" x1="91.1" y1="289.5" x2="85.3" y2="307"/>
						<line class="st11" x1="77.4" y1="284.2" x2="77.5" y2="303.7"/>
						<line class="st14" x1="82.8" y1="274.2" x2="82.9" y2="279.6"/>
						<line class="st14" x1="89.1" y1="274" x2="87.4" y2="280"/>
						<line class="st14" x1="94.9" y1="279" x2="91.1" y2="289.5"/>
						<path class="st15" d="M84.5,273.2c0.3,0.9-0.2,2-1.1,2.3s-2-0.2-2.3-1.1s0.2-2,1.1-2.3C83.2,271.8,84.2,272.3,84.5,273.2z"/>
						<path class="st15" d="M90.8,273.4c0.3,0.9-0.2,2-1.1,2.3s-2-0.2-2.3-1.1s0.2-2,1.1-2.3C89.4,271.9,90.5,272.4,90.8,273.4z"/>
						<path class="st15" d="M96.8,278.3c0.4,1.1-0.2,2.3-1.3,2.6c-1.1,0.4-2.3-0.2-2.6-1.3c-0.4-1.1,0.2-2.3,1.3-2.6
							C95.3,276.6,96.5,277.2,96.8,278.3z"/>
					</g>
				</g>
				<path class="st11" d="M82.8,306.3c0,0-5.1,17.6-8,44c-2,18.5-2.2,45.7-2.2,45.7"/>
			</g>
		</g>
	</g>
	<g>
		<g>
			<g>
				<g>
					<path class="st12" d="M272.3,245.5c-2-13-2.8-23.5-2.8-31.8c0-17.5,14.5-32,32.7-32.7c37.5-1.4,86.1,0.2,86.1,0.2
						s-15.8,8.6-6.8,46.9c9,38.4,32,168,32,168l-99.7-9.6c-10.1-1-18.2-8.1-19.9-17.6C288.7,340.9,278,282.5,272.3,245.5z"/>
					<path class="st13" d="M388.3,181.2c29.6,2.8,40.6,46.4,52.6,134.4s-27.4,80.5-27.4,80.5s-23-129.6-32-168
						S388.3,181.2,388.3,181.2z"/>
					<line class="st16" x1="419.2" y1="211" x2="379.9" y2="219.7"/>
					<line class="st16" x1="416.9" y1="205.9" x2="379.2" y2="214.4"/>
					<path class="st16" d="M364.7,180.6c0,0-13.3,4-6.1,41.9c7.2,37.9,32.7,171.5,32.7,171.5"/>
					<path class="st16" d="M347.3,180.4c0,0-12.4,4.1-7.8,40.2s30.9,171.3,30.9,171.3"/>
				</g>
				<g>
					<path class="st17" d="M384.2,216.8c-49.1-17.2-105.7-6.6-105.7-6.6L226.3,386l-0.3,10.1h183
						C404.4,281.7,384.2,216.8,384.2,216.8z"/>
				</g>
				<g>
					<path class="st18" d="M362.7,99c0,0,2.5-15.3-7.5-17.8S336,92.8,336,92.8s3.4-13.9-12-24.2c-8.4-5.6-18.6-1.6-26.1,3.2
						c-5.6-3.3-14.2-6-26.9-5.2c-29.1,1.8-32,30.5-32,30.5c-33.1,22.8-14.4,40.7-6.8,47.2c1.3,1.1,2.8,1.7,4.3,2.3
						c1.8,0.7,4.7,4.5,6.7,20.7c3.1,25,38.4,46.9,81.7,20.8c43.2-26.1,23-52,23-52s12,11.1,21.7,6.6c9.7-4.6-0.6-17.3-0.6-17.3
						s22.1,8.3,17.5-17.8C381.7,81.6,362.7,99,362.7,99z"/>
					<path class="st19" d="M278.2,122.5c32.5-1.6,60.5,22.7,59.9,55.2c0,0.3,0,0.6,0,0.9c-3.5,3.2-7.9,6.4-13.2,9.6
						c-31.4,19-58.6,12.6-72.3-1.9C247.3,180.8,246.6,124,278.2,122.5z"/>
					<g>
						<path class="st20" d="M321.3,125.3c5.8,17.6,5.6,37.3,1.3,46.7c-0.8,1.7-1.7,3.3-2.6,4.8c-10.6,16.6-29.8,18.6-29.8,18.6
							s-0.8,0-2.2,0c-7.5-0.4-31.7-4.2-37.5-37.4c-3.4-19.5,0.8-35.4,5.9-46.5c3.6-7.7,13.7-9.1,19.4-2.7
							c6.9,7.8,19.5,15.9,42.3,16.8L321.3,125.3z"/>
						<g>
							<g>
								<path class="st20" d="M330.6,214.6L320,176.8c-10.6,16.6-29.8,18.6-29.8,18.6s-0.8,0-2.2,0l5.8,35.5
									C293.7,230.9,324.6,237.3,330.6,214.6z"/>
							</g>
						</g>
						<path class="st19" d="M290.1,195.4c0,0,19.2-2,29.8-18.6l0.1,0.4c-0.4,1.7-1,3.3-1.6,4.7c-0.8,1.7-1.7,3.3-2.6,4.8
							c-7.8,12.3-20.4,16.6-26.4,18l-1.5-9.3C289.3,195.5,290.1,195.4,290.1,195.4z"/>
						<g>
							<g>
								<g>
									<path class="st20" d="M329.7,152.8c0,0,14.4-1.8,13.6-16.9c-0.8-15.2-15.2-11-15.2-11S331.5,135.6,329.7,152.8z"/>
									<path class="st16" d="M332.4,129.9c0,0,5.7-1.2,7.9,5"/>
									<path class="st16" d="M336,130.8c0,0,1.9,6.1-2.2,11.5"/>
									<path class="st4" d="M338.7,149.2c0,2.1-1.6,3.8-3.7,3.8s-3.8-1.6-3.8-3.7c0-2.1,1.6-3.8,3.7-3.8
										C337,145.4,338.7,147.1,338.7,149.2z"/>
								</g>
								<g>
									<path class="st20" d="M250,162.4c0,0-12.3,3.2-16.6-9.3c-4.3-12.6,8.7-13.9,8.7-13.9S242.9,148.9,250,162.4z"/>
									<path class="st16" d="M240.3,144.6c0,0-5,0.9-4.8,6.7"/>
									<path class="st16" d="M237.8,146.5c0,0,0.4,5.6,5.5,8.7"/>
									<path class="st4" d="M241.5,162.3c0.7,1.7,2.6,2.5,4.3,1.9c1.7-0.7,2.5-2.6,1.9-4.3c-0.7-1.7-2.6-2.5-4.3-1.9
										C241.7,158.7,240.9,160.6,241.5,162.3z"/>
								</g>
							</g>
						</g>
					</g>
					<g>
						<path class="st16" d="M285.7,126.6c3.4,0.1,7.6,1.2,12.2,4.3"/>
						<path class="st16" d="M255.2,135.1c1.8-2,4.6-4.2,8.9-5.4"/>
						<path class="st16" d="M275.8,136.7c0,0,1.3,6.3-3.4,12.6c-5.8,7.6-3,9.9,3.4,11.4"/>
						<path class="st21" d="M286.9,161.8c-3.3-0.5-2.8,3.7-2.8,3.7s-4.3-1.7-4.6,1.6c-0.3,2.9,6.5,5.1,8.2,4
							C289.4,169.9,289.7,162.2,286.9,161.8z"/>
						<path class="st22" d="M300,149.7c-2.6-2.2-4.4,1.6-4.4,1.6s-2.7-3.8-4.8-1.1c-1.8,2.3,2.7,7.8,4.8,7.7
							C297.8,157.8,302.2,151.5,300,149.7z"/>
						<path class="st22" d="M257.2,163.8c0.8-3.3,4.5-1.3,4.5-1.3s0-4.6,3.2-3.7c2.8,0.8,2.5,7.9,0.7,9.1
							C263.8,169,256.5,166.6,257.2,163.8z"/>
						<path class="st16" d="M279.9,170.5c0,0,7.3-1.2,9.7-8.3"/>
						<path class="st19" d="M292.4,140.9c0.3,1.9-1,3.8-2.9,4.1s-3.8-1-4.1-2.9c-0.3-1.9,1-3.8,2.9-4.1
							C290.2,137.7,292.1,139,292.4,140.9z"/>
						<path class="st16" d="M299.3,139.5c-2.4,1.2-5.8,2.2-10.2,1.8"/>
						<path class="st16" d="M298.2,135.8c-1.9,1.9-4.7,3.9-9,5"/>
						<path class="st16" d="M254,143.1c2.5,1.1,5.9,1.9,10.2,1.3"/>
						<path class="st16" d="M254.9,139.3c2,1.9,4.9,3.7,9.2,4.6"/>
						<path class="st19" d="M267.6,143.8c0.3,1.9-1,3.8-2.9,4.1s-3.8-1-4.1-2.9c-0.3-1.9,1-3.8,2.9-4.1
							C265.5,140.6,267.3,141.9,267.6,143.8z"/>
					</g>
					<path class="st23" d="M333.7,101.1c-6.1,10.7-3.4,17.3,3.1,14.1C343.2,112,339.7,90.5,333.7,101.1z"/>
					<path class="st23" d="M344.2,112.7c-6.1,10.7-3.4,17.3,3.1,14.1C353.7,123.6,350.2,102.1,344.2,112.7z"/>
				</g>
				<path class="st24" d="M354.1,466"/>
			</g>
		</g>
		<line class="st25" x1="69.6" y1="396.1" x2="443.2" y2="396.1"/>
		<g>
			<polygon class="st26" points="94.8,302.9 92.2,299 139.8,299 178.5,357.3 142.6,357.3 			"/>
			<g>
				<path class="st20" d="M173.9,369.3l-26.3-13.8c0,0,16-25.7,8.6-37.1s-14.6-17.7-14.6-17.7l-32,19l-14.9-16.8
					c0,0,0.9,8.6,2.8,15.2s-1.7,19.9,7.7,31s37.6,46.9,37.6,46.9s37.1,37.5,52.6,44.4s36.2-73.3,36.2-73.3l8-26.8l-49.1-15
					C181.2,349.9,173.9,369.3,173.9,369.3z"/>
				<line class="st16" x1="147.5" y1="306.8" x2="119.3" y2="328.9"/>
				<line class="st16" x1="151.3" y1="311.4" x2="128.3" y2="337.8"/>
				<line class="st16" x1="156.2" y1="318.4" x2="137" y2="345.2"/>
				<line class="st16" x1="109.7" y1="319.7" x2="103.7" y2="323.4"/>
				<polygon class="st19" points="147.6,355.5 142.1,361.9 153.7,358.7 				"/>
				<line class="st16" x1="173.9" y1="369.3" x2="195.4" y2="380.3"/>
			</g>
			<path class="st17" d="M219.4,251.5c-8.5,21-19.6,49.8-28.7,73.7l49.1,15l38.8-130.1C278.6,210.2,236.6,208.9,219.4,251.5z"/>
			<path class="st16" d="M196.6,431.7c0,0,7.8-3,10.4-8.3"/>
		</g>
		<g>
			<g>
				<g>
					<path class="st27" d="M263.3,212.3c-4.6,16.8-18.6,70.9-23.5,128l38.8-130.1C278.6,210.2,272.1,210,263.3,212.3z"/>
					<path class="st27" d="M375.1,213.9c-5.6-1.6-11.2-2.8-16.7-3.8c0,0-47.1,64-25.9,145.3l13.8-36.9
						C345.7,299.4,348.6,259.7,375.1,213.9z"/>
				</g>
			</g>
			<path class="st23" d="M342.2,257.3c-0.8,2.8,0.3,5.7,2.5,6.3c2.2,0.7,4.7-1.1,5.5-3.9s-0.3-5.7-2.5-6.3
				C345.5,252.7,343,254.4,342.2,257.3z"/>
			<g>
				<path class="st23" d="M336,324.6c-9.4,0.1-9.5-8.4-9.6-13.9l-0.1-2.3c-0.2-5.5-0.5-13.1,8.7-13.7c3.4-0.3,5.8,0.4,7.6,2
					c2.5,2.1,3.8,6,4.2,11.8c0.4,6.3,0.5,10.9-1.9,13.6c-1.2,1.3-3,2.1-5.7,2.4C338.4,324.5,337.3,324.6,336,324.6z M335.1,296.3
					c-7.5,0.6-7.3,6.4-7.1,11.9l0.1,2.4c0.1,5.5,0.2,12.3,7.9,12.3c4.1,0,6.4-0.7,7.7-2.1c1.8-1.9,1.9-5.5,1.4-12.3
					c-0.4-5.3-1.6-8.8-3.7-10.6C340,296.6,338,296.1,335.1,296.3L335.1,296.3z M335.1,295.4L335.1,295.4L335.1,295.4z"/>
				<path class="st23" d="M335.9,308.9c0.4,0,0.7-0.4,0.7-0.8c0.3-3.7-0.7-12.4-0.7-12.7c-0.1-0.5-0.5-0.8-0.9-0.8l0,0
					c-0.5,0.1-0.8,0.5-0.7,0.9c0,0.1,1,8.9,0.7,12.4c0,0.5,0.3,0.9,0.8,0.9C335.8,308.9,335.8,308.9,335.9,308.9z"/>
				<polygon class="st13" points="348.5,316.5 326.1,317.7 327.2,324.9 348.9,324.1 				"/>
			</g>
			<path class="st23" d="M347.6,237.6c-0.8,2.8,0.3,5.7,2.5,6.3c2.2,0.7,4.7-1.1,5.5-3.9c0.8-2.8-0.3-5.7-2.5-6.3
				C350.9,233,348.4,234.7,347.6,237.6z"/>
			<path class="st23" d="M255.9,252.4c-0.5,2.3,0.5,4.5,2.3,4.9s3.7-1.1,4.2-3.4c0.5-2.3-0.5-4.5-2.3-4.9
				C258.3,248.6,256.5,250.1,255.9,252.4z"/>
			<path class="st23" d="M260.7,235.2c-0.6,2.4,0.5,4.8,2.4,5.2s3.9-1.2,4.5-3.6c0.6-2.4-0.5-4.8-2.4-5.2
				C263.3,231.2,261.3,232.8,260.7,235.2z"/>
			<g>
				<g>
					<defs>
						<path id="SVGID_3_" d="M263.3,212.3c-4.6,16.8-18.6,70.9-23.5,128l38.8-130.1C278.6,210.2,272.1,210,263.3,212.3z"/>
					</defs>
					<clipPath id="SVGID_4_">
						<use xlink:href="#SVGID_3_"  style="overflow:visible;"/>
					</clipPath>
					<g class="st28">
						<path class="st23" d="M243.4,315c-9.1-2.4-6.9-10.6-5.5-16l0.6-2.3c1.3-5.3,3-12.7,12-10.9c3.3,0.7,5.5,1.9,6.8,4
							c1.8,2.7,2.1,6.8,0.9,12.5c-1.3,6.2-2.4,10.7-5.4,12.6c-1.5,0.9-3.5,1.2-6.1,0.8C245.6,315.5,244.5,315.3,243.4,315z
							 M250.1,287.5c-7.3-1.4-8.7,4.2-10,9.6l-0.6,2.3c-1.4,5.3-3.1,11.9,4.3,13.9c3.9,1.1,6.4,1.1,8,0.1c2.3-1.4,3.3-4.8,4.7-11.5
							c1.1-5.2,0.9-8.9-0.7-11.2C254.7,289.1,252.9,288,250.1,287.5L250.1,287.5z M250.2,286.6L250.2,286.6L250.2,286.6z"/>
						<path class="st23" d="M247.4,299.8c0.4,0.1,0.8-0.2,0.9-0.5c1.3-3.5,2.7-12.1,2.7-12.5c0.1-0.5-0.2-0.9-0.7-1l0,0
							c-0.5-0.1-0.9,0.2-1,0.7c0,0.1-1.4,8.8-2.6,12.1c-0.2,0.4,0.1,0.9,0.5,1.1C247.3,299.8,247.4,299.8,247.4,299.8z"/>
						<polygon class="st13" points="257.5,310.5 235.6,305.7 234.7,312.9 255.8,317.9 						"/>
					</g>
				</g>
			</g>
		</g>
		<g>
			<path class="st17" d="M406.1,227.7c-5.5-4.7-13.1-8.2-21.8-10.9L336,346c12.8,2.9,45.1,10.9,63.2,15.4
				C404.2,346.7,434.9,252,406.1,227.7z"/>
		</g>
		<g>
			<path class="st20" d="M318.7,392.5c0,0-71.1-68-87.4-81.1s-32.4-11.2-32.4-11.2c-4.5,0.6-39.3,15-39.3,15s3.8,6.9,16.4,3.1
				c12.7-3.8,12.7-3.8,12.7-3.8s0.8,15,3.3,17.2c2.5,2.1,6.9,2,6.9,2s1.6,4.4,6.3,5.2c0,0,1.6,3.6,7.7,6.3c2.4,1.1,6.2,1.5,8.6,1.6
				l0.2,0.3l83.2,102.2c14.6,18.5,34.6,25,49.4,16.7c0.2-0.1,0.4-0.2,0.5-0.3c5.1-2.9,9-7.6,11-13.1l32.9-89.2c0,0,0.2-0.7,0.7-1.9
				c-18.1-4.5-50.4-12.5-63.2-15.4L318.7,392.5z"/>
			<g>
				<line class="st16" x1="318.7" y1="392.5" x2="333.3" y2="406.1"/>
				<path class="st16" d="M221.3,346.8l6.3,0.3c0,0,1.3-6.8-4.1-8c-5.3-1.3-7.7-1.8-7.7-1.8"/>
				<line class="st24" x1="331" y1="457.5" x2="357.7" y2="453.7"/>
				<g>
					<path class="st16" d="M198.8,333.8c0,0-2.4-11-1.9-25.1"/>
					<path class="st16" d="M205.1,338.9c0,0-3.9-26.7,0-28.9"/>
					<path class="st16" d="M189.4,307.5c0,0-2.7,3.9-3.3,7.9c2.6-0.8,2.6-0.8,2.6-0.8S188.5,309.8,189.4,307.5z"/>
					<g>
						<path class="st16" d="M159.5,315.3c0,0,3.6,2.2,7.3,0.8c3.7-1.4,8-3.1,4.4-5.6"/>
						<line class="st16" x1="178" y1="307.8" x2="180.6" y2="310"/>
						<line class="st16" x1="179.6" y1="307.1" x2="182.5" y2="309.3"/>
						<line class="st16" x1="181.6" y1="306.3" x2="184.7" y2="308.6"/>
						<path class="st16" d="M167.3,312.1c0,0,1.3,1.4,4.1,1.9"/>
						<path class="st16" d="M191.4,331.1c0,0,3,0.7,5.5-0.6"/>
						<path class="st16" d="M190.9,330.1c0,0,2.9,0.2,4.8-0.4"/>
						<path class="st16" d="M193.1,332.6c0,0,1.9,0.2,3.5-0.5"/>
						<path class="st16" d="M199.9,334.5c0,0,1.9,2.3,4.3,2.9"/>
						<path class="st16" d="M199.9,333.3c0,0,1.8,1.8,4,1.9"/>
						<path class="st16" d="M209.6,343.5c0,0,2.4,0.1,4.5-1.6"/>
						<path class="st16" d="M208.2,342.5c0,0,2.1,0.2,4.2-1.1"/>
						<path class="st16" d="M206.9,341.4c0,0,2.6,0,3.9-0.7"/>
					</g>
					<g>
						<path class="st16" d="M227.6,347.1c0,0-0.7-1.9-2.9-2.1s-4.9,0.1-4.6,1.7"/>
						<line class="st16" x1="222.1" y1="345" x2="223.1" y2="346.9"/>
					</g>
					<line class="st16" x1="214.3" y1="329.1" x2="221.8" y2="338.6"/>
					<line class="st16" x1="215.8" y1="340.7" x2="215.8" y2="331.1"/>
				</g>
			</g>
			<path class="st16" d="M336,346l-17.3,46.5c0,0-71.1-68-87.4-81.1s-32.4-11.2-32.4-11.2c-4.5,0.6-39.3,15-39.3,15
				s3.8,6.9,16.4,3.1c12.7-3.8,12.7-3.8,12.7-3.8s0.8,15,3.3,17.2c2.5,2.1,6.9,2,6.9,2s1.6,4.4,6.3,5.2c0,0,1.6,3.6,7.7,6.3
				c2.4,1.1,6.2,1.5,8.6,1.6l0.2,0.3l40.5,49.7"/>
		</g>
		<path class="st16" d="M360.5,280.4L336,346c12.8,2.9,45.1,10.9,63.2,15.4c5-14.7,35.7-109.5,6.9-133.7
			c-5.5-4.7-13.1-8.2-21.8-10.9"/>
	</g>
	<g>
		<g>
			<g>
				<g>
					<path class="st11" d="M88.9,355.9c0,0-2,0.5-1.9,1.2c0,0.7,5.1,1.2,5,1.1s-5.4,2-4.6,3.9c0.7,1.9,8.1-2.3,8.1-2.3
						s4.8,7,6.7,6.2c1.9-0.7-1.8-5.4-1.8-5.4s3.6,2.9,4.4,2s-0.5-2.4-0.5-2.4"/>
					<path class="st12" d="M117.7,346.7c-1.8,9-10.9,15.4-20.3,13.6S82,349.1,83.8,340c1.8-9,10.8-14.9,20.1-13
						C113.3,328.9,119.5,337.7,117.7,346.7z"/>
					<path class="st13" d="M96.6,348.2c-4.2-0.8-8.3-0.1-11.7,1.8c2.2,5.1,6.7,9.2,12.6,10.4c4.2,0.8,8.4,0,11.9-2
						C107.2,353.3,102.5,349.4,96.6,348.2z"/>
					<path class="st11" d="M86.9,333.4c0,0,3.6,1.4,4.1,8.2c0,0,2.6-5.4,8-3.5c5.4,1.8,3.3,7.9,3.3,7.9s7.4-7.1,15.7-1.3"/>
					<line class="st11" x1="102.3" y1="346" x2="97.5" y2="360.4"/>
					<line class="st11" x1="91" y1="341.6" x2="91.1" y2="357.6"/>
					<line class="st14" x1="95.4" y1="333.4" x2="95.5" y2="337.8"/>
					<line class="st14" x1="100.6" y1="333.2" x2="99.2" y2="338.2"/>
					<line class="st14" x1="105.3" y1="337.3" x2="102.3" y2="346"/>
					<path class="st15" d="M96.8,332.6c0.3,0.8-0.2,1.6-0.9,1.9c-0.8,0.3-1.6-0.2-1.9-0.9c-0.3-0.8,0.2-1.6,0.9-1.9
						C95.7,331.4,96.5,331.8,96.8,332.6z"/>
					<path class="st15" d="M102,332.7c0.3,0.8-0.2,1.6-0.9,1.9c-0.8,0.3-1.6-0.2-1.9-0.9c-0.3-0.8,0.2-1.6,0.9-1.9
						C100.9,331.5,101.7,331.9,102,332.7z"/>
					<path class="st15" d="M106.9,336.8c0.3,0.9-0.2,1.9-1.1,2.2c-0.9,0.3-1.9-0.2-2.2-1.1c-0.3-0.9,0.2-1.9,1.1-2.2
						C105.7,335.4,106.6,335.9,106.9,336.8z"/>
				</g>
			</g>
			<path class="st11" d="M95.4,359.8c0,0-4.9,14.4-6.6,36.2"/>
		</g>
		<g>
			<g>
				<g>
					<path class="st11" d="M424.8,355.9c0,0-2,0.5-1.9,1.2c0,0.7,5.1,1.2,5,1.1s-5.4,2-4.6,3.9c0.7,1.9,8.1-2.3,8.1-2.3
						s4.8,7,6.7,6.2c1.9-0.7-1.8-5.4-1.8-5.4s3.6,2.9,4.4,2s-0.5-2.4-0.5-2.4"/>
					<path class="st12" d="M453.6,346.7c-1.8,9-10.9,15.4-20.3,13.6s-15.4-11.2-13.6-20.3c1.8-9,10.8-14.9,20.1-13
						C449.3,328.9,455.4,337.7,453.6,346.7z"/>
					<path class="st13" d="M432.6,348.2c-4.2-0.8-8.3-0.1-11.7,1.8c2.2,5.1,6.7,9.2,12.6,10.4c4.2,0.8,8.4,0,11.9-2
						C443.1,353.3,438.5,349.4,432.6,348.2z"/>
					<path class="st11" d="M422.8,333.4c0,0,3.6,1.4,4.1,8.2c0,0,2.6-5.4,8-3.5c5.4,1.8,3.3,7.9,3.3,7.9s7.4-7.1,15.7-1.3"/>
					<line class="st11" x1="438.2" y1="346" x2="433.4" y2="360.4"/>
					<line class="st11" x1="426.9" y1="341.6" x2="427" y2="357.6"/>
					<line class="st14" x1="431.3" y1="333.4" x2="431.4" y2="337.8"/>
					<line class="st14" x1="436.5" y1="333.2" x2="435.1" y2="338.2"/>
					<line class="st14" x1="441.2" y1="337.3" x2="438.2" y2="346"/>
					<path class="st15" d="M432.7,332.6c0.3,0.8-0.2,1.6-0.9,1.9c-0.8,0.3-1.6-0.2-1.9-0.9c-0.3-0.8,0.2-1.6,0.9-1.9
						C431.6,331.4,432.5,331.8,432.7,332.6z"/>
					<path class="st15" d="M437.9,332.7c0.3,0.8-0.2,1.6-0.9,1.9c-0.8,0.3-1.6-0.2-1.9-0.9c-0.3-0.8,0.2-1.6,0.9-1.9
						C436.8,331.5,437.6,331.9,437.9,332.7z"/>
					<path class="st15" d="M442.9,336.8c0.3,0.9-0.2,1.9-1.1,2.2c-0.9,0.3-1.9-0.2-2.2-1.1s0.2-1.9,1.1-2.2
						C441.6,335.4,442.6,335.9,442.9,336.8z"/>
				</g>
			</g>
			<path class="st11" d="M431.3,359.8c0,0-4.9,14.4-6.6,36.2"/>
		</g>
	</g>
	<g>
		<path class="st17" d="M80.4,211.6c-20.6,0-37.3,15.2-37.3,33.9s16.7,33.9,37.3,33.9c2.3,0,25.7,0,25.7,0l11.6,14.8v-48.7
			C117.7,226.7,101,211.6,80.4,211.6z"/>
		<g>
			<g>
				<path class="st7" d="M76.5,240.1c0,0-14.7-13.8-6.4-17.6c9-4,10.6,14.8,10.6,14.8s1.1-7.2,6.7-5.9c7.8,1.9,0.8,18.9,0.8,18.9
					s3.6-6.8,9-4.2c6.6,3.3-4.7,22.9-4.7,22.9s-21.3-5.7-20.3-12.3c0.7-4.6,8.2-2.7,8.2-2.7s-15.7-7.5-14.2-13
					C67.7,235.6,76.5,240.1,76.5,240.1z"/>
				<path class="st29" d="M70.2,222.5c0,0,15.5,26.5,22.3,46.6"/>
			</g>
			<path class="st29" d="M66.7,240.6c0,0,11.3,6.9,17,7.5"/>
			<path class="st29" d="M86.7,231.5c0,0,0.4,10.6-3.1,16.6"/>
			<path class="st29" d="M72.3,256.3c0,0,10.2,5.6,17.3,5"/>
			<path class="st29" d="M95.9,245.7c0,0,0.2,9.2-6.4,15.6"/>
		</g>
	</g>
	<g>
		<g>
			<path class="st30" d="M429,317.1c15.6,13.2,10.4,49.2-21.3,42.3c-31.7-6.9-27-36-8.8-42.3C417.1,310.7,429,317.1,429,317.1z"/>
			<path class="st30" d="M404.7,174.9c13.9-12.2,29.7,10.6,18.7,24.3C412.5,213,378.2,198.2,404.7,174.9z"/>
			<path class="st30" d="M373.6,109.3c13.9-12.2,29.7,10.6,18.7,24.3C381.4,147.4,347.1,132.6,373.6,109.3z"/>
			<path class="st30" d="M44.7,251.1c7.7-6.7,16.5,5.9,10.4,13.5S30,264,44.7,251.1z"/>
			<path class="st30" d="M417.8,201.7c3.7,3.4,2.5,12.8-5.1,11c-7.5-1.8-6.4-9.4-2.1-11C415,200,417.8,201.7,417.8,201.7z"/>
			<path class="st30" d="M92.3,150.3c15.6,13.2,10.4,49.2-21.3,42.3s-27-36-8.8-42.3C80.3,143.9,92.3,150.3,92.3,150.3z"/>
			<path class="st30" d="M222.6,362.8c13.9-12.2,29.7,10.6,18.7,24.3C230.4,400.9,196.1,386.1,222.6,362.8z"/>
		</g>
		<g>
			<path class="st30" d="M327.5,332.4c14.1,11.9,9.4,44.4-19.2,38.1c-28.6-6.2-24.4-32.4-8-38.2
				C316.7,326.7,327.5,332.4,327.5,332.4z"/>
			<path class="st30" d="M188,359.4c5.8-5.1,12.4,4.4,7.8,10.2C191.3,375.3,176.9,369.1,188,359.4z"/>
			<path class="st30" d="M317.8,166.5c9.4-8.2,20.1,7.2,12.7,16.5C323.1,192.2,299.9,182.2,317.8,166.5z"/>
			<path class="st30" d="M334.4,274.1c12.5-11,26.7,9.5,16.9,21.9C341.5,308.5,310.5,295.1,334.4,274.1z"/>
			<path class="st30" d="M165.6,295.1c14,11.9,9.4,44.3-19.2,38.1c-28.6-6.2-24.3-32.4-7.9-38.1
				C154.9,289.4,165.6,295.1,165.6,295.1z"/>
			<path class="st30" d="M175.2,161.1c7.1,6,4.7,22.3-9.7,19.2s-12.2-16.3-4-19.2C169.8,158.2,175.2,161.1,175.2,161.1z"/>
			<path class="st30" d="M151.1,172.5c3.4,2.9,2.2,10.6-4.6,9.1s-5.8-7.8-1.9-9.1C148.6,171.1,151.1,172.5,151.1,172.5z"/>
			<path class="st30" d="M97.4,314.9c3.4,2.9,2.2,10.6-4.6,9.1c-6.8-1.5-5.8-7.8-1.9-9.1C94.9,313.6,97.4,314.9,97.4,314.9z"/>
			<path class="st30" d="M180.6,367.6c10.4-9.1,22.3,8,14.1,18.3C186.5,396.3,160.7,385.1,180.6,367.6z"/>
			<path class="st30" d="M376.3,287.8c6.2-5.5,13.4,4.8,8.4,11C379.8,305,364.3,298.3,376.3,287.8z"/>
		</g>
	</g>
</g>
</svg>
