<?xml version="1.0" encoding="utf-8"?>
<!-- Generator: Adobe Illustrator 25.2.0, SVG Export Plug-In . SVG Version: 6.00 Build 0)  -->
<svg version="1.1" id="Layer_1" xmlns="http://www.w3.org/2000/svg" xmlns:xlink="http://www.w3.org/1999/xlink" x="0px" y="0px"
	 viewBox="0 0 144.8 106.1" style="enable-background:new 0 0 144.8 106.1;" xml:space="preserve">
<style type="text/css">
	.st0{opacity:0.19;fill:#9DC28C;}
	.st1{fill:#B1C470;}
	.st2{fill:#EAE4D1;}
	.st3{fill:#312816;}
	.st4{fill:#B1C471;}
	.st5{fill:#8AA13C;}
</style>
<ellipse transform="matrix(0.1091 -0.994 0.994 0.1091 47.8241 165.9611)" class="st0" cx="116.5" cy="56.3" rx="39.6" ry="39.6"/>
<g>
	<path class="st1" d="M74.5,38.2c1.8-1.7,2.6-2.7,2.9-3.2c0,0,0.4,0,0.5,0.5l1.2,1.2c0.5,0.5,1.1,0.7,1.8,0.7
		c2.2-0.1,3.9-0.8,6.3,1.7l17.7,18.5c0,0,2.3,2.1-3.9,8.2l0,0c-6.3,5.9-8.4,3.6-8.4,3.6L74.8,50.9c-2.3-2.4-1.6-4.1-1.4-6.3
		c0.1-0.7-0.2-1.3-0.6-1.8l-1.2-1.2c-0.5-0.1-0.5-0.5-0.5-0.5C71.6,40.8,72.7,40,74.5,38.2z"/>
	<path class="st2" d="M77.7,34.4c0,0,0.1,0.1-0.2,0.6c-0.3,0.5-1.1,1.5-2.9,3.2c-1.9,1.8-2.9,2.5-3.5,2.9c-0.5,0.3-0.6,0.2-0.6,0.2
		l-3.1-3.2c0.3-1,2-2.8,2.9-3.7c0,0,0.2-0.2,0.5-0.5c0.9-0.9,2.8-2.5,3.8-2.7L77.7,34.4z"/>
	<g>
		<path class="st3" d="M72,41.5c1.2-0.6,2.3-1.5,3.3-2.4s1.9-1.9,2.8-3.1c0.2-0.3-0.2-0.5-0.4-0.3c-0.8,1-1.7,2.1-2.7,3
			s-2.1,1.7-3.1,2.5C71.7,41.4,71.8,41.6,72,41.5L72,41.5z"/>
	</g>
	<g>
		<path class="st3" d="M70.8,41.3c0.7-0.3,1.4-0.6,2-1.1c0.7-0.5,1.3-1,1.9-1.6s1.2-1.2,1.7-1.9c0.5-0.6,1.1-1.2,1.4-2
			c0.1-0.2-0.2-0.4-0.3-0.2c-0.4,0.7-0.9,1.3-1.5,2c-0.5,0.6-1.1,1.2-1.7,1.8c-1.1,1.1-2.4,2-3.7,2.7C70.6,41.2,70.7,41.4,70.8,41.3
			L70.8,41.3z"/>
	</g>
	<g>
		<path class="st3" d="M70.5,41.3c-0.2-0.3-0.5-0.5-0.7-0.8c-0.3-0.3-0.5-0.5-0.8-0.8c-0.5-0.5-1-1-1.5-1.6
			c-0.2-0.2-0.4,0.1-0.3,0.3c0.5,0.5,1,1.1,1.5,1.6c0.3,0.3,0.5,0.5,0.8,0.8s0.5,0.5,0.8,0.7C70.5,41.5,70.6,41.4,70.5,41.3
			L70.5,41.3z"/>
	</g>
	<g>
		<path class="st3" d="M67.4,38.2c0.3-0.8,0.9-1.5,1.4-2.1c0.5-0.7,1.1-1.3,1.7-1.9c0.6-0.6,1.2-1.1,1.9-1.6c0.7-0.5,1.4-1,2.2-1.4
			c0.2-0.1,0.1-0.4-0.1-0.3c-0.8,0.3-1.5,0.8-2.2,1.3c-0.7,0.5-1.4,1.1-2.1,1.8c-0.6,0.6-1.2,1.3-1.8,2c-0.5,0.6-1.2,1.4-1.2,2.2
			C67.2,38.3,67.4,38.4,67.4,38.2L67.4,38.2z"/>
	</g>
	<g>
		<path class="st3" d="M74.4,31.2c0.2,0.3,0.5,0.6,0.8,0.8c0.3,0.3,0.5,0.5,0.8,0.8c0.6,0.5,1.1,1.1,1.6,1.7
			c0.2,0.2,0.5-0.1,0.3-0.3c-0.5-0.6-1.1-1.2-1.7-1.7c-0.3-0.3-0.6-0.5-0.9-0.8s-0.5-0.5-0.9-0.7C74.4,31,74.3,31.1,74.4,31.2
			L74.4,31.2z"/>
	</g>
	<g>
		<path class="st3" d="M67.5,38.2c1.5-0.8,2.8-1.9,4-3c1.2-1.2,2.3-2.5,3.1-3.9c0.1-0.2-0.2-0.4-0.3-0.2c-0.9,1.4-1.9,2.7-3.1,3.9
			c-1.1,1-2.5,2-3.8,3C67.3,38.1,67.4,38.2,67.5,38.2L67.5,38.2z"/>
	</g>
	<g>
		<path class="st3" d="M68,37.8c0.4,0.6,0.9,1.2,1.4,1.7c0.5,0.6,1,1.1,1.6,1.6c0.2,0.2,0.4-0.1,0.3-0.3c-0.5-0.5-1-1.1-1.5-1.6
			s-1-1.1-1.5-1.6C68.1,37.6,67.9,37.7,68,37.8L68,37.8z"/>
	</g>
	<g>
		<path class="st3" d="M69.3,36.9c0.2,0.3,0.4,0.6,0.7,0.8c0.3,0.3,0.5,0.6,0.8,0.9c0.5,0.6,1.1,1.1,1.6,1.7
			c0.2,0.2,0.4-0.1,0.3-0.2c-0.5-0.6-1-1.1-1.6-1.7c-0.3-0.3-0.5-0.6-0.8-0.8c-0.3-0.3-0.5-0.6-0.8-0.8
			C69.4,36.7,69.3,36.8,69.3,36.9L69.3,36.9z"/>
	</g>
	<g>
		<path class="st3" d="M70.7,35.8c0.5,0.6,1.1,1.1,1.6,1.7c0.6,0.5,1.1,1.1,1.7,1.6c0.2,0.2,0.4-0.1,0.3-0.2
			c-0.6-0.6-1.1-1.1-1.7-1.7c-0.6-0.6-1.1-1.1-1.7-1.6C70.7,35.5,70.6,35.7,70.7,35.8L70.7,35.8z"/>
	</g>
	<g>
		<path class="st3" d="M72.1,34.3c0.5,0.6,1,1.2,1.5,1.7c0.5,0.6,1,1.2,1.6,1.7c0.2,0.2,0.4-0.1,0.3-0.2c-0.5-0.6-1-1.1-1.5-1.7
			c-0.5-0.6-1-1.1-1.6-1.7C72.2,34,72,34.2,72.1,34.3L72.1,34.3z"/>
	</g>
	<g>
		<path class="st3" d="M73,33.1c0.4,0.7,1,1.2,1.5,1.8s1.1,1.2,1.7,1.8c0.2,0.2,0.4-0.1,0.3-0.2c-0.5-0.6-1.1-1.1-1.6-1.7
			c-0.5-0.6-1-1.2-1.6-1.7C73.1,32.8,72.9,32.9,73,33.1L73,33.1z"/>
	</g>
	<g>
		<path class="st3" d="M74.1,32c1,1.1,2.1,2.2,3.1,3.3c0.2,0.2,0.4-0.1,0.3-0.2c-0.5-0.6-1.1-1.1-1.6-1.6c-0.3-0.3-0.5-0.5-0.8-0.8
			s-0.6-0.5-0.8-0.8C74.2,31.7,74,31.9,74.1,32L74.1,32z"/>
	</g>
	<g>
		<path class="st3" d="M74.5,43.2c1.1-0.1,2-1,2.7-1.7c0.9-0.8,1.8-1.8,2.4-2.9c0.1-0.2-0.2-0.5-0.4-0.2c-0.4,0.5-0.7,1-1.1,1.5
			s-0.8,0.9-1.2,1.3c-0.4,0.4-0.8,0.7-1.2,1c-0.4,0.3-0.9,0.6-1.4,0.8C74.3,43.1,74.4,43.3,74.5,43.2L74.5,43.2z"/>
	</g>
	<g>
		<path class="st3" d="M86.9,62.5c1,1.1,2,2.3,3.1,3.4s2.1,2.2,3.2,3.3c0.2,0.3,0.6-0.1,0.4-0.4c-1.1-1.1-2.1-2.2-3.2-3.3
			c-1.1-1.1-2.2-2.1-3.3-3.2C86.9,62.2,86.7,62.4,86.9,62.5L86.9,62.5z"/>
	</g>
	<g>
		<path class="st3" d="M92.4,67.4c0.1,0.1,0.2,0.3,0.3,0.4c0.1,0.1,0.2,0.2,0.3,0.3s0.2,0.2,0.3,0.3c0.1,0.1,0.3,0.3,0.4,0.4
			c0.2,0.1,0.4-0.2,0.3-0.3c-0.1-0.1-0.2-0.2-0.3-0.3c-0.1-0.1-0.2-0.2-0.4-0.3c-0.1-0.1-0.2-0.2-0.4-0.3c-0.1-0.1-0.3-0.2-0.4-0.3
			C92.4,67.1,92.2,67.3,92.4,67.4L92.4,67.4z"/>
	</g>
	<g>
		<path class="st3" d="M85.3,38.7c2.9,3.1,5.9,6.1,8.8,9.1c0.2,0.2,0.5-0.1,0.3-0.3c-3-3-5.9-6.1-9-9C85.4,38.4,85.1,38.6,85.3,38.7
			L85.3,38.7z"/>
	</g>
</g>
<g>
	<path class="st2" d="M127.1,35.3c-1.2,10.6-10,18.6-20.5,19c-0.6,0-1.3,0-2,0c-11.8-0.7-20.8-10.8-20.1-22.6
		c0.4-7,4.1-13.1,9.6-16.7c0.1,0.4,0.2,0.7,0.3,1.1c0.1,0.8-0.3,1.6-1,2c-0.5,0.3-1.2,0.5-1.3,1c-0.1,0.3,0.1,0.6,0.2,0.9
		c0.4,0.9,0.5,1.9,0.4,2.9c0,0.6-0.2,1.3,0,1.9s0.7,1.2,1.4,1c0.4-0.6,0-1.4-0.3-2s-0.4-1.6,0.3-1.9c0.4,1.4,0.9,2.8,1.3,4.1
		c0.1,0.4,0.3,0.9,0.6,1.2c0.5,0.5,1.2,0.6,1.8,0.9l1.7-0.4c-0.2-0.1-0.4-0.2-0.6-0.3c-0.5-0.4-0.6-1.1-0.7-1.7
		c-0.1-0.7-0.1-1.5,0.2-2.1c0.4-0.6,1.2-1,1.8-0.5c0.2,0.2,0.4,0.4,0.6,0.6c0.5,0.4,1.2,0.1,1.8-0.1c0.6-0.2,1.4-0.2,1.6,0.4
		c0.2,0.5-0.1,1.3,0.4,1.5c0.1,0,0.1,0,0.2,0.1c0.3,0,0.7-0.4,0.7-0.8s-0.3-0.8-0.5-1.2c-0.2-0.4-0.2-0.9,0.1-1.2
		c0.2-0.2,0.5-0.2,0.7-0.3c0.5-0.3,0.6-0.9,1.1-1.1c0.4-0.2,0.9,0.1,1.2,0.4c0.4,0.3,0.7,0.6,1.2,0.6c0.4,0,0.8-0.6,0.5-0.9
		c-0.2-0.1-0.4-0.1-0.6-0.2c-0.6-0.1-1.1-0.7-1.1-1.3c0.2,0.5,1,0.2,1.2-0.3c0.3-0.5,0.6-1.1,1.1-1c0.4,0.1,0.7,0.8,1.1,0.8
		c0.3,0,0.5-0.4,0.5-0.7s-0.3-0.6-0.6-0.8c-0.4-0.4-0.9-0.8-1.3-1.3l0,0c-0.2-0.2-0.3-0.3-0.6-0.3c-0.7-0.1-0.8,1.2-1.5,1.2
		c-0.5,0-0.8-0.5-1.2-0.6c-0.5-0.1-1.1,0.5-1.6,0.3c-0.6-0.3-0.3-1.3-0.9-1.6c-0.3-0.2-0.7-0.1-1-0.3c-0.4-0.3,0-1,0.5-1.2
		s1.1-0.3,1.3-0.8c0.2-0.4,0-1-0.3-1.4c0.7,0,1.4,0,2.1,0c0.9,0.1,1.8,0.2,2.7,0.3c6,1.1,11.2,4.8,14.2,9.7h-0.1
		c0,0.8-0.2,1.6-0.5,2.4c-0.3,0.7-0.8,1.4-0.7,2.1c0.1,1.4,1.9,2,2.2,3.4c0.2,0.8-0.3,1.7-0.2,2.5c0.1,1,1,1.7,1.7,2.4
		C126.6,34.8,126.9,35,127.1,35.3z"/>
	<path class="st4" d="M124,21.6c2.2,3.6,3.4,7.9,3.2,12.5c0,0.4-0.1,0.8-0.1,1.2c-0.2-0.3-0.4-0.5-0.7-0.8c-0.7-0.7-1.6-1.4-1.7-2.4
		c-0.1-0.8,0.4-1.7,0.2-2.5c-0.3-1.3-2.1-2-2.2-3.4c-0.1-0.8,0.4-1.4,0.7-2.1C123.7,23.3,123.9,22.5,124,21.6L124,21.6z"/>
	<path class="st4" d="M112.2,14.4c0.3,0.1,0.4,0.4,0.3,0.6c-0.1,0.3-0.3,0.5-0.5,0.6s-0.5,0.1-0.8,0.2c-0.2,0-0.4,0-0.5,0
		s-0.3-0.1-0.4-0.2c-0.2-0.2-0.2-0.4-0.3-0.6c-0.2-0.5-0.6-0.9-1.1-1c-0.2,0-0.4-0.1-0.5-0.3s0.1-0.4,0-0.6c0.3-0.1,0.6-0.3,1-0.4
		c0.2,0,0.4,0,0.6,0c0.3,0,0.6,0.1,0.9,0.2c0.3,0.2,0.5,0.5,0.4,0.8c0,0.2-0.1,0.3,0,0.5c0.1,0.1,0.2,0.2,0.4,0.2
		S112,14.3,112.2,14.4z"/>
	<path class="st4" d="M109.4,28.2c-0.1,0.1-0.2,0.2-0.4,0.3c-0.1,0.1-0.4,0.1-0.5,0s0-0.2,0-0.3c0-0.1,0-0.1,0-0.2
		c0.4-0.3,0.1-1.1,0.6-1.3c0.2-0.1,0.5,0,0.6,0.1c0.3,0.2,0.6,0.5,0.5,0.8S109.7,28,109.4,28.2z"/>
	<path class="st4" d="M107.5,14.5c0.1,0.2,0.1,0.4,0.1,0.6c0,0.2-0.2,0.4-0.4,0.3c-0.3,0-0.4-0.5-0.7-0.5c-0.2,0-0.5,0.1-0.7,0
		c-0.1-0.1-0.1-0.2-0.1-0.4c0-0.1,0.1-0.2,0.2-0.4c0.2-0.1,0.4-0.2,0.6-0.2c0.3,0,0.6,0,0.8,0.2C107.4,14.2,107.4,14.4,107.5,14.5z"
		/>
	<path class="st4" d="M106.1,29.3c0.2-0.1,0.6,0,0.7,0.2s0,0.4-0.1,0.5c-0.2,0.2-0.5,0.2-0.8,0.1l0,0c-0.1,0-0.1-0.1-0.2-0.1
		C105.7,29.8,105.8,29.5,106.1,29.3z"/>
	<path class="st4" d="M107.2,12.3c0.2,0.1,0.3,0.3,0.2,0.5c-0.1,0.2-0.2,0.3-0.4,0.3c-0.2,0-0.4-0.1-0.5-0.3
		c0.1-0.1,0.2-0.3,0.3-0.4l0,0C106.9,12.3,107.1,12.3,107.2,12.3z"/>
	<path class="st4" d="M94,22.1c-0.6,0.3-0.6,1.2-0.3,1.9c0.3,0.6,0.7,1.4,0.3,2c-0.6,0.1-1.2-0.4-1.4-1c-0.2-0.6,0-1.3,0-1.9
		c0.1-1-0.1-2-0.4-2.9c-0.1-0.3-0.2-0.6-0.2-0.9c0.1-0.6,0.8-0.7,1.3-1c0.7-0.4,1.1-1.2,1-2c0-0.4-0.2-0.7-0.3-1.1
		c3.2-2.1,6.9-3.3,10.9-3.5c0.3,0.4,0.5,0.9,0.3,1.4s-0.8,0.6-1.3,0.8s-0.9,0.9-0.5,1.2c0.3,0.2,0.7,0.1,1,0.3
		c0.5,0.3,0.3,1.3,0.9,1.6c0.5,0.2,1-0.3,1.6-0.3c0.5,0.1,0.8,0.6,1.2,0.6c0.7-0.1,0.8-1.3,1.5-1.2c0.2,0,0.4,0.2,0.6,0.3l0,0
		c0.4,0.4,0.9,0.8,1.3,1.3c0.2,0.2,0.5,0.5,0.6,0.8s-0.1,0.7-0.5,0.7c-0.5,0-0.7-0.6-1.1-0.8c-0.5-0.1-0.9,0.5-1.1,1
		c-0.3,0.5-1.1,0.8-1.2,0.3c0.1,0.6,0.5,1.1,1.1,1.3c0.2,0,0.4,0,0.6,0.2c0.3,0.3-0.1,0.9-0.5,0.9s-0.8-0.3-1.2-0.6
		c-0.4-0.3-0.8-0.5-1.2-0.4c-0.5,0.2-0.7,0.8-1.1,1.1c-0.2,0.1-0.5,0.2-0.7,0.3c-0.3,0.3-0.3,0.8-0.1,1.2c0.2,0.4,0.5,0.8,0.5,1.2
		c0,0.4-0.3,0.8-0.7,0.8c-0.1,0-0.1,0-0.2-0.1c-0.5-0.3-0.1-1-0.4-1.5c-0.2-0.6-1-0.6-1.6-0.4s-1.3,0.4-1.8,0.1
		c-0.2-0.2-0.4-0.4-0.6-0.6c-0.6-0.4-1.5-0.1-1.8,0.5c-0.4,0.6-0.3,1.4-0.2,2.1c0.1,0.6,0.2,1.3,0.7,1.7c0.5,0.4,1.3,0.5,1.7-0.1
		c0.2-0.3,0.2-0.6,0.3-0.9c0.1-0.3,0.6-0.5,0.8-0.2c0.2,0.3,0.1,0.8,0.4,0.7c0-0.4,0.6-0.5,0.9-0.2c0.1,0.1,0.1,0.1,0.2,0.2
		c0.1,0.2,0.2,0.5,0.2,0.8c0.1,0.4,0.2,0.8,0.5,1s0.6,0.2,0.8,0.4c0.2,0.5-0.5,0.7-0.8,1.1s-0.1,1,0.2,1.3c0.4,0.3,0.8,0.5,1.3,0.6
		c0.6,0.2,1.4,0.3,1.8-0.2c0.3-0.5,0.3-1.3,0.9-1.4c0.8-0.1,0.7,1.6,1.6,1.7c0.2,0,0.4-0.1,0.6-0.2c0.9-0.4,2-0.1,2.6,0.6
		c0.2,0.2,0.3,0.5,0.5,0.6c0.9,0.7,2.2-0.4,3.4-0.5c0.2,0,0.4,0,0.5,0.2c0.1,0.1,0.1,0.3,0.1,0.5c-0.1,1.9,1.3,3.8,3.1,4.3
		c0.4,0.1,0.8,0.2,1.2,0.4c0.3,0.2,0.6,0.7,0.4,1.1c-0.1,0.2-0.2,0.3-0.4,0.4c-2.3,1.8-3.6,4.7-5.4,7c-1,1.3-2.7,2.6-4.3,2
		c0.2,0.5,0.3,0.9,0.5,1.4c-0.3,0.5-1.1,0.1-1.6,0c-0.7-0.1-1.3,0.4-1.8,0.9c-0.4,0.5-0.8,1.2-1.3,1.6c-0.6,0.4-1.4,0.6-1.9,0
		s-0.2-1.5,0.1-2.3c0.8-1.8,1.5-3.8,2-5.7c0.1-0.3,0.1-0.6-0.1-0.8s-0.6-0.2-0.9-0.2c-0.5-0.1-0.9-0.4-1.1-0.9
		c-0.1-0.3-0.1-0.7-0.2-1.1c-0.2-0.9-1.2-1.4-1.8-2c-0.7-0.6-1.1-1.8-0.4-2.4c0.3-0.2,0.7-0.3,1-0.4c0.8-0.3,1.4-0.9,1.6-1.7
		s-0.4-1.7-1.2-1.8c-0.6-0.1-1.1,0.2-1.7,0.1c-1.3-0.4-0.8-3.1-2.1-3.3c-0.6-0.1-1.4,0.4-1.8-0.2c-0.1-0.2-0.1-0.5-0.2-0.7
		c-0.3-1.2-2.1-1-3-1.9c-0.3-0.3-0.5-0.8-0.6-1.2C94.9,24.8,94.4,23.4,94,22.1z"/>
	<path class="st4" d="M104.6,26.5c0.3,0,0.6,0.1,0.9,0.1l0,0c0.3,0,0.6,0,0.9,0s0.6,0.1,0.8,0.3c0.2,0.2,0.4,0.5,0.4,0.8
		c0,0.2-0.1,0.5-0.3,0.6c-0.1,0.1-0.3,0.1-0.4,0.1c-0.8-0.1-1.2-1.2-2-1.3c-0.4,0-0.9,0.2-1.3-0.1c0,0,0,0-0.1-0.1s-0.1-0.1-0.1-0.2
		c0-0.2,0.2-0.3,0.4-0.3C104.3,26.5,104.5,26.5,104.6,26.5z"/>
	<g>
		<path class="st3" d="M106.4,54.5c-0.6,0-1.2,0-1.8,0c-5.8-0.3-11-2.9-14.9-7.2c-3.8-4.3-5.8-9.8-5.4-15.6c0.4-6.8,4-13.1,9.7-16.8
			c3.3-2.2,7.1-3.4,11-3.5c0.7,0,1.4,0,2.1,0c0.9,0.1,1.8,0.2,2.7,0.3c0.3,0.1,0.6,0.1,0.8,0.2c5.6,1.3,10.5,4.8,13.6,9.7
			c2.4,3.8,3.5,8.1,3.2,12.6l0,0c0,0.4-0.1,0.8-0.1,1.2c-0.6,5.1-3,9.9-6.8,13.4s-8.7,5.5-13.9,5.7
			C106.5,54.5,106.4,54.5,106.4,54.5z M105.1,11.7c-0.1,0-0.1,0-0.2,0c-3.8,0.2-7.6,1.4-10.8,3.5c-5.6,3.7-9.1,9.8-9.5,16.5
			C84.3,37.4,86.2,42.8,90,47s9,6.7,14.6,7c0.7,0,1.3,0,1.9,0c10.4-0.4,19.2-8.4,20.3-18.8c0-0.4,0.1-0.8,0.1-1.2l0,0
			c0.2-4.4-0.8-8.7-3.2-12.4c-3-4.8-7.8-8.3-13.3-9.5c-0.2-0.1-0.5-0.1-0.8-0.2c-0.9-0.2-1.8-0.3-2.7-0.3
			C106.4,11.7,105.8,11.7,105.1,11.7z"/>
	</g>
	<g>
		<path class="st3" d="M86.7,39.3c-0.3-0.9-0.5-1.9-0.7-2.8c-0.2-0.9-0.3-1.9-0.4-2.8c-0.1-1.9,0.1-3.8,0.5-5.7c0.3-1,0.6-2,1-3
			c0.1-0.2-0.3-0.4-0.4-0.2c-0.4,0.9-0.7,1.8-1,2.8c-0.2,0.9-0.4,1.9-0.5,2.9c-0.2,1.9-0.1,3.9,0.2,5.8c0.1,0.5,0.2,1,0.4,1.6
			c0.2,0.5,0.4,1.1,0.6,1.6C86.6,39.5,86.8,39.5,86.7,39.3L86.7,39.3z"/>
	</g>
	<g>
		<path class="st3" d="M86.4,33.1c-0.1-0.7,0.1-1.5,0.2-2.2c0.1-0.4,0.1-0.7,0.2-1.1c0.1-0.3,0.2-0.7,0.2-1c0-0.2-0.3-0.3-0.4-0.1
			c-0.2,0.3-0.2,0.7-0.3,1.1c-0.1,0.4-0.1,0.8-0.2,1.2c-0.1,0.8-0.2,1.5,0,2.2C86.2,33.3,86.4,33.2,86.4,33.1L86.4,33.1z"/>
	</g>
	<g>
		<path class="st3" d="M118.8,17.4c0.6,0.7,1.3,1.3,1.9,2c0.3,0.3,0.6,0.7,0.9,1c0.1,0.2,0.3,0.3,0.4,0.5s0.2,0.4,0.3,0.6
			c0.1,0.2,0.3,0.2,0.4-0.1c0-0.4-0.3-0.8-0.6-1.1c-0.3-0.4-0.6-0.8-1-1.1c-0.7-0.7-1.4-1.4-2.1-2C118.9,17.1,118.7,17.3,118.8,17.4
			L118.8,17.4z"/>
	</g>
	<g>
		<path class="st3" d="M120.9,20.6c0.1,0.3,0.2,0.5,0.3,0.8c0.1,0.1,0.1,0.3,0.2,0.4s0.1,0.3,0.2,0.4s0.2,0.1,0.3,0.1
			c0.1,0,0.1-0.1,0.1-0.2s-0.1-0.3-0.2-0.4s-0.1-0.3-0.2-0.4c-0.1-0.3-0.3-0.5-0.4-0.7C121,20.3,120.8,20.4,120.9,20.6L120.9,20.6z"
			/>
	</g>
	<g>
		<path class="st3" d="M116.5,45.3c0.2-0.3,0.5-0.6,0.8-0.9c0.2-0.3,0.5-0.7,0.7-1c0.5-0.7,1-1.3,1.4-2c0.1-0.2-0.2-0.4-0.4-0.2
			c-0.5,0.6-0.9,1.3-1.3,2c-0.2,0.3-0.5,0.7-0.7,1s-0.4,0.7-0.6,1C116.3,45.3,116.5,45.4,116.5,45.3L116.5,45.3z"/>
	</g>
	<g>
		<path class="st3" d="M116.8,43.7c0.2-0.3,0.5-0.7,0.7-1c0.1-0.2,0.2-0.3,0.3-0.5c0.1-0.2,0.2-0.3,0.3-0.5c0-0.1,0-0.2-0.1-0.3
			s-0.2-0.1-0.3,0c-0.2,0.3-0.4,0.7-0.6,1.1c-0.2,0.4-0.4,0.7-0.6,1.1C116.5,43.7,116.7,43.9,116.8,43.7L116.8,43.7z"/>
	</g>
	<g>
		<path class="st3" d="M95.3,15.8c0.5-0.4,1.1-0.7,1.7-1.1c0.3-0.2,0.6-0.3,0.9-0.4c0.3-0.1,0.7-0.2,0.9-0.4
			c0.2-0.1,0.1-0.4-0.1-0.4c-0.3,0.1-0.7,0.2-1,0.4c-0.3,0.1-0.6,0.3-0.9,0.5c-0.6,0.3-1.2,0.8-1.7,1.2C95,15.7,95.2,15.8,95.3,15.8
			L95.3,15.8z"/>
	</g>
	<g>
		<path class="st3" d="M96.3,15.9c0.3-0.2,0.6-0.4,1-0.5c0.2-0.1,0.3-0.2,0.5-0.2c0.2-0.1,0.4-0.1,0.5-0.2c0.2-0.1,0.1-0.4-0.1-0.4
			s-0.4,0.1-0.6,0.2c-0.2,0.1-0.4,0.2-0.5,0.3C96.8,15.3,96.5,15.5,96.3,15.9C96.1,15.8,96.2,16,96.3,15.9L96.3,15.9z"/>
	</g>
	<g>
		<path class="st3" d="M124.4,24.2c0.1,0.5,0.3,1,0.5,1.6c0.1,0.3,0.2,0.5,0.2,0.8c0.1,0.3,0.1,0.5,0.2,0.8c0.1,0.2,0.4,0.1,0.4-0.1
			c0-0.3-0.1-0.5-0.2-0.8s-0.2-0.5-0.3-0.8c-0.2-0.5-0.4-1.1-0.6-1.5C124.5,24,124.4,24.1,124.4,24.2L124.4,24.2z"/>
	</g>
	<g>
		<path class="st3" d="M124.4,26c0,0.1,0,0.3,0.1,0.4c0,0.1,0.1,0.3,0.1,0.4c0.1,0.3,0.1,0.5,0.2,0.8c0,0.1,0.2,0.2,0.3,0.1
			c0.1,0,0.2-0.2,0.1-0.3c-0.1-0.3-0.1-0.5-0.2-0.8c0-0.1-0.1-0.3-0.1-0.4s-0.1-0.2-0.1-0.4C124.5,25.8,124.3,25.8,124.4,26
			L124.4,26z"/>
	</g>
	<g>
		<path class="st3" d="M95.7,20.5c0.2-0.2,0.4-0.4,0.5-0.6c0.2-0.2,0.3-0.4,0.5-0.6s0.3-0.4,0.5-0.7c0.1-0.1,0.2-0.2,0.2-0.3
			l0.1-0.1c0,0,0,0,0,0.1c0.3,0.4,0.6,0.8,0.8,1.3c0.1,0.2,0.3,0.5,0.4,0.7s0.2,0.5,0.3,0.7c0.1,0.1,0.3,0,0.3-0.1
			c0-0.3-0.2-0.6-0.3-0.8c-0.1-0.3-0.3-0.5-0.4-0.8c-0.2-0.3-0.3-0.5-0.5-0.8c-0.1-0.1-0.2-0.3-0.3-0.4c-0.1-0.1-0.1-0.2-0.2-0.2
			c-0.2-0.1-0.4,0.1-0.5,0.2c-0.2,0.3-0.4,0.5-0.6,0.8s-0.4,0.5-0.5,0.8c-0.2,0.3-0.3,0.6-0.5,0.8C95.5,20.4,95.6,20.5,95.7,20.5
			L95.7,20.5z"/>
	</g>
	<g>
		<path class="st3" d="M98.9,19.8c0.3-0.1,0.6-0.4,0.9-0.6c0.1-0.1,0.3-0.2,0.4-0.3c0.1-0.1,0.2-0.1,0.3,0c0.2,0.3,0.4,0.6,0.6,0.9
			c0.1,0.2,0.2,0.3,0.3,0.5c0.1,0.2,0.2,0.3,0.3,0.5c0.1,0.1,0.4,0,0.3-0.2s-0.2-0.4-0.3-0.6c-0.1-0.2-0.2-0.4-0.3-0.6
			c-0.1-0.2-0.2-0.4-0.3-0.6c-0.1-0.1-0.2-0.3-0.3-0.4c-0.4-0.3-0.7,0.1-1,0.3c-0.2,0.1-0.3,0.3-0.5,0.4s-0.3,0.3-0.4,0.5
			C98.7,19.7,98.8,19.8,98.9,19.8L98.9,19.8z"/>
	</g>
	<g>
		<path class="st3" d="M101.3,19.8c0.3-0.3,0.6-0.6,0.9-0.9s0.6-0.6,1-0.8l0.2-0.1l0.1,0.2c0.1,0.2,0.2,0.4,0.4,0.6
			c0.1,0.2,0.2,0.4,0.3,0.6c0.1,0.2,0.2,0.5,0.4,0.6c0.2,0.1,0.4,0,0.3-0.2c0-0.1-0.1-0.2-0.2-0.4c-0.1-0.1-0.1-0.2-0.2-0.4
			c-0.1-0.2-0.3-0.5-0.4-0.7c-0.2-0.3-0.5-1-0.9-0.8c-0.2,0.1-0.4,0.3-0.6,0.4c-0.2,0.2-0.4,0.3-0.6,0.5c-0.4,0.3-0.7,0.7-1,1.2
			C101.1,19.7,101.2,19.8,101.3,19.8L101.3,19.8z"/>
	</g>
	<g>
		<path class="st3" d="M106.9,39.5c0.4-0.3,0.8-0.6,1.3-1c0.2-0.2,0.4-0.3,0.6-0.5s0.4-0.4,0.6-0.5c0.1,0,0-0.1,0.1,0l0.1,0.1
			c0.1,0.1,0.2,0.2,0.3,0.3c0.2,0.2,0.4,0.4,0.6,0.6c0.4,0.4,0.8,0.8,1.2,1.2c0.2,0.2,0.4-0.1,0.3-0.3c-0.4-0.5-0.8-0.9-1.2-1.3
			c-0.2-0.2-0.4-0.4-0.7-0.6c-0.1-0.1-0.3-0.4-0.5-0.4s-0.4,0.3-0.6,0.4c-0.2,0.2-0.4,0.4-0.7,0.6c-0.5,0.4-0.9,0.8-1.3,1.2
			C106.7,39.4,106.8,39.6,106.9,39.5L106.9,39.5z"/>
	</g>
	<g>
		<path class="st3" d="M110.6,38.5c0.3-0.2,0.6-0.5,0.8-0.8c0.1-0.1,0.3-0.3,0.4-0.4c0.1-0.1,0.3-0.3,0.5-0.4c0.1,0,0.1,0,0.2,0.1
			s0.2,0.1,0.2,0.2c0.2,0.1,0.3,0.3,0.5,0.4c0.2,0.1,0.3,0.3,0.5,0.4c0.2,0.1,0.3,0.3,0.5,0.4c0.2,0.1,0.4-0.1,0.3-0.3
			s-0.3-0.3-0.5-0.5s-0.4-0.3-0.6-0.5s-0.4-0.3-0.6-0.5c-0.1-0.1-0.3-0.3-0.5-0.2c-0.2,0-0.4,0.2-0.5,0.3c-0.2,0.1-0.3,0.3-0.5,0.5
			c-0.3,0.3-0.7,0.7-0.9,1.1C110.4,38.4,110.5,38.6,110.6,38.5L110.6,38.5z"/>
	</g>
	<g>
		<path class="st3" d="M109.8,35.9c0.3-0.2,0.5-0.4,0.7-0.7c0.1-0.1,0.2-0.3,0.3-0.4c0-0.1,0.1-0.1,0.1-0.2c0-0.1,0.1-0.2,0.1-0.2
			h-0.1c0.1,0,0.2,0.2,0.3,0.3c0.1,0.1,0.2,0.2,0.3,0.3c0.2,0.2,0.4,0.5,0.7,0.7c0.2,0.1,0.4-0.1,0.3-0.3s-0.3-0.3-0.4-0.4
			c-0.1-0.1-0.3-0.3-0.4-0.4c-0.1-0.1-0.3-0.3-0.4-0.4c-0.1-0.1-0.3-0.2-0.5-0.1c-0.1,0.1-0.2,0.2-0.3,0.4c-0.1,0.1-0.2,0.3-0.3,0.4
			c-0.2,0.3-0.4,0.6-0.6,0.8C109.6,35.8,109.7,35.9,109.8,35.9L109.8,35.9z"/>
	</g>
	<g>
		<path class="st3" d="M109.2,44.6c0.3-0.2,0.5-0.4,0.7-0.6c0.1-0.1,0.2-0.3,0.3-0.4c0-0.1,0.1-0.1,0.1-0.2l0.1-0.2h-0.1
			c0-0.1-0.1-0.1,0,0l0,0c0,0,0,0.1,0.1,0.1c0,0.1,0.1,0.1,0.1,0.2c0.1,0.1,0.3,0.3,0.4,0.4c0.3,0.3,0.6,0.6,1,0.9
			c0.2,0.2,0.5-0.1,0.3-0.3c-0.3-0.3-0.7-0.6-1-0.9c-0.1-0.1-0.3-0.3-0.4-0.4c-0.1-0.1-0.2-0.4-0.3-0.4c-0.2-0.1-0.3,0.1-0.4,0.2
			c-0.1,0.2-0.2,0.3-0.3,0.5c-0.1,0.2-0.2,0.3-0.3,0.5c-0.1,0.1-0.2,0.3-0.4,0.4C109,44.5,109.1,44.7,109.2,44.6L109.2,44.6z"/>
	</g>
	<g>
		<path class="st3" d="M112.4,44c0.3-0.2,0.6-0.5,0.9-0.8c0.1-0.1,0.3-0.3,0.4-0.4c0.1-0.1,0.1-0.2,0.2-0.2l0.2-0.2H114l0,0l0.1,0.1
			c0.1,0.1,0.1,0.2,0.2,0.2c0.1,0.1,0.3,0.3,0.4,0.4c0.3,0.3,0.6,0.6,1,0.8c0.2,0.1,0.4-0.2,0.3-0.3c-0.2-0.2-0.4-0.3-0.5-0.4
			c-0.2-0.1-0.3-0.3-0.5-0.4c-0.2-0.2-0.3-0.3-0.5-0.5c-0.1-0.1-0.3-0.4-0.5-0.3c-0.2,0-0.3,0.3-0.4,0.4c-0.1,0.2-0.3,0.4-0.4,0.5
			c-0.3,0.4-0.6,0.7-0.9,1C112.2,43.9,112.3,44.1,112.4,44L112.4,44z"/>
	</g>
	<g>
		<path class="st3" d="M104.1,37.7c-0.1,0.1-0.2,0.2-0.3,0.3c-0.1,0.1-0.1,0.3-0.2,0.4c-0.1,0.3,0,0.6,0.2,0.8
			c0.1,0.1,0.2,0,0.2-0.2c-0.1-0.1-0.1-0.2-0.1-0.3s0-0.2,0-0.3s0.1-0.2,0.1-0.3c0.1-0.1,0.1-0.2,0.2-0.3
			C104.3,37.8,104.2,37.7,104.1,37.7L104.1,37.7z"/>
	</g>
	<g>
		<path class="st3" d="M104.3,38.5c-0.1,0.3,0,0.8,0.3,0.9c0.1,0,0.1,0,0.2-0.1c0-0.1,0-0.1-0.1-0.2l0,0l0,0l0,0c0,0-0.1,0-0.1-0.1
			l0,0l0,0l0,0l0,0l0,0l0,0v-0.1l0,0l0,0c0,0,0,0,0-0.1c0,0,0,0,0-0.1l0,0l0,0v-0.1c0-0.1,0-0.1-0.1-0.1
			C104.4,38.4,104.4,38.4,104.3,38.5L104.3,38.5z"/>
	</g>
	<g>
		<path class="st3" d="M115.5,46c-0.1,0.5-0.5,0.9-0.9,1.2c-0.2,0.2-0.5,0.3-0.7,0.5c-0.3,0.1-0.5,0.3-0.8,0.4
			c-0.1,0.1,0,0.3,0.1,0.3c0.3-0.1,0.6-0.3,0.8-0.4c0.3-0.2,0.5-0.3,0.7-0.5C115.1,47.1,115.4,46.7,115.5,46
			C115.7,45.9,115.5,45.9,115.5,46L115.5,46z"/>
	</g>
	<g>
		<path class="st3" d="M93,19.4c-0.2,0.2-0.3,0.4-0.3,0.7c0,0.1,0,0.3,0,0.4s0.1,0.3,0.2,0.4H93l0.1-0.1c0-0.1-0.1-0.2-0.1-0.3
			c0-0.1,0-0.2,0-0.3c0-0.2,0.1-0.4,0.2-0.6C93.3,19.4,93.1,19.3,93,19.4L93,19.4z"/>
	</g>
	<g>
		<path class="st3" d="M93.8,19.4c-0.3,0.4-0.4,0.8-0.3,1.3c0,0.1,0.1,0.1,0.2,0.1s0.1-0.1,0.1-0.2c-0.1-0.4,0-0.8,0.2-1.1
			C94.1,19.4,93.9,19.3,93.8,19.4L93.8,19.4z"/>
	</g>
	<g>
		<path class="st3" d="M99.7,17.3c0.3-0.2,0.5-0.5,0.8-0.8c0.2-0.3,0.5-0.6,0.7-0.9l0.1-0.1l0,0h-0.1l0.1,0.2
			c0.1,0.2,0.2,0.3,0.3,0.5c0.2,0.3,0.4,0.7,0.6,1c0.1,0.2,0.4,0,0.3-0.2c-0.2-0.4-0.4-0.8-0.6-1.1c-0.1-0.2-0.2-0.4-0.3-0.5
			c-0.1-0.1-0.3-0.2-0.4-0.1c-0.1,0.1-0.1,0.1-0.2,0.2c-0.1,0.1-0.1,0.2-0.2,0.2c-0.1,0.2-0.3,0.3-0.4,0.5c-0.3,0.3-0.6,0.7-0.8,1
			C99.5,17.3,99.6,17.4,99.7,17.3L99.7,17.3z"/>
	</g>
	<g>
		<path class="st3" d="M91.2,37.3c0.3,0.5,0.9,0.7,1.4,0.7c0.6-0.1,1.2-0.5,1.5-1c-0.1,0-0.2,0-0.3,0c0.3,0.6,0.9,0.9,1.6,0.9
			c0.6,0,1.2-0.4,1.5-1c-0.1,0-0.2,0-0.3,0c0.4,0.5,1.1,0.9,1.7,0.8c0.7-0.1,1.3-0.5,1.5-1.1c0.1-0.2-0.2-0.4-0.3-0.2
			c-0.5,1.1-1.9,1.3-2.6,0.3c-0.1-0.1-0.3-0.1-0.3,0c-0.5,1-1.9,1-2.4,0.1c-0.1-0.1-0.2-0.1-0.3,0c-0.3,0.4-0.7,0.8-1.2,0.9
			c-0.5,0.1-1,0-1.3-0.5C91.3,37,91.1,37.2,91.2,37.3L91.2,37.3z"/>
	</g>
	<g>
		<path class="st3" d="M112.6,25.9c0.3,0.5,0.8,0.7,1.4,0.6s1.1-0.4,1.5-0.9c-0.1,0-0.2,0-0.3,0c0.4,0.5,1,0.8,1.6,0.7
			c0.6-0.1,1.1-0.5,1.3-1.1c0.1-0.2-0.3-0.3-0.4-0.1c-0.4,0.9-1.6,1.1-2.2,0.3c-0.1-0.1-0.2-0.1-0.3,0c-0.3,0.4-0.7,0.7-1.2,0.8
			c-0.5,0.1-0.9-0.1-1.2-0.4C112.7,25.7,112.5,25.8,112.6,25.9L112.6,25.9z"/>
	</g>
	<g>
		<path class="st3" d="M112.9,29.9c0,0.6,0.5,1,1,1c0.6,0.1,1.2-0.3,1.6-0.7c-0.1,0-0.2,0-0.3,0c0.3,0.5,1,0.8,1.6,0.8
			c0.7-0.1,1.2-0.5,1.6-1.1c-0.1,0-0.2,0-0.3,0.1c0.8,0.9,2.2,0.8,2.9-0.1c0.2-0.2-0.1-0.5-0.3-0.3c-0.6,0.8-1.7,0.8-2.4,0.1
			c-0.1-0.1-0.3-0.1-0.3,0.1c-0.3,0.4-0.7,0.8-1.3,0.9c-0.5,0.1-1-0.1-1.2-0.6c-0.1-0.1-0.2-0.1-0.3,0c-0.3,0.3-0.7,0.6-1.1,0.7
			c-0.4,0-0.8-0.3-0.9-0.7C113.1,29.8,112.9,29.8,112.9,29.9L112.9,29.9z"/>
	</g>
	<g>
		<path class="st3" d="M93.7,33.6c0.3,0.5,0.8,0.7,1.4,0.6c0.6-0.1,1.1-0.4,1.5-0.9c-0.1,0-0.2,0-0.3,0c0.4,0.5,1,0.8,1.6,0.7
			s1.1-0.5,1.3-1.1c0.1-0.2-0.3-0.3-0.4-0.1c-0.4,0.9-1.6,1.1-2.2,0.3c-0.1-0.1-0.2-0.1-0.3,0c-0.3,0.4-0.7,0.7-1.2,0.8
			s-0.9-0.1-1.2-0.4C93.8,33.3,93.6,33.5,93.7,33.6L93.7,33.6z"/>
	</g>
	<g>
		<path class="st3" d="M88.3,41.3c0,0.6,0.5,1,1,1c0.6,0.1,1.2-0.3,1.6-0.7c-0.1,0-0.2,0-0.3,0c0.3,0.5,1,0.8,1.6,0.8
			c0.7-0.1,1.2-0.5,1.6-1.1c-0.1,0-0.2,0-0.3,0.1c0.8,0.9,2.2,0.8,2.9-0.1c0.2-0.2-0.1-0.5-0.3-0.3c-0.6,0.8-1.7,0.8-2.4,0.1
			c-0.1-0.1-0.3-0.1-0.3,0.1c-0.3,0.4-0.7,0.8-1.3,0.9c-0.5,0.1-1-0.1-1.2-0.6c-0.1-0.1-0.2-0.1-0.3,0c-0.3,0.3-0.7,0.6-1.1,0.7
			c-0.4,0-0.8-0.3-0.9-0.7C88.5,41.1,88.3,41.2,88.3,41.3L88.3,41.3z"/>
	</g>
	<g>
		<path class="st3" d="M96.9,43.5c0.3,0.5,0.8,0.7,1.4,0.6c0.6-0.1,1.1-0.4,1.5-0.9c-0.1,0-0.2,0-0.3,0c0.4,0.5,1,0.8,1.6,0.7
			s1.1-0.5,1.3-1.1c0.1-0.2-0.3-0.3-0.4-0.1c-0.4,0.9-1.6,1.1-2.2,0.3c-0.1-0.1-0.2-0.1-0.3,0c-0.3,0.4-0.7,0.7-1.2,0.8
			s-0.9-0.1-1.2-0.4C97,43.3,96.8,43.4,96.9,43.5L96.9,43.5z"/>
	</g>
</g>
<g>
	<path class="st4" d="M76.6,60.5L75.3,61c-1.6-1.5-1.4-2.3-1.4-2.3l28.2-9.8l28.2-9.8c0,0,0.6,0.5,0.3,2.7l-1.4,0.5l-6.5,2.3
		l-7.2,2.5l-0.4,2.1l-11.5,4l-11.6,4l-1.6-1.4l-7.2,2.5L76.6,60.5z"/>
	<path class="st5" d="M135.4,54c0.3,0.8-0.2,1.7-1.1,1.8c-0.6,0-1.3,0.2-2.1,0.4l-2.5-11.8l2.4,1.2L135.4,54z"/>
	<path class="st4" d="M129.2,42.2l0.5,2.2l2.5,11.8l4,19.2c0.4,1.9-0.7,3.9-2.6,4.5l-18.4,6.4l-18.4,6.4c-1.9,0.7-3.9-0.2-4.8-2
		l-8.8-17.6l-5.4-10.8l-1-2l6.5-2.3L97,87.6l16.5-5.8L130,76l-7.4-31.6L129.2,42.2z"/>
	<polygon class="st5" points="122.6,44.5 130,76.1 113.5,81.8 97,87.6 83.2,58.2 90.3,55.7 92,57.2 103.5,53.1 115.1,49.1 115.5,47 
			"/>
	<path class="st5" d="M77.6,62.5L83,73.3c-0.8,0.3-1.5,0.6-1.9,1c-0.7,0.5-1.7,0.2-2-0.7L76.5,65L77.6,62.5z"/>
	<g>
		<path class="st3" d="M75.5,61.1c3.9-1.3,7.7-2.7,11.6-4c1.1-0.4,2.2-0.8,3.3-1.1c0.2-0.1,0.1-0.4-0.1-0.3c-3.9,1.3-7.7,2.7-11.6,4
			c-1.1,0.4-2.2,0.8-3.3,1.1C75.2,60.8,75.3,61.1,75.5,61.1L75.5,61.1z"/>
	</g>
	<g>
		<path class="st3" d="M116.1,46.9c3.7-1.3,7.4-2.6,11.1-3.9c1.1-0.4,2.1-0.7,3.2-1.1c0.2-0.1,0.1-0.4-0.1-0.3
			c-3.7,1.3-7.4,2.6-11.1,3.9c-1.1,0.4-2.1,0.7-3.2,1.1C115.8,46.7,115.9,47,116.1,46.9L116.1,46.9z"/>
	</g>
	<g>
		<path class="st3" d="M92.3,57.3c5.9-2.1,11.9-4.1,17.8-6.2c1.7-0.6,3.4-1.2,5.1-1.8c0.2-0.1,0.1-0.4-0.1-0.3
			c-5.9,2.1-11.9,4.1-17.8,6.2c-1.7,0.6-3.4,1.2-5.1,1.8C91.9,57,92.1,57.4,92.3,57.3L92.3,57.3z"/>
	</g>
	<g>
		<path class="st3" d="M90.3,56c0.6,0.4,1.1,0.9,1.7,1.3c0.2,0.1,0.4-0.1,0.2-0.3c-0.6-0.4-1.1-0.9-1.7-1.3
			C90.3,55.6,90.1,55.9,90.3,56L90.3,56z"/>
	</g>
	<g>
		<path class="st3" d="M115.3,47.2c-0.1,0.6-0.2,1.2-0.4,1.8c0,0.1,0,0.2,0.1,0.2s0.2,0,0.2-0.1c0.2-0.6,0.3-1.3,0.4-1.9
			C115.7,47,115.3,47,115.3,47.2L115.3,47.2z"/>
	</g>
	<g>
		<path class="st3" d="M74.6,58.6c7.2-2.5,14.4-5,21.6-7.5s14.4-5,21.6-7.5c4-1.4,8.1-2.8,12.1-4.2c0.2-0.1,0.1-0.4-0.1-0.3
			c-7.2,2.5-14.4,5-21.6,7.5s-14.4,5-21.6,7.5c-4,1.4-8.1,2.8-12.1,4.2C74.3,58.3,74.4,58.6,74.6,58.6L74.6,58.6z"/>
	</g>
	<g>
		<path class="st3" d="M90.7,86.9c0.3,1.1,0.8,2.1,1.5,2.9s1.5,1.6,2.5,2.1c0.2,0.1,0.4-0.2,0.2-0.4c-0.9-0.6-1.7-1.2-2.4-2.1
			c-0.7-0.8-1.2-1.8-1.6-2.7C90.9,86.6,90.7,86.8,90.7,86.9L90.7,86.9z"/>
	</g>
	<g>
		<path class="st3" d="M93.7,90c0.2,0.3,0.4,0.6,0.7,0.8c0.1,0.1,0.3,0.2,0.4,0.3c0.2,0.1,0.3,0.2,0.5,0.2c0.1,0,0.2-0.1,0.2-0.1
			c0-0.1,0-0.2-0.1-0.2c-0.1-0.1-0.3-0.1-0.4-0.2s-0.3-0.2-0.4-0.2c-0.3-0.2-0.5-0.4-0.7-0.6C93.9,90,93.8,89.9,93.7,90
			C93.7,89.9,93.6,89.9,93.7,90L93.7,90z"/>
	</g>
	<g>
		<path class="st3" d="M80.7,74.2c-0.3-0.6-0.4-1.3-0.7-1.9c-0.2-0.7-0.4-1.4-0.5-2c-0.3-1.4-0.4-2.7-0.3-4.1c0-0.3-0.4-0.4-0.4-0.1
			c-0.1,1.4,0,2.8,0.3,4.2c0.1,0.7,0.3,1.4,0.5,2c0.2,0.7,0.5,1.3,0.9,2C80.6,74.4,80.8,74.3,80.7,74.2L80.7,74.2z"/>
	</g>
	<g>
		<path class="st3" d="M130.6,48.8c0.8,1,1.6,2,2.2,3.1c0.3,0.5,0.6,1.1,0.8,1.6c0.3,0.6,0.4,1.2,0.7,1.8c0.1,0.2,0.4,0.1,0.4-0.1
			c-0.1-0.6-0.4-1.2-0.6-1.8c-0.3-0.6-0.6-1.2-0.9-1.8c-0.6-1.1-1.4-2.2-2.4-3C130.6,48.5,130.5,48.7,130.6,48.8L130.6,48.8z"/>
	</g>
	<g>
		<path class="st3" d="M131.6,58.3c0.7,4.5,1.5,9,2.3,13.5c0.1,0.6,0.2,1.3,0.3,1.9s0.2,1.3,0.3,2c0.1,0.2,0.4,0.2,0.4-0.1
			c0-0.6-0.2-1.2-0.3-1.7c-0.1-0.6-0.2-1.1-0.3-1.7c-0.2-1.1-0.4-2.3-0.6-3.4c-0.4-2.2-0.8-4.5-1.2-6.7c-0.2-1.3-0.5-2.6-0.7-3.8
			C131.8,58.1,131.5,58.1,131.6,58.3L131.6,58.3z"/>
	</g>
	<g>
		<path class="st3" d="M132.9,72c0.1,0.7,0.1,1.4,0.2,2.1c0,0.4,0.1,0.7,0.2,1.1c0.1,0.3,0.1,0.7,0.2,1c0.1,0.2,0.4,0.1,0.4-0.1
			c0-0.4-0.1-0.7-0.2-1.1c-0.1-0.3-0.1-0.7-0.2-1c-0.1-0.7-0.3-1.4-0.4-2.1C133.1,71.8,132.9,71.9,132.9,72L132.9,72z"/>
	</g>
	<path class="st2" d="M123.7,68.7l-1.1,4.8c-0.2,0.7-0.6,1.2-1.3,1.4L118,76l0.7,2.1l-6-2.9l2.9-6l0.7,2.1L120,70l-7-5.2l3-4.1
		l6.3,4.7C123.5,66.1,124,67.4,123.7,68.7z"/>
	<path class="st2" d="M113.3,56.4l0.1,6.7l-6.7,0.2l1.5-1.6l-2.8-2.7l-1.5,8.6l-5-0.9l1.4-7.7c0.2-1.3,1.2-2.3,2.4-2.6l4.7-1.2
		c0.7-0.2,1.4,0,1.9,0.5l2.5,2.4L113.3,56.4z"/>
	<path class="st2" d="M109.8,73.9l1.7,4.8l-7.4,2.6c-1.2,0.4-2.6,0.1-3.5-0.8l-3.4-3.6c-0.5-0.5-0.7-1.2-0.5-1.9l0.9-3.3l-2.1-0.6
		l5.8-3.3l3.4,5.7l-2.1-0.6l-1,3.8L109.8,73.9z"/>
	<g>
		<path class="st3" d="M97.9,72.4c-0.1,0.2-0.2,0.4-0.3,0.6c-0.1,0.2-0.2,0.4-0.2,0.6c-0.1,0.2-0.1,0.4-0.2,0.6s-0.1,0.4-0.1,0.7
			c0,0.1,0,0.2,0.1,0.2s0.2,0,0.2-0.1c0.1-0.2,0.1-0.4,0.2-0.6c0-0.2,0.1-0.4,0.2-0.6s0.1-0.4,0.2-0.6s0.1-0.4,0.2-0.6
			C98.2,72.3,98,72.2,97.9,72.4L97.9,72.4z"/>
	</g>
	<g>
		<path class="st3" d="M98.2,73.8c-0.1,0.3-0.2,0.5-0.3,0.8c-0.1,0.1-0.1,0.3-0.1,0.4s-0.1,0.3-0.1,0.4c0,0.2,0.3,0.3,0.4,0.1
			c0.1-0.1,0.1-0.3,0.1-0.4s0.1-0.3,0.1-0.4c0.1-0.3,0.1-0.5,0.2-0.8C98.5,73.7,98.3,73.6,98.2,73.8L98.2,73.8z"/>
	</g>
	<g>
		<path class="st3" d="M99.8,66c0.4-2.1,0.9-4.2,1.5-6.2c0.1-0.3-0.3-0.5-0.4-0.2c-0.6,2.1-1.1,4.2-1.3,6.3
			C99.5,66.1,99.7,66.2,99.8,66L99.8,66z"/>
	</g>
	<g>
		<path class="st3" d="M100.6,64.5c0.1-0.5,0.2-1,0.3-1.5c0.1-0.2,0.1-0.5,0.2-0.7s0.2-0.5,0.2-0.7s-0.3-0.3-0.4-0.1
			s-0.2,0.5-0.2,0.7c-0.1,0.3-0.1,0.5-0.1,0.8c-0.1,0.5-0.1,1-0.2,1.5C100.3,64.7,100.6,64.7,100.6,64.5L100.6,64.5z"/>
	</g>
	<g>
		<path class="st3" d="M100.6,58.5c0.5-0.6,1.3-0.7,2-0.5c0.7,0.1,1.4,0.5,2,0.9c1.2,0.8,2.2,1.8,3.2,2.9c0.2,0.2,0.6-0.1,0.4-0.3
			c-1.1-1.2-2.3-2.4-3.7-3.2c-1.2-0.7-3.1-1.4-4.1,0.1C100.3,58.5,100.5,58.7,100.6,58.5L100.6,58.5z"/>
	</g>
	<g>
		<path class="st3" d="M102.4,73c-0.7,1.5-1.2,3.2-1.1,4.9c0,0.8,0.3,1.6,0.7,2.3c0.3,0.6,0.9,1.2,1.5,1.3c0.3,0.1,0.4-0.3,0.1-0.5
			s-0.6-0.3-0.8-0.6c-0.2-0.2-0.4-0.5-0.5-0.8c-0.3-0.7-0.4-1.4-0.4-2.1c0-1.5,0.5-3,0.9-4.4C102.8,72.9,102.5,72.9,102.4,73
			L102.4,73z"/>
	</g>
	<g>
		<path class="st3" d="M116.5,71.4c0.4,0,0.8-0.2,1.2-0.3c0.4-0.1,0.9-0.3,1.3-0.5c0.8-0.3,1.6-0.6,2.3-1.1c1.2-0.7,2.2-2,1.7-3.5
			c-0.1-0.2-0.4-0.1-0.3,0.1c0.4,1.5-0.9,2.6-2.1,3.2c-0.7,0.3-1.3,0.6-2,0.9c-0.4,0.1-0.7,0.3-1.1,0.4s-0.8,0.2-1.2,0.4
			C116.3,71.2,116.4,71.4,116.5,71.4L116.5,71.4z"/>
	</g>
	<g>
		<path class="st3" d="M114.4,64.8c1.7,1.3,3.4,2.6,5.2,3.8c0.2,0.1,0.4-0.1,0.2-0.3c-1.7-1.3-3.4-2.5-5.2-3.7
			C114.4,64.6,114.2,64.7,114.4,64.8L114.4,64.8z"/>
	</g>
	<g>
		<path class="st3" d="M118.2,66.9c0.2,0.2,0.4,0.3,0.6,0.5s0.4,0.3,0.6,0.5c0.1,0.1,0.2,0,0.3,0c0.1-0.1,0.1-0.2,0-0.3
			c-0.2-0.2-0.4-0.3-0.7-0.4c-0.2-0.1-0.5-0.3-0.7-0.4c-0.1,0-0.1,0-0.2,0C118.1,66.8,118.1,66.9,118.2,66.9L118.2,66.9z"/>
	</g>
</g>
<g>
	<g>
		<path class="st4" d="M65.8,74.4c1.3,1,2.7,1.7,4.2,2.3c-0.1-2.2,1.3-4.2,1.3-6.4c0-2.1-1.5-4-3.3-5.2c-1.8-1.1-4-1.5-6.1-1.8
			c0.6,1,0.7,2.3,0.7,3.4s0,2.4,0.2,3.5C63.4,72,64.5,73.4,65.8,74.4z"/>
		<g>
			<path class="st3" d="M63.1,64.3c0.9,0.8,1.7,1.5,2.4,2.4c0.7,0.9,1.1,1.9,1.5,2.9c0.7,2,1.1,4.1,2.2,6c0.5,0.9,1.3,1.9,2.2,2.5
				c0.2,0.1,0.4-0.2,0.2-0.3c-0.4-0.3-0.8-0.6-1.1-1c-0.3-0.4-0.6-0.8-0.9-1.2c-0.5-0.9-0.9-1.8-1.2-2.8c-0.7-2.1-1.1-4.3-2.5-6.1
				C65.2,65.7,64.2,64.8,63.1,64.3C63.1,64,63,64.2,63.1,64.3L63.1,64.3z"/>
		</g>
		<g>
			<path class="st3" d="M69.7,68.8c-0.3,1.1-0.6,2.1-0.7,3.2s-0.2,2.2,0,3.2c0.1-0.1,0.2-0.1,0.3-0.2c-0.7-0.6-1.4-1.1-2.1-1.7
				s-1.4-1.1-2.1-1.7c-0.2-0.1-0.5,0.1-0.3,0.3c0.7,0.6,1.4,1.1,2.1,1.6s1.4,1.1,2.1,1.6c0.1,0.1,0.3,0,0.3-0.2
				c-0.2-1.1-0.1-2.1,0-3.2s0.3-2.1,0.6-3.2C70,68.8,69.8,68.7,69.7,68.8L69.7,68.8z"/>
		</g>
		<g>
			<path class="st3" d="M67.5,65.7c-0.2,0.7-0.2,1.5-0.3,2.2c0,0.8,0,1.5,0,2.3c0.1-0.1,0.2-0.1,0.3-0.2c-0.6-0.5-1.2-1-1.8-1.3
				c-0.3-0.2-0.6-0.4-1-0.5c-0.3-0.2-0.7-0.3-1-0.4c-0.2-0.1-0.3,0.3-0.1,0.4c0.3,0.2,0.7,0.3,1,0.4c0.3,0.2,0.6,0.3,0.9,0.5
				c0.6,0.4,1.2,0.8,1.7,1.3c0.1,0.1,0.3,0,0.3-0.2c0-0.7,0-1.5,0-2.2c0-0.4,0-0.7,0-1.1s0.1-0.7,0-1.1
				C67.7,65.7,67.6,65.6,67.5,65.7L67.5,65.7z"/>
		</g>
	</g>
	<g>
		<g>
			<path class="st3" d="M61.4,73.3c-1.7,0.1-3.3-0.5-4.7-1.4c-1.3-1-2.2-2.3-2.8-3.8c-0.3-0.8-0.5-1.7-0.6-2.6
				c-0.1,0.1-0.1,0.1-0.2,0.2c0.5,0.2,1,0.3,1.5,0.4s1,0.1,1.5,0.2c0.9,0.1,1.8,0.3,2.6,0.7c0.7,0.4,1.3,0.9,1.7,1.7
				c0.3,0.7,0.4,1.5,0.4,2.3c0.1,0.9,0.2,1.8,0.6,2.5c0.1,0.2,0.4,0,0.3-0.2c-0.1-0.4-0.3-0.8-0.3-1.2c-0.1-0.4-0.1-0.8-0.2-1.2
				c-0.1-0.8-0.2-1.6-0.4-2.4c-0.6-1.7-2.4-2.4-4-2.7c-0.6-0.1-1.2-0.2-1.8-0.2c-0.6-0.1-1.3-0.1-1.9-0.3c-0.1,0-0.3,0-0.3,0.2
				c0.3,3.4,2.3,6.7,5.6,7.8c0.4,0.2,0.9,0.3,1.4,0.3c0.5,0.1,1,0,1.5,0C61.6,73.5,61.6,73.3,61.4,73.3L61.4,73.3z"/>
		</g>
		<g>
			<path class="st3" d="M62.7,74c-1.3-0.8-2.6-1.7-3.7-2.7c-1.2-1-2.1-2.2-3.1-3.4c-0.1-0.1-0.3,0-0.2,0.2c0.8,1.3,1.9,2.5,3.1,3.5
				c0.6,0.5,1.2,1,1.8,1.4C61.3,73.5,61.9,73.8,62.7,74C62.7,74.3,62.8,74.1,62.7,74L62.7,74z"/>
		</g>
		<g>
			<path class="st3" d="M55.4,70.3c0.5,0.2,1,0.3,1.5,0.5c0.5,0.1,1,0.3,1.5,0.5c0.1,0,0.2-0.1,0.2-0.2c-0.3-1.1-0.6-2.3-0.9-3.4
				c0-0.2-0.3-0.1-0.3,0.1c0.3,1.2,0.6,2.3,0.9,3.5c0.1-0.1,0.1-0.1,0.2-0.2c-0.5-0.2-1-0.4-1.5-0.5S56,70.3,55.4,70.3
				C55.3,70.1,55.2,70.2,55.4,70.3L55.4,70.3z"/>
		</g>
		<g>
			<path class="st3" d="M60,72.4c0-1-0.2-2-0.4-3c0-0.2-0.3-0.2-0.3,0c0.2,1,0.2,2,0.5,3C59.8,72.5,60,72.5,60,72.4L60,72.4z"/>
		</g>
	</g>
	<g>
		<path class="st5" d="M65.9,77.6c1.3,0.4,2.4,1.1,3.6,1.7c-1.5,1-2.2,2.9-3.7,3.9s-3.5,0.9-5.1,0.2s-3-1.9-4.2-3.2
			c1-0.1,1.9-0.6,2.7-1.2s1.6-1.2,2.5-1.5C63.1,77.1,64.6,77.2,65.9,77.6z"/>
		<g>
			<path class="st3" d="M57.7,80.9c1.7,0.7,3.5,0.8,5.3,0.4c1.7-0.4,3.3-1.2,5.1-1.5c0.5-0.1,1-0.1,1.5-0.1s1,0.2,1.5,0.3
				c0.2,0.1,0.3-0.3,0.1-0.4c-0.7-0.4-1.7-0.4-2.5-0.4c-0.9,0.1-1.8,0.3-2.6,0.5c-1.7,0.5-3.3,1.2-5,1.3c-1.1,0-2.1-0.2-3.2-0.5
				C57.6,80.6,57.6,80.8,57.7,80.9L57.7,80.9z"/>
		</g>
		<g>
			<path class="st3" d="M64.2,83.1c0.6-0.6,1.2-1.3,1.9-1.9c0.7-0.6,1.4-1.2,2.2-1.5c0.2-0.1,0.2-0.3,0-0.3
				c-0.7-0.2-1.4-0.4-2.1-0.6s-1.4-0.5-2.1-0.6c-0.2,0-0.3,0.3-0.1,0.4c0.7,0.2,1.4,0.4,2.1,0.6s1.4,0.4,2.2,0.6c0-0.1,0-0.2,0-0.3
				c-0.8,0.4-1.5,0.9-2.2,1.6C65.4,81.7,64.8,82.4,64.2,83.1C63.9,83.1,64.1,83.2,64.2,83.1L64.2,83.1z"/>
		</g>
		<g>
			<path class="st3" d="M60.9,83.1c0.5-0.3,1-0.7,1.5-1.1s1-0.7,1.5-1.1c0.2-0.1,0.1-0.3-0.1-0.4c-0.6-0.1-1.2-0.3-1.7-0.6
				c-0.3-0.1-0.5-0.2-0.8-0.4c-0.3-0.1-0.5-0.3-0.8-0.5c-0.2-0.1-0.4,0.2-0.2,0.3c0.2,0.2,0.5,0.4,0.8,0.5s0.5,0.3,0.8,0.4
				c0.6,0.2,1.2,0.4,1.8,0.6c0-0.1-0.1-0.2-0.1-0.4c-0.5,0.3-1,0.7-1.5,1.1s-1,0.7-1.3,1.2C60.8,83,60.8,83.1,60.9,83.1L60.9,83.1z"
				/>
		</g>
	</g>
</g>
</svg>
