<?xml version="1.0" encoding="utf-8"?>
<!-- Generator: Adobe Illustrator 25.2.0, SVG Export Plug-In . SVG Version: 6.00 Build 0)  -->
<svg version="1.1" id="Layer_1" xmlns="http://www.w3.org/2000/svg" xmlns:xlink="http://www.w3.org/1999/xlink" x="0px" y="0px"
	 viewBox="0 0 1903.2 830.8" style="enable-background:new 0 0 1903.2 830.8;" xml:space="preserve">
<style type="text/css">
	.st0{clip-path:url(#SVGID_2_);}
	.st1{fill:#92A141;}
	.st2{clip-path:url(#SVGID_4_);}
	.st3{fill:#B6C475;}
	.st4{fill:#322B1B;}
	.st5{fill:#967C58;}
	.st6{fill:#E9E4D2;}
</style>
<g>
	<defs>
		<rect id="SVGID_1_" x="585.6" y="385.1" width="127.6" height="126.9"/>
	</defs>
	<clipPath id="SVGID_2_">
		<use xlink:href="#SVGID_1_"  style="overflow:visible;"/>
	</clipPath>
	<g class="st0">
		<path class="st1" d="M651,449.5c-5.6,0-8.6-4.4-8.6-9c0-2.4,0.8-4.4,2.2-6.2c1.6-1.8,3.8-2.8,6.6-2.8c2.6,0,5,1,6.6,2.8
			c1.4,1.6,2.2,3.8,2.2,6.2C659.9,444.9,656.9,449.5,651,449.5z M651,433.4c-4.6,0-6.8,3.6-6.8,7c0,3.4,2.2,7,6.8,7
			c4.6,0,6.8-3.6,6.8-7C657.9,437.1,655.9,433.4,651,433.4z"/>
		<path class="st1" d="M647.8,483.6c-5.6,0-8.6-4.4-8.6-9c0-2.4,0.8-4.4,2.2-6.2c1.6-1.8,3.8-2.8,6.6-2.8c2.6,0,5,1,6.6,2.8
			c1.4,1.6,2.2,3.8,2.2,6.2C656.5,479,653.5,483.6,647.8,483.6z M647.8,467.5c-4.6,0-6.8,3.6-6.8,7c0,3.4,2.2,7,6.8,7
			c4.6,0,6.8-3.6,6.8-7C654.7,471.1,652.5,467.5,647.8,467.5z"/>
		<path class="st1" d="M680.1,460.5c-5.6,0-8.6-4.4-8.6-9c0-2.4,0.8-4.4,2.2-6.2c1.6-1.8,3.8-2.8,6.6-2.8c2.6,0,5,1,6.6,2.8
			c1.4,1.6,2.2,3.8,2.2,6.2C688.8,456.1,685.8,460.5,680.1,460.5z M680.1,444.5c-4.6,0-6.8,3.6-6.8,7c0,3.4,2.2,7,6.8,7
			c4.6,0,6.8-3.6,6.8-7C686.8,448.3,684.8,444.5,680.1,444.5z"/>
		<path class="st1" d="M675.9,429c-5.6,0-8.6-4.4-8.6-9c0-2.4,0.8-4.4,2.2-6.2c1.6-1.8,3.8-2.8,6.6-2.8c2.6,0,5,1,6.6,2.8
			c1.4,1.6,2.2,3.8,2.2,6.2C684.8,424.4,681.7,429,675.9,429z M675.9,413c-4.6,0-6.8,3.6-6.8,7c0,3.4,2.2,7,6.8,7
			c4.6,0,6.8-3.6,6.8-7C682.8,416.6,680.7,413,675.9,413z"/>
		<path class="st1" d="M643,417.6c-5.6,0-8.6-4.4-8.6-9c0-2.4,0.8-4.4,2.2-6.2c1.6-1.8,3.8-2.8,6.6-2.8c2.6,0,5,1,6.6,2.8
			c1.4,1.6,2.2,3.8,2.2,6.2C651.6,413,648.6,417.6,643,417.6z M643,401.6c-4.6,0-6.8,3.6-6.8,7c0,3.4,2.2,7,6.8,7
			c4.6,0,6.8-3.6,6.8-7C649.6,405.2,647.6,401.6,643,401.6z"/>
		<path class="st1" d="M621.3,437.9c-5.6,0-8.6-4.4-8.6-9c0-2.4,0.8-4.4,2.2-6.2c1.6-1.8,3.8-2.8,6.6-2.8c2.6,0,5,1,6.6,2.8
			c1.4,1.6,2.2,3.8,2.2,6.2C630.2,433.4,627.2,437.9,621.3,437.9z M621.3,421.8c-4.6,0-6.8,3.6-6.8,7c0,3.4,2.2,7,6.8,7
			c4.6,0,6.8-3.6,6.8-7C628.2,425.6,626.2,421.8,621.3,421.8z"/>
		<path class="st1" d="M619.5,466.1c-5.6,0-8.6-4.4-8.6-9c0-2.4,0.8-4.4,2.2-6.2c1.6-1.8,3.8-2.8,6.6-2.8c2.6,0,5,1,6.6,2.8
			c1.4,1.6,2.2,3.8,2.2,6.2C628.4,461.5,625.4,466.1,619.5,466.1z M619.5,450.1c-4.6,0-6.8,3.6-6.8,7s2.2,7,6.8,7
			c4.6,0,6.8-3.6,6.8-7S624.2,450.1,619.5,450.1z"/>
		<path class="st1" d="M617.3,503.2c-5.6,0-8.6-4.4-8.6-9c0-2.4,0.8-4.4,2.2-6.2c1.6-1.8,3.8-2.8,6.6-2.8c2.6,0,5,1,6.6,2.8
			c1.4,1.6,2.2,3.8,2.2,6.2C626,498.6,623.2,503.2,617.3,503.2z M617.3,487.2c-4.6,0-6.8,3.6-6.8,7c0,3.4,2.2,7,6.8,7
			c4.6,0,6.8-3.6,6.8-7C624.2,490.8,621.9,487.2,617.3,487.2z"/>
		<path class="st1" d="M655.5,512c-1.2,0-2.4-0.2-3.4-0.8c-1-0.4-2-1-2.8-1.8c-0.8-0.8-1.4-1.8-1.8-3c-0.6-1-0.8-2.2-0.8-3.4v-0.8
			c0-1.6,0.4-3.2,1.2-4.6l1.4-1.8c1.2-1.2,2.6-2,4-2.4l2.2-0.4c1.4,0,2.6,0.2,3.6,0.8c1,0.4,2,1,2.8,1.8c0.8,0.8,1.4,1.8,1.8,2.8
			c0.6,1,0.8,2.2,0.8,3.4v0.8c0,1.6-0.4,3.2-1.2,4.6l-1.2,2.2c-1.2,1.2-2.6,2-4,2.4l-2.2,0.4C655.7,512,655.5,512,655.5,512z
			 M655.9,495.4h-0.2l-2,0.2c-1,0.4-2,1-3,1.8l-1.2,1.6c-0.6,1-0.8,2.2-0.8,3.4v0.8c0,1,0.2,1.8,0.6,2.6c0.4,1,0.8,1.6,1.4,2.4
			c0.6,0.8,1.4,1.2,2.2,1.4c1,0.4,1.8,0.6,2.8,0.6l2-0.2c1-0.4,2-1,3-1.8l1.2-1.6c0.6-1,0.8-2.2,0.8-3.4v-0.8c0-1-0.2-1.8-0.6-2.6
			v-0.2c-0.2-0.8-0.8-1.6-1.4-2.2c-0.6-0.8-1.4-1.2-2.2-1.4C657.5,495.6,656.7,495.4,655.9,495.4z"/>
		<path class="st1" d="M682.4,495.8c-5.6,0-8.6-4.4-8.6-9c0-2.4,0.8-4.4,2.2-6.2c1.6-1.8,3.8-2.8,6.6-2.8c2.6,0,5,1,6.6,2.8
			c1.4,1.6,2.2,3.8,2.2,6.2C691,491.2,688,495.8,682.4,495.8z M682.4,479.8c-4.6,0-6.8,3.6-6.8,7c0,3.4,2.2,7,6.8,7s6.8-3.6,6.8-7
			C689.2,483.4,687,479.8,682.4,479.8z"/>
		<path class="st1" d="M704.2,461.7c-5.6,0-8.6-4.4-8.6-9c0-2.4,0.8-4.4,2.2-6.2c1.6-1.8,3.8-2.8,6.6-2.8c2.6,0,5,1,6.6,2.8
			c1.4,1.6,2.2,3.8,2.2,6.2C712.9,457.1,709.8,461.7,704.2,461.7z M704.2,445.7c-4.6,0-6.8,3.6-6.8,7c0,3.4,2.2,7,6.8,7
			c4.6,0,6.8-3.6,6.8-7C711,449.3,708.8,445.7,704.2,445.7z"/>
		<path class="st1" d="M704.6,426c-5.6,0-8.6-4.4-8.6-9c0-2.4,0.8-4.4,2.2-6.2c1.6-1.8,3.8-2.8,6.6-2.8c2.6,0,5,1,6.6,2.8
			c1.4,1.6,2.2,3.8,2.2,6.2C713.3,421.6,710.2,426,704.6,426z M704.6,410c-4.6,0-6.8,3.6-6.8,7c0,3.4,2.2,7,6.8,7
			c4.6,0,6.8-3.6,6.8-7C711.4,413.6,709.2,410,704.6,410z"/>
		<path class="st1" d="M666.3,403c-5.6,0-8.6-4.4-8.6-9c0-2.4,0.8-4.4,2.2-6.2c1.6-1.6,3.8-2.6,6.4-2.6c2.6,0,5,1,6.6,2.8
			c1.4,1.6,2.2,3.8,2.2,6.2C675.1,398.6,672.1,403,666.3,403z M666.3,387.1c-4.6,0-6.8,3.6-6.8,7c0,3.4,2.2,7,6.8,7
			c4.6,0,6.8-3.6,6.8-7C673.1,390.7,670.9,387.1,666.3,387.1z"/>
		<path class="st1" d="M616.3,407.2c-5.6,0-8.6-4.4-8.6-9c0-2.4,0.8-4.4,2.2-6.2c1.4-1.8,3.6-2.8,6.4-2.8c2.6,0,5,1,6.6,2.8
			c1.4,1.6,2.2,3.8,2.2,6.2C625,402.6,621.9,407.2,616.3,407.2z M616.3,391.1c-4.6,0-6.8,3.6-6.8,7c0,3.4,2.2,7,6.8,7
			c4.6,0,6.8-3.6,6.8-7C623,394.7,620.9,391.1,616.3,391.1z"/>
		<path class="st1" d="M598.1,446.5c-5.6,0-8.6-4.4-8.6-9c0-2.4,0.8-4.4,2.2-6.2c1.6-1.8,3.8-2.8,6.6-2.8c2.6,0,5,1,6.6,2.8
			c1.4,1.6,2.2,3.8,2.2,6.2C606.7,441.9,603.7,446.5,598.1,446.5z M598.1,430.4c-4.6,0-6.8,3.6-6.8,7c0,3.4,2.2,7,6.8,7
			c4.6,0,6.8-3.6,6.8-7C604.9,434,602.7,430.4,598.1,430.4z"/>
		<path class="st1" d="M594.3,481c-5.6,0-8.6-4.4-8.6-9c0-4.4,3-9,8.6-9c2.6,0,5,1,6.6,2.8c1.4,1.6,2.2,3.8,2.2,6.2
			C603.1,476.3,600.1,481,594.3,481z M594.3,464.9c-4.6,0-6.6,3.6-6.6,7c0,1.8,0.6,3.6,1.6,4.8c1.2,1.4,3,2.2,5,2.2
			c4.6,0,6.8-3.6,6.8-7C601.1,468.5,599.1,464.9,594.3,464.9z"/>
	</g>
</g>
<g>
	<defs>
		<rect id="SVGID_3_" x="1260.7" y="486.6" width="136.9" height="136.2"/>
	</defs>
	<clipPath id="SVGID_4_">
		<use xlink:href="#SVGID_3_"  style="overflow:visible;"/>
	</clipPath>
	<g class="st2">
		<path class="st1" d="M1330.8,555.7c-6,0-9.3-4.7-9.3-9.7c0-2.6,0.9-4.7,2.4-6.7c1.7-1.9,4.1-3,7.1-3c2.8,0,5.4,1.1,7.1,3
			c1.5,1.7,2.4,4.1,2.4,6.7C1340.3,550.7,1337.1,555.7,1330.8,555.7z M1330.8,538.5c-5,0-7.3,3.9-7.3,7.5c0,3.7,2.4,7.5,7.3,7.5
			c5,0,7.3-3.9,7.3-7.5C1338.2,542.3,1336,538.5,1330.8,538.5z"/>
		<path class="st1" d="M1327.4,592.2c-6,0-9.3-4.7-9.3-9.7c0-2.6,0.9-4.7,2.4-6.7c1.7-1.9,4.1-3,7.1-3c2.8,0,5.4,1.1,7.1,3
			c1.5,1.7,2.4,4.1,2.4,6.7C1336.7,587.3,1333.4,592.2,1327.4,592.2z M1327.4,575c-5,0-7.3,3.9-7.3,7.5c0,3.7,2.4,7.5,7.3,7.5
			s7.3-3.9,7.3-7.5C1334.7,578.9,1332.4,575,1327.4,575z"/>
		<path class="st1" d="M1362.1,567.5c-6,0-9.3-4.7-9.3-9.7c0-2.6,0.9-4.7,2.4-6.7c1.7-1.9,4.1-3,7.1-3c2.8,0,5.4,1.1,7.1,3
			c1.5,1.7,2.4,4.1,2.4,6.7C1371.3,562.8,1368.1,567.5,1362.1,567.5z M1362.1,550.3c-5,0-7.3,3.9-7.3,7.5c0,3.7,2.4,7.5,7.3,7.5
			s7.3-3.9,7.3-7.5C1369.2,554.4,1367,550.3,1362.1,550.3z"/>
		<path class="st1" d="M1357.5,533.7c-6,0-9.3-4.7-9.3-9.7c0-2.6,0.9-4.7,2.4-6.7c1.7-1.9,4.1-3,7.1-3c2.8,0,5.4,1.1,7.1,3
			c1.5,1.7,2.4,4.1,2.4,6.7C1367,528.8,1363.8,533.7,1357.5,533.7z M1357.5,516.5c-5,0-7.3,3.9-7.3,7.5c0,3.7,2.4,7.5,7.3,7.5
			c5,0,7.3-3.9,7.3-7.5C1364.9,520.4,1362.7,516.5,1357.5,516.5z"/>
		<path class="st1" d="M1322.2,521.5c-6,0-9.3-4.7-9.3-9.7c0-2.6,0.9-4.7,2.4-6.7c1.7-1.9,4.1-3,7.1-3c2.8,0,5.4,1.1,7.1,3
			c1.5,1.7,2.4,4.1,2.4,6.7C1331.5,516.5,1328.3,521.5,1322.2,521.5z M1322.2,504.3c-5,0-7.3,3.9-7.3,7.5c0,3.7,2.4,7.5,7.3,7.5
			s7.3-3.9,7.3-7.5C1329.3,508.1,1327.2,504.3,1322.2,504.3z"/>
		<path class="st1" d="M1299,543.2c-6,0-9.3-4.7-9.3-9.7c0-2.6,0.9-4.7,2.4-6.7c1.7-1.9,4.1-3,7.1-3c2.8,0,5.4,1.1,7.1,3
			c1.5,1.7,2.4,4.1,2.4,6.7C1308.5,538.5,1305.2,543.2,1299,543.2z M1299,526c-5,0-7.3,3.9-7.3,7.5c0,3.7,2.4,7.5,7.3,7.5
			c5,0,7.3-3.9,7.3-7.5C1306.3,530.1,1304.2,526,1299,526z"/>
		<path class="st1" d="M1297,573.5c-6,0-9.3-4.7-9.3-9.7c0-2.6,0.9-4.7,2.4-6.7c1.7-1.9,4.1-3,7.1-3c2.8,0,5.4,1.1,7.1,3
			c1.5,1.7,2.4,4.1,2.4,6.7C1306.5,568.6,1303.3,573.5,1297,573.5z M1297,556.3c-5,0-7.3,3.9-7.3,7.5c0,3.7,2.4,7.5,7.3,7.5
			c5,0,7.3-3.9,7.3-7.5C1304.4,560.2,1302,556.3,1297,556.3z"/>
		<path class="st1" d="M1294.7,613.3c-6,0-9.3-4.7-9.3-9.7c0-2.6,0.9-4.7,2.4-6.7c1.7-1.9,4.1-3,7.1-3c2.8,0,5.4,1.1,7.1,3
			c1.5,1.7,2.4,4.1,2.4,6.7C1303.9,608.4,1300.9,613.3,1294.7,613.3z M1294.7,596.1c-5,0-7.3,3.9-7.3,7.5c0,3.7,2.4,7.5,7.3,7.5
			c5,0,7.3-3.9,7.3-7.5C1302,600,1299.6,596.1,1294.7,596.1z"/>
		<path class="st1" d="M1335.6,622.8c-1.3,0-2.6-0.2-3.7-0.9c-1.1-0.4-2.2-1.1-3-1.9c-0.9-0.9-1.5-1.9-1.9-3.2
			c-0.6-1.1-0.9-2.4-0.9-3.7v-0.9c0-1.7,0.4-3.4,1.3-4.9l1.5-1.9c1.3-1.3,2.8-2.2,4.3-2.6l2.4-0.4c1.5,0,2.8,0.2,3.9,0.9
			c1.1,0.4,2.2,1.1,3,1.9c0.9,0.9,1.5,1.9,1.9,3c0.6,1.1,0.9,2.4,0.9,3.7v0.9c0,1.7-0.4,3.4-1.3,4.9l-1.3,2.4
			c-1.3,1.3-2.8,2.2-4.3,2.6l-2.4,0.4C1335.8,622.8,1335.6,622.8,1335.6,622.8z M1336,604.9h-0.2l-2.2,0.2c-1.1,0.4-2.2,1.1-3.2,1.9
			l-1.3,1.7c-0.6,1.1-0.9,2.4-0.9,3.7v0.9c0,1.1,0.2,1.9,0.6,2.8c0.4,1.1,0.9,1.7,1.5,2.6c0.6,0.9,1.5,1.3,2.4,1.5
			c1.1,0.4,1.9,0.6,3,0.6l2.2-0.2c1.1-0.4,2.2-1.1,3.2-1.9l1.3-1.7c0.6-1.1,0.9-2.4,0.9-3.7v-0.9c0-1.1-0.2-1.9-0.6-2.8v-0.2
			c-0.2-0.9-0.9-1.7-1.5-2.4c-0.6-0.9-1.5-1.3-2.4-1.5C1337.7,605.1,1336.9,604.9,1336,604.9z"/>
		<path class="st1" d="M1364.4,605.4c-6,0-9.3-4.7-9.3-9.7c0-2.6,0.9-4.7,2.4-6.7c1.7-1.9,4.1-3,7.1-3c2.8,0,5.4,1.1,7.1,3
			c1.5,1.7,2.4,4.1,2.4,6.7C1373.7,600.4,1370.5,605.4,1364.4,605.4z M1364.4,588.2c-5,0-7.3,3.9-7.3,7.5c0,3.7,2.4,7.5,7.3,7.5
			c4.9,0,7.3-3.9,7.3-7.5C1371.8,592,1369.4,588.2,1364.4,588.2z"/>
		<path class="st1" d="M1387.9,568.8c-6,0-9.3-4.7-9.3-9.7c0-2.6,0.9-4.7,2.4-6.7c1.7-1.9,4.1-3,7.1-3c2.8,0,5.4,1.1,7.1,3
			c1.5,1.7,2.4,4.1,2.4,6.7C1397.2,563.8,1393.9,568.8,1387.9,568.8z M1387.9,551.6c-5,0-7.3,3.9-7.3,7.5c0,3.7,2.4,7.5,7.3,7.5
			c5,0,7.3-3.9,7.3-7.5C1395.2,555.5,1392.9,551.6,1387.9,551.6z"/>
		<path class="st1" d="M1388.3,530.5c-6,0-9.3-4.7-9.3-9.7c0-2.6,0.9-4.7,2.4-6.7c1.7-1.9,4.1-3,7.1-3c2.8,0,5.4,1.1,7.1,3
			c1.5,1.7,2.4,4.1,2.4,6.7C1397.6,525.8,1394.4,530.5,1388.3,530.5z M1388.3,513.3c-5,0-7.3,3.9-7.3,7.5c0,3.7,2.4,7.5,7.3,7.5
			c5,0,7.3-3.9,7.3-7.5C1395.7,517.2,1393.3,513.3,1388.3,513.3z"/>
		<path class="st1" d="M1347.2,505.8c-6,0-9.3-4.7-9.3-9.7c0-2.6,0.9-4.7,2.4-6.7c1.7-1.7,4.1-2.8,6.9-2.8c2.8,0,5.4,1.1,7.1,3
			c1.5,1.7,2.4,4.1,2.4,6.7C1356.7,501,1353.5,505.8,1347.2,505.8z M1347.2,488.8c-5,0-7.3,3.9-7.3,7.5c0,3.7,2.4,7.5,7.3,7.5
			s7.3-3.9,7.3-7.5C1354.5,492.6,1352.2,488.8,1347.2,488.8z"/>
		<path class="st1" d="M1293.6,510.3c-6,0-9.3-4.7-9.3-9.7c0-2.6,0.9-4.7,2.4-6.7c1.5-1.9,3.9-3,6.9-3c2.8,0,5.4,1.1,7.1,3
			c1.5,1.7,2.4,4.1,2.4,6.7C1302.9,505.3,1299.6,510.3,1293.6,510.3z M1293.6,493.1c-5,0-7.3,3.9-7.3,7.5c0,3.7,2.4,7.5,7.3,7.5
			c5,0,7.3-3.9,7.3-7.5C1300.7,496.9,1298.6,493.1,1293.6,493.1z"/>
		<path class="st1" d="M1274,552.4c-6,0-9.3-4.7-9.3-9.7c0-2.6,0.9-4.7,2.4-6.7c1.7-1.9,4.1-3,7.1-3c2.8,0,5.4,1.1,7.1,3
			c1.5,1.7,2.4,4.1,2.4,6.7C1283.3,547.5,1280,552.4,1274,552.4z M1274,535.2c-5,0-7.3,3.9-7.3,7.5c0,3.7,2.4,7.5,7.3,7.5
			c5,0,7.3-3.9,7.3-7.5C1281.3,539.1,1279,535.2,1274,535.2z"/>
		<path class="st1" d="M1269.9,589.4c-6,0-9.3-4.7-9.3-9.7c0-4.7,3.2-9.7,9.3-9.7c2.8,0,5.4,1.1,7.1,3c1.5,1.7,2.4,4.1,2.4,6.7
			C1279.4,584.5,1276.2,589.4,1269.9,589.4z M1269.9,572.2c-5,0-7.1,3.9-7.1,7.5c0,1.9,0.6,3.9,1.7,5.2c1.3,1.5,3.2,2.4,5.4,2.4
			c5,0,7.3-3.9,7.3-7.5S1275.1,572.2,1269.9,572.2z"/>
	</g>
</g>
<path class="st3" d="M1825.9,385.7c3.6,2.6,8.3,2.8,12.7,2.9c1.8,0.1,3.6,0.1,5.4,0.1c8.4,0.2,16.7,0.6,25.2,0.8
	c-9.9-9.6-23.4-15.3-37.2-15.6c-1.7,0-3.5,0-5.2,0.6c-1.7,0.6-3.1,1.7-3.8,3.4C1821.7,380.6,1823.4,384,1825.9,385.7z"/>
<path class="st3" d="M1834.8,396.3c-1.2,2.8,0.6,6,3,7.8c3.6,2.6,8.3,2.8,12.7,2.9s8.8,0.2,13.1,0.4c5.8,0.2,11.6,0.3,17.4,0.6
	c-9.8-9.6-23.4-15.3-37.2-15.6c-1.8,0-3.5,0-5.2,0.6C1837,393.6,1835.5,394.7,1834.8,396.3z"/>
<path class="st3" d="M1897.9,369.3c-0.2-1.5-0.7-3-1.6-4.1c-0.9-1.2-2.3-2.1-3.7-2.3c-1.8-0.1-3.6,0.9-4.8,2.3
	c-0.5,0.6-0.8,1.1-1.1,1.8c-0.6,1-0.9,2.1-1.2,3.2c-3.7,12-5.1,24.7-3.9,37.3c2-6.6,6.5-12.2,10.2-18c1.7-2.6,3.1-5.3,4.3-8.1
	C1897.7,377.5,1898.4,373.4,1897.9,369.3z"/>
<path class="st3" d="M1886,350.9c-0.2-1.5-0.7-2.9-1.6-4.1c-0.9-1.2-2.3-2.1-3.7-2.4c-1.8-0.2-3.6,0.9-4.8,2.4
	c-1.1,1.5-1.8,3.2-2.4,5c-3.6,11.9-4.9,24.6-3.8,37.2c2-6.6,6.5-12.2,10.2-18c0.7-1.1,1.5-2.4,2.1-3.5
	C1884.9,362.3,1886.9,356.6,1886,350.9z"/>
<path class="st3" d="M1863.3,351.9c-0.4-5.4-0.9-10.9-3.4-15.6c-1.1-2.2-2.9-4.3-5.3-4.8c-3.4-0.8-6.7,2-7.9,5.4
	c-1,3.4-0.3,6.9,0.6,10.3c3.5,12.8,9.8,24.8,18.3,34.9C1864.9,372.1,1864.1,362,1863.3,351.9z"/>
<path class="st3" d="M1848.5,416c-0.9,2.9,1.1,6,3.7,7.5c3.8,2.2,8.5,2,12.9,1.7c10.2-0.6,20.3-1.2,30.6-1.9
	c-9-7.3-20.4-11.5-32.1-12.1c-2.1-0.1-4.3-0.1-6.4,0.1c-1.7,0.1-3.5,0.3-5.1,1C1850.4,413,1849,414.4,1848.5,416z"/>
<path class="st3" d="M1896.4,385.2c-2.6,12.3-2.7,25.1-0.3,37.5c1.5-6.7,5.3-12.8,8.4-18.9c3.3-6.4,5.9-13.7,4.2-20.6
	c-0.3-1.5-1-2.9-1.9-4c-0.9-1.1-2.4-1.9-3.9-1.9c-1.9,0-3.5,1.2-4.5,2.8c-0.3,0.6-0.7,1.2-0.9,1.8
	C1896.9,382.8,1896.7,384.1,1896.4,385.2z"/>
<path class="st4" d="M1905.6,432.1c-1.2-1.1-2.4-2.3-3.6-3.5c-1.2-1.1-2.4-2.2-3.6-3.5c-2.4-2.4-4.7-4.7-7-7.2
	c-4.5-4.9-8.5-10.1-12.4-15.4c-7.6-10.9-13.8-22.6-18.5-35c-2.7-6.9-4.7-14.1-6.5-21.4c-0.1-0.7-1.1-0.3-0.9,0.2
	c2.6,13.1,7.3,25.7,13.4,37.6c6.1,11.9,13.6,22.9,22.4,32.9c2.5,2.8,5.1,5.6,7.8,8.2c1.3,1.3,2.7,2.6,4.2,3.8
	c1.5,1.2,2.9,2.3,4.4,3.6C1905.5,432.7,1905.9,432.4,1905.6,432.1z"/>
<path class="st4" d="M1877.6,354.7c-0.8,2.2-1.7,4.4-2.4,6.7c-0.7,2.2-1.4,4.5-1.9,6.8c-1.1,4.5-2,9.1-2.8,13.8
	c-0.2,1.1-0.3,2.2-0.4,3.5c-0.1,0.6-0.1,1.1-0.2,1.7c-0.1,0.6,0,1.5-0.8,1.5c-0.4,0-0.9-0.2-1.3-0.3c-0.6-0.2-1.1-0.4-1.7-0.7
	c-1.1-0.4-2.3-0.8-3.4-1.2c-4.2-1.6-8.6-2.7-13.1-3.6c-5.1-1-10.2-1.6-15.4-1.8c-0.6,0-0.6,0.9,0,0.9c9.7,0.4,19.1,2.1,28.3,5.1
	c1.1,0.3,2.3,0.8,3.4,1.1c1,0.3,2,1,3.1,1.1c0.8,0.1,1.5-0.1,1.8-0.9c0.2-0.4,0.2-1,0.2-1.6c0.1-0.7,0.1-1.2,0.2-1.9
	c0.7-4.8,1.6-9.6,2.7-14.4c0.7-2.7,1.4-5.4,2-7.9c0.3-1.2,0.8-2.6,1.1-3.8c0.4-1.3,0.7-2.7,1.1-4
	C1878.1,354.6,1877.7,354.5,1877.6,354.7z"/>
<path class="st4" d="M1845.7,399.7c2.1,0.9,4.4,1.2,6.6,1.6c2.5,0.2,4.8,0.6,7.3,1c4.8,0.8,9.5,1.9,14.3,3.2c2.7,0.8,5.4,1.7,8,2.6
	c0.3,0.1,0.6-0.2,0.6-0.4c0-2.3,0.7-4.7,1.3-6.9c0.7-2.2,1.5-4.5,2.2-6.7c1.6-4.6,3.1-9.1,4.7-13.5c0.9-2.6,1.8-5.1,2.8-7.7
	c0.2-0.6-0.7-0.8-0.9-0.2c-3.4,9.1-6.6,18.2-9.5,27.4c-0.8,2.5-1.5,5-1.6,7.7c0.2-0.1,0.4-0.3,0.6-0.4c-9.1-3.4-18.5-5.6-28.2-6.7
	c-2.7-0.3-5.4-0.3-8-1.3C1845.7,399.1,1845.3,399.6,1845.7,399.7z"/>
<path class="st4" d="M1902.2,388.2c-0.8,2.1-1.6,4.4-2.1,6.6c-0.6,2.2-1,4.6-1.5,6.9c-0.8,4.5-1.3,9.1-1.9,13.7
	c-0.3,2.8-0.7,5.5-1,8.3c0.2-0.1,0.4-0.3,0.6-0.4c-9.4-2.4-19-4-28.6-4.9c-2.8-0.3-5.5-0.6-8.3-0.7c-0.7,0-0.7,0.9,0,1
	c9.7,0.6,19.2,1.9,28.8,3.8c2.7,0.6,5.4,1.1,8,1.8c0.3,0.1,0.6-0.1,0.6-0.4c1.1-9.3,1.9-18.7,3.9-27.8c0.6-2.6,1.2-5,2-7.5
	C1902.8,388,1902.3,387.9,1902.2,388.2z"/>
<path class="st3" d="M1720.9,278.2c6.6-23.5,8.2-48.6,16.9-71.6c11.9-31.2,37-57.1,67.9-69.5v0.3c-16.4,32.2-12.7,72.4-31.5,103.6
	C1762.6,259.7,1742.8,273.7,1720.9,278.2z"/>
<path class="st3" d="M1760.5,60.9c15.9-15.6,39.6-23,61.6-19c20.9,3.7,38.6,16.7,55.5,29.3C1839.3,83.7,1796.2,80,1760.5,60.9z"/>
<path class="st3" d="M1828.2,112c-35.7,28.3-81.7,43.3-127.4,41.5c3.4-4,6.6-7.9,10-12.2c11.6-14.3,23.8-28.5,39.9-37.3
	c24-13,55.5-10.6,77.2,5.8l2.4,1.3c-0.5,0.8-0.8,1.9-1.3,2.6c-0.3-0.5-0.5-1.1-0.5-1.6L1828.2,112z"/>
<path class="st3" d="M1807.3,261.6c-5.6-50,1.8-101.5,21.9-147.7c10.3,25.9,20.3,53.1,18,80.9
	C1844.6,221.4,1829.5,246.8,1807.3,261.6z"/>
<path class="st3" d="M1878.7,70.7c10.6,11.6,14.8,28,14,43.6c-0.5,15.6-5.5,30.9-11.1,45.5c-5.6,14.8-11.9,29.3-15.3,44.4
	c-11.1-21.1-15.9-45.7-13.5-69.5C1855.2,111.7,1864.1,89,1878.7,70.7z"/>
<path class="st4" d="M1908.3,56.7c-14.5,6.1-28.3,14.5-41.2,23.5c-12.9,9-25.4,19-37.3,29.9c-23.3,21.4-43.6,46-60,73.2
	c-9.3,15.3-17.2,31.2-23.5,47.8c-0.3,0.8,1.1,1.6,1.6,0.5c12.7-28.5,28.5-56,48.1-80.6c19.6-24.6,42.3-46.5,67.9-64.8
	c7.1-5.3,14.5-10,22.2-14.8c7.7-4.8,15.3-8.7,23-13.5C1909.9,57.8,1909.3,56.2,1908.3,56.7z"/>
<path class="st4" d="M1817.4,241.5c5.3-16.4,9.3-32.8,11.6-49.7c2.4-16.9,3.4-33.8,2.9-50.7c-0.3-9.5-0.8-19-1.8-28.5
	c0-0.8-0.5-1.6-1.6-1.6c-24.3,0.8-48.9,1.6-72.4,8.5c-6.6,1.9-13,4.5-19,7.4c-1.6,0.8-0.3,3.2,1.3,2.4c21.7-10.6,46-13.5,69.8-14.5
	c6.9-0.3,13.5-0.5,20.3-0.8c-0.5-0.5-1-1.1-1.6-1.6c3.7,33.6,2.1,67.7-4.5,101c-1.8,9.3-4,18.8-6.6,28
	C1815.8,242.3,1817.1,242.5,1817.4,241.5z"/>
<path class="st4" d="M1861.2,173.5c1.3-3.4,2.6-6.6,4-10c1.1-3.4,2.1-6.9,3.2-10.3c1.8-6.9,3.4-13.5,4.8-20.4
	c2.6-13.7,4.5-27.8,6.1-41.8c0.5-3.4,0.8-7.1,1.1-10.6c0.3-2.9,1.1-6.3-0.5-9c-1.6-2.4-4.8-3.7-7.1-5c-2.6-1.6-5.6-2.9-8.5-4.2
	c-11.9-5-24.3-7.9-37-9.8c-14.5-2.1-29.1-2.9-43.9-3.2c-1.8,0-1.6,2.6,0,2.6c12.7,0.8,25.1,1.1,37.8,2.4c12.4,1.3,24.6,3.7,36.2,8.2
	c5.8,2.1,11.6,4.8,16.9,7.9c1.1,0.8,2.4,1.3,3.2,2.6c0.8,1.6,0.5,3.4,0.3,5c-0.3,3.4-0.8,6.6-1.1,10c-1.6,13.5-3.2,27.2-5.6,40.7
	c-1.3,7.4-2.9,14.8-4.8,22.2c-0.8,3.7-1.8,7.1-2.9,10.8s-2.1,7.7-3.4,11.4C1859.6,173.8,1861,174.1,1861.2,173.5z"/>
<path class="st4" d="M79.7,271.3c3-1.1,6.1-2.2,9.1-4c2.3-1.3,4.8-3.1,6.9-4.9c4.3-3.8,8.1-8.2,11.2-13.4c6.8-11,9.5-24.2,8.8-37.2
	c-0.4-7.8-2.2-15.8-5-23.3c-0.3-0.7-1.2-1.1-1.9-0.4c-2.7,2.5-5.7,4.8-8.9,6.6c-3,2.5-6,4.3-8.9,6.2c-5.5,3.6-11,7.4-15.5,12.4
	c-4,4.7-7.3,10.3-7.9,16.5c-0.6,6.4,1.1,13,3.3,19.1c1.4,3.5,2.7,7,3.9,10.5c1.1,3.7,2,7.5,2.5,11.3c0.1,1.4,2.2,1.3,2.4-0.1
	c0.4-6.4-2.1-13-4.3-18.8c-2.2-6.1-4.7-12.1-4.7-18.5c-0.2-13.5,11.2-22.6,21.3-29.6c3.2-2.1,6.7-4.1,9.9-6.4
	c3.2-2.3,6.2-4.8,9.1-7.6c-0.7-0.2-1.2-0.2-1.9-0.4c4.2,12.6,6.1,26.5,3.4,39.7c-2.3,11-7.7,21.5-15.8,29.5
	c-4.7,4.8-10.5,8.6-16.5,11.3C78.7,270.4,79,271.6,79.7,271.3z"/>
<path class="st4" d="M74.6,279.9c2.9-3.5,5.6-7.2,8-11.1c2.4-3.9,4.6-8.1,6.5-12.2c3.9-8.3,7.2-16.7,9.4-25.6
	c1.2-5,2.3-10.3,2.8-15.6c0.2-1.2-1.5-1.6-1.7-0.4c-1.7,8.9-3.9,17.5-6.8,26c-3.1,8.7-6.7,17-11.3,24.8c-2.6,4.4-5,8.8-7.9,13
	C73,279.8,74,280.7,74.6,279.9z"/>
<path class="st4" d="M109.3,228.5c-3.5,2.1-6.4,4.8-9.4,7.4c-2.9,2.8-5.9,5.5-8.6,8.5c0.5,0.2,1,0.2,1.7,0.4
	c-1.9-8.7-3.5-17.6-5.4-26.3c-0.3-1.2-1.9-0.6-1.6,0.6c1.6,8.7,3.5,17.6,5.1,26.3c0,0.7,1.2,0.9,1.7,0.4c2.7-2.7,5.9-5.5,8.6-8
	c2.9-2.8,6.2-5.1,8.6-8C110.8,228.9,110,228,109.3,228.5z"/>
<path class="st4" d="M87.1,258.6c-1.8-7.3-4.5-14.5-6.8-21.7c-0.3-1.2-2.2-0.6-1.6,0.6c2.3,7.2,4.3,14.7,7.5,21.7
	C86.2,259.6,87.4,259.3,87.1,258.6z"/>
<path class="st4" d="M1725.3,567.1c-3.3-1-6.6-2-10-3.7c-2.6-1.2-5.4-3-7.7-4.7c-4.9-3.8-9.3-8.3-12.9-13.6
	c-8-11.4-11.8-25.3-11.9-39.3c-0.1-8.4,1.3-17.1,3.8-25.2c0.3-0.8,1.3-1.3,2-0.5c3.1,2.5,6.4,4.8,10,6.5c3.3,2.5,6.7,4.2,10,6
	c6.1,3.5,12.3,7.2,17.4,12.3c4.6,4.8,8.5,10.6,9.6,17.2c1.1,6.9-0.3,14-2.3,20.6c-1.2,3.8-2.5,7.7-3.4,11.5c-1,4.1-1.7,8.2-1.9,12.2
	c0,1.5-2.3,1.6-2.5,0c-0.8-6.9,1.4-14,3.3-20.4c2-6.6,4.2-13.3,3.8-20.1c-0.7-14.5-13.5-23.5-24.8-30.2c-3.6-2-7.4-4-11-6.2
	c-3.6-2.2-6.9-4.8-10.3-7.5c0.8-0.3,1.3-0.3,2-0.5c-3.7,13.8-4.7,28.8-1,42.8c3.2,11.7,9.7,22.5,18.9,30.6c5.4,4.8,11.8,8.5,18.5,11
	C1726.3,566,1726.1,567.3,1725.3,567.1z"/>
<path class="st4" d="M1731.3,575.9c-3.4-3.5-6.5-7.3-9.3-11.3c-2.9-4-5.4-8.3-7.8-12.6c-4.7-8.6-8.9-17.4-11.8-26.8
	c-1.6-5.3-3.2-10.9-4-16.5c-0.3-1.3,1.5-1.8,1.8-0.5c2.4,9.4,5.3,18.5,9,27.4c3.9,9.1,8.4,17.7,13.8,25.8c3.1,4.5,6,9.1,9.3,13.4
	C1733,575.6,1732,576.6,1731.3,575.9z"/>
<path class="st4" d="M1690.7,523.2c3.8,2,7.2,4.7,10.5,7.3c3.3,2.8,6.7,5.5,9.8,8.5c-0.5,0.3-1,0.3-1.8,0.5c1.4-9.4,2.6-19.1,4-28.5
	c0.2-1.3,2-0.8,1.8,0.5c-1.2,9.4-2.6,19.1-3.7,28.5c0,0.8-1.3,1-1.8,0.5c-3.1-2.8-6.7-5.5-9.8-8c-3.3-2.8-6.9-5-9.8-8
	C1689.2,523.7,1689.9,522.7,1690.7,523.2z"/>
<path class="st4" d="M1716.5,553.9c1.4-7.9,3.9-15.8,5.8-23.7c0.2-1.3,2.3-0.8,1.8,0.5c-1.9,7.9-3.6,16.1-6.6,23.7
	C1717.5,554.9,1716.3,554.7,1716.5,553.9z"/>
<path class="st3" d="M36.8,204.9c-8.8,8.4-19,14.7-29.3,20.9C6,209.5-6.2,195.4-7.7,179.1c-1.4-16,7.6-31.6,20.3-41.3
	c12.5-9.8,28.2-15,43.9-19c-3.8,8.2-3.5,17.6-2.6,26.5c1,9,2.5,17.9,1.2,26.7C53.3,184.5,45.9,195.9,36.8,204.9z"/>
<path class="st4" d="M47.2,125.8c-6.5,5.3-11.9,11.6-16.3,18.6c-4.3,6.8-7.2,14.4-9.2,22.3c-4,15.4-4.9,31.7-10.8,46.7
	c-1.6,4.3-3.4,8.1-6,11.8c-2.4,3.8-5.4,6.8-8.7,9.8c-1,0.8,0.4,2.7,1.4,1.9c6-4.5,10.5-11.5,13.6-18.2c3.2-7.2,5.3-14.9,6.8-22.5
	c3.1-15.9,4.7-32.4,12.5-46.8c4.4-8.4,11.1-15.5,17.5-22.6C48.9,126.2,47.8,125.3,47.2,125.8z"/>
<path class="st4" d="M1.3,167.3c2.5,7.6,5.1,15.3,7.1,23.2c1.9,7.8,3.1,15.8,2.9,24.1c0,1.1,1.3,1.5,2,0.8
	c4.8-4.7,9.3-9.5,14.1-14.1c4.8-4.7,9.5-9.3,14.1-14.1c1.2-1.2-0.6-2.8-1.7-1.8c-5,4.6-9.3,9.5-14.1,14.1
	c-4.6,4.8-9.3,9.5-14.1,14.1c0.6,0.3,1.4,0.5,2,0.8c0.5-8.2-1-16.3-2.9-24.1c-2-8.2-5-15.8-7.9-23.4C2.3,165.9,1,166.3,1.3,167.3z"
	/>
<path class="st4" d="M15.6,141.6c0.2,5.5,1.5,10.9,2.4,16.2c0.7,5.6,1.2,11,1.7,16.4c0,1.1,1.5,1.7,2.2,0.9c3.6-4,7.6-7.7,11.6-11.2
	c2.1-1.8,4.3-3.3,6.8-4.9c2.2-1.5,4.8-2.8,7-4.3c1.2-0.7,0.4-2.7-1-2.2c-5,2.1-9.7,5.7-14,9c-4.4,3.5-8.5,7.5-12.2,11.7
	c0.6,0.3,1.4,0.5,2.2,0.9c-0.4-5.6-1-11.4-1.8-16.7c-0.8-5.3-1.6-11.2-3.7-16.2C16.3,140.9,15.6,141,15.6,141.6z"/>
<path class="st1" d="M20,322.4C13.6,330.2,9,339,4.8,348.1c13.5,0,26.2,9,39.8,9.3c13.3,0.3,25.7-8.5,33-19.7
	c7.3-11.1,10.4-24.5,12.8-37.7c-6.5,3.6-14.4,4-21.7,3.9c-7.4,0-14.9-0.8-22.3,0.8C35.5,307.3,26.7,314.1,20,322.4z"/>
<path class="st4" d="M83.7,307.2c-4.9,5-9.6,10.3-15.2,14.4c-5.6,4.1-12.4,6.9-19.1,9.3c-12.7,4-26.1,6.1-38.2,12.6
	C5.4,346.5-1,351-4.5,356.8c-0.8,1.2,0.9,2.6,1.8,1.5c2-2.5,4-4.8,6.4-7.1c2.4-2,4.9-3.6,7.8-5.2c5.6-3.1,11.6-5.3,17.8-6.9
	c13.4-3.8,27.5-6.3,39.2-14.4c6.3-4.5,11.8-10,16-16.3C85.4,307.5,84.4,306.7,83.7,307.2z"/>
<path class="st4" d="M54,347.8c-3.3-1.1-6.6-2.1-10.1-3c-3.3-0.8-6.6-1.4-10.1-2c-6.8-1.2-13.7-1.5-20.4-0.8
	c0.4,0.7,0.7,1.2,1.1,1.9c3.7-4.4,7.4-8.5,10.9-12.9c3.7-4.1,7.4-8.3,10.9-12.6c0.8-1.2-0.9-2.6-1.8-1.5c-3.7,4.1-7.2,8.5-10.7,12.7
	c-3.5,4.1-7.2,8.5-10.7,12.7c-0.7,0.9-0.1,2.1,1.1,1.9c6.7-0.7,13.3-0.5,19.9,0.7c6.6,1,13.2,2.6,19.8,4.3
	C54.4,349.5,54.9,348.1,54,347.8z"/>
<path class="st4" d="M74.1,334.6c-4.2-1.6-9.2-1.8-13.4-2.2c-4.7-0.4-9.5-0.4-14-0.3c0.2,0.7,0.4,1.4,0.9,2.2
	c3.2-3.4,6.2-7.1,8.9-10.8c1.3-2.1,2.5-3.9,3.5-6c1-2.1,2.3-4.2,3.1-6.3c0.5-1.4-1.6-2.2-2.3-1c-1,1.9-1.8,4-2.8,6.1
	c-1,2.1-2.3,3.9-3.5,5.8c-2.5,3.7-5.3,7.4-8.5,10.6c-0.7,0.7-0.3,2.1,0.9,2.2c4.5-0.1,9.3-0.1,13.8,0.3c4.5,0.2,9.2,1.1,13.7,0.7
	C74.3,335.5,74.6,334.8,74.1,334.6z"/>
<path class="st3" d="M1868.2,677.4c1.6,0.2,2.7,1.5,2.5,3l-1.7,18l-0.6,7.1c-0.2,1.6-1.5,2.7-3.2,2.4l-8.5-1.2l-16.2-2.3
	c-1.5-0.2-2.6-1.6-2.4-3.2l0.7-5.2c0.2-1.5,1.6-2.6,3.2-2.4l8.4,1.3c-13.6-13.8-34.6-18.6-53.4-11.3c-21.5,8.4-34.4,30.5-31.2,53
	c0.2,1.5-0.7,2.8-2.2,3l-5.1,1c-1.7,0.3-3.1-0.8-3.2-2.3c-4.1-27.7,11.5-54.6,37.8-64.8c23.4-9.1,49.7-2.8,66.1,15.3l0.8-9.2
	c0.2-1.6,1.5-2.7,3-2.5L1868.2,677.4z"/>
<path class="st3" d="M1871.2,718.7c1.7-0.3,3.1,0.8,3.2,2.3c4.1,27.7-11.5,54.6-37.8,64.8c-23.6,9.2-49.9,2.7-66.4-15.5l-0.8,9.6
	c-0.2,1.6-1.5,2.7-3,2.5l-5.1-0.6c-1.5-0.2-2.7-1.5-2.5-3l1.7-18l0.6-6.9c0.2-1.6,1.5-2.7,3.1-2.6l8.8,1.3l16,2.2
	c1.5,0.2,2.6,1.6,2.4,3.2l-0.7,5.2c-0.2,1.5-1.6,2.6-3.2,2.4l-8-1.2c13.6,13.8,34.4,18.7,53.2,11.4c21.5-8.4,34.4-30.5,31.2-53
	c-0.2-1.5,0.7-2.8,2.2-3L1871.2,718.7z"/>
<path class="st5" d="M148.8,707.3c1.6-5.3-31.5-19.4-73.4-31.5C33.3,663.7-2,658.1-3.6,663.4c-1.6,5.3,31.5,19.4,73.4,31.5
	C111.9,706.9,147.2,712.5,148.8,707.3z"/>
<path class="st6" d="M134.3,730.7L106,801.1c0,0-10.5,14.9-66.2-1c-55.5-15.9-56.6-34.2-56.6-34.2l13-74.7
	c7.2,4.2,28.4,15.7,67.5,26.8C108.1,730.7,130.1,730.9,134.3,730.7z"/>
<path class="st6" d="M135,730.7c0,0-0.2,0-0.7,0c-4.2,0.2-26.2,0-70.5-12.8c-39-11.1-60.3-22.6-67.5-26.8c-2-1.1-3.1-1.8-3.1-1.8
	c-1.8-18.7,4.4-26.6,4.4-26.6c-0.9,3.1,7.4,8.4,21.4,14.3c3.1,1.3,6.4,2.7,9.9,4.1c4.2,1.6,8.8,3.4,13.8,5c1.1,0.5,2.2,0.7,3.5,1.1
	c3.7,1.4,7.7,2.5,11.6,3.8c3.7,1.1,7.7,2.3,11.6,3.4l1.1,0.2c6.4,1.8,12.3,3.4,18.2,4.8c2.6,0.7,5,1.1,7.7,1.8
	c4.2,0.9,8.3,1.8,12.1,2.8c23.3,4.6,39.5,5.6,40.7,1.7C144.5,726.4,135,730.7,135,730.7z"/>
<path class="st4" d="M-6.1,690c4.2,2.5,8.3,5.1,12.7,7.4c4.4,2.2,8.8,4.5,13.1,6.5c8.8,4,17.7,7.6,27,10.8
	c18.4,6.3,37.3,11.1,56.6,13.9c10.8,1.6,21.7,2.6,32.5,3.2c1.5,0,1.6-2.2,0-2.2c-19.3-0.8-38.5-3.7-57.3-8
	c-18.7-4.4-37.1-10.5-54.8-18.1c-4.8-2.2-9.9-4.5-14.7-6.7c-2.4-1.1-4.8-2.5-7.2-3.6c-2.4-1.3-5-2.5-7.4-3.6
	C-6,688.9-6.5,689.8-6.1,690z"/>
<path class="st4" d="M-4.9,688.7c-0.6-2.2-1.3-4.2-1.7-6.6c-0.2-2.2-0.2-4.4,0.1-6.8c0.7-4.6,2.5-8.8,5.2-12.5
	c0.7-0.9-0.9-2-1.5-1.1c-3.1,3.7-5.1,8.3-5.6,13.2c-0.2,2.4-0.3,4.8-0.1,7c0.2,2.4,0.8,5.1,2.1,7.3C-5.8,690.2-4.7,689.8-4.9,688.7z
	"/>
<path class="st4" d="M148.4,705.1c-0.5,4.8-2.1,9.7-4.3,13.8c-2.2,4.4-5.3,7.7-8.9,10.9c-0.7,0.7,0.2,2.2,1.1,1.6
	c4.2-2.8,7.3-7.2,9.6-11.8c2.5-4.6,3.6-9.4,3.7-14.7C149.5,704.2,148.4,704.4,148.4,705.1z"/>
<path class="st4" d="M-4.5,690.7c-0.2,1.1-0.7,2.4-0.7,3.5c-0.2,1.1-0.5,2.4-0.5,3.5c-0.2,2.4-0.7,4.8-1.2,7.3
	c-0.7,4.8-1.4,9.7-2.3,14.5c-1.6,9.7-3.5,19.1-5.3,28.8c-1.2,5.5-2.3,10.8-3.4,16.3c-0.2,1.1,1.5,1.8,1.8,0.5
	c4.4-19.1,8.1-38.4,10.9-57.8c0.5-2.6,0.7-5.3,1.2-7.9c0.2-1.3,0.5-2.6,0.5-4.2c0.2-1.5,0-2.9,0.3-4.4C-3.4,690.2-4.5,690-4.5,690.7
	z"/>
<path class="st4" d="M-18.6,766c1.7,3.5,4.8,6.9,7.6,9.5c3.1,2.9,6.1,5.6,9.6,8c7.4,5.1,15.5,9.2,23.9,12.3
	c8.8,3.4,17.8,6.3,26.7,8.8c9,2.3,18.2,4.1,27.7,4.2c10.1,0.1,20.2-1.4,29.3-5.7c1.3-0.6,0.2-2.4-1.1-1.8
	c-16.8,7.3-35.2,6.1-52.6,1.9c-8.8-2.3-17.5-5-26.1-8.2c-8.3-3.2-16.4-6.8-23.9-11.4c-3.9-2.5-7.4-5.1-10.9-8.2
	c-1.7-1.6-3.3-3.1-4.8-4.9c-1.5-1.8-3-3.6-4.6-5.3C-18.2,764.9-18.8,765.6-18.6,766z"/>
<path class="st4" d="M133.7,730.9c-4.3,8.8-7.6,18-11,27.2c-3.6,9.2-7.2,18.4-10.8,27.6c-2,5.3-4.3,10.3-6.1,15.8
	c-0.2,1.1,1.3,1.8,1.8,0.7c2-4.4,3.6-9,5.2-13.4c1.8-4.6,3.6-9.2,5.4-14c3.6-9.2,7.2-18.4,10.8-27.6c2-5.3,4.1-10.5,5.6-15.8
	C134.8,730.7,133.9,730.2,133.7,730.9z"/>
<path class="st4" d="M-12.4,763c6.7,8.2,15.9,14,26,17.2c1.1,0.5,1.8-1.5,0.5-1.8c-9.9-3-18.6-8.8-25.6-16.3
	C-12,761.5-12.9,762.3-12.4,763z"/>
<path class="st4" d="M3.8,770.2c4.2,2,8.3,4,12.5,6.1c0.4,0.2,0.9,0.2,1.3-0.2c0.2-0.4,0.2-1.1-0.2-1.3c-4.4-1.8-8.5-3.6-12.9-5.4
	C3.6,768.9,3.1,770,3.8,770.2z"/>
<path class="st4" d="M9.9,768.7c2.4,0.9,5,2,7.5,2.9c0.4,0.2,1.1-0.2,1.1-0.7c0.2-0.4-0.2-1.1-0.6-1.1c-2.6-0.9-5-1.6-7.7-2.5
	c-0.4-0.2-0.9,0.2-0.9,0.4C9.3,768.3,9.5,768.7,9.9,768.7z"/>
<path class="st4" d="M-1.8,685.6c7.6,5.1,16,9.4,24.5,13.2c8.3,3.8,16.6,7.2,25.4,10.4c17.3,6.1,35.5,10.7,53.8,13.3
	c10.1,1.4,20.4,2.6,30.8,2.9c1.1,0,1.1-1.7,0-1.8c-9-0.5-18.2-1.3-27.2-2.5c-9-1.2-18.2-3-27-5.1c-17.8-4.1-35.1-10-51.7-17.6
	C17,694.4,8,689.2-1.2,684.8C-1.8,684.3-2.3,685.2-1.8,685.6z"/>
<path class="st1" d="M108.6,614.2c-9.2,17.1-0.4,40.7-12.2,56.2c-4.9,6.3-12.2,10-18.6,14.8c-3.3,2.6-6.7,5.7-8.7,9.4
	c-3.9-1.1-7.9-2.3-11.6-3.4c-2.6-4.9-3.4-11-2.5-16.7c1.4-8.6,5.9-16.2,10.1-23.9c4.2-7.7,8.3-15.5,8.8-24.3
	c1-17.8-13.1-35.3-7.7-52.2c1.6-4.6,4.3-8.3,7.4-12c5.8-6.3,13.3-11.5,18.2-18.5c5.3-7.4,7.9-16.7,10.6-25.4c2.5-8.8,5.4-18,11.4-25
	c6-7,15.9-11.5,24.7-8.6c-7.3,9-8.8,21.5-7.3,32.9s5.5,22.5,7.4,34c1.3,7.5,1.8,15.4,0.2,22.9c-0.9,3.7-2.3,7.5-4.3,11
	C128.1,596.4,114.8,602.6,108.6,614.2z"/>
<path class="st3" d="M128.2,627.2c-0.5,2.4-0.7,4.8-0.7,7c-0.3,5.9,0.1,11.7,0.1,17.6c-0.3,8.4-1.9,16.9-7.5,23
	c-5.3,5.9-13.5,8.2-20.3,12.4c-4.9,2.8-9.5,7.4-11.1,12.4c-5.9-1.4-11.8-3.2-18.2-4.8l-1.1-0.2c2-3.7,5.3-6.8,8.7-9.4
	c6.4-4.8,13.7-8.5,18.6-14.8c11.8-15.5,3-39.1,12.2-56.2c6.3-11.6,19.5-17.9,26.4-29c2-3.3,3.4-7,4.3-11
	c12.1-0.1,24.1,6.2,30.4,16.6C149.7,591.7,131.5,607.6,128.2,627.2z"/>
<path class="st1" d="M187.9,667.8c-7-8.9-20.8-11.6-30.7-6c-10.6,6.1-15.8,19.4-26.6,24.8c-6.4,3.2-14.1,3-20.9,4.9
	c-5.7,1.5-11.5,5.2-13.3,10.4c-2.4-0.7-5-1.1-7.7-1.8c1.6-5,6.2-9.6,11.1-12.4c6.9-3.9,15-6.5,20.3-12.4c5.6-6.1,7.2-14.9,7.5-23
	c0.3-5.9-0.3-11.9-0.1-17.6c11.3-4.5,24.5-4.2,35.4,1C175.6,641.7,185.2,653.9,187.9,667.8z"/>
<path class="st3" d="M57.5,691.2c-3.9-1.1-7.9-2.5-11.6-3.8c-4.3-6.6-6.5-14.6-6-22.5c0.5-7.7,3.4-15.2,5.7-22.6
	c2-7.5,3.2-15.8,0-22.9c-2.8-6.4-8.7-11.1-12.2-17.1c-0.9-1.3-1.3-2.9-1.9-4.4c-2.4-6.2,0.6-13.9,1.8-23.3
	c2.1-15.8-5.9-32.4-19.2-41.3c13.9-4.1,29.5-1.7,41.5,6.5c8.1,5.4,14.2,13.3,17.8,22.2c-3.3,3.5-6,7.4-7.4,12
	c-5.4,16.9,8.7,34.4,7.7,52.2c-0.5,8.6-4.6,16.7-8.8,24.3c-4.2,7.7-8.7,15.3-10.1,23.9C54.3,680.2,54.9,686.2,57.5,691.2z"/>
<path class="st1" d="M45.9,687.4c-1.1-0.5-2.2-0.9-3.5-1.1c-4.8-1.6-9.4-3.4-13.8-5c-3-6.4-4.7-13.5-4.4-20.5
	c0.3-8.1,2.8-16.3,2-24.4c-1.2-13.2-11.9-25-24.8-27.3c8.6-7.4,21.2-9.9,32.2-6.7c3.5,6,9.4,10.7,12.2,17.1c3,7.1,2.1,15.4,0,22.9
	s-5,14.9-5.7,22.6C39.4,672.8,41.8,680.7,45.9,687.4z"/>
<path class="st4" d="M121.3,498.4c-8.7,10.3-13.2,23.4-12.2,36.9c1,13.9,7,28.7-0.6,41.6c-5.8,10.3-16.4,17-21.4,28
	c-6.3,13.1-2.7,28.4-5.4,42.2c-1.6,7.9-4.8,15.8-9.2,22.6c-4,6.1-8.7,12.2-10.1,19.5c-0.2,0.9,1.1,1.1,1.1,0.2
	c1.2-6.8,5.4-12.3,9.2-17.7c4-5.9,7.1-12,9.2-18.8c2-6.8,3-13.6,3.3-20.7c0.3-7.3,0.1-14.5,2.2-21.5c3.4-11.9,13.6-19.2,20.5-29.1
	c3.6-5,6-10.9,6.3-17.1c0.5-7-1-14.1-2.2-20.9c-1.2-7.9-1.8-15.6,0-23.5c1.8-7.5,5.2-14.7,10.1-20.8
	C122.6,498.6,121.7,497.7,121.3,498.4z"/>
<path class="st4" d="M52.9,686.6c-3.7-4-4.7-9.9-4.7-15.2c0.1-5.5,1.2-11,2.8-16.3c1.8-5.5,3.8-11,5.9-16.2
	c1.8-5.3,3.6-10.8,3.7-16.5c0.1-9.9-4.9-19-8.5-28c-1.9-4.9-3.4-9.9-3.8-15.2c-0.4-5.7,0.3-11.4,0.2-17.4c-0.1-9.2-3.3-20.1-13-23.4
	c-1.1-0.5-1.6,1.3-0.5,1.8c8.8,3.2,11.3,13.7,11.5,22.1c-0.1,5.7-0.8,11.4-0.4,17.4c0.4,5.1,1.7,9.9,3.4,14.6
	c3.4,9.1,8.6,17.9,8.8,27.8c-0.1,5.7-1.6,11.4-3.7,16.7c-1.8,5.3-3.8,10.5-5.6,15.8c-1.8,5.7-3,11.9-2.8,17.8
	c0.2,5.5,1.7,11.2,5.6,15.2C52.5,688.1,53.3,687.2,52.9,686.6z"/>
<path class="st4" d="M18,610.1c4.6,1.6,9.4,3.4,13.1,6.7c4.1,3.8,5.2,9.1,5.4,14.6c0.1,12.1-3.1,24-3,36.1
	c-0.1,5.5,0.6,11.7,4.5,15.9c0.7,0.9,2-0.4,1.3-1.3c-3.7-4.2-3.9-10.4-3.8-15.7c0.1-6.2,1-12.5,1.7-18.7c0.7-5.9,1.4-12.1,1-18
	c-0.2-5.1-1.7-9.9-5.4-13.5c-3.9-3.8-9.4-5.6-14.4-7.2C17.8,609.2,17.6,609.9,18,610.1z"/>
<path class="st4" d="M81.6,697c0.5-4.4,3.6-8.1,6.9-10.7c3.5-2.8,7.7-5,11.3-7.6c7.3-5.2,11.3-12.7,13.6-21.2
	c2.5-9.9,2.6-20,5.3-29.9c2.5-9,6.5-17.8,12.1-25.6c6-8.3,15.5-15.9,26.3-13.6c1.1,0.2,1.6-1.5,0.5-1.8c-20-4.1-33.4,18.2-39.2,34
	c-1.8,4.8-2.9,9.7-3.9,14.7c-0.9,5.3-1.4,10.8-2.3,16c-1.6,9.4-4.6,18.7-12.3,24.8c-7.5,5.9-18.8,9.7-19.5,20.9
	C80.3,697.8,81.6,697.8,81.6,697z"/>
<path class="st4" d="M178.3,658.9c-5-5.8-11.8-10.5-19.9-10.7c-3.7,0-7.7,0.8-11,3c-2.7,1.7-4.7,4.4-6.4,7c-3.4,5.7-5.2,12.1-9,17.5
	c-2,3.1-4.9,5.2-8.2,6.7c-3.8,1.5-7.7,2.1-11.7,3c-7.3,1.5-16.1,4.5-18.4,12.4c-0.2,1.1,1.3,1.3,1.5,0.5c2.5-6.6,10-9.2,16.4-10.6
	c7.1-1.5,14.5-2.5,19.6-8c8.4-8.7,8.6-25.9,22.7-29.1c8.8-1.9,17.6,2.8,23.2,9.2C178.1,660.4,179,659.6,178.3,658.9z"/>
</svg>
