<?xml version="1.0" encoding="utf-8"?>
<!-- Generator: Adobe Illustrator 25.2.0, SVG Export Plug-In . SVG Version: 6.00 Build 0)  -->
<svg version="1.1" id="Layer_1" xmlns="http://www.w3.org/2000/svg" xmlns:xlink="http://www.w3.org/1999/xlink" x="0px" y="0px"
	 viewBox="0 0 62 62" style="enable-background:new 0 0 62 62;" xml:space="preserve">
<style type="text/css">
	.st0{fill:#9DC18C;}
	.st1{fill:none;stroke:#9DC18C;stroke-width:2;stroke-miterlimit:10;}
	.st2{fill:#E07857;stroke:#E07857;stroke-miterlimit:10;}
</style>
<path class="st0" d="M34,18.9c-0.2-0.1-0.7-0.2-0.7-0.2c-0.4,0-1,0-1.4,0.3c-4.2,3.9-9.7,6.8-12.3,12.1c-2,3.9-1.7,9.2,2.2,11.8
	c0,0.1,0,0.1-0.1,0.2c-0.1,0.2,1.6,0.4,2.1,0.1c0,0,0.1,0,0.1,0c4.1,0.3,8-2.1,9.8-6c2.6-5.7,1-12,1.2-18C34.8,19,34.4,18.9,34,18.9
	z M32.4,34.6c-0.6,2.3-1.7,4.5-3.5,6.1c-1.3,1.1-3.1,2-4.8,1.7c0.2-0.7,0.2-1.5,0.5-2.2c0.3-1,0.7-1.9,1.1-2.8
	c0.4-0.9,0.8-1.9,1.2-2.9c0.5-1.1,1.1-2.1,1.6-3.1c1-1.9,2-3.8,3-5.7c0.4-0.8,0.9-1.6,1.3-2.4C32.9,27.2,33.3,30.9,32.4,34.6z
	 M29.2,25.8c-1.1,2-2.1,4-3.2,6c-1,1.8-1.8,3.6-2.6,5.5c-0.4,1-0.8,1.9-1.1,2.9c-0.1,0.3-0.2,0.6-0.2,0.9c-2.3-2.9-1.8-7.6,0-10.7
	c2.4-4,6.3-6.6,9.9-9.6C31.1,22.5,30.1,24.1,29.2,25.8z"/>
<path class="st1" d="M15.2,47.2c11.5,6.6,25.4,2.4,30.4-7.2c3.9-7.4,2.1-17.5-4.7-24.4"/>
<circle class="st2" cx="38.2" cy="13.1" r="1.4"/>
</svg>
