<?xml version="1.0" encoding="utf-8"?>
<!-- Generator: Adobe Illustrator 25.2.0, SVG Export Plug-In . SVG Version: 6.00 Build 0)  -->
<svg version="1.1" id="Layer_1" xmlns="http://www.w3.org/2000/svg" xmlns:xlink="http://www.w3.org/1999/xlink" x="0px" y="0px"
	 viewBox="0 0 1002.5 291.9" style="enable-background:new 0 0 1002.5 291.9;" xml:space="preserve">
<style type="text/css">
	.st0{fill:#CED7B3;}
	.st1{fill:#B1C571;}
	.st2{fill:#322816;}
	.st3{fill:#8CA33C;}
</style>
<path class="st0" d="M987.8,222.5c-12.6,34.8-52.4,53.8-87.9,47.5c-31.3-5.1-61.7-27.6-94.1-16.2c-23.5,7.8-44.6,27.2-70.8,24
	c-38.6-5.9-45.2-57.8-13-77.4c35.5-21.3,80.9,8.1,115.8-16.9c30.6-17.7,55.7-51.2,93.8-51C975.6,133.1,1005.1,182.9,987.8,222.5z"/>
<g>
	<g>
		<path class="st1" d="M921.9,155.7c4,2.3,7.5,5.4,10.9,8.6c-5.9,2.2-9.8,8.2-15.6,10.6c-5.7,2.3-12.5,0.5-17.5-3.1
			c-5-3.6-8.6-8.8-11.7-14.2c3.4,0.5,6.8-0.6,10-1.9c3.2-1.3,6.4-2.8,9.8-3.3C912.6,151.8,917.7,153.3,921.9,155.7z"/>
		<g>
			<path class="st2" d="M891.6,160.4c2.5,1.8,5.4,3.1,8.3,4c3.1,0.9,6.4,1.2,9.6,1.1c6.2-0.2,12.4-1.6,18.7-1
				c1.6,0.2,3.2,0.5,4.7,0.9c1.6,0.5,3,1.3,4.4,2.1c0.5,0.3,1.2-0.5,0.7-0.9c-2.2-1.7-5.1-2.6-7.8-3.1c-2.8-0.5-5.6-0.5-8.4-0.3
				c-6.6,0.4-13.3,1.9-19.8,0.5c-3.6-0.8-6.8-2.4-10.1-3.9C891.6,159.6,891.2,160.1,891.6,160.4L891.6,160.4z"/>
		</g>
		<g>
			<path class="st2" d="M911.8,172.9c2.5-1.7,5.2-3.5,7.8-5c2.7-1.6,5.5-2.9,8.6-3.6c0.4-0.1,0.5-0.8,0.1-1
				c-2.2-1.2-4.5-2.5-6.7-3.7c-2.2-1.2-4.4-2.6-6.7-3.7c-0.7-0.3-1.3,0.6-0.6,1c2.2,1.3,4.5,2.5,6.7,3.7c2.3,1.2,4.5,2.4,6.8,3.7
				c0-0.3,0.1-0.7,0.1-1c-3,0.7-5.9,2.1-8.6,3.6c-2.8,1.6-5.3,3.5-7.8,5.5C911.2,172.6,911.5,173.1,911.8,172.9L911.8,172.9z"/>
		</g>
		<g>
			<path class="st2" d="M900.8,170.4c1-0.3,2-0.8,2.9-1.2c0.9-0.4,1.8-0.9,2.8-1.3c2-0.9,4-1.7,6-2.4c0.4-0.2,0.6-0.8,0.1-1.1
				c-1.9-0.9-3.7-1.9-5.4-3.2c-0.8-0.6-1.6-1.2-2.4-1.9c-0.8-0.7-1.5-1.5-2.4-2.2c-0.6-0.5-1.3,0.2-0.8,0.8c0.6,0.8,1.5,1.5,2.3,2.2
				c0.8,0.7,1.6,1.3,2.5,1.9c1.8,1.3,3.6,2.3,5.6,3.2c0-0.4,0.1-0.7,0.1-1.1c-2,0.7-4.1,1.6-6,2.5c-1.9,0.9-4,1.8-5.6,3.2
				C900.4,170.1,900.6,170.4,900.8,170.4L900.8,170.4z"/>
		</g>
	</g>
	<g>
		<g>
			<path class="st2" d="M921.9,144.8c-0.1-1.2-0.2-2.4-0.4-3.6c-0.2-1.1-0.6-2.2-1-3.2c-0.9-2.1-2.1-4-3.6-5.7
				c-3.1-3.6-7.3-6-11.7-7c-2.7-0.6-5.4-0.8-8.1-0.5c-0.4,0-0.6,0.4-0.4,0.8c1.2,2.4,1.8,5.4,2.5,8c0.7,2.4,1.4,4.8,2.6,6.9
				c1.1,2,2.6,3.7,4.6,4.7c2.2,1.1,4.6,1.1,6.9,1c1.3-0.1,2.6-0.2,3.9-0.3c1.4-0.1,2.7,0,4.1,0.3c0.6,0.1,0.9-0.8,0.3-1.1
				c-2.1-0.9-4.6-0.6-6.8-0.5c-2.3,0.2-4.6,0.4-6.8-0.3c-4.4-1.4-6.3-6.5-7.6-10.8c-0.4-1.5-0.8-2.9-1.3-4.4
				c-0.5-1.4-1.1-2.7-1.7-4.1c-0.1,0.3-0.3,0.5-0.4,0.8c4.5-0.2,9.2,0.5,13.3,2.7c3.7,2,6.8,5.2,8.7,9.1c1.1,2.3,1.9,4.8,2.2,7.3
				C921.4,145.3,921.9,145.2,921.9,144.8L921.9,144.8z"/>
		</g>
		<g>
			<path class="st2" d="M924.3,147.6c-1.2-1.9-2.4-3.7-3.9-5.3c-1.5-1.6-3-3.1-4.6-4.5c-3.2-2.8-6.8-5.3-10.6-6.9
				c-0.4-0.2-0.7,0.6-0.3,0.8c3.6,2.1,7.1,4.3,10.3,7.1c3.1,2.7,6,5.9,8.7,9.3C924,148.3,924.5,148,924.3,147.6L924.3,147.6z"/>
		</g>
		<g>
			<path class="st2" d="M910.2,129.4c0.3,1.5,1,2.9,1.6,4.2c0.6,1.4,1.3,2.7,2,4.1c0.1-0.2,0.2-0.5,0.4-0.7
				c-3.1-0.2-6.2-0.5-9.4-0.8c-0.5,0-0.5,0.8,0,0.9c3.1,0.3,6.2,0.5,9.4,0.9c0.3,0,0.5-0.4,0.4-0.7c-0.7-1.3-1.3-2.7-1.9-4.1
				c-0.6-1.3-1.1-2.8-1.9-4.1C910.6,128.9,910.1,129.1,910.2,129.4L910.2,129.4z"/>
		</g>
		<g>
			<path class="st2" d="M918.3,140.7c-2.6-0.2-5.3,0.1-8,0.2c-0.5,0-0.5,0.9,0,0.9c2.7-0.1,5.4-0.1,8-0.5
				C918.6,141.2,918.5,140.8,918.3,140.7L918.3,140.7z"/>
		</g>
	</g>
	<g>
		<path class="st3" d="M929,152.2c2.4,2.8,5.3,5.1,8.3,7.3c0.9-4.9,5.1-8.8,6.1-13.8c1-4.8-1.3-9.9-4.8-13.3
			c-3.5-3.4-8.2-5.5-12.8-7.2c0.8,2.6,0.5,5.5-0.1,8.2c-0.6,2.7-1.3,5.4-1.2,8.1C924.6,145.4,926.5,149.2,929,152.2z"/>
		<g>
			<path class="st2" d="M927.9,128c1.4,2.1,2.9,4.1,4,6.4c1.2,2.4,1.7,5,2.1,7.7c0.6,4.9,0.4,9.9,1.9,14.7c0.7,2.3,1.9,5,3.8,6.6
				c0.6,0.5,1.2-0.2,0.8-0.8c-0.7-0.9-1.5-1.8-2-2.8c-0.6-1-1-2.1-1.3-3.1c-0.7-2.2-1.1-4.6-1.3-6.9c-0.4-5.1-0.4-10.3-2.5-15.1
				c-1.1-2.6-2.8-5-4.8-7C928.2,127.3,927.7,127.7,927.9,128L927.9,128z"/>
		</g>
		<g>
			<path class="st2" d="M940.6,141.6c-1.2,2.3-2.4,4.5-3.3,6.9c-0.9,2.4-1.5,4.9-1.7,7.4c0.3-0.1,0.6-0.2,0.9-0.4
				c-1.3-1.6-2.5-3.2-3.8-4.8c-1.3-1.6-2.5-3.3-3.8-4.8c-0.4-0.5-1.3,0.2-0.9,0.7c1.2,1.7,2.6,3.2,3.9,4.8c1.3,1.6,2.6,3.2,4,4.9
				c0.3,0.4,0.8,0,0.9-0.4c0.2-2.5,0.8-4.8,1.6-7.1c0.8-2.3,1.8-4.6,2.8-6.9C941.3,141.5,940.7,141.2,940.6,141.6L940.6,141.6z"/>
		</g>
		<g>
			<path class="st2" d="M937.1,133.4c-0.5,0.7-0.8,1.5-1,2.3c-0.3,0.8-0.5,1.6-0.7,2.4c-0.4,1.7-0.8,3.4-1.1,5.1
				c0.3,0,0.7-0.1,1-0.1c-1-1.4-2.1-2.8-3.4-4c-0.6-0.6-1.2-1.2-1.9-1.7c-0.7-0.6-1.4-1.2-2.2-1.6c-0.5-0.3-1.2,0.4-0.7,0.9
				c0.6,0.6,1.4,1,2,1.5c0.6,0.5,1.2,1.1,1.8,1.6c1.2,1.2,2.3,2.4,3.3,3.8c0.3,0.3,1,0.4,1-0.1c0.3-1.7,0.6-3.4,1.1-5.1
				c0.2-0.8,0.4-1.6,0.7-2.5c0.2-0.8,0.5-1.6,0.5-2.5C937.6,133.3,937.3,133.2,937.1,133.4L937.1,133.4z"/>
		</g>
	</g>
</g>
<g>
	<g>
		<path class="st2" d="M93.5,157.3c0-3.3-0.2-6.6,0.3-10c0.4-2.9,1.1-5.9,2.1-8.7c2-5.7,5-11,8.7-15.8c7.8-10,18.8-17,30.8-21
			c7-2.3,14.4-3.6,21.8-3.8c0.5,0,1.1,0.6,0.9,1.1c-1.4,3.5-2.2,7.3-2.9,11c-0.7,3.7-1.3,7.4-2,11c-1.2,6.5-2.7,13-5.7,18.9
			c-2.8,5.5-6.9,10.3-12.4,13.2c-5.7,2.9-12.1,3.5-18.4,3.8c-3.7,0.2-7.4,0.3-11,0.6c-3.7,0.3-7.3,1.1-10.9,2.2
			c-1,0.3-1.7-1.2-0.7-1.7c5.7-2.7,12.2-3,18.4-3.3c6.2-0.3,12.7-0.4,18.6-2.6c12.3-4.5,17.1-17.7,19.4-29.5
			c0.8-4.1,1.5-8.2,2.3-12.2c0.9-4.1,2.1-8,3.5-11.9c0.3,0.4,0.6,0.8,0.9,1.1c-12.5,0.8-25.1,4.2-35.8,10.9
			c-10,6.2-18.2,15.4-22.7,26.3c-2.6,6.4-4,13.3-4.1,20.3C94.6,158,93.5,158,93.5,157.3L93.5,157.3z"/>
	</g>
	<g>
		<path class="st2" d="M87.8,165.4c2.2-4,4.5-7.9,7.3-11.6c2.7-3.6,5.5-7.1,8.5-10.4c6.1-6.7,12.7-13,20-18.4
			c4.1-3.1,8.4-6,12.9-8.5c0.8-0.5,1.5,0.7,0.7,1.2c-7.5,5-14.7,10.2-21.4,16.3c-6.7,6-12.8,12.6-18.2,19.7c-3,4-6.1,8.1-8.9,12.3
			C88.3,166.6,87.4,166.1,87.8,165.4L87.8,165.4z"/>
	</g>
	<g>
		<path class="st2" d="M121.3,114.1c-0.7,3.8-2.1,7.6-3.4,11.3c-1.3,3.7-2.8,7.3-4.3,11c-0.3-0.3-0.6-0.6-0.9-0.9
			c8.7-1.7,17.4-3.5,26.1-5.2c0.9-0.2,1.3,1.2,0.4,1.4c-8.7,1.8-17.4,3.5-26.1,5.3c-0.5,0.1-1.2-0.4-0.9-0.9
			c1.5-3.7,2.8-7.5,4.2-11.2c1.3-3.7,2.4-7.5,4-11C120.5,113,121.4,113.5,121.3,114.1L121.3,114.1z"/>
	</g>
	<g>
		<path class="st2" d="M102.2,145.9c7.5-1.1,15.1-1.4,22.7-2.1c0.9-0.1,0.9,1.4,0,1.5c-7.5,0.7-15,1.5-22.5,1.5
			C101.9,146.8,101.7,146,102.2,145.9L102.2,145.9z"/>
	</g>
</g>
<g>
	<path class="st3" d="M101.5,117c-5.4,8.3-12.6,15.4-19.8,22.2c-4-12.9-16.4-22-20.7-34.9c-4.2-12.6,0.4-26.8,8.7-37.1
		S89.7,50,101.4,44c-1.4,7.3,0.5,14.7,2.8,21.7c2.4,7,5.2,14,5.9,21.3C111.1,97.6,107.3,108.1,101.5,117z"/>
	<g>
		<path class="st2" d="M96.4,52.2c-3.4,5.9-6.8,11.9-9,18.4c-2.3,6.8-3,13.9-3.1,21.1c-0.1,13.3,2,26.6-0.4,39.8
			c-1.2,6.5-3.5,13.5-7.9,18.5c-0.7,0.8-2.1-0.3-1.5-1.2c1.7-2.6,3.3-5.1,4.6-8c1.2-2.8,2-5.8,2.6-8.8c1.2-6,1.5-12.2,1.3-18.3
			c-0.3-14-2.3-28.4,1.9-42.1c2.2-7.2,5.8-14,10.4-20C95.9,51,96.8,51.5,96.4,52.2L96.4,52.2z"/>
	</g>
	<g>
		<path class="st2" d="M67.1,92.6c3.8,5.7,7.6,11.3,10.7,17.4c3,6,5.5,12.3,6.7,18.9c-0.5-0.1-1.1-0.1-1.6-0.2
			c2.9-4.7,5.8-9.3,8.7-14c2.9-4.7,5.6-9.4,8.7-14c0.7-1.1,2.4-0.1,1.7,1c-2.7,4.8-5.8,9.3-8.8,14c-2.9,4.6-5.9,9.3-8.8,13.9
			c-0.4,0.6-1.5,0.6-1.6-0.2c-1.2-6.6-3.6-12.9-6.7-18.8c-3-5.9-6.5-11.7-9.9-17.4C65.8,92.5,66.7,92,67.1,92.6L67.1,92.6z"/>
	</g>
	<g>
		<path class="st2" d="M73.7,69.7c2.6,3.6,4.3,8.1,5.9,12.3c1.7,4.3,3.2,8.7,4.5,13.1c-0.6-0.1-1.2-0.2-1.8-0.2
			c2.2-4.1,4.8-7.9,7.7-11.5c1.4-1.8,2.9-3.5,4.5-5.1c1.6-1.7,3.3-3.4,5.2-4.8c0.9-0.7,2,0.8,1.2,1.6c-1.5,1.6-3.2,3-4.8,4.6
			c-1.6,1.6-3.1,3.3-4.5,5.1c-2.8,3.5-5.3,7.3-7.5,11.2c-0.4,0.8-1.6,0.6-1.8-0.2c-1.3-4.4-2.7-8.7-4.4-12.9
			c-1.6-4.2-3.7-8.3-4.9-12.7C72.7,69.5,73.4,69.3,73.7,69.7L73.7,69.7z"/>
	</g>
</g>
</svg>
