<?xml version="1.0" encoding="utf-8"?>
<!-- Generator: Adobe Illustrator 25.2.0, SVG Export Plug-In . SVG Version: 6.00 Build 0)  -->
<svg version="1.1" id="Layer_1" xmlns="http://www.w3.org/2000/svg" xmlns:xlink="http://www.w3.org/1999/xlink" x="0px" y="0px"
	 viewBox="0 0 1903 957.6" style="enable-background:new 0 0 1903 957.6;" xml:space="preserve">
<style type="text/css">
	.st0{clip-path:url(#SVGID_2_);fill:#CDD7B3;}
	.st1{clip-path:url(#SVGID_2_);}
	.st2{fill:#8AA13C;}
	.st3{fill:#EAE4D1;}
	.st4{fill:#312816;}
	.st5{fill:#B1C471;}
	.st6{clip-path:url(#SVGID_4_);fill:#CDD7B3;}
</style>
<g>
	<defs>
		
			<rect id="SVGID_3_" x="855.8" y="-89" transform="matrix(6.123234e-17 -1 1 6.123234e-17 769.3415 1813.9662)" width="871.8" height="1222.7"/>
	</defs>
	<clipPath id="SVGID_2_">
		<use xlink:href="#SVGID_3_"  style="overflow:visible;"/>
	</clipPath>
	<path class="st0" d="M1423,964.1c4.9,41.5-26.1,80.6-65.8,90.2c-45.2,10.9-83.8-21.7-123.5-36.9c-11.1-4.3-22.7-7.3-34.6-8
		c-13.3-0.8-26.7,1-39.6,4c-26,6.1-50.4,17.2-76,24.8c-23.1,6.8-48.1,11.2-71.9,6.1c-21.8-4.7-40.5-18-51.7-37.4
		c-10.5-18.3-13.8-40.5-7.4-60.7c6.2-19.7,20.3-36.8,38.5-46.5c47.4-25.2,99.3,8.4,146,17.8c26.7,5.4,54.5,4.9,81-1.3
		c26.3-6.2,50.1-19.8,76.2-26.6c13.5-3.5,28.7-5,42.7-2.2c0.2,0,0.4,0,0.5,0c22.3,0.1,43.3,8.1,59.3,23.7
		C1411,925.2,1420.6,944.1,1423,964.1z"/>
	<path class="st0" d="M2031.3,735c-0.5,35.5-9.2,70.2-20.4,103.7c-10.3,30.8-23,61.2-42,87.6c-17.6,24.5-40.9,45.4-68.9,57.3
		c-13.4,5.7-27.7,9.2-42.3,9.8c-16.8,0.7-33.5-2.4-49.8-6.2c-16.8-3.9-33.6-8.7-50.7-11c-17.2-2.4-34.6-1.7-51.7-0.1
		c-33.8,3.2-67.9,10.3-101.9,5.6c-27.4-3.8-52.6-16.6-72.3-36.1c-18.9-18.7-32.5-43.1-37.4-69.4c-5-26.5-0.4-53.9,11.5-78
		c11.9-24,31.1-44.5,54.5-57.5c29.1-16.1,62.3-16.8,94.6-18.6c30.8-1.7,64.7-5.3,88.9-26.3c22.7-19.6,32.1-49.6,52.3-71.2
		c4.9-5.3,10.5-10.1,16.4-14.3c13.6-11.7,29.5-20.6,46.7-26c28-8.8,58.5-7.4,85.7,3.4c27.9,11.1,51,31.4,65.7,57.5
		C2025.4,672.5,2031.7,704,2031.3,735z"/>
	<g class="st1">
		<g>
			<path class="st2" d="M1039.6,965.3c-5.3,0-8-4.2-8-8.3c0-4.1,2.8-8.3,8-8.3c2.5,0,4.6,0.9,6,2.6c1.3,1.5,2,3.5,2,5.6
				C1047.7,961.2,1044.9,965.3,1039.6,965.3z M1039.6,951.7c-3.6,0-5.2,2.7-5.2,5.4c0,2.7,1.6,5.4,5.2,5.4c3.6,0,5.2-2.7,5.2-5.4
				C1044.8,954.4,1043.2,951.7,1039.6,951.7z"/>
		</g>
		<g>
			<path class="st2" d="M1036.8,994.5c-5.3,0-8-4.2-8-8.3c0-4.1,2.8-8.3,8-8.3c5.3,0,8,4.2,8,8.3
				C1044.8,990.3,1042.1,994.5,1036.8,994.5z M1036.8,980.8c-3.6,0-5.2,2.7-5.2,5.4c0,2.7,1.6,5.4,5.2,5.4c3.6,0,5.2-2.7,5.2-5.4
				C1042,983.5,1040.4,980.8,1036.8,980.8z"/>
		</g>
		<g>
			<path class="st2" d="M1064.3,974.9c-5.3,0-8-4.2-8-8.3c0-4.1,2.8-8.3,8-8.3c5.3,0,8,4.2,8,8.3
				C1072.4,970.7,1069.6,974.9,1064.3,974.9z M1064.3,961.2c-3.6,0-5.2,2.7-5.2,5.4c0,2.7,1.6,5.4,5.2,5.4c3.6,0,5.2-2.7,5.2-5.4
				C1069.5,963.9,1067.9,961.2,1064.3,961.2z"/>
		</g>
		<g>
			<path class="st2" d="M1060.9,947.9c-5.3,0-8-4.2-8-8.3c0-4.1,2.8-8.3,8-8.3c5.3,0,8,4.2,8,8.3
				C1068.9,943.8,1066.1,947.9,1060.9,947.9z M1060.9,934.2c-3.6,0-5.2,2.7-5.2,5.4c0,2.7,1.6,5.4,5.2,5.4c3.6,0,5.2-2.7,5.2-5.4
				C1066,937,1064.4,934.2,1060.9,934.2z"/>
		</g>
		<g>
			<path class="st2" d="M1032.7,938.1c-5.3,0-8-4.2-8-8.3c0-4.1,2.8-8.3,8-8.3c2.5,0,4.6,0.9,6,2.6c1.3,1.5,2,3.5,2,5.6
				C1040.7,933.9,1037.9,938.1,1032.7,938.1z M1032.7,924.4c-3.6,0-5.2,2.7-5.2,5.4c0,2.7,1.6,5.4,5.2,5.4c3.6,0,5.2-2.7,5.2-5.4
				C1037.8,927.1,1036.2,924.4,1032.7,924.4z"/>
		</g>
		<g>
			<path class="st2" d="M1014.3,955.5c-5.3,0-8-4.2-8-8.3c0-4.1,2.8-8.3,8-8.3s8,4.2,8,8.3C1022.3,951.4,1019.6,955.5,1014.3,955.5z
				 M1014.3,941.8c-3.6,0-5.2,2.7-5.2,5.4c0,1.4,0.5,2.8,1.3,3.8c0.9,1.1,2.3,1.6,3.9,1.6c3.6,0,5.2-2.7,5.2-5.4
				c0-1.4-0.5-2.8-1.3-3.8C1017.2,942.4,1015.9,941.8,1014.3,941.8z"/>
		</g>
		<g>
			<path class="st2" d="M1012.7,979.6c-5.3,0-8-4.2-8-8.3c0-4.1,2.8-8.3,8-8.3c5.3,0,8,4.2,8,8.3
				C1020.7,975.4,1018,979.6,1012.7,979.6z M1012.7,965.9c-3.6,0-5.2,2.7-5.2,5.4c0,2.7,1.6,5.4,5.2,5.4c3.6,0,5.2-2.7,5.2-5.4
				C1017.9,968.6,1016.3,965.9,1012.7,965.9z"/>
		</g>
		<g>
			<path class="st2" d="M1010.8,1011.3c-5.3,0-8-4.2-8-8.3c0-4.1,2.8-8.3,8-8.3s8,4.2,8,8.3
				C1018.8,1007.1,1016.1,1011.3,1010.8,1011.3z M1010.8,997.6c-3.6,0-5.2,2.7-5.2,5.4c0,1.4,0.5,2.8,1.3,3.8
				c0.9,1.1,2.3,1.6,3.9,1.6c3.6,0,5.2-2.7,5.2-5.4c0-1.4-0.5-2.8-1.3-3.8C1013.7,998.2,1012.4,997.6,1010.8,997.6z"/>
		</g>
		<g>
			<path class="st2" d="M1043.3,1018.9c-1.1,0-2.1-0.2-3-0.7c-1-0.4-1.9-0.9-2.7-1.8c-0.7-0.7-1.3-1.6-1.7-2.6
				c-0.5-1-0.7-2.1-0.7-3.2l0-0.6c0-1.5,0.4-2.9,1.1-4.2l0.1-0.2l1.2-1.5c1-1,2.2-1.7,3.6-2.1l0.4-0.1l1.6-0.2
				c1.3-0.1,2.4,0.2,3.4,0.7c1,0.4,1.9,0.9,2.7,1.8c0.7,0.7,1.3,1.6,1.7,2.6c0.5,1,0.7,2.1,0.7,3.2l0,0.6c0,1.5-0.4,2.9-1.1,4.2
				l-0.1,0.2l-1.2,1.5c-1,1-2.2,1.7-3.6,2.1l-0.2,0l-1.8,0.2C1043.5,1018.9,1043.4,1018.9,1043.3,1018.9z M1038.7,1007.3
				c-0.5,0.8-0.7,1.7-0.7,2.7v0.6c0,0.7,0.1,1.4,0.4,2l0.1,0.2c0.2,0.6,0.5,1.1,1,1.6c0.5,0.6,1.1,0.9,1.7,1.1l0.2,0.1
				c0.6,0.3,1.2,0.5,1.9,0.4l1.6-0.2c0.9-0.3,1.6-0.7,2.2-1.3l0.9-1.2c0.5-0.8,0.7-1.7,0.7-2.7v-0.6c0-0.7-0.1-1.4-0.4-2l-0.1-0.2
				c-0.2-0.6-0.5-1.1-1-1.6c-0.5-0.6-1.1-0.9-1.7-1.1l-0.2-0.1c-0.6-0.3-1.2-0.4-1.9-0.4l-1.6,0.2c-0.9,0.3-1.6,0.7-2.2,1.3
				L1038.7,1007.3z"/>
		</g>
		<g>
			<path class="st2" d="M1066.2,1005c-5.3,0-8-4.2-8-8.3c0-4.1,2.8-8.3,8-8.3s8,4.2,8,8.3C1074.3,1000.8,1071.5,1005,1066.2,1005z
				 M1066.2,991.3c-3.6,0-5.2,2.7-5.2,5.4c0,1.4,0.5,2.8,1.3,3.8c0.9,1.1,2.3,1.6,3.9,1.6c3.6,0,5.2-2.7,5.2-5.4
				c0-1.4-0.5-2.8-1.3-3.8C1069.2,991.8,1067.9,991.3,1066.2,991.3z"/>
		</g>
		<g>
			<path class="st2" d="M1084.9,975.8c-5.3,0-8-4.2-8-8.3c0-4.1,2.8-8.3,8-8.3c5.3,0,8,4.2,8,8.3
				C1093,971.6,1090.2,975.8,1084.9,975.8z M1084.9,962.1c-3.6,0-5.2,2.7-5.2,5.4c0,2.7,1.6,5.4,5.2,5.4c3.6,0,5.2-2.7,5.2-5.4
				C1090.1,964.8,1088.5,962.1,1084.9,962.1z"/>
		</g>
		<g>
			<path class="st2" d="M1085.3,945.4c-5.3,0-8-4.2-8-8.3c0-4.1,2.8-8.3,8-8.3s8,4.2,8,8.3C1093.3,941.2,1090.5,945.4,1085.3,945.4z
				 M1085.3,931.7c-3.6,0-5.2,2.7-5.2,5.4c0,1.4,0.5,2.8,1.3,3.8c0.9,1.1,2.3,1.6,3.9,1.6c3.6,0,5.2-2.7,5.2-5.4
				C1090.4,934.4,1088.8,931.7,1085.3,931.7z"/>
		</g>
		<g>
			<path class="st2" d="M1052.6,925.7c-5.3,0-8-4.2-8-8.3c0-4.1,2.8-8.3,8-8.3s8,4.2,8,8.3C1060.7,921.6,1057.9,925.7,1052.6,925.7z
				 M1052.6,912.1c-3.6,0-5.2,2.7-5.2,5.4c0,2.7,1.6,5.4,5.2,5.4c3.6,0,5.2-2.7,5.2-5.4c0-1.4-0.5-2.8-1.3-3.8
				C1055.6,912.6,1054.2,912.1,1052.6,912.1z"/>
		</g>
		<g>
			<path class="st2" d="M1009.8,929.2c-5.3,0-8-4.2-8-8.3c0-4.1,2.8-8.3,8-8.3s8,4.2,8,8.3C1017.9,925.1,1015.1,929.2,1009.8,929.2z
				 M1009.8,915.5c-3.6,0-5.2,2.7-5.2,5.4c0,1.4,0.5,2.8,1.3,3.8c0.9,1.1,2.3,1.6,3.9,1.6c3.6,0,5.2-2.7,5.2-5.4
				c0-1.4-0.5-2.8-1.3-3.8C1012.8,916.1,1011.5,915.5,1009.8,915.5z"/>
		</g>
		<g>
			<path class="st2" d="M994.3,962.8c-5.3,0-8-4.2-8-8.3c0-4.1,2.8-8.3,8-8.3c2.5,0,4.6,0.9,6,2.6c1.3,1.5,2,3.5,2,5.6
				C1002.3,958.7,999.6,962.8,994.3,962.8z M994.3,949.1c-3.6,0-5.2,2.7-5.2,5.4c0,2.7,1.6,5.4,5.2,5.4c3.6,0,5.2-2.7,5.2-5.4
				C999.5,951.8,997.9,949.1,994.3,949.1z"/>
		</g>
		<g>
			<path class="st2" d="M991.1,992.3c-5.3,0-8-4.2-8-8.3c0-4.1,2.8-8.3,8-8.3c2.5,0,4.6,0.9,6,2.6c1.3,1.5,2,3.5,2,5.6
				C999.2,988.1,996.4,992.3,991.1,992.3z M991.1,978.6c-3.6,0-5.2,2.7-5.2,5.4c0,2.7,1.6,5.4,5.2,5.4c3.6,0,5.2-2.7,5.2-5.4
				C996.3,981.3,994.7,978.6,991.1,978.6z"/>
		</g>
	</g>
</g>
<g>
	<path class="st2" d="M1812.5,572.2c11.8,2.8,17.8,3.5,20.9,3.4c0,0,0.8,1.7-0.8,3.3l-1.9,8c-0.8,3.1-0.1,6.4,1.7,9
		c6.1,8.8,13.3,14.1,9.4,30.1l-29.6,120.9c0,0-2.8,14.9-43.9,5.3c-0.1,0-0.2,0-0.2-0.1c-40.9-10.5-36.5-25-36.5-25l29.6-120.9
		c3.9-16,12.7-17.3,22.2-22.3c2.8-1.5,4.9-4.1,5.7-7.2l2-8c-0.7-2.2,0.8-3.3,0.8-3.3C1794.4,566.9,1800.2,569.2,1812.5,572.2z"/>
	<path class="st3" d="M1836.4,575.1c0,0-0.4,0.5-3.1,0.6c-3,0-9.1-0.6-20.9-3.4c-12.3-3-18.1-5.3-20.8-6.8c-2.4-1.3-2.5-1.9-2.5-1.9
		l5.2-21.1c4.8-1.5,16.6,0.8,22.6,2.2c0,0,1.4,0.3,3.6,0.9c5.9,1.5,17.5,4.8,21.1,8.4L1836.4,575.1z"/>
	<g>
		<path class="st4" d="M1792.1,570.3c5.6,3.6,12.1,5.7,18.5,7.4c6.4,1.7,13.1,2.9,19.7,3.3c1.5,0.1,1.4-2.1,0-2.3
			c-6.5-0.8-13-1.8-19.3-3.5c-6.3-1.7-12.3-4.1-18.4-6C1791.9,569,1791.6,569.9,1792.1,570.3L1792.1,570.3z"/>
	</g>
	<g>
		<path class="st4" d="M1790.1,564.9c3,2.3,6.2,4.1,9.7,5.6c3.7,1.5,7.5,2.7,11.4,3.6c4,0.9,8.1,1.6,12.1,2.1
			c3.9,0.5,8,1.3,11.9,0.7c1-0.2,0.8-2-0.3-1.9c-3.9,0.4-7.9-0.3-11.8-0.9c-3.9-0.5-7.9-1.2-11.7-2.1c-7.3-1.7-14.4-4.4-20.9-8.2
			C1790,563.7,1789.5,564.5,1790.1,564.9L1790.1,564.9z"/>
	</g>
	<g>
		<path class="st4" d="M1789.6,563.6c0.7-1.6,1-3.4,1.4-5.1c0.4-1.7,0.8-3.4,1.2-5.1c0.8-3.4,1.7-6.8,2.5-10.2
			c0.3-1.2-1.5-1.6-1.8-0.5c-0.9,3.5-1.8,6.9-2.6,10.4c-0.4,1.7-0.8,3.4-1.2,5.1c-0.4,1.7-0.8,3.4-0.8,5.2
			C1788.4,564.2,1789.4,564.2,1789.6,563.6L1789.6,563.6z"/>
	</g>
	<g>
		<path class="st4" d="M1794,543c4-0.9,8.4-0.3,12.4,0.1c4.1,0.5,8.3,1.2,12.3,2.2c4,1,7.9,2.2,11.7,3.6c3.8,1.4,7.8,3,11.2,5.3
			c0.8,0.6,1.9-0.8,1.1-1.4c-3.3-2.7-7.4-4.2-11.3-5.7c-4.1-1.6-8.4-2.9-12.7-3.9c-4.2-1-8.5-1.7-12.9-2.1
			c-3.9-0.4-8.8-1.2-12.4,0.8C1792.9,542.3,1793.3,543.2,1794,543L1794,543z"/>
	</g>
	<g>
		<path class="st4" d="M1841,553.1c-0.8,1.7-1.1,3.6-1.4,5.4c-0.3,1.8-0.7,3.6-1.1,5.3c-0.8,3.7-1.6,7.4-2.5,11
			c-0.3,1.2,1.5,1.7,1.9,0.5c1-3.7,1.9-7.4,2.7-11.2c0.4-1.9,0.7-3.7,1-5.6c0.3-1.8,0.7-3.6,0.4-5.4
			C1841.9,552.8,1841.2,552.7,1841,553.1L1841,553.1z"/>
	</g>
	<g>
		<path class="st4" d="M1794.5,543.3c7.1,4,14.9,6.6,22.9,8.4c7.9,1.8,16.2,2.9,24.3,2.5c1.2-0.1,1.2-1.9,0-1.9
			c-8.1-0.2-16.1-0.7-24.1-2.5c-7.8-1.7-15.3-4.5-22.7-7.5C1794.3,542,1793.9,543,1794.5,543.3L1794.5,543.3z"/>
	</g>
	<g>
		<path class="st4" d="M1797.1,544.2c-1.6,3.2-2.3,6.9-3.3,10.3c-1,3.6-1.8,7.1-2.7,10.7c-0.3,1.1,1.5,1.6,1.8,0.5
			c0.8-3.5,1.7-7,2.6-10.5c0.9-3.5,2.2-6.9,2.7-10.5C1798.3,544,1797.4,543.5,1797.1,544.2L1797.1,544.2z"/>
	</g>
	<g>
		<path class="st4" d="M1804.4,547.4c-0.7,1.6-1.2,3.3-1.6,5c-0.5,1.8-1,3.7-1.5,5.5c-1,3.6-1.9,7.3-2.8,10.9
			c-0.3,1.1,1.4,1.5,1.6,0.5c1-3.6,1.9-7.3,2.9-10.9c0.5-1.8,0.9-3.6,1.4-5.4c0.5-1.8,1-3.5,1.1-5.4
			C1805.5,547.1,1804.6,546.9,1804.4,547.4L1804.4,547.4z"/>
	</g>
	<g>
		<path class="st4" d="M1812.5,549.8c-1.1,3.6-1.8,7.3-2.6,11c-0.8,3.7-1.6,7.4-2.4,11.1c-0.2,1.1,1.4,1.5,1.7,0.5
			c0.9-3.8,1.8-7.5,2.6-11.3c0.8-3.7,1.6-7.4,2-11.2C1813.8,549.3,1812.7,549.2,1812.5,549.8L1812.5,549.8z"/>
	</g>
	<g>
		<path class="st4" d="M1822.2,552.1c-1.3,3.5-2.2,7.1-3.2,10.7c-1,3.6-2.1,7.2-2.9,10.8c-0.2,1.1,1.4,1.6,1.7,0.5
			c1.1-3.5,2-7.2,3-10.8c1-3.6,1.9-7.2,2.6-10.8C1823.6,551.6,1822.5,551.3,1822.2,552.1L1822.2,552.1z"/>
	</g>
	<g>
		<path class="st4" d="M1829.7,552.5c-1.6,3.5-2.6,7.2-3.6,10.9c-1.1,3.8-2.1,7.6-2.9,11.4c-0.3,1.1,1.5,1.6,1.7,0.5
			c0.9-3.7,1.9-7.5,2.9-11.2c1-3.7,2.3-7.4,3-11.1C1830.9,552.3,1830,551.8,1829.7,552.5L1829.7,552.5z"/>
	</g>
	<g>
		<path class="st4" d="M1837.1,554c-2,7.1-3.7,14.3-5.5,21.5c-0.3,1.1,1.4,1.6,1.7,0.5c0.9-3.6,1.7-7.2,2.6-10.8
			c0.4-1.8,0.8-3.6,1.3-5.4c0.4-1.8,0.6-3.7,1-5.5C1838.2,553.6,1837.2,553.3,1837.1,554L1837.1,554z"/>
	</g>
	<g>
		<path class="st4" d="M1791.7,585c3.4,4,9.3,5.6,14.2,6.8c5.7,1.4,12,2.6,17.9,2.2c1.4-0.1,1.3-2,0-2.1c-2.9-0.2-5.8-0.2-8.7-0.6
			c-2.8-0.3-5.6-0.8-8.4-1.4c-2.5-0.6-5-1.2-7.4-2.1c-2.5-0.9-4.8-2.3-7-3.7C1791.8,583.9,1791.4,584.6,1791.7,585L1791.7,585z"/>
	</g>
	<g>
		<path class="st4" d="M1745,686c-2,7.1-4,14.2-5.8,21.5c-1.7,7.2-3.5,14.4-5.2,21.6c-0.4,1.7,2.1,2.4,2.6,0.7
			c1.8-7.2,3.4-14.4,5.1-21.6c1.7-7.2,3.1-14.5,4.6-21.8C1746.4,685.5,1745.2,685.2,1745,686L1745,686z"/>
	</g>
	<g>
		<path class="st4" d="M1739.1,721.5c-0.2,0.8-0.5,1.5-0.8,2.3c-0.2,0.7-0.4,1.4-0.6,2.1c-0.2,0.7-0.3,1.4-0.5,2.2
			c-0.2,0.8-0.5,1.8-0.3,2.7c0.2,1,1.7,1.1,2.2,0.3c0.4-0.6,0.4-1.6,0.5-2.3c0.1-0.8,0.2-1.5,0.3-2.3c0.1-0.7,0.2-1.5,0.3-2.2
			c0.1-0.8,0.1-1.5,0.3-2.3C1740.6,721,1739.3,720.6,1739.1,721.5L1739.1,721.5z"/>
	</g>
	<g>
		<path class="st4" d="M1838.4,617.5c-5.3,19.9-9.7,40-14.4,60c-0.3,1.4,1.8,2,2.2,0.6c4.7-20,9.6-40.1,13.6-60.2
			C1840,617,1838.7,616.7,1838.4,617.5L1838.4,617.5z"/>
	</g>
</g>
<g>
	<g>
		<path class="st4" d="M1447.8,813.1c-0.2-3.2,0.6-6.3,1.5-9.3c0.9-3,1.7-6,2.3-9.1c1-5.7,1.1-11.5-0.4-17.2
			c-1.4-5.3-4.1-10.2-7.7-14.4c-3.8-4.4-8.7-7.7-13.6-10.9c-6.3-4.1-12.5-8.3-18.6-12.5c-0.7-0.5-1.5,0.2-1.6,0.9
			c-0.3,7-0.8,13.9-1.1,20.9c-0.3,6.2-0.4,12.4,0.4,18.6c0.8,5.9,2.8,11.6,6.3,16.5c3.2,4.5,7.4,8.2,12.2,11.1
			c6,3.6,12.9,5.7,19.7,6.9c1.4,0.2,2-1.8,0.6-2.2c-11-2.5-22.2-7.2-29.3-16.4c-7.4-9.5-7.4-21.7-7.2-33.1
			c0.2-7.4,0.1-14.9,0.4-22.3c-0.5,0.3-1,0.6-1.6,0.9c5.2,3.6,10.5,7.2,15.7,11c4.7,3.4,9.8,6.7,13.9,10.8c3.9,3.9,6.7,8.6,8.3,13.9
			c1.7,5.7,1.8,11.6,0.7,17.4c-0.6,3.3-1.6,6.6-2.4,9.9c-0.8,3.1-1.4,6.2-0.1,9.2C1446.5,814.3,1447.8,813.9,1447.8,813.1
			L1447.8,813.1z"/>
	</g>
	<g>
		<path class="st4" d="M1452.9,815.6c-1.8-0.9-3.6-2.4-5.2-3.6c-1.7-1.2-3.2-2.6-4.7-4c-3.1-2.9-5.7-6.3-8-9.8
			c-5.1-7.8-8.9-16.5-11.9-25.3c-1.8-5.3-3-10.7-4.2-16.2c-0.2-1.1-2.1-0.9-2,0.3c0.8,10.2,4.2,20.3,8.4,29.6
			c3.7,8.3,8.3,16.3,14.8,22.7c1.7,1.7,3.5,3.2,5.5,4.5c1,0.7,2.1,1.4,3.2,1.9c1.1,0.5,2.4,0.8,3.5,1.3
			C1453.1,817.3,1453.7,816,1452.9,815.6L1452.9,815.6z"/>
	</g>
	<g>
		<path class="st4" d="M1429.8,760.6c-2,3.7-2.7,8.2-3.5,12.3c-0.8,4.2-1.4,8.5-1.2,12.8c0.6-0.3,1.2-0.7,1.8-1
			c-4.5-3.2-8.8-6.6-13.1-9.8c-1.1-0.9-2.2,1.1-1.1,1.9c4.3,3.2,8.6,6.4,12.8,9.8c0.8,0.6,2,0.2,2-0.8c0.2-4.3,0.6-8.4,1.4-12.6
			c0.7-4,2.1-8.1,2.1-12.2C1431,760.3,1430.1,760,1429.8,760.6L1429.8,760.6z"/>
	</g>
	<g>
		<path class="st4" d="M1440.2,779.4c-1.4,4-1.9,8.4-2.4,12.6c-0.5,4.3-0.9,8.7-1,13c0.6-0.3,1.2-0.7,1.8-1c-2.6-1.7-5.2-3.3-7.8-5
			c-1.3-0.8-2.5-1.6-3.8-2.4c-1.2-0.8-2.5-1.9-3.9-2.3c-1-0.3-1.6,1-1,1.7c0.9,1,2.3,1.7,3.5,2.5c1.3,0.9,2.6,1.8,4,2.6
			c2.6,1.7,5.2,3.4,7.7,5.1c0.8,0.5,1.8-0.2,1.8-1c0.2-4.3,0.5-8.5,0.9-12.8c0.4-4.2,1.2-8.5,1.2-12.7
			C1441.4,778.8,1440.5,778.8,1440.2,779.4L1440.2,779.4z"/>
	</g>
</g>
<g>
	<path class="st5" d="M1442,850.9c8.6,6.7,15.8,15.4,25,21.4c12.5,8.1,28.4,10.8,42.8,7.1l0-0.1c-14.4-7.4-23.7-22.8-38.6-29
		C1461.9,846.5,1451.1,846.7,1442,850.9z"/>
	<path class="st5" d="M1513.6,918.7c9.8,1.5,20.3-2.2,27.2-9.4c6.5-6.9,9.5-16.2,12.3-25.3C1536,889.7,1521.4,902.5,1513.6,918.7z"
		/>
	<path class="st5" d="M1524.6,882.5c-20.4-0.8-41,5.9-56.9,18.6c2.3,0.6,4.5,1.1,6.8,1.7c8,2,16.2,4,24.3,2.9
		c12.1-1.7,22.8-10.8,26.3-22.5l0.5-1.1c-0.4-0.2-0.8-0.5-1.2-0.7c0.1,0.3,0.1,0.5,0.2,0.7L1524.6,882.5z"/>
	<path class="st5" d="M1477.6,834.1c11.1,19.5,27.5,36,46.8,47.4c-3.2-12.1-6.7-24.6-14.9-33.9
		C1501.6,838.7,1489.5,833.6,1477.6,834.1z"/>
	<path class="st5" d="M1553.6,884.1c0.8-7-2.1-14-6.5-19.5c-4.4-5.5-10.2-9.6-16-13.5c-5.9-3.8-12-7.4-17.2-12
		c1.6,10.6,6.4,20.7,13.5,28.6C1534.3,875.5,1543.6,881.3,1553.6,884.1L1553.6,884.1z"/>
	<g>
		<path class="st4" d="M1567.9,880.2c-7,0.2-13.9,1.3-20.9,1.5c-7,0.2-14-0.1-21-0.9c-13.8-1.5-27.4-5.1-40.3-10.2
			c-7.4-2.9-14.5-6.5-21.5-10.3c-0.9-0.5-1.5,0.8-0.8,1.3c11.7,8.1,25.3,13.8,39,17.5c13.6,3.7,27.8,5.6,42,5.4
			c4,0,8.1-0.2,12.1-0.6c4-0.4,7.9-0.9,11.7-2.1C1568.9,881.4,1568.8,880.1,1567.9,880.2L1567.9,880.2z"/>
	</g>
	<g>
		<path class="st4" d="M1485.7,839.4c15,12.2,27.9,26.9,37.7,43.6c0.2-0.6,0.3-1.2,0.5-1.8c-11.2,7.8-22.9,15.7-36.5,18.3
			c-1.6,0.3-0.9,2.7,0.7,2.4c13.9-2.6,25.7-10.7,37.2-18.5c0.6-0.4,0.8-1.1,0.5-1.8c-4.8-8.6-10.6-16.6-17.1-23.9
			c-3.3-3.7-6.8-7.2-10.4-10.5c-3.6-3.3-7.5-6.1-11.5-8.9C1485.9,837.8,1485.1,838.9,1485.7,839.4L1485.7,839.4z"/>
	</g>
	<g>
		<path class="st4" d="M1519.7,852.3c1.3,0.9,2.4,2.1,3.7,3.1c1.2,0.9,2.3,1.9,3.5,2.9c2.3,2,4.5,3.9,6.7,6
			c4.3,4.1,8.4,8.4,12.5,12.8c1,1,1.9,2.1,2.9,3.2c0.5,0.5,0.9,1,1.4,1.5c0.4,0.5,1.3,1.2,1.4,1.8c0.3,1.2-1,3.1-1.5,4.1
			c-0.6,1.2-1.3,2.4-2,3.5c-2.9,4.6-6.5,8.7-10.4,12.4c-4.5,4.3-9.5,7.9-14.2,12.1c-1,0.9,0.3,2.6,1.4,1.9
			c4.8-3.4,9.4-7.3,13.7-11.4c4.2-3.9,8-8.2,11.1-12.9c1.6-2.4,3-5,4-7.7c1.2-3.1-1.3-5-3.2-7.1c-4.3-4.7-8.6-9.4-13.3-13.8
			c-2.7-2.5-5.4-5-8.3-7.3c-1.4-1.1-2.8-2.2-4.2-3.2c-1.5-1.1-3.2-1.8-4.7-2.8C1519.7,851,1519.2,851.9,1519.7,852.3L1519.7,852.3z"
			/>
	</g>
</g>
<g>
	<g>
		<path class="st3" d="M1495.2,753.7c-1.3-2.7-2.5-5.3-3.3-8.1c-1.9-6.7-1.7-13.8-0.3-20.6c1.4-6.8,3.9-13.3,6.3-19.8
			c0.3,3.9,1.9,7.5,3.2,11.1c5.1,13.8,8,29.1,3.8,43.3c-0.8,2.6-1.8,5.2-1.7,7.8l-0.9,0.5C1499.8,763.2,1497.4,758.5,1495.2,753.7z"
			/>
	</g>
	<g>
		<path class="st3" d="M1477,798.6c-3.3-3-6.5-6-9.8-9c2.8,0.1,5.5,0.1,8.3,0.2c6.7,0.1,13.6,0.3,19.9,2.6c8.4,3,15,9.5,21.3,15.7
			c-0.6-9.8-0.2-20,4.5-28.6c4.8-8.5,13.2-14.2,21.4-19.5c-1.5,9.3,0.6,19.4-3.7,27.9c-3.9,7.7-12,12-18.9,17.3
			c-1.2,0.9-2.4,1.9-3.1,3.2l0,0c-4.9,2.9-10.8,3.9-16.5,3.1c-5.7-0.7-11.1-3.1-15.7-6.4C1482,803.2,1479.5,800.9,1477,798.6z"/>
	</g>
	<g>
		<path class="st3" d="M1557.8,854.5c-4.7,3.8-12.8,5.4-18.6,7.2c-3.7,1.1-7.4,2.2-11.2,2.7c-3.8,0.4-7.8,0.1-11.3-1.5
			c-3.4-1.6-6.3-4.3-9.9-5.3C1521.4,848.1,1541.8,847.5,1557.8,854.5z"/>
	</g>
	<g>
		<path class="st3" d="M1565.8,803.8c-1.1,6.2-0.1,12.6,0.7,18.9c0.8,6.3,1.2,12.8-1.2,18.7c-1.8,4.6-4.3,9.5-7.6,13.2
			c-8.5-9.5-10.3-24.3-4.4-35.6C1556.4,813,1561.1,808.4,1565.8,803.8z"/>
	</g>
	<g>
		<path class="st3" d="M1525.4,767c-4.3,7.2-11.7,12-19.4,15.3c1.1-11.1,3.6-24.1,9.2-33.6c4-6.8,10.1-12.3,17.3-15.6
			c-2.2,4.2-1.7,9.2-1.9,14c-0.1,4.3-0.8,8.5-2.1,12.6C1527.8,762.2,1526.8,764.7,1525.4,767z"/>
	</g>
	<g>
		<path class="st3" d="M1502.5,838.4c-3.4-1.2-6.3-3.4-9-5.6c-3-2.4-5.9-5-8.7-7.6c6.8-1.7,13.7-3.3,20.7-2.8
			c10.3,0.8,19.7,6.1,28.7,11.3c0.1,0.2,0.2,0.5,0.3,0.7c-7.7,2.7-15.9,5.4-24,5.2C1507.8,839.5,1505,839.3,1502.5,838.4z"/>
	</g>
	<g>
		<path class="st3" d="M1534.6,834c-0.1-0.1-0.3-0.2-0.4-0.3c-1.9-5.2-3.1-10.7-3.1-16.3c0.1-5.8,1.5-11.7,4.7-16.5
			c1.8-2.8,4.1-5.2,6.5-7.6c3.7-3.6,7.5-6.9,11.6-10c-0.1,5-0.3,9.9-0.4,14.9c0,2.4-0.1,4.7-0.5,7.1c-0.6,3.9-2.1,7.5-4.4,10.7
			C1544.2,822.3,1537.1,826.7,1534.6,834z"/>
	</g>
	<g>
		<path class="st3" d="M1473.9,763.8c-3-4.4-6-8.8-9-13.1c7.7,2,15.3,4.9,21.5,9.9c2.1,1.7,4,3.6,5.8,5.6
			c4.6,4.9,8.8,10.3,12.6,15.9c0.2,0.2,0.3,0.4,0.5,0.5c0.2,0.1,0.5,0,0.7-0.1c0,0.1,0,0.2,0,0.4c-10.6-0.1-21.2-5-28-13.2
			C1476.6,767.7,1475.2,765.7,1473.9,763.8z"/>
	</g>
	<g>
		<path class="st4" d="M1497.5,739.2c0.5,5.3,0.8,10.6,1.7,15.9c0.8,5.4,1.9,10.7,3.1,15.9c2.4,10.3,5.6,20.4,9.8,30.1
			c7.5,17.4,18.6,33.5,33.2,45.8c7.9,6.6,16.7,12,26.2,15.8c1.4,0.6,2-1.7,0.6-2.3c-16.8-6.7-31.1-18.6-42-32.9
			c-12-15.7-19.8-34.2-24.8-53.3c-1.5-5.7-2.7-11.4-3.7-17.1c-1.1-5.9-2.3-11.9-3.1-17.8C1498.5,738.5,1497.4,738.5,1497.5,739.2
			L1497.5,739.2z"/>
	</g>
	<g>
		<path class="st4" d="M1503.3,768.2c-4.7-9.9-11.2-19.6-12-30.8c-0.8-11.2,3.3-21.8,7.2-32.1c-0.4-0.1-0.8-0.1-1.3-0.2
			c0.5,5.3,2.9,10.2,4.5,15.2c1.6,5.2,2.9,10.5,3.5,15.9c0.6,5.3,0.7,10.7-0.1,16c-0.4,2.5-1,5-1.7,7.5c-0.8,2.5-1.6,5-1.5,7.7
			c0.1,1.6,2.4,1.6,2.4,0c0-2.8,1.1-5.4,1.8-8c0.7-2.4,1.1-4.9,1.4-7.3c0.6-5.2,0.4-10.4-0.3-15.5c-0.8-5.3-2.1-10.5-3.8-15.5
			c-1.7-5.2-4.4-10.3-4.9-15.8c-0.1-0.7-1-0.9-1.3-0.2c-3.1,8.2-6.2,16.6-7.2,25.4c-0.5,4.3-0.5,8.7,0.3,12.9
			c0.8,4.2,2.6,8,4.4,11.8c2.2,4.7,4.5,9.4,7.3,13.8C1502.6,769.7,1503.7,769,1503.3,768.2L1503.3,768.2z"/>
	</g>
	<g>
		<path class="st4" d="M1506.7,782.9c1.4-9.8,3-19.8,7-28.8c3.9-8.8,10.6-16.1,19.4-20.1c-0.5-0.5-0.9-0.9-1.4-1.4
			c-1.6,3.2-1.9,6.7-2,10.2c-0.1,3.8-0.2,7.6-0.9,11.4c-1.4,7.4-4.5,14.1-10.2,19.2c-2.5,2.2-5.3,4.1-8.2,5.7
			c-0.8,0.4-1.6,0.9-2.4,1.3c-0.5,0.3-1.5,1-2,1c-0.8,0-1.4-1.4-1.8-2c-0.7-1-1.4-2-2.1-2.9c-4.4-5.9-9.2-11.9-14.9-16.6
			c-6.4-5.2-14.1-7.8-21.9-10.2c-0.8-0.2-1.6,0.7-1.1,1.4c3,4.5,6.1,9.1,9.1,13.6c2.6,3.8,5.3,7.4,8.9,10.3c6.7,5.5,15.3,8.8,24,8.6
			c1.3,0,1.3-2,0-2c-8.4-0.3-16.7-3.3-23.1-8.8c-3.4-2.9-6-6.5-8.5-10.2c-2.9-4.2-5.8-8.4-8.7-12.6c-0.4,0.5-0.7,1-1.1,1.4
			c7.5,1.8,15.1,4.7,21.1,9.6c6.1,5,11.3,11.5,15.9,17.9c0.6,0.8,1.2,1.7,1.8,2.5c0.4,0.6,0.8,1.4,1.5,1.7c1.2,0.6,3.1-0.7,4.1-1.2
			c3.1-1.5,6.2-3.2,8.9-5.3c5.7-4.4,9.6-10,11.7-16.9c1.3-4.3,2-8.8,2.1-13.3c0.1-4.4-0.3-9,1.6-13c0.4-0.9-0.4-1.8-1.4-1.4
			c-6.9,3.3-12.8,8.3-17,14.8c-4.3,6.7-6.6,14.5-8.1,22.3c-0.8,4.4-1.4,8.9-1.6,13.4C1505.3,783.4,1506.6,783.6,1506.7,782.9
			L1506.7,782.9z"/>
	</g>
	<g>
		<path class="st4" d="M1517.3,808.3c-0.1-9.8-0.1-20.1,5-28.8c4.8-8.1,13-13.6,20.7-18.6c-0.4-0.3-0.9-0.7-1.3-1
			c-1.6,9.9,0.8,21.1-5.2,29.9c-2.6,3.8-6.3,6.7-10,9.4c-1.9,1.4-3.8,2.7-5.7,4c-1.8,1.3-3.7,2.7-4.9,4.7c0.5-0.1,1.1-0.1,1.6-0.2
			c-6.2-6.2-12.8-12.5-21.1-15.8c-9.2-3.6-19.7-2.9-29.3-3.1c-0.8,0-1.3,1.1-0.7,1.7c4.1,3.7,8,7.5,12.1,11.1
			c3.6,3.2,7.5,6.2,11.9,8.2c8.5,3.9,18.6,4.3,26.9-0.4c1.1-0.6,0.1-2.4-1-1.7c-8.1,4.7-18.1,4-26.2-0.2c-4.2-2.1-7.9-5.1-11.3-8.3
			c-3.6-3.3-7.3-6.7-10.9-10c-0.2,0.6-0.5,1.1-0.7,1.7c9.4,0.2,19.5-0.5,28.4,2.8c8.2,3.1,14.5,9.6,20.6,15.7
			c0.5,0.5,1.3,0.3,1.6-0.2c1.1-1.6,2.8-2.8,4.4-3.9c1.5-1.1,3-2.1,4.5-3.2c2.9-2,5.8-4.2,8.3-6.7c2.6-2.6,4.6-5.5,5.9-8.9
			c1.4-3.7,1.8-7.7,1.9-11.6c0.2-4.8,0-9.6,0.7-14.3c0.1-0.7-0.6-1.4-1.3-1c-6.3,4.2-12.7,8.3-17.6,14.1c-5.1,6-7.7,13.2-8.6,21
			c-0.5,4.6-0.4,9.2,0.2,13.8C1516.2,809,1517.3,809,1517.3,808.3L1517.3,808.3z"/>
	</g>
	<g>
		<path class="st4" d="M1535,834.3c-1.4-5-2.9-10-3-15.3c-0.2-4.7,0.6-9.5,2.5-13.9c1.9-4.4,5-7.9,8.4-11.2
			c3.7-3.6,7.5-6.9,11.5-10.1c-0.4-0.2-0.9-0.4-1.3-0.6c-0.1,5.3-0.3,10.7-0.5,16c-0.2,5.3-1,10.3-3.8,14.9
			c-4.3,7.1-12.2,11.5-15.1,19.6c0.4-0.2,0.9-0.4,1.3-0.5c-7.4-4.5-15.1-8.9-23.7-10.9c-9.1-2.1-18-0.2-26.9,1.9
			c-0.7,0.2-1,1.2-0.4,1.7c3.4,3.3,7,6.4,10.8,9.3c3.5,2.6,7.2,4.5,11.5,5.1c9.7,1.3,19.2-1.8,28.3-4.9c1.2-0.4,0.7-2.3-0.5-1.9
			c-8.6,3-17.5,5.9-26.8,4.9c-4.4-0.5-8-2.3-11.5-5c-3.6-2.8-7-5.9-10.4-9c-0.1,0.6-0.3,1.1-0.4,1.7c8.7-2.3,17.5-4,26.4-1.9
			c8.2,2,15.6,6.3,22.8,10.5c0.5,0.3,1.1,0,1.3-0.5c2.9-8.3,11.5-12.9,15.5-20.5c2.3-4.4,3.1-9,3.3-13.9c0.2-5.5,0.2-11,0.4-16.5
			c0-0.8-0.8-0.9-1.3-0.6c-4.3,3.3-8.4,6.9-12.3,10.7c-3.5,3.4-6.5,7.2-8.4,11.7c-3.8,9.2-3,20.7,1.3,29.6
			C1534.2,835.4,1535.2,834.9,1535,834.3L1535,834.3z"/>
	</g>
	<g>
		<path class="st4" d="M1558.3,854.1c-5.4-7.2-8.4-15.9-7.2-25c1.3-10.4,8.2-17.7,15.4-24.8c-0.5-0.3-1-0.6-1.6-0.9
			c-1.6,9,1.2,17.8,1.3,26.8c0.1,8.5-3.4,17.1-9.1,23.5c0.4,0,0.8-0.1,1.2-0.1c-16.4-7.1-36.7-6.7-52,3c-0.7,0.5-0.6,1.6,0.2,1.9
			c4.6,1.4,8,5.1,12.7,6.3c4.9,1.3,10.1,0.6,15-0.7c4.4-1.1,8.8-2.4,13.1-3.8c4-1.2,7.9-2.6,11.2-5.2c1-0.8-0.4-2.2-1.4-1.4
			c-3.2,2.5-7.2,3.8-11,4.9c-4.1,1.2-8.3,2.5-12.5,3.6c-4.8,1.2-9.8,1.9-14.6,0.5c-4.4-1.3-7.6-4.8-12-6.1c0.1,0.6,0.2,1.2,0.2,1.9
			c14.7-9.4,34.2-9.8,50-3.1c0.4,0.2,0.9,0.2,1.2-0.1c5.4-6.1,9.3-14.6,9.5-22.8c0.3-9.5-2.9-18.9-1.3-28.3c0.2-0.9-0.9-1.6-1.6-0.9
			c-5.9,5.8-11.9,11.9-14.6,19.9c-2.3,6.9-2.1,14.6,0.3,21.5c1.4,3.9,3.5,7.5,6.4,10.4C1557.8,855.4,1558.7,854.7,1558.3,854.1
			L1558.3,854.1z"/>
	</g>
	<g>
		<path class="st4" d="M1479.1,763.3c3.5,3.8,7.5,7.1,11.6,10.3c4.1,3.2,8.3,6.1,12.7,8.9c0.8,0.5,1.6-0.8,0.8-1.3
			c-4.3-2.7-8.5-5.6-12.5-8.7c-4.1-3.1-7.9-6.6-11.9-9.8C1479.3,762.3,1478.7,762.9,1479.1,763.3L1479.1,763.3z"/>
	</g>
	<g>
		<path class="st4" d="M1506.4,781.9c7.3-10.3,13.2-21.6,18.2-33.2c0.4-0.9-1-1.7-1.4-0.8c-5,11.6-11.1,22.7-17.6,33.5
			C1505.3,781.9,1506.1,782.4,1506.4,781.9L1506.4,781.9z"/>
	</g>
	<g>
		<path class="st4" d="M1536,771.8c-2.4,2-4,4.3-5.6,6.9c-1.8,2.9-3.5,5.9-5.1,8.9c-3.1,5.8-6.1,11.9-8.3,18.2
			c-0.3,0.9,1.2,1.6,1.6,0.7c2.6-6,5-12,8.1-17.8c1.5-2.8,3-5.5,4.7-8.3c1.6-2.7,3.2-5.7,5.5-7.9
			C1537.3,772.1,1536.5,771.3,1536,771.8L1536,771.8z"/>
	</g>
	<g>
		<path class="st4" d="M1516.8,807.8c-2.9-1.3-5.7-2.7-8.6-3.9c-3-1.2-6-2.4-9-3.7c-2.8-1.1-5.6-2.2-8.4-3.2c-2.9-1-5.9-2-8.9-2.2
			c-1-0.1-1.1,1.4-0.2,1.7c2.9,0.8,5.8,1.4,8.7,2.3c2.9,1,5.7,2.1,8.4,3.2c2.8,1.1,5.7,2.3,8.5,3.4c3,1.2,6.1,2.2,9.2,3.4
			C1517,809,1517.4,808.1,1516.8,807.8L1516.8,807.8z"/>
	</g>
	<g>
		<path class="st4" d="M1548.6,793.3c-7.3,12-12.1,25.6-14.5,39.4c-0.1,0.8,1.1,1.2,1.3,0.4c2.4-13.8,7.3-27,13.9-39.3
			C1549.6,793.3,1548.8,792.9,1548.6,793.3L1548.6,793.3z"/>
	</g>
	<g>
		<path class="st4" d="M1496.7,829.6c12.4-0.6,24.9,1.4,36.6,5.6c0.8,0.3,1.2-1,0.4-1.3c-11.8-4.2-24.4-6-36.9-5.2
			C1496.1,828.7,1496,829.6,1496.7,829.6L1496.7,829.6z"/>
	</g>
	<g>
		<path class="st4" d="M1560.9,815.7c-4.3,11.9-5.5,25-4.8,37.6c0.1,1.1,1.7,1.1,1.6,0c-0.7-12.7,1.1-25,4.2-37.3
			C1562.2,815.3,1561.2,815.1,1560.9,815.7L1560.9,815.7z"/>
	</g>
	<g>
		<path class="st4" d="M1519.8,857.3c11.7-1.6,23.6-2.4,35.4-2c1.1,0,1.1-1.7,0-1.8c-12-0.4-23.9,0.4-35.6,2.8
			C1518.9,856.5,1519.2,857.4,1519.8,857.3L1519.8,857.3z"/>
	</g>
</g>
<g>
	<path class="st3" d="M1692.8,648.5c-4-0.3-7.1-3.4-11.7-10.1c-9-13.3-33.1-8.8-42.1-37.4c-9-28.6,19.6-44.7,19.6-44.7
		s27.9-17.3,48.6,4.4c20.7,21.7,5.1,40.7,12.4,55c3.7,7.2,4.9,11.5,3.2,15.1c-1.7,3.5-6.1,6.5-13.7,10.9
		C1701.4,646.2,1696.7,648.7,1692.8,648.5z"/>
	<path class="st5" d="M1722.7,630.8c0.2,0.1,0.7,0.6,1.5,2.8c0.5,1.4,0.7,4.1-0.3,6.1c-0.3,0.7-0.7,1.2-1.3,1.6
		c-2,1.5-5.1,3.5-10.1,6.4c-4.9,2.9-8.3,4.7-10.5,5.7c-0.7,0.3-1.5,0.4-2.3,0.3c-2.1-0.2-4.3-1.6-5.2-2.7c-1.5-1.8-1.7-2.5-1.7-2.7
		c3.9,0.2,8.6-2.2,16.2-6.7C1716.6,637.3,1721,634.4,1722.7,630.8z"/>
	<path class="st5" d="M1729.6,648.3c0,0,2.6,0,1.6,2.7c0,0-0.3,0.4-2.7,2.1c-1.7,1.2-4.6,3.1-9.4,5.8c-4.7,2.8-7.7,4.4-9.6,5.4
		c-2.7,1.3-3.2,1.3-3.2,1.3c-2.9-0.4-1.6-2.7-1.6-2.7l-1-1.6c-2.8-0.6-1.7-2.8-1.7-2.8l-0.8-1.4c-2.5-1-1.7-2.8-1.7-2.8l0.1-0.4
		c0.8,0.1,1.6,0,2.3-0.3c2.2-1,5.6-2.8,10.5-5.7c4.9-2.9,8.1-5,10.1-6.4c0.6-0.4,1-1,1.3-1.6l0.5-0.2c0,0,2,0.2,1.7,2.8l0.8,1.4
		c0,0,2.5,0.1,1.7,2.8L1729.6,648.3z"/>
	<path class="st5" d="M1728.5,653.1c0,0,2,4.2-7.1,9.6c-9.1,5.4-11.9,1.6-11.9,1.6c1.9-0.9,4.9-2.6,9.6-5.4
		C1723.9,656.2,1726.7,654.3,1728.5,653.1z"/>
	<g>
		<path class="st4" d="M1699.3,654.2c1.2,0.4,2.2,0,3.4-0.4c1.3-0.4,2.5-0.9,3.8-1.4c2.4-0.9,4.9-2,7.2-3.2c2.1-1.1,4.1-2.4,6-3.8
			c1.8-1.4,4-3.1,5.1-5.1c0.4-0.8-0.6-1.6-1.3-1c-0.8,0.7-1.5,1.6-2.2,2.4c-0.8,0.8-1.7,1.6-2.7,2.3c-1.8,1.4-3.8,2.6-5.8,3.7
			c-2.2,1.1-4.5,2.1-6.8,3c-2.3,0.9-4.7,1.5-6.8,2.6C1698.7,653.5,1698.9,654.1,1699.3,654.2L1699.3,654.2z"/>
	</g>
	<g>
		<path class="st4" d="M1701.5,657.4c2.4-0.1,4.7-1.4,6.8-2.3c2.4-1,4.7-2.1,7-3.4c4-2.2,8.2-5,11.1-8.5c0.7-0.9-0.4-2.1-1.3-1.3
			c-1.7,1.6-3.3,3.2-5.1,4.6c-1.8,1.4-3.8,2.6-5.8,3.7c-2.1,1.2-4.3,2.2-6.6,3.2c-2.1,0.9-4.6,1.6-6.5,3.1
			C1700.8,656.8,1701.1,657.4,1701.5,657.4L1701.5,657.4z"/>
	</g>
	<g>
		<path class="st4" d="M1702.3,658.9c2.4,0.2,5-1.2,7.2-2.1c2.5-1,4.9-2.1,7.2-3.3c4.2-2.2,8.2-5.1,11.1-8.9c0.6-0.8-0.7-1.8-1.3-1
			c-3,3.5-6.6,6.2-10.6,8.4c-2.1,1.1-4.4,2.2-6.6,3.1c-2.3,1-4.7,2.1-7.1,2.8C1701.5,658.1,1701.7,658.9,1702.3,658.9L1702.3,658.9z
			"/>
	</g>
	<g>
		<path class="st4" d="M1703.8,661.6c4.7-0.4,9.5-2.8,13.6-5.2c4.3-2.4,8.4-5.4,11.8-9c0.8-0.9-0.4-2.1-1.3-1.3
			c-3.5,3.3-7.2,6.4-11.4,8.8c-2.1,1.2-4.2,2.2-6.4,3.1c-2.2,0.9-4.5,1.6-6.6,2.6C1703.1,660.8,1703.3,661.7,1703.8,661.6
			L1703.8,661.6z"/>
	</g>
	<g>
		<path class="st4" d="M1705,663.3c4.7-0.6,9.3-2.8,13.4-5.1c4.2-2.4,8.2-5.5,11.4-9.1c0.7-0.8-0.4-1.9-1.1-1.1
			c-3.3,3.3-6.9,6.3-10.9,8.8c-2,1.2-4.1,2.2-6.2,3.1c-2.2,0.9-4.5,1.6-6.7,2.4C1704.4,662.4,1704.4,663.4,1705,663.3L1705,663.3z"
			/>
	</g>
	<g>
		<path class="st4" d="M1706.5,665.9c2.4-0.1,4.7-1.1,6.9-2c2.4-1.1,4.7-2.3,7-3.6c4-2.3,8.7-4.9,11.4-8.7c0.6-0.9-0.7-1.8-1.4-1.1
			c-1.7,1.6-3.3,3.3-5.3,4.6c-1.9,1.3-3.9,2.5-5.9,3.7c-2,1.2-4.1,2.3-6.2,3.3c-2.2,1-4.6,1.7-6.8,2.8
			C1705.7,665,1705.9,665.9,1706.5,665.9L1706.5,665.9z"/>
	</g>
	<g>
		<path class="st4" d="M1718.2,636.9c3.3-2.6,6.6-6.1,6.7-10.6c0-4.8-3.7-8.4-5.1-12.7c-3-9.6,0.6-19.9-0.5-29.8
			c-1.1-9.4-5.2-18.4-11.9-25.2c-3.2-3.2-7-5.9-11.2-7.6c-4.6-1.9-9.7-2.4-14.7-2.3c-18.6,0.4-36.1,11.5-42.6,29.2
			c-6.1,16.6-0.3,36.4,15,45.9c7.4,4.6,16.6,6.3,23.3,12.1c3.2,2.7,5.2,6.5,8,9.5c2.9,3.1,6.6,4.8,10.9,4.1c2.3-0.4,4.3-1.3,6.2-2.6
			c1-0.7,0.1-2.2-1-1.6c-3.9,2.1-8.7,3.2-12.5,0.4c-3-2.2-4.9-5.8-7.3-8.6c-5.2-6.3-13.2-8.8-20.4-12.1c-3.8-1.7-7.4-3.7-10.5-6.4
			c-3-2.7-5.5-5.9-7.5-9.4c-4-7.3-5.5-15.9-3.9-24.2c1.6-8.4,6-16.3,12.2-22.2c6.4-6,14.7-9.8,23.4-11.3c9.1-1.5,18.7-0.6,26.4,4.8
			c7.4,5.2,12.6,13.4,14.8,22.1c1.1,4.5,1.4,9,1.1,13.5c-0.3,4.7-0.9,9.4-0.8,14.1c0.1,4.4,1,8.6,3.2,12.4c1.1,2,2.4,3.9,3,6.1
			c0.6,2.2,0,4.4-1.2,6.3c-1.2,1.8-2.7,3.4-4.3,4.9C1716.3,636.5,1717.4,637.6,1718.2,636.9L1718.2,636.9z"/>
	</g>
	<g>
		<path class="st4" d="M1651.2,612.1c-2.9-3.8-4.9-8.6-6-13.2c-1.2-4.9-1.5-9.9-0.8-15c0.2-1.4-1.9-2-2.1-0.6
			c-0.8,5.3-0.6,10.7,0.7,15.9c1.2,4.8,3.3,10.4,7.3,13.5C1650.8,613.1,1651.6,612.6,1651.2,612.1L1651.2,612.1z"/>
	</g>
	<g>
		<path class="st4" d="M1664.5,607.6c9.9,13.9,20.5,27.2,31.6,40.2c0.7,0.8,1.8-0.3,1.1-1.1c-11-12.9-21.5-26.1-31.7-39.6
			C1665,606.5,1664,607,1664.5,607.6L1664.5,607.6z"/>
	</g>
	<g>
		<path class="st4" d="M1698.6,590.8c7.5,14.1,12.4,29.4,19.6,43.6c0.5,1,2,0.1,1.5-0.9c-7.2-14.2-12.5-29.3-20.1-43.3
			C1699.2,589.5,1698.2,590.1,1698.6,590.8L1698.6,590.8z"/>
	</g>
	<g>
		<path class="st4" d="M1662.9,617c2.7,6.3,10.5,8.3,16,4.3c2.8-2,4.8-4.9,6.5-7.8c1.9-3.3,3.5-6.9,4.4-10.6
			c0.6-2.6,1.2-6.7-1.2-8.6c-2.4-1.9-4.3,3-4.7,4.6c-0.7,3.3-0.4,7.2,1.6,9.9c1.8,2.5,4.8,3.2,7.5,1.7c1.7-0.9,2.9-2.5,4-4
			c1.4-1.9,2.7-4,3.9-6c2.4-3.8,5-7.5,8.9-9.9c0.8-0.5,0.1-1.9-0.8-1.3c-4.9,3.1-7.9,8.1-10.9,12.9c-1.6,2.5-3.3,5.8-6,7.3
			c-3.4,1.9-6-0.9-6.9-4c-0.9-2.9-0.9-6.8,0.9-9.4c1.9-2.7,3,1.3,3.1,2.6c0.1,1.5-0.2,3-0.6,4.4c-1.5,5.7-4.2,11.6-8.3,15.9
			c-2.4,2.4-5.5,4-8.9,3.7c-3.6-0.3-6.6-2.7-8.1-5.9C1663.3,616.4,1662.8,616.7,1662.9,617L1662.9,617z"/>
	</g>
	<g>
		<path class="st4" d="M1706.8,550.8c2.6-4,5.2-7.9,8-11.7c1.3-1.9,2.7-3.8,4.1-5.7c1.4-1.9,3.2-3.8,4.1-5.9c0.5-1-0.7-2-1.6-1.2
			c-1.7,1.5-3,3.7-4.3,5.5c-1.4,1.9-2.8,3.9-4.2,5.9c-2.7,3.9-5.4,7.9-8.1,11.9C1704,550.9,1706,552,1706.8,550.8L1706.8,550.8z"/>
	</g>
	<g>
		<path class="st4" d="M1713,553.4c1.6-1.4,3.2-2.9,4.7-4.4c0.8-0.7,1.5-1.5,2.2-2.2c0.8-0.8,1.6-1.6,2.3-2.5
			c0.3-0.4,0.1-0.9-0.2-1.2c-0.4-0.3-0.8-0.2-1.2,0.1c-0.8,0.7-1.5,1.5-2.2,2.2c-0.8,0.8-1.5,1.5-2.3,2.3c-1.5,1.5-3.1,3-4.7,4.4
			C1710.7,552.9,1712.1,554.2,1713,553.4L1713,553.4z"/>
	</g>
	<g>
		<path class="st4" d="M1717.9,558.5c1.5-0.9,3.1-1.8,4.7-2.6c0.8-0.4,1.6-0.8,2.4-1.1c0.4-0.2,0.7-0.3,1.1-0.5
			c0.3-0.1,0.5-0.3,0.7-0.4c0.2-0.1,0.4-0.2,0.7-0.3c1-0.4,0.3-2-0.7-1.7c-0.2,0.1-0.4,0.2-0.7,0.2c-0.2,0.1-0.5,0.1-0.7,0.2
			c-0.4,0.1-0.8,0.3-1.2,0.5c-0.8,0.4-1.7,0.8-2.5,1.2c-1.6,0.8-3.2,1.7-4.8,2.6C1715.6,557.3,1716.7,559.2,1717.9,558.5
			L1717.9,558.5z"/>
	</g>
	<g>
		<path class="st4" d="M1699.5,544.2c0.7-2.5,1.4-5,2.2-7.5c0.8-2.5,1.8-4.9,2.5-7.4c0.4-1.1-1.5-2-2-0.8c-1.1,2.4-1.9,5-2.8,7.5
			c-0.8,2.5-1.6,5.1-2.2,7.7C1696.9,545,1699.1,545.6,1699.5,544.2L1699.5,544.2z"/>
	</g>
	<g>
		<path class="st4" d="M1691.6,542.8c0.1-1.7,0.3-3.4,0.4-5c0.1-0.8,0.1-1.6,0.2-2.5c0.1-0.8,0.4-2-0.2-2.7c-0.4-0.5-1-0.7-1.5-0.2
			c-0.7,0.7-0.6,1.9-0.6,2.8c-0.1,0.8-0.1,1.6-0.2,2.5c-0.1,1.7-0.3,3.4-0.4,5.1c0,0.6,0.6,1.1,1.1,1.1
			C1691.1,544,1691.5,543.4,1691.6,542.8L1691.6,542.8z"/>
	</g>
</g>
<g>
	<g>
		<path class="st2" d="M1398.7,886.9c-4.2,0-6.4-3.3-6.4-6.6c0-1.7,0.6-3.3,1.6-4.5c1.2-1.4,2.9-2.1,4.8-2.1c4.2,0,6.4,3.3,6.4,6.6
			c0,1.7-0.6,3.3-1.6,4.5C1402.3,886.2,1400.6,886.9,1398.7,886.9z M1398.7,876.6c-2.8,0-3.6,2.4-3.6,3.8c0,1.4,0.8,3.7,3.6,3.7
			c1.1,0,2-0.4,2.7-1.1c0.6-0.7,0.9-1.6,0.9-2.6C1402.2,878.9,1401.5,876.6,1398.7,876.6z"/>
	</g>
	<g>
		<path class="st2" d="M1396.5,909c-4.2,0-6.4-3.3-6.4-6.6c0-1.7,0.6-3.3,1.6-4.5c1.2-1.4,2.9-2.1,4.8-2.1c4.2,0,6.4,3.3,6.4,6.6
			C1402.9,905.6,1400.7,909,1396.5,909z M1396.5,898.6c-2.8,0-3.6,2.4-3.6,3.8c0,1.4,0.8,3.7,3.6,3.7c1.1,0,2-0.4,2.7-1.1
			c0.6-0.7,0.9-1.6,0.9-2.6C1400.1,901,1399.3,898.6,1396.5,898.6z"/>
	</g>
	<g>
		<path class="st2" d="M1417.4,894.1c-4.2,0-6.4-3.3-6.4-6.6c0-1.7,0.6-3.3,1.6-4.5c1.2-1.4,2.9-2.1,4.8-2.1c4.2,0,6.4,3.3,6.4,6.6
			C1423.8,890.8,1421.6,894.1,1417.4,894.1z M1417.4,883.7c-2.8,0-3.6,2.4-3.6,3.8c0,1.4,0.8,3.7,3.6,3.7c1.1,0,2-0.4,2.7-1.1
			c0.6-0.7,0.9-1.6,0.9-2.6C1420.9,886.1,1420.2,883.7,1417.4,883.7z"/>
	</g>
	<g>
		<path class="st2" d="M1414.7,873.7c-4.2,0-6.4-3.3-6.4-6.6c0-1.7,0.6-3.3,1.6-4.5c1.2-1.4,2.9-2.1,4.8-2.1c4.2,0,6.4,3.3,6.4,6.6
			C1421.1,870.4,1418.9,873.7,1414.7,873.7z M1414.7,863.4c-2.8,0-3.6,2.4-3.6,3.8c0,1.4,0.8,3.7,3.6,3.7c1.1,0,2-0.4,2.7-1.1
			c0.6-0.7,0.9-1.6,0.9-2.6C1418.3,865.7,1417.5,863.4,1414.7,863.4z"/>
	</g>
	<g>
		<path class="st2" d="M1393.4,866.3c-4.2,0-6.4-3.3-6.4-6.6c0-1.7,0.6-3.3,1.6-4.5c1.2-1.4,2.9-2.1,4.8-2.1c4.2,0,6.4,3.3,6.4,6.6
			C1399.8,863,1397.6,866.3,1393.4,866.3z M1393.4,855.9c-2.8,0-3.6,2.4-3.6,3.8c0,1.4,0.8,3.7,3.6,3.7c1.1,0,2-0.4,2.7-1.1
			c0.6-0.7,0.9-1.6,0.9-2.6C1397,858.3,1396.2,855.9,1393.4,855.9z"/>
	</g>
	<g>
		<path class="st2" d="M1379.5,879.5c-4.2,0-6.4-3.3-6.4-6.6c0-3.3,2.2-6.6,6.4-6.6c4.2,0,6.4,3.3,6.4,6.6c0,1.7-0.6,3.3-1.6,4.5
			C1383.1,878.7,1381.5,879.5,1379.5,879.5z M1379.5,869.1c-2.8,0-3.6,2.4-3.6,3.8c0,1,0.3,2,0.9,2.6c0.6,0.7,1.5,1.1,2.7,1.1
			c2.8,0,3.6-2.4,3.6-3.8C1383.1,871.5,1382.3,869.1,1379.5,869.1z"/>
	</g>
	<g>
		<path class="st2" d="M1378.3,897.7c-4.2,0-6.4-3.3-6.4-6.6c0-3.3,2.2-6.6,6.4-6.6c4.2,0,6.4,3.3,6.4,6.6c0,1.7-0.6,3.3-1.6,4.5
			C1381.9,897,1380.3,897.7,1378.3,897.7z M1378.3,887.3c-2.8,0-3.6,2.4-3.6,3.8c0,1,0.3,2,0.9,2.6c0.6,0.7,1.5,1.1,2.7,1.1
			c2.8,0,3.6-2.4,3.6-3.8C1381.9,889.7,1381.1,887.3,1378.3,887.3z"/>
	</g>
</g>
<g>
	<g>
		<path class="st4" d="M1448.4,830.9c-1.6-2-3-4.1-4.9-5.9c-1.7-1.6-3.6-3.1-5.6-4.4c-4-2.5-8.6-4.4-13.2-5.4
			c-10-2.3-20.5-1.3-30,2.3c-5.6,2.1-10.8,5.1-15.6,8.7c-0.6,0.5-0.8,1.5,0,1.9c5.2,2.8,9.5,7.4,14,11.2c4.4,3.7,8.9,7.2,14.3,9.3
			c5,2,10.6,2.6,15.7,0.8c4.5-1.5,8.4-4.3,12.2-7.1c2.2-1.6,4.4-3.3,6.6-4.8c2.3-1.5,4.7-2.7,7.2-3.8c1.3-0.6,0.3-2.3-0.9-2.1
			c-4.5,0.9-8.5,3.8-12.2,6.5c-3.7,2.7-7.4,5.7-11.6,7.6c-10.6,4.8-20.9-1.4-29-8.1c-2.4-2-4.8-4.1-7.2-6c-2.6-2-5.3-3.7-8-5.3
			c0,0.6,0,1.3,0,1.9c8.2-5.8,17.7-10.1,27.7-11.3c9.3-1.1,18.9,0.5,27.1,5.1c4.6,2.6,8.9,6,12.4,10
			C1448.1,832.5,1449,831.6,1448.4,830.9L1448.4,830.9z"/>
	</g>
	<g>
		<path class="st4" d="M1456.1,833c-4.3-1.8-8.6-3.4-13.1-4.4c-4.6-1-9.2-1.8-13.8-2.3c-9.3-1-18.9-1-28,0.9c-1,0.2-0.8,1.8,0.2,1.8
			c9.1-0.7,18.2-1.1,27.3-0.2c9.1,0.9,18.2,3,26.9,5.5C1456.4,834.5,1456.9,833.3,1456.1,833L1456.1,833z"/>
	</g>
	<g>
		<path class="st4" d="M1409.2,818.5c2.2,2.2,5.1,3.8,7.7,5.4c2.7,1.7,5.5,3.1,8.4,4.6c0-0.5,0-1.1,0-1.6
			c-6.2,3.4-12.5,6.6-18.7,9.9c-1,0.5-0.1,2.1,0.9,1.6c6.3-3.3,12.5-6.6,18.8-9.9c0.6-0.3,0.6-1.3,0-1.6c-2.7-1.5-5.4-3.2-8.1-4.8
			c-2.6-1.6-5.2-3.5-8.1-4.7C1409.4,817.2,1408.6,817.9,1409.2,818.5L1409.2,818.5z"/>
	</g>
	<g>
		<path class="st4" d="M1437.1,828.3c-2.6,1.4-5.1,3.1-7.6,4.8c-2.5,1.7-4.9,3.4-7.4,5.1c-1,0.6-0.1,2.2,0.9,1.6
			c5-3.4,10.2-6.6,14.7-10.6C1438.2,828.8,1437.6,828,1437.1,828.3L1437.1,828.3z"/>
	</g>
</g>
<g>
	<path class="st5" d="M1575.3,760l-6.8,1.4c-6.6-8.4-5.4-12.1-5.4-12.1l142.2-29.1l142.2-29.1c0,0,2.5,2.9-0.3,13.3l-6.8,1.4
		l-33,6.7l-36.2,7.4l-3.3,10l-58.3,11.9l-58.3,11.9l-6.9-7.9l-36.2,7.4L1575.3,760z"/>
	<path class="st2" d="M1862.5,766.8c1,4.2-2.3,8.2-6.6,7.8c-2.8-0.2-6.3-0.1-10.5,0.8l-4.3-58.7l10.9,7.6L1862.5,766.8z"/>
	<path class="st5" d="M1840.4,705.8l0.8,10.9l4.3,58.7l6.9,95.3c0.7,9.6-5.8,18.2-15.3,20.2l-93,19l-93,19
		c-9.4,1.9-18.8-3.4-22-12.6l-31-90.4l-19.1-55.6l-3.6-10.3l33-6.8l47.5,150.3l83.4-17l83.4-17l-15.3-156.9L1840.4,705.8z"/>
	<polygon class="st2" points="1807.4,712.6 1822.6,869.5 1739.3,886.6 1655.9,903.6 1608.4,753.3 1644.5,745.9 1651.4,753.8 
		1709.7,741.9 1768,730 1771.2,720 	"/>
	<path class="st2" d="M1578.9,770.4L1598,826c-4.2,0.9-7.4,2.1-9.9,3.4c-3.8,2-8.5-0.3-9.2-4.6l-7.1-43.1L1578.9,770.4z"/>
	<g>
		<path class="st4" d="M1569.5,761.9c19.5-4,39.1-8,58.6-12c5.5-1.1,11.1-2.3,16.6-3.4c1.1-0.2,0.6-1.8-0.4-1.6
			c-19.5,4-39.1,8-58.6,12c-5.5,1.1-11.1,2.3-16.6,3.4C1568,760.5,1568.5,762.1,1569.5,761.9L1569.5,761.9z"/>
	</g>
	<g>
		<path class="st4" d="M1774.4,720.1c18.6-3.8,37.3-7.6,55.9-11.4c5.3-1.1,10.7-2.2,16-3.3c1.1-0.2,0.6-1.8-0.4-1.6
			c-18.6,3.8-37.3,7.6-55.9,11.4c-5.3,1.1-10.7,2.2-16,3.3C1772.9,718.6,1773.3,720.3,1774.4,720.1L1774.4,720.1z"/>
	</g>
	<g>
		<path class="st4" d="M1652.7,754.6c30-6.1,59.9-12.2,89.9-18.4c8.5-1.7,17-3.5,25.5-5.2c1.1-0.2,0.6-1.8-0.4-1.6
			c-30,6.1-59.9,12.2-89.9,18.4c-8.5,1.7-17,3.5-25.5,5.2C1651.2,753.2,1651.7,754.8,1652.7,754.6L1652.7,754.6z"/>
	</g>
	<g>
		<path class="st4" d="M1644,747.1c2.5,2.4,5,4.9,7.4,7.3c0.8,0.8,2-0.4,1.2-1.2c-2.5-2.4-5-4.9-7.4-7.3
			C1644.4,745.2,1643.2,746.4,1644,747.1L1644,747.1z"/>
	</g>
	<g>
		<path class="st4" d="M1770.3,720.8c-0.8,2.9-1.9,5.8-3.2,8.6c-0.2,0.4-0.1,0.9,0.3,1.2c0.4,0.2,1,0.1,1.2-0.3
			c1.4-2.9,2.5-5.9,3.4-9C1772.2,720.2,1770.6,719.7,1770.3,720.8L1770.3,720.8z"/>
	</g>
	<g>
		<path class="st4" d="M1567,749.4c36.3-7.4,72.5-14.8,108.8-22.2c36.3-7.4,72.5-14.8,108.8-22.2c20.4-4.2,40.7-8.3,61.1-12.5
			c1.1-0.2,0.6-1.8-0.4-1.6c-36.3,7.4-72.5,14.8-108.8,22.2c-36.3,7.4-72.5,14.8-108.8,22.2c-20.4,4.2-40.7,8.3-61.1,12.5
			C1565.4,748,1565.9,749.6,1567,749.4L1567,749.4z"/>
	</g>
	<g>
		<path class="st4" d="M1626.1,896.3c0.9,5.4,2.6,10.4,5.6,15.1c2.8,4.5,6.4,8.7,10.7,11.8c0.9,0.7,2.1-0.8,1.2-1.6
			c-4-3.4-7.5-7-10.3-11.5c-2.7-4.3-4.8-9.3-6-14.3C1627.2,895.2,1626,895.5,1626.1,896.3L1626.1,896.3z"/>
	</g>
	<g>
		<path class="st4" d="M1638.4,913c0.6,1.6,1.6,3,2.8,4.3c0.6,0.6,1.2,1.2,1.8,1.7c0.7,0.6,1.5,1.1,2.4,1.5c0.4,0.2,1-0.2,1.1-0.6
			c0.2-0.5,0-0.9-0.4-1.2c-0.6-0.5-1.3-0.8-2-1.3c-0.5-0.4-1.1-0.9-1.7-1.4c-1.1-1-2.1-2.3-3-3.5c-0.2-0.2-0.4-0.4-0.7-0.2
			C1638.5,912.4,1638.3,912.7,1638.4,913L1638.4,913z"/>
	</g>
	<g>
		<path class="st4" d="M1586.3,828.4c-0.8-3.1-1.3-6.4-1.9-9.6c-0.6-3.4-1-6.8-1.2-10.2c-0.4-6.7,0.1-13.4,1.3-20
			c0.3-1.4-1.9-2-2.1-0.6c-1.3,6.8-1.8,13.7-1.4,20.6c0.2,3.4,0.6,6.7,1.2,10c0.6,3.5,1.8,6.8,2.9,10.2
			C1585.3,829.5,1586.5,829.2,1586.3,828.4L1586.3,828.4z"/>
	</g>
	<g>
		<path class="st4" d="M1842.9,738.4c3.1,5.3,6.3,10.5,8.6,16.2c1.1,2.7,2.1,5.5,2.9,8.3c0.9,3,1.3,6.1,2.1,9.1
			c0.3,1,1.9,0.8,1.9-0.3c-0.2-3.1-1.1-6.2-1.9-9.1c-0.9-3.1-1.9-6.1-3.2-9c-2.4-5.7-5.3-11.3-9.5-15.9
			C1843.3,737.2,1842.6,737.8,1842.9,738.4L1842.9,738.4z"/>
	</g>
	<g>
		<path class="st4" d="M1841.4,784.9c0.5,22.2,1.4,44.4,2.2,66.5c0.1,3.1,0.2,6.2,0.3,9.3c0.1,3.2,0,6.5,0.4,9.6
			c0.1,1.2,1.8,1.2,1.9,0c0.2-2.8-0.1-5.7-0.2-8.5c-0.1-2.7-0.2-5.5-0.3-8.2c-0.2-5.6-0.4-11.1-0.6-16.7c-0.4-11-0.8-22.1-1.3-33.1
			c-0.3-6.3-0.7-12.6-1.1-19C1842.6,784.1,1841.4,784.1,1841.4,784.9L1841.4,784.9z"/>
	</g>
	<g>
		<path class="st4" d="M1838.9,851.8c-0.2,3.5-0.3,6.9-0.3,10.4c0,1.7,0.1,3.5,0.1,5.2c0.1,1.7,0,3.4,0.3,5c0.2,1.1,1.8,0.8,1.9-0.3
			c0.1-1.7-0.1-3.5-0.2-5.2c-0.1-1.7-0.1-3.3-0.2-5c-0.1-3.4-0.3-6.8-0.5-10.2C1840,851,1839,851,1838.9,851.8L1838.9,851.8z"/>
	</g>
	<path class="st3" d="M1797,829.8l-8.2,22.3c-1.2,3.1-3.8,5.5-7.1,6.1l-16.4,3.4l2.2,10.5l-27-17.9L1758,827l2.2,10.5l18.8-3.9
		l-30.3-29.6l17.3-17.7l27.3,26.6C1797.6,817.3,1799.1,824,1797,829.8z"/>
	<path class="st3" d="M1754.6,763.8l-3.8,32.2l-32.2-3.5l8.4-6.7l-11.9-15l-12.8,40.4l-23.6-7.5l11.5-36.3c1.9-6,7.1-10.3,13.4-11
		l23.6-2.7c3.3-0.4,6.6,1,8.7,3.6l10.4,13.1L1754.6,763.8z"/>
	<path class="st3" d="M1726.3,846.2l4.9,24.2l-37.3,7.6c-6.1,1.3-12.5-1.2-16.1-6.3l-13.8-19.3c-1.9-2.7-2.4-6.3-1.1-9.3l6.4-15.5
		l-9.9-4.1l30-12.3L1702,841l-9.9-4.1l-7.3,17.7L1726.3,846.2z"/>
	<g>
		<path class="st4" d="M1670.4,831c-0.6,0.9-1.2,1.7-1.7,2.6c-0.6,0.9-1,1.9-1.5,2.9c-0.5,0.9-0.9,1.9-1.3,2.9c-0.4,1-0.9,2-1.1,3.1
			c-0.1,0.5,0.1,0.9,0.5,1.1c0.4,0.2,0.9,0,1.2-0.4c0.5-0.9,0.8-2,1.1-3c0.4-1,0.7-1.9,1.2-2.9c0.4-1,0.9-1.9,1.3-2.8
			c0.4-0.9,0.9-1.9,1.4-2.8C1671.8,831,1670.8,830.4,1670.4,831L1670.4,831z"/>
	</g>
	<g>
		<path class="st4" d="M1670.8,837.8c-0.7,1.2-1.4,2.3-2.1,3.5c-0.3,0.6-0.6,1.2-0.9,1.8c-0.3,0.6-0.7,1.3-0.8,2
			c-0.2,1,1.2,1.7,1.7,0.7c0.4-0.6,0.6-1.3,0.8-2c0.2-0.6,0.5-1.2,0.7-1.8c0.5-1.2,1-2.4,1.7-3.6
			C1672.3,837.8,1671.2,837.1,1670.8,837.8L1670.8,837.8z"/>
	</g>
	<g>
		<path class="st4" d="M1683.3,801.3c3.2-9.8,6.9-19.5,11.1-29c0.6-1.3-1.3-2.4-1.9-1.1c-4.4,9.6-7.9,19.5-10.5,29.7
			C1681.7,801.8,1683,802.1,1683.3,801.3L1683.3,801.3z"/>
	</g>
	<g>
		<path class="st4" d="M1688.4,794.9c0.7-2.4,1.5-4.7,2.4-7c0.4-1.2,0.9-2.3,1.3-3.5c0.4-1.1,1.1-2.3,1.2-3.5
			c0.1-0.8-1.2-1.4-1.7-0.7c-0.7,1-1.1,2.2-1.5,3.4c-0.4,1.2-0.8,2.4-1.2,3.6c-0.7,2.4-1.4,4.8-2,7.2
			C1686.7,795.5,1688.1,795.9,1688.4,794.9L1688.4,794.9z"/>
	</g>
	<g>
		<path class="st4" d="M1692.3,765.9c2.6-2.4,6.7-2.4,9.9-1.3c3.3,1.1,6.3,3.4,8.9,5.7c5.3,4.6,9.4,10.3,13.6,16
			c0.9,1.2,3,0,2.1-1.2c-4.7-6.5-9.4-13-15.8-18c-5.5-4.3-14-8.6-19.6-2.2C1690.7,765.6,1691.6,766.6,1692.3,765.9L1692.3,765.9z"/>
	</g>
	<g>
		<path class="st4" d="M1691.6,837c-4.3,6.9-7.9,14.4-8.5,22.7c-0.3,3.9,0.2,7.8,1.7,11.4c1.2,2.9,3.3,6.2,6.5,7.3
			c1.4,0.5,1.9-1.4,0.9-2.2c-1.3-1-2.5-1.8-3.5-3.2c-0.9-1.3-1.6-2.8-2.1-4.4c-1-3.4-1.2-6.9-0.8-10.4c0.9-7.3,4.4-13.9,7.1-20.6
			C1693.2,836.7,1692,836.3,1691.6,837L1691.6,837z"/>
	</g>
	<g>
		<path class="st4" d="M1760.4,838.2c2.1,0.2,4.2-0.3,6.2-0.7c2.2-0.4,4.3-0.9,6.4-1.4c4-1,8-2.1,11.8-3.7c6.3-2.7,12-8.2,10.6-15.6
			c-0.2-1-1.7-0.6-1.6,0.4c1.2,7.3-6.1,12.1-12,14.2c-3.4,1.2-6.9,2.1-10.4,3c-1.8,0.4-3.6,0.9-5.3,1.2c-2,0.4-4,0.6-5.9,1.4
			C1759.7,837.3,1759.8,838.1,1760.4,838.2L1760.4,838.2z"/>
	</g>
	<g>
		<path class="st4" d="M1754.4,805.2c7.2,7.4,14.7,14.7,22.4,21.6c0.8,0.7,2-0.4,1.2-1.2c-7.3-7.3-15-14.4-22.8-21.2
			C1754.6,804,1753.9,804.7,1754.4,805.2L1754.4,805.2z"/>
	</g>
	<g>
		<path class="st4" d="M1771.5,817.7c0.9,0.9,1.8,1.9,2.7,2.8s1.9,1.8,2.8,2.7c0.4,0.3,1,0.4,1.3,0c0.3-0.4,0.4-1,0-1.3
			c-1-0.9-1.9-1.7-2.9-2.6c-1-0.8-2-1.6-3-2.5c-0.3-0.2-0.6-0.3-0.9,0C1771.3,817,1771.3,817.5,1771.5,817.7L1771.5,817.7z"/>
	</g>
</g>
<g>
	<defs>
		
			<rect id="SVGID_1_" x="154.3" y="37.9" transform="matrix(6.123234e-17 -1 1 6.123234e-17 -37.8689 1112.2406)" width="765.9" height="1074.4"/>
	</defs>
	<clipPath id="SVGID_4_">
		<use xlink:href="#SVGID_1_"  style="overflow:visible;"/>
	</clipPath>
	<path class="st6" d="M670.5,953.6c9.7,11.2,9.9,31.9-6.1,37.4c-27.6,6.7-51.1-19.3-79.2-18c-61.4-5.6-118.9,24.1-179.7,26
		c-57,6.5-93.6-41.9-30-71.6c30.9-15.8,40.5-51.2,58.2-78.3c44.9-74.4,118.7-70.1,153.7,9.8c11.4,22.4,21.6,46.6,40.4,64.1
		C640.4,935.2,659.2,939.7,670.5,953.6z"/>
	<path class="st6" d="M95,923.2c3.4,59.8-37.2,96.1-86.5,48.4c-19-15.4-50-3.1-64.7-25.1c-13.1-22.4-17.4-50.2-18.1-75.9
		c0.4-44.5,49.7-75.1,90.7-61.6C68.6,819,95.4,874,95,923.2z"/>
</g>
<g>
	<path class="st5" d="M464.8,892.8c-3.9,7.7-6.2,16.2-8.2,24.7c11.5-2.5,23.8,2.9,35.4,0.6c11.3-2.3,20.1-11.9,24.3-22.7
		c4.2-10.8,4.4-22.7,3.8-34.2c-4.9,4.2-11.4,6.1-17.7,7.3c-6.3,1.3-12.8,2.1-18.7,4.8C475.3,877.1,469,884.6,464.8,892.8z"/>
	<g>
		<path class="st4" d="M516,868.4c-3.2,5.3-6.4,10.7-10.6,15.3c-4,4.4-8.9,7.9-14.1,10.8c-10,5.8-20.8,10-29.7,17.4
			c-4.5,3.7-9.1,8.7-10.9,14.3c-0.4,1.1,1.4,1.9,1.9,0.8c1.3-2.5,2.5-4.9,4.2-7.1c1.7-2.2,3.7-4.2,5.8-6c4.2-3.6,8.9-6.5,13.8-9.1
			c10.4-5.6,21.7-10.3,30-19.1c4.6-4.9,8.3-10.7,10.8-17C517.5,868.2,516.3,867.8,516,868.4L516,868.4z"/>
	</g>
	<g>
		<path class="st4" d="M498.2,908.1c-6-0.4-11.9-0.9-17.9-0.6c-5.8,0.3-11.7,1.2-17.2,3.1c0.4,0.5,0.7,1,1.1,1.4
			c2.3-4.2,4.6-8.4,6.9-12.7c2.3-4.2,4.8-8.4,6.8-12.7c0.6-1.2-1.2-2.3-1.9-1.1c-2.4,4.1-4.5,8.5-6.8,12.7
			c-2.2,4.2-4.5,8.5-6.7,12.7c-0.4,0.7,0.3,1.7,1.1,1.4c5.5-1.9,11.3-2.8,17.1-3.1c5.8-0.3,11.7-0.2,17.4-0.1
			C499,909.3,499,908.2,498.2,908.1L498.2,908.1z"/>
	</g>
	<g>
		<path class="st4" d="M512.8,893.2c-3.8-0.6-8,0.1-11.8,0.7c-4.1,0.6-8.1,1.4-12.2,2.3c0.4,0.5,0.8,1.1,1.2,1.6
			c2.2-3.4,4-7.1,5.4-10.9c0.7-1.9,1.4-3.8,2-5.7c0.6-1.9,1.2-4,1.4-6c0.1-1.3-1.8-1.4-2.1-0.3c-0.6,1.8-0.9,3.8-1.4,5.7
			c-0.5,1.9-1.2,3.7-1.9,5.5c-1.4,3.7-3.2,7.2-5.2,10.6c-0.5,0.8,0.3,1.8,1.2,1.6c3.9-0.9,7.8-1.7,11.7-2.3c2-0.3,3.9-0.6,5.9-0.8
			c1.9-0.3,3.9-0.4,5.8-1C513.3,894,513.3,893.3,512.8,893.2L512.8,893.2z"/>
	</g>
</g>
<g>
	<path class="st2" d="M78.8,885.4c1.7,7.3,1.7,14.8,1.6,22.3c-9.1-4.5-20.5-2.6-29.7-7c-9-4.3-14.3-14.2-15.5-24.1
		c-1.2-9.9,1.2-19.8,4-29.4c3.2,4.6,8.2,7.5,13.2,9.9s10.3,4.5,14.6,8C73.3,870.1,77,877.6,78.8,885.4z"/>
	<g>
		<path class="st4" d="M40.1,854.3c1.2,10.3,6.1,19.5,13.3,26.9c6.9,7.1,15.3,12.8,21.4,20.7c1.7,2.1,3.1,4.4,4.3,6.8
			c1.2,2.5,1.8,5.1,2.5,7.9c0.3,1.1,2.1,0.9,2.1-0.3c-0.2-4.6-2.6-9.3-5.1-13c-2.7-4-6-7.6-9.6-10.9c-7.3-6.8-15.7-12.9-21-21.7
			c-3.1-5.2-4.7-10.9-6.6-16.6C41.1,853.5,40,853.6,40.1,854.3L40.1,854.3z"/>
	</g>
	<g>
		<path class="st4" d="M47.4,892.2c4.8,1.1,9.8,2.3,14.5,3.8c4.8,1.5,9.4,3.5,13.6,6.3c0.7,0.5,1.6-0.3,1.4-1.1c-1-4-1.9-8-2.9-12.1
			c-1-4-1.7-8.1-2.9-12c-0.4-1.4-2.4-0.8-2.1,0.6c0.8,4,2,8,3,12c1,4,2.1,8,3,12c0.5-0.4,1-0.7,1.4-1.1c-4.2-2.8-8.9-4.8-13.7-6.2
			c-5-1.5-10-2.4-15.1-3.3C46.9,890.9,46.6,892,47.4,892.2L47.4,892.2z"/>
	</g>
	<g>
		<path class="st4" d="M38.4,876.4c1.4,1,3.1,1.5,4.6,2.2c1.6,0.6,3.1,1.3,4.7,1.9c3.1,1.3,6.2,2.8,9.3,4.4c0.8,0.4,1.9-0.3,1.6-1.2
			c-1-3.2-1.7-6.5-2.1-9.9c-0.2-1.6-0.3-3.3-0.4-4.9c-0.1-1.7,0.1-3.4,0-5.1c-0.1-1.1-1.9-1.6-2.1-0.3c-0.3,1.7-0.2,3.5-0.1,5.2
			c0.1,1.8,0.2,3.5,0.4,5.3c0.4,3.5,1.2,6.9,2.2,10.3c0.5-0.4,1.1-0.8,1.6-1.2c-3.1-1.6-6.3-3.1-9.6-4.4c-1.6-0.7-3.3-1.3-5-1.9
			c-1.6-0.5-3.3-1.1-4.9-1.2C38.1,875.5,38,876.1,38.4,876.4L38.4,876.4z"/>
	</g>
</g>
<g>
	<g>
		<path class="st4" d="M466.3,868.1c-1.9-8.8-0.8-18.2,3.1-26.3c3.9-7.9,10.2-14.2,17.7-18.7c4.2-2.5,8.6-4.5,13.3-6
			c-0.4-0.3-0.8-0.6-1.2-0.9c-0.3,2.9-0.6,5.7-0.5,8.6c0.1,2.8,0.3,5.6,0.4,8.4c0.2,4.9,0.2,9.8-1.2,14.5c-1.3,4.3-3.7,8.1-7.5,10.6
			c-3.6,2.3-7.7,3.5-11.8,4.6c-4.5,1.3-9.4,2.7-12.9,5.8c-0.9,0.8,0.2,2.1,1.2,1.6c1.9-1.1,3.9-2.1,6-2.9c2.1-0.8,4.3-1.4,6.4-2
			c4.2-1.2,8.4-2.4,12.2-4.6c8.4-5.1,10.6-15,10.3-24.2c-0.1-3.3-0.4-6.6-0.6-9.9c-0.2-3.4-0.6-6.9-0.1-10.3
			c0.1-0.7-0.4-1.4-1.2-1.2c-17.7,5-33.4,18.7-36.2,37.5c-0.4,2.5-0.5,5.1-0.3,7.6c0.2,2.8,1,5.4,1.8,8.1
			C465.4,869.1,466.5,868.8,466.3,868.1L466.3,868.1z"/>
	</g>
	<g>
		<path class="st4" d="M463.7,875.4c2.9-7.8,6.4-15.4,10.7-22.5c4.3-7.2,9.6-13.5,15.1-19.8c0.7-0.8-0.4-1.8-1.1-1.1
			c-6.3,5.6-11.6,12.6-15.9,19.8c-2.2,3.6-4.2,7.4-5.9,11.3c-1.8,3.9-3,7.9-4.1,12.1C462.3,875.8,463.4,876.1,463.7,875.4
			L463.7,875.4z"/>
	</g>
	<g>
		<path class="st4" d="M476.4,832.8c-0.7,2.7-0.7,5.6-1,8.4c-0.3,2.9-0.5,5.8-0.9,8.6c-0.1,0.7,0.5,1.3,1.2,0.9
			c5.8-2.8,11.7-5.5,17.5-8.3c0.9-0.4,0.1-1.8-0.8-1.4c-5.8,2.7-11.7,5.5-17.5,8.2c0.4,0.3,0.8,0.6,1.2,0.9c0.5-2.9,0.9-5.7,1.2-8.5
			c0.3-2.8,0.7-5.9,0.3-8.7C477.5,832.4,476.6,832.1,476.4,832.8L476.4,832.8z"/>
	</g>
	<g>
		<path class="st4" d="M469.8,859.5c5.3-1.1,10.5-3.1,15.7-4.9c1-0.3,0.5-1.9-0.4-1.5c-5.2,1.8-10.6,3.3-15.6,5.5
			C468.9,858.9,469.3,859.6,469.8,859.5L469.8,859.5z"/>
	</g>
</g>
<g>
	<path class="st5" d="M990.9,882.4c-3.9,7.7-6.2,16.2-8.2,24.7c11.5-2.5,23.8,2.9,35.4,0.6c11.3-2.3,20.1-11.9,24.3-22.7
		c4.2-10.8,4.4-22.7,3.8-34.2c-4.9,4.2-11.4,6.1-17.7,7.3c-6.3,1.3-12.8,2.1-18.7,4.8C1001.4,866.7,995.1,874.1,990.9,882.4z"/>
	<g>
		<path class="st4" d="M1042.1,858c-3.2,5.3-6.4,10.7-10.6,15.3c-4,4.4-8.9,7.9-14.1,10.8c-10,5.8-20.8,10-29.7,17.4
			c-4.5,3.7-9.1,8.7-10.9,14.3c-0.4,1.1,1.4,1.9,1.9,0.8c1.3-2.5,2.5-4.9,4.2-7.1c1.7-2.2,3.7-4.2,5.8-6c4.2-3.6,8.9-6.5,13.8-9.1
			c10.4-5.6,21.7-10.3,30-19.1c4.6-4.9,8.3-10.7,10.8-17C1043.6,857.8,1042.5,857.4,1042.1,858L1042.1,858z"/>
	</g>
	<g>
		<path class="st4" d="M1024.3,897.7c-6-0.4-11.9-0.9-17.9-0.6c-5.8,0.3-11.7,1.2-17.2,3.1c0.4,0.5,0.7,1,1.1,1.4
			c2.3-4.2,4.6-8.4,6.9-12.7c2.3-4.2,4.8-8.4,6.8-12.7c0.6-1.2-1.2-2.3-1.9-1.1c-2.4,4.1-4.5,8.5-6.8,12.7
			c-2.2,4.2-4.5,8.5-6.7,12.7c-0.4,0.7,0.3,1.7,1.1,1.4c5.5-1.9,11.3-2.8,17.1-3.1c5.8-0.3,11.7-0.2,17.4-0.1
			C1025.1,898.9,1025.1,897.8,1024.3,897.7L1024.3,897.7z"/>
	</g>
	<g>
		<path class="st4" d="M1039,882.8c-3.8-0.6-8,0.1-11.8,0.7c-4.1,0.6-8.1,1.4-12.2,2.3c0.4,0.5,0.8,1.1,1.2,1.6
			c2.2-3.4,4-7.1,5.4-10.9c0.7-1.9,1.4-3.8,2-5.7c0.6-1.9,1.2-4,1.4-6c0.1-1.3-1.8-1.4-2.1-0.3c-0.6,1.8-0.9,3.8-1.4,5.7
			c-0.5,1.9-1.2,3.7-1.9,5.5c-1.4,3.7-3.2,7.2-5.2,10.6c-0.5,0.8,0.3,1.8,1.2,1.6c3.9-0.9,7.8-1.7,11.7-2.3c2-0.3,3.9-0.6,5.9-0.8
			c1.9-0.3,3.9-0.4,5.8-1C1039.4,883.6,1039.4,882.9,1039,882.8L1039,882.8z"/>
	</g>
</g>
<g>
	<g>
		<path class="st4" d="M992.4,857.7c-1.9-8.8-0.8-18.2,3.1-26.3c3.9-7.9,10.2-14.2,17.7-18.7c4.2-2.5,8.6-4.5,13.3-6
			c-0.4-0.3-0.8-0.6-1.2-0.9c-0.3,2.9-0.6,5.7-0.5,8.6c0.1,2.8,0.3,5.6,0.4,8.4c0.2,4.9,0.2,9.8-1.2,14.5c-1.3,4.3-3.7,8.1-7.5,10.6
			c-3.6,2.3-7.7,3.5-11.8,4.6c-4.5,1.3-9.4,2.7-12.9,5.8c-0.9,0.8,0.2,2.1,1.2,1.6c1.9-1.1,3.9-2.1,6-2.9c2.1-0.8,4.3-1.4,6.4-2
			c4.2-1.2,8.4-2.4,12.2-4.6c8.4-5.1,10.6-15,10.3-24.2c-0.1-3.3-0.4-6.6-0.6-9.9c-0.2-3.4-0.6-6.9-0.1-10.3
			c0.1-0.7-0.4-1.4-1.2-1.2c-17.7,5-33.4,18.7-36.2,37.5c-0.4,2.5-0.5,5.1-0.3,7.6c0.2,2.8,1,5.4,1.8,8.1
			C991.5,858.7,992.6,858.4,992.4,857.7L992.4,857.7z"/>
	</g>
	<g>
		<path class="st4" d="M989.8,864.9c2.9-7.8,6.4-15.4,10.7-22.5c4.3-7.2,9.6-13.5,15.1-19.8c0.7-0.8-0.4-1.8-1.1-1.1
			c-6.3,5.6-11.6,12.6-15.9,19.8c-2.2,3.6-4.2,7.4-5.9,11.3c-1.8,3.9-3,7.9-4.1,12.1C988.4,865.4,989.5,865.7,989.8,864.9
			L989.8,864.9z"/>
	</g>
	<g>
		<path class="st4" d="M1002.5,822.4c-0.7,2.7-0.7,5.6-1,8.4c-0.3,2.9-0.5,5.8-0.9,8.6c-0.1,0.7,0.5,1.3,1.2,0.9
			c5.8-2.8,11.7-5.5,17.5-8.3c0.9-0.4,0.1-1.8-0.8-1.4c-5.8,2.7-11.7,5.5-17.5,8.2c0.4,0.3,0.8,0.6,1.2,0.9c0.5-2.9,0.9-5.7,1.2-8.5
			c0.3-2.8,0.7-5.9,0.3-8.7C1003.6,821.9,1002.7,821.7,1002.5,822.4L1002.5,822.4z"/>
	</g>
	<g>
		<path class="st4" d="M995.9,849.1c5.3-1.1,10.5-3.1,15.7-4.9c1-0.3,0.5-1.9-0.4-1.5c-5.2,1.8-10.6,3.3-15.6,5.5
			C995,848.5,995.4,849.2,995.9,849.1L995.9,849.1z"/>
	</g>
</g>
<g>
	<path class="st2" d="M973.6,885.9c-0.8,7.2-3.2,14.1-5.7,20.9c-6.8-7.1-17.8-9-24.8-16c-6.8-6.8-8.4-17.6-6.3-26.9
		c2.1-9.4,7.5-17.7,13.2-25.5c1.4,5.2,5.1,9.4,8.9,13.2c3.8,3.8,7.9,7.4,10.7,12C973.6,870.2,974.5,878.3,973.6,885.9z"/>
	<g>
		<path class="st4" d="M948.3,845.1c-2.2,9.7-0.8,19.6,3.3,28.6c3.9,8.7,9.7,16.5,12.8,25.6c0.9,2.6,1.6,5.2,1.9,7.9
			c0.3,2.8,0,5.4-0.2,8.1c-0.1,1.2,1.7,1.4,2.1,0.3c1.3-4.3,0.6-9.4-0.5-13.7c-1.2-4.7-3.2-9.1-5.5-13.4
			c-4.4-8.3-9.8-16.3-11.8-25.7c-1.2-5.8-0.8-11.7-0.7-17.5C949.6,844.6,948.5,844.4,948.3,845.1L948.3,845.1z"/>
	</g>
	<g>
		<path class="st4" d="M942.8,882c4,2.6,8,5.2,11.8,8.1c3.9,2.9,7.5,6.2,10.4,10c0.6,0.8,1.7,0.5,1.8-0.5c0.4-4,0.8-8,1.3-11.9
			c0.4-4,1-7.9,1.2-11.9c0.1-1.2-1.9-1.5-2.1-0.3c-0.6,4-0.8,8-1.2,12c-0.4,4.1-0.7,8.1-1.1,12.2c0.6-0.2,1.2-0.3,1.8-0.5
			c-3-3.9-6.6-7.2-10.5-10.2c-4.1-3.1-8.4-5.5-12.9-8C942.7,880.6,942.1,881.6,942.8,882L942.8,882z"/>
	</g>
	<g>
		<path class="st4" d="M939.6,864.6c1.9,2.6,4.8,4.6,7.1,6.8c2.5,2.3,4.9,4.7,7.1,7.1c0.7,0.7,1.8,0.1,1.9-0.8
			c0.2-3.3,0.6-6.5,1.3-9.7c0.3-1.6,0.8-3.1,1.2-4.6c0.5-1.6,1.2-3.1,1.7-4.7c0.3-1.2-1.4-1.9-2-0.8c-0.9,1.5-1.3,3.3-1.9,4.9
			c-0.5,1.6-0.9,3.2-1.3,4.8c-0.7,3.3-1.1,6.7-1.2,10.1c0.6-0.3,1.2-0.5,1.9-0.8c-2.3-2.5-4.8-4.9-7.3-7.2c-2.4-2.1-5-4.6-8-5.9
			C939.8,863.7,939.4,864.2,939.6,864.6L939.6,864.6z"/>
	</g>
</g>
</svg>
