<?xml version="1.0" encoding="utf-8"?>
<!-- Generator: Adobe Illustrator 25.2.0, SVG Export Plug-In . SVG Version: 6.00 Build 0)  -->
<svg version="1.1" id="Layer_1" xmlns="http://www.w3.org/2000/svg" xmlns:xlink="http://www.w3.org/1999/xlink" x="0px" y="0px"
	 viewBox="0 0 1693.1 874.3" style="enable-background:new 0 0 1693.1 874.3;" xml:space="preserve">
<style type="text/css">
	.st0{fill:#9DC28C;fill-opacity:0.19;}
	.st1{clip-path:url(#SVGID_2_);}
	.st2{fill:#FFFFFF;filter:url(#Adobe_OpacityMaskFilter);}
	.st3{mask:url(#mask0_0_1_1_);}
	.st4{fill:#8BA236;}
	.st5{fill:#FFFFFF;filter:url(#Adobe_OpacityMaskFilter_1_);}
	.st6{mask:url(#mask1_0_1_1_);}
	.st7{fill:#FFFFFF;filter:url(#Adobe_OpacityMaskFilter_2_);}
	.st8{mask:url(#mask2_0_1_1_);}
	.st9{fill:#B1C471;}
	.st10{fill:#312712;}
	.st11{fill:#FFFFFF;filter:url(#Adobe_OpacityMaskFilter_3_);}
	.st12{mask:url(#mask3_0_1_1_);}
	.st13{fill:#EBE4D1;}
	.st14{fill:#FFFFFF;filter:url(#Adobe_OpacityMaskFilter_4_);}
	.st15{mask:url(#mask4_0_1_1_);}
	.st16{fill:#FFFFFF;filter:url(#Adobe_OpacityMaskFilter_5_);}
	.st17{mask:url(#mask5_0_1_1_);}
	.st18{fill:#FFFFFF;filter:url(#Adobe_OpacityMaskFilter_6_);}
	.st19{mask:url(#mask6_0_1_1_);}
	.st20{fill:#FFFFFF;filter:url(#Adobe_OpacityMaskFilter_7_);}
	.st21{mask:url(#mask7_0_1_1_);}
	.st22{fill:#FFFFFF;filter:url(#Adobe_OpacityMaskFilter_8_);}
	.st23{mask:url(#mask8_0_1_1_);}
	.st24{fill:#FFFFFF;filter:url(#Adobe_OpacityMaskFilter_9_);}
	.st25{mask:url(#mask9_0_1_1_);}
	.st26{fill:#FFFFFF;filter:url(#Adobe_OpacityMaskFilter_10_);}
	.st27{mask:url(#mask10_0_1_1_);}
</style>
<ellipse class="st0" cx="229.3" cy="198.3" rx="198.9" ry="195.4"/>
<ellipse class="st0" cx="1435.5" cy="674.7" rx="249.4" ry="195.4"/>
<g>
	<g>
		<defs>
			<rect id="SVGID_1_" x="-0.4" y="49.3" width="787.3" height="726.9"/>
		</defs>
		<clipPath id="SVGID_2_">
			<use xlink:href="#SVGID_1_"  style="overflow:visible;"/>
		</clipPath>
		<g class="st1">
			<defs>
				<filter id="Adobe_OpacityMaskFilter" filterUnits="userSpaceOnUse" x="199" y="96" width="110.4" height="110">
					<feColorMatrix  type="matrix" values="1 0 0 0 0  0 1 0 0 0  0 0 1 0 0  0 0 0 1 0"/>
				</filter>
			</defs>
			<mask maskUnits="userSpaceOnUse" x="199" y="96" width="110.4" height="110" id="mask0_0_1_1_">
				<path class="st2" d="M1374.1,3.1H-0.4v773.1h1374.5V3.1z"/>
			</mask>
			<g class="st3">
				<path class="st4" d="M255.6,151.8c-5.1,0-7.7-4-7.7-7.9c0-4,2.7-7.9,7.7-7.9c5.1,0,7.7,4,7.7,7.9
					C263.3,147.9,260.7,151.8,255.6,151.8z M255.6,138c-3.9,0-5.6,3-5.6,5.9s1.7,5.9,5.6,5.9c3.9,0,5.6-3,5.6-5.9
					S259.5,138,255.6,138z"/>
				<path class="st4" d="M252.8,181.3c-5.1,0-7.7-4-7.7-7.9c0-2.1,0.7-4,1.9-5.4c1.4-1.6,3.5-2.5,5.8-2.5c5.1,0,7.7,4,7.7,7.9
					c0,2.1-0.7,4-1.9,5.4C257.1,180.4,255.1,181.3,252.8,181.3z M252.8,167.5c-3.9,0-5.6,3-5.6,5.9c0,2.8,1.7,5.9,5.6,5.9
					c3.9,0,5.6-3,5.6-5.9C258.4,170.6,256.7,167.5,252.8,167.5z"/>
				<path class="st4" d="M280.6,161.4c-5.1,0-7.7-4-7.7-7.9s2.7-7.9,7.7-7.9c5.1,0,7.7,4,7.7,7.9S285.7,161.4,280.6,161.4z
					 M280.6,147.6c-3.9,0-5.6,3-5.6,5.9c0,2.8,1.7,5.9,5.6,5.9c1.7,0,3.2-0.6,4.2-1.8c0.9-1,1.4-2.5,1.4-4.1
					C286.3,150.7,284.5,147.6,280.6,147.6z"/>
				<path class="st4" d="M277,134.2c-5.1,0-7.7-4-7.7-7.9c0-4,2.7-7.9,7.7-7.9c5.1,0,7.7,4,7.7,7.9
					C284.8,130.2,282.1,134.2,277,134.2z M277,120.4c-3.9,0-5.6,3-5.6,5.9c0,2.8,1.7,5.9,5.6,5.9s5.6-3,5.6-5.9
					C282.7,123.4,280.9,120.4,277,120.4z"/>
				<path class="st4" d="M248.5,124.3c-5.1,0-7.7-4-7.7-7.9c0-4,2.7-7.9,7.7-7.9c5.1,0,7.7,4,7.7,7.9
					C256.3,120.3,253.6,124.3,248.5,124.3z M248.5,110.5c-3.9,0-5.6,3-5.6,5.9c0,2.8,1.7,5.9,5.6,5.9c1.7,0,3.2-0.6,4.2-1.8
					c0.9-1,1.4-2.5,1.4-4.1C254.2,113.6,252.4,110.5,248.5,110.5z"/>
				<path class="st4" d="M230,141.9c-5.1,0-7.7-4-7.7-7.9c0-4,2.7-7.9,7.7-7.9c5.1,0,7.7,4,7.7,7.9
					C237.7,137.9,235.1,141.9,230,141.9z M230,128.1c-3.9,0-5.6,3-5.6,5.9s1.7,5.9,5.6,5.9c1.7,0,3.2-0.6,4.2-1.8
					c0.9-1,1.4-2.5,1.4-4.1C235.7,131.1,233.9,128.1,230,128.1z"/>
				<path class="st4" d="M228.4,166.3c-5.1,0-7.7-4-7.7-7.9c0-4,2.7-7.9,7.7-7.9c5.1,0,7.7,4,7.7,7.9
					C236.1,162.3,233.4,166.3,228.4,166.3z M228.4,152.4c-3.9,0-5.6,3-5.6,5.9s1.7,5.9,5.6,5.9c1.7,0,3.2-0.6,4.2-1.8
					c0.9-1,1.4-2.5,1.4-4.1C234,155.5,232.3,152.4,228.4,152.4z"/>
				<path class="st4" d="M226.5,198.3c-5.1,0-7.7-4-7.7-7.9s2.7-7.9,7.7-7.9c5.1,0,7.7,4,7.7,7.9S231.5,198.3,226.5,198.3z
					 M226.5,184.5c-3.9,0-5.6,3-5.6,5.9s1.7,5.9,5.6,5.9c3.9,0,5.6-3,5.6-5.9S230.4,184.5,226.5,184.5z"/>
				<path class="st4" d="M259.2,206c-1.1,0-2.1-0.3-2.9-0.7c-0.9-0.3-1.7-0.9-2.5-1.6c-0.8-0.7-1.3-1.6-1.6-2.6
					c-0.4-0.9-0.7-1.9-0.6-3v-0.6c0-1.5,0.3-2.8,1.1-4l1.1-1.5c1-1,2.2-1.7,3.5-2.2l2-0.3c1.2-0.1,2.3,0.2,3.3,0.7
					c0.9,0.3,1.7,0.9,2.5,1.6c0.7,0.7,1.3,1.6,1.6,2.5c0.5,0.9,0.7,2,0.7,3.1v0.6c0,1.5-0.3,2.8-1.1,4l-1.1,1.5
					c-1,1-2.2,1.7-3.6,2.2l-2,0.3C259.5,206,259.4,206,259.2,206z M259.7,191.5c-0.1,0-0.1,0-0.2,0l-1.7,0.3
					c-0.9,0.3-1.7,0.8-2.5,1.5l-0.9,1.3c-0.4,0.8-0.7,1.8-0.7,2.8v0.6c0,0.8,0.1,1.6,0.5,2.2c0.3,0.9,0.7,1.5,1.2,2
					c0.6,0.6,1.1,0.9,1.8,1.2c0.9,0.4,1.6,0.6,2.3,0.5l1.7-0.3c0.9-0.3,1.7-0.8,2.5-1.5l0.9-1.3c0.4-0.8,0.7-1.8,0.7-2.8v-0.6
					c0-0.8-0.1-1.6-0.5-2.2l-0.1-0.2c-0.3-0.7-0.6-1.3-1.1-1.8c-0.6-0.6-1.1-0.9-1.8-1.2C261.1,191.6,260.4,191.5,259.7,191.5z"/>
				<path class="st4" d="M282.6,191.9c-5.1,0-7.7-4-7.7-7.9c0-4,2.7-7.9,7.7-7.9c5.1,0,7.7,4,7.7,7.9
					C290.2,187.9,287.6,191.9,282.6,191.9z M282.6,178.1c-3.9,0-5.6,3-5.6,5.9c0,2.8,1.7,5.9,5.6,5.9s5.6-3,5.6-5.9
					C288.2,181.1,286.4,178.1,282.6,178.1z"/>
				<path class="st4" d="M301.4,162.5c-5.1,0-7.7-4-7.7-7.9c0-4,2.7-7.9,7.7-7.9c5.1,0,7.7,4,7.7,7.9
					C309.1,158.4,306.5,162.5,301.4,162.5z M301.4,148.6c-3.9,0-5.6,3-5.6,5.9s1.7,5.9,5.6,5.9c1.7,0,3.2-0.6,4.2-1.8
					c0.9-1,1.4-2.5,1.4-4.1C307.1,151.7,305.3,148.6,301.4,148.6z"/>
				<path class="st4" d="M301.7,131.7c-5.1,0-7.7-4-7.7-7.9c0-4,2.7-7.9,7.7-7.9c5.1,0,7.7,4,7.7,7.9
					C309.4,127.7,306.8,131.7,301.7,131.7z M301.7,117.8c-3.9,0-5.6,3-5.6,5.9s1.7,5.9,5.6,5.9c1.7,0,3.2-0.6,4.2-1.8
					c0.9-1,1.4-2.5,1.4-4.1C307.3,120.9,305.6,117.8,301.7,117.8z"/>
				<path class="st4" d="M268.7,111.9c-5.1,0-7.7-4-7.7-7.9s2.7-7.9,7.7-7.9c5.1,0,7.7,4,7.7,7.9
					C276.4,107.8,273.8,111.9,268.7,111.9z M268.7,98c-3.9,0-5.6,3-5.6,5.9c0,2.8,1.7,5.9,5.6,5.9s5.6-3,5.6-5.9
					C274.4,101.1,272.6,98,268.7,98z"/>
				<path class="st4" d="M225.5,115.3c-5.1,0-7.7-4-7.7-7.9s2.7-7.9,7.7-7.9c5.1,0,7.7,4,7.7,7.9
					C233.3,111.3,230.6,115.3,225.5,115.3z M225.5,101.5c-3.9,0-5.6,3-5.6,5.9s1.7,5.9,5.6,5.9c1.7,0,3.2-0.6,4.2-1.8
					c0.9-1,1.4-2.5,1.4-4.1C231.2,104.6,229.4,101.5,225.5,101.5z"/>
				<path class="st4" d="M209.9,149.3c-5.1,0-7.7-4-7.7-7.9c0-4,2.7-7.9,7.7-7.9c5.1,0,7.7,4,7.7,7.9c0,2.1-0.7,4-1.9,5.4
					C214.2,148.4,212.2,149.3,209.9,149.3z M209.9,135.4c-3.9,0-5.6,3-5.6,5.9s1.7,5.9,5.6,5.9s5.6-3,5.6-5.9
					C215.5,138.5,213.7,135.4,209.9,135.4z"/>
				<path class="st4" d="M206.7,179c-5.1,0-7.7-4-7.7-7.9s2.7-7.9,7.7-7.9c5.1,0,7.7,4,7.7,7.9S211.7,179,206.7,179z M206.7,165.2
					c-3.9,0-5.6,3-5.6,5.9s1.7,5.9,5.6,5.9c1.7,0,3.2-0.6,4.2-1.8c0.9-1,1.4-2.5,1.4-4.1C212.3,168.3,210.6,165.2,206.7,165.2z"/>
			</g>
			<defs>
				<filter id="Adobe_OpacityMaskFilter_1_" filterUnits="userSpaceOnUse" x="398.4" y="582.2" width="110.4" height="110.1">
					<feColorMatrix  type="matrix" values="1 0 0 0 0  0 1 0 0 0  0 0 1 0 0  0 0 0 1 0"/>
				</filter>
			</defs>
			<mask maskUnits="userSpaceOnUse" x="398.4" y="582.2" width="110.4" height="110.1" id="mask1_0_1_1_">
				<path class="st5" d="M1374.1,3.1H-0.4v773.1h1374.5V3.1z"/>
			</mask>
			<g class="st6">
				<path class="st4" d="M455.1,638c-5.1,0-7.7-4-7.7-7.9c0-2.1,0.7-4,1.9-5.4c1.4-1.6,3.5-2.5,5.8-2.5c5.1,0,7.7,4,7.7,7.9
					C462.8,634.1,460.2,638,455.1,638z M455.1,624.2c-3.9,0-5.6,3-5.6,5.9c0,2.8,1.7,5.9,5.6,5.9c3.9,0,5.6-3,5.6-5.9
					C460.8,627.3,459,624.2,455.1,624.2z"/>
				<path class="st4" d="M452.2,667.6c-5.1,0-7.7-4-7.7-7.9c0-2.1,0.7-4,1.9-5.4c1.4-1.6,3.5-2.5,5.8-2.5c5.1,0,7.7,4,7.7,7.9
					c0,2.1-0.7,4-1.9,5.4C456.6,666.6,454.6,667.6,452.2,667.6z M452.2,653.7c-3.9,0-5.6,3-5.6,5.9c0,2.8,1.7,5.9,5.6,5.9
					s5.6-3,5.6-5.9C457.8,656.8,456.1,653.7,452.2,653.7z"/>
				<path class="st4" d="M480.1,647.7c-5.1,0-7.7-4-7.7-7.9s2.7-7.9,7.7-7.9c5.1,0,7.7,4,7.7,7.9
					C487.8,643.7,485.1,647.7,480.1,647.7z M480.1,633.9c-3.9,0-5.6,3-5.6,5.9s1.7,5.9,5.6,5.9c1.7,0,3.2-0.6,4.2-1.8
					c0.9-1,1.4-2.5,1.4-4.1C485.7,636.9,484,633.9,480.1,633.9z"/>
				<path class="st4" d="M476.6,620.4c-5.1,0-7.7-4-7.7-7.9c0-4,2.7-7.9,7.7-7.9c5.1,0,7.7,4,7.7,7.9
					C484.3,616.5,481.6,620.4,476.6,620.4z M476.6,606.6c-3.9,0-5.6,3-5.6,5.9s1.7,5.9,5.6,5.9s5.6-3,5.6-5.9
					C482.2,609.7,480.5,606.6,476.6,606.6z"/>
				<path class="st4" d="M448.1,610.5c-5.1,0-7.7-4-7.7-7.9s2.7-7.9,7.7-7.9c5.1,0,7.7,4,7.7,7.9S453.1,610.5,448.1,610.5z
					 M448.1,596.7c-3.9,0-5.6,3-5.6,5.9c0,2.8,1.7,5.9,5.6,5.9s5.6-3,5.6-5.9C453.7,599.8,452,596.7,448.1,596.7z"/>
				<path class="st4" d="M429.5,628.1c-5.1,0-7.7-4-7.7-7.9s2.7-7.9,7.7-7.9c5.1,0,7.7,4,7.7,7.9S434.5,628.1,429.5,628.1z
					 M429.5,614.3c-3.9,0-5.6,3-5.6,5.9s1.7,5.9,5.6,5.9c3.9,0,5.6-3,5.6-5.9C435.1,617.4,433.4,614.3,429.5,614.3z"/>
				<path class="st4" d="M427.9,652.5c-5.1,0-7.7-4-7.7-7.9c0-4,2.7-7.9,7.7-7.9c5.1,0,7.7,4,7.7,7.9
					C435.6,648.5,433,652.5,427.9,652.5z M427.9,638.6c-3.9,0-5.6,3-5.6,5.9c0,2.8,1.7,5.9,5.6,5.9c1.7,0,3.2-0.6,4.2-1.8
					c0.9-1,1.4-2.5,1.4-4.1C433.6,641.7,431.8,638.6,427.9,638.6z"/>
				<path class="st4" d="M426,684.5c-5.1,0-7.7-4-7.7-7.9c0-2.1,0.7-4,1.9-5.4c1.4-1.6,3.5-2.5,5.8-2.5c5.1,0,7.7,4,7.7,7.9
					C433.7,680.5,431,684.5,426,684.5z M426,670.7c-3.9,0-5.6,3-5.6,5.9c0,2.8,1.7,5.9,5.6,5.9s5.6-3,5.6-5.9
					C431.6,673.7,429.9,670.7,426,670.7z"/>
				<path class="st4" d="M458.8,692.2c-1.1,0-2.1-0.3-2.9-0.7c-0.9-0.3-1.7-0.9-2.5-1.6c-0.8-0.7-1.3-1.6-1.6-2.6
					c-0.4-0.9-0.7-1.9-0.6-3v-0.6c0-1.5,0.3-2.8,1.1-4l1.1-1.5c1-1,2.2-1.7,3.5-2.2l2.1-0.3c1.1,0,2.2,0.2,3.2,0.7
					c0.9,0.3,1.7,0.9,2.5,1.6c0.7,0.7,1.3,1.6,1.6,2.5c0.5,0.9,0.7,2,0.7,3.1v0.6c0,1.5-0.3,2.8-1.1,4l-1.1,1.6
					c-1,1-2.2,1.7-3.5,2.2l-2,0.3C459,692.2,458.9,692.2,458.8,692.2z M459.1,677.8c-0.1,0-0.1,0-0.2,0l-1.7,0.3
					c-0.9,0.3-1.7,0.8-2.5,1.5l-0.9,1.3c-0.4,0.8-0.7,1.8-0.7,2.8v0.6c0,0.8,0.1,1.6,0.5,2.2c0.3,0.9,0.7,1.5,1.2,2
					c0.6,0.6,1.1,0.9,1.8,1.2c0.9,0.4,1.6,0.6,2.3,0.5l1.7-0.3c0.9-0.3,1.7-0.8,2.5-1.5l0.9-1.3c0.4-0.8,0.7-1.8,0.7-2.8v-0.6
					c0-0.8-0.1-1.6-0.5-2.2l-0.1-0.2c-0.3-0.7-0.6-1.3-1.1-1.8c-0.6-0.6-1.1-0.9-1.8-1.2C460.5,677.8,459.9,677.8,459.1,677.8z"/>
				<path class="st4" d="M482,678.1c-5.1,0-7.7-4-7.7-7.9s2.7-7.9,7.7-7.9c5.1,0,7.7,4,7.7,7.9S487,678.1,482,678.1z M482,664.3
					c-3.9,0-5.6,3-5.6,5.9s1.7,5.9,5.6,5.9s5.6-3,5.6-5.9S485.9,664.3,482,664.3z"/>
				<path class="st4" d="M500.9,648.7c-5.1,0-7.7-4-7.7-7.9c0-4,2.7-7.9,7.7-7.9c5.1,0,7.7,4,7.7,7.9
					C508.6,644.6,505.9,648.7,500.9,648.7z M500.9,634.8c-3.9,0-5.6,3-5.6,5.9c0,2.8,1.7,5.9,5.6,5.9c1.7,0,3.2-0.6,4.2-1.8
					c0.9-1,1.4-2.5,1.4-4.1C506.5,637.9,504.8,634.8,500.9,634.8z"/>
				<path class="st4" d="M501.2,617.9c-5.1,0-7.7-4-7.7-7.9c0-4,2.7-7.9,7.7-7.9c5.1,0,7.7,4,7.7,7.9
					C509,613.9,506.3,617.9,501.2,617.9z M501.2,604.1c-3.9,0-5.6,3-5.6,5.9s1.7,5.9,5.6,5.9c1.7,0,3.2-0.6,4.2-1.8
					c0.9-1,1.4-2.5,1.4-4.1C506.9,607.1,505.1,604.1,501.2,604.1z"/>
				<path class="st4" d="M468.2,598.1c-5.1,0-7.7-4-7.7-7.9c0-2.1,0.7-4,1.9-5.4c1.4-1.6,3.5-2.5,5.8-2.5c5.1,0,7.7,4,7.7,7.9
					C476,594.1,473.3,598.1,468.2,598.1z M468.2,584.2c-3.9,0-5.6,3-5.6,5.9s1.7,5.9,5.6,5.9s5.6-3,5.6-5.9
					C473.9,587.3,472.1,584.2,468.2,584.2z"/>
				<path class="st4" d="M425,601.6c-5.1,0-7.7-4-7.7-7.9c0-4,2.7-7.9,7.7-7.9c5.1,0,7.7,4,7.7,7.9C432.7,597.5,430,601.6,425,601.6
					z M425,587.8c-3.9,0-5.6,3-5.6,5.9c0,2.8,1.7,5.9,5.6,5.9c1.7,0,3.2-0.6,4.2-1.8c0.9-1,1.4-2.5,1.4-4.1
					C430.6,590.8,428.9,587.8,425,587.8z"/>
				<path class="st4" d="M409.3,635.5c-5.1,0-7.7-4-7.7-7.9s2.7-7.9,7.7-7.9c5.1,0,7.7,4,7.7,7.9C417,631.5,414.4,635.5,409.3,635.5
					z M409.3,621.7c-3.9,0-5.6,3-5.6,5.9s1.7,5.9,5.6,5.9c1.7,0,3.2-0.6,4.2-1.8c0.9-1,1.4-2.5,1.4-4.1
					C415,624.7,413.2,621.7,409.3,621.7z"/>
				<path class="st4" d="M406.1,665.3c-5.1,0-7.7-4-7.7-7.9c0-4,2.7-7.9,7.7-7.9c5.1,0,7.7,4,7.7,7.9
					C413.8,661.3,411.1,665.3,406.1,665.3z M406.1,651.4c-3.9,0-5.6,3-5.6,5.9s1.7,5.9,5.6,5.9c1.7,0,3.2-0.6,4.2-1.8
					c0.9-1,1.4-2.5,1.4-4.1C411.7,654.5,410,651.4,406.1,651.4z"/>
			</g>
			<defs>
				<filter id="Adobe_OpacityMaskFilter_2_" filterUnits="userSpaceOnUse" x="565.6" y="514.4" width="162.6" height="195.5">
					<feColorMatrix  type="matrix" values="1 0 0 0 0  0 1 0 0 0  0 0 1 0 0  0 0 0 1 0"/>
				</filter>
			</defs>
			<mask maskUnits="userSpaceOnUse" x="565.6" y="514.4" width="162.6" height="195.5" id="mask2_0_1_1_">
				<path class="st7" d="M1374.1,3.1H-0.4v773.1h1374.5V3.1z"/>
			</mask>
			<g class="st8">
				<path class="st9" d="M705.4,514.4c-4.1,19.3-4,39.5-9.7,58.5c-7.8,25.6-26.7,47.8-50.9,59.4l-0.1-0.2
					c11.3-26.9,6.3-58.9,19.7-84.8C672.8,531.4,687.9,519.1,705.4,514.4z"/>
				<path class="st9" d="M685.2,691c-11.9,13.4-30.6,20.5-48.4,18.6c-16.9-1.9-31.9-11.3-46.2-20.6
					C620.7,676.9,655.7,677.7,685.2,691z"/>
				<path class="st4" d="M628.1,653.8c27.2-24.7,63.4-39.3,100.2-40.2c-2.5,3.5-4.9,6.8-7.3,10.3c-8.6,12-17.6,24.3-30.1,32.2
					c-18.6,11.7-44,11.5-62.3-0.6l-2-0.9c0.3-0.8,0.5-1.6,0.8-2.2c0.2,0.4,0.3,0.8,0.6,1.2L628.1,653.8z"/>
				<path class="st9" d="M636.8,532.4c7.3,39.9,3.9,81.6-9.6,119.8c-9.7-20.3-19.3-41.6-18.7-64.1
					C609.1,566.5,619.7,545.6,636.8,532.4z"/>
				<path class="st4" d="M589.9,689.5c-9.2-8.7-13.3-21.7-13.6-34.4c-0.3-12.6,2.8-25.1,6.6-37.1c3.7-12,7.9-24.1,9.8-36.6
					c10,16.5,15.1,35.9,14.5,55.2C606.5,655.4,600.5,674,589.9,689.5L589.9,689.5z"/>
				<path class="st10" d="M567,702.5c11.6-5.4,22.2-13.3,32.1-21.2c9.9-7.9,19.3-16.6,28.1-25.8c17.6-18.6,32.7-39.5,44.4-62.3
					c6.5-12.7,12.1-26,16.1-39.6c0.3-1.1-1.4-1.6-1.7-0.5c-4.5,12-9.3,23.7-15.2,35.1c-5.8,11.1-12.3,22-19.4,32.4
					c-14.3,20.7-31.5,39.5-50.9,55.5c-5.4,4.5-11.1,8.7-16.8,12.8c-5.9,4.1-11.9,8-17.7,12.2C565.1,701.6,565.9,703.1,567,702.5z"/>
				<path class="st10" d="M629.6,548.8c-1.7,6.7-3.3,13.4-4.4,20.2c-1.1,6.8-1.9,13.6-2.3,20.5c-0.9,13.6-0.9,27.4,0.4,41
					c0.7,7.8,1.7,15.5,3.2,23.1c0.1,0.6,0.9,1.2,1.6,1.1c19.5-2,39.4-3.8,57.9-10.7c5.2-1.9,10.2-4.2,15-6.9
					c1.7-0.9,0.2-3.6-1.6-2.6c-16.8,9.6-36.1,13.2-55.2,15.5c-5.4,0.6-10.8,1.1-16.2,1.6c0.5,0.3,1,0.8,1.6,1.1
					c-4.7-26.7-5.3-54-1.8-80.8c0.9-7.6,2.1-15.3,3.6-22.8C631.5,548.2,629.9,547.8,629.6,548.8z"/>
				<path class="st10" d="M598.2,605.9c-0.9,2.8-2,5.5-2.7,8.3c-0.7,2.8-1.4,5.5-1.9,8.3c-1.1,5.5-2,11.1-2.7,16.7
					c-1.5,11.4-2.2,22.8-2.7,34.3c-0.1,2.8-0.3,5.7-0.3,8.5c-0.1,2.3-0.5,5,0.8,7.1s4,3,6,4c2.2,1,4.6,2,6.9,2.8
					c9.8,3.5,20.2,5.3,30.6,6c5.8,0.4,11.7,0.6,17.4,0.5c6,0,12,0,17.9-0.4c1.8-0.1,1.8-2.8,0-2.8c-5.1,0-10.1,0.3-15.2,0.3
					c-5.1,0.1-10.2,0-15.3-0.3c-9.9-0.5-19.9-1.7-29.5-4.6c-4.7-1.4-9.3-3.2-13.7-5.4c-0.9-0.4-2.1-0.9-2.7-1.9
					c-0.5-0.9-0.4-2.2-0.3-3.2c0.1-2.8,0.3-5.5,0.3-8.3c0.4-11.1,1-22.1,2.2-33.1c0.6-6,1.5-12.1,2.5-18.1c0.5-3,1.1-6,1.7-9.1
					c0.6-3.1,1.1-6.2,1.9-9.3C599.7,605.5,598.5,605.1,598.2,605.9z"/>
			</g>
			<defs>
				<filter id="Adobe_OpacityMaskFilter_3_" filterUnits="userSpaceOnUse" x="527.6" y="638.8" width="258.1" height="184.8">
					<feColorMatrix  type="matrix" values="1 0 0 0 0  0 1 0 0 0  0 0 1 0 0  0 0 0 1 0"/>
				</filter>
			</defs>
			<mask maskUnits="userSpaceOnUse" x="527.6" y="638.8" width="258.1" height="184.8" id="mask3_0_1_1_">
				<path class="st11" d="M1374.1,3.1H-0.4v773.1h1374.5V3.1z"/>
			</mask>
			<g class="st12">
				<path class="st13" d="M737.6,704.9c4.3-2,8.6-4.1,12.6-6.7c9.4-6.3,16.6-15.5,21.9-25.5c5.4-9.9,9.2-20.7,12.9-31.4
					c-4.5,4.5-10.2,7.4-15.7,10.5c-20.9,11.9-40.5,28.1-50,50.2c-1.7,4.1-3.2,8.3-6.1,11.6l0.6,1.5
					C721.9,711.9,729.8,708.5,737.6,704.9z"/>
				<path class="st13" d="M713.3,780.1c7.2-0.3,14.4-0.6,21.6-0.9c-3.5-2.8-7-5.7-10.5-8.5c-8.5-6.9-17.3-13.9-27.6-17.6
					c-13.6-5-28.6-3.8-43.1-2.6c11.1-11.6,21.2-24.8,24.3-40.5c2.9-15.6-1.7-31.6-6.3-46.8c-7.9,13.2-21.1,23.7-24.6,38.7
					c-3.2,13.7,2.4,27.6,5.5,41.4c0.5,2.4,1,4.8,0.6,7.3c3.1,8.7,9.5,16.1,17.4,21.2c7.9,5,17.1,7.8,26.3,8.5
					C702.3,780.5,707.8,780.2,713.3,780.1z"/>
				<path class="st13" d="M553.9,765.3c2,9.7,10.3,20.2,15.7,28.4c3.5,5.3,6.9,10.5,11.2,15.1c4.3,4.6,9.7,8.4,15.7,10
					c5.9,1.6,12.3,1.2,17.9,3.7C606.1,795.4,581.1,773.4,553.9,765.3z"/>
				<path class="st13" d="M596.9,693.6c-5.1,9-13,15.8-20.5,22.9c-7.5,7.1-14.9,14.9-18.1,24.6c-2.6,7.7-4.6,16.2-4.3,24.3
					c20.5-3,38.4-19.6,42.8-39.9C599,715.1,598,704.2,596.9,693.6z"/>
				<path class="st13" d="M685.9,689.8c-2.2,13.5,2.1,27.2,8.2,39.5c10.3-15,20.7-33.8,23.7-51.7c2.1-12.7,0.3-26-5.3-37.6
					c-1.6,7.5-7.5,13.3-12.3,19.4c-4.3,5.4-7.9,11.5-10.5,18C687.9,681.3,686.6,685.5,685.9,689.8z"/>
				<path class="st13" d="M639.8,803.1c5.4,2.1,11.3,2.3,17.1,2.4c6.3,0.1,12.6,0,18.9-0.4c-6.7-9.2-13.7-18.6-23-25.2
					c-13.7-9.8-31-13-47.7-15.9c-0.3,0.3-0.7,0.4-1.1,0.6c6.8,11.3,14.2,23.4,24.6,31.6C632,799,635.7,801.6,639.8,803.1z"/>
				<path class="st13" d="M604.3,763.9c0.3,0,0.5,0.1,0.8,0.2c7.9-4.5,15.1-10.2,20.9-17.2c6-7.3,10.3-16.1,11.5-25.6
					c0.7-5.4,0.3-10.9-0.3-16.2c-0.9-8.3-2.2-16.6-4-24.7c-5,6.3-10.1,12.7-15.1,19c-2.4,3-4.8,6-6.8,9.4c-3.3,5.4-5.3,11.7-5.8,18
					C604.5,739.2,608.8,752.4,604.3,763.9z"/>
				<path class="st13" d="M753.7,739.8c8.3-2.3,16.7-4.7,25-7.1c-11.7-5.5-24.3-10-37.2-10.2c-4.4-0.1-8.8,0.3-13.1,0.9
					c-10.9,1.4-21.8,3.6-32.3,6.6c-0.4,0.1-0.9,0.3-1.2,0.1c-0.3-0.2-0.5-0.5-0.8-0.9c-0.1,0.2-0.3,0.3-0.3,0.5
					c13.4,11.1,31.7,15.9,48.8,12.8C746.2,741.9,749.9,740.8,753.7,739.8z"/>
				<path class="st10" d="M748.8,683.3c-2.8,2.7-5.9,5.2-8.8,7.7c-2.9,2.6-5.9,5.2-8.9,7.7c-6,5-12,10.1-18.2,14.9
					c-12.3,9.5-25.3,18.1-39,25.6c-13.9,7.6-28.4,13.9-43.6,18.5c-15.5,4.7-31.5,7.4-47.7,8c-16.1,0.5-32.2-1.2-47.7-5.6
					c-1.9-0.5-3.8-1.1-5.6-1.7c-1.7-0.6-2.4,2.2-0.8,2.7c15.5,5.1,31.7,7.5,47.9,7.5c16.3,0.1,32.6-2.2,48.4-6.5
					c15.5-4.1,30.5-10.1,44.8-17.5c14-7.3,27.3-15.8,40-25.2c6.4-4.7,12.5-9.7,18.6-14.8c6-5.1,11.9-10.4,17.4-16
					c1.4-1.5,2.8-2.8,4.1-4.2C750.3,683.6,749.4,682.7,748.8,683.3z"/>
				<path class="st10" d="M712.9,716.4c7.3-2.4,14.3-5.5,21.2-8.6c6.6-3,13.5-6,19.3-10.5c10.7-8.2,18-20.1,23.3-32.2
					c3.5-7.6,6.1-15.5,8.9-23.4c0.3-0.8-0.8-1.3-1.3-0.8c-5.3,5.2-12,8.4-18.3,12c-5.7,3.3-11.3,6.9-16.6,11
					c-10.4,7.9-19.9,17.2-26.7,28.3c-2,3.2-3.6,6.6-5.1,10c-1.6,3.6-2.9,7.5-5.5,10.5c-1.2,1.4,0.8,3.5,2.1,2.1
					c2.4-2.7,3.9-5.8,5.3-9.1c1.3-3.1,2.7-6.2,4.3-9.2c3.1-5.8,6.9-11.1,11.2-16.1c8.7-10,19.3-18.3,30.6-25.2
					c6.7-4.1,14.2-7.5,19.9-13.1c-0.4-0.3-0.9-0.5-1.3-0.8c-4.7,13.4-9.3,27.1-17.4,38.9c-3.6,5.3-8,10.1-13,14.2
					c-5.5,4.5-11.9,7.5-18.3,10.5c-7.7,3.5-15.5,6.7-23.3,10.2C711.3,715.1,712,716.7,712.9,716.4z"/>
				<path class="st10" d="M694.3,730.2c7.6-10.4,14.2-21.6,19-33.5c4.7-11.7,7.4-24.1,6-36.7c-0.8-7.2-2.8-14.1-5.9-20.5
					c-0.4-0.9-1.9-0.7-2.2,0.3c-1.3,5.4-4.7,9.8-8.1,14.1c-3.7,4.5-7.3,9-10.3,14c-6.2,10.6-10,22.4-8.7,34.9
					c0.6,6.1,2.2,12,4.5,17.7c1.1,2.8,2.3,5.4,3.6,8.1c0.4,0.9,0.9,2.2,1.9,2.8c1.3,0.6,2.9-0.3,4.2-0.5c6.2-1.7,12.6-3.2,19-4.3
					c6.5-1.2,13-2.2,19.7-2.5c14.2-0.7,28.4,3.7,41,9.9c0.1-0.7,0.2-1.4,0.3-2.2c-6.3,1.7-12.6,3.5-18.8,5.2
					c-6,1.7-12.1,3.6-18.3,4.7c-10.4,1.7-21.2,0.3-31.1-3.5c-5.6-2.2-10.9-5.3-15.6-9.1c-1.2-0.9-2.8,0.7-1.7,1.7
					c8.3,7.2,18.7,11.7,29.5,13.4c5.4,0.9,11,1,16.4,0.4c6.2-0.7,12.3-2.6,18.3-4.2c7.3-2.1,14.7-4.3,21.9-6.4
					c0.9-0.3,1.2-1.7,0.3-2.2c-11.1-4.8-22.4-9.2-34.5-10.1c-6.2-0.4-12.5,0.3-18.7,1c-6.4,0.9-12.7,2-18.9,3.5
					c-3,0.7-6,1.5-9.1,2.3c-0.7,0.2-1.6,0.6-2.3,0.7c-0.8,0-0.9-0.9-1.2-1.6c-0.7-1.5-1.3-2.9-1.9-4.4c-2.3-5.5-4.1-11.3-5.1-17.3
					c-1-5.9-1-11.9,0.2-17.7c1.2-6,3.6-11.6,6.5-16.9c3-5.7,6.9-10.8,11-15.7c3.7-4.6,7.4-9.3,8.7-15.2c-0.7,0.1-1.5,0.2-2.2,0.3
					c5.4,11.2,7.2,24.4,5.1,36.7c-2,12.1-7.1,23.6-13,34.4c-3.3,6-6.9,11.9-10.6,17.8C692.4,730.3,693.7,730.9,694.3,730.2z"/>
				<path class="st10" d="M654,751.1c8.5-8.2,16.1-17.7,21-28.6c2.4-5.5,4.1-11.3,4.6-17.4c0.6-6.6,0-13.4-1.2-19.9
					c-1.4-7.6-3.6-14.9-5.8-22.3c-0.3-0.9-1.4-1-1.9-0.3c-6,9.8-14.6,17.8-20.4,27.7c-2.9,5.1-4.9,10.6-5.4,16.6
					c-0.6,6.8,0.6,13.7,2.2,20.4c0.9,3.7,2,7.4,2.9,11.1c1,3.9,2.4,7.9,1.9,12c-0.1,0.6,0.6,1.3,1.2,1.2c11.7-1,23.7-2.2,35.2,0.1
					c11.3,2.3,20.9,8.4,29.9,15.5c5.3,4.1,10.5,8.5,15.8,12.7c0.3-0.7,0.5-1.3,0.9-2c-6.7,0.3-13.4,0.6-20.1,0.9
					c-6.6,0.3-13.1,0.7-19.7,0c-11.4-1.2-22.7-5.6-31-13.6c-4.3-4.2-7.8-9.3-9.8-15c-0.5-1.5-2.8-0.8-2.3,0.6
					c3.9,10.7,12.1,19.3,22.2,24.3c5.4,2.8,11.2,4.6,17.1,5.5c6.6,1,13.4,0.9,20,0.7c7.9-0.3,15.7-0.8,23.6-1c0.9,0,1.6-1.3,0.9-2
					c-9.2-7.4-18.2-15.5-28.4-21.5c-5-2.9-10.4-5.3-16.1-6.6c-5.7-1.4-11.6-1.9-17.4-2c-6.9-0.1-13.8,0.4-20.7,1
					c0.4,0.5,0.8,1,1.2,1.6c0.6-3.5-0.3-6.9-1-10.3c-0.8-3.3-1.7-6.5-2.6-9.8c-1.7-6.6-3.4-13.3-3.4-20.1c0-6.1,1.5-12.1,4.3-17.5
					c2.6-5,6-9.5,9.5-13.9c4-5,8-10,11.3-15.5c-0.6-0.1-1.3-0.2-1.9-0.3c3.9,12.5,7.8,25.6,7.2,38.8c-0.5,11.9-5.4,22.7-12.1,32.4
					c-3.8,5.4-8.2,10.4-12.6,15.4C652.5,750.7,653.4,751.7,654,751.1z"/>
				<path class="st10" d="M604.4,765.3c11-5.2,20.8-14,27.1-24.3c3.1-5.2,5.4-10.9,6.6-16.8c1.3-6.8,0.8-13.7,0-20.5
					c-0.9-7.9-2.2-15.7-3.9-23.4c-0.2-0.6-1.1-0.9-1.6-0.4c-4.1,5.2-8.2,10.3-12.3,15.5c-3.8,4.7-7.8,9.4-10.7,14.8
					c-2.7,5-4.4,10.5-4.9,16.2c-0.6,5.9,0.1,11.8,0.4,17.7c0.4,6.6,0.6,13.5-1.8,19.8c-0.2,0.5,0.2,1.2,0.8,1.3
					c10.8,1.9,21.6,3.7,31.9,7.5c5.1,1.9,10,4.2,14.6,7.3c4.7,3.1,8.8,6.9,12.5,11.1c4.3,4.7,8,9.8,11.7,15c0.3-0.6,0.7-1.2,1-1.8
					c-6.3,0.3-12.6,0.5-18.9,0.4c-6-0.1-12.2-0.3-17.8-2.8c-5.1-2.2-9.7-5.8-13.6-9.6c-4-3.7-7.3-7.9-10.5-12.3
					c-3.5-5-6.8-10.3-9.9-15.5c-0.8-1.3-2.8-0.1-2,1.2c5.8,9.6,11.7,19.3,19.8,27.3c4,4,8.5,7.7,13.6,10.2
					c5.4,2.8,11.5,3.6,17.5,3.9c7.3,0.3,14.7,0.2,21.9-0.3c0.8-0.1,1.6-1,1-1.8c-6.7-9.2-13.6-18.4-22.9-25.2
					c-9.1-6.6-19.8-10.4-30.7-13c-6.2-1.5-12.4-2.5-18.7-3.5c0.3,0.4,0.5,0.9,0.8,1.3c4.1-11.1,0.9-22.8,1.1-34.2
					c0.1-5.9,1.4-11.7,3.9-17.1c2.6-5.4,6.4-10.1,10.1-14.8c4.5-5.7,9-11.4,13.5-17.1c-0.5-0.2-1-0.3-1.6-0.4
					c1.5,6.7,2.7,13.6,3.5,20.5c0.8,6.6,1.5,13.6,0.7,20.2c-1.5,11.8-8,22.5-16.5,30.7c-4.9,4.7-10.5,8.5-16.2,12.2
					C602.9,764.6,603.5,765.7,604.4,765.3z"/>
				<path class="st10" d="M553.9,766.1c11.4-1,22.2-7.1,30-15.2c8.5-8.6,13.6-19.7,14.9-31.7c0.9-8.5,0.1-17.2-0.8-25.7
					c-0.1-1-1.5-1.6-2.1-0.6c-5.7,9.9-14.8,17.1-22.9,25c-3.9,3.8-7.6,7.8-10.6,12.2c-3.2,4.6-5.2,9.6-6.7,14.9
					c-1.9,6.6-3.2,13.4-3,20.2c0,0.5,0.3,0.9,0.9,1.1c21.2,6.4,40.4,20.7,52.1,39.7c3.2,5.3,5.9,10.9,7.7,16.8
					c0.6-0.4,1.2-0.9,1.8-1.4c-5.5-2.4-11.6-2.2-17.4-3.5c-5.6-1.4-10.4-4.5-14.6-8.5c-4.3-4.1-7.8-9.1-11.1-14.1
					c-3-4.7-6.3-9.2-9.3-13.8c-3.3-5.1-6.6-10.6-7.9-16.7c-0.3-1.5-2.6-0.9-2.2,0.6c1.1,5.4,3.8,10.4,6.6,15
					c2.9,4.8,6.3,9.3,9.4,14.1c6.5,9.8,13.6,20.2,25,24.6c6.5,2.4,13.6,1.6,20,4.3c0.9,0.3,2.2-0.3,1.8-1.4
					c-6.8-21.9-23.7-39.9-43.6-50.7c-5.7-3.1-11.7-5.5-17.8-7.3c0.3,0.3,0.5,0.7,0.9,1.1c-0.2-6,0.8-12,2.3-17.9
					c1.5-5.4,3.3-10.6,6.4-15.4c6-9.2,14.9-16,22.5-23.7c4.4-4.3,8.5-9,11.6-14.3c-0.7-0.2-1.4-0.3-2.1-0.6
					c1.3,13.5,2.6,27.6-2.9,40.4c-4.4,10.1-12.2,18.7-21.7,24.2c-5.4,3.2-11.3,5.2-17.4,6.5C552.9,764.8,553.1,766.2,553.9,766.1z"
					/>
				<path class="st10" d="M747.6,732.4c-8.3,0-16.6,0.3-24.9,0c-8.4-0.3-16.8-1-25-2.2c-1.1-0.2-1.6,1.6-0.5,1.7
					c8.3,1.1,16.7,1.9,25,2.2c8.5,0.3,16.9,0.4,25.4-0.6C748.3,733.4,748.3,732.4,747.6,732.4z"/>
				<path class="st10" d="M695.4,728.6c2.9-20.4,6.9-40.6,12.9-60.4c0.3-1.1-1.5-1.6-1.8-0.5c-5.9,19.8-10.2,40.1-12.2,60.7
					C694.2,729.1,695.3,729.2,695.4,728.6z"/>
				<path class="st10" d="M666.1,685c0.7,5.3-0.4,10.9-1.3,16.1c-0.8,5.1-1.7,10.2-2.8,15.3s-2.3,10.1-3.7,15.1
					c-1.4,5-3.1,9.9-4.7,14.9c-0.3,1.3,1.5,1.7,2,0.5c1.5-3.9,2.6-7.9,3.7-11.8c1.2-4.1,2.2-8.1,3.3-12.3c1.9-8,3.5-16.1,4.7-24.3
					c0.6-4.7,1.1-9.2,0.3-13.8C667.3,683.8,665.9,684.1,666.1,685z"/>
				<path class="st10" d="M653.6,751.4c2.6,0.9,5,2,7.6,2.8c2.4,0.8,4.8,1.6,7.2,2.3c4.8,1.6,9.7,3.1,14.5,4.7
					c4.6,1.5,9.1,3,13.6,4.7c2.2,0.9,4.5,1.8,6.6,2.8c2.2,1,4.4,2.3,6.7,3.4c1.2,0.5,2.1-1,1-1.7c-3.9-2.7-8.5-4.5-13-6.2
					c-4.6-1.8-9.3-3.4-14-4.9c-4.9-1.6-9.8-3.1-14.7-4.7c-2.5-0.8-5-1.6-7.5-2.3c-2.6-0.8-5.2-1.4-7.8-2.2
					C653.1,749.9,652.8,751.1,653.6,751.4z"/>
				<path class="st10" d="M628.2,698.3c-3.5,17.4-8.9,34.5-16.6,50.4c-2.2,4.6-4.6,9.1-7.1,13.5c-0.5,0.9,0.9,1.7,1.4,0.8
					c9-15.5,16-32.1,20.3-49.5c1.2-4.9,2.2-9.9,3-14.9C629.3,698,628.3,697.6,628.2,698.3z"/>
				<path class="st10" d="M657.2,797.3c-11.7-11-25-20.1-39.5-26.9c-4.1-1.9-8.1-3.6-12.3-5.2c-0.9-0.3-1.4,1.2-0.4,1.6
					c14.7,5.4,28.6,13,41,22.5c3.6,2.8,7.1,5.7,10.4,8.8C657,798.5,657.7,797.7,657.2,797.3z"/>
				<path class="st10" d="M589.1,712.9c-6.7,14.5-14.8,28.4-24.8,40.8c-2.8,3.5-5.9,7-9,10.4c-0.9,0.9,0.5,2.3,1.4,1.4
					c11.1-11.7,20.7-25.1,28.1-39.5c2.1-4.1,3.9-8.2,5.5-12.5C590.6,712.7,589.4,712.2,589.1,712.9z"/>
				<path class="st10" d="M599.4,807.8c-3-3.7-6-7.4-9.3-11c-3.4-3.5-6.7-7.1-10.3-10.4c-7-6.7-14.3-13-21.9-19
					c-1-0.9-2.5,0.7-1.5,1.5c7.6,6,14.9,12.3,22,19c7,6.6,13.8,13.6,20.2,20.8C599.1,809.2,599.9,808.4,599.4,807.8z"/>
			</g>
			<defs>
				<filter id="Adobe_OpacityMaskFilter_4_" filterUnits="userSpaceOnUse" x="110.1" y="494.1" width="60.6" height="117.9">
					<feColorMatrix  type="matrix" values="1 0 0 0 0  0 1 0 0 0  0 0 1 0 0  0 0 0 1 0"/>
				</filter>
			</defs>
			<mask maskUnits="userSpaceOnUse" x="110.1" y="494.1" width="60.6" height="117.9" id="mask4_0_1_1_">
				<path class="st14" d="M1374.1,3.1H-0.4v773.1h1374.5V3.1z"/>
			</mask>
			<g class="st15">
				<path class="st9" d="M110.1,494.1c4.1,19.3,4,39.5,9.7,58.5c7.8,25.6,26.7,47.8,50.9,59.4l0.1-0.2
					c-11.3-26.9-6.3-58.9-19.7-84.8C142.8,511.1,127.6,498.9,110.1,494.1z"/>
			</g>
			<defs>
				<filter id="Adobe_OpacityMaskFilter_5_" filterUnits="userSpaceOnUse" x="130.3" y="660.1" width="94.5" height="29.4">
					<feColorMatrix  type="matrix" values="1 0 0 0 0  0 1 0 0 0  0 0 1 0 0  0 0 0 1 0"/>
				</filter>
			</defs>
			<mask maskUnits="userSpaceOnUse" x="130.3" y="660.1" width="94.5" height="29.4" id="mask5_0_1_1_">
				<path class="st16" d="M1374.1,3.1H-0.4v773.1h1374.5V3.1z"/>
			</mask>
			<g class="st17">
				<path class="st4" d="M130.3,670.7c11.9,13.4,30.6,20.5,48.4,18.6c16.9-1.9,31.9-11.3,46.2-20.6
					C194.8,656.6,159.9,657.4,130.3,670.7z"/>
			</g>
			<defs>
				<filter id="Adobe_OpacityMaskFilter_6_" filterUnits="userSpaceOnUse" x="87.3" y="593.2" width="101.8" height="51.1">
					<feColorMatrix  type="matrix" values="1 0 0 0 0  0 1 0 0 0  0 0 1 0 0  0 0 0 1 0"/>
				</filter>
			</defs>
			<mask maskUnits="userSpaceOnUse" x="87.3" y="593.2" width="101.8" height="51.1" id="mask6_0_1_1_">
				<path class="st18" d="M1374.1,3.1H-0.4v773.1h1374.5V3.1z"/>
			</mask>
			<g class="st19">
				<path class="st9" d="M187.4,633.5c-27.2-24.7-63.4-39.3-100.2-40.2c2.5,3.5,4.9,6.8,7.3,10.3c8.6,12,17.6,24.3,30.1,32.2
					c18.6,11.7,44,11.5,62.3-0.6l2-0.9c-0.3-0.8-0.5-1.6-0.8-2.2c-0.2,0.4-0.3,0.8-0.6,1.2L187.4,633.5z"/>
			</g>
			<defs>
				<filter id="Adobe_OpacityMaskFilter_7_" filterUnits="userSpaceOnUse" x="175" y="512.1" width="32.1" height="119.8">
					<feColorMatrix  type="matrix" values="1 0 0 0 0  0 1 0 0 0  0 0 1 0 0  0 0 0 1 0"/>
				</filter>
			</defs>
			<mask maskUnits="userSpaceOnUse" x="175" y="512.1" width="32.1" height="119.8" id="mask7_0_1_1_">
				<path class="st20" d="M1374.1,3.1H-0.4v773.1h1374.5V3.1z"/>
			</mask>
			<g class="st21">
				<path class="st4" d="M178.7,512.1c-7.3,39.9-3.9,81.6,9.6,119.8c9.7-20.3,19.3-41.6,18.7-64.1
					C206.4,546.3,195.8,525.3,178.7,512.1z"/>
			</g>
			<defs>
				<filter id="Adobe_OpacityMaskFilter_8_" filterUnits="userSpaceOnUse" x="208.3" y="561.1" width="31" height="108.2">
					<feColorMatrix  type="matrix" values="1 0 0 0 0  0 1 0 0 0  0 0 1 0 0  0 0 0 1 0"/>
				</filter>
			</defs>
			<mask maskUnits="userSpaceOnUse" x="208.3" y="561.1" width="31" height="108.2" id="mask8_0_1_1_">
				<path class="st22" d="M1374.1,3.1H-0.4v773.1h1374.5V3.1z"/>
			</mask>
			<g class="st23">
				<path class="st9" d="M225.7,669.2c9.2-8.7,13.3-21.7,13.6-34.4c0.3-12.6-2.8-25.1-6.6-37.1c-3.7-12.1-7.9-24.1-9.8-36.6
					c-10,16.5-15.1,35.9-14.5,55.2C209,635.1,215,653.7,225.7,669.2L225.7,669.2z"/>
			</g>
			<defs>
				<filter id="Adobe_OpacityMaskFilter_9_" filterUnits="userSpaceOnUse" x="127.6" y="532.1" width="122.3" height="150.2">
					<feColorMatrix  type="matrix" values="1 0 0 0 0  0 1 0 0 0  0 0 1 0 0  0 0 0 1 0"/>
				</filter>
			</defs>
			<mask maskUnits="userSpaceOnUse" x="127.6" y="532.1" width="122.3" height="150.2" id="mask9_0_1_1_">
				<path class="st24" d="M1374.1,3.1H-0.4v773.1h1374.5V3.1z"/>
			</mask>
			<g class="st25">
				<path class="st10" d="M249.4,680.6c-5.2-3.7-10.5-7.2-15.8-10.8c-5.2-3.6-10.4-7.4-15.3-11.4c-9.8-7.9-19.1-16.4-27.8-25.6
					c-17.4-18.3-32-39-43.9-61.2c-6.7-12.6-12.3-25.6-17.3-38.9c-0.4-1-2.1-0.7-1.7,0.5c3.6,12.3,8.5,24.3,14.2,35.7
					c5.5,11.5,12.1,22.4,19.3,32.9c14.5,21.1,31.9,40.2,51.7,56.4c5.5,4.6,11.2,8.9,17.1,13c6,4.1,11.9,7.9,18.4,11
					C249.6,682.8,250.4,681.3,249.4,680.6z"/>
			</g>
			<defs>
				<filter id="Adobe_OpacityMaskFilter_10_" filterUnits="userSpaceOnUse" x="114" y="528" width="79.3" height="106.7">
					<feColorMatrix  type="matrix" values="1 0 0 0 0  0 1 0 0 0  0 0 1 0 0  0 0 0 1 0"/>
				</filter>
			</defs>
			<mask maskUnits="userSpaceOnUse" x="114" y="528" width="79.3" height="106.7" id="mask10_0_1_1_">
				<path class="st26" d="M1374.1,3.1H-0.4v773.1h1374.5V3.1z"/>
			</mask>
			<g class="st27">
				<path class="st10" d="M184.3,529.1c1.4,6.7,2.4,13.6,3.3,20.4c0.9,6.6,1.6,13.2,2,19.9c0.9,13.5,0.8,27-0.4,40.5
					c-0.7,7.7-1.7,15.3-3,22.8c0.5-0.3,1-0.8,1.6-1.1c-19.1-1.7-38.6-3.7-56.7-10.4c-5.1-1.8-10-4.1-14.7-6.7
					c-1.7-0.9-3.2,1.6-1.6,2.6c17.2,9.8,36.8,13.6,56.2,15.9c5.5,0.7,11.1,1.2,16.7,1.7c0.6,0.1,1.4-0.5,1.6-1.1
					c5-27,5.5-54.8,1.6-82c-1.1-7.8-2.8-15.3-4.8-22.9C185.6,527.5,184,527.9,184.3,529.1z"/>
			</g>
			<path class="st10" d="M216.1,586.1c0.7,2.7,1.1,5.4,1.6,8.1c0.6,2.7,1.1,5.4,1.6,8.1c0.9,5.4,1.8,11,2.4,16.4
				c1.3,10.9,1.9,21.8,2.4,32.8c0.1,2.8,0.3,5.5,0.3,8.3c0.1,1.3,0.1,2.6,0.2,3.9c0,1,0.2,2.3-0.3,3.3c-0.5,0.9-1.6,1.5-2.5,2
				c-1.1,0.6-2.2,1.1-3.4,1.6c-2.2,1-4.7,1.9-7,2.8c-9.5,3.2-19.5,4.8-29.4,5.5c-5.6,0.3-11.2,0.5-16.8,0.5
				c-5.8,0-11.5-0.3-17.3-0.3c-1.8,0-1.8,2.7,0,2.8c5.3,0.3,10.6,0.4,15.9,0.4c5.3,0.1,10.4,0,15.7-0.3c10.4-0.5,20.7-1.9,30.7-5
				c4.8-1.5,9.7-3.3,14.1-5.8c2.2-1.2,3.4-3,3.5-5.6c0.2-2.6-0.2-5.3-0.3-7.9c-0.5-11.5-1-23.1-2.3-34.5c-0.7-6.2-1.6-12.4-2.8-18.7
				c-0.6-3.2-1.3-6.3-2.2-9.4c-0.8-3.2-2-6.1-2.9-9.2C217,584.9,215.8,585.2,216.1,586.1z"/>
			<path class="st13" d="M77.9,684.6c-4.3-2-8.6-4.1-12.6-6.7c-9.4-6.3-16.6-15.5-21.9-25.5c-5.4-9.9-9.2-20.7-12.9-31.4
				c4.5,4.5,10.2,7.4,15.7,10.5c20.9,11.9,40.5,28.1,50,50.2c1.7,4.1,3.2,8.3,6.1,11.6l-0.6,1.5C93.6,691.6,85.7,688.2,77.9,684.6z"
				/>
			<path class="st13" d="M102.2,759.8c-7.2-0.3-14.4-0.6-21.6-0.9c3.5-2.8,7-5.7,10.5-8.5c8.5-6.9,17.3-13.9,27.6-17.6
				c13.6-5,28.6-3.8,43.1-2.6c-11.1-11.6-21.2-24.8-24.3-40.5c-2.9-15.6,1.7-31.6,6.3-46.8c7.9,13.2,21.1,23.7,24.6,38.7
				c3.2,13.7-2.4,27.6-5.5,41.4c-0.5,2.4-1,4.8-0.6,7.3c-3.1,8.7-9.5,16.1-17.4,21.2c-7.9,5-17.1,7.8-26.3,8.5
				C113.2,760.2,107.7,760,102.2,759.8z"/>
			<path class="st13" d="M261.7,745c-2,9.7-10.3,20.2-15.7,28.4c-3.5,5.3-6.9,10.5-11.2,15.1c-4.3,4.6-9.7,8.4-15.7,10
				c-5.9,1.6-12.3,1.2-17.9,3.7C209.4,775.2,234.4,753.1,261.7,745z"/>
			<path class="st13" d="M218.6,673.3c5.1,9,13,15.8,20.5,22.9c7.5,7.1,14.9,14.9,18.1,24.6c2.6,7.7,4.6,16.2,4.3,24.3
				c-20.5-3-38.4-19.6-42.8-39.9C216.5,694.8,217.5,683.9,218.6,673.3z"/>
			<path class="st13" d="M129.6,669.6c2.2,13.5-2.1,27.2-8.2,39.5c-10.3-15-20.7-33.8-23.7-51.7c-2.1-12.7-0.3-26,5.3-37.6
				c1.6,7.5,7.5,13.3,12.3,19.4c4.3,5.4,7.9,11.5,10.5,18C127.6,661,129,665.2,129.6,669.6z"/>
			<path class="st13" d="M175.8,782.8c-5.4,2.1-11.3,2.3-17.1,2.4c-6.3,0.1-12.6,0-18.9-0.4c6.7-9.2,13.7-18.6,23-25.2
				c13.7-9.8,31-13,47.7-15.9c0.3,0.3,0.7,0.4,1.1,0.6c-6.8,11.3-14.2,23.4-24.6,31.6C183.5,778.7,179.8,781.3,175.8,782.8z"/>
			<path class="st13" d="M211.2,743.6c-0.3,0-0.5,0.1-0.8,0.2c-7.9-4.5-15.1-10.2-20.9-17.2c-6-7.3-10.3-16.1-11.5-25.6
				c-0.7-5.4-0.3-10.9,0.3-16.2c0.9-8.3,2.2-16.6,4-24.7c5,6.3,10.1,12.7,15.1,19c2.4,3,4.8,6,6.8,9.4c3.3,5.4,5.3,11.7,5.8,18
				C211.1,718.9,206.8,732.1,211.2,743.6z"/>
			<path class="st13" d="M61.8,719.5c-8.3-2.3-16.7-4.7-25-7.1c11.7-5.5,24.3-10,37.2-10.2c4.4-0.1,8.8,0.3,13.1,0.9
				c10.9,1.4,21.8,3.6,32.3,6.6c0.4,0.1,0.9,0.3,1.2,0.1c0.3-0.2,0.5-0.5,0.8-0.9c0.1,0.2,0.3,0.3,0.3,0.5
				c-13.4,11.1-31.7,15.9-48.8,12.8C69.3,721.6,65.5,720.5,61.8,719.5z"/>
			<path class="st10" d="M65.8,663.9c2.8,2.8,5.5,5.7,8.5,8.4c2.8,2.8,5.8,5.4,8.8,8c5.9,5.2,11.9,10.2,18.1,14.9
				c12.5,9.7,25.6,18.5,39.5,26.1c14,7.7,28.8,14.1,44,18.7c15.6,4.7,31.9,7.5,48.3,8c16.2,0.5,32.6-1.2,48.2-5.6
				c2-0.5,3.9-1.1,5.9-1.8c1.7-0.6,0.9-3.3-0.8-2.7c-15.3,5-31.3,7.4-47.4,7.4s-32.3-2.3-47.9-6.5c-15.4-4.1-30.1-10.1-44.3-17.4
				c-13.8-7.2-26.9-15.5-39.5-24.8c-6.3-4.7-12.4-9.6-18.5-14.6c-6-5-11.8-10.3-17.8-15.3c-1.5-1.2-2.9-2.5-4.3-3.8
				C66.1,662.4,65.1,663.3,65.8,663.9z"/>
			<path class="st10" d="M103.3,694.5c-6.9-3-13.9-6-20.8-9.1c-6.5-2.9-13.1-5.9-18.8-10.1c-10.7-7.9-18.1-19.2-23.6-31.3
				c-3.4-7.6-6.1-15.5-8.8-23.3c-0.4,0.3-0.9,0.5-1.3,0.8c5.2,5.1,11.7,8.2,17.9,11.9c5.7,3.5,11.3,7.2,16.5,11.3
				c10.3,8.1,19.5,17.8,26.2,29.2c1.9,3.3,3.5,6.6,5,10.2c1.5,3.6,3,7.3,5.8,10.2c1.3,1.4,3.3-0.6,2.1-2.1c-2.3-2.8-3.6-6.1-5-9.4
				c-1.3-3.1-2.8-6.1-4.4-9.1c-3.2-5.7-7.2-10.9-11.5-15.7c-8.9-9.8-19.6-17.7-30.9-24.4c-6.9-4.1-14.6-7.5-20.4-13.2
				c-0.5-0.5-1.6,0-1.3,0.8c4.7,13.6,9.6,27.4,17.6,39.5c3.6,5.4,7.8,10.4,12.8,14.7c5.5,4.7,12,7.8,18.5,10.8
				c7.9,3.6,15.8,7.1,24,9.8C103.6,696.4,104.2,694.9,103.3,694.5z"/>
			<path class="st10" d="M122.5,709.1c-13-20.3-26.6-43.5-24-68.6c0.7-7,2.6-14,5.6-20.3c-0.7-0.1-1.5-0.2-2.2-0.3
				c1.1,5.2,4.1,9.5,7.4,13.6c3.5,4.4,7.2,8.7,10.1,13.6c6.3,10.4,10.4,22,9.3,34.2c-0.5,6-2.2,11.9-4.1,17.5
				c-1,2.8-2.2,5.5-3.5,8.3c-0.3,0.6-0.5,1.6-1.2,1.6c-0.7,0-1.5-0.4-2.2-0.6c-1.6-0.4-3.4-0.9-5-1.3c-6.1-1.6-12.3-2.8-18.6-3.8
				c-6.2-0.9-12.5-1.9-18.8-1.9c-13.8-0.1-26.6,4.8-39,10.3c-0.9,0.4-0.6,1.9,0.3,2.2c6.5,1.9,13,3.8,19.5,5.7
				c6.2,1.7,12.3,3.8,18.7,4.7c10.9,1.6,22.1,0.1,32.2-4.1c5.7-2.3,11-5.5,15.6-9.5c1.2-1-0.5-2.6-1.7-1.7
				c-8.4,6.6-18.4,11.1-28.9,12.6c-5.2,0.8-10.4,0.9-15.7,0.2c-6.1-0.8-12-2.6-18-4.2c-7.1-2-14.2-3.9-21.3-5.9
				c0.1,0.7,0.2,1.4,0.3,2.2c11.1-5.5,23.7-9.8,36.2-10c6.6-0.2,13.2,0.8,19.7,1.7c6.5,1,13,2.3,19.3,4c1.5,0.3,2.8,0.8,4.3,1.1
				c1.3,0.3,3.1,1.3,4.5,0.6c0.9-0.4,1.4-1.6,1.8-2.5c0.8-1.6,1.5-3,2.2-4.6c2.4-5.5,4.4-11.2,5.4-17.3c1-5.9,1.2-11.8,0.2-17.8
				c-1-6-3.4-11.8-6.1-17.4c-3-6-6.8-11.3-11.1-16.4c-4-4.7-8-9.6-9.5-15.7c-0.3-0.9-1.7-1.2-2.2-0.3c-5.4,11.7-7.4,24.4-5.6,37.2
				c1.8,12.5,7,24.4,13,35.4c3.5,6.3,7.4,12.3,11.7,18.2C121.8,710.7,123.1,710,122.5,709.1z"/>
			<path class="st10" d="M162.5,729.7c-7.6-8.6-15.2-17.6-20-28.2c-2.4-5.4-4.1-11.2-4.6-17.2c-0.5-6.5,0.1-13,1.3-19.4
				c1.4-7.3,3.5-14.6,5.8-21.8c-0.6,0.1-1.3,0.2-1.9,0.3c5.8,9.8,14.1,17.6,19.8,27.5c3,5.2,4.9,10.8,5.4,16.8
				c0.4,6.8-0.9,13.6-2.6,20.1c-0.9,3.7-2,7.4-2.9,11.1c-0.9,3.8-2.1,7.7-1.4,11.7c0.4-0.5,0.8-1,1.2-1.6c-11.9-1-24-1.9-35.8,0.4
				c-11.4,2.2-21.2,8.4-30.2,15.4c-5.5,4.3-11,8.8-16.5,13.2c-0.9,0.7-0.1,2,0.9,2c7,0.3,14.1,0.6,21.1,0.9
				c6.8,0.3,13.6,0.6,20.5-0.3c11.7-1.6,23.1-6.2,31.4-14.7c4.4-4.4,7.8-9.7,9.9-15.5c0.5-1.5-1.8-2.1-2.3-0.6
				c-3.8,10.4-12,18.6-21.8,23.4c-5.3,2.6-10.9,4.1-16.7,5c-6.5,0.9-13,0.7-19.5,0.4c-7.5-0.3-15-0.6-22.6-1c0.3,0.7,0.5,1.3,0.9,2
				c9.1-7.3,17.9-15.2,27.9-21.2c4.8-2.8,10-5.1,15.5-6.5c5.8-1.4,11.7-1.8,17.8-1.8c6.6,0,13.2,0.6,19.8,1.2
				c0.6,0.1,1.3-0.6,1.2-1.2c-0.4-3.6,0.7-7.2,1.6-10.6c0.9-3.5,1.8-6.8,2.7-10.2c1.7-6.6,3.1-13.3,2.9-20.1
				c-0.2-6-1.8-11.9-4.6-17.3c-2.7-5-6.1-9.6-9.7-14c-4.1-5.1-8.3-10-11.7-15.5c-0.4-0.8-1.6-0.6-1.9,0.3c-3.8,13-7.9,26.2-7.2,39.8
				c0.6,12.2,5.6,23.4,12.6,33.2c3.9,5.4,8.3,10.4,13,15C162.1,731.4,163.1,730.4,162.5,729.7z"/>
			<path class="st10" d="M211.9,743.8c-5.1-3.3-10.1-6.6-14.6-10.7c-4.5-4-8.5-8.5-11.5-13.7c-3-4.9-5.2-10.4-6.2-16.1
				c-1.2-6.6-0.7-13.4,0-20c0.9-7.7,2.1-15.4,3.7-23c-0.5,0.2-1,0.3-1.6,0.4c4,5,7.9,10.1,11.9,15.1c3.8,4.7,7.8,9.4,10.7,14.8
				c2.8,5.2,4.4,11,4.8,16.8c0.3,5.9-0.3,11.7-0.7,17.5c-0.4,6.4-0.3,12.9,1.9,19c0.3-0.4,0.5-0.9,0.8-1.3
				c-11.1,1.8-22.4,3.7-33,7.7c-5.2,2-10.1,4.4-14.7,7.4c-4.7,3.2-8.9,7.1-12.8,11.4c-4.3,4.7-8.1,9.9-11.9,15.1
				c-0.6,0.8,0.3,1.7,1,1.8c6.5,0.4,13,0.5,19.6,0.4c6-0.1,12.2-0.5,17.9-2.9c5.3-2.2,9.9-5.9,14.1-9.7c4.1-3.8,7.7-8.2,11-12.7
				c3.7-5.2,7.1-10.6,10.4-16.1c0.8-1.3-1.2-2.4-2-1.2c-5.6,9.3-11.3,18.8-19.1,26.5c-3.9,3.9-8.4,7.4-13.2,10
				c-5.4,2.8-11.3,3.5-17.3,3.6c-7.1,0.2-14.2,0-21.2-0.3c0.3,0.6,0.7,1.2,1,1.8c6.5-9.1,13.4-18.2,22.5-24.9
				c8.9-6.4,19.4-10,30-12.4c6-1.4,12.2-2.5,18.3-3.5c0.5-0.1,0.9-0.8,0.8-1.3c-4.4-11.4-0.5-23.7-1.2-35.5
				c-0.3-5.7-1.7-11.3-4.2-16.5c-2.6-5.4-6.3-10-10-14.6c-4.6-5.8-9.2-11.6-13.9-17.4c-0.4-0.5-1.5-0.3-1.6,0.4
				c-1.6,6.9-2.8,13.9-3.6,21c-0.9,6.9-1.6,13.9-0.6,20.8c1.6,12.2,8.3,23.1,17,31.5c5,4.7,10.7,9,16.9,11.9
				C212,745.5,212.6,744.3,211.9,743.8z"/>
			<path class="st10" d="M261.8,744.3C251,742,240.9,737,233.2,729c-8.2-8.5-13.2-19.3-14.2-31c-0.7-8.3,0.1-16.6,0.9-24.8
				c-0.7,0.2-1.4,0.3-2.1,0.6c5.5,9.6,14.2,16.7,22,24.2c4,3.7,7.8,7.7,10.9,12.1c3.3,4.6,5.4,9.5,6.9,14.9
				c1.9,6.6,3.2,13.3,2.9,20.1c0.3-0.3,0.5-0.7,0.9-1.1c-21.8,6.5-41.5,21.2-53.5,40.7c-3.4,5.4-6,11.3-7.9,17.4
				c-0.3,1.1,0.9,1.7,1.8,1.4c5.7-2.5,12.1-2,18-3.7c5.4-1.6,10.3-4.8,14.3-8.8c4.5-4.3,8-9.4,11.4-14.5c3.1-4.7,6.5-9.4,9.5-14.2
				c3.4-5.2,6.6-10.8,7.9-16.8c0.3-1.5-2-2.2-2.2-0.6c-1.1,5.4-3.8,10.2-6.6,14.9c-2.9,4.7-6.1,9.2-9.2,13.7
				c-6.3,9.6-13.4,20.1-24.8,23.8c-6.3,2.1-13.2,1.5-19.4,4.1c0.6,0.4,1.2,0.9,1.8,1.4c6.6-21.3,23.1-38.8,42.5-49.3
				c5.4-2.9,11.2-5.4,17.2-7.3c0.5-0.2,0.9-0.6,0.9-1.1c0.2-6-0.9-12.1-2.3-18c-1.5-5.5-3.2-10.8-6.3-15.6
				c-5.9-9.3-14.6-16.3-22.4-23.9c-4.6-4.5-8.9-9.2-12.1-14.9c-0.6-1-2-0.5-2.1,0.6c-1.4,14.1-2.5,28.6,3.5,41.9
				c4.7,10.4,12.8,19.2,22.7,24.9c5.5,3.1,11.7,5.4,18,5.9C262.4,745.9,262.6,744.5,261.8,744.3z"/>
			<path class="st10" d="M67.9,713.2c8.4,1,16.9,0.9,25.4,0.6c8.4-0.3,16.8-1.1,25-2.2c1.1-0.2,0.7-1.9-0.5-1.7
				c-8.3,1.1-16.7,1.9-25,2.2c-8.3,0.3-16.6,0.1-24.9,0C67.1,712.1,67.2,713.2,67.9,713.2z"/>
			<path class="st10" d="M121.3,708.1c-1.9-20.5-6.3-40.8-12.2-60.7c-0.3-1.1-2.2-0.7-1.8,0.5c5.9,19.8,9.8,40,12.9,60.4
				C120.2,708.9,121.4,708.8,121.3,708.1z"/>
			<path class="st10" d="M148,664.4c-0.8,4.1-0.5,8,0,12.1c0.5,4.1,1.2,8.2,1.9,12.3c1.5,8.1,3.4,16.2,5.6,24.2
				c1.3,4.6,2.6,9.2,4.3,13.7c0.4,1.2,2.3,0.8,2-0.5c-1.5-5-3.2-9.8-4.7-14.9c-1.4-5-2.7-10-3.7-15.1c-1.1-5.1-2.1-10.2-2.8-15.3
				c-0.9-5.2-2-10.8-1.3-16.1C149.6,663.9,148.2,663.5,148,664.4z"/>
			<path class="st10" d="M161.6,729.9c-2.6,0.8-5.2,1.3-7.8,2.2c-2.4,0.8-4.8,1.5-7.3,2.2c-5,1.6-9.9,3.2-14.9,4.8
				c-4.7,1.5-9.2,3-13.8,4.8c-4.4,1.7-9.2,3.6-13.1,6.3c-1.1,0.8-0.2,2.3,1,1.7c2.2-1,4.4-2.3,6.7-3.4c2.2-1,4.4-2,6.6-2.8
				c4.5-1.7,9-3.3,13.6-4.7c4.8-1.6,9.7-3.1,14.5-4.7c2.4-0.8,4.8-1.6,7.2-2.3c2.6-0.9,5.1-1.9,7.6-2.8
				C162.7,730.9,162.5,729.6,161.6,729.9z"/>
			<path class="st10" d="M186.4,678.3c2.8,17.7,8.4,34.8,16.1,50.9c2.2,4.6,4.6,9.1,7.1,13.5c0.5,0.9,1.9,0.1,1.4-0.8
				c-8.9-15.4-15.5-31.9-20.2-49c-1.3-4.9-2.5-9.8-3.5-14.8C187.2,677.3,186.2,677.7,186.4,678.3z"/>
			<path class="st10" d="M159.1,777.7c11.6-10.6,24.7-19.4,38.9-26.1c4.1-1.9,8.3-3.6,12.6-5.2c0.9-0.3,0.5-1.9-0.4-1.6
				c-14.9,5.5-29,13.4-41.5,23.2c-3.5,2.8-7,5.8-10.3,8.9C157.8,777.4,158.6,778.2,159.1,777.7z"/>
			<path class="st10" d="M225.2,693.1c5.8,15.1,14.3,29,24.4,41.5c2.9,3.6,6,7.1,9.2,10.4c0.9,0.9,2.2-0.4,1.4-1.4
				c-11-11.7-20.2-24.8-27.7-38.9c-2.2-4.1-4.1-8.1-6.1-12.3C226.1,691.9,225,692.4,225.2,693.1z"/>
			<path class="st10" d="M216.9,788.4c6.4-7.2,13.2-14.2,20.2-20.8c7-6.6,14.3-13,22-19c1-0.9-0.4-2.3-1.5-1.5
				c-7.6,6-14.9,12.3-21.9,19c-3.5,3.4-6.8,6.7-10.1,10.3c-3.4,3.5-6.4,7.3-9.5,11.1C215.6,788.1,216.4,788.9,216.9,788.4z"/>
			<path class="st13" d="M359.7,830.7h-142c0,0,26-100.9,25-201c-0.2-17.9-39.2-73.8-47.7-93.1c-8.5-19.3-12.2-70.5-14.5-90.8
				c-2.2-20.3,9.5-26.4,16.8-34.4c7.3-7.9,16.1-24.9,23.3-30c7.3-5.3,28.7-22.7,34.4-22.7s10.5,8.4,11.4,17.6c0,0,13.2-6,16.1-4.8
				c3,1.1,6.2,12.6,2,22.7c0,0,10.5,3.3,10.5,9.9c0,6.6,0,10.1-10.8,18.7c0,0,8.2-0.6,5.4,9.9c-2.8,10.5-22.1,28.9-22.1,28.9
				s7,21.8,19.6,44.8c12.6,23,77.5,86.6,49.4,138C336.4,644.5,344.9,756.9,359.7,830.7z"/>
			<path class="st9" d="M227.9,432.5c1.1-3.5,4.1-6,7.9-6c2,0,3.9,0.6,5.6,1.6c0.7,0,1.3,0.1,1.9,0.5c5.2,3.7,9.1,8.6,11.2,14.6
				c1.1,2.9,1.6,6.5,0.5,9.5c-1.1,3.1-3.8,5.4-7.1,6.1c-6.6,1.4-12.1-2.9-15.5-8.2c-1.8-2.8-3.2-6-4.1-9.2
				C227.6,438.7,227,435.5,227.9,432.5z"/>
			<path class="st9" d="M242,367.5c0.4-0.9,1.1-1.7,1.8-2.6c1.3-1.6,2.7-3,4.3-4.1c3.4-2.4,8.5-3.2,11.7-0.4c0.5,0.2,1,0.5,1.4,0.9
				c0.7,0.8,1.2,1.8,1.2,2.8c0,0.5-0.2,1-0.3,1.5c-0.1,1.6-0.8,3.1-1.9,4.1c-0.9,0.9-2.2,1.5-3.5,1.6c-1,0.9-2.1,1.6-3.3,2.3
				c-1.5,0.9-3.1,1.7-4.7,2.1c-2.7,0.5-5.6-0.2-6.9-2.8C241,371.1,241.1,369.3,242,367.5z"/>
			<path class="st9" d="M268.5,374.8c0.9-0.6,1.9-0.9,2.9-1.2c2.4-0.6,4.8-1.3,7.2-1.9c0.7-0.2,1.4-0.1,2.2,0.1
				c0.6,0,1.2,0.2,1.8,0.5c1.9,1.2,2.6,3.6,1.5,5.6c-2.3,4-6.6,7.4-11.3,7.9c-3.5,0.3-7-2.5-7-6.1
				C265.6,377.6,266.8,375.9,268.5,374.8z"/>
			<path class="st9" d="M276.3,400.5c0.8-2.8,3.6-4.3,6.4-4.2c1.2,0,2.4,0.3,3.6,0.5c1.1,0.2,2.2,0.3,3.4,0.5
				c0.3,0.1,0.6,0.2,0.9,0.3c0.1,0,0.1,0,0.2,0c1,0,2.2,0.4,2.8,1.2c0.7,0.8,1.2,1.8,1.2,2.8c-0.1,1-0.3,2.2-1.2,2.8
				c-1.8,1.5-3.7,2.6-5.9,3.2c-2.2,0.6-4.6,0.8-6.7,0.3C277.8,407.2,275.5,404,276.3,400.5z"/>
			<path class="st10" d="M244.7,553.3c0.6-6.6,0.7-13-0.1-19.6c-0.7-6.4-1.9-12.8-3.4-19c-3.1-13-7.3-25.6-10.9-38.3
				c-1.8-6.3-3.4-12.7-4.6-19.1c-1.3-6.9-2.1-14.2-0.9-21.2c0.9-5.1,3-11.5,8.8-12.3c5.7-0.9,11,3.9,14.3,7.9
				c8.2,9.8,13.4,21.8,18.6,33.3c5.6,12.4,11.5,24.9,18.6,36.6c12.7,21,29.8,39,41.5,60.6c2.8,5.3,5.4,10.7,7.3,16.4
				c2.2,6.6,3.8,13.3,5,20.1c2.1,11.6,3.3,24-0.7,35.2c-0.9,2.8-2.2,5.4-3.8,7.8c-0.9,1.3,1.2,2.5,2.1,1.2c6.7-10.4,7.5-23.1,6.2-35
				c-1.4-13.1-4.4-26.2-9.8-38.3c-10.2-23.1-27.7-41.6-41.4-62.4c-7.8-11.7-14.1-24.2-19.9-37c-5.6-12.1-10.5-24.7-18.2-35.6
				c-3.5-4.8-7.5-9.8-13.1-12.3c-5.2-2.2-10.8-1.2-14.2,3.5c-3.6,4.9-4.2,11.7-4.2,17.6c0,7.1,1.3,14,2.9,20.9
				c6,26.2,17.5,51.5,18.5,78.8c0.1,3.4,0.2,6.7-0.1,10.1C243.1,554.3,244.6,554.3,244.7,553.3z"/>
			<path class="st10" d="M237.3,421.4c0.3-1.2,0.6-2.3,0.7-3.5c0.1-1.2,0.1-2.5,0-3.7c-0.1-1.2-0.2-2.4-0.3-3.6
				c-0.2-1.1-0.3-2.6-0.9-3.6c-0.5-0.9-2.2-0.5-2.1,0.6c0,1.1,0.5,2.4,0.8,3.5c0.2,1,0.3,2.2,0.4,3.2c0.1,1.1,0.1,2.2,0.1,3.3
				c0,1.2,0.1,2.3,0,3.5C235.8,422,237.1,422.2,237.3,421.4z"/>
			<path class="st10" d="M244.8,633.7c-2.5-6.9-5-13.8-7.9-20.5c-2.9-6.8-6-13.6-9.2-20.3c-6.4-13.2-13.4-26.2-20.9-38.8
				c-3.7-6.2-7.9-12.3-10.9-18.9c-2.8-6.6-5.5-13.5-6.6-20.6c-0.5-3.2-0.7-6.5-1-9.7c-0.3-3-0.7-6-1.1-9c-0.8-6-1.7-12.1-2.6-18
				c-2.2-15-3.6-30.1-3.7-45.3c0-1.4-2.2-1.4-2.2,0c0,13.7,1,27.3,2.9,40.8c1.6,12.3,3.7,24.4,4.9,36.8c0.3,3.4,0.7,6.6,1.6,9.8
				c0.9,3.6,2.1,7.2,3.5,10.5c1.3,3.2,2.6,6.4,4.1,9.4c1.7,3.3,3.8,6.4,5.8,9.6c7.8,12.5,15,25.5,21.6,38.7
				c3.7,7.4,7.3,14.9,10.5,22.5c3.4,7.7,6.8,15.5,9.8,23.3C243.8,634.8,245.2,634.5,244.8,633.7z"/>
			<path class="st10" d="M264.3,377.4c0.7-0.1,1.2,0.1,1.8,0.2c0.6,0.1,1.3-0.1,1.8-0.2c1.2-0.2,2.3-0.5,3.5-0.9
				c2.4-0.7,4.5-1.9,6.8-2.8c4.4-1.6,4.9,3.8,4.9,6.8c-0.1,4.5-0.2,9.3-2.6,13.2c-2.2,3.6-6.2,5.7-10,7.4
				c-5.4,2.5-10.8,4.8-16.2,7.3c-0.4,0.2-0.6,0.7-0.6,1c-0.3,6.9-2.2,13.7-5.3,19.9c-0.7,1.4,1.4,2.6,2.1,1.2
				c3.3-6.6,5.2-13.8,5.6-21.2c-0.2,0.3-0.4,0.7-0.6,1c5.4-2.4,10.9-4.7,16.3-7.2c4.2-1.9,8.5-4.3,11-8.4c2.8-4.3,2.9-9.8,3-14.8
				c0-3.4-0.6-8.2-4.4-9.4c-2.8-0.9-5.5,1.1-8,2.2c-1.5,0.6-3,1.1-4.7,1.6c-0.8,0.2-1.5,0.3-2.2,0.5c-0.8,0.2-1.5,0.6-2.2,0.7
				C263.3,375.9,263.3,377.5,264.3,377.4z"/>
			<path class="st10" d="M283.3,421.8c1.6,0.9,3.5,1.9,4.5,3.5c0.9,1.6,1.1,3.5,0.8,5.3c-0.7,4-3.5,7.3-5.8,10.5
				c-5.2,7.2-10.9,14-16.8,20.5c-0.9,1,0.6,2.7,1.6,1.6c6.7-7.3,13-14.9,18.7-23.1c2.4-3.4,4.9-7.3,4.7-11.6c-0.1-1.8-0.7-3.6-1.8-5
				c-1.4-1.7-3.3-2.2-5.2-2.9C283.2,420.3,282.6,421.5,283.3,421.8z"/>
			<path class="st10" d="M243.3,637.7c0.1,6.7,0,13.5-0.2,20.1c-0.2,6.7-0.4,13.4-1.1,20.1c-0.6,6-1.5,11.8-2.2,17.8
				c-0.7,6-1.4,11.8-2.1,17.8c-2.8,24.3-5.7,48.7-10.7,72.7c-2.8,13.4-6.1,26.7-10.5,39.6c-0.4,1.4,1.6,1.9,2.2,0.6
				c8.4-23.3,13.1-47.5,16.8-72c3.5-23.7,5.7-47.7,8.6-71.5c0.9-7.5,1.5-15,1.6-22.5c0.1-3.7,0.1-7.4,0-11.1
				c-0.1-3.9-0.5-7.7-0.7-11.6C244.9,636.6,243.3,636.6,243.3,637.7z"/>
			<path class="st10" d="M335.7,644.9c0.1,3,0,6,0.1,9s0.3,6,0.4,9c0.3,5.9,0.7,11.8,1.1,17.7c0.9,11.8,1.9,23.6,3.1,35.4
				c2.4,23.6,5.6,47.1,9.6,70.5c2.2,13.1,4.7,26.2,7.3,39.3c0.3,1.6,2.7,0.9,2.3-0.7c-4.7-23.2-8.8-46.5-12.1-69.9
				c-3.3-23.3-5.9-46.8-7.7-70.3c-0.5-6.6-0.9-13.3-1.4-19.9c-0.3-3.4-0.4-6.6-0.6-10c-0.3-3.4-0.6-6.6-0.8-10
				C337,643.9,335.6,643.9,335.7,644.9z"/>
			<path class="st10" d="M329.3,643.3c-2.8-0.3-5.8,0-8.5,0.1c-2.9,0.1-5.9,0.1-8.8,0.1c-5.8-0.1-11.7-0.4-17.4-0.9
				c-2-0.2-1.9,2.8,0,3c5.9,0.5,11.7,0.7,17.7,0.6c2.8,0,5.7-0.2,8.6-0.3c2.8-0.2,6-0.3,8.8-1.1
				C330.3,644.5,330.1,643.4,329.3,643.3z"/>
			<path class="st10" d="M280.5,397.9c2.4,0.7,5,0.8,7.6,1c1.2,0.1,2.4,0.2,3.6,0.3c1.1,0.2,1.2,0.9,1.5,2c1,4.5-0.4,9.1-3.1,12.6
				c-2.8,3.5-6.4,6.6-10.1,9.2c-3.9,2.6-8,4.6-12.1,6.9s-7.9,5.3-10.1,9.4c-0.7,1.3,1.2,2.4,1.9,1.1c2.3-4.3,6.4-7,10.6-9.2
				c4.6-2.3,9.2-4.4,13.4-7.5c3.9-2.9,7.8-6.4,10.3-10.5c2.4-4.1,3.2-9.3,1.9-13.9c-0.8-2.8-3.1-3.2-5.7-3.4
				c-3.2-0.2-6.4-0.6-9.6-0.2C279.5,396.1,279.6,397.7,280.5,397.9z"/>
			<path class="st10" d="M180.9,431.8c5.1-9.2,13-16,19.9-23.7c7.3-8.2,12.5-18.2,20.8-25.5c8.1-7.3,18.1-11.8,26.8-18.5
				c2.1-1.6,4-3.5,6.5-4.3c2.7-0.9,4.9,0.5,6.4,2.8s2.5,5,2.7,7.7c0.2,2.8-0.7,5.3-2.2,7.6c-1.8,2.7-4,5.1-6,7.5
				c-2.2,2.5-4.3,4.9-6.6,7.3c-4.6,4.8-9.4,9.5-14.3,13.9c-1.2,1.1,0.6,2.8,1.8,1.8c9.4-8.3,18.3-17.4,26-27.5
				c1.7-2.2,3.3-4.7,3.7-7.4c0.5-2.8,0.1-5.7-0.9-8.4c-1.7-4.7-5.5-9.7-11.1-7.9c-2.7,0.8-4.8,2.7-6.9,4.3c-2.3,1.8-4.7,3.4-7.1,5
				c-4.8,3.1-9.8,6-14.4,9.3c-4.7,3.4-8.9,7.3-12.5,11.7c-3.7,4.7-6.9,9.8-10.5,14.5c-3.8,5-8.4,9.4-12.7,14.1
				c-2.1,2.2-4.1,4.6-5.9,7c-1.9,2.5-3.4,5.1-4.6,8C179.1,432,180.5,432.6,180.9,431.8z"/>
			<path class="st13" d="M461.1,833.6h142c0,0-26.4-94.8-25-194.9c0.4-31.3,39.2-80,47.7-99.2c8.5-19.3,12.2-70.5,14.5-90.8
				c2.2-20.3-9.5-26.4-16.8-34.4c-7.3-7.9-16.1-24.9-23.3-30c-7.3-5.3-28.7-22.7-34.4-22.7s-10.5,8.4-11.4,17.6c0,0-13.2-6-16.1-4.8
				c-3,1.1-6.2,12.6-2,22.7c0,0-10.5,3.3-10.5,9.9c0,6.6,0,10.1,10.8,18.7c0,0-8.2-0.6-5.4,9.9c2.8,10.5,22.1,28.9,22.1,28.9
				s-7,21.8-19.6,44.8c-12.6,23-77.5,86.6-49.4,138C484.4,647.4,475.9,759.8,461.1,833.6z"/>
			<path class="st9" d="M592.9,435.5c-1.1-3.5-4.1-6-7.9-6c-2,0-3.9,0.6-5.6,1.6c-0.7,0-1.3,0.1-1.9,0.5c-5.2,3.7-9.1,8.6-11.2,14.6
				c-1.1,2.9-1.6,6.5-0.5,9.5c1.1,3.1,3.8,5.4,7.1,6.1c6.6,1.4,12.1-2.9,15.5-8.2c1.8-2.8,3.2-6,4.1-9.2
				C593.2,441.5,593.7,438.3,592.9,435.5z"/>
			<path class="st9" d="M578.8,370.4c-0.4-0.9-1.1-1.7-1.8-2.6c-1.3-1.6-2.7-3-4.3-4.1c-3.4-2.4-8.5-3.2-11.7-0.4
				c-0.5,0.2-1,0.5-1.4,0.9c-0.7,0.8-1.2,1.8-1.2,2.8c0,0.5,0.2,1,0.3,1.5c0.1,1.6,0.8,3.1,1.9,4.1c0.9,0.9,2.2,1.5,3.5,1.6
				c1,0.9,2.1,1.6,3.3,2.3c1.5,0.9,3.1,1.7,4.7,2.1c2.7,0.5,5.6-0.2,6.9-2.8C579.8,374,579.7,372.2,578.8,370.4z"/>
			<path class="st9" d="M552.4,377.6c-0.9-0.6-1.9-0.9-2.9-1.2c-2.4-0.6-4.8-1.3-7.2-1.9c-0.7-0.2-1.4-0.1-2.2,0.1
				c-0.6,0-1.2,0.2-1.8,0.5c-1.9,1.2-2.6,3.6-1.5,5.6c2.3,4,6.6,7.4,11.3,7.9c3.5,0.3,7-2.5,7-6.1
				C555.2,380.5,553.9,378.7,552.4,377.6z"/>
			<path class="st9" d="M544.4,403.4c-0.8-2.8-3.6-4.3-6.4-4.2c-1.2,0-2.4,0.3-3.6,0.5c-1.1,0.2-2.2,0.3-3.4,0.5
				c-0.3,0.1-0.6,0.2-0.9,0.3c-0.1,0-0.1,0-0.2,0c-1,0-2.2,0.4-2.8,1.2c-0.7,0.8-1.2,1.8-1.2,2.8c0.1,1,0.3,2.2,1.2,2.8
				c1.8,1.5,3.7,2.6,5.9,3.2c2.2,0.6,4.6,0.8,6.7,0.3C543,410.1,545.3,406.8,544.4,403.4z"/>
			<path class="st10" d="M577.7,556.2c-1-13.4,1.3-27.1,4.6-40.1c3.4-13.2,7.9-26.2,11.4-39.4c1.8-6.6,3.5-13.5,4.5-20.3
				c0.9-6.8,1.3-13.9-0.3-20.6c-1.2-5.1-4.2-10.5-9.8-11.6c-5.7-1.1-11.2,2.6-15,6.4c-4.5,4.5-8,10.1-11.1,15.7
				c-3.2,5.8-6,11.7-8.6,17.8c-5.8,12.9-11.7,25.6-19,37.8c-13,21.8-30.7,40.2-42.7,62.6c-2.9,5.4-5.4,11.1-7.4,16.9
				c-2.2,6.6-3.8,13.6-5,20.5c-2.1,11.7-3.1,24.4,1,35.9c1,2.8,2.3,5.4,4,7.9c0.9,1.3,2.8,0.1,2.1-1.2c-6.6-10.2-7.1-22.7-5.8-34.5
				c1.5-12.9,4.5-25.8,9.8-37.6c10.1-22.1,26.8-40.2,40.2-60.2c7.5-11.2,13.7-23.1,19.4-35.3c5.5-11.7,10.2-23.9,17.2-34.9
				c3.3-5.1,7.1-10.5,12.4-13.6c2.3-1.4,5-2.3,7.8-1.8c2.8,0.5,4.8,2.3,6.2,4.7c3.1,5.4,3.3,12.4,2.9,18.5
				c-0.4,6.9-1.9,13.7-3.5,20.5c-6.2,25.2-17,50-17.3,76.3c0,3.2,0.3,6.5,0.5,9.7C576.3,557.1,577.8,557.1,577.7,556.2z"/>
			<path class="st10" d="M585,424.1c-0.1-1.2,0-2.3,0-3.5c0-1.1,0-2.2,0.1-3.3c0.1-1.1,0.3-2.2,0.4-3.2c0.2-1.1,0.7-2.3,0.8-3.5
				c0-1.1-1.6-1.6-2.1-0.6c-0.6,0.9-0.7,2.4-0.9,3.5c-0.2,1.2-0.3,2.5-0.4,3.7c-0.1,1.2-0.1,2.4,0,3.5c0.1,1.2,0.4,2.4,0.7,3.6
				C583.7,425.1,585.1,424.9,585,424.1z"/>
			<path class="st10" d="M577.3,636.9c2.8-7,5.8-13.9,8.7-20.7c2.9-6.8,6-13.6,9.3-20.2c6.5-13.4,13.6-26.4,21.2-39.1
				c3.7-6.2,7.9-12.1,10.7-18.7c2.8-6.6,5.4-13.3,6.5-20.5c0.4-3.1,0.6-6.3,1-9.5c0.3-3.2,0.8-6.4,1.2-9.6c0.8-6,1.7-11.9,2.6-17.9
				c2.2-15,3.5-30.1,3.5-45.3c0-1.4-2.2-1.4-2.2,0c0,13.7-1.3,27.5-3.1,41c-1.6,12.1-3.6,24.1-4.8,36.3c-0.3,3.5-0.8,6.9-1.6,10.4
				c-0.9,3.5-2.2,6.9-3.5,10.4c-1.3,3.3-2.6,6.6-4.3,9.7c-1.8,3.3-3.9,6.4-5.8,9.6c-7.7,12.5-14.9,25.4-21.3,38.5
				c-3.6,7.3-7.1,14.8-10.4,22.4c-3.3,7.6-6.1,15.4-9,23.2C575.7,637.4,577,637.7,577.3,636.9z"/>
			<path class="st10" d="M556.5,378.7c-0.7-0.1-1.1-0.4-1.8-0.6c-0.7-0.2-1.4-0.3-2-0.5c-1.4-0.3-2.7-0.7-4.1-1.2
				c-2.5-0.9-5-2.8-7.8-2.8c-4.4,0-5.8,4.7-6,8.2c-0.3,4.7,0.1,10.1,2.1,14.5c2,4.4,6,7.2,10.2,9.2c5.9,2.9,11.9,5.4,17.9,7.9
				c-0.2-0.3-0.4-0.7-0.6-1c0.4,7.4,2.3,14.6,5.6,21.2c0.7,1.4,2.8,0.2,2.1-1.2c-3.1-6.2-4.9-13-5.3-19.9c0-0.4-0.2-0.9-0.6-1
				c-4.8-2.2-9.8-4.4-14.6-6.6c-3.8-1.7-7.9-3.5-10.7-6.9c-2.9-3.5-3.4-8.4-3.5-12.9c-0.1-2.4-0.5-8.4,2.9-8.8
				c1.4-0.2,2.8,0.7,3.9,1.2c1.2,0.6,2.5,1.1,3.8,1.6c1.3,0.4,2.7,0.9,4.1,1.1c0.6,0.1,1.3,0.2,1.9,0.3c0.8,0,1.5-0.2,2.3-0.1
				C557.5,380.3,557.5,378.8,556.5,378.7z"/>
			<path class="st10" d="M536.8,423.5c-2,0.8-3.8,1.2-5.2,2.9c-1.1,1.4-1.6,3.1-1.7,4.8c-0.4,4.4,2.2,8.4,4.7,11.8
				c5.7,8,12,15.8,18.7,23.1c0.9,1,2.6-0.5,1.6-1.6c-6-6.5-11.7-13.3-16.8-20.5c-2.3-3.2-5.1-6.6-5.8-10.5c-0.3-1.7-0.1-3.7,0.8-5.3
				c0.9-1.7,2.8-2.7,4.5-3.5C538.1,424.3,537.6,423.1,536.8,423.5z"/>
			<path class="st10" d="M575.8,640.5c-0.3,3.4-0.5,6.7-0.7,10.1c-0.2,3.4-0.1,6.7-0.1,10.1c0.1,6.7,0.4,13.4,1,20.1
				c1.2,12,2.8,24,4.2,36c2.8,24.3,5.5,48.6,10.5,72.5c2.8,13.6,6.5,26.9,11.2,40c0.5,1.3,2.6,0.8,2.2-0.6
				c-7.9-23.1-12.7-47.5-16.1-71.7c-3.4-23.8-6-47.8-8.8-71.8c-0.9-7.3-1.3-14.7-1.6-22.1c-0.1-3.7-0.1-7.3-0.1-11.1
				c0-3.9-0.2-7.7-0.1-11.6C577.5,639.4,575.9,639.4,575.8,640.5z"/>
			<path class="st10" d="M483.7,647.7c-0.2,3-0.5,6-0.7,9c-0.2,2.9-0.3,5.8-0.5,8.7c-0.3,5.9-0.8,11.8-1.2,17.7
				c-0.9,11.8-1.9,23.6-3.2,35.4c-2.4,23.4-5.7,46.8-9.6,70c-2.2,13.1-4.7,26.2-7.3,39.4c-0.3,1.6,2.1,2.2,2.3,0.7
				c4.7-23.3,8.8-46.7,12.1-70.2c3.3-23.5,5.9-47.1,7.7-70.6c0.5-6.6,0.9-13.3,1.3-19.9c0.2-3.3,0.3-6.5,0.4-9.8
				c0.1-3.5,0.1-6.8,0.1-10.3C485.2,646.8,483.7,646.8,483.7,647.7z"/>
			<path class="st10" d="M491.3,647.6c2.7,0.9,5.7,0.9,8.5,1c2.9,0.2,5.9,0.3,8.8,0.3c5.9,0.1,11.8-0.1,17.7-0.6c1.9-0.2,2-3.2,0-3
				c-5.8,0.4-11.6,0.8-17.4,0.9c-2.8,0-5.7,0-8.6,0c-2.9-0.1-6-0.4-8.8-0.1C490.7,646.2,490.5,647.4,491.3,647.6z"/>
			<path class="st10" d="M540.3,398.9c-2.8-0.4-5.5-0.1-8.3,0.1c-2.1,0.1-4.9-0.1-6.3,1.9c-1.2,1.8-1.3,4.7-1.2,6.7
				c0.1,2.4,0.7,4.8,1.6,7c2.1,4.4,6,8,9.7,11.1c4,3.2,8.3,5.4,12.9,7.6c4.9,2.3,9.8,5.1,12.5,10c0.7,1.3,2.6,0.2,1.9-1.1
				c-4.2-8-13.6-10.7-20.7-15.4c-7.2-4.7-15.7-11.6-15-21c0.1-0.9,0.2-2.7,0.8-3.4c0.6-0.7,2.4-0.5,3.3-0.6c2.9-0.3,6-0.3,8.8-1.2
				C541.2,400.5,541.3,399,540.3,398.9z"/>
			<path class="st10" d="M641.3,434.1c-1-2.5-2.2-4.8-3.8-7c-1.6-2.2-3.4-4.4-5.3-6.5c-3.7-4.1-7.9-8-11.5-12.3
				c-3.9-4.5-7-9.5-10.5-14.3c-3.5-4.7-7.3-9.1-11.8-12.7c-4.5-3.5-9.3-6.6-14.2-9.6c-2.4-1.6-4.8-3-7.3-4.7
				c-2.3-1.6-4.5-3.5-6.8-5.1c-2.2-1.5-4.7-2.6-7.4-2c-2.5,0.5-4.3,2.4-5.6,4.5c-2.9,4.8-4,11-1.1,16.1c1.6,2.8,3.9,5.4,6,7.9
				c2.2,2.7,4.6,5.4,7,7.9c4.8,5.3,10,10.2,15.4,14.9c1.2,1,3-0.7,1.8-1.8c-8.8-7.8-17-16.3-24.4-25.5c-1.7-2.2-3.6-4.3-4.4-7
				c-0.8-2.8-0.3-5.7,0.6-8.3c0.9-2.2,2.2-4.7,4.3-5.9c2.4-1.3,5,0.2,7.1,1.6c2.2,1.6,4.2,3.4,6.5,4.9c2.2,1.6,4.6,3,6.8,4.5
				c4.6,2.8,9.2,5.6,13.5,9c4.4,3.4,8.1,7.4,11.4,11.8c3.3,4.4,6.4,9.1,9.8,13.3c7.4,9,16.8,16.4,22.5,26.8
				C640.3,435.5,641.7,435,641.3,434.1z"/>
		</g>
	</g>
	<path class="st13" d="M351.6,483.9c-12.7-7-18.1-22-22.5-50.9c-8.8-57.2-94.6-79.9-79.8-187.3C264.1,138.2,382.4,130,382.4,130
		s117.9-13.3,151.8,89.7c34,103-46.4,140.7-44.6,198.6c0.9,29.3-1.8,45.1-13,54.2c-11,9-30,11.7-61.6,14.5
		C383.2,490,363.9,490.7,351.6,483.9z"/>
	<path class="st9" d="M476.6,472.5c0.3,0.6,1.2,3,0.6,11.5c-0.4,5.3-4.2,14.5-10.3,19.6c-2.1,1.7-4.3,2.9-6.8,3.4
		c-8.8,1.6-22.3,3.5-42.8,5.4c-20.6,1.9-34.2,2.4-43.2,2.4c-2.8,0-5.6-1-8.1-2.6c-6.5-4.1-11.5-12-12.8-16.9
		c-2.2-8.2-1.7-10.8-1.6-11.4c12.3,6.8,31.5,6,63.3,3.1C446.6,484.2,465.6,481.5,476.6,472.5z"/>
	<path class="st9" d="M472.1,540.3c0,0,8.5,3.9,1,11.2c0,0-1.6,1-12.1,2.8c-7.6,1.2-19.9,2.8-39.6,4.6c-19.8,1.7-32.1,2.5-39.8,2.6
		c-10.7,0.2-12.3-0.5-12.3-0.5c-8.6-5.9-1-11.2-1-11.2l-0.6-6.8c-8.2-6.2-1-11.8-1-11.8l-0.5-6c-6.6-6.9-1-11.7-1-11.7l0.9-1.1
		c2.6,1.6,5.3,2.6,8.1,2.6c8.9,0,22.5-0.5,43.2-2.4c20.6-1.9,34.1-3.8,42.8-5.4c2.5-0.4,4.7-1.6,6.8-3.4l1.9,0.3c0,0,6.2,3.8,1,11.7
		l0.5,6c0,0,8,4.2,1,11.8L472.1,540.3z"/>
	<path class="st9" d="M460.9,554.3c0,0,0,16.9-38.2,20.5c-38.2,3.5-41.2-13.2-41.2-13.2c7.7-0.2,20-0.8,39.8-2.6
		C441.2,557.1,453.4,555.5,460.9,554.3z"/>
	<path class="st10" d="M364.7,511.9c2.8,1.8,6,2.2,9.3,2.7c3.5,0.4,7,0.8,10.5,1.1c7.2,0.7,14.3,1.1,21.5,1.3
		c13.6,0.3,27.4-0.7,40.7-4.1c3.6-0.9,7.2-2,10.7-3.3c3.5-1.2,6.9-2.6,10.1-4.5c1-0.6,0.3-2.6-0.9-2.1c-3,1.2-6,2.6-9,3.8
		c-3,1.1-6.1,2.2-9.3,3c-6.2,1.7-12.5,2.8-18.9,3.5c-13.7,1.6-27.5,1.1-41.3-0.1c-3.9-0.3-7.8-0.7-11.6-1.1
		c-3.8-0.3-7.6-0.8-11.2-1.7C364.4,510.3,364,511.5,364.7,511.9z"/>
	<path class="st10" d="M366.8,525.6c6.6,1.5,13.7,1.6,20.5,1.9c7,0.3,13.9,0.5,20.9,0.3c13.1-0.3,26.3-1.6,39.2-4.4
		c7.3-1.6,14.5-3.6,21.3-6.6c1.4-0.6,0.9-2.9-0.7-2.3c-6.1,2.2-12.3,4.3-18.6,5.8c-6.4,1.6-12.9,2.7-19.3,3.5
		c-13.3,1.6-26.7,1.8-40.1,1.3c-3.9-0.2-7.7-0.3-11.6-0.5c-3.9-0.2-7.7-0.5-11.6-0.3C366.2,524.3,366,525.4,366.8,525.6z"/>
	<path class="st10" d="M366.7,531.6c1.5,0.6,2.8,1.2,4.4,1.6c1.6,0.3,3.2,0.6,4.7,0.8c3.5,0.3,7,0.5,10.4,0.7
		c7.3,0.4,14.7,0.8,22,0.9c13.7,0.1,27.6-0.8,41-4.1c7.3-1.7,14.5-4.2,21.2-7.6c1.4-0.7,0.2-2.7-1.2-2c-25,11.8-52.8,12.1-79.8,10.7
		c-3.8-0.2-7.7-0.4-11.5-0.6c-3.6-0.2-7.4-0.3-10.9-1.6C366.6,529.9,366.1,531.2,366.7,531.6z"/>
	<path class="st10" d="M368,542.9c6.6,1.6,13.3,2.6,20.1,3.2s13.7,0.8,20.5,0.7c13.6-0.3,27.2-2,40.5-5.1c7.5-1.7,15-3.8,22.2-6.6
		c1.5-0.6,0.9-2.9-0.7-2.4c-6.4,2.2-12.7,4.2-19.3,5.9c-6.5,1.6-13.1,2.8-19.8,3.8c-13.3,1.9-26.9,2.3-40.3,1.5
		c-7.7-0.5-15.4-1.4-23-2.5C367.4,541.3,366.9,542.7,368,542.9z"/>
	<path class="st10" d="M369.3,550.1c13,3.3,26.8,4.1,40.2,3.8c13.4-0.3,26.9-2.2,39.8-5.4c7.3-1.9,14.7-4.1,21.8-7
		c1.3-0.5,0.8-2.6-0.6-2.1c-12.4,4.7-25.1,8.4-38.3,10.4c-13.1,2.1-26.5,2.6-39.8,1.6c-7.6-0.5-15.1-1.6-22.7-2.8
		C368.8,548.4,368.4,549.9,369.3,550.1z"/>
	<path class="st10" d="M370.1,560.8c13.5,3.6,27.7,3.5,41.5,2.8c13.5-0.7,27.1-1.7,40.3-4.4c7.1-1.5,14.6-3.3,21.1-6.6
		c1.2-0.6,0.3-2.8-0.9-2.2c-3,1.2-6,2.4-9.2,3.5c-3.1,0.9-6.2,1.8-9.4,2.5c-6.4,1.4-13,2.3-19.5,3c-13.4,1.5-26.9,2.5-40.4,2.1
		c-7.8-0.3-15.5-1-23.1-2.1C369.5,559.1,369.1,560.5,370.1,560.8z"/>
	<path class="st10" d="M451.9,483.8c13.5-3.5,28.8-9,35.8-21.9c4.2-7.6,4.4-16.3,3.9-24.8c-0.6-8.6-1.5-17.2-0.3-25.8
		c2.2-16.1,9.5-31,17.3-45.1c7.9-14.3,16.8-28.2,23.3-43.3c14-32.6,16.1-70.3,5.4-104.1c-4.8-15.5-12.4-30.2-22.9-42.7
		c-11.3-13.5-26-23.3-41.7-30.9c-31-14.9-66.2-20.9-100.3-16c-30.8,4.5-60,18.4-82.9,39.6c-23,21.3-38.9,49.7-43.6,80.8
		c-4.9,32,1.4,65.9,19.3,93.1c17,25.6,42.7,45.1,56.2,73c3.3,6.8,5.4,14,7,21.4c1.6,7.6,2.8,15.3,4.8,22.7c2,7.1,5,13.9,9.9,19.4
		c5,5.6,11.8,9.3,19,11.2c7.3,2,14.9,2,22.4,1.2c1.6-0.2,1.6-2.8,0-2.6c-14.8,1.6-31.8-1.8-41-14.3c-8.9-12.1-9.6-28.1-13-42.1
		c-3.5-14.4-10.5-27.4-19.5-39.1c-9.1-11.9-19.5-22.8-29.3-34.2c-10.1-11.8-19-24.4-25-38.9c-6-14.7-9.2-30.5-9.6-46.4
		c-0.8-31.5,9.7-62.4,29.4-87c18.6-23.2,44.3-40.7,72.6-49.5c32-10,67-8.9,99,1.2c16.4,5.2,32.4,12.8,46.3,22.9
		c13.3,9.8,23.8,22.8,31.3,37.4c15.6,30.5,18.8,66.9,10.6,100c-4.1,16.4-11.2,31.3-19.5,45.9c-7.8,13.7-16.2,27.3-22.2,42
		c-2.9,7.2-5.3,14.7-6.5,22.4c-1.2,8.2-0.9,16.3-0.2,24.6c0.7,8.5,1.3,17.7-2.7,25.6c-3.2,6.3-8.6,11-14.8,14.4
		c-6.2,3.5-12.9,5.8-19.7,7.8C449.9,482.1,450.5,484.3,451.9,483.8z"/>
	<path class="st10" d="M265.5,296.1c-2.2-7.1-2.8-14.9-2.9-22.3c-0.2-7,0.1-14,0.9-21c1.7-13.9,5.6-27.6,11.4-40.4
		c3.3-7.2,7.1-14.1,11.5-20.6c1.1-1.6-1.5-3.1-2.6-1.6c-16.2,23.7-24.6,52.6-24.2,81.3c0.2,8.5,1,17,4.4,24.9
		C264.4,297.3,265.8,297.1,265.5,296.1z"/>
	<path class="st10" d="M271.4,254.3c0.3-0.9,0.7-1.7,1-2.6c0.3-0.9,0.5-1.7,0.8-2.6c0.5-1.6,1-3.3,1.5-4.9c0.5-1.7,1-3.4,1.5-5.1
		c0.5-1.7,1.2-3.5,1.4-5.4c0.1-1.3-2-1.9-2.5-0.7c-0.8,1.6-1,3.5-1.5,5.4c-0.4,1.7-0.9,3.5-1.3,5.2c-0.3,1.6-0.8,3.4-1.1,5
		c-0.2,0.9-0.4,1.8-0.6,2.7c-0.2,0.9-0.2,1.8-0.4,2.8C270,254.8,271.2,255.1,271.4,254.3z"/>
	<path class="st10" d="M533.8,254.1c-0.3,3.5-0.8,7.1-1.1,10.5c-0.4,3.5-0.9,7.1-1.6,10.6c-1.1,6.8-2.6,13.6-4.4,20.3
		c-3.8,13.5-8.9,26.6-15.5,38.9c-1.8,3.4-3.7,6.7-5.7,9.9c-2.1,3.4-4.4,6.6-6.4,10c-0.8,1.3,1.1,2.8,2.2,1.6c2.4-2.8,4.3-6,6.2-9
		c1.9-3,3.6-6,5.4-9.2c3.4-6.2,6.4-12.5,9.1-19.1c5.4-13,9.3-26.8,11.6-40.7c0.6-3.9,1.1-7.8,1.5-11.7c0.3-4.1,0.3-8.2,0.4-12.3
		C535.4,253,533.9,253,533.8,254.1z"/>
	<path class="st10" d="M331.8,416.7c2,3.2,3.8,6.5,5.1,9.9s2.3,7.1,3.3,10.7c2,7.3,3.7,14.8,7.2,21.5c7.2,14,22.1,20.6,37,23.2
		c18,3.1,36.8,1.9,54.3-2.9c16-4.3,33.4-11.7,41.6-27c4.1-7.5,4.7-15.7,4-24.1c-0.7-8.5-2.2-17-1.4-25.6c0.3-2.1,0.7-4.2,1.3-6.2
		c0.4-1.5-1.8-2.1-2.2-0.6c-2.5,7.9-1.9,16.3-1.1,24.4c0.8,8.1,1.6,16.6-0.9,24.4c-5,16.2-21.3,24.9-36.4,29.7
		c-17.2,5.6-35.6,7.6-53.5,5.4c-14.2-1.7-30-6.6-38.2-19.3c-7.9-12.4-7.4-28.3-15.3-40.8c-0.9-1.6-2-2.8-3.3-4.1
		C332.6,414.6,331.2,415.7,331.8,416.7z"/>
	<path class="st9" d="M391.5,309c-7.7,19-11.1,39.4-14.2,59.8c26.6-8.3,56.6,2,83.4-6c26.2-7.8,44.9-32.2,52.4-58.5
		c7.5-26.2,5.6-54.2,1.9-81.3c-10.6,11-25.5,16.6-40.2,20.9c-14.7,4.2-29.8,7.6-43,15.2C413,269.9,399.7,288.7,391.5,309z"/>
	<path class="st10" d="M507.6,241.1c-6,13.2-12.3,26.3-21.1,38c-8.5,11.3-19.2,20.5-30.6,28.7c-22.1,15.7-47,27.8-66.5,47
		c-5.1,5-9.8,10.5-13.8,16.5c-4,6-7.5,12.6-9.4,19.6c-0.5,1.8,2.2,2.5,2.8,0.8c2.2-6.1,4.8-11.9,8.4-17.4
		c3.5-5.4,7.5-10.3,11.9-14.9c9.2-9.4,19.7-17.4,30.7-24.5c23.2-15.3,48.8-28.5,66.5-50.6c10.1-12.6,17.6-27.1,22.7-42.3
		C509.5,240.9,507.9,240.2,507.6,241.1z"/>
	<path class="st10" d="M473.6,338.7c-5.5,0.2-11.1,0.2-16.6,0.4c-5.4,0.3-10.9,0.6-16.4,1.2c-10.8,1.1-21.5,2.8-31.9,5.8
		c-5.9,1.6-11.7,3.8-17.3,6.3c0.6,0.6,1.2,1.2,1.8,1.8c7-16.3,14.1-32.6,21.1-49c2-4.7,4.1-9.2,5.9-13.9c0.6-1.6-2-2.7-2.7-1.1
		c-3.6,7.9-6.9,16.1-10.3,24.2c-3.5,8.2-6.9,16.4-10.4,24.5c-2,4.7-4,9.3-6,13.9c-0.5,1.2,0.5,2.4,1.8,1.8c19.7-9,41.2-11.6,62.5-13
		c6-0.4,12.2-0.9,18.2-1.3C474.6,340.2,474.6,338.7,473.6,338.7z"/>
	<path class="st10" d="M504.6,300.4c-4.7,0.2-9.3,0.9-13.9,1.7c-4.7,0.9-9.3,1.9-13.9,3c-9.2,2.2-18.3,4.8-27.4,7.8
		c0.5,0.7,1.1,1.5,1.6,2.2c4.3-8.5,7.8-17.4,10.4-26.4c1.3-4.5,2.4-9.1,3.4-13.6c0.9-4.7,1.9-9.5,2.1-14.2c0.1-1.6-2.6-2.1-2.9-0.4
		c-0.8,4.6-1.3,9.2-2.2,13.9c-0.9,4.5-2,9-3.3,13.4c-2.6,9-6,17.6-10.1,26c-0.5,1,0.3,2.6,1.6,2.2c8.9-3,18-5.6,27-7.9
		c4.5-1.1,9.1-2.1,13.6-3.1c4.6-1,9.2-1.8,13.8-3.2C505.4,301.6,505.2,300.4,504.6,300.4z"/>
	<path class="st10" d="M383.3,284.8c-5.7-9.7-9.8-20-11.8-31c-2-10.4-2.1-21.4-0.4-31.9c3.3-20.5,13.1-39.4,26.8-54.9
		c7.6-8.5,16.2-16.2,25.6-22.8c-0.7-0.3-1.3-0.5-2-0.8c1.2,6.5,2.8,12.7,4.9,18.9c2.2,6.2,4.6,12.3,6.9,18.4
		c4.3,11.5,8.1,23.3,8.3,35.7c0.1,6-0.8,11.9-2.8,17.4c-1.7,4.7-4.5,9.1-7.9,12.9c-6.4,7.3-14.6,12.6-22.5,18
		c-9.1,6-18.7,12.5-24.9,21.8c-0.9,1.3,1.1,2.8,2.2,1.6c3.2-3.8,6.8-7.4,10.7-10.5s7.9-5.9,12-8.6c8.3-5.5,16.8-11,23.7-18.1
		c3.5-3.5,6.4-7.6,8.5-12c2.7-5.5,4.1-11.6,4.5-17.7c0.8-12.4-2.4-24.7-6.6-36.3c-2.5-7-5.4-13.8-8-20.7c-2.7-6.9-5.3-14.1-6.5-21.4
		c-0.2-0.9-1.3-1.2-2-0.8c-17.4,11.6-32.4,27-42.4,45.4c-10.4,19.2-15,41.4-11.9,63c0.9,6,2.4,12,4.7,17.8c1.1,2.9,2.4,5.7,3.9,8.5
		c1.6,3.1,3.7,6,5.5,9.1C382.5,286.5,383.8,285.8,383.3,284.8z"/>
	<path class="st10" d="M382.5,302.8c0.3-7.7,0.9-15.4,1.6-23.1c0.7-7.7,1.7-15.4,3.2-23c2.8-15.2,7.2-30,12.6-44.4
		c3-8.1,6.6-16,10.4-23.8c0.6-1.2-1.1-2.3-1.8-1.1c-7.7,13.6-13.5,28.2-18,43.1c-4.5,14.9-7.4,30.2-9.1,45.7
		c-0.9,8.9-0.9,17.6-0.6,26.5C380.8,303.9,382.5,303.9,382.5,302.8z"/>
	<path class="st10" d="M382,198c1,6.6,2.8,13.2,4.2,19.9c1.4,6.6,2.8,13.2,3.9,19.9c0.2,0.9,1.3,1,1.9,0.5
		c11.1-10.4,22.4-20.8,33.6-31.2c1-0.9-0.5-2.5-1.6-1.6c-11.2,10.4-22.4,20.8-33.6,31.1c0.6,0.2,1.2,0.3,1.9,0.5
		c-1-6.6-2.1-13.3-3.5-19.9c-1.4-6.6-2.8-13.3-5.1-19.6C383.2,196.6,381.9,196.9,382,198z"/>
	<path class="st10" d="M385.3,262.4c11-6.8,21.2-14.9,31.6-22.5c1.1-0.8,0-2.7-1.1-1.9c-10.4,7.8-21.2,15.1-31.3,23.3
		C383.9,261.7,384.7,262.7,385.3,262.4z"/>
	<path class="st4" d="M371,319.9c-0.5,17.1-4.7,33.8-9.2,50.3c-17.4-15.2-43.8-17.4-61.6-32.5c-17.4-14.7-23.5-39.5-20.5-62.1
		c3-22.5,13.9-43.3,25.7-62.7c4.4,11.9,13.9,21.2,23.7,29.4c9.8,8.1,20.2,15.8,27.7,26C367.6,282.8,371.5,301.7,371,319.9z"/>
	<path class="st10" d="M303.5,229.5c-1.1,12-0.5,24.2,2.2,35.9c2.5,11.1,7.1,21.4,12.8,31.2c11.2,19.3,26,36.5,35,57.2
		c2.5,5.8,4.5,11.7,5.7,17.9c1.3,6.3,1.4,12.5,1,19c-0.1,1.6,2.6,2,2.8,0.3c1.8-11-0.8-22.7-4.6-33c-4-10.6-9.6-20.5-15.7-30
		c-12.2-18.6-26.5-36.5-32.8-58.2c-3.8-13.1-4.4-26.9-4.7-40.4C305.3,228.2,303.6,228.3,303.5,229.5z"/>
	<path class="st10" d="M297.8,316.5c8,4.1,16,8.3,23.8,12.7c7.8,4.4,15.3,9.2,22.1,14.9c3.9,3.2,7.6,6.7,11,10.5
		c0.8,0.9,2.2,0.2,2.2-0.9c0.1-9.4,0.3-18.9,0.4-28.3c0.2-9.4,0.5-18.9,0.3-28.3c0-1.9-2.8-1.9-2.9,0c-0.4,9.4-0.2,18.9-0.3,28.3
		c-0.1,9.4-0.1,18.9-0.2,28.3c0.8-0.3,1.6-0.6,2.2-0.9c-12-13.5-27.8-23.1-43.9-31.1c-4.7-2.3-9.4-4.4-14.2-6.6
		C297.7,314.6,296.9,316,297.8,316.5z"/>
	<path class="st10" d="M287,276.5c2.9,2.6,6.1,4.7,9.2,7c3.1,2.2,6.3,4.6,9.3,6.9c6.2,4.7,12.3,9.8,18.1,15.1c0.9,0.8,2.6,0.3,2.5-1
		c-0.3-7.7-0.1-15.5,0.9-23.1c0.5-3.9,1.2-7.7,2-11.5c0.9-3.8,2.1-7.4,2.9-11.2c0.4-1.9-2.2-2.5-2.8-0.8c-1.5,3.6-2.3,7.6-3.1,11.4
		c-0.9,3.8-1.5,7.7-2,11.6c-1,7.9-1.3,15.7-0.9,23.6c0.9-0.3,1.7-0.7,2.5-1c-5.9-5.3-11.9-10.3-18.2-15c-3.1-2.4-6.3-4.7-9.6-6.9
		c-3.3-2.2-6.6-4.4-10.2-6C287.1,275.3,286.4,276,287,276.5z"/>
	<path class="st10" d="M493.8,150.6c6.6-8.1,12.3-16.8,18.3-25.3c6-8.5,12.3-17,18-25.8c1.2-1.8-1.6-3.4-2.8-1.6
		c-6.1,8.4-11.8,17.1-17.7,25.7c-5.9,8.5-12,17-17.3,25.9C491.8,150.4,493.1,151.5,493.8,150.6z"/>
	<path class="st10" d="M482.3,137.8c2.8-6.7,5-13.7,7.4-20.6c1.1-3.4,2.3-6.7,3.5-10.1c1.2-3.5,2.7-7.1,3.5-10.6
		c0.4-1.6-2.2-2.9-2.9-1.2c-1.5,3.4-2.4,7-3.6,10.5c-1.1,3.5-2.3,6.9-3.5,10.4c-2.3,7-4.7,14-6.6,21.2
		C479.7,138.6,481.8,139.1,482.3,137.8z"/>
	<path class="st10" d="M464.6,132.5c0.8-4.6,1.5-9.2,2.7-13.6c0.6-2.2,1.3-4.5,2.2-6.6c0.3-1,0.8-2.1,1.2-3.1
		c0.4-1.1,1.1-2.2,1.3-3.4c0.2-1.2-1.4-2.5-2.3-1.4c-1.5,1.7-2.2,4.4-2.9,6.6c-0.8,2.2-1.6,4.6-2.1,6.9c-1.1,4.7-1.9,9.5-1.8,14.3
		C462.8,133.3,464.4,133.5,464.6,132.5z"/>
	<path class="st10" d="M513.5,162.5c4.5-3.9,8.6-8,12.9-12.2c2.1-2.1,4.1-4.1,6.2-6.1c1-1,2.1-2.1,3.1-3.1c1-1,2.3-2,3-3.3
		c0.7-1.2-0.7-2.6-1.9-1.9c-1.2,0.7-2.2,1.9-3.1,2.8c-1,1-2.1,2.1-3.1,3.1c-2.1,2.2-4.2,4.2-6.3,6.4c-4.1,4.2-8.2,8.5-12,13
		C511.6,162.2,512.7,163.3,513.5,162.5z"/>
	<path class="st10" d="M519.7,173.1c1.3,0.6,3,0.1,4.4-0.2c1.5-0.3,2.8-0.8,4.3-1.4c1.4-0.6,2.8-1.2,4.1-1.9c0.7-0.3,1.3-0.8,2-1.2
		s1.5-0.9,1.9-1.6c0.6-1.1-0.3-2.2-1.6-2c-0.7,0.2-1.3,0.7-1.9,1c-0.6,0.4-1.2,0.8-1.8,1.2c-1.2,0.8-2.5,1.4-3.7,2
		c-1.2,0.5-2.5,1-3.7,1.5c-1.3,0.4-3,0.6-4,1.6C519.3,172.2,519.3,172.9,519.7,173.1z"/>
</g>
<path class="st9" d="M1578.8,572.9c7.7,8.1,16.9,14.5,26.3,20.4c2-14.9,13.8-27.4,15.8-42.6c2-14.7-5.7-29.4-17.1-39
	c-11.2-9.7-25.6-14.9-39.7-19.3c3.1,7.7,2.4,16.5,1.3,24.6c-1.1,8.1-3.1,16.5-2.2,24.8C1564.3,553.6,1570.7,564.4,1578.8,572.9z"/>
<path class="st10" d="M1571.3,500.5c5,6.1,10.1,12.1,13.8,19.1c3.7,6.8,5.7,14,7.2,21.5c2.6,14.5,3.1,29.4,8.1,43.2
	c2.6,7.2,6.6,14.9,12.7,19.7c1.1,0.9,2.4-0.9,1.5-1.8c-2.4-2.6-4.8-5.3-6.8-8.3c-2-3.1-3.5-6.4-4.8-9.7c-2.6-6.8-4.2-14-5.3-21.3
	c-2.2-14.7-3.1-29.8-9.9-43.2c-3.9-7.7-9.4-14.7-15.8-20.6C1571.8,499,1570.9,499.9,1571.3,500.5z"/>
<path class="st10" d="M1611.9,539.1c-3.1,7-6.1,14-8.3,21.5c-2.2,7.2-3.5,14.7-3.7,22.2c0.7-0.2,1.1-0.4,1.8-0.7
	c-4.2-4.6-8.3-9.2-12.5-13.8c-4.2-4.6-8.1-9.2-12.5-13.6c-1.1-1.1-2.6,0.4-1.8,1.5c3.9,4.6,8.3,9.2,12.5,13.6
	c4.2,4.6,8.3,9,12.5,13.6c0.7,0.7,1.8,0.2,1.8-0.7c0-7.5,1.3-14.9,3.5-22.2c2.2-7.2,4.8-14.3,7.5-21.3
	C1613.4,538.7,1612.1,538.5,1611.9,539.1z"/>
<path class="st10" d="M1600.1,515c-2.2,4.6-3.1,9.9-4.2,14.7c-1.1,5-1.8,10.3-2.4,15.6c0.7-0.2,1.3-0.4,2-0.7
	c-3.3-4.2-7-7.9-11-11.4c-3.7-3.3-7.9-6.8-12.5-9c-1.3-0.7-2,1.3-1.1,2c2,1.5,4.2,2.6,6.4,4.2c2,1.5,4.2,3.1,5.9,4.8
	c3.7,3.3,7.2,7,10.5,10.7c0.7,0.9,2,0.2,2-0.7c0.4-5,1.3-10.1,2.2-15.1c0.9-5,2.4-9.9,2.9-14.9C1601.2,515,1600.3,514.6,1600.1,515z
	"/>
<path class="st10" d="M1552.9,577.3c-10.5,1.1-21.3-1.1-30.5-6.6c-10.1-5.7-17.8-14.7-22.8-24.8c-3.1-6.4-5.3-13.2-6.6-20.2
	c-0.4,0.4-0.9,0.9-1.3,1.1c3.1,0.7,6.1,1.5,9.2,1.8c3.3,0.4,6.4,0.7,9.6,0.9c6.1,0.4,12.1,0.9,18,2.6c5.5,1.8,10.5,4.6,13.8,9.2
	c3.5,5,4.6,11,5.7,16.9c1.1,6.6,2,13.8,5.5,19.3c0.7,1.1,2.4,0.4,2-0.9c-1.3-2.9-2.4-5.9-3.1-9c-0.7-3.1-1.1-6.1-1.8-9.2
	c-0.9-5.9-2-12.3-5.3-17.5c-6.6-10.5-19.3-13.4-30.7-14.3c-3.7-0.2-7.5-0.4-11-0.7c-3.7-0.2-7.9-0.4-11.6-1.5
	c-0.7-0.2-1.5,0.4-1.3,1.1c3.7,24.1,19.5,46.7,43.6,52.6c2.8,0.7,5.9,1.1,8.8,1.3c3.3,0,6.6-0.4,9.9-0.9
	C1554,578.4,1553.8,577.1,1552.9,577.3z"/>
<path class="st10" d="M1561.9,581.7c-14.9-7.7-28.7-17.3-40.6-29.2c-3.3-3.3-6.4-7-9.4-10.5c-0.7-0.9-1.8,0.2-1.3,1.1
	c4.8,7,11,13.2,17.3,18.9c6.4,5.5,13.2,10.5,20.4,14.7c4.2,2.4,8.5,4.4,12.9,6.1C1561.9,583.2,1562.6,582.1,1561.9,581.7z"/>
<path class="st10" d="M1509.7,558.4c3.5,1.1,7,1.8,10.7,2.4c3.5,0.9,7.2,1.5,10.7,2.6c0.7,0.2,1.3-0.2,1.1-1.1
	c-2.6-7.9-5.3-15.8-7.9-23.7c-0.4-1.1-2-0.7-1.5,0.2c2.6,7.9,5.3,15.8,7.7,23.7c0.4-0.4,0.7-0.7,1.1-1.1c-3.5-1.1-7.2-2-10.7-2.9
	c-3.5-0.9-7.2-1.8-10.7-1.8C1509.3,557.3,1509.1,558.2,1509.7,558.4z"/>
<path class="st10" d="M1542.4,571.2c-0.7-7-2.4-13.8-3.9-20.8c-0.2-1.1-2-0.7-1.5,0.2c1.5,6.8,2.6,13.8,4.6,20.6
	C1541.7,572,1542.6,571.8,1542.4,571.2z"/>
<path class="st4" d="M1575.7,595.5c8.3,4.2,15.6,9.9,22.8,15.8c-11.4,5.3-18.4,17.8-30,23c-11.2,5.3-24.8,2.6-35.3-3.9
	c-10.5-6.6-18.2-16.7-25.2-26.8c6.8,0.4,13.6-2,19.7-5c6.1-3.1,12.3-6.4,19.1-7.9C1556.7,588.7,1567,591.1,1575.7,595.5z"/>
<path class="st10" d="M1515.7,608.5c5.5,3.3,11.4,5.7,17.8,7.2c6.1,1.3,12.5,1.5,18.9,0.9c12.5-1.1,24.8-4.8,37.3-4.4
	c3.3,0.2,6.6,0.4,9.9,1.3c3.3,0.9,5.9,2.2,9,3.5c1.1,0.7,2-1.3,0.9-2c-4.6-3.3-10.7-4.6-16.2-5c-5.7-0.7-11.6-0.2-17.3,0.7
	c-12.7,1.8-25.7,5.3-38.6,3.3c-7.2-1.1-14-3.9-20.6-6.6C1515.4,606.9,1515,608,1515.7,608.5z"/>
<path class="st10" d="M1557.8,631c4.8-3.7,9.9-7.7,14.9-11.2c5-3.5,10.5-6.4,16.4-8.1c1.1-0.2,1.1-1.5,0.2-2
	c-4.6-2.2-9.2-4.4-13.8-6.6c-4.6-2.2-9.2-4.6-14-6.6c-1.1-0.4-2.2,1.5-1.1,2c4.6,2.4,9.4,4.4,14,6.6c4.8,2.2,9.4,4.4,14.3,6.6
	c0-0.7,0-1.3,0.2-2c-6.1,2-11.6,4.8-16.9,8.6c-2.6,1.8-5,3.5-7.5,5.5c-2.6,2-5,4.4-7.5,6.6C1556.2,630.6,1557.1,631.5,1557.8,631z"
	/>
<path class="st10" d="M1535.4,627.3c3.9-1.5,7.5-3.9,11.2-5.9c3.7-2,7.7-3.7,11.4-5.5c0.9-0.4,0.7-1.8-0.2-2.2
	c-3.9-1.5-7.7-3.5-11.2-5.7c-1.8-1.1-3.5-2.2-5-3.5c-1.8-1.3-3.3-2.9-4.8-3.9c-1.1-0.9-2.4,0.9-1.5,1.8c1.3,1.5,3.3,2.9,4.8,4.2
	c1.8,1.3,3.5,2.6,5.5,3.7c3.7,2.2,7.7,4.2,11.6,5.7c0-0.7,0-1.3-0.2-2.2c-3.9,1.8-7.9,3.7-11.6,5.7s-7.7,3.9-10.5,7
	C1534.5,626.9,1534.9,627.5,1535.4,627.3z"/>
</svg>
