<?xml version="1.0" encoding="utf-8"?>
<!-- Generator: Adobe Illustrator 25.2.0, SVG Export Plug-In . SVG Version: 6.00 Build 0)  -->
<svg version="1.1" id="Layer_1" xmlns="http://www.w3.org/2000/svg" xmlns:xlink="http://www.w3.org/1999/xlink" x="0px" y="0px"
	 viewBox="0 0 790.4 252.1" style="enable-background:new 0 0 790.4 252.1;" xml:space="preserve">
<style type="text/css">
	.st0{fill:#B1C471;}
	.st1{fill:#312816;}
	.st2{fill:#CDD7B3;}
	.st3{fill:#EAE4D1;}
</style>
<g>
	<g>
		<path class="st0" d="M485.7,206.7c5.2,4.1,9.5,9.3,15.1,12.9c7.5,4.9,17.2,6.5,25.9,4.3l0-0.1c-8.7-4.5-14.3-13.8-23.4-17.5
			C497.7,204.1,491.2,204.2,485.7,206.7z"/>
		<path class="st0" d="M529,247.7c6,0.9,12.3-1.3,16.4-5.7c3.9-4.1,5.8-9.8,7.4-15.3C542.5,230.2,533.7,237.9,529,247.7z"/>
		<path class="st0" d="M535.6,225.8c-12.3-0.5-24.8,3.6-34.4,11.3c1.4,0.3,2.7,0.7,4.1,1c4.8,1.2,9.8,2.4,14.7,1.8
			c7.3-1,13.8-6.6,15.9-13.6l0.3-0.7c-0.2-0.1-0.5-0.3-0.7-0.4c0,0.2,0.1,0.3,0.1,0.4L535.6,225.8z"/>
		<path class="st0" d="M507.2,196.6c6.7,11.8,16.6,21.8,28.3,28.7c-1.9-7.3-4-14.9-9-20.5C521.7,199.4,514.4,196.3,507.2,196.6z"/>
		<path class="st0" d="M553.2,226.8c0.5-4.2-1.3-8.4-3.9-11.8c-2.6-3.3-6.1-5.8-9.7-8.1c-3.6-2.3-7.2-4.5-10.4-7.3
			c1,6.4,3.9,12.5,8.2,17.3C541.5,221.6,547.1,225.1,553.2,226.8L553.2,226.8z"/>
		<g>
			<path class="st1" d="M561.8,224.4c-4.2,0.1-8.4,0.8-12.6,0.9c-4.2,0.1-8.5-0.1-12.7-0.6c-8.4-0.9-16.6-3.1-24.4-6.2
				c-4.5-1.8-8.8-3.9-13-6.2c-0.5-0.3-0.9,0.5-0.5,0.8c7.1,4.9,15.3,8.3,23.6,10.6c8.2,2.3,16.8,3.4,25.4,3.3c2.4,0,4.9-0.1,7.3-0.4
				c2.4-0.3,4.8-0.5,7.1-1.3C562.4,225.2,562.3,224.4,561.8,224.4L561.8,224.4z"/>
		</g>
		<g>
			<path class="st1" d="M512.1,199.8c9.1,7.4,16.9,16.2,22.8,26.3c0.1-0.4,0.2-0.7,0.3-1.1c-6.7,4.7-13.8,9.5-22.1,11.1
				c-1,0.2-0.6,1.7,0.4,1.5c8.4-1.6,15.5-6.5,22.5-11.2c0.4-0.2,0.5-0.7,0.3-1.1c-2.9-5.2-6.4-10-10.4-14.5c-2-2.2-4.1-4.4-6.3-6.4
				c-2.2-2-4.5-3.7-7-5.4C512.3,198.8,511.8,199.5,512.1,199.8L512.1,199.8z"/>
		</g>
		<g>
			<path class="st1" d="M532.7,207.6c0.8,0.6,1.5,1.3,2.2,1.9c0.7,0.6,1.4,1.1,2.1,1.7c1.4,1.2,2.7,2.4,4.1,3.6
				c2.6,2.5,5.1,5.1,7.5,7.7c0.6,0.6,1.2,1.3,1.7,1.9c0.3,0.3,0.5,0.6,0.8,0.9c0.3,0.3,0.8,0.7,0.9,1.1c0.2,0.7-0.6,1.9-0.9,2.5
				c-0.4,0.7-0.8,1.4-1.2,2.1c-1.7,2.8-3.9,5.2-6.3,7.5c-2.7,2.6-5.8,4.8-8.6,7.3c-0.6,0.5,0.2,1.6,0.9,1.1c2.9-2,5.7-4.4,8.3-6.9
				c2.5-2.4,4.9-4.9,6.7-7.8c1-1.5,1.8-3,2.4-4.7c0.7-1.9-0.8-3-1.9-4.3c-2.6-2.8-5.2-5.7-8-8.3c-1.6-1.5-3.3-3-5-4.4
				c-0.8-0.7-1.7-1.3-2.6-1.9c-0.9-0.6-1.9-1.1-2.9-1.7C532.7,206.8,532.3,207.3,532.7,207.6L532.7,207.6z"/>
		</g>
	</g>
	<g>
		<path class="st0" d="M786.2,206.7c-5.2,4.1-9.5,9.3-15.1,12.9c-7.5,4.9-17.2,6.5-25.9,4.3l0-0.1c8.7-4.5,14.3-13.8,23.4-17.5
			C774.2,204.1,780.7,204.2,786.2,206.7z"/>
		<path class="st0" d="M742.9,247.7c-6,0.9-12.3-1.3-16.4-5.7c-3.9-4.1-5.8-9.8-7.4-15.3C729.4,230.2,738.2,237.9,742.9,247.7z"/>
		<path class="st0" d="M736.3,225.8c12.3-0.5,24.8,3.6,34.4,11.3c-1.4,0.3-2.7,0.7-4.1,1c-4.8,1.2-9.8,2.4-14.7,1.8
			c-7.3-1-13.8-6.6-15.9-13.6l-0.3-0.7c0.2-0.1,0.5-0.3,0.7-0.4c0,0.2-0.1,0.3-0.1,0.4L736.3,225.8z"/>
		<path class="st0" d="M764.7,196.6c-6.7,11.8-16.6,21.8-28.3,28.7c1.9-7.3,4-14.9,9-20.5C750.2,199.4,757.5,196.3,764.7,196.6z"/>
		<path class="st0" d="M718.8,226.8c-0.5-4.2,1.3-8.4,3.9-11.8c2.6-3.3,6.1-5.8,9.7-8.1c3.6-2.3,7.2-4.5,10.4-7.3
			c-1,6.4-3.9,12.5-8.2,17.3C730.4,221.6,724.8,225.1,718.8,226.8L718.8,226.8z"/>
		<g>
			<path class="st1" d="M710,225.3c4.1,1.3,8.5,1.5,12.8,1.6c4.3,0.1,8.7-0.1,13-0.6c8.5-1,16.8-3.1,24.7-6.4
				c4.5-1.9,8.9-4.1,12.9-6.9c0.5-0.3,0.1-1.1-0.5-0.8c-3.8,2-7.6,4-11.5,5.6c-3.9,1.6-7.9,3-12,4.1c-8.1,2.2-16.5,3.3-24.9,3.3
				c-2.3,0-4.7-0.1-7-0.3c-2.4-0.2-4.8-0.5-7.2-0.6C709.6,224.4,709.5,225.2,710,225.3L710,225.3z"/>
		</g>
		<g>
			<path class="st1" d="M759.3,199.1c-2.4,1.7-4.8,3.4-7,5.4c-2.2,2-4.3,4.1-6.3,6.4c-3.9,4.4-7.4,9.3-10.4,14.5
				c-0.2,0.4-0.1,0.8,0.3,1.1c6.9,4.7,14.1,9.6,22.5,11.2c1,0.2,1.4-1.3,0.4-1.5c-8.2-1.5-15.3-6.3-22.1-11.1
				c0.1,0.4,0.2,0.7,0.3,1.1c5.9-10.1,13.7-19,22.8-26.3C760.2,199.5,759.7,198.8,759.3,199.1L759.3,199.1z"/>
		</g>
		<g>
			<path class="st1" d="M738.9,207c-0.8,0.5-1.7,0.9-2.5,1.4c-0.8,0.6-1.6,1.1-2.4,1.7c-1.5,1.2-3,2.5-4.4,3.8
				c-2.8,2.6-5.5,5.4-8.1,8.3c-0.7,0.7-1.3,1.4-1.9,2.1c-0.5,0.6-1.1,1.2-1.2,2c-0.1,0.8,0.3,1.6,0.7,2.4c0.4,0.8,0.8,1.6,1.3,2.4
				c1.7,3,4,5.6,6.5,8c2.9,2.8,6,5.5,9.3,7.8c0.7,0.5,1.5-0.6,0.9-1.1c-2.5-2.2-5.2-4.2-7.7-6.4c-2.4-2.2-4.7-4.6-6.5-7.3
				c-0.9-1.3-1.7-2.7-2.4-4.1c-0.2-0.4-0.5-0.9-0.5-1.3c0-0.4,0.4-0.7,0.7-1.1c0.6-0.7,1.2-1.4,1.8-2c2.4-2.7,4.9-5.3,7.5-7.8
				c1.4-1.4,3-2.8,4.5-4.1c0.8-0.7,1.5-1.3,2.3-1.9c0.9-0.7,1.7-1.5,2.6-2.2C739.6,207.3,739.3,206.8,738.9,207L738.9,207z"/>
		</g>
	</g>
	<g>
		<path class="st2" d="M641.1,210.5c-22.9-7.7-46.6-16.3-71.1-12.3c-54.8,11.9-70.5-22.9-62.7-71.4c26-108.8,194.2-139.8,245.5-34.6
			C788.1,168,720.1,243.9,641.1,210.5z"/>
		<g>
			<path class="st3" d="M708.4,91.9c-5.2,36.8-36.7,64.1-73.6,64.3c-2.3,0-4.6-0.1-6.9-0.3c-41.2-3.5-71.7-39.8-68.2-81
				c2.1-24.5,15.8-45.3,35.2-57.3c0.2,1.3,0.7,2.5,0.8,3.8c0.3,2.7-1.2,5.6-3.5,6.9c-1.7,1-4.1,1.6-4.7,3.5
				c-0.3,1.1,0.2,2.2,0.5,3.2c1.1,3.3,1.6,6.8,1.2,10.3c-0.2,2.2-0.7,4.4-0.2,6.6c0.5,2.1,2.5,4.2,4.7,3.7c1.4-2,0.2-4.7-0.8-7
				c-0.9-2.3-1.1-5.6,1.1-6.6c1.4,4.9,2.8,9.7,4.2,14.6c0.4,1.5,0.9,3.1,2,4.2c1.5,1.7,4.1,2.4,6.3,3.3l6-1.3
				c-0.8-0.2-1.5-0.6-2-1.1c-1.6-1.6-2-4-2.2-6.2c-0.2-2.5-0.3-5.1,1-7.3c1.3-2.1,4.4-3.3,6.4-1.7c0.8,0.6,1.3,1.6,2,2.2
				c1.7,1.3,4.1,0.5,6.2,0c2.1-0.5,4.9-0.4,5.7,1.6c0.7,1.8-0.5,4.4,1.1,5.3c0.2,0.1,0.4,0.2,0.6,0.2c1.2,0.1,2.4-1.3,2.4-2.6
				c0-1.5-1-2.9-1.6-4.3c-0.6-1.4-0.8-3.3,0.4-4.3c0.7-0.6,1.7-0.6,2.6-1.1c1.6-0.9,2.3-3.1,4-3.7c1.5-0.5,3.1,0.4,4.3,1.4
				c1.2,1,2.5,2.1,4.1,2.1c1.6,0,3-2.1,1.9-3.2c-0.5-0.5-1.4-0.6-2.1-0.7c-2.1-0.5-3.7-2.4-3.8-4.5c0.5,1.8,3.3,0.8,4.3-0.8
				c1-1.6,2.2-3.7,4-3.2c1.6,0.4,2.2,2.8,3.9,2.7c1.2,0,1.9-1.4,1.7-2.6c-0.2-1.1-1.1-2.1-1.9-2.9c-1.4-1.5-2.9-3-4.3-4.6
				c0,0-0.1-0.1-0.1-0.1c-0.5-0.6-1.2-1.2-1.9-1.3c-2.4-0.3-3,4-5.4,4.2c-1.6,0.1-2.7-1.8-4.2-2.1c-1.8-0.3-3.8,1.6-5.5,0.7
				c-1.9-1-1-4.4-2.8-5.6c-1-0.6-2.5-0.2-3.5-1.1c-1.4-1.2,0.1-3.5,1.8-4.3c1.7-0.7,3.8-1,4.7-2.7c0.8-1.5,0-3.4-0.9-4.9
				c2.4,0,4.9,0.1,7.3,0.3c3.2,0.3,6.4,0.8,9.4,1.4c21,4.5,38.5,17.8,48.9,35.5l-0.3,0.2c-0.1,2.9-0.8,5.7-2.1,8.3
				c-1.2,2.4-2.9,4.7-2.8,7.3c0.3,4.8,6.5,7.3,7.5,12c0.6,2.9-1.1,5.9-0.9,8.9c0.3,3.5,3.2,6.2,5.7,8.7
				C706.9,89.9,707.7,90.9,708.4,91.9z"/>
			<path class="st0" d="M699,43.7c7.5,12.9,11.2,28.1,9.9,44c-0.1,1.4-0.3,2.8-0.5,4.1c-0.7-1-1.5-2-2.3-2.8
				c-2.5-2.5-5.3-5.2-5.7-8.7c-0.3-3,1.4-5.9,0.9-8.9c-0.9-4.7-7.2-7.2-7.5-12c-0.2-2.6,1.6-4.9,2.8-7.3c1.3-2.6,2-5.4,2.1-8.3
				L699,43.7z"/>
			<path class="st0" d="M658.5,17.1c0.9,0.3,1.3,1.4,1.1,2.3c-0.2,0.9-1,1.6-1.9,1.9c-0.9,0.3-1.8,0.4-2.8,0.5
				c-0.6,0-1.2,0.1-1.8-0.1c-0.5-0.1-0.9-0.3-1.2-0.6c-0.5-0.5-0.7-1.4-0.9-2.1c-0.6-1.7-2.1-3.1-3.8-3.6c-0.6-0.2-1.4-0.3-1.6-0.9
				c-0.3-0.7,0.3-1.4,0-2.1c1.1-0.5,2.3-0.9,3.4-1.4c0.7-0.1,1.4,0,2.1,0.1c1.1,0.2,2.2,0.4,3.1,0.9c0.9,0.6,1.6,1.6,1.5,2.7
				c-0.1,0.5-0.4,1.1-0.2,1.6c0.2,0.5,0.8,0.7,1.4,0.6C657.4,17.1,657.9,17,658.5,17.1z"/>
			<path class="st0" d="M647.5,65.2c-0.5,0.4-0.8,0.8-1.4,1.1c-0.5,0.3-1.3,0.3-1.6-0.2c-0.2-0.3-0.1-0.8-0.1-1.2
				c0.1-0.2,0.1-0.5,0.1-0.7c1.4-0.9,0.5-3.7,2.1-4.5c0.7-0.4,1.6,0,2.3,0.4c1,0.6,1.9,1.8,1.5,2.9C650,64.3,648.5,64.5,647.5,65.2z
				"/>
			<path class="st0" d="M642,17c0.2,0.6,0.4,1.3,0.3,2c-0.2,0.7-0.8,1.3-1.5,1.2c-1.1-0.2-1.4-1.7-2.4-2c-0.8-0.2-1.7,0.5-2.4,0
				c-0.4-0.3-0.4-0.8-0.3-1.3c0.1-0.5,0.3-0.9,0.6-1.2c0.6-0.4,1.4-0.7,2.2-0.7c1-0.1,2.2,0.1,2.9,0.8C641.6,16.2,641.8,16.6,642,17
				z"/>
			<path class="st0" d="M635.5,68.9c0.8-0.4,2.1-0.1,2.4,0.8c0.2,0.6-0.1,1.3-0.5,1.7c-0.7,0.7-1.8,0.7-2.7,0.3c0,0,0,0,0,0
				c-0.2-0.2-0.4-0.3-0.6-0.4C634.2,70.3,634.7,69.3,635.5,68.9z"/>
			<path class="st0" d="M641.4,9.5c0.7,0.3,1,1.1,0.7,1.8c-0.2,0.7-0.9,1.2-1.6,1.1c-0.7,0-1.4-0.5-1.6-1.2c0.3-0.4,0.7-0.9,1-1.3
				l0,0C640.3,9.5,640.9,9.3,641.4,9.5z"/>
			<path class="st0" d="M594,42.2c-2.3,1-2.1,4.3-1.1,6.6c0.9,2.3,2.2,5,0.8,7c-2.2,0.4-4.2-1.6-4.7-3.7c-0.5-2.1,0-4.4,0.2-6.6
				c0.3-3.5-0.1-7-1.2-10.3c-0.4-1-0.8-2.2-0.5-3.2c0.5-1.9,2.9-2.5,4.7-3.5c2.4-1.4,3.8-4.2,3.5-6.9c-0.1-1.3-0.6-2.5-0.8-3.8
				c11.3-7,24.4-11,38.4-11.2c0.9,1.5,1.7,3.4,0.9,4.9c-0.9,1.6-3,1.9-4.7,2.7c-1.7,0.7-3.2,3-1.8,4.3c0.9,0.8,2.4,0.4,3.5,1.1
				c1.8,1.2,0.9,4.6,2.8,5.6c1.7,0.9,3.6-1.1,5.5-0.7c1.6,0.3,2.6,2.2,4.2,2.1c2.4-0.1,3-4.4,5.4-4.2c0.8,0.1,1.4,0.7,1.9,1.3
				c0,0,0.1,0.1,0.1,0.1c1.4,1.5,2.9,3,4.3,4.6c0.8,0.8,1.7,1.8,1.9,2.9c0.2,1.1-0.5,2.6-1.7,2.6c-1.6,0-2.3-2.3-3.9-2.7
				c-1.8-0.5-3,1.7-4,3.2c-1,1.6-3.8,2.6-4.3,0.8c0.2,2.1,1.8,4,3.8,4.5c0.7,0.2,1.6,0.2,2.1,0.7c1.1,1.1-0.3,3.1-1.9,3.2
				c-1.6,0-2.9-1.1-4.1-2.1c-1.2-1-2.8-1.9-4.3-1.4c-1.7,0.6-2.4,2.8-4,3.7c-0.8,0.4-1.8,0.5-2.6,1.1c-1.2,1-1,2.9-0.4,4.3
				c0.6,1.4,1.6,2.8,1.6,4.3c0,1.3-1.2,2.7-2.4,2.6c-0.2,0-0.4-0.1-0.6-0.2c-1.6-1-0.4-3.6-1.1-5.3c-0.8-2-3.6-2.1-5.7-1.6
				c-2.1,0.5-4.5,1.3-6.2,0c-0.8-0.6-1.3-1.5-2-2.2c-1.9-1.6-5.1-0.4-6.4,1.7c-1.3,2.1-1.3,4.8-1,7.3c0.2,2.2,0.6,4.6,2.2,6.2
				c1.6,1.6,4.6,1.9,5.8,0c0.6-1,0.6-2.2,1.1-3.2c0.5-1,2.1-1.6,2.7-0.7c0.6,0.9,0.4,3,1.4,2.5c0.1-1.3,2.2-1.6,3.1-0.7
				c0.2,0.2,0.4,0.5,0.6,0.8c0.5,0.8,0.6,1.9,0.7,2.9c0.2,1.3,0.5,2.8,1.6,3.5c0.9,0.6,2.2,0.6,2.6,1.6c0.7,1.6-1.9,2.5-2.9,3.9
				c-1,1.3-0.5,3.4,0.7,4.6c1.2,1.2,2.9,1.7,4.5,2.2c2.2,0.7,5,1.2,6.5-0.6c1.3-1.6,1.2-4.5,3.2-4.7c2.9-0.3,2.4,5.8,5.3,6.1
				c0.7,0.1,1.4-0.3,2.1-0.6c3.1-1.3,7.1-0.3,9.1,2.4c0.6,0.8,1,1.6,1.7,2.2c3.2,2.7,7.7-1.3,11.9-1.2c0.7,0,1.5,0.2,1.9,0.8
				c0.3,0.5,0.3,1.2,0.2,1.9c-0.4,6.7,4.1,13.3,10.4,15.4c1.4,0.4,2.8,0.7,4,1.6c1.2,0.8,2,2.5,1.2,3.7c-0.3,0.6-0.9,1-1.4,1.4
				c-8.4,6.2-13,16.1-19.7,24.1c-3.8,4.6-9.9,8.9-15.3,6.4c0.5,1.7,1,3.3,1.5,5c-1.3,1.6-3.7,0.1-5.7-0.2c-2.4-0.4-4.7,1.3-6.3,3.1
				c-1.6,1.8-2.8,4-4.8,5.5c-2,1.4-5,1.8-6.6,0c-1.9-2.1-0.6-5.4,0.6-7.9c3.1-6.4,5.7-13,7.5-19.9c0.3-1,0.5-2.1-0.1-2.8
				c-0.7-0.8-1.9-0.8-3-1c-1.7-0.3-3.2-1.7-3.7-3.3c-0.4-1.2-0.3-2.5-0.6-3.7c-0.8-3.2-3.9-5.1-6.2-7.3c-2.3-2.3-3.8-6.5-1.3-8.5
				c1-0.8,2.3-1,3.5-1.5c2.7-0.9,5.2-3,5.8-5.8c0.6-2.8-1.2-6.1-4-6.5c-2-0.3-4,0.7-5.9,0c-4.6-1.7-2.4-10.8-7.2-11.8
				c-2.2-0.4-5.1,1.2-6.3-0.7c-0.4-0.7-0.3-1.7-0.5-2.5c-0.8-4.2-7.4-3.8-10.2-7c-1.1-1.2-1.5-2.7-2-4.2
				C596.8,51.9,595.4,47,594,42.2z"/>
			<path class="st0" d="M630.9,58.8c1.1,0.1,2.2,0.3,3.2,0.3l0,0.1c1.1-0.1,2.2-0.1,3.3,0.1c1,0.2,2.1,0.5,2.9,1.2
				c0.8,0.7,1.3,1.8,1.3,2.9c0,0.8-0.4,1.6-1,2c-0.4,0.2-0.9,0.3-1.4,0.2c-2.8-0.4-4.1-4.3-6.9-4.7c-1.5-0.2-3.2,0.6-4.4-0.3
				c-0.1-0.1-0.1-0.1-0.2-0.2c-0.2-0.2-0.3-0.4-0.3-0.7c0.1-0.7,0.9-0.9,1.6-1C629.6,58.7,630.2,58.7,630.9,58.8z"/>
			<g>
				<path class="st1" d="M634.1,156.9c-2,0-4.1-0.1-6.3-0.3c-20.1-1.7-38.3-11.2-51.3-26.6c-13-15.4-19.2-35-17.5-55.1
					c2-23.7,15.3-45.3,35.5-57.8c11.7-7.2,25-11.1,38.7-11.3c2.5,0,5,0.1,7.4,0.3c3.2,0.3,6.4,0.8,9.5,1.4c1.1,0.2,2,0.5,2.8,0.7
					c19.4,5,36.3,17.8,46.4,35.2c7.9,13.5,11.3,28.8,10,44.4l0,0c-0.1,1.3-0.3,2.7-0.5,4.2c-2.5,17.9-11.5,34.4-25.1,46.3
					c-13.6,11.9-31.1,18.5-49.1,18.6C634.5,156.9,634.3,156.9,634.1,156.9z M634,7.2c-0.2,0-0.5,0-0.7,0c-13.5,0.2-26.6,4-38.1,11.1
					c-19.9,12.3-32.9,33.5-34.9,56.8c-1.7,19.7,4.4,39,17.2,54.1c12.8,15.2,30.7,24.4,50.4,26.1c2.3,0.2,4.6,0.3,6.8,0.3
					c36.5-0.2,67.9-27.6,73-63.8c0.2-1.4,0.4-2.8,0.5-4.1l0,0c1.3-15.3-2.1-30.4-9.8-43.7c-10-17.1-26.6-29.7-45.6-34.6
					c-0.8-0.2-1.7-0.4-2.8-0.7c-3.1-0.7-6.2-1.1-9.4-1.4C638.5,7.3,636.3,7.2,634,7.2z"/>
			</g>
			<g>
				<path class="st1" d="M567,101.9c-1-3.2-1.6-6.5-2.2-9.8c-0.6-3.3-0.9-6.6-1-9.9c-0.2-6.7,0.6-13.4,2.4-19.8
					c1-3.6,2.4-7.1,3.8-10.5c0.3-0.8-1-1.4-1.5-0.6c-1.6,3-2.7,6.3-3.7,9.6c-1,3.3-1.7,6.6-2.1,10c-0.9,6.7-0.9,13.6,0.3,20.3
					c0.3,1.8,0.7,3.7,1.2,5.5c0.5,1.9,1.3,3.7,2,5.6C566.4,102.6,567.1,102.4,567,101.9L567,101.9z"/>
			</g>
			<g>
				<path class="st1" d="M566.4,79.9c-0.4-2.5,0.4-5.3,0.9-7.8c0.3-1.2,0.5-2.5,0.8-3.7c0.3-1.2,0.8-2.4,0.8-3.6c0-0.7-1-1-1.3-0.3
					c-0.6,1.2-0.7,2.6-1,3.9c-0.3,1.3-0.6,2.7-0.8,4c-0.5,2.6-0.9,5.2-0.2,7.8C565.7,80.7,566.5,80.5,566.4,79.9L566.4,79.9z"/>
			</g>
			<g>
				<path class="st1" d="M681.4,28.4c2.1,2.4,4.4,4.6,6.5,7c1,1.2,2,2.4,3,3.6c0.5,0.6,0.9,1.2,1.3,1.8c0.4,0.7,0.6,1.4,0.9,2.2
					c0.3,0.7,1.2,0.6,1.3-0.2c0.1-1.5-1.1-3-1.9-4c-1.1-1.4-2.1-2.7-3.3-4c-2.2-2.6-4.6-5-7.3-7.1C681.5,27.4,681.1,28.1,681.4,28.4
					L681.4,28.4z"/>
			</g>
			<g>
				<path class="st1" d="M688.2,39.7c0.3,1,0.7,1.9,1,2.9c0.2,0.5,0.4,1,0.6,1.5c0.2,0.5,0.4,1,0.6,1.4c0.2,0.3,0.6,0.5,0.9,0.3
					c0.3-0.1,0.5-0.5,0.4-0.9c-0.1-0.5-0.4-1-0.6-1.5c-0.2-0.5-0.4-0.9-0.7-1.4c-0.5-0.9-1-1.8-1.5-2.7
					C688.7,38.9,688,39.2,688.2,39.7L688.2,39.7z"/>
			</g>
			<g>
				<path class="st1" d="M670.6,125.9c0.9-1.1,1.9-2,2.8-3.1c0.9-1.1,1.7-2.2,2.6-3.4c1.7-2.2,3.5-4.5,4.9-6.9
					c0.5-0.8-0.7-1.4-1.2-0.7c-1.7,2.2-3.3,4.6-4.9,6.8c-0.8,1.1-1.6,2.3-2.5,3.4c-0.8,1.1-1.5,2.4-2.3,3.5
					C669.9,125.8,670.4,126.2,670.6,125.9L670.6,125.9z"/>
			</g>
			<g>
				<path class="st1" d="M671.6,120.2c0.8-1.2,1.6-2.3,2.4-3.4c0.4-0.6,0.8-1.2,1.2-1.7c0.4-0.6,0.8-1.1,1.1-1.8
					c0.2-0.3,0.1-0.7-0.2-0.9c-0.3-0.2-0.7-0.2-0.9,0.1c-0.9,1.1-1.6,2.4-2.3,3.6c-0.7,1.2-1.4,2.5-2.2,3.7
					C670.5,120.2,671.3,120.7,671.6,120.2L671.6,120.2z"/>
			</g>
			<g>
				<path class="st1" d="M599.2,20.3c1.9-1.3,4-2.5,6.1-3.5c1-0.5,2.1-1,3.2-1.4c1.1-0.4,2.3-0.7,3.3-1.2c0.6-0.3,0.4-1.5-0.4-1.4
					c-1.2,0.1-2.4,0.7-3.5,1.1c-1.1,0.5-2.2,1-3.3,1.5c-2.2,1.1-4.1,2.5-6,4.1C598.4,19.9,598.8,20.5,599.2,20.3L599.2,20.3z"/>
			</g>
			<g>
				<path class="st1" d="M602.9,20.9c1.1-0.7,2.3-1.3,3.5-1.8c0.6-0.2,1.2-0.5,1.8-0.7c0.6-0.2,1.3-0.4,1.9-0.7
					c0.6-0.3,0.3-1.3-0.3-1.3c-0.7,0.1-1.3,0.3-2,0.6c-0.6,0.3-1.3,0.6-1.9,0.9c-1.2,0.6-2.3,1.4-3.4,2.2
					C602,20.4,602.4,21.2,602.9,20.9L602.9,20.9z"/>
			</g>
			<g>
				<path class="st1" d="M700.2,52.9c0.4,1.9,1.1,3.7,1.6,5.5c0.3,0.9,0.5,1.8,0.7,2.8c0.2,0.9,0.4,1.9,0.7,2.7
					c0.3,0.7,1.3,0.3,1.3-0.4c0-0.9-0.3-1.9-0.6-2.8c-0.2-1-0.5-1.9-0.8-2.8c-0.6-1.8-1.1-3.7-2.1-5.4
					C700.7,52.1,700.1,52.4,700.2,52.9L700.2,52.9z"/>
			</g>
			<g>
				<path class="st1" d="M699.9,59c0.1,0.5,0.1,0.9,0.2,1.4c0.1,0.5,0.2,0.9,0.2,1.4c0.2,0.9,0.3,1.9,0.6,2.8
					c0.1,0.4,0.5,0.6,0.9,0.5c0.4-0.1,0.6-0.5,0.5-0.9c-0.2-0.9-0.5-1.8-0.7-2.7c-0.1-0.5-0.2-0.9-0.4-1.4c-0.1-0.4-0.3-0.9-0.5-1.3
					C700.5,58.2,699.8,58.4,699.9,59L699.9,59z"/>
			</g>
			<g>
				<path class="st1" d="M600.2,36.7c0.7-0.7,1.3-1.4,2-2.2c0.6-0.7,1.1-1.4,1.7-2.2c0.6-0.8,1.2-1.5,1.8-2.3
					c0.3-0.4,0.6-0.8,0.9-1.2c0.1-0.1,0.2-0.3,0.4-0.4c-0.2,0.1,0,0.1,0.1,0.3c1,1.5,1.9,3,2.7,4.6c0.4,0.8,0.8,1.6,1.2,2.5
					c0.4,0.8,0.6,1.7,1.2,2.4c0.3,0.4,1.1,0.1,1-0.4c-0.1-1-0.7-2-1.1-2.9c-0.4-0.9-0.9-1.8-1.3-2.7c-0.5-0.9-1.1-1.9-1.6-2.8
					c-0.3-0.5-0.6-0.9-0.9-1.4c-0.2-0.3-0.4-0.6-0.7-0.8c-0.8-0.4-1.5,0.1-1.9,0.7c-0.7,0.9-1.3,1.8-2,2.6c-0.7,0.9-1.3,1.8-2,2.7
					c-0.7,0.9-1.2,1.9-1.8,2.9C599.5,36.6,600,37,600.2,36.7L600.2,36.7z"/>
			</g>
			<g>
				<path class="st1" d="M611.5,34.8c1.1-0.4,2.2-1.4,3.1-2.1c0.5-0.4,0.9-0.7,1.4-1.1c0.5-0.3,0.7-0.3,1,0.2
					c0.7,1.1,1.2,2.2,1.9,3.3c0.3,0.6,0.6,1.1,1,1.7c0.3,0.6,0.6,1.2,1,1.7c0.5,0.5,1.4,0,1.2-0.7c-0.2-0.7-0.7-1.3-1.1-2
					c-0.4-0.7-0.7-1.3-1.1-2c-0.4-0.7-0.7-1.3-1.1-2c-0.3-0.5-0.6-1.1-1.1-1.5c-1.2-1-2.5,0.2-3.4,0.9c-0.6,0.4-1.1,0.9-1.7,1.3
					c-0.6,0.5-1.2,0.9-1.6,1.6C610.7,34.4,611.1,34.9,611.5,34.8L611.5,34.8z"/>
			</g>
			<g>
				<path class="st1" d="M620,34.9c1.2-0.9,2.2-2,3.4-3c1.1-1,2.3-2,3.6-2.9c0.2-0.1,0.6-0.5,0.7-0.5c0.2,0.1,0.4,0.6,0.4,0.8
					c0.4,0.8,0.8,1.5,1.2,2.3c0.4,0.7,0.8,1.4,1.1,2.1c0.4,0.7,0.7,1.7,1.3,2.2c0.6,0.5,1.2,0,1.2-0.7c-0.1-0.5-0.3-0.9-0.6-1.3
					c-0.2-0.4-0.5-0.9-0.7-1.3c-0.5-0.9-0.9-1.7-1.4-2.6c-0.6-1.1-1.5-3.7-3.2-2.9c-0.7,0.3-1.4,1-2,1.5c-0.7,0.5-1.4,1.1-2,1.7
					c-1.3,1.2-2.7,2.4-3.5,4C619.3,34.7,619.7,35.1,620,34.9L620,34.9z"/>
			</g>
			<g>
				<path class="st1" d="M637.4,104.4c1.6-1,3-2.2,4.5-3.3c0.7-0.5,1.4-1.1,2.1-1.6c0.7-0.5,1.4-1.3,2.2-1.7c0.2-0.1,0-0.2,0.3,0
					c0.2,0.1,0.3,0.3,0.5,0.5c0.3,0.3,0.6,0.6,0.9,0.9c0.7,0.7,1.3,1.3,1.9,2c1.3,1.4,2.5,2.9,3.9,4.2c0.6,0.6,1.4-0.3,0.9-0.9
					c-1.3-1.6-2.8-3.1-4.2-4.6c-0.8-0.8-1.5-1.6-2.3-2.3c-0.5-0.5-1.1-1.3-1.8-1.3c-0.8,0-1.5,1-2.1,1.4c-0.8,0.7-1.6,1.3-2.4,2
					c-1.7,1.4-3.3,2.8-4.8,4.2C636.7,104.2,637.1,104.7,637.4,104.4L637.4,104.4z"/>
			</g>
			<g>
				<path class="st1" d="M650.6,101.3c1.1-0.8,2-1.8,3-2.7c0.5-0.5,1-0.9,1.5-1.3c0.5-0.4,1.1-1.1,1.7-1.3c0.3-0.1,0.4,0.1,0.6,0.3
					c0.3,0.3,0.6,0.5,0.8,0.8c0.5,0.5,1,1,1.6,1.5c0.5,0.5,1.1,1.1,1.7,1.6c0.5,0.5,1,1.2,1.7,1.4c0.6,0.3,1.2-0.3,0.9-0.9
					c-0.4-0.7-1.1-1.2-1.7-1.8c-0.7-0.6-1.3-1.2-2-1.8c-0.6-0.6-1.3-1.2-1.9-1.7c-0.5-0.5-1-1-1.7-0.9c-0.7,0.1-1.2,0.7-1.8,1.1
					c-0.6,0.5-1.2,1-1.8,1.5c-1.2,1.1-2.4,2.2-3.2,3.6C649.9,101.1,650.3,101.6,650.6,101.3L650.6,101.3z"/>
			</g>
			<g>
				<path class="st1" d="M648,92c1-0.7,1.8-1.4,2.6-2.3c0.4-0.4,0.8-0.9,1.1-1.3c0.2-0.2,0.3-0.4,0.5-0.7c0.1-0.2,0.3-0.5,0.5-0.6
					c-0.1,0-0.2,0.1-0.4,0.1c0.2,0,0.8,0.8,1,1c0.4,0.4,0.8,0.8,1.1,1.2c0.7,0.8,1.4,1.7,2.3,2.4c0.6,0.4,1.3-0.4,0.9-0.9
					c-0.4-0.6-0.9-1-1.3-1.5c-0.5-0.5-0.9-1-1.4-1.5c-0.5-0.5-0.9-1-1.4-1.5c-0.4-0.4-1-0.7-1.6-0.5c-0.5,0.2-0.8,0.8-1.1,1.3
					c-0.3,0.5-0.7,1-1.1,1.5c-0.8,1-1.6,1.9-2.3,2.8C647.3,91.7,647.6,92.3,648,92L648,92z"/>
			</g>
			<g>
				<path class="st1" d="M645.1,122.5c1-0.6,1.8-1.2,2.6-2.1c0.3-0.4,0.7-0.9,1-1.3c0.2-0.2,0.4-0.5,0.5-0.7
					c0.1-0.1,0.3-0.6,0.5-0.6c-0.1,0-0.3,0-0.4,0c-0.2-0.2-0.2-0.2-0.1-0.1c0,0,0.1,0.1,0.1,0.2c0.1,0.2,0.1,0.3,0.2,0.5
					c0.1,0.3,0.3,0.5,0.5,0.8c0.4,0.5,0.9,1,1.3,1.5c1.1,1.1,2.2,2.2,3.3,3.3c0.7,0.6,1.7-0.3,1.1-1.1c-1.1-1.2-2.3-2.3-3.4-3.4
					c-0.5-0.5-0.9-0.9-1.3-1.5c-0.3-0.5-0.5-1.3-1.1-1.5c-0.7-0.3-1.2,0.3-1.5,0.8c-0.4,0.5-0.8,1.1-1.1,1.6
					c-0.4,0.5-0.8,1.1-1.2,1.6c-0.4,0.5-0.8,1.1-1.3,1.5C644.3,122.1,644.6,122.8,645.1,122.5L645.1,122.5z"/>
			</g>
			<g>
				<path class="st1" d="M656.4,120.8c1.1-0.8,2.2-1.6,3.2-2.6c0.5-0.5,0.9-1,1.4-1.5c0.2-0.3,0.5-0.6,0.7-0.8
					c0.1-0.1,0.7-0.7,0.6-0.8c-0.1,0-0.3,0-0.4,0c0,0.1,0.1,0.1,0.1,0.2c0.1,0.1,0.3,0.3,0.4,0.4c0.2,0.3,0.5,0.6,0.7,0.8
					c0.5,0.5,1,1,1.5,1.5c1,1,2.1,2.2,3.3,2.9c0.7,0.5,1.5-0.6,0.9-1.2c-0.6-0.6-1.2-1.1-1.8-1.6c-0.6-0.5-1.1-1.1-1.7-1.6
					c-0.6-0.5-1.1-1.1-1.6-1.7c-0.4-0.5-0.9-1.3-1.7-1.2c-0.7,0-1.1,0.9-1.5,1.4c-0.5,0.6-1,1.2-1.5,1.8c-1,1.2-2.1,2.4-3.2,3.6
					C655.6,120.5,656,121,656.4,120.8L656.4,120.8z"/>
			</g>
			<g>
				<path class="st1" d="M628,97.9c-0.5,0.2-0.9,0.5-1.2,1c-0.3,0.4-0.5,0.9-0.6,1.4c-0.2,1-0.1,2.2,0.6,3c0.4,0.4,0.9-0.1,0.7-0.5
					c-0.2-0.4-0.4-0.7-0.4-1.1c-0.1-0.4-0.1-0.8,0-1.1c0.1-0.4,0.2-0.8,0.4-1.1c0.2-0.3,0.5-0.7,0.8-0.9
					C628.6,98.2,628.4,97.7,628,97.9L628,97.9z"/>
			</g>
			<g>
				<path class="st1" d="M628.6,100.6c-0.5,1.1-0.2,2.7,1,3.3c0.2,0.1,0.5,0.1,0.6-0.2c0.1-0.2,0-0.5-0.2-0.6c0.1,0.1,0,0,0,0
					c0,0,0,0-0.1-0.1c0,0-0.1-0.1-0.1-0.1c-0.1-0.1-0.2-0.2-0.3-0.3c0,0,0,0,0,0c0,0,0-0.1-0.1-0.1c0-0.1-0.1-0.1-0.1-0.2
					c0-0.1-0.1-0.1-0.1-0.2c0,0,0-0.1,0,0c0,0,0-0.1,0-0.1c0-0.1-0.1-0.2-0.1-0.3c0,0,0-0.1,0-0.1c0,0,0,0.1,0,0c0-0.1,0-0.1,0-0.2
					c0-0.1,0-0.1,0-0.2c0,0,0,0,0-0.1c0,0.1,0,0,0,0c0-0.1,0.1-0.2,0.1-0.4c0.1-0.2-0.1-0.4-0.2-0.4
					C628.9,100.4,628.7,100.4,628.6,100.6L628.6,100.6z"/>
			</g>
			<g>
				<path class="st1" d="M666.8,128.2c-0.5,1.7-1.7,3.1-3.2,4.2c-0.8,0.6-1.6,1.1-2.5,1.5c-0.9,0.5-1.9,0.8-2.8,1.4
					c-0.5,0.3-0.2,1.2,0.4,1c1-0.3,2-0.9,3-1.4c0.9-0.5,1.8-1.1,2.6-1.8c1.5-1.2,2.6-2.9,3.1-4.8C667.7,127.9,667,127.7,666.8,128.2
					L666.8,128.2z"/>
			</g>
			<g>
				<path class="st1" d="M591,32.7c-0.7,0.6-1.1,1.5-1.2,2.4c0,0.4,0,0.9,0.1,1.3c0.1,0.4,0.3,1,0.6,1.3c0.1,0.1,0.3,0.2,0.5,0.1
					c0.2-0.1,0.3-0.3,0.2-0.5c-0.1-0.4-0.3-0.7-0.5-1c-0.1-0.4-0.1-0.7-0.1-1.1c0-0.7,0.3-1.4,0.8-2C591.7,32.9,591.3,32.4,591,32.7
					L591,32.7z"/>
			</g>
			<g>
				<path class="st1" d="M593.7,32.8c-0.9,1.3-1.3,2.9-1.1,4.5c0,0.3,0.4,0.5,0.7,0.4c0.3-0.1,0.4-0.4,0.4-0.7
					c-0.3-1.3-0.1-2.7,0.7-3.9C594.6,32.7,594,32.4,593.7,32.8L593.7,32.8z"/>
			</g>
			<g>
				<path class="st1" d="M614.6,26.1c1-0.8,1.9-1.9,2.7-2.8c0.9-1,1.8-1.9,2.6-2.9c0.1-0.1,0.2-0.2,0.3-0.3c0-0.1,0.1-0.1,0.2-0.2
					c-0.1,0-0.2,0-0.3,0c0,0.1,0.3,0.6,0.4,0.7c0.3,0.6,0.6,1.2,0.9,1.8c0.6,1.2,1.2,2.4,1.9,3.6c0.4,0.7,1.4,0.1,1.1-0.6
					c-0.6-1.4-1.4-2.7-2.1-4c-0.3-0.6-0.6-1.3-1-1.9c-0.3-0.5-0.9-0.8-1.5-0.4c-0.3,0.2-0.5,0.5-0.7,0.7c-0.2,0.3-0.5,0.6-0.7,0.8
					c-0.5,0.6-1,1.1-1.5,1.7c-1,1.1-2.1,2.2-2.9,3.5C613.7,26,614.3,26.3,614.6,26.1L614.6,26.1z"/>
			</g>
			<g>
				<path class="st1" d="M582.8,95.3c0.9,1.8,3,2.7,5,2.5c2.2-0.2,4.1-1.6,5.5-3.3c-0.3,0-0.7-0.1-1-0.1c1,2,3.1,3.3,5.4,3.3
					c2.2,0,4.3-1.3,5.4-3.2c-0.4,0-0.8,0-1.1,0c1.4,1.9,3.7,3.1,6,2.9c2.4-0.2,4.5-1.7,5.5-3.8c0.4-0.8-0.8-1.4-1.1-0.7
					c-1.8,3.6-6.8,4.2-9.3,0.9c-0.3-0.4-0.9-0.5-1.1,0c-1.9,3.4-6.6,3.3-8.5,0c-0.2-0.3-0.8-0.5-1-0.1c-1.1,1.4-2.5,2.6-4.3,3
					c-1.7,0.4-3.6-0.3-4.5-1.7C583.3,94.3,582.5,94.8,582.8,95.3L582.8,95.3z"/>
			</g>
			<g>
				<path class="st1" d="M658.8,57.6c1,1.7,2.9,2.5,4.7,2.4c2.1-0.1,4-1.4,5.3-3.1c-0.4,0-0.7-0.1-1.1-0.1c1.2,1.8,3.4,2.9,5.7,2.6
					c2.2-0.3,3.9-1.8,4.7-3.7c0.4-0.8-1-1.2-1.4-0.4c-1.4,3.3-5.8,3.7-7.8,0.8c-0.2-0.3-0.8-0.5-1.1-0.1c-1,1.3-2.4,2.4-4.1,2.7
					c-1.6,0.3-3.2-0.4-4.3-1.6C659.1,56.7,658.5,57.2,658.8,57.6L658.8,57.6z"/>
			</g>
			<g>
				<path class="st1" d="M659.4,71.6c-0.1,2,1.6,3.4,3.4,3.7c2.2,0.3,4.2-0.9,5.6-2.4c-0.4,0-0.7-0.1-1.1-0.1c1.1,1.9,3.3,3,5.5,2.8
					c2.4-0.2,4.4-1.8,5.7-3.7c-0.4,0-0.8,0.1-1.1,0.1c2.7,3.1,7.7,3,10.3-0.2c0.6-0.7-0.4-1.8-1-1c-2.1,2.7-6,2.8-8.2,0.2
					c-0.3-0.4-0.9-0.2-1.1,0.1c-1.1,1.5-2.6,2.7-4.5,2.9c-1.7,0.2-3.4-0.6-4.3-2.1c-0.2-0.4-0.8-0.5-1.1-0.1c-1,1.1-2.4,2.2-4,2.2
					c-1.5,0-2.9-1.1-3.2-2.6C660.1,71,659.4,71.2,659.4,71.6L659.4,71.6z"/>
			</g>
			<g>
				<path class="st1" d="M591.9,82.5c1,1.7,2.9,2.5,4.7,2.4c2.1-0.1,4-1.4,5.3-3.1c-0.4,0-0.7-0.1-1.1-0.1c1.2,1.8,3.4,2.9,5.7,2.6
					c2.2-0.3,3.9-1.8,4.7-3.7c0.4-0.8-1-1.2-1.4-0.4c-1.4,3.3-5.8,3.7-7.8,0.8c-0.2-0.3-0.8-0.5-1.1-0.1c-1,1.3-2.4,2.4-4.1,2.7
					c-1.6,0.3-3.2-0.4-4.3-1.6C592.3,81.6,591.7,82.1,591.9,82.5L591.9,82.5z"/>
			</g>
			<g>
				<path class="st1" d="M572.2,108.9c-0.1,2,1.6,3.4,3.4,3.7c2.2,0.3,4.2-0.9,5.6-2.4c-0.4,0-0.7-0.1-1.1-0.1
					c1.1,1.9,3.3,3,5.5,2.8c2.4-0.2,4.4-1.8,5.7-3.7c-0.4,0-0.8,0.1-1.1,0.1c2.7,3.1,7.7,3,10.3-0.2c0.6-0.7-0.4-1.8-1-1
					c-2.1,2.7-6,2.8-8.2,0.2c-0.3-0.4-0.9-0.2-1.1,0.1c-1.1,1.5-2.6,2.7-4.5,2.9c-1.7,0.2-3.4-0.6-4.3-2.1c-0.2-0.4-0.8-0.5-1.1-0.1
					c-1,1.1-2.4,2.2-4,2.2c-1.5,0-2.9-1.1-3.2-2.6C572.9,108.4,572.2,108.5,572.2,108.9L572.2,108.9z"/>
			</g>
			<g>
				<path class="st1" d="M602,117.6c1,1.7,2.9,2.5,4.7,2.4c2.1-0.1,4-1.4,5.3-3.1c-0.4,0-0.7-0.1-1.1-0.1c1.2,1.8,3.4,2.9,5.7,2.6
					c2.2-0.3,3.9-1.8,4.7-3.7c0.4-0.8-1-1.2-1.4-0.4c-1.4,3.3-5.8,3.7-7.8,0.8c-0.2-0.3-0.8-0.5-1.1-0.1c-1,1.3-2.4,2.4-4.1,2.7
					c-1.6,0.3-3.2-0.4-4.3-1.6C602.4,116.7,601.8,117.1,602,117.6L602,117.6z"/>
			</g>
		</g>
		<g>
			<g>
				<path class="st3" d="M579.3,246c0,0,15.8-48.1,9.9-64.6c-5.9-16.5-18.4-19.7-26.3-26.4c-7.9-6.7-11.5-10-11.2-12.4
					c0,0-12.5-19.3-15.9-23.1c-3.4-3.7,2.9-6.1,5-4.1l-4-9.2c0,0,5.9-6.8,11.1,1.9c5.1,8.7,11.7,19.1,13.9,21.8
					c2.2,2.7,10.2,5.4,10.2,5.4s5.4-2.8,12.3,3.8c6.8,6.6,21.3,5.7,28.1,10.2c6.8,4.5,9.1,4.2,7,22.3c-2.1,18.1,2,74.3,2,74.3H579.3
					z"/>
				<path class="st0" d="M538.4,116.3c-0.1-0.2-0.3-0.3-0.4-0.4c-0.4-0.2-1-0.3-1.5,0c-0.4,0.3-0.7,0.6-0.9,1
					c-0.2,0.5-0.3,1-0.2,1.6c0.1,0.5,0.4,1,0.8,1.3c0.5,1.3,1.5,2.4,2.7,3c0.5,0.2,1,0.3,1.5,0c0.4-0.3,0.7-0.7,0.7-1.2
					C541.1,119.5,540.1,117.5,538.4,116.3z"/>
				<path class="st0" d="M542.2,106.7c-0.8-1.1-2.2-2.5-3.7-1.7c-1.5,0.8-0.9,2.9-0.4,4.1c0.5,1.4,1.2,2.7,2.2,3.8c0,0,0,0,0,0
					c0.1,0.5,0.5,1,1,1.1c0.8,0.2,1.5-0.2,1.8-1C543.9,110.9,543.5,108.4,542.2,106.7z"/>
				<path class="st0" d="M578.3,143.8c0-0.1,0-0.1,0.1-0.2c0-0.1,0-0.1,0-0.2c0.5-2-0.5-4.2-2.1-5.5c-0.9-0.8-2-1.5-3.2-1.8
					c-1.4-0.4-3,0-3.8,1.3c-0.8,1.3-0.3,2.8,0.5,3.9c0.7,1,1.6,1.8,2.6,2.5c0.9,0.6,1.9,1.1,3,1.4c0.2,0.1,0.5,0.1,0.8,0.1
					c0.6,0.2,1.3,0,1.7-0.6c0.1-0.1,0.1-0.2,0.2-0.4C578.1,144,578.2,143.9,578.3,143.8z"/>
				<g>
					<path class="st1" d="M594.8,161.4c-1.4-2.9-3.9-5.4-6.3-7.6c-2.4-2.2-5.1-4.2-7.7-6.1c-2.7-1.9-5.6-3.7-8.3-5.6
						c-1.4-0.9-3.3-2.3-3.1-4.2c0.2-1.8,2.1-2.6,3.7-2.7c3.8-0.3,7.1,1.3,10.1,3.5c3,2.1,6,4,9.5,5.2c3.4,1.2,7,1.8,10.5,2.6
						c3.6,0.9,7,2.1,10.1,4.3c1.7,1.2,3.3,2.6,4.4,4.3c1,1.7,1.3,3.8,1.3,5.7c0.1,4.4-0.2,8.7-0.3,13.1c0,0.7,1.1,0.7,1.1,0
						c0.2-4.3,0.5-8.6,0.4-12.8c0-1.8-0.2-3.6-0.7-5.3c-0.6-1.7-1.7-3.1-3.1-4.4c-2.8-2.5-6.1-4.4-9.7-5.5
						c-3.8-1.2-7.8-1.7-11.6-2.8c-3.8-1.1-7.2-2.9-10.5-5.2c-3.2-2.3-6.5-4.2-10.5-4.2c-1.6,0-3.4,0.3-4.6,1.4
						c-1.2,1-1.8,2.6-1.4,4.1c0.4,1.7,1.8,2.9,3.2,3.9c1.5,1,3.1,2,4.6,3c3.4,2.2,6.8,4.5,9.9,7.1c1.5,1.3,3,2.6,4.4,4.1
						c1.4,1.5,2.6,3.1,4,4.6C594.5,162.3,595,161.8,594.8,161.4L594.8,161.4z"/>
				</g>
				<g>
					<path class="st1" d="M589.6,181.3c-0.7-2.7-2.2-5.2-3.7-7.5c-1.6-2.3-3.4-4.5-5.4-6.5c-4-4.1-8.7-7.5-13.5-10.6
						c-4.8-3.1-10.4-5.9-13.4-10.9c-0.8-1.4-1.4-2.9-2.1-4.4c-0.7-1.4-1.4-2.8-2.2-4.1c-1.6-2.6-3.4-5.1-5.3-7.6
						c-2.2-2.8-4.5-5.6-6.6-8.4c-0.9-1.2-2.6-2.8-1.9-4.4c0.8-1.9,3.1-1.9,4.8-1.5c0.8,0.2,1.1-1,0.3-1.2c-2.5-0.7-6.2-0.1-6.6,3.1
						c-0.2,1.5,0.8,2.6,1.6,3.8c0.9,1.3,1.9,2.5,2.9,3.7c4.1,5.1,8.4,10.2,11.4,16.1c0.8,1.6,1.4,3.2,2.2,4.8
						c0.7,1.3,1.6,2.5,2.6,3.6c2,2.2,4.5,3.9,7,5.5c5.2,3.3,10.3,6.5,15,10.6c2.6,2.2,5,4.7,7,7.4c2.1,2.7,3.5,5.7,5.1,8.7
						C589.1,182,589.8,181.7,589.6,181.3L589.6,181.3z"/>
				</g>
				<g>
					<path class="st1" d="M573.4,155.1c-1.8-2.8-4.5-4.9-7.2-6.7c-2.8-1.9-5.7-3.5-8.5-5.3c-1.5-1-3.1-2-4.4-3.2
						c-1.4-1.3-2.3-2.9-3.1-4.5c-1.7-3.6-3.4-7.3-5-11c-1.6-3.8-3.2-7.5-4.7-11.3c-0.7-1.9-1.4-3.7-2.1-5.6
						c-0.1-0.3-0.6-1.3-0.5-1.6c0.1-0.2,0.9-0.3,1.1-0.4c0.9-0.3,1.8-0.4,2.8-0.5c3.6-0.1,5.9,2.2,7.4,5.2c0.7,1.3,1.3,2.8,1.9,4.1
						c0.8,1.8,1.7,3.5,2.7,5.2c1.1,1.9,2.3,3.7,3.5,5.5c1.1,1.7,2.1,3.4,3.4,4.9c2.6,3,6.3,4.3,9.9,5.6c0.7,0.3,1.1-0.9,0.3-1.2
						c-3.5-1.2-7-2.5-9.5-5.5c-1.3-1.5-2.3-3.3-3.4-4.9c-1.1-1.7-2.2-3.4-3.2-5.1c-1-1.7-2-3.5-2.8-5.3c-0.7-1.4-1.3-2.9-2-4.3
						c-1.5-2.8-3.8-5-7.1-5.3c-1.8-0.2-3.7,0.2-5.3,0.8c-1.9,0.8-0.6,2.8-0.1,4.1c1.5,3.9,3,7.9,4.6,11.7c1.6,3.9,3.3,7.7,5.1,11.6
						c1.6,3.5,3,7.2,6.2,9.7c3.1,2.5,6.6,4.3,10,6.4c3.5,2.2,6.6,4.7,9.6,7.4C573.1,155.7,573.6,155.4,573.4,155.1L573.4,155.1z"/>
				</g>
				<g>
					<path class="st1" d="M618.2,176c-0.1,1.1-0.3,2.3-0.4,3.4c-0.1,1.1-0.1,2.3-0.1,3.4c-0.1,2.3,0,4.6,0,6.8
						c0.1,4.6,0.3,9.1,0.5,13.7c0.5,8.9,1.1,17.8,1.8,26.8c0.2,2.5,0.4,5,0.6,7.5c0.2,2.5,0.3,5.1,0.7,7.6c0.1,0.6,1,0.4,1-0.1
						c0-2.3-0.3-4.6-0.5-6.8c-0.1-2.3-0.3-4.6-0.5-6.8c-0.3-4.4-0.6-8.7-0.9-13.1c-0.6-9-1.2-18-1.4-27c-0.1-2.5-0.1-5-0.1-7.5
						c0-1.3,0-2.6,0-3.9c0-1.3-0.1-2.6-0.1-3.9C618.9,175.6,618.3,175.6,618.2,176L618.2,176z"/>
				</g>
				<g>
					<path class="st1" d="M589.8,183.3c0.9,8.4-0.1,16.9-1.4,25.2c-1.3,8.2-3.2,16.4-5.8,24.3c-0.7,2.2-1.5,4.3-2.2,6.5
						c-0.7,2.2-1.5,4.4-1.6,6.7c0,0.6,0.8,0.7,1,0.1c0.5-2,1-4.1,1.6-6.1c0.6-2,1.4-4,2-6c1.3-3.9,2.4-7.9,3.4-12
						c2-8.1,3.3-16.4,4-24.7c0.4-4.6,1.1-9.7-0.4-14.2C590.4,182.8,589.8,182.9,589.8,183.3L589.8,183.3z"/>
				</g>
				<g>
					<path class="st1" d="M616.7,173.7c-0.9,0.2-1.8,0.3-2.7,0.5c-0.9,0.2-1.8,0.4-2.7,0.5c-1.8,0.3-3.6,0.6-5.5,0.8
						c-0.7,0.1-0.7,1.2,0,1.1c1.9-0.2,3.7-0.4,5.6-0.8c0.9-0.2,1.8-0.3,2.7-0.5c1-0.2,1.9-0.6,2.8-0.8
						C617.4,174.3,617.2,173.6,616.7,173.7L616.7,173.7z"/>
				</g>
			</g>
			<g>
				<path class="st3" d="M688.4,246c0,0-15.8-48.1-9.9-64.6c5.9-16.5,18.4-19.7,26.3-26.4c7.9-6.7,11.5-10,11.2-12.4
					c0,0,12.5-19.3,15.9-23.1c3.4-3.7-2.9-6.1-5-4.1l4-9.2c0,0-5.9-6.8-11.1,1.9c-5.1,8.7-11.7,19.1-13.9,21.8s-10.2,5.4-10.2,5.4
					s-5.4-2.8-12.3,3.8c-6.8,6.6-21.3,5.7-28.1,10.2c-6.8,4.5-9.1,4.2-7,22.3s-2,74.3-2,74.3H688.4z"/>
				<path class="st0" d="M729.3,116.3c0.1-0.2,0.3-0.3,0.4-0.4c0.4-0.2,1-0.3,1.5,0c0.4,0.3,0.7,0.6,0.9,1c0.2,0.5,0.3,1,0.2,1.6
					c-0.1,0.5-0.4,1-0.8,1.3c-0.5,1.3-1.5,2.4-2.7,3c-0.5,0.2-1,0.3-1.5,0c-0.4-0.3-0.7-0.7-0.7-1.2
					C726.6,119.5,727.6,117.5,729.3,116.3z"/>
				<path class="st0" d="M725.5,106.7c0.8-1.1,2.2-2.5,3.7-1.7c1.5,0.8,0.9,2.9,0.4,4.1c-0.5,1.4-1.2,2.7-2.2,3.8c0,0,0,0,0,0
					c-0.1,0.5-0.5,1-1,1.1c-0.8,0.2-1.5-0.2-1.8-1C723.8,110.9,724.2,108.4,725.5,106.7z"/>
				<path class="st0" d="M689.5,143.8c0-0.1,0-0.1-0.1-0.2c0-0.1,0-0.1,0-0.2c-0.5-2,0.5-4.2,2.1-5.5c0.9-0.8,2-1.5,3.2-1.8
					c1.4-0.4,3,0,3.8,1.3c0.8,1.3,0.3,2.8-0.5,3.9c-0.7,1-1.6,1.8-2.6,2.5c-0.9,0.6-1.9,1.1-3,1.4c-0.2,0.1-0.5,0.1-0.8,0.1
					c-0.6,0.2-1.3,0-1.7-0.6c-0.1-0.1-0.1-0.2-0.2-0.4C689.6,144,689.5,143.9,689.5,143.8z"/>
				<g>
					<path class="st1" d="M673.6,161.9c1.2-1.3,2.3-2.8,3.5-4.1c1.2-1.3,2.5-2.6,3.9-3.8c2.7-2.3,5.6-4.5,8.6-6.5c1.5-1,3-2,4.5-3
						c1.5-1,3.2-1.9,4.3-3.2c1.1-1.3,1.7-3,1.1-4.7c-0.6-1.4-1.9-2.4-3.4-2.8c-3.6-0.9-7.5,0.3-10.6,2.3c-1.6,1-3.1,2.3-4.8,3.3
						c-1.7,1.1-3.6,2-5.5,2.7c-3.7,1.4-7.6,1.9-11.4,2.9c-3.8,0.9-7.3,2.3-10.5,4.6c-1.6,1.2-3.3,2.6-4.4,4.3
						c-1,1.7-1.4,3.7-1.5,5.7c-0.1,2.2,0,4.5,0.1,6.7c0.1,2.5,0.2,5,0.3,7.4c0,0.7,1.1,0.7,1.1,0c0-4-0.2-8-0.3-11.9
						c0-1.7,0-3.5,0.6-5.1c0.6-1.8,1.7-3.2,3.1-4.5c2.7-2.4,5.9-4.1,9.4-5.2c3.5-1.1,7.2-1.6,10.7-2.5c3.5-0.9,6.8-2.4,9.8-4.4
						c3.1-2.1,5.9-4.5,9.7-5c1.6-0.2,3.6-0.2,5,0.8c1.6,1.2,1.4,3.1,0.2,4.5c-1.1,1.3-2.8,2.1-4.2,3.1c-1.4,0.9-2.8,1.9-4.2,2.8
						c-3.1,2.1-6.1,4.2-8.9,6.7c-2.7,2.4-5.5,5.1-7.1,8.3C672.7,161.8,673.2,162.3,673.6,161.9L673.6,161.9z"/>
				</g>
				<g>
					<path class="st1" d="M678.8,181.6c1.4-2.7,2.7-5.4,4.5-7.9c1.7-2.4,3.8-4.6,5.9-6.7c4.5-4.2,9.5-7.6,14.7-10.9
						c2.6-1.6,5.2-3.2,7.4-5.3c2.4-2.1,4-4.6,5.3-7.6c2.7-6.1,6.8-11.3,10.9-16.5c1.1-1.4,2.2-2.8,3.3-4.2c1-1.3,2.5-2.8,2.8-4.4
						c0.2-1.4-0.6-2.8-1.7-3.5c-1.4-0.9-3.3-0.8-4.8-0.4c-0.8,0.2-0.4,1.4,0.3,1.2c1.5-0.4,3.4-0.5,4.5,0.9c1.2,1.5,0.1,2.8-0.8,4
						c-1.9,2.6-3.9,5-5.9,7.5c-1.9,2.4-3.8,4.9-5.5,7.4c-1.7,2.6-3.1,5.4-4.4,8.2c-1.3,2.8-3.1,5.1-5.4,7c-2.2,1.9-4.8,3.4-7.3,4.9
						c-4.9,3-9.6,6.3-13.8,10.2c-2.3,2.2-4.5,4.5-6.3,7.1c-1.8,2.5-3.5,5.4-4.3,8.4C678,181.7,678.6,182,678.8,181.6L678.8,181.6z"
						/>
				</g>
				<g>
					<path class="st1" d="M694.9,155.5c2.7-2.4,5.4-4.7,8.4-6.7c3-2,6.2-3.7,9.1-5.7c1.5-1,3-2.1,4.1-3.5c1.2-1.4,1.9-3.1,2.7-4.8
						c1.8-3.9,3.6-7.7,5.2-11.7c1.7-3.9,3.2-7.8,4.7-11.7c0.4-0.9,0.7-1.9,1.1-2.8c0.3-0.9,1-2,1-2.9c0-0.6-0.5-1-1-1.2
						c-0.9-0.4-1.8-0.6-2.8-0.7c-3.4-0.5-6.4,0.6-8.5,3.3c-2.1,2.7-3.1,6.1-4.7,9c-2.1,3.9-4.5,7.7-7,11.3c-1.3,1.8-2.7,3.2-4.6,4.3
						c-1.8,1-3.9,1.7-5.8,2.4c-0.7,0.3-0.4,1.4,0.3,1.2c3.2-1.1,6.5-2.2,9-4.6c1.2-1.2,2.2-2.6,3.1-4c1-1.6,2.1-3.1,3.1-4.7
						c2-3.2,3.7-6.4,5.3-9.8c1.2-2.7,2.8-5.9,5.8-6.9c1.7-0.6,3.6-0.4,5.4,0.1c0.2,0.1,1,0.2,1.1,0.4c0.2,0.3-0.3,1.2-0.4,1.5
						c-0.4,1-0.7,2-1.1,3c-1.5,3.8-3,7.6-4.6,11.4c-1.6,3.7-3.2,7.4-4.9,11.1c-0.8,1.7-1.5,3.4-2.5,5c-1,1.6-2.5,2.8-4,3.9
						c-3.1,2.2-6.5,4-9.7,6.1c-3.1,2-6.3,4.3-8.3,7.4C694.1,155.4,694.6,155.7,694.9,155.5L694.9,155.5z"/>
				</g>
				<g>
					<path class="st1" d="M648.8,176c0,1.1-0.1,2.3-0.1,3.4c0,1.1,0,2.3,0,3.4c0,2.3,0,4.6-0.1,6.8c-0.1,4.4-0.3,8.9-0.5,13.3
						c-0.5,8.9-1.2,17.8-1.7,26.8c-0.2,2.5-0.3,5-0.5,7.5c-0.2,2.6-0.5,5.2-0.5,7.8c0,0.6,0.9,0.7,1,0.1c0.7-4.4,0.8-9,1.2-13.4
						c0.3-4.5,0.6-9,0.9-13.4c0.6-9,1.2-18,1.4-27c0.1-2.5,0.1-5,0.1-7.5c0-1.3-0.1-2.5-0.1-3.8c-0.1-1.4-0.2-2.7-0.4-4.1
						C649.4,175.6,648.8,175.6,648.8,176L648.8,176z"/>
				</g>
				<g>
					<path class="st1" d="M677.2,183.2c-1.3,4-0.8,8.5-0.5,12.6c0.3,4.1,0.8,8.1,1.4,12.2c1.3,8.3,3.2,16.5,5.7,24.5
						c0.7,2.3,1.5,4.5,2.3,6.8c0.8,2.3,1.3,4.6,1.9,6.9c0.1,0.5,1,0.4,1-0.1c-0.1-2-0.8-3.9-1.3-5.8c-0.6-2-1.4-4-2-6
						c-1.3-3.9-2.4-7.9-3.4-11.9c-2-8.2-3.4-16.5-4.1-24.8c-0.4-4.7-0.6-9.4-0.1-14.1C677.9,182.9,677.3,182.8,677.2,183.2
						L677.2,183.2z"/>
				</g>
				<g>
					<path class="st1" d="M650.8,174.4c0.9,0.3,1.9,0.6,2.8,0.8c0.9,0.2,1.8,0.4,2.7,0.5c1.8,0.3,3.7,0.6,5.6,0.8
						c0.7,0.1,0.7-1,0-1.1c-1.8-0.2-3.7-0.5-5.5-0.8c-0.9-0.2-1.8-0.3-2.7-0.5c-0.9-0.2-1.8-0.3-2.7-0.5
						C650.5,173.6,650.3,174.3,650.8,174.4L650.8,174.4z"/>
				</g>
			</g>
		</g>
		<g>
			<g>
				<path class="st3" d="M517.8,148c-0.8-1.6-1.5-3.2-2-4.9c-1.2-4-1-8.4-0.2-12.5c0.8-4.1,2.3-8.1,3.8-12c0.2,2.3,1.1,4.5,1.9,6.7
					c3.1,8.4,4.8,17.6,2.3,26.2c-0.5,1.6-1.1,3.1-1,4.7l-0.5,0.3C520.6,153.7,519.2,150.8,517.8,148z"/>
			</g>
			<g>
				<path class="st3" d="M506.9,175.1c-2-1.8-3.9-3.6-5.9-5.4c1.7,0,3.3,0.1,5,0.1c4.1,0.1,8.2,0.2,12,1.6c5.1,1.8,9,5.7,12.9,9.5
					c-0.4-5.9-0.2-12.1,2.7-17.3c2.9-5.1,8-8.6,12.9-11.8c-0.9,5.6,0.4,11.8-2.2,16.8c-2.3,4.7-7.3,7.3-11.4,10.4
					c-0.7,0.5-1.5,1.1-1.9,1.9l0,0c-3,1.7-6.6,2.3-10,1.9c-3.4-0.4-6.7-1.9-9.5-3.9C509.9,177.9,508.4,176.5,506.9,175.1z"/>
			</g>
			<g>
				<path class="st3" d="M555.7,208.9c-2.9,2.3-7.7,3.3-11.2,4.3c-2.2,0.7-4.5,1.4-6.8,1.6c-2.3,0.3-4.7,0.1-6.9-0.9
					c-2.1-0.9-3.8-2.6-6-3.2C533.7,205,546,204.7,555.7,208.9z"/>
			</g>
			<g>
				<path class="st3" d="M560.5,178.2c-0.7,3.8,0,7.6,0.4,11.4c0.5,3.8,0.7,7.8-0.7,11.3c-1.1,2.8-2.6,5.7-4.6,8
					c-5.1-5.7-6.2-14.7-2.7-21.5C554.8,183.8,557.7,181,560.5,178.2z"/>
			</g>
			<g>
				<path class="st3" d="M536.1,156c-2.6,4.4-7.1,7.2-11.7,9.3c0.7-6.7,2.2-14.5,5.6-20.3c2.4-4.1,6.1-7.5,10.4-9.4
					c-1.3,2.5-1,5.6-1.1,8.5c-0.1,2.6-0.5,5.1-1.3,7.6C537.6,153.1,537,154.6,536.1,156z"/>
			</g>
			<g>
				<path class="st3" d="M522.3,199.2c-2-0.7-3.8-2-5.4-3.4c-1.8-1.5-3.6-3-5.3-4.6c4.1-1,8.3-2,12.5-1.7c6.3,0.5,11.9,3.7,17.3,6.8
					c0,0.2,0.1,0.3,0.2,0.4c-4.6,1.6-9.6,3.3-14.5,3.1C525.4,199.8,523.8,199.7,522.3,199.2z"/>
			</g>
			<g>
				<path class="st3" d="M541.7,196.5c-0.1-0.1-0.2-0.1-0.3-0.2c-1.2-3.1-1.9-6.5-1.9-9.8c0-3.5,0.9-7.1,2.8-10
					c1.1-1.7,2.5-3.2,3.9-4.6c2.2-2.2,4.6-4.2,7-6.1c-0.1,3-0.2,6-0.2,9c0,1.4-0.1,2.9-0.3,4.3c-0.4,2.3-1.3,4.6-2.6,6.5
					C547.5,189.4,543.2,192.1,541.7,196.5z"/>
			</g>
			<g>
				<path class="st3" d="M505,154c-1.8-2.7-3.6-5.3-5.4-7.9c4.6,1.2,9.3,2.9,13,6c1.3,1,2.4,2.2,3.5,3.4c2.8,3,5.3,6.2,7.6,9.6
					c0.1,0.1,0.2,0.3,0.3,0.3c0.1,0,0.3,0,0.4-0.1c0,0.1,0,0.1,0,0.2c-6.4,0-12.8-3-16.9-8C506.6,156.4,505.8,155.2,505,154z"/>
			</g>
			<g>
				<path class="st1" d="M519.2,139.2c0.3,3.2,0.5,6.4,1,9.6c0.5,3.2,1.1,6.5,1.9,9.6c1.5,6.2,3.4,12.3,5.9,18.2
					c4.6,10.5,11.3,20.3,20.1,27.7c4.8,4,10.1,7.3,15.9,9.6c0.9,0.3,1.2-1,0.4-1.4c-10.1-4-18.8-11.3-25.4-19.9
					c-7.3-9.5-12-20.7-15-32.2c-0.9-3.4-1.6-6.9-2.3-10.4c-0.7-3.6-1.4-7.2-1.8-10.8C519.8,138.8,519.2,138.7,519.2,139.2
					L519.2,139.2z"/>
			</g>
			<g>
				<path class="st1" d="M522.8,156.7c-2.8-6-6.8-11.8-7.2-18.6c-0.5-6.8,2-13.2,4.3-19.4c-0.3,0-0.5-0.1-0.8-0.1
					c0.3,3.2,1.8,6.1,2.7,9.2c1,3.1,1.8,6.3,2.1,9.6c0.4,3.2,0.4,6.5-0.1,9.7c-0.2,1.5-0.6,3-1,4.5c-0.5,1.5-1,3-0.9,4.7
					c0,0.9,1.5,1,1.5,0c0-1.7,0.7-3.2,1.1-4.8c0.4-1.5,0.7-2.9,0.9-4.4c0.4-3.1,0.2-6.3-0.2-9.4c-0.5-3.2-1.3-6.3-2.3-9.4
					c-1-3.1-2.6-6.2-3-9.6c0-0.4-0.6-0.5-0.8-0.1c-1.9,5-3.8,10-4.4,15.4c-0.3,2.6-0.3,5.2,0.2,7.8c0.5,2.5,1.6,4.9,2.7,7.2
					c1.3,2.8,2.7,5.7,4.4,8.3C522.3,157.6,523,157.2,522.8,156.7L522.8,156.7z"/>
			</g>
			<g>
				<path class="st1" d="M524.8,165.6c0.8-5.9,1.8-12,4.2-17.4c2.4-5.3,6.4-9.7,11.7-12.2c-0.3-0.3-0.5-0.5-0.8-0.8
					c-1,1.9-1.2,4-1.2,6.1c0,2.3-0.1,4.6-0.5,6.9c-0.9,4.5-2.7,8.5-6.2,11.6c-1.5,1.3-3.2,2.5-5,3.5c-0.5,0.3-1,0.5-1.4,0.8
					c-0.3,0.2-0.9,0.6-1.2,0.6c-0.5,0-0.8-0.8-1.1-1.2c-0.4-0.6-0.9-1.2-1.3-1.8c-2.7-3.6-5.6-7.2-9-10c-3.9-3.1-8.5-4.7-13.3-6.1
					c-0.5-0.1-1,0.4-0.7,0.9c1.8,2.7,3.7,5.5,5.5,8.2c1.6,2.3,3.2,4.5,5.4,6.2c4,3.3,9.2,5.3,14.5,5.2c0.8,0,0.8-1.2,0-1.2
					c-5.1-0.2-10.1-2-13.9-5.3c-2-1.8-3.6-3.9-5.1-6.1c-1.7-2.6-3.5-5.1-5.3-7.6c-0.2,0.3-0.4,0.6-0.7,0.9c4.5,1.1,9.1,2.9,12.8,5.8
					c3.7,3,6.8,7,9.6,10.8c0.4,0.5,0.7,1,1.1,1.5c0.2,0.4,0.5,0.8,0.9,1c0.7,0.3,1.9-0.4,2.5-0.7c1.9-0.9,3.7-1.9,5.4-3.2
					c3.5-2.6,5.8-6.1,7.1-10.2c0.8-2.6,1.2-5.3,1.3-8.1c0-2.6-0.2-5.4,1-7.9c0.3-0.6-0.3-1.1-0.8-0.8c-4.2,2-7.8,5-10.2,9
					c-2.6,4-4,8.8-4.9,13.5c-0.5,2.7-0.8,5.4-1,8.1C524,165.9,524.7,166,524.8,165.6L524.8,165.6z"/>
			</g>
			<g>
				<path class="st1" d="M531.2,180.9c-0.1-5.9-0.1-12.1,3-17.4c2.9-4.9,7.8-8.2,12.5-11.2c-0.3-0.2-0.5-0.4-0.8-0.6
					c-1,6,0.5,12.8-3.1,18.1c-1.6,2.3-3.8,4.1-6.1,5.7c-1.1,0.8-2.3,1.6-3.4,2.4c-1.1,0.8-2.2,1.6-2.9,2.8c0.3,0,0.7-0.1,1-0.1
					c-3.8-3.7-7.7-7.6-12.8-9.6c-5.5-2.2-11.9-1.8-17.7-1.9c-0.5,0-0.8,0.7-0.4,1c2.5,2.2,4.9,4.5,7.3,6.7c2.2,1.9,4.5,3.7,7.2,5
					c5.2,2.4,11.2,2.6,16.3-0.2c0.7-0.4,0.1-1.4-0.6-1c-4.9,2.8-10.9,2.4-15.9-0.1c-2.6-1.3-4.8-3.1-6.9-5c-2.2-2-4.4-4-6.6-6.1
					c-0.1,0.3-0.3,0.7-0.4,1c5.7,0.1,11.8-0.3,17.2,1.7c5,1.9,8.8,5.8,12.4,9.5c0.3,0.3,0.8,0.2,1-0.1c0.7-1,1.7-1.7,2.6-2.4
					c0.9-0.6,1.8-1.3,2.7-1.9c1.8-1.2,3.5-2.5,5-4c1.6-1.5,2.8-3.3,3.6-5.4c0.8-2.2,1.1-4.7,1.2-7c0.1-2.9,0-5.8,0.4-8.6
					c0.1-0.4-0.3-0.9-0.8-0.6c-3.8,2.5-7.7,5-10.7,8.5c-3.1,3.6-4.7,8-5.2,12.7c-0.3,2.8-0.2,5.6,0.1,8.4
					C530.6,181.4,531.2,181.4,531.2,180.9L531.2,180.9z"/>
			</g>
			<g>
				<path class="st1" d="M541.9,196.7c-0.8-3-1.7-6-1.8-9.2c-0.1-2.9,0.4-5.8,1.5-8.4c1.2-2.6,3.1-4.8,5.1-6.8
					c2.2-2.2,4.5-4.2,7-6.1c-0.3-0.1-0.5-0.2-0.8-0.3c-0.1,3.2-0.2,6.4-0.3,9.7c-0.1,3.2-0.6,6.2-2.3,9c-2.6,4.3-7.4,6.9-9.1,11.8
					c0.3-0.1,0.5-0.2,0.8-0.3c-4.5-2.7-9.1-5.4-14.3-6.6c-5.5-1.3-10.9-0.1-16.3,1.2c-0.4,0.1-0.6,0.7-0.3,1c2.1,2,4.3,3.9,6.5,5.6
					c2.1,1.6,4.3,2.7,7,3.1c5.9,0.8,11.6-1.1,17.1-3c0.7-0.2,0.4-1.4-0.3-1.1c-5.2,1.8-10.6,3.6-16.2,3c-2.7-0.3-4.9-1.4-7-3
					c-2.2-1.7-4.3-3.6-6.3-5.4c-0.1,0.3-0.2,0.7-0.3,1c5.2-1.4,10.6-2.4,15.9-1.1c4.9,1.2,9.4,3.8,13.8,6.3c0.3,0.2,0.7,0,0.8-0.3
					c1.7-5,6.9-7.8,9.4-12.4c1.4-2.6,1.9-5.5,2-8.4c0.1-3.3,0.2-6.7,0.2-10c0-0.5-0.5-0.6-0.8-0.3c-2.6,2-5.1,4.2-7.4,6.5
					c-2.1,2.1-3.9,4.3-5.1,7.1c-2.3,5.6-1.8,12.5,0.8,17.9C541.5,197.3,542,197.1,541.9,196.7L541.9,196.7z"/>
			</g>
			<g>
				<path class="st1" d="M556,208.7c-3.3-4.4-5.1-9.6-4.4-15.1c0.8-6.3,5-10.7,9.3-15c-0.3-0.2-0.6-0.4-0.9-0.6
					c-0.9,5.4,0.7,10.8,0.8,16.2c0.1,5.1-2.1,10.3-5.5,14.2c0.2,0,0.5-0.1,0.7-0.1c-9.9-4.3-22.2-4.1-31.5,1.8
					c-0.4,0.3-0.4,1,0.1,1.1c2.8,0.8,4.8,3.1,7.7,3.8c3,0.8,6.1,0.3,9.1-0.4c2.7-0.7,5.3-1.5,7.9-2.3c2.4-0.7,4.8-1.6,6.8-3.1
					c0.6-0.5-0.2-1.3-0.8-0.8c-1.9,1.5-4.3,2.3-6.6,3c-2.5,0.7-5,1.5-7.6,2.2c-2.9,0.7-5.9,1.2-8.8,0.3c-2.6-0.8-4.6-2.9-7.2-3.7
					c0,0.4,0.1,0.7,0.1,1.1c8.9-5.7,20.7-6,30.3-1.9c0.2,0.1,0.5,0.1,0.7-0.1c3.3-3.7,5.6-8.8,5.8-13.8c0.2-5.7-1.8-11.4-0.8-17.1
					c0.1-0.5-0.5-1-0.9-0.6c-3.6,3.5-7.2,7.2-8.8,12.1c-1.4,4.2-1.3,8.8,0.2,13c0.8,2.3,2.1,4.6,3.9,6.3
					C555.7,209.4,556.3,209,556,208.7L556,208.7z"/>
			</g>
			<g>
				<path class="st1" d="M508.1,153.8c2.1,2.3,4.5,4.3,7,6.2c2.5,1.9,5,3.7,7.7,5.4c0.5,0.3,1-0.5,0.5-0.8c-2.6-1.6-5.1-3.4-7.5-5.2
					c-2.5-1.9-4.8-4-7.2-6C508.2,153.1,507.9,153.5,508.1,153.8L508.1,153.8z"/>
			</g>
			<g>
				<path class="st1" d="M524.6,165c4.4-6.2,8-13,11-20c0.2-0.6-0.6-1-0.8-0.5c-3,7-6.7,13.7-10.7,20.2
					C523.9,165,524.4,165.3,524.6,165L524.6,165z"/>
			</g>
			<g>
				<path class="st1" d="M542.5,158.9c-1.4,1.2-2.4,2.6-3.4,4.2c-1.1,1.8-2.1,3.6-3.1,5.4c-1.9,3.5-3.7,7.2-5,11
					c-0.2,0.5,0.7,0.9,0.9,0.4c1.6-3.6,3-7.2,4.9-10.7c0.9-1.7,1.8-3.4,2.8-5c1-1.6,1.9-3.4,3.3-4.7
					C543.3,159.1,542.8,158.6,542.5,158.9L542.5,158.9z"/>
			</g>
			<g>
				<path class="st1" d="M530.9,180.7c-1.7-0.8-3.4-1.6-5.2-2.3c-1.8-0.7-3.6-1.5-5.4-2.2c-1.7-0.7-3.4-1.4-5.1-1.9
					c-1.7-0.6-3.6-1.2-5.4-1.4c-0.6-0.1-0.7,0.9-0.1,1c1.8,0.5,3.5,0.8,5.2,1.4c1.7,0.6,3.4,1.2,5.1,1.9c1.7,0.7,3.4,1.4,5.1,2.1
					c1.8,0.7,3.7,1.4,5.5,2C531,181.4,531.3,180.8,530.9,180.7L530.9,180.7z"/>
			</g>
			<g>
				<path class="st1" d="M550.1,171.9c-4.4,7.3-7.3,15.5-8.8,23.8c-0.1,0.5,0.7,0.7,0.8,0.2c1.5-8.4,4.4-16.3,8.4-23.8
					C550.7,171.9,550.3,171.6,550.1,171.9L550.1,171.9z"/>
			</g>
			<g>
				<path class="st1" d="M518.7,193.8c7.5-0.3,15,0.8,22.1,3.4c0.5,0.2,0.7-0.6,0.2-0.8c-7.2-2.6-14.8-3.6-22.3-3.2
					C518.4,193.3,518.4,193.8,518.7,193.8L518.7,193.8z"/>
			</g>
			<g>
				<path class="st1" d="M557.6,185.5c-2.6,7.2-3.3,15.1-2.9,22.7c0,0.6,1,0.6,1,0c-0.4-7.7,0.6-15.1,2.5-22.6
					C558.3,185.2,557.7,185.1,557.6,185.5L557.6,185.5z"/>
			</g>
			<g>
				<path class="st1" d="M532.7,210.6c7.1-1,14.2-1.4,21.4-1.2c0.7,0,0.7-1,0-1.1c-7.2-0.2-14.4,0.3-21.5,1.7
					C532.2,210.1,532.4,210.7,532.7,210.6L532.7,210.6z"/>
			</g>
		</g>
		<g>
			<g>
				<path class="st3" d="M754.1,148c0.8-1.6,1.5-3.2,2-4.9c1.2-4,1-8.4,0.2-12.5c-0.8-4.1-2.3-8.1-3.8-12c-0.2,2.3-1.1,4.5-1.9,6.7
					c-3.1,8.4-4.8,17.6-2.3,26.2c0.5,1.6,1.1,3.1,1,4.7l0.5,0.3C751.3,153.7,752.7,150.8,754.1,148z"/>
			</g>
			<g>
				<path class="st3" d="M765.1,175.1c2-1.8,3.9-3.6,5.9-5.4c-1.7,0-3.3,0.1-5,0.1c-4.1,0.1-8.2,0.2-12,1.6c-5.1,1.8-9,5.7-12.9,9.5
					c0.4-5.9,0.2-12.1-2.7-17.3c-2.9-5.1-8-8.6-12.9-11.8c0.9,5.6-0.4,11.8,2.2,16.8c2.3,4.7,7.3,7.3,11.4,10.4
					c0.7,0.5,1.5,1.1,1.9,1.9l0,0c3,1.7,6.6,2.3,10,1.9c3.4-0.4,6.7-1.9,9.5-3.9C762.1,177.9,763.6,176.5,765.1,175.1z"/>
			</g>
			<g>
				<path class="st3" d="M716.2,208.9c2.9,2.3,7.7,3.3,11.2,4.3c2.2,0.7,4.5,1.4,6.8,1.6c2.3,0.3,4.7,0.1,6.9-0.9
					c2.1-0.9,3.8-2.6,6-3.2C738.2,205,725.9,204.7,716.2,208.9z"/>
			</g>
			<g>
				<path class="st3" d="M711.4,178.2c0.7,3.8,0,7.6-0.4,11.4c-0.5,3.8-0.7,7.8,0.7,11.3c1.1,2.8,2.6,5.7,4.6,8
					c5.1-5.7,6.2-14.7,2.7-21.5C717.1,183.8,714.2,181,711.4,178.2z"/>
			</g>
			<g>
				<path class="st3" d="M735.8,156c2.6,4.4,7.1,7.2,11.7,9.3c-0.7-6.7-2.2-14.5-5.6-20.3c-2.4-4.1-6.1-7.5-10.4-9.4
					c1.3,2.5,1,5.6,1.1,8.5c0.1,2.6,0.5,5.1,1.3,7.6C734.4,153.1,735,154.6,735.8,156z"/>
			</g>
			<g>
				<path class="st3" d="M749.7,199.2c2-0.7,3.8-2,5.4-3.4c1.8-1.5,3.6-3,5.3-4.6c-4.1-1-8.3-2-12.5-1.7c-6.3,0.5-11.9,3.7-17.3,6.8
					c0,0.2-0.1,0.3-0.2,0.4c4.6,1.6,9.6,3.3,14.5,3.1C746.5,199.8,748.1,199.7,749.7,199.2z"/>
			</g>
			<g>
				<path class="st3" d="M730.2,196.5c0.1-0.1,0.2-0.1,0.3-0.2c1.2-3.1,1.9-6.5,1.9-9.8c0-3.5-0.9-7.1-2.8-10
					c-1.1-1.7-2.5-3.2-3.9-4.6c-2.2-2.2-4.6-4.2-7-6.1c0.1,3,0.2,6,0.2,9c0,1.4,0.1,2.9,0.3,4.3c0.4,2.3,1.3,4.6,2.6,6.5
					C724.4,189.4,728.8,192.1,730.2,196.5z"/>
			</g>
			<g>
				<path class="st3" d="M767,154c1.8-2.7,3.6-5.3,5.4-7.9c-4.6,1.2-9.3,2.9-13,6c-1.3,1-2.4,2.2-3.5,3.4c-2.8,3-5.3,6.2-7.6,9.6
					c-0.1,0.1-0.2,0.3-0.3,0.3c-0.1,0-0.3,0-0.4-0.1c0,0.1,0,0.1,0,0.2c6.4,0,12.8-3,16.9-8C765.3,156.4,766.2,155.2,767,154z"/>
			</g>
			<g>
				<path class="st1" d="M752,139.2c-0.4,3.2-1.1,6.4-1.6,9.6c-0.5,3.1-1.2,6.2-1.9,9.3c-1.5,6.1-3.4,12.2-5.9,18
					c-4.5,10.2-10.9,19.6-19.4,26.9c-4.7,4-9.9,7.3-15.6,9.5c-0.8,0.3-0.5,1.7,0.4,1.4c10.3-4.1,19.1-11.3,25.9-20.1
					c7.5-9.7,12.4-21.2,15.4-33.1c0.9-3.5,1.6-7.1,2.2-10.7c0.6-3.6,0.9-7.2,1.2-10.8C752.7,138.7,752.1,138.8,752,139.2L752,139.2z
					"/>
			</g>
			<g>
				<path class="st1" d="M749.9,157.1c1.5-2.3,2.7-4.8,3.9-7.3c1.1-2.3,2.3-4.6,2.9-7.1c1.3-5,0.5-10.5-0.9-15.4
					c-0.8-3-2-5.9-3.1-8.8c-0.2-0.4-0.7-0.3-0.8,0.1c-0.3,3.3-1.9,6.4-3,9.6c-1,3.1-1.8,6.2-2.3,9.4c-0.5,3.1-0.6,6.3-0.2,9.4
					c0.2,1.5,0.5,3,0.9,4.4c0.4,1.6,1.1,3.2,1.1,4.8c0,0.9,1.4,0.9,1.5,0c0.1-1.6-0.4-3.1-0.9-4.7c-0.5-1.5-0.8-3-1-4.5
					c-0.5-3.2-0.4-6.5-0.1-9.7c0.4-3.3,1.1-6.5,2.1-9.6c1-3,2.4-6,2.7-9.2c-0.3,0-0.5,0.1-0.8,0.1c2.4,6.2,4.8,12.6,4.3,19.4
					c-0.5,6.8-4.4,12.6-7.2,18.6C748.9,157.2,749.6,157.6,749.9,157.1L749.9,157.1z"/>
			</g>
			<g>
				<path class="st1" d="M747.9,165.5c-0.5-9.2-2.7-19.6-9.7-26.1c-1.9-1.8-4.1-3.3-6.5-4.4c-0.5-0.3-1.1,0.3-0.8,0.8
					c1.1,2.2,1,4.6,1,7c0,2.4,0.2,4.7,0.8,7.1c1,4.3,3,8.2,6.4,11.1c1.6,1.4,3.4,2.6,5.4,3.5c0.9,0.4,1.7,0.8,2.6,1.2
					c1.1,0.4,1.4-0.1,2-0.9c2.7-4,5.8-7.8,9.3-11.1c3.9-3.7,9-5.8,14.1-7c-0.2-0.3-0.4-0.6-0.7-0.9c-1.8,2.5-3.5,5.1-5.3,7.6
					c-1.5,2.2-3.1,4.4-5.1,6.1c-3.9,3.3-8.9,5.1-13.9,5.3c-0.8,0-0.8,1.2,0,1.2c5.3,0.1,10.4-1.9,14.5-5.2c2.2-1.8,3.8-3.9,5.4-6.2
					c1.9-2.7,3.7-5.5,5.5-8.2c0.3-0.4-0.2-1-0.7-0.9c-4.2,1.2-8.4,2.6-12,5.2c-3.7,2.6-6.7,6.3-9.5,9.9c-0.7,0.9-1.3,1.7-2,2.6
					c-0.3,0.4-0.5,1-0.9,1.3c-0.5,0.3-1.2-0.2-1.6-0.4c-1.9-0.9-3.7-2.1-5.4-3.4c-3.5-2.7-5.6-6.3-6.8-10.6c-0.7-2.6-0.9-5.2-1-7.9
					c0-2.4-0.1-4.8-1.2-7c-0.3,0.3-0.5,0.5-0.8,0.8c5.3,2.4,9.4,6.8,11.7,12.2c2.4,5.5,3.4,11.5,4.2,17.4
					C747.2,166,747.9,165.9,747.9,165.5L747.9,165.5z"/>
			</g>
			<g>
				<path class="st1" d="M741.4,180.9c0.6-4.7,0.4-9.8-1.2-14.3c-1.5-4.4-4.6-7.9-8.2-10.8c-2-1.6-4.2-3-6.4-4.5
					c-0.4-0.3-0.8,0.2-0.8,0.6c0.7,4.9-0.2,9.9,1.2,14.7c1.3,4.3,4.6,7.3,8.2,9.9c1,0.7,2,1.4,3,2.1c1.1,0.8,2.3,1.5,3.1,2.7
					c0.2,0.3,0.7,0.4,1,0.1c3.7-3.7,7.5-7.6,12.4-9.5c5.4-2,11.5-1.6,17.2-1.7c-0.1-0.3-0.3-0.7-0.4-1c-2.2,2-4.4,4-6.6,6.1
					c-2.1,1.9-4.3,3.7-6.9,5c-5,2.5-11,2.9-15.9,0.1c-0.7-0.4-1.3,0.7-0.6,1c5,2.9,11.1,2.6,16.3,0.2c2.7-1.2,5-3,7.2-5
					c2.5-2.2,4.9-4.5,7.3-6.7c0.4-0.3,0.1-1-0.4-1c-5.8,0.1-12.2-0.3-17.7,1.9c-5,2-9,5.8-12.8,9.6c0.3,0,0.7,0.1,1,0.1
					c-0.7-1.2-1.8-2-2.9-2.8c-1.1-0.8-2.3-1.6-3.4-2.4c-2.2-1.6-4.5-3.4-6.1-5.7c-3.6-5.3-2.1-12.1-3.1-18.1
					c-0.3,0.2-0.5,0.4-0.8,0.6c4.7,3,9.6,6.3,12.5,11.2c3.1,5.3,3.1,11.5,3,17.4C740.7,181.4,741.4,181.4,741.4,180.9L741.4,180.9z"
					/>
			</g>
			<g>
				<path class="st1" d="M730.6,197c2.6-5.4,3-12.3,0.8-17.9c-1.1-2.8-3-5-5.1-7.1c-2.3-2.3-4.8-4.5-7.4-6.5
					c-0.3-0.2-0.8-0.1-0.8,0.3c0.1,3.3,0.1,6.7,0.2,10c0.1,3,0.6,5.8,2,8.4c2.4,4.6,7.6,7.4,9.4,12.4c0.1,0.3,0.5,0.5,0.8,0.3
					c4.4-2.5,8.8-5.1,13.8-6.3c5.4-1.3,10.7-0.3,15.9,1.1c-0.1-0.3-0.2-0.7-0.3-1c-2,1.8-4,3.6-6.1,5.3c-2.1,1.7-4.4,2.8-7.1,3.1
					c-5.6,0.6-11-1.2-16.2-3c-0.7-0.2-1,0.9-0.3,1.1c5.5,1.9,11.2,3.7,17.1,3c2.6-0.3,4.9-1.5,7-3.1c2.3-1.7,4.5-3.6,6.5-5.6
					c0.3-0.3,0.2-0.9-0.3-1c-5.4-1.3-10.8-2.4-16.3-1.2c-5.2,1.2-9.8,3.9-14.3,6.6c0.3,0.1,0.5,0.2,0.8,0.3
					c-1.7-4.9-6.5-7.5-9.1-11.8c-1.6-2.7-2.2-5.7-2.3-8.8c-0.1-3.3-0.2-6.6-0.3-9.8c-0.3,0.1-0.5,0.2-0.8,0.3c2.4,1.9,4.8,3.9,7,6.1
					c2,2,3.9,4.1,5.1,6.8c1.1,2.6,1.6,5.5,1.5,8.4c-0.1,3.2-1,6.2-1.8,9.2C729.9,197.1,730.5,197.3,730.6,197L730.6,197z"/>
			</g>
			<g>
				<path class="st1" d="M716.5,209.1c3.2-3,4.8-7.6,5-11.9c0.3-4.6-1.1-9.1-3.8-12.8c-1.7-2.4-3.9-4.5-6-6.6c-0.4-0.4-1,0-0.9,0.6
					c1,5.7-1,11.4-0.8,17.1c0.2,5,2.5,10.1,5.8,13.8c0.2,0.2,0.5,0.2,0.7,0.1c9.6-4.1,21.4-3.8,30.3,1.9c0-0.4,0.1-0.7,0.1-1.1
					c-2.6,0.8-4.5,2.8-7.1,3.7c-2.9,0.9-6.1,0.5-9-0.2c-2.5-0.6-5-1.4-7.4-2.1c-2.3-0.7-4.8-1.5-6.8-3c-0.6-0.5-1.5,0.4-0.8,0.8
					c2,1.5,4.3,2.4,6.7,3.1c2.7,0.8,5.4,1.6,8.1,2.3c2.9,0.7,6,1.2,8.9,0.5c2.9-0.7,5-3,7.8-3.8c0.5-0.2,0.6-0.8,0.1-1.1
					c-9.3-5.9-21.5-6.1-31.5-1.8c0.2,0,0.5,0.1,0.7,0.1c-3.4-3.8-5.6-9-5.5-14.2c0.1-5.4,1.7-10.8,0.8-16.2
					c-0.3,0.2-0.6,0.4-0.9,0.6c4.3,4.2,8.5,8.7,9.3,15c0.7,5.5-1.1,10.7-4.4,15.1C715.7,209,716.2,209.4,716.5,209.1L716.5,209.1z"
					/>
			</g>
			<g>
				<path class="st1" d="M763.4,153.4c-2.4,2-4.7,4.1-7.2,6c-2.4,1.9-4.9,3.6-7.5,5.2c-0.5,0.3,0,1.1,0.5,0.8
					c2.7-1.7,5.2-3.4,7.7-5.4c2.5-1.9,4.9-3.9,7-6.2C764.1,153.5,763.7,153.1,763.4,153.4L763.4,153.4z"/>
			</g>
			<g>
				<path class="st1" d="M747.8,164.7c-3.9-6.5-7.6-13.2-10.7-20.2c-0.2-0.6-1.1-0.1-0.8,0.5c3,7,6.6,13.8,11,20
					C747.5,165.3,748,165,747.8,164.7L747.8,164.7z"/>
			</g>
			<g>
				<path class="st1" d="M728.9,159.4c1.4,1.3,2.3,3,3.3,4.6c1,1.7,2,3.4,2.9,5.1c1.8,3.5,3.3,7.1,4.9,10.7c0.2,0.5,1.1,0.2,0.9-0.4
					c-1.3-3.8-3.1-7.5-5-11c-0.9-1.8-1.9-3.5-3-5.3c-1-1.6-2-3.1-3.5-4.3C729.1,158.6,728.6,159.1,728.9,159.4L728.9,159.4z"/>
			</g>
			<g>
				<path class="st1" d="M741.3,181.3c1.8-0.7,3.6-1.2,5.4-2c1.8-0.7,3.5-1.4,5.3-2.1c1.6-0.7,3.3-1.3,5-1.9c1.8-0.6,3.6-1,5.4-1.5
					c0.5-0.1,0.5-1.1-0.1-1c-1.8,0.2-3.6,0.7-5.3,1.3c-1.8,0.6-3.5,1.3-5.3,2c-1.8,0.7-3.5,1.4-5.3,2.1c-1.8,0.7-3.6,1.6-5.4,2.4
					C740.7,180.8,740.9,181.4,741.3,181.3L741.3,181.3z"/>
			</g>
			<g>
				<path class="st1" d="M721.4,172.2c4,7.5,7,15.4,8.4,23.8c0.1,0.5,0.9,0.3,0.8-0.2c-1.5-8.4-4.3-16.6-8.8-23.8
					C721.6,171.6,721.2,171.9,721.4,172.2L721.4,172.2z"/>
			</g>
			<g>
				<path class="st1" d="M753.2,193.3c-7.6-0.4-15.2,0.6-22.3,3.2c-0.5,0.2-0.3,1,0.2,0.8c7.1-2.6,14.6-3.7,22.1-3.4
					C753.6,193.8,753.6,193.3,753.2,193.3L753.2,193.3z"/>
			</g>
			<g>
				<path class="st1" d="M713.7,185.6c1.9,7.4,2.9,14.9,2.5,22.6c0,0.6,1,0.6,1,0c0.5-7.6-0.3-15.5-2.9-22.7
					C714.2,185.1,713.6,185.2,713.7,185.6L713.7,185.6z"/>
			</g>
			<g>
				<path class="st1" d="M739.3,210c-7.1-1.4-14.3-1.9-21.5-1.7c-0.7,0-0.7,1.1,0,1.1c7.1-0.2,14.3,0.2,21.4,1.2
					C739.6,210.7,739.7,210.1,739.3,210L739.3,210z"/>
			</g>
		</g>
	</g>
</g>
<path class="st2" d="M168.6,267.5c3.9,7.5,1.4,19-8.3,20c-16.2,0.1-25.9-17.4-41.7-20.3c-33.4-11.1-69.3-2-103.3-8.8
	c-32.5-3.8-46.6-35.5-7.4-43.7c19.2-4.8,29.2-23.2,42.5-36C84.9,143,125.5,155,134.6,204c3.5,14,6,28.7,14.2,40.9
	C154.2,253.4,164.1,258.3,168.6,267.5z"/>
<g>
	<path class="st0" d="M61.2,213.4c-3.2,3.8-5.5,8.2-7.8,12.7c6.7,0.1,12.8,4.7,19.6,4.9c6.6,0.2,12.7-4,16.4-9.5
		c3.7-5.5,5.4-12,6.6-18.5c-3.3,1.7-7.1,1.9-10.8,1.8c-3.7-0.1-7.4-0.5-11,0.2C69,206.1,64.6,209.4,61.2,213.4z"/>
	<g>
		<path class="st1" d="M92.8,206.5c-2.5,2.5-5,5.1-7.9,7.1c-2.8,1.9-6,3.2-9.2,4.2c-6.3,1.9-12.9,2.8-18.8,5.8
			c-3,1.5-6.2,3.7-7.9,6.6c-0.4,0.6,0.5,1.2,1,0.7c1-1.2,2-2.4,3.3-3.4c1.2-1,2.6-1.8,4-2.6c2.8-1.5,5.8-2.5,8.8-3.3
			c6.5-1.8,13.4-2.9,19.2-6.7c3.2-2.1,6-4.9,8.2-8.1C93.6,206.6,93.1,206.2,92.8,206.5L92.8,206.5z"/>
	</g>
	<g>
		<path class="st1" d="M77.8,226.3c-3.3-1-6.5-2-9.9-2.6c-3.3-0.6-6.6-0.9-10-0.5c0.1,0.3,0.3,0.6,0.4,0.9c1.8-2.1,3.6-4.1,5.5-6.2
			c1.8-2,3.7-4,5.4-6.2c0.5-0.6-0.3-1.4-0.9-0.9c-1.9,2-3.6,4.1-5.4,6.2c-1.8,2.1-3.6,4.1-5.4,6.2c-0.3,0.3-0.1,1,0.4,0.9
			c3.3-0.4,6.7-0.1,9.9,0.5c3.3,0.6,6.5,1.4,9.7,2.2C78,227.1,78.2,226.4,77.8,226.3L77.8,226.3z"/>
	</g>
	<g>
		<path class="st1" d="M87.8,219.9c-2.1-0.8-4.5-1-6.7-1.2c-2.4-0.2-4.7-0.3-7.1-0.3c0.2,0.4,0.3,0.7,0.5,1.1
			c1.6-1.6,3.1-3.4,4.4-5.3c0.7-0.9,1.3-1.9,1.8-2.9c0.6-1,1.2-2.1,1.5-3.1c0.2-0.7-0.8-1-1.2-0.4c-0.6,1-1,2-1.5,3
			c-0.5,1-1.1,1.9-1.8,2.8c-1.3,1.9-2.7,3.6-4.3,5.2c-0.4,0.4-0.1,1.1,0.5,1.1c2.3,0,4.5,0.1,6.8,0.2c1.1,0.1,2.3,0.2,3.4,0.3
			c1.1,0.1,2.2,0.3,3.4,0.2C88,220.4,88.1,220,87.8,219.9L87.8,219.9z"/>
	</g>
</g>
<g>
	<g>
		<path class="st1" d="M65.2,199.9c0.1-5.2,1.9-10.3,5.2-14.2c3.2-3.9,7.5-6.6,12.3-8.1c2.6-0.9,5.4-1.4,8.2-1.6
			c-0.2-0.2-0.4-0.5-0.6-0.7c-0.6,1.6-1.1,3.1-1.4,4.7c-0.3,1.6-0.6,3.2-0.9,4.7c-0.5,2.7-1.1,5.5-2.5,7.9c-1.3,2.2-3.1,4-5.6,4.9
			c-2.3,0.8-4.8,0.9-7.2,1.1c-2.7,0.2-5.6,0.3-8,1.6c-0.6,0.3-0.1,1.2,0.5,1c1.2-0.3,2.4-0.7,3.7-0.8c1.3-0.1,2.6-0.2,3.8-0.3
			c2.5-0.1,5-0.2,7.4-1c5.3-1.7,7.8-7,8.9-12.1c0.4-1.8,0.7-3.7,0.9-5.6c0.3-1.9,0.6-3.9,1.3-5.7c0.1-0.4,0-0.8-0.5-0.8
			c-10.5,0.5-21,6.1-25,16.2c-0.5,1.4-0.9,2.8-1.2,4.2c-0.2,1.6-0.1,3.1-0.1,4.7C64.5,200.3,65.2,200.3,65.2,199.9L65.2,199.9z"/>
	</g>
	<g>
		<path class="st1" d="M62.8,203.6c2.6-3.9,5.6-7.8,8.9-11.2c3.3-3.4,7.1-6.3,11-9.1c0.5-0.3,0-1-0.5-0.8c-4.3,2.3-8.1,5.5-11.4,8.9
			c-1.7,1.7-3.3,3.6-4.7,5.5c-1.5,2-2.7,4-3.8,6.2C62,203.7,62.6,204,62.8,203.6L62.8,203.6z"/>
	</g>
	<g>
		<path class="st1" d="M75.4,181.6c-0.7,1.4-1.1,3-1.6,4.5c-0.5,1.6-1,3.1-1.6,4.7c-0.1,0.4,0.1,0.8,0.6,0.7
			c3.6-0.8,7.2-1.6,10.8-2.3c0.6-0.1,0.3-1-0.3-0.9c-3.6,0.8-7.2,1.6-10.8,2.3c0.2,0.2,0.4,0.5,0.6,0.7c0.6-1.5,1.2-3,1.8-4.6
			c0.5-1.5,1.1-3.2,1.3-4.8C76.1,181.5,75.6,181.2,75.4,181.6L75.4,181.6z"/>
	</g>
	<g>
		<path class="st1" d="M68.2,195.6c3.1,0.1,6.3-0.4,9.4-0.7c0.6-0.1,0.5-1,0-0.9c-3.1,0.3-6.3,0.5-9.4,1.1
			C67.8,195.1,68,195.6,68.2,195.6L68.2,195.6z"/>
	</g>
</g>
</svg>
