<?xml version="1.0" encoding="utf-8"?>
<!-- Generator: Adobe Illustrator 25.2.0, SVG Export Plug-In . SVG Version: 6.00 Build 0)  -->
<svg version="1.1" id="Layer_1" xmlns="http://www.w3.org/2000/svg" xmlns:xlink="http://www.w3.org/1999/xlink" x="0px" y="0px"
	 viewBox="0 0 105.9 119.3" style="enable-background:new 0 0 105.9 119.3;" xml:space="preserve">
<style type="text/css">
	.st0{fill:#FFFFFF;}
	.st1{fill:none;stroke:#FFFFFF;stroke-width:4;stroke-miterlimit:10;}
	.st2{fill:#FFFFFF;stroke:#FFFFFF;stroke-width:4;stroke-miterlimit:10;}
</style>
<path class="st0" d="M60.5,25.5c-0.6-0.3-1.9-0.4-2-0.4c-1-0.1-2.9-0.1-3.7,0.7c-11.4,10.7-26.3,18.6-33.6,33
	c-5.4,10.6-4.6,25,5.9,32C27.1,91,27,91.2,27,91.4c-0.2,0.5,4.4,1.2,5.7,0.2c0.1,0,0.2-0.1,0.3-0.1c11.2,0.7,21.9-5.8,26.7-16.3
	c7.1-15.4,2.7-32.7,3.2-49C62.9,25.8,61.8,25.6,60.5,25.5z M56.2,68.3c-1.6,6.3-4.6,12.4-9.6,16.6c-3.6,3-8.4,5.5-13.1,4.8
	c0.5-2,0.7-4,1.3-6c0.8-2.6,1.8-5.1,2.9-7.6c1.1-2.6,2.1-5.2,3.2-7.8c1.3-2.9,2.9-5.6,4.4-8.4c2.8-5.1,5.5-10.3,8.3-15.4
	c1.2-2.2,2.4-4.4,3.6-6.5C57.7,48.2,58.6,58.4,56.2,68.3z M47.6,44.3c-2.9,5.4-5.8,10.8-8.7,16.2c-2.6,4.9-4.9,9.8-7,14.9
	c-1.1,2.7-2.2,5.3-3.1,8c-0.3,0.8-0.5,1.6-0.6,2.5c-6.3-8-5-20.6,0.1-29.2c6.5-11,17.3-18,27-26C52.8,35.3,50.1,39.7,47.6,44.3z"/>
<path class="st1" d="M9.5,102.6c31.3,18.1,69.2,6.5,82.8-19.7c10.5-20.2,5.7-47.7-12.9-66.5"/>
<circle class="st2" cx="72" cy="9.8" r="3.8"/>
</svg>
