<svg id="Layer_1" data-name="Layer 1" xmlns="http://www.w3.org/2000/svg" xmlns:xlink="http://www.w3.org/1999/xlink" viewBox="0 0 1332.01 613.92"><defs><style>.cls-1{fill:#fff;}.cls-2{fill:none;}.cls-3{clip-path:url(#clip-path);}.cls-4{mask:url(#mask);}.cls-5{fill:#ebe4d2;}.cls-6{fill:#9f7d56;}.cls-7{fill:#94af9f;}.cls-8{fill:#b0bb9a;}.cls-9{fill:#b1c571;}.cls-10{fill:#8ca33c;}.cls-11{fill:#322816;}.cls-12{mask:url(#mask-2);}.cls-13{fill:#e07857;}.cls-14{fill:#dd6442;}</style><clipPath id="clip-path" transform="translate(-27.34 -396.19)"><rect class="cls-2" x="886.14" y="367.01" width="511.86" height="643.09"/></clipPath><mask id="mask" x="858.75" y="-29.18" width="511.85" height="643.11" maskUnits="userSpaceOnUse"><g transform="translate(-27.34 -396.19)"><g id="mask0_0_1" data-name="mask0 0 1"><path class="cls-1" d="M1396.5,794.84c-1.35,18.45-3.44,36.9-6.29,55.2-2.55,15.6-6,31.2-12.14,45.75-5.84,14-14.38,27.15-26.22,36.75-12.29,10.06-27.12,16.21-42.56,19.36-36.71,7.35-73.72-3-109.08-11.71l-116.43-28.8c-19.33-4.8-38.81-9.6-58.29-14.4-16.18-4-32.36-8-48.1-13.65-15-5.4-29.37-12.45-41.8-22.5a111.91,111.91,0,0,1-29.22-36.6c-14.69-29-19.63-62.41-20.23-94.66a316.88,316.88,0,0,1,15-101.7c2.4-7.35,5-14.55,8-21.75V367h416.7V522.27a307.49,307.49,0,0,1,37,60.3,370.84,370.84,0,0,1,29.52,97.51C1398.3,717.88,1399.2,756.58,1396.5,794.84Z"/></g></g></mask><mask id="mask-2" x="-40.23" y="13.44" width="642.9" height="559.86" maskUnits="userSpaceOnUse"><g transform="translate(-27.34 -396.19)"><g id="mask0_0_1-2" data-name="mask0 0 1"><path class="cls-1" d="M139.59,462.89c-3,2.14-5.84,4.41-8.68,6.69-12.23,10.25-47.07,39.57-49.49,42.85C-47.43,642.81-74.31,987.57,195.19,908.71c36.55-11.53,71-12.67,105-10.39a14.74,14.74,0,0,0,2,8.68c3.27,6,24.18,5,56,3.14,12.8-.72,27.45-1.57,43.38-2.28a338.09,338.09,0,0,0,41.53.14c2.84-.28,5.54-.57,8.39-1,70.4.57,113.2,6.69,119.6,3.56,3.27-1.71.15-29.46-3.69-63.77,38.25-39.43,62.14-93.52,62.57-149.17C635.07,451.79,328.59,333.07,139.59,462.89Z"/></g></g></mask></defs><g class="cls-3"><g class="cls-4"><path class="cls-5" d="M1302,592.77a70.09,70.09,0,0,0-23.67-3.3c-9,.15-17.84,1.65-26.68,3.45a154.2,154.2,0,0,1,1.65-25,103.8,103.8,0,0,0,7.79-14.7s18-3.45,21-22.8c2.85-19.05-12.59-30.3-23.82-21.15a12.59,12.59,0,0,1-3.45-3.45c-5.39-7-7.64-16-10.19-24.6s-6-17.4-12.89-22.95c-5.09-4.05-11.39-5.85-17.68-7.5.15,3.9-1,7.95-2.39,11.7A117,117,0,0,1,1193,495.27c-11.84,0-23.68-.15-35.67-.15-.45,3.6-1.19,10.2-2.24,19-1.8,13.35-7.94,17.85-5.4,37.05,1.65,11.55,11.09,27.3,22.32,38.4a187.62,187.62,0,0,0-46.74,2.85c-4.64.9-9.6,1.95-13.34,4.95h-.3c-.3-7.95-.3-16,2.25-23.4,3.14-9,9.74-16.2,14.08-24.6,7.5-14.4,7.64-32.4.76-47.1l.9-.45c6.29-9.3,12.28-19.8,14.68-36.15,7.49-53,66.68-48.31,66.68-48.31s53.79-6.9,68.32,45.46C1293.41,514.77,1332.22,546.42,1302,592.77Z" transform="translate(-27.34 -396.19)"/><path class="cls-5" d="M1282,530.37c-3,19.35-21,22.8-21,22.8a134.4,134.4,0,0,1-7.79,14.7c-17.83,28.21-42.1,37.81-58.14,35.41-5.54-.75-11.53-4-17.38-8.7a55.87,55.87,0,0,1-5.54-5c-11.39-11.1-20.83-26.7-22.33-38.4-2.69-19.2,3.6-23.85,5.4-37.05,1.19-8.85,1.94-15.6,2.25-19,11.83,0,23.82.15,35.66.15a112.71,112.71,0,0,0,18.57-32.85c1.35-3.75,2.56-7.65,2.4-11.7,6.3,1.65,12.59,3.45,17.69,7.5,6.88,5.55,10.34,14.4,12.88,22.95s4.8,17.55,10.19,24.6a15.06,15.06,0,0,0,3.45,3.45C1269.43,500.07,1284.87,511.32,1282,530.37Z" transform="translate(-27.34 -396.19)"/><path class="cls-6" d="M1173.09,610.48c-.3.9-.45,1.65-.75,2.55,0,.15-.15.15-.15.3-7.2,11.55-34.17,57-44,109l-3,.45a145.63,145.63,0,0,0-19.92,3.6s22.93-73.5,59.94-112.2c1.19-1.35,2.54-2.55,3.74-3.75Z" transform="translate(-27.34 -396.19)"/><path class="cls-7" d="M1105.21,726.43a229.31,229.31,0,0,0-.45,32,4,4,0,0,0-.9-1.5,3.36,3.36,0,0,0-3.3-1.5,3.84,3.84,0,0,0-2.4,2,12.58,12.58,0,0,0-1.94,5.1l-1.35-.3,4.34-20.4c0-.15.16-.3.16-.45,0-3-14.09-5.55-34.62-6.9l-.3-.15a53,53,0,0,0,4.8-22.05c0-3.15-.15-6.45-.45-9.6l1.65-.15c5.54-10.5,4.49-31.35,12-48.75,8.69-7.95,19.18-14.7,24.72-24.6,18.74-8.7,45.41-13.35,58.14-15.15C1128.14,652.93,1105.21,726.43,1105.21,726.43Z" transform="translate(-27.34 -396.19)"/><path class="cls-6" d="M1257.15,611.38c-2.85,14.25-11.24,62-9,112.8a200.61,200.61,0,0,0-23.07-4,527.75,527.75,0,0,1,22.62-99c1.51-4.35,3-8.55,4.65-12.9.15-.3.31-.75.45-1.05h5.25C1258.05,607,1257.75,608.53,1257.15,611.38Z" transform="translate(-27.34 -396.19)"/><path class="cls-7" d="M1358,826.94c-4.8,32.4-11.54,31.65-7.34,49.95s-5.84,36.75-17.23,41.1c0,0-6,13.06-15,9.9,0,0-13.34-61.95-42.56-67.65-.45-.15-.9-.15-1.5-.3h-.15c-2.55-.45-4.35-2.85-4.94-5.4-.9-4.2.74-8.55,3.29-11.85a39.21,39.21,0,0,1,6.29-5.85c-.59-6-3.29-11.7-6.59-16.8-3.89-6.15-8.69-11.85-11.68-18.6a40.2,40.2,0,0,1-1.35-29,9.9,9.9,0,0,0,.9-4,13.89,13.89,0,0,0-1.35-3.91c-6-11.85-6.14-25.65-4.5-38.85-2.09-.6-4-1-6.14-1.5-2.25-50.85,6.14-98.55,9-112.8,13.18,3,52,14.25,68.17,45.9,19.64,38.4,8,63.9,18.29,105.46C1354.09,804.14,1362.79,794.69,1358,826.94Z" transform="translate(-27.34 -396.19)"/><path class="cls-6" d="M1313.79,999.9a219.28,219.28,0,0,0-78.52,2c-12.43,2.55-24.57,6.3-37.16,7.65s-25.63.3-38.36-1.35c-29.22-3.6-58.59-10.35-83.61-25.5,2.85-7.2,5.25-14.4,6.29-22,1.2-9.6.15-19.5,2.85-28.81,1.8-6,4.94-11.25,7.34-16.95a57.14,57.14,0,0,0,4.19-19.35c.45-9.15-1.19-19,3.3-26.7,7.35,3.15,14.68,6.45,22.63,7.2a36.49,36.49,0,0,0,11.39-.75c12.73,4.65,60.68,22.5,98.15,39.6,32.51,14.85,58.58,16.8,74.17,15.45,2.09,4.81,1.34,11.11.74,16.66a81.57,81.57,0,0,0,2.1,27.6C1311.09,983,1314.54,991.5,1313.79,999.9Z" transform="translate(-27.34 -396.19)"/><path class="cls-5" d="M1318.28,928a52.65,52.65,0,0,1-12,2.25c-15.58,1.35-41.8-.59-74.17-15.45-37.31-17.1-85.26-35-98.14-39.6a36.22,36.22,0,0,1-11.39.75c-7.94-.75-15.28-4-22.63-7.2a93.49,93.49,0,0,0-10.79-4,90.28,90.28,0,0,0-15.43-3c-12.74-1.5-25.92-1.35-38.36-5-3.59-1-7.34-2.85-8.54-6.3a3.31,3.31,0,0,1,0-2.4c.75-2,3.15-2.55,5.25-2.7,13.78-1,27.57,2.1,41.2.9-11.54-3-22.92-6.15-34.46-9.15a57,57,0,0,1-10.79-3.6,16,16,0,0,1-6.29-4.65c-1.2-1.5-2-3.45-1.2-5.25a4.42,4.42,0,0,1,2-2.1,10.74,10.74,0,0,1,5.24-2.1c-1.5-.75-2.85-1.5-4.35-2.4a13.36,13.36,0,0,1-4.19-3.45,5.31,5.31,0,0,1-.9-5.1,5.63,5.63,0,0,1,3.3-2.85c2.84-1,6.14-.75,9.29-.45a380.39,380.39,0,0,1,43,7.95,327.61,327.61,0,0,1-32.66-13.95c-4-2.1-8.25-4.5-9.74-8.85a4,4,0,0,1,0-3.45c1-2.1,3.89-2.25,6.14-2.1,17.08,1.35,33.27,7.8,49.74,12.45,5.4,1.5,10.79,2.85,16.34,3.9-4.34-11.1-8.84-22.8-8.09-34.8a11.65,11.65,0,0,1,.45-3.3,12.36,12.36,0,0,1,2-5.11,4.37,4.37,0,0,1,2.39-1.95,3.36,3.36,0,0,1,3.3,1.5,14.14,14.14,0,0,1,.9,1.5c.3.6.45,1.35.75,1.95,4.49,13.66,12.44,25.81,21.27,37.21,1.51,1.8,2.85,3.6,4.2,5.55,5,7.35,7.35,15.9,8.69,24.6,8.39,5,103.54,26.25,134.56,32.4h.15c.45.15.9.15,1.5.3C1304.94,866.09,1318.28,928,1318.28,928Z" transform="translate(-27.34 -396.19)"/><path class="cls-7" d="M1241.72,582.72c-15.89,16.66-33.87,22.51-46.75,20.56-5.55-.75-11.55-4-17.39-8.7-.15.44-2.25,7.95-4.49,15.75,0,0-.75,2.7-.75,2.85s-.15.3-.15.45C1198.71,624.43,1233.47,608.38,1241.72,582.72Z" transform="translate(-27.34 -396.19)"/><path class="cls-5" d="M1251.6,593.07a130.5,130.5,0,0,0,.9,15.16c-1.65,4.35-3.14,8.7-4.64,12.9-10.94,8.4-35.51,25-54.24,23.25-10.64-1-16.64-4.8-20.24-8.55a17.28,17.28,0,0,1-4.64-10.65c.75-2.7,2.1-6.9,3.29-11.4,26.68,10.8,61.29-5.4,69.53-30.91a9.7,9.7,0,0,0,1.2-1.35A87.61,87.61,0,0,0,1253,568,190.08,190.08,0,0,0,1251.6,593.07Z" transform="translate(-27.34 -396.19)"/><path class="cls-7" d="M1247.86,621.13a513.48,513.48,0,0,0-22.63,99c-32.06-4-64.88-1.8-97.09,2.25,9.88-52,36.7-97.5,44-109h.15c-1.35,4.65-2.55,9-3.45,11.85,0,0,0,16.8,24.87,19.35C1212.35,646.18,1236.92,629.53,1247.86,621.13Z" transform="translate(-27.34 -396.19)"/><path class="cls-6" d="M1274.08,860.09c-31-6.15-126.17-27.45-134.56-32.4-1.34-8.7-3.74-17.25-8.69-24.6-1.35-2-2.69-3.75-4.2-5.55-8.83-11.25-16.78-23.55-21.27-37.21a10.42,10.42,0,0,0-.75-2,229.31,229.31,0,0,1,.45-32,126,126,0,0,1,19.93-3.6l3-.45c32.22-4,65-6.3,97.1-2.25a201.16,201.16,0,0,1,23.08,4c2.1.45,4,.9,6.14,1.5-1.64,13.35-1.5,27,4.5,38.86a7.59,7.59,0,0,1,.45,8,40.2,40.2,0,0,0,1.35,29c3,6.75,7.64,12.45,11.68,18.6,3.3,5.1,6.14,11,6.59,16.8a29.4,29.4,0,0,0-6.29,5.85c-2.7,3.3-4.34,7.8-3.29,11.85C1269.88,857.24,1271.68,859.64,1274.08,860.09Z" transform="translate(-27.34 -396.19)"/><path class="cls-5" d="M1000.92,792.29a8.13,8.13,0,0,1-1.2,4.5,2.07,2.07,0,0,1-.45.6,12.54,12.54,0,0,1-11.84,5,12.85,12.85,0,0,1-5.69-2.4,11.71,11.71,0,0,1-3.6-4.5h.15a6.9,6.9,0,0,1-.6-4.2,7,7,0,0,1,2.4-3.6,14.61,14.61,0,0,1,3.6-2.25,15.38,15.38,0,0,1,12.58,1.05C998.52,787.79,1000.77,789.74,1000.92,792.29Z" transform="translate(-27.34 -396.19)"/><path class="cls-5" d="M999.57,825.44c.15,2.25.15,4.65-1.2,6.45a6.2,6.2,0,0,1-4.64,2.4,6,6,0,0,1-2.25-.45,9.2,9.2,0,0,1-5.1-5.7,11.76,11.76,0,0,1-.3-5.1l.45.45a11.25,11.25,0,0,0,11.09,2.7,5.68,5.68,0,0,0,2-.9Z" transform="translate(-27.34 -396.19)"/><path class="cls-5" d="M1015,748.78c-22.77-1-39.26-3.6-40.75-6.75l-.15-.45c0-3.15,15-5.7,36.56-7.05C1014,738.58,1015.9,743.68,1015,748.78Z" transform="translate(-27.34 -396.19)"/><path class="cls-5" d="M1003.62,820.49a9.42,9.42,0,0,1-4,4.65c-.6.3-1.2.6-2,.9a11.25,11.25,0,0,1-11.09-2.7l-.45-.45a11.16,11.16,0,0,1-2.24-10.5,12.61,12.61,0,0,0,5.09,2.1,13.12,13.12,0,0,0,9.14-2,10.43,10.43,0,0,0,3.45-4.2C1003.47,812.24,1005.11,816.59,1003.62,820.49Z" transform="translate(-27.34 -396.19)"/><path class="cls-5" d="M1002.57,804.44a8.75,8.75,0,0,1-.9,3.9,10.43,10.43,0,0,1-3.45,4.2,13,13,0,0,1-9.14,2,12.61,12.61,0,0,1-5.09-2.1,10.79,10.79,0,0,1-2.7-3.15,12.51,12.51,0,0,1-.9-5.25,7.27,7.27,0,0,1,1.35-4,12.41,12.41,0,0,0,17.53-2.55A9,9,0,0,1,1002.57,804.44Z" transform="translate(-27.34 -396.19)"/><path class="cls-8" d="M1099.06,741.88l-4.34,20.4-7.35,34.36v.15c-16.47-4.8-32.66-11.1-49.74-12.45-2.25-.15-5.09,0-6.14,2.1a5.43,5.43,0,0,0,0,3.45c1.49,4.2,5.84,6.75,9.74,8.85,10.48,5.4,21.57,9.75,32.66,14a409.71,409.71,0,0,0-43-8c-3.15-.45-6.3-.75-9.29.45a4.83,4.83,0,0,0-2.4,7.95,13.28,13.28,0,0,0,4.2,3.45,39.32,39.32,0,0,0,4.34,2.4,10.74,10.74,0,0,0-5.24,2.1,6.54,6.54,0,0,0-2,2.1c-.75,1.8.15,3.75,1.2,5.25a17.66,17.66,0,0,0,6.29,4.65,70.06,70.06,0,0,0,10.79,3.6c11.54,3,22.92,6.15,34.46,9.15-13.78,1.2-27.57-2-41.2-.9-2.1.15-4.5.75-5.25,2.7a4.35,4.35,0,0,0,0,2.4c1.05,3.45,5,5.25,8.54,6.3,12.29,3.6,25.48,3.45,38.36,4.95l-1.34,6.45s-5.4,4.8-35.82,4.8-35.66-4.8-35.66-4.8l-7-33.6v-.3a5.75,5.75,0,0,0,4.64-2.4c1.2-1.8,1.2-4.2,1.2-6.45l-.15-.15a9.42,9.42,0,0,0,4-4.65c1.49-3.9-.15-8.4-2-12.15a8.75,8.75,0,0,0,.9-3.9,9,9,0,0,0-3.3-7c.15-.15.3-.45.45-.6a6.08,6.08,0,0,0,1.2-4.5c-.3-2.55-2.4-4.5-4.65-5.7a15.38,15.38,0,0,0-12.58-1l-.45-1.2-9-42.31c1.49,3.15,18,5.7,40.75,6.75,1.8.15,3.75.15,5.7.15s3.89.15,5.84.15c3.3,0,6.74.15,10.19.15h5.55c3.59,0,7-.15,10.48-.15C1078.38,748,1097.57,745.33,1099.06,741.88Z" transform="translate(-27.34 -396.19)"/><path class="cls-9" d="M1103.86,800.69a152,152,0,0,1-16.33-3.9v-.15l7.34-34.36,1.35.3c-.15,1-.3,2.25-.45,3.3C1095,777.89,1099.51,789.59,1103.86,800.69Z" transform="translate(-27.34 -396.19)"/><path class="cls-9" d="M1066,520.47c-.9,18.75-10.94,36.6-9.74,55.35.6,9.75,4.34,19.2,6.44,28.81a62.64,62.64,0,0,1,1.65,11.85c.3,11.4-3.89,22.65-9.59,32.55s-13.18,19.2-14.83,30.45c-1.8,12.15,3.59,24.15,6.74,36.15,3,11.4,3.45,25.2-4.5,33.45h-5.54c-3.45,0-6.89,0-10.19-.15a44.1,44.1,0,0,0-2.25-26.4c-6.59-15.9-22.62-27.6-25.62-44.7-1.95-10.8,2-21.9,7.34-31.35,3.6-6.15,7.79-12.15,11.09-18.6,0-.15.15-.15.15-.3a37.66,37.66,0,0,0,4.2-14c1.49-16.81-11.39-31.36-14.84-47.86-3.14-15.3,2.1-31.35,10.34-44.55,4.2-6.9,9.29-13.5,11.84-21.15,4.19-12.9.6-27.45-6.29-39.15C1048,467.52,1067.3,493.92,1066,520.47Z" transform="translate(-27.34 -396.19)"/><path class="cls-10" d="M1026.54,749.08c-2,0-3.89-.15-5.84-.15.75-11.7-8.24-21.9-17.68-29.25-9.74-7.5-21-14.25-26.08-25.35-4.49-9.75-3.44-21-1.49-31.8.44-2.4.89-4.95,1.34-7.35,2.55-13,4.05-27.75-3.59-38.55-3.9-5.55-9.89-9.3-15-14a53.88,53.88,0,0,1-15.88-27.31c-4.64-20.1,2.4-42-4.64-61.5a45.08,45.08,0,0,0-30-27.75c16-1.2,33.41-1.5,46.9,7.2,15.28,9.75,22,28.8,23.52,46.95.75,9.15.75,18.9,6.15,26.25,4.34,5.85,11.23,9,16.78,13.35,13.93,10.8,20.08,30.76,14.68,47.56l.75.45c-3.15,6.3-7.49,12.3-11.09,18.6-5.39,9.6-9.14,20.55-7.34,31.35,3,17.1,19,28.8,25.77,44.7A41.57,41.57,0,0,1,1026.54,749.08Z" transform="translate(-27.34 -396.19)"/><path class="cls-5" d="M1099.21,741.58l-.15.45c-1.49,3.3-20.68,6.15-46.45,7.05a35.22,35.22,0,0,0,11.54-14.4l.3.15C1085.13,735.88,1099.21,738.43,1099.21,741.58Z" transform="translate(-27.34 -396.19)"/><path class="cls-10" d="M1128,549.57c-4.34,8.4-10.93,15.6-14.08,24.6-2.55,7.5-2.55,15.45-2.25,23.4.3,9.91.9,19.81-3,28.66-.45,1-1.05,2.1-1.5,3.15-5.69,9.9-16,16.65-24.72,24.6-5.09,4.65-9.58,9.6-12.14,15.9-4.19,10.35-2.54,21.6-1.49,33,.3,3.15.45,6.45.45,9.6a51.27,51.27,0,0,1-4.8,22,37.56,37.56,0,0,1-11.54,14.4c-3.29.15-6.89.15-10.49.15,8.1-8.25,7.65-22.2,4.5-33.45-3.15-12-8.54-23.85-6.74-36.15,1.64-11.25,9.14-20.55,14.83-30.45s9.89-21.15,9.59-32.55a62.62,62.62,0,0,0-1.64-11.85c7.78-5.71,10.48-16.21,11.23-25.81.9-10.05.3-20.55,4.64-29.7,5.25-11.1,16.49-17.85,26.23-25.2,9.89-7.35,19.48-17.55,19-29.85a45.43,45.43,0,0,1,4.79,8.25A54.94,54.94,0,0,1,1128,549.57Z" transform="translate(-27.34 -396.19)"/><path class="cls-9" d="M1020.7,748.93c-2,0-3.9-.15-5.7-.15.9-4.95-1-10.2-4.34-14.25a22.81,22.81,0,0,0-4.8-4.5c-6.44-4.5-14.23-6.3-21.72-8.25s-15.29-4.5-20.83-10a36,36,0,0,1-6.15-8.85c-4.79-8.7-8.54-18.15-13.63-26.7s-11.69-16.8-20.53-21.3-20.53-4.8-28.47,1.2c3-6.15,9.29-9.9,15.73-12.45,10.19-4,21.58-5.7,32.22-2.85,9.29,2.55,17.23,8.4,24.72,14.25a44.22,44.22,0,0,1,8.24,7.65c-1.94,10.8-3.14,22.05,1.5,31.8,5.1,11.1,16.49,17.85,26.08,25.35C1012.46,727,1021.45,737.23,1020.7,748.93Z" transform="translate(-27.34 -396.19)"/><path class="cls-11" d="M1215.64,450.27c-1.05,4.2-1.79,8.25-3,12.45a77.43,77.43,0,0,1-4.94,12,69.31,69.31,0,0,1-16.18,19.95c-1.06.9.45,2.4,1.5,1.5a65,65,0,0,0,16.63-20.55c4-7.5,7.34-16.5,7.19-25.05C1216.69,449.82,1215.79,449.52,1215.64,450.27Z" transform="translate(-27.34 -396.19)"/><path class="cls-11" d="M1217.89,451c4,2.25,8.24,3.9,11.83,6.9a38.92,38.92,0,0,1,9.15,10.05c5.69,8.85,6.44,19.8,9.89,29.55,1.64,4.8,4,10.2,8.09,13.65.9.75,1.79-.3,1.2-1.2a42.6,42.6,0,0,1-7.2-13.65c-1.49-5.25-2.39-10.5-3.74-15.75-2.55-9.45-7.19-17.85-15-24-3.89-3-8.69-6-13.63-6.6C1217.74,449.82,1217.14,450.72,1217.89,451Z" transform="translate(-27.34 -396.19)"/><path class="cls-11" d="M1259.4,510.72c1.94-3.75,6.59-6,10.63-5.85,4.65.15,8.7,3.45,11,7.35,5.39,9.75,0,21.45-6.45,29.1-3.44,4.2-7.94,7.95-13.64,8.25a1.2,1.2,0,0,0,0,2.4c5.55-.3,10.34-3.6,14.09-7.65,4-4.5,7.64-9.9,9.29-15.75s1.65-12.3-1.35-17.55a16.42,16.42,0,0,0-12-8.25,12.94,12.94,0,0,0-7.79,1.65,10.58,10.58,0,0,0-4.94,5.85C1258.05,510.87,1259.09,511.32,1259.4,510.72Z" transform="translate(-27.34 -396.19)"/><path class="cls-11" d="M1274.38,517a24.24,24.24,0,0,0-4.64,5,24.78,24.78,0,0,0-3.15,6.3,34.45,34.45,0,0,0-1.8,6.75,21.32,21.32,0,0,0-.15,6.9,1.07,1.07,0,0,0,2.1-.3c.15-2.1,0-4.35.3-6.45a28.63,28.63,0,0,1,1.65-6.15,27.86,27.86,0,0,1,2.85-5.7,45.1,45.1,0,0,1,3.89-5.55C1275.73,517.32,1275,516.57,1274.38,517Z" transform="translate(-27.34 -396.19)"/><path class="cls-11" d="M1216.84,417.26c3.75.6,7.64,1.35,11.39,2.25s7.34,1.95,10.93,3.15a72.22,72.22,0,0,1,19.34,10.2,56.67,56.67,0,0,1,14.23,15c4,6.15,6.45,13.05,8.39,20.1s3.45,14.7,6,21.75a208.73,208.73,0,0,0,8.83,19.5c6.6,12.9,13.5,25.95,15,40.65a71.73,71.73,0,0,1-11.09,45.9c-.89,1.35,1.2,2.55,2.25,1.2a72,72,0,0,0,11.84-41.25c-.3-15.15-6-28.8-12.74-42.15-3.45-6.75-7-13.35-9.89-20.25a149.06,149.06,0,0,1-6.74-22.5c-1.8-7.35-3.9-14.7-7.79-21.3a63,63,0,0,0-13-15.76,73.11,73.11,0,0,0-20.53-12.3,79.44,79.44,0,0,0-12.88-3.9c-2.25-.45-4.35-.9-6.59-1.2s-4.2-.3-6.45-.45C1216.24,415.76,1216.09,417.11,1216.84,417.26Z" transform="translate(-27.34 -396.19)"/><path class="cls-11" d="M1300.9,577.47a39.8,39.8,0,0,1-3.74,9c-.76,1.35-1.66,2.7-2.55,4s-2.25,2.55-3,3.9c-.6.9.6,2.25,1.5,1.5a16.25,16.25,0,0,0,3.29-3.9,35.72,35.72,0,0,0,2.7-4.5,32.58,32.58,0,0,0,3.3-9.75C1302.85,576.87,1301.2,576.42,1300.9,577.47Z" transform="translate(-27.34 -396.19)"/><path class="cls-11" d="M1294.16,577.77a66.4,66.4,0,0,1-5.4,8.85c-.9,1.35-1.94,2.7-3,4s-2.55,2.56-3.45,4.06a1.21,1.21,0,0,0,1.65,1.64,15.45,15.45,0,0,0,3.75-3.9,41.11,41.11,0,0,0,7.94-14A.84.84,0,0,0,1294.16,577.77Z" transform="translate(-27.34 -396.19)"/><path class="cls-11" d="M1283.07,576.87c-3.15,7-8.24,12.9-14.09,17.85-1,.9.31,2.71,1.5,1.95a38.32,38.32,0,0,0,8.55-8.55,47.88,47.88,0,0,0,5.69-10.5C1285,576.72,1283.52,576,1283.07,576.87Z" transform="translate(-27.34 -396.19)"/><path class="cls-11" d="M1269.14,579.12a22.18,22.18,0,0,1-3.15,7.2,14.26,14.26,0,0,1-2.25,3c-.9,1-2,1.95-2.85,3-.74.9.31,2.4,1.35,1.65a17.71,17.71,0,0,0,5.55-6.45,24.93,24.93,0,0,0,2.69-7.95C1270.78,578.52,1269.29,578.22,1269.14,579.12Z" transform="translate(-27.34 -396.19)"/><path class="cls-11" d="M1121.39,568.77c-4.2,7.8-4.49,18,.45,25.51a1.15,1.15,0,0,0,2-1.2c-3.9-7.21-4.65-16.06-1.2-23.56C1123,568.62,1121.84,567.87,1121.39,568.77Z" transform="translate(-27.34 -396.19)"/><path class="cls-11" d="M1129.33,572.82a30.73,30.73,0,0,0,.3,11.7,32.59,32.59,0,0,0,1.8,5.4,18.19,18.19,0,0,0,3,5.25c.74.76,2.4,0,2-1.2-.6-1.65-1.65-3.15-2.4-4.8a31,31,0,0,1-1.8-5.25,38.27,38.27,0,0,1-1-10.95C1131,572.07,1129.48,571.77,1129.33,572.82Z" transform="translate(-27.34 -396.19)"/><path class="cls-11" d="M1140,574.32a35.72,35.72,0,0,0,1,10.5,26.32,26.32,0,0,0,1.8,4.8c.75,1.5,1.65,3.46,3,4.5a1.13,1.13,0,0,0,1.8-1.35c-.61-1.5-1.66-2.7-2.4-4.2a29.17,29.17,0,0,1-2-4.5,30,30,0,0,1-1.65-9.6C1141.62,573.27,1140,573.27,1140,574.32Z" transform="translate(-27.34 -396.19)"/><path class="cls-11" d="M1150.91,582a28.74,28.74,0,0,0,6.74,9.45,1.27,1.27,0,1,0,1.8-1.8,27.57,27.57,0,0,1-7-8.55.79.79,0,0,0-1.2-.3A.94.94,0,0,0,1150.91,582Z" transform="translate(-27.34 -396.19)"/><path class="cls-11" d="M1217.59,414.11a18.39,18.39,0,0,0-.75-9.45,22.67,22.67,0,0,0-1.95-4.35,12.49,12.49,0,0,0-3-3.9c-.9-.75-2,.6-1.5,1.5.6,1.2,1.65,2.4,2.39,3.6a18.41,18.41,0,0,1,1.8,3.9,27.54,27.54,0,0,1,1.35,8.55C1215.79,414.86,1217.29,415.16,1217.59,414.11Z" transform="translate(-27.34 -396.19)"/><path class="cls-11" d="M1214,411.86a16.93,16.93,0,0,0-4.64-4.65,17.49,17.49,0,0,0-6.15-2.7,1.16,1.16,0,0,0-.59,2.25,22.81,22.81,0,0,1,10,6.15C1213.24,413.51,1214.59,412.61,1214,411.86Z" transform="translate(-27.34 -396.19)"/><path class="cls-11" d="M1208.15,412a27.39,27.39,0,0,0-13-.15c-1.35.3-.74,2.25.6,2.1a29.39,29.39,0,0,1,12,.15C1208.9,414.26,1209.35,412.31,1208.15,412Z" transform="translate(-27.34 -396.19)"/><path class="cls-11" d="M1260.6,554.07a50.94,50.94,0,0,0-5.25,8.7,68.53,68.53,0,0,0-3.3,9.3,70.81,70.81,0,0,0-1.64,9.45c-.31,3.3-.6,6.9.14,10.05.16,1,1.8.75,1.8-.3.15-3.15-.14-6.15.15-9.3a69.63,69.63,0,0,1,1.65-9.75,62.63,62.63,0,0,1,7.5-17.55A.61.61,0,0,0,1260.6,554.07Z" transform="translate(-27.34 -396.19)"/><path class="cls-11" d="M1253.11,581.37a20.66,20.66,0,0,0,.45,7.5,1.06,1.06,0,0,0,1.34.75,1.07,1.07,0,0,0,.75-1.35,21.29,21.29,0,0,1-.9-6.9.71.71,0,0,0-.75-.75C1253.4,580.62,1253.25,580.92,1253.11,581.37Z" transform="translate(-27.34 -396.19)"/><path class="cls-11" d="M1250.26,595.32a65.69,65.69,0,0,0-.16,7.81,69.27,69.27,0,0,0,1.06,7.65c.29,1.35,2.24.75,1.94-.6a60.19,60.19,0,0,1-1-7.5c-.15-2.55-.45-5-.45-7.51C1251.6,594.42,1250.4,594.42,1250.26,595.32Z" transform="translate(-27.34 -396.19)"/><path class="cls-11" d="M1177.58,594.42c-1.8,5.25-3,10.51-4.49,15.76s-3.6,10.35-5.1,15.6c-.3,1.2,1.5,2,2,.9a121.67,121.67,0,0,0,5.24-15.9,100.81,100.81,0,0,0,3.6-16.21C1178.93,594,1177.88,593.82,1177.58,594.42Z" transform="translate(-27.34 -396.19)"/><path class="cls-11" d="M1156.16,497.82c.59,13.05-5,25.05-7.5,37.65a46.53,46.53,0,0,0-.45,18.75,55.77,55.77,0,0,0,7,18.15,88.28,88.28,0,0,0,12.43,15.6,73.6,73.6,0,0,0,14.54,11.85c11.53,6.76,25,5.26,36.86.16s23.22-13.66,30-24.91c.75-1.2-1-2.1-1.8-1.05-6.89,9.3-15.14,17-25.47,22.2-11.24,5.56-24.88,8.56-36.57,2.56a59.22,59.22,0,0,1-14.08-11,85.77,85.77,0,0,1-12.14-14.4,54.1,54.1,0,0,1-7.64-17.55,45.71,45.71,0,0,1-.15-18.6c2.55-13,9.14-25.8,6.89-39.45A1,1,0,0,0,1156.16,497.82Z" transform="translate(-27.34 -396.19)"/><path class="cls-11" d="M1195.56,509.07a57.18,57.18,0,0,1-5.09,13.95,49.91,49.91,0,0,1-8.84,12c-3,3.15-5.25,7.2-3.45,11.55s6.59,7,10.94,8.4c1.65.45,2.7-2,1.2-2.7-3.9-1.95-9.59-3.6-9.74-8.85-.15-4.2,4.49-7.5,6.74-10.5a44.91,44.91,0,0,0,9.74-23.7C1197.36,508.32,1195.71,508.17,1195.56,509.07Z" transform="translate(-27.34 -396.19)"/><path class="cls-11" d="M1213.24,513c.9-.3,2-.45,2.85-.75a16.39,16.39,0,0,1,2.55-.75,24.52,24.52,0,0,1,5.69-.6,16.34,16.34,0,0,1,9.89,4.2c1.65,1.5,4-.9,2.4-2.4a21.64,21.64,0,0,0-11.84-5.1,19.35,19.35,0,0,0-6.59.75,17.88,17.88,0,0,0-3,1.2l-1.34.9c-.45.45-.76.9-1.21,1.35S1212.5,513.27,1213.24,513Z" transform="translate(-27.34 -396.19)"/><path class="cls-11" d="M1213.54,502.47c.9-.3,2-.45,3-.75s1.65-.6,2.55-.9a24.76,24.76,0,0,1,5.69-.75,18.13,18.13,0,0,1,5.7.9c1.94.6,3.44,1.8,5.24,2.4,1.65.6,2.7-1.65,1.65-2.7-1.5-1.5-4-2.4-6-3a24.34,24.34,0,0,0-6.6-1.05,19.31,19.31,0,0,0-6.44,1.05,10.83,10.83,0,0,0-3,1.35,18.83,18.83,0,0,0-2.55,2.25C1212.35,501.87,1212.79,502.77,1213.54,502.47Z" transform="translate(-27.34 -396.19)"/><path class="cls-11" d="M1226.43,513.87a5.1,5.1,0,1,1-5.09-5.1A5,5,0,0,1,1226.43,513.87Z" transform="translate(-27.34 -396.19)"/><path class="cls-11" d="M1161.7,513c.89-.3,2-.45,2.85-.75a16,16,0,0,1,2.54-.75,24.55,24.55,0,0,1,5.7-.6,16.36,16.36,0,0,1,9.89,4.2c1.64,1.5,4-.9,2.39-2.4a21.61,21.61,0,0,0-11.83-5.1,19.44,19.44,0,0,0-6.6.75,18.11,18.11,0,0,0-3,1.2l-1.35.9c-.45.45-.75.9-1.2,1.35S1161.1,513.12,1161.7,513Z" transform="translate(-27.34 -396.19)"/><path class="cls-11" d="M1162,502.47c.9-.3,1.94-.45,3-.75s1.65-.6,2.55-.9a24.78,24.78,0,0,1,5.7-.75,18.12,18.12,0,0,1,5.69.9c2,.6,3.44,1.8,5.25,2.4,1.64.6,2.7-1.65,1.64-2.7-1.5-1.5-4-2.4-6-3a24.21,24.21,0,0,0-6.59-1.05,19.37,19.37,0,0,0-6.45,1.05,10.77,10.77,0,0,0-3,1.35,18.25,18.25,0,0,0-2.55,2.25C1161,501.72,1161.4,502.62,1162,502.47Z" transform="translate(-27.34 -396.19)"/><path class="cls-11" d="M1169.94,518.82a5.1,5.1,0,1,0-5.1-5.1A5.1,5.1,0,0,0,1169.94,518.82Z" transform="translate(-27.34 -396.19)"/><path class="cls-7" d="M1236.47,555.57a14.1,14.1,0,1,0-14.08-14.1A14.09,14.09,0,0,0,1236.47,555.57Z" transform="translate(-27.34 -396.19)"/><path class="cls-7" d="M1203.51,573.27a7.8,7.8,0,1,0-7.8-7.8A7.79,7.79,0,0,0,1203.51,573.27Z" transform="translate(-27.34 -396.19)"/><path class="cls-11" d="M1192,568.47a22.83,22.83,0,0,0,3.14.45,22.38,22.38,0,0,0,3.15-.3,28,28,0,0,0,6-2,27,27,0,0,0,9.89-8.1c1.2-1.65-1.5-3.3-2.69-1.65a24.48,24.48,0,0,1-13.79,9.15c-.9.15-1.79.45-2.69.6a26.93,26.93,0,0,1-3,.6A.6.6,0,0,0,1192,568.47Z" transform="translate(-27.34 -396.19)"/><path class="cls-11" d="M1127.53,669.58c-3,4.65-4.79,10-6.89,15.15-2.25,5.4-4.5,10.65-6.74,16-2.1,5.1-4.35,10.35-6.44,15.45-1.8,4.5-3.3,9.45-2.4,14.4.74,3.6,2.85,7.35,6.14,9.15,3.59,2.1,8.09,1.5,11.54-.9,3.75-2.55,5.84-6.6,7-10.8,1.35-5.1,2-10.35,3-15.45a240.35,240.35,0,0,1,10-35.55c.6-1.65-2-2.25-2.55-.75a216.38,216.38,0,0,0-8.69,28.5c-1.2,4.8-2.1,9.75-3,14.7-.74,4.35-1.34,8.85-3.59,12.75-2,3.45-5.85,6.6-10,5.85-3.75-.75-6.14-4.35-6.9-7.8-1-4.65.6-9.3,2.25-13.65,1.8-4.65,3.75-9.3,5.7-13.95,2.25-5.4,4.34-10.8,6.59-16.05s4.94-10.8,6.29-16.5C1128.88,669.43,1128,669,1127.53,669.58Z" transform="translate(-27.34 -396.19)"/><path class="cls-11" d="M1233.18,670c-.61,2.55-1.51,5.1-2.25,7.65-.76,2.85-1.35,5.55-2,8.4-1.2,5.4-2.1,10.8-3,16.35a131.42,131.42,0,0,0-1.5,15.45c-.15,4.8,0,9.75,2,14.25,1.65,3.75,4.35,7.2,8.39,8.7,3.6,1.35,7.79,1,10.64-1.65,3.45-3.3,3.6-8.25,3.75-12.75,0-5.4.15-10.95.15-16.35.15-12.75.15-25.5.15-38.25,0-1.35-2.1-1.35-2.25,0-.15,10.2-.3,20.25-.6,30.45-.15,5.1-.15,10.2-.15,15.3v6.9a35.89,35.89,0,0,1-.45,7.95c-.9,4.35-4,7.5-8.54,6.6-4-.75-6.9-3.9-8.54-7.5-1.8-4.2-2-8.85-1.8-13.35.3-4.95.75-9.9,1.5-14.7.75-5.55,1.8-11,2.84-16.35.45-2.55,1-5.25,1.66-7.8.59-2.85.89-5.7,1.49-8.55C1234.82,669.58,1233.32,669.13,1233.18,670Z" transform="translate(-27.34 -396.19)"/><path class="cls-11" d="M1256.4,725.23c3-6.9,5.7-14,9.14-20.55,1.65-3.3,3.44-6.45,5.39-9.6,2-3.3,4.35-6.45,6.3-9.75.74-1.35-1-2.85-2.1-1.65a78.32,78.32,0,0,0-6.29,9.45c-1.95,3.3-3.9,6.75-5.7,10.2-3.44,6.9-6.59,13.95-8.24,21.45C1254.9,725.53,1256.1,726.13,1256.4,725.23Z" transform="translate(-27.34 -396.19)"/><path class="cls-11" d="M1253.56,715.78a91.3,91.3,0,0,1,6.29-24.45c.59-1.5-1.8-2.1-2.4-.6a75.89,75.89,0,0,0-5.55,25C1251.76,716.83,1253.4,716.83,1253.56,715.78Z" transform="translate(-27.34 -396.19)"/><path class="cls-11" d="M1253.7,744.43a17.17,17.17,0,0,0,.45,14.1c2.1,4.8,5.7,8.55,9.74,11.7,4.35,3.3,9.14,6,13.63,9a51.91,51.91,0,0,1,6.3,5,43.29,43.29,0,0,1,5.39,6.45,1.31,1.31,0,0,0,2.25-1.35c-1.94-4.35-6.14-7.8-9.89-10.5-4-3-8.54-5.56-12.73-8.41-4.35-2.85-8.54-6.3-11.24-10.8-2.55-4.2-3.9-9.75-2.55-14.7C1255.35,744.28,1254,743.68,1253.7,744.43Z" transform="translate(-27.34 -396.19)"/><path class="cls-11" d="M1261.65,767.23c-2.85,4.8-4.2,10.66-5,16.21a39.34,39.34,0,0,0,.9,16.2c2.7,9.3,9.44,16.2,14.53,24,2.7,4.35,5.25,9,5.84,14.1.16.75.61,1.5,1.5,1.5a51,51,0,0,1,26.08,6.45,52.74,52.74,0,0,1,19.18,18.9c.9,1.5,3,.15,2.25-1.35-8.7-17.1-28.63-27.6-47.51-27l1.51,1.5c-1.06-9-6.45-16.2-11.69-23.4a61.25,61.25,0,0,1-7.19-11.55,33.84,33.84,0,0,1-2.7-15.9,49.6,49.6,0,0,1,1.35-9.45c.74-3.15,1.8-6.3,2.39-9.61C1263.14,766.94,1262.1,766.48,1261.65,767.23Z" transform="translate(-27.34 -396.19)"/><path class="cls-11" d="M1333.42,914.24c-.3-20.55-12.59-40.5-28.62-52.65a64.69,64.69,0,0,0-15.28-8.85c-1.35-.6-2.4,1.8-1.06,2.55,9,4.35,17.09,9.75,24,17.25a73.6,73.6,0,0,1,15.28,25.8,86.22,86.22,0,0,1,3.75,16.35C1331.77,915.44,1333.42,915.29,1333.42,914.24Z" transform="translate(-27.34 -396.19)"/><path class="cls-11" d="M1104.31,799.64c-3.6-2.25-8.24-3-12.29-4.2l-13-3.6c-8.84-2.4-17.69-4.65-26.53-6.6a73,73,0,0,0-12.73-2.25c-3-.15-7.34-.45-8.84,2.7-1.35,2.85.45,6.15,2.54,8.25,2.4,2.55,5.7,4.2,8.85,5.55,9.14,4,18.28,8.25,27.56,12,1.06.45,2-1.5.9-2-7.33-3.45-15-6.75-22.47-10a63.4,63.4,0,0,1-9.14-4.35c-2.55-1.5-6-4.2-5.85-7.35.15-3.75,7.8-2.1,10-1.8,3.9.6,7.8,1.5,11.69,2.4,7.79,1.8,15.59,3.75,23.23,5.85l13,3.6c4.19,1.2,8.68,3,13,3.15C1104.76,801,1104.91,800.09,1104.31,799.64Z" transform="translate(-27.34 -396.19)"/><path class="cls-11" d="M1076.59,812.09c-2.25-1.5-5.25-2-7.79-2.55-2.85-.75-5.85-1.35-8.69-1.95-5.7-1.2-11.54-2.25-17.39-3.45-6-1-25.62-5.7-24.57,6,.45,5.25,5.54,8.1,10,9.6a1.09,1.09,0,0,0,.9-2c-2.25-1.2-4.65-2.1-6.44-4-1.65-1.8-2.7-5.1-.45-6.9,1.94-1.65,5.24-1.5,7.64-1.35a74.34,74.34,0,0,1,9.89,1.2c6.14,1,12.28,2.25,18.28,3.45,3,.6,6.14,1.2,9.14,2,2.85.6,6.14,1.8,9.14,1.65C1077,813.44,1077.34,812.54,1076.59,812.09Z" transform="translate(-27.34 -396.19)"/><path class="cls-11" d="M1074.64,830.84a215.53,215.53,0,0,0-22.93-7.65c-7.34-2.25-15-5.25-22.77-5.4-3.15,0-6.29.6-8.39,3.15a5.93,5.93,0,0,0,.15,7.8c2.1,2.55,5.54,3.6,8.39,4.8q5.61,2.25,11.24,4.05c8.39,2.7,16.93,5.25,25.62,7.2a.86.86,0,0,0,.45-1.65c-13-4.2-26.37-7.5-39-13.2-2.4-1.05-6.74-3.15-5.24-6.6,1.34-3,5.39-3,8.09-2.7,6.89.45,13.63,3.15,20.23,5.1,7.79,2.4,15.43,5.1,23.37,6.6C1074.94,832.49,1075.69,831.29,1074.64,830.84Z" transform="translate(-27.34 -396.19)"/><path class="cls-11" d="M1048,844.79a29.82,29.82,0,0,0-14.09-1.2c-2.84.45-8.54.9-9,4.8s5.1,6.45,7.94,8a58.38,58.38,0,0,0,12.44,4.35c9.29,2.1,18.88,2.25,28.32,3.3a82.06,82.06,0,0,1,14.68,3c4.65,1.35,9.15,3.15,13.64,5,10,3.9,21,7.65,31.92,5.85,1.2-.15.9-2.25-.3-2.1-9.14.75-17.68-1.5-26.22-4.65-8.1-3-16-6.45-24.58-8.4-16.48-3.6-34.61-1-49.75-9.3-1.64-.9-4.34-2.1-5.24-3.75-1.2-2.1,4-2.7,5.09-3a48.3,48.3,0,0,1,14.69-.45C1048.57,846.14,1048.57,845.09,1048,844.79Z" transform="translate(-27.34 -396.19)"/><path class="cls-11" d="M1135.48,873.59a31.33,31.33,0,0,0,1.35-3.9c.45-1.35.74-2.55,1.19-3.9.75-2.7,1.65-5.25,2.55-7.95.6-1.5-1.94-2.25-2.39-.75-.9,2.55-1.8,5.25-2.56,7.95-.29,1.35-.74,2.7-1,3.9a18.88,18.88,0,0,0-.6,4C1134,873.89,1135.17,874.34,1135.48,873.59Z" transform="translate(-27.34 -396.19)"/><path class="cls-11" d="M984.74,784.34c-2.1-1.05-5,.75-6.3,2.25a8.66,8.66,0,0,0-2.1,7.35c.75,5.1,6.15,8.1,10.94,8.1,3.6,0,6.9-1.2,10.19-2.4A.86.86,0,0,0,997,798c-5.09,1.35-11.83,3.3-16.18-.9a6.23,6.23,0,0,1-1.5-7.05,5.64,5.64,0,0,1,2.25-2.7c1-.75,2.4-.9,3.3-1.65A.86.86,0,0,0,984.74,784.34Z" transform="translate(-27.34 -396.19)"/><path class="cls-11" d="M981,799.19a9.23,9.23,0,0,0-1,4.95,11.83,11.83,0,0,0,.75,4.5,9.34,9.34,0,0,0,5.69,5.7,12.92,12.92,0,0,0,8.54-.6c2.7-1,5.4-2.55,7.05-5a7.22,7.22,0,0,0,.15-8.85c-.6-.75-1.8.15-1.35,1,1.5,2.85.15,6.15-2.1,8.1a14,14,0,0,1-8.09,3.45c-3,.3-5.84-.75-7.34-3.45a9.61,9.61,0,0,1-1.2-4.5c0-1.65.6-3.45.3-5.1C982.34,798.74,981.29,798.74,981,799.19Z" transform="translate(-27.34 -396.19)"/><path class="cls-11" d="M984,811.34a7.86,7.86,0,0,0-1.35,7.65,10.39,10.39,0,0,0,5.54,6c5.1,2.25,12.44,1.65,15.88-3.3a7.43,7.43,0,0,0,0-8.7c-.74-.9-2.09.3-1.64,1.2a6.18,6.18,0,0,1-1.35,7.2,10.38,10.38,0,0,1-8.09,2.25c-2.7-.3-5.7-1.5-7.35-3.75a7.4,7.4,0,0,1-.74-7.8C985.48,811.64,984.58,810.74,984,811.34Z" transform="translate(-27.34 -396.19)"/><path class="cls-11" d="M985.63,822a3.42,3.42,0,0,0-.45,1.65v1.65a7.83,7.83,0,0,0,.6,3.15,9.61,9.61,0,0,0,3.3,4.8,7.35,7.35,0,0,0,5.24,1.65,6,6,0,0,0,4.8-2.55c.6-.9-.75-2-1.5-1.2a4.79,4.79,0,0,1-3.59,1.65,5.31,5.31,0,0,1-3.9-1.5,9,9,0,0,1-2.85-6.45v-1.35a5.63,5.63,0,0,0-.15-1.5A.81.81,0,0,0,985.63,822Z" transform="translate(-27.34 -396.19)"/><path class="cls-11" d="M1011,733.33a150,150,0,0,0-21.73,1.95c-3.6.45-7.19,1.05-10.79,1.65-2.25.45-5.24,1.5-5.09,4.35,0,2.55,3,3.3,4.94,3.9,3.45.9,7,1.65,10.49,2.25a203.55,203.55,0,0,0,21.43,2.4c14.53.9,29.07.6,43.6.15,7.34-.15,14.54-.45,21.88-1.2a81.79,81.79,0,0,0,10.34-1.5,48.44,48.44,0,0,0,10.19-2.55c1.94-.9,4.19-2.85,2.84-5.25a4.4,4.4,0,0,0-3.14-2c-1.8-.6-3.75-1-5.7-1.5a131.07,131.07,0,0,0-24.12-3.15c-1,0-1,1.65,0,1.8a139.82,139.82,0,0,1,19.18,2.4c3,.6,6,1.35,8.84,2.1.9.3,4.2.9,3,2.4-.76.9-2.85,1-3.75,1.35-12.14,3-24.72,3.75-37.16,4.05-25.17.75-50.65,1.5-75.37-3.75-1.35-.3-3.3-.45-4.65-1.2-2.39-1.5,1-3,2.55-3.3,3.45-.6,6.89-1.2,10.49-1.65,7.34-1.05,14.54-1.5,21.88-2.4C1012,734.83,1012,733.33,1011,733.33Z" transform="translate(-27.34 -396.19)"/><path class="cls-11" d="M1214.14,416.21c-4.49-.9-9.73.15-14.23.6-4.8.6-9.59,1.35-14.24,2.4a63.51,63.51,0,0,0-23.22,10.35,47.48,47.48,0,0,0-15,19.66c-3.44,8.25-5.09,16.95-7,25.5-2.24,9.75-5.25,19.5-11.84,27.15-1,1.2.75,2.85,1.65,1.65,11.39-13,12.44-31.35,17.39-47.25,2.54-8.25,6.43-16,13-21.9,6-5.56,13.63-9.16,21.43-11.56a108.09,108.09,0,0,1,15.73-3.3c2.85-.45,5.7-.75,8.54-1.05a35.36,35.36,0,0,0,8-1.35C1214.75,417.26,1214.89,416.36,1214.14,416.21Z" transform="translate(-27.34 -396.19)"/><path class="cls-11" d="M1038.38,479.37c6.59,6.45,9.44,15.15,9.29,24.3-.15,10.5-4.35,20.4-8.24,29.85-4.2,9.9-8.54,19.65-9.89,30.45-1.2,9.9,1.35,19,5.24,28,3.75,8.7,8.09,17.56,8.24,27.16.15,8.1-3.29,15.6-7.64,22.2-8.39,12.6-21.13,24.6-20.83,41,.3,20.7,20.38,35.7,18.88,56.7a22.18,22.18,0,0,1-1.79,7.5c-.75,1.5,1.49,2.85,2.24,1.35,4.35-9.3,2.1-19.5-1.79-28.65-4.2-9.6-10.49-18.3-13.49-28.5-2.55-8.7-1.05-17.1,3.15-25.05,3.74-7,8.84-13.35,13.48-19.95,4.35-6.3,8.39-13.35,9.59-21,1.5-9.3-1.65-18.15-4.94-26.86-3.45-9.15-7.64-18.45-7.64-28.35,0-11.25,4.34-22,8.69-32.25,4-9.6,8.24-19.5,9-30.15.6-8.55-1.35-17.85-6.75-24.75a26.76,26.76,0,0,0-4.19-4.05C1038.53,478,1037.78,478.92,1038.38,479.37Z" transform="translate(-27.34 -396.19)"/><path class="cls-11" d="M1052.91,748.48c5.25-7.2,6.45-16.35,6.3-25.2-.15-9.45-2.25-18.6-3.45-27.9s-1.65-19,1.65-28c2.7-7.2,7.79-13.05,13-18.45,10.49-10.65,22.62-20.85,24.57-36.75,1.2-9.45-.9-18.91-1.35-28.21a44.83,44.83,0,0,1,1-14.1,40.54,40.54,0,0,1,5.55-12.15c5.39-8.4,12.88-15.3,18.43-23.55s10-18.45,7.79-28.8a1.4,1.4,0,0,0-2.7.75c3.9,19.2-14.24,33.45-24.13,47.4-5.09,7.2-8.54,15.15-9,24-.45,9.3,1.65,18.46,1.8,27.76a37.47,37.47,0,0,1-6.74,22.8c-4.2,6-9.74,11-15,16.2-5.09,5.1-10.18,10.5-13.78,16.95-4.35,8-5.54,17-5.1,25.8.45,10.5,3,20.85,3.9,31.35.9,10,.15,20.1-4.2,29.4A.77.77,0,1,0,1052.91,748.48Z" transform="translate(-27.34 -396.19)"/><path class="cls-11" d="M933.64,496.17c8.69,1.05,15.58,7.05,19,15,4.34,9.75,3.3,21,2.7,31.2-.6,9.9-.9,20.25,3,29.55,3.15,7.5,9,13.35,14.69,18.75s12,10.8,16,17.71c4.5,8,4.65,17.1,3.15,26-1.5,9.3-4.5,18.3-5.55,27.6a45.9,45.9,0,0,0,5.25,26.7c9,17.1,26.67,30.3,29.37,50.4a39.85,39.85,0,0,1,.15,7.35c-.15,1.65,2.24,1.5,2.39,0,1.95-20.85-15.13-36.3-25.47-52.2-5.39-8.25-9.14-17.1-9-27.15.15-9.6,3-19,4.94-28.5,1.8-8.85,2.85-18.15-.59-26.85-3-7.65-8.69-13.66-14.54-19.21s-12.29-11-16.33-18.15c-5.1-9-5.1-19.5-4.65-29.55.6-10.65,1.65-21.9-2.09-32.25-2.85-7.5-8.7-14.55-16.64-16.95a13.39,13.39,0,0,0-6-.45C932.74,495,932.74,496,933.64,496.17Z" transform="translate(-27.34 -396.19)"/><path class="cls-11" d="M909.66,647.08a61.84,61.84,0,0,1,31.17,4.8,59.86,59.86,0,0,1,22.78,17.7,55.43,55.43,0,0,1,4.64,6.9c1.35,2.4,2.4,4.8,3.6,7.2.6,1.2,2.7.45,2.25-.9-1.35-4.65-4.35-9.15-7.05-13a65.73,65.73,0,0,0-10.33-11.1,59.41,59.41,0,0,0-28.77-13,58.73,58.73,0,0,0-8.85-.75,47.73,47.73,0,0,0-9.29,1C908.77,645.88,908.92,647.08,909.66,647.08Z" transform="translate(-27.34 -396.19)"/><path class="cls-11" d="M1139.52,779.84A356,356,0,0,1,1202.91,804c5.69,2.85,11.39,6,16.92,9,1.51.9,2.85-1.5,1.35-2.4a253.9,253.9,0,0,0-30.71-15.3,299.28,299.28,0,0,0-31.77-11.85c-6.14-2-12.58-3.45-18.88-5.1C1138.92,778.19,1138.47,779.69,1139.52,779.84Z" transform="translate(-27.34 -396.19)"/><path class="cls-11" d="M1177.88,810a151.53,151.53,0,0,1,18.13,8.1c2.85,1.5,5.7,3,8.4,4.65s5.54,3.75,8.38,5.25c1.35.75,3-1,1.8-2.25-2.4-2.25-5.54-3.75-8.39-5.4-3-1.65-6-3.3-9.14-4.8a167.21,167.21,0,0,0-18.73-7.35C1177.28,808,1177,809.54,1177.88,810Z" transform="translate(-27.34 -396.19)"/><path class="cls-11" d="M1244,754.93c-.15.75-.3,1.35-.45,2.1a11.58,11.58,0,0,0-.3,2.25,13.13,13.13,0,0,0-.3,2.4c0,.75-.3,1.8,0,2.4a1.45,1.45,0,0,0,1.2,1,1.14,1.14,0,0,0,1.35-.75,7.62,7.62,0,0,0,.45-2.55v-2.4c0-1.5-.15-3-.15-4.65a1,1,0,0,0-.9-.9A1.1,1.1,0,0,0,1244,754.93Z" transform="translate(-27.34 -396.19)"/><path class="cls-11" d="M1242.76,775.94a37.25,37.25,0,0,0-.3,8.1,1.35,1.35,0,0,0,2.7,0,73.11,73.11,0,0,0-.3-8.1A1.06,1.06,0,0,0,1242.76,775.94Z" transform="translate(-27.34 -396.19)"/><path class="cls-11" d="M1243.36,794.69a12.47,12.47,0,0,1-.3,2.55,14.55,14.55,0,0,0-.15,2.55c0,1.65-.14,3.45,0,5.1a1.35,1.35,0,0,0,2.7,0c.15-1.65,0-3.45,0-5.1,0-.9-.15-1.65-.15-2.55a16.7,16.7,0,0,1-.3-2.55A.9.9,0,1,0,1243.36,794.69Z" transform="translate(-27.34 -396.19)"/><path class="cls-11" d="M1244.11,816.74a31.35,31.35,0,0,1,.15,3.75c0,.6.15,1.2.15,1.8,0,.3.15.6.15.9a2.42,2.42,0,0,0,.45,1.35,1.33,1.33,0,0,0,1.5.6,1.14,1.14,0,0,0,.9-1.2,4.84,4.84,0,0,0-.16-2.1c-.14-.6-.14-1.2-.29-1.8l-.9-3.6C1245.76,815.39,1244,815.69,1244.11,816.74Z" transform="translate(-27.34 -396.19)"/><path class="cls-11" d="M1247.25,835.49v2.7a15.3,15.3,0,0,0,.16,2.7,17.68,17.68,0,0,0,.29,2.7,21.63,21.63,0,0,0,.45,2.85,1.54,1.54,0,0,0,3-.45,18.4,18.4,0,0,0-.31-2.85c-.14-.9-.3-1.8-.45-2.7s-.3-1.8-.45-2.7-.45-1.8-.59-2.7C1248.91,834.14,1247.11,834.44,1247.25,835.49Z" transform="translate(-27.34 -396.19)"/><path class="cls-11" d="M1255.8,929.84v5.7a18.09,18.09,0,0,0,.15,2.85,9.63,9.63,0,0,0,.45,3,1.14,1.14,0,0,0,1.2.91c.6,0,1.2-.46,1.2-.91a10.06,10.06,0,0,0,0-3c-.16-1-.3-2.1-.45-3s-.3-1.95-.45-2.85-.45-1.8-.6-2.85a.86.86,0,0,0-.9-.9C1256.25,929.09,1255.8,929.39,1255.8,929.84Z" transform="translate(-27.34 -396.19)"/><path class="cls-11" d="M1256.1,953.4a11.58,11.58,0,0,0-.3,2.25,12.12,12.12,0,0,0-.15,2.4v2.25a5.58,5.58,0,0,0,.3,2.7,1.27,1.27,0,0,0,2.25,0,4.92,4.92,0,0,0,.3-2.55v-2.4a11.35,11.35,0,0,0-.15-2.25,11.66,11.66,0,0,1-.3-2.4A1,1,0,0,0,1256.1,953.4Z" transform="translate(-27.34 -396.19)"/><path class="cls-11" d="M1183.42,495.57c5.4-5.1,9.44-11.85,12.9-18.3a87.75,87.75,0,0,0,7.64-21.15c.29-1.35-1.8-1.95-2.11-.6a86.58,86.58,0,0,1-7.48,20.85c-3.3,6.6-7.65,12.3-12,18.15C1181.63,495.27,1182.83,496.17,1183.42,495.57Z" transform="translate(-27.34 -396.19)"/><path class="cls-11" d="M1195.26,454.92c-.89,4.35-3.59,8.1-5.84,11.7a100.78,100.78,0,0,1-7.49,10.35,116.45,116.45,0,0,1-17.83,17.55c-1.2.9.45,2.85,1.5,2a111.14,111.14,0,0,0,18.88-18.6,108.23,108.23,0,0,0,7.49-10.8c2.24-3.75,4.35-7.65,4.64-12C1196.61,454.47,1195.42,454.17,1195.26,454.92Z" transform="translate(-27.34 -396.19)"/><path class="cls-11" d="M1181.63,463.47a112.13,112.13,0,0,1-16.34,21.15,107.93,107.93,0,0,1-9.73,8.85,47.63,47.63,0,0,1-5.55,4c-1.8,1.2-3.74,2.25-5.4,3.6-1.19,1.05.31,2.55,1.51,1.95a30.09,30.09,0,0,0,5.84-3.75c1.8-1.2,3.44-2.55,5.24-3.9a95.86,95.86,0,0,0,10-9.15,94.68,94.68,0,0,0,15.59-22C1183.28,463.32,1182.08,462.57,1181.63,463.47Z" transform="translate(-27.34 -396.19)"/><path class="cls-9" d="M1116.45,733.93a6,6,0,1,0-6-6A6,6,0,0,0,1116.45,733.93Z" transform="translate(-27.34 -396.19)"/><path class="cls-9" d="M1237.07,732.43a6,6,0,1,0-6-6A6,6,0,0,0,1237.07,732.43Z" transform="translate(-27.34 -396.19)"/></g></g><g class="cls-12"><path class="cls-13" d="M327.74,627.16h55.18l3.27-9.83c-5.69-.71-11.24-1.42-16.78-2.42-9.53-1.85-19.06-4.83-28.73-4.27-9.95.57-19.34,5-28.59,8.69-8.11,3.27-16.78,6.26-25.45,5.83a41,41,0,0,1-5.84,9.54l8.4.43c-6.12,14.37-20.2,53.09-86.61,57.65s-101-36.87-101-36.87l-4-4.56C83.4,661.6,69,672.28,59.37,686.94c-10.95,16.51-14.93,36.73-16.49,56.65s-.72,39.86-3.28,59.65c-2.7,21.06-9.24,41.84-8.53,63,.43,15,4.55,29.9,3.56,44.84-.71,11.25-4.27,22.07-6.12,33.17-1.42,8.25-1.85,17.22.43,25.19H361.87c4.12-10,2.56-21.49.71-32.31-1.56-9-3-18.08-4.55-27-31.86,2-52.77,2.84-56-3.14-5.55-10.39,2-15.51,5.12-55.08S327.88,626.87,327.74,627.16Z" transform="translate(-27.34 -396.19)"/><path class="cls-5" d="M86.68,683.24c-.29.57-.29.28,0,0Z" transform="translate(-27.34 -396.19)"/><path class="cls-5" d="M118.68,709.86a3,3,0,0,1-3.7-2.14c-1.28-4.55-2.7-9-4-13.52a3.15,3.15,0,0,1,2.13-3.7,3,3,0,0,1,3.7,2.13c1.28,4.56,2.7,9,4,13.53A3.08,3.08,0,0,1,118.68,709.86Z" transform="translate(-27.34 -396.19)"/><path class="cls-5" d="M102.46,724.8a3,3,0,0,1-4.12-1.13c-2.42-4.42-5-9-7.4-13.39a3.19,3.19,0,0,1,1.14-4.12,3,3,0,0,1,4.12,1.14c2.42,4.41,5,9,7.41,13.38A3,3,0,0,1,102.46,724.8Z" transform="translate(-27.34 -396.19)"/><path class="cls-5" d="M69.18,742.45a3.06,3.06,0,0,1-3.69-2.13c-1.28-4.56-2.56-9-3.84-13.52a3.15,3.15,0,0,1,2.13-3.7,3.08,3.08,0,0,1,3.7,2.13c1.28,4.56,2.56,9,3.84,13.52A3,3,0,0,1,69.18,742.45Z" transform="translate(-27.34 -396.19)"/><path class="cls-5" d="M122,751.14c-1.14,1.28-3,1-4.26,0-4.56-3.7-9-7.26-13.38-11-1.28-1-1-3.13,0-4.27s3-1,4.27,0c4.55,3.7,9,7.26,13.37,11C123.23,747.86,123,750,122,751.14Z" transform="translate(-27.34 -396.19)"/><path class="cls-5" d="M90.23,761.67c-1.71,5.27-3.27,10.53-5,15.8a2.92,2.92,0,0,1-3.7,2.14,3,3,0,0,1-2.14-3.7c1.71-5.27,3.28-10.54,5-15.8A2.91,2.91,0,0,1,88.1,758,3.08,3.08,0,0,1,90.23,761.67Z" transform="translate(-27.34 -396.19)"/><path class="cls-5" d="M58.52,792a3.08,3.08,0,0,1-3.7-2.13c-1-5.13-1.85-10.11-2.84-15.24a3,3,0,1,1,5.83-1.56c1,5.12,1.85,10.11,2.84,15.23A3,3,0,0,1,58.52,792Z" transform="translate(-27.34 -396.19)"/><path class="cls-5" d="M94.07,816.62A3,3,0,0,1,90,815.48c-2.56-4.7-5.27-9.4-7.82-14.09a3,3,0,1,1,5.26-3c2.56,4.69,5.26,9.39,7.82,14.09A3.08,3.08,0,0,1,94.07,816.62Z" transform="translate(-27.34 -396.19)"/><path class="cls-5" d="M75.87,827.15c-1,5.69-1.85,11.24-2.85,16.94-.28,1.71-2.27,2.42-3.69,2.13-1.71-.28-2.42-2.13-2.13-3.7,1-5.69,1.84-11.24,2.84-16.94.28-1.7,2.28-2.42,3.7-2.13A3.08,3.08,0,0,1,75.87,827.15Z" transform="translate(-27.34 -396.19)"/><path class="cls-5" d="M56.24,829.43l-4.4,12.38a3.1,3.1,0,0,1-3.7,2.14,2.92,2.92,0,0,1-2.14-3.7c1.42-4.13,3-8.26,4.41-12.39a3.08,3.08,0,0,1,3.7-2.13A3,3,0,0,1,56.24,829.43Z" transform="translate(-27.34 -396.19)"/><path class="cls-5" d="M66.48,880.81a3.16,3.16,0,0,1-4.12-1.14c-2.7-4.27-5.55-8.68-8.39-12.95a3,3,0,1,1,5.26-3c2.7,4.27,5.55,8.68,8.39,12.95A3,3,0,0,1,66.48,880.81Z" transform="translate(-27.34 -396.19)"/><path class="cls-5" d="M87.67,894.05A3.07,3.07,0,0,1,84,891.92c-1.42-5.41-2.7-10.82-4.13-16.23A3.15,3.15,0,0,1,82,872a3.07,3.07,0,0,1,3.7,2.13c1.42,5.41,2.7,10.82,4.12,16.23A2.9,2.9,0,0,1,87.67,894.05Z" transform="translate(-27.34 -396.19)"/><path class="cls-5" d="M75.58,905.72c0,5.41-.14,11-.14,16.37a3,3,0,1,1-6,0c0-5.41.14-11,.14-16.37a3,3,0,0,1,3-3A2.84,2.84,0,0,1,75.58,905.72Z" transform="translate(-27.34 -396.19)"/><path class="cls-5" d="M54.68,910.85l-.57,15.8a3,3,0,1,1-6,0l.57-15.8a3,3,0,1,1,6,0Z" transform="translate(-27.34 -396.19)"/><path class="cls-5" d="M138.59,724.66c-4.27,2.28-8.68,4.41-12.94,6.69a3.22,3.22,0,0,1-4.13-1.14,3,3,0,0,1,1.14-4.12c4.27-2.28,8.67-4.42,12.94-6.69a3.21,3.21,0,0,1,4.13,1.13A3.05,3.05,0,0,1,138.59,724.66Z" transform="translate(-27.34 -396.19)"/><path class="cls-5" d="M169.45,729.5a3,3,0,0,1-4.27,0l-12.09-14.23a3.11,3.11,0,0,1,0-4.27,3,3,0,0,1,4.27,0c4,4.69,8.11,9.53,12.09,14.23A3.09,3.09,0,0,1,169.45,729.5Z" transform="translate(-27.34 -396.19)"/><path class="cls-5" d="M176.42,758a3.09,3.09,0,0,1-4.27,0l-9.67-10.11a3,3,0,0,1,4.27-4.27l9.67,10.11A3.11,3.11,0,0,1,176.42,758Z" transform="translate(-27.34 -396.19)"/><path class="cls-5" d="M150.11,762.81c-1.56,5.84-3,11.67-4.55,17.51a3,3,0,0,1-3.7,2.13,3,3,0,0,1-2.13-3.7c1.56-5.83,3-11.67,4.55-17.51a3,3,0,0,1,3.69-2.13A3.16,3.16,0,0,1,150.11,762.81Z" transform="translate(-27.34 -396.19)"/><path class="cls-5" d="M130.05,807.22a3.07,3.07,0,0,1-3.69-2.13l-4.69-17.37a3.14,3.14,0,0,1,2.13-3.7,3.07,3.07,0,0,1,3.69,2.13l4.7,17.37A3,3,0,0,1,130.05,807.22Z" transform="translate(-27.34 -396.19)"/><path class="cls-5" d="M83.83,696.48c.15,1.71-1.42,2.84-3,3-5.4.42-10.94.71-16.35,1.14a2.92,2.92,0,0,1-3-3c-.14-1.71,1.43-2.85,3-3,5.41-.43,11-.71,16.35-1.14A3.21,3.21,0,0,1,83.83,696.48Z" transform="translate(-27.34 -396.19)"/><path class="cls-5" d="M96.78,685.52a2.92,2.92,0,0,1-3,3c-1.71.14-2.85-1.43-3-3-.42-6-1-12.1-1.42-18.08a2.92,2.92,0,0,1,3-3c1.71-.14,2.85,1.42,3,3C95.78,673.42,96.35,679.54,96.78,685.52Z" transform="translate(-27.34 -396.19)"/><path class="cls-5" d="M206.71,717.4l-15.5,10.54a3,3,0,0,1-3-5.27c5.12-3.56,10.38-7,15.5-10.53a3,3,0,1,1,3,5.26Z" transform="translate(-27.34 -396.19)"/><path class="cls-5" d="M237.14,717a3,3,0,0,1-4.26,0c-3.84-3.55-7.68-7.25-11.52-11a3,3,0,0,1,4.27-4.28c3.84,3.56,7.67,7.26,11.51,11A3.23,3.23,0,0,1,237.14,717Z" transform="translate(-27.34 -396.19)"/><path class="cls-5" d="M229,752.13c-1.56.57-3.13-.71-3.7-2.13-2-5.27-3.84-10.53-5.68-15.8a3.06,3.06,0,0,1,2.13-3.7c1.56-.57,3.13.71,3.69,2.13,2,5.27,3.84,10.54,5.69,15.8C231.74,750,230.46,751.56,229,752.13Z" transform="translate(-27.34 -396.19)"/><path class="cls-5" d="M286.5,701.6c-4.84,2.85-9.82,5.55-14.66,8.4a3,3,0,0,1-4.12-1.14,3.09,3.09,0,0,1,1.14-4.13c4.84-2.84,9.81-5.55,14.65-8.39a3,3,0,0,1,4.12,1.13A2.85,2.85,0,0,1,286.5,701.6Z" transform="translate(-27.34 -396.19)"/><path class="cls-5" d="M299.73,666.44c-1.71,4.13-3.28,8.26-5,12.39A3.07,3.07,0,0,1,291,681a3.62,3.62,0,0,1-1.84-1.42,3.13,3.13,0,0,1-.29-2.28c1.71-4.13,3.27-8.25,5-12.38a3.09,3.09,0,0,1,3.7-2.14,3.66,3.66,0,0,1,1.85,1.43A2.73,2.73,0,0,1,299.73,666.44Z" transform="translate(-27.34 -396.19)"/><path class="cls-5" d="M311.81,702.46a2.93,2.93,0,0,1-3,3c-1.71.14-2.85-1.43-3-3-.43-5.56-.85-11-1.28-16.37a2.91,2.91,0,0,1,3-3c1.7-.14,2.83,1.42,3,3C311,691.5,311.39,696.9,311.81,702.46Z" transform="translate(-27.34 -396.19)"/><path class="cls-5" d="M318.06,661.6c-1.28.72-3.55.29-4.11-1.14-2.14-5.26-4.42-10.53-6.69-15.8-.57-1.56-.43-3.13,1.14-4.12,1.28-.72,3.55-.29,4.12,1.14,2.13,5.26,4.41,10.53,6.69,15.8A3,3,0,0,1,318.06,661.6Z" transform="translate(-27.34 -396.19)"/><path class="cls-5" d="M515.32,591.86c-2.56,3.27-5,6.69-7.53,10a3.64,3.64,0,0,1-1.85,1.42,2.59,2.59,0,0,1-2.28-.28,3,3,0,0,1-1.42-1.85,3.27,3.27,0,0,1,.28-2.28c2.56-3.27,5-6.69,7.54-10a3.66,3.66,0,0,1,1.85-1.43,2.63,2.63,0,0,1,2.28.29,3,3,0,0,1,1.42,1.85A3.13,3.13,0,0,1,515.32,591.86Z" transform="translate(-27.34 -396.19)"/><path class="cls-5" d="M532,618.47a3,3,0,0,1-4.26,0l-9.53-11.24a3.09,3.09,0,0,1,0-4.27,3,3,0,0,1,4.26,0L532,614.2A3.09,3.09,0,0,1,532,618.47Z" transform="translate(-27.34 -396.19)"/><path class="cls-5" d="M461.85,606.23l-3.41,12.95a3,3,0,0,1-3.7,2.14,3,3,0,0,1-2.13-3.7c1.13-4.27,2.27-8.68,3.41-13a3,3,0,0,1,3.7-2.14A3,3,0,0,1,461.85,606.23Z" transform="translate(-27.34 -396.19)"/><path class="cls-5" d="M300.43,740.6a3.16,3.16,0,0,1-4.12-1.13c-2.42-5.41-5-10.82-7.4-16.23a3,3,0,0,1,1.14-4.13,3.19,3.19,0,0,1,4.13,1.14c2.41,5.41,5,10.82,7.39,16.23A3,3,0,0,1,300.43,740.6Z" transform="translate(-27.34 -396.19)"/><path class="cls-5" d="M284.36,780.18a3.09,3.09,0,0,1-3.7-2.14c-1-5.69-1.84-11.24-2.84-16.94a3,3,0,1,1,5.83-1.56c1,5.69,1.85,11.24,2.85,16.94A3,3,0,0,1,284.36,780.18Z" transform="translate(-27.34 -396.19)"/><path class="cls-5" d="M312.38,767.51a3,3,0,0,1-3,3c-3.7-.15-7.54-.15-11.23-.29a3,3,0,0,1,0-6c3.69.15,7.53.15,11.23.29A3.1,3.1,0,0,1,312.38,767.51Z" transform="translate(-27.34 -396.19)"/><path class="cls-5" d="M267.72,790.42c-1.56.57-3.12-.56-3.7-2.13-1.56-4.56-3.12-9-4.69-13.52a3.07,3.07,0,0,1,2.13-3.7,3,3,0,0,1,3.7,2.13c1.57,4.56,3.13,9,4.7,13.52A3.09,3.09,0,0,1,267.72,790.42Z" transform="translate(-27.34 -396.19)"/><path class="cls-5" d="M237.72,799.53a3,3,0,0,1-4.13-1.13c-2.42-5.13-4.83-10.11-7.25-15.23a3.19,3.19,0,0,1,1.14-4.13,3,3,0,0,1,4.12,1.14c2.42,5.12,4.84,10.1,7.25,15.23A3,3,0,0,1,237.72,799.53Z" transform="translate(-27.34 -396.19)"/><path class="cls-5" d="M201,789.29a3.09,3.09,0,0,1-3.7-2.14q-1.69-7.9-3.41-15.8a3.16,3.16,0,0,1,2.13-3.7,3.08,3.08,0,0,1,3.7,2.14q1.71,7.89,3.41,15.79A3.29,3.29,0,0,1,201,789.29Z" transform="translate(-27.34 -396.19)"/><path class="cls-5" d="M181.82,816.05c-1.28.71-3.55.28-4.12-1.14-2.71-6.27-5.27-12.39-8-18.65-.56-1.56-.42-3.13,1.14-4.13,1.28-.71,3.56-.28,4.12,1.14,2.71,6.26,5.27,12.39,8,18.65A3,3,0,0,1,181.82,816.05Z" transform="translate(-27.34 -396.19)"/><path class="cls-5" d="M161.2,838.39a3,3,0,0,1-4.12,1.14l-16.64-10.25a3,3,0,0,1-1.14-4.12,3,3,0,0,1,4.13-1.14l16.63,10.25A3.2,3.2,0,0,1,161.2,838.39Z" transform="translate(-27.34 -396.19)"/><path class="cls-5" d="M125.93,848.22c-3,5.69-6.12,11.53-9.1,17.36a3,3,0,1,1-5.26-3c3-5.69,6.11-11.53,9.1-17.36a3,3,0,0,1,4.12-1.14A3.08,3.08,0,0,1,125.93,848.22Z" transform="translate(-27.34 -396.19)"/><path class="cls-5" d="M154.8,883.23c.15,1.71-1.42,2.85-3,3a3,3,0,0,1-3-3c-.14-5.12-.28-10.1-.43-15.23-.14-1.71,1.43-2.84,3-3a3,3,0,0,1,3,3C154.52,873.13,154.66,878.11,154.8,883.23Z" transform="translate(-27.34 -396.19)"/><path class="cls-5" d="M192.91,882.24c-1.56.57-3.12-.72-3.69-2.14-2-5.69-4.13-11.24-6.12-16.94-.57-1.56.71-3.27,2.13-3.7,1.57-.57,3.14.71,3.7,2.14,2,5.69,4.12,11.24,6.12,16.94A3.1,3.1,0,0,1,192.91,882.24Z" transform="translate(-27.34 -396.19)"/><path class="cls-5" d="M216.1,851.49a3,3,0,0,1-4.12-1.14q-3.43-7.05-6.83-14.09a3.17,3.17,0,0,1,1.13-4.13,3.06,3.06,0,0,1,4.13,1.14q3.41,7.05,6.83,14.09A3,3,0,0,1,216.1,851.49Z" transform="translate(-27.34 -396.19)"/><path class="cls-5" d="M297.44,821a3.08,3.08,0,0,1-4.26,0c-3.27-3.28-6.4-6.69-9.67-10a3,3,0,0,1,4.27-4.27c3.26,3.28,6.4,6.69,9.66,10A3.09,3.09,0,0,1,297.44,821Z" transform="translate(-27.34 -396.19)"/><path class="cls-5" d="M299.3,852.34a3,3,0,0,1-4.13,1.14c-4.13-3-8.25-5.83-12.37-8.82a3,3,0,0,1,3-5.27c4.13,3,8.25,5.84,12.38,8.83A3.19,3.19,0,0,1,299.3,852.34Z" transform="translate(-27.34 -396.19)"/><path class="cls-5" d="M271.28,859.32c-2.14,6.26-4.13,12.38-6.26,18.65a3.08,3.08,0,0,1-3.7,2.13,2.91,2.91,0,0,1-2.13-3.7c2.13-6.26,4.13-12.38,6.25-18.65a3.09,3.09,0,0,1,3.7-2.13A3,3,0,0,1,271.28,859.32Z" transform="translate(-27.34 -396.19)"/><path class="cls-5" d="M211.83,924.51a3.06,3.06,0,0,1-3.69-2.13c-1-5-2.14-10.11-3.14-15.09a3.16,3.16,0,0,1,2.13-3.7,3.09,3.09,0,0,1,3.71,2.13c1,5,2.13,10.11,3.12,15.09A3,3,0,0,1,211.83,924.51Z" transform="translate(-27.34 -396.19)"/><path class="cls-5" d="M183.1,907c-2.84,5.56-5.55,11.11-8.39,16.66a3,3,0,1,1-5.26-3c2.84-5.55,5.54-11.1,8.39-16.65a3,3,0,0,1,4.13-1.14A3,3,0,0,1,183.1,907Z" transform="translate(-27.34 -396.19)"/><path class="cls-5" d="M145.41,907.72c-1.28,5.69-2.7,11.24-4,16.93-.28,1.71-2.13,2.42-3.7,2.14a2.91,2.91,0,0,1-2.13-3.7c1.28-5.69,2.71-11.25,4-16.94.28-1.71,2.13-2.42,3.69-2.13A3.27,3.27,0,0,1,145.41,907.72Z" transform="translate(-27.34 -396.19)"/><path class="cls-5" d="M116.55,912a3.08,3.08,0,0,1-3.7-2.14c-1.42-5.27-2.7-10.53-4-15.8a3.14,3.14,0,0,1,2.13-3.7,3.08,3.08,0,0,1,3.7,2.14c1.42,5.26,2.7,10.53,4,15.8A3,3,0,0,1,116.55,912Z" transform="translate(-27.34 -396.19)"/><path class="cls-5" d="M286.35,923.37a3.19,3.19,0,0,1-4.12-1.14c-4-5.12-7.83-10.24-11.67-15.37-1-1.28-.14-3.27,1.14-4.13a3.23,3.23,0,0,1,4.13,1.14c4,5.13,7.82,10.25,11.66,15.38A3,3,0,0,1,286.35,923.37Z" transform="translate(-27.34 -396.19)"/><path class="cls-5" d="M310.24,889.78a3,3,0,0,1-4.12,1.14l-11.66-7.55a3,3,0,1,1,3-5.26c3.84,2.56,7.82,5,11.66,7.54A3.07,3.07,0,0,1,310.24,889.78Z" transform="translate(-27.34 -396.19)"/><path class="cls-5" d="M320.49,812.06a3,3,0,0,1-4.27,0c-4.41-4-8.82-8.11-13.23-12.1a3,3,0,0,1,4.27-4.27c4.4,4,8.82,8.11,13.23,12.1A3,3,0,0,1,320.49,812.06Z" transform="translate(-27.34 -396.19)"/><path class="cls-5" d="M256.77,818.75,241,825.58c-1.56.57-3.12.43-4.12-1.14-.71-1.28-.28-3.55,1.14-4.12l15.78-6.84c1.57-.57,3.14-.42,4.13,1.14A3,3,0,0,1,256.77,818.75Z" transform="translate(-27.34 -396.19)"/><path class="cls-5" d="M246.68,866.29c.28,1.71-1.57,3-3,3-1.71.15-2.85-1.42-3-3-.71-6.12-1.56-12.38-2.42-18.5-.28-1.71,1.57-3,3-3,1.71-.14,2.85,1.42,3,3C245.11,854.05,246,860.17,246.68,866.29Z" transform="translate(-27.34 -396.19)"/><path class="cls-5" d="M237.86,901a3.11,3.11,0,0,1-4.27,0c-4.13-3.14-8.25-6.41-12.37-9.54-1.28-1-1-3.13,0-4.27a3.07,3.07,0,0,1,4.26,0c4.13,3.13,8.25,6.4,12.38,9.54C239.14,897.75,238.85,900,237.86,901Z" transform="translate(-27.34 -396.19)"/><path class="cls-5" d="M261.75,745.87a3.15,3.15,0,0,1-3.7-2.13c-1.42-5.41-2.7-11-4-16.37a3,3,0,0,1,5.83-1.57c1.42,5.41,2.7,11,4,16.37A3,3,0,0,1,261.75,745.87Z" transform="translate(-27.34 -396.19)"/><path class="cls-5" d="M266.87,532.78c.85-13.95-.29-30.89-5.83-42.42a22,22,0,0,1-13.23.57,23.44,23.44,0,0,1-12.37-7.26,23.22,23.22,0,0,1-12.94,10.25,23.58,23.58,0,0,1-16.5-1,59.32,59.32,0,0,1-9.39-6c-3.13-2.14-6.4-4.13-10-4.84s-7.25-.29-10,2.13c5.83,3.85,7.83,11.82,6.55,18.79S178,516.27,174,522.25c-3.41,5-6.83,10-8.82,15.51-3.69-3.41-8.39-5.83-13.22-5a11.69,11.69,0,0,0-4.13,1.71,15,15,0,0,0-4.55,4.84,20.41,20.41,0,0,0-2.41,10.82,29.12,29.12,0,0,0,25.16,28,17.92,17.92,0,0,0,2.71.28s15.93,42.85,48.5,47.69c9.52,1.42,17.63.57,24.46-1.85,17.2-6.12,26.16-22.49,27.58-39.43C271.28,561.25,265.87,546.87,266.87,532.78Z" transform="translate(-27.34 -396.19)"/><path class="cls-14" d="M187.23,608.51c7.68,8.26,17.63,15.66,30,17.51,9.52,1.42,17.63.57,24.46-1.85l1.42,6.54,9.81,6s-6.83,7.41-19.34,13.95C213.53,642.53,196.19,628.86,187.23,608.51Z" transform="translate(-27.34 -396.19)"/><path class="cls-5" d="M233.73,650.64a84.12,84.12,0,0,1-34.42,9.4c-33.84,1.85-52.62-23.92-52.62-23.92l12.94-9.25,6.55-48.54a17.68,17.68,0,0,0,2.7.29,105.29,105.29,0,0,0,18.49,30C196.19,628.86,213.53,642.53,233.73,650.64Z" transform="translate(-27.34 -396.19)"/><path class="cls-5" d="M264,464l-.56-.14a18.92,18.92,0,0,0-26.88-24.34,22.06,22.06,0,0,0-39,6.83,22.64,22.64,0,0,0-33.71,19.93,21.27,21.27,0,0,0-19.62,33.45,20.41,20.41,0,0,0,3.27,34.16l.28.43a10.57,10.57,0,0,1,4.13-1.71c4.83-.85,9.53,1.57,13.22,5,2.13-5.55,5.55-10.53,8.82-15.51,4-6,8-12.1,9.25-19.22,1.28-6.83-.72-14.8-6.55-18.79,2.56-2.28,6.55-2.85,10-2.13,3.69.71,7,2.7,10,4.84a58.56,58.56,0,0,0,9.39,6,22.78,22.78,0,0,0,16.5,1,23.22,23.22,0,0,0,12.94-10.25,24,24,0,0,0,12.37,7.26,23.19,23.19,0,0,0,13.23-.57,16.57,16.57,0,0,0,2.28-1A16.08,16.08,0,0,0,272,476.7,12.68,12.68,0,0,0,264,464Z" transform="translate(-27.34 -396.19)"/><path class="cls-6" d="M281.09,634.27l-25.31-1.42-2.7,3.84s-19.92,21.5-53.77,23.35-52.62-23.92-52.62-23.92l-3.55-3.27-41.53,22.78s34.56,41.42,101,36.86,80.35-43.13,86.61-57.65Z" transform="translate(-27.34 -396.19)"/><path class="cls-13" d="M411.36,622.17l-.85,4.7H421.6A67.29,67.29,0,0,0,411.36,622.17Z" transform="translate(-27.34 -396.19)"/><path class="cls-5" d="M423.74,505.17l-6,17.79-31.43,93.95-3.27,9.82h27.45l.85-4.7,14.08-83.13,3.7-22.06S424.59,516.41,423.74,505.17Z" transform="translate(-27.34 -396.19)"/><path class="cls-14" d="M468,580.75a66.43,66.43,0,0,1-10.8,2.56c-1.14.15-2.28.29-3.56.43-.71,5.41-4.55,10.39-6.4,15.8-2,5.7-1.71,11.82-.28,17.51a71.94,71.94,0,0,0,3.41,9.82h25.74Z" transform="translate(-27.34 -396.19)"/><path class="cls-14" d="M538.79,613.06c-4.27-6.26-9.67-12.1-11.8-19.5-1.71-6.26-1.14-13.09-4.13-18.93-4-7.69-13.37-11.67-17.35-19.22a63.44,63.44,0,0,1-6.68,7.26,72.54,72.54,0,0,1-12.23,9.54l18.2,54.66h39.68C543.77,622,541.49,617.33,538.79,613.06Z" transform="translate(-27.34 -396.19)"/><path class="cls-5" d="M493.28,539.9c-.71-8-1.28-16.09-3.56-23.77a25.52,25.52,0,0,0-3.69-8,13.27,13.27,0,0,0-4.55-3.85,19.73,19.73,0,0,0-2.71-6.12,11.92,11.92,0,0,0-6.4-4.41,11.85,11.85,0,0,0-5.83-7,12.3,12.3,0,0,0-7.11-1c-2.7-2.28-5.69-4.56-9.1-5-4.12-.57-8.11,1.56-11.52,4a82.31,82.31,0,0,0-10.38,8.26,17.88,17.88,0,0,0-4.41,5.41c-.14.28-.28.71-.43,1a7.58,7.58,0,0,0,0,5.84c.86,11.1,5.41,11.53,5.41,11.53l-3.7,22.06a3.05,3.05,0,0,1,.57.86,38.61,38.61,0,0,0,23.75,16.37l7.68,27.33a74.62,74.62,0,0,0,10.81-2.57l-7.68-45.26,12.09-5.27,13.93,42a71.7,71.7,0,0,0,12.23-9.53C495.27,555.7,494.13,547.73,493.28,539.9Z" transform="translate(-27.34 -396.19)"/><path class="cls-5" d="M423.45,499.76a31.91,31.91,0,0,0-8.11-5.69A16.68,16.68,0,0,0,404,492.64c-2.56.71-5.12,2.56-5.27,5.27-.28,3.13,2.71,5.41,5.12,7.4a47,47,0,0,1,11.52,13.38,41.62,41.62,0,0,1,2.28,4.41l6-17.79A7.53,7.53,0,0,1,423.45,499.76Z" transform="translate(-27.34 -396.19)"/><path class="cls-5" d="M410.51,660.18h-27V626.87h27Z" transform="translate(-27.34 -396.19)"/><path class="cls-14" d="M559.84,743.45c1.14-43,.14-94.94-.29-116.58H504.8v33.31H476.07V626.87H410.51v33.31h-27V627H328s-17.79,185.34-20.91,224.91S296.3,896.61,302,907c3.26,6,24.17,5,56,3.14,23-1.29,51.63-3.14,83.62-3.14,76.23,0,122.6,6.84,129.42,3.56S558.42,799.25,559.84,743.45Z" transform="translate(-27.34 -396.19)"/><path class="cls-5" d="M504.8,660.18H476.07V626.87H504.8Z" transform="translate(-27.34 -396.19)"/><path class="cls-5" d="M486.6,572.35l-14.08-42-12.09,5.27,7.68,45.26,8,46H504.8Z" transform="translate(-27.34 -396.19)"/><path class="cls-11" d="M148.69,533.92c3.27-2,7.54-1.85,10.94-.43,3,1.29,6.26,3.7,7.26,7,.14.71-.86,1.28-1.28.71a18,18,0,0,0-2.84-3.56,12.33,12.33,0,0,0-3.56-2.42c-3.27-1.42-6.68-1.14-10-.42A.55.55,0,0,1,148.69,533.92Z" transform="translate(-27.34 -396.19)"/><path class="cls-11" d="M166.18,540.33C168,529.65,176.7,522,179.41,511.72A30.25,30.25,0,0,0,170,481c-.71-.71.28-2,1.13-1.42A31,31,0,0,1,180,490.79a31.44,31.44,0,0,1,.29,26.76c-3.56,8-10.1,14.66-12.66,23.2C167.31,541.61,166,541.18,166.18,540.33Z" transform="translate(-27.34 -396.19)"/><path class="cls-11" d="M176.7,498.9a19.23,19.23,0,0,0-2.84-3,25.58,25.58,0,0,0-3.13-2.42,15.77,15.77,0,0,0-3.42-1.86,7.42,7.42,0,0,0-1.84-.71,7.92,7.92,0,0,1-2-.57c-1-.42-.42-1.56.43-1.7a6.33,6.33,0,0,1,2.28.42,12.17,12.17,0,0,1,2,.71,16.23,16.23,0,0,1,3.84,2,20.24,20.24,0,0,1,3.27,2.84,20,20,0,0,1,2.42,3.56C178,498.9,177,499.47,176.7,498.9Z" transform="translate(-27.34 -396.19)"/><path class="cls-11" d="M174.14,501.89a21,21,0,0,0-11.8-2.27,1.23,1.23,0,0,1-1.14-1.14,1.13,1.13,0,0,1,1.14-1.14,19.32,19.32,0,0,1,12.8,3A.93.93,0,1,1,174.14,501.89Z" transform="translate(-27.34 -396.19)"/><path class="cls-11" d="M178.69,487.52c4.56-2.85,10.24-1.71,14.94-.15,5.4,1.71,10.67,3.85,16.35,2.42a17.9,17.9,0,0,0,11.52-9.25,18.79,18.79,0,0,0,.14-15.66c-.56-1.28,1.14-2.42,1.86-1.13a19.7,19.7,0,0,1-15.79,28.46c-9.68,1.14-18.78-7.68-28.3-3.55C178.41,488.94,177.7,487.8,178.69,487.52Z" transform="translate(-27.34 -396.19)"/><path class="cls-11" d="M226.91,480.54a17.44,17.44,0,0,0,4-13.09c-.15-.57.43-1,1-1a1,1,0,0,1,1,1,20,20,0,0,1-1,7.68,18.05,18.05,0,0,1-4.26,6.41C226.91,482.11,226.06,481.25,226.91,480.54Z" transform="translate(-27.34 -396.19)"/><path class="cls-11" d="M232.17,480.12a13,13,0,0,0,3.27-4c.28-.85.57-1.57.85-2.42a4,4,0,0,0,.29-1.28c.14-.57.14-1,.28-1.42a1,1,0,0,1,1.85,0,6.43,6.43,0,0,1-.43,3.27A9.18,9.18,0,0,1,237,477a9.88,9.88,0,0,1-1.84,2.42,14.85,14.85,0,0,1-2.42,1.71C232,481.54,231.6,480.54,232.17,480.12Z" transform="translate(-27.34 -396.19)"/><path class="cls-11" d="M236.86,489.65a17,17,0,0,0,15.22-2.42,16.37,16.37,0,0,0,4.84-6,19.83,19.83,0,0,0,1.42-7.54c0-1.57,2.13-1.42,2.27,0,.71,5.69-2.56,11.81-7.11,15.23a17.34,17.34,0,0,1-8.25,3.27,16.64,16.64,0,0,1-8.67-1.42C235.86,490.51,236.15,489.37,236.86,489.65Z" transform="translate(-27.34 -396.19)"/><path class="cls-11" d="M257.48,487.09a10,10,0,0,0,4-4.13,19.12,19.12,0,0,0,1.14-2.56,22.41,22.41,0,0,1,.86-3,1.1,1.1,0,0,1,2,.29,6.27,6.27,0,0,1-.56,3.55,10,10,0,0,1-1.57,3,14.69,14.69,0,0,1-5.11,4.27C257.34,488.94,256.77,487.8,257.48,487.09Z" transform="translate(-27.34 -396.19)"/><path class="cls-11" d="M264.31,463.6c5.83,1.71,9.1,7.83,8.67,13.81-.56,6.41-5.26,12.1-11.09,14.52-1.13.57-2.13-1.14-1-1.71,5.12-2.56,9.52-6.83,10.09-12.67a12.74,12.74,0,0,0-7.25-12.81C263,464.46,263.6,463.32,264.31,463.6Z" transform="translate(-27.34 -396.19)"/><path class="cls-11" d="M262.74,463c1.57-3.7,2.56-7.54,1.86-11.67a16.74,16.74,0,0,0-5.12-9.25c-5.84-5.55-14.37-5.84-21.06-1.57a1.08,1.08,0,0,1-1.13-1.85,19.07,19.07,0,0,1,23.61,1.71,18.12,18.12,0,0,1,5.82,10.82c.72,4.13.15,9-2.41,12.38C263.88,464.17,262.46,463.89,262.74,463Z" transform="translate(-27.34 -396.19)"/><path class="cls-11" d="M236.29,440.12c-3.27-3-6.4-5.7-10.81-6.84a24.38,24.38,0,0,0-12.37-.42,19.13,19.13,0,0,0-11.38,7,13.94,13.94,0,0,0-2,13.1c.43,1.28-1.42,1.71-1.85.57a15.29,15.29,0,0,1,1.85-14.38,21.44,21.44,0,0,1,12.09-8,26.82,26.82,0,0,1,14.22.28c4.41,1.43,9,3.85,11.52,7.83C238.14,440.12,237,440.83,236.29,440.12Z" transform="translate(-27.34 -396.19)"/><path class="cls-11" d="M201.31,452.07A15.69,15.69,0,0,1,208.7,437a1,1,0,0,1,1,1.7,14.91,14.91,0,0,0-7,13.38A.71.71,0,1,1,201.31,452.07Z" transform="translate(-27.34 -396.19)"/><path class="cls-11" d="M205,449.37a20.48,20.48,0,0,1,3.14-6.41,24,24,0,0,1,5.39-4.69c1.15-.72,2.14,1.13,1,1.85a19.23,19.23,0,0,0-8.11,9.68C206.14,450.65,204.72,450.22,205,449.37Z" transform="translate(-27.34 -396.19)"/><path class="cls-11" d="M197.61,447.09c-7-2.85-15.22-2.7-21.62,1.28A22.8,22.8,0,0,0,165.75,466c-.14,1.28-2.13,1.43-2.13,0a24.79,24.79,0,0,1,11.09-19.36A22.84,22.84,0,0,1,198,446C198.75,446.24,198.32,447.38,197.61,447.09Z" transform="translate(-27.34 -396.19)"/><path class="cls-11" d="M163.33,467.45c-7.25.42-14.36,3.84-18.2,10.1a20.84,20.84,0,0,0,.57,21.5c.71,1.14-1,2-1.71,1a22.49,22.49,0,0,1-.56-23.48,21.18,21.18,0,0,1,8.53-8.12,24.84,24.84,0,0,1,5.4-2,16.57,16.57,0,0,1,6-.14C164.19,466.45,164.19,467.45,163.33,467.45Z" transform="translate(-27.34 -396.19)"/><path class="cls-11" d="M148.26,535.2c-5.83-2.42-10.1-8.54-11.52-14.52a22.9,22.9,0,0,1,4.55-19.5c.71-1.14,2.28.43,1.42,1.43a20.64,20.64,0,0,0-3.84,17.65c1.42,5.69,5.26,9.82,10,13.38C149.4,534.21,149.11,535.34,148.26,535.2Z" transform="translate(-27.34 -396.19)"/><path class="cls-11" d="M149,531.22a23.53,23.53,0,0,1-7.54-21.92c.14-1.43,2.14-.72,2,.57A24.42,24.42,0,0,0,150,530.22.71.71,0,1,1,149,531.22Z" transform="translate(-27.34 -396.19)"/><path class="cls-11" d="M151.25,528.37a17.22,17.22,0,0,1-2.85-5.55,19,19,0,0,1-.85-6.26,1.07,1.07,0,0,1,2.13,0,19.84,19.84,0,0,0,.15,3,15.26,15.26,0,0,0,.56,2.71,19.12,19.12,0,0,0,2,5.41A.67.67,0,1,1,151.25,528.37Z" transform="translate(-27.34 -396.19)"/><path class="cls-11" d="M147.69,535.63a24.84,24.84,0,0,0-5.12,12.81,23.79,23.79,0,0,0,2.7,13.24c4.56,8.82,12.8,13.66,21.76,16.94a1,1,0,0,1-.57,1.85c-9.81-2.56-19.19-9.4-23.61-18.65a27.11,27.11,0,0,1-2.56-14.52,24.35,24.35,0,0,1,2-7,16.32,16.32,0,0,1,4.4-5.84C147.27,533.92,148,534.78,147.69,535.63Z" transform="translate(-27.34 -396.19)"/><path class="cls-11" d="M150.53,540a26.22,26.22,0,0,1,14.8,28.9c-.29,1.56-2.56.85-2.28-.57A25.13,25.13,0,0,0,150,541.18C149.11,540.9,149.83,539.9,150.53,540Z" transform="translate(-27.34 -396.19)"/><path class="cls-11" d="M245.25,523a29.64,29.64,0,0,0-.14,5,28,28,0,0,0,.29,5,40,40,0,0,0,2.27,9.1c2.13,5.84,5.55,11,9,16.09,1.57,2.28,3.13,4.55,3.13,7.4a10.39,10.39,0,0,1-2.7,6.55,22.22,22.22,0,0,1-13.94,8c-1.71.29-1.85-2.28-.43-2.7,5-1.57,10.24-3.7,13.09-8.4,1.56-2.56,1.14-5-.43-7.55-1.42-2.42-3.13-4.55-4.55-7A61.09,61.09,0,0,1,244,538.9a46.75,46.75,0,0,1-1.13-7.83A40.51,40.51,0,0,1,243,527a37.63,37.63,0,0,1,1-4.27C244.12,521.82,245.4,522.25,245.25,523Z" transform="translate(-27.34 -396.19)"/><path class="cls-11" d="M231.6,570.93a1,1,0,0,1,.85-.43,3.32,3.32,0,0,1,1.57.43,7.05,7.05,0,0,0,1.14.57,15.27,15.27,0,0,1,2.13,1.14,1.09,1.09,0,0,1,.57.57c0,.14.14.28.14.43a1.69,1.69,0,0,1-.14,1.13,1.47,1.47,0,0,1-.86.72,1.67,1.67,0,0,1-1.14-.15c-.7-.42-1.28-1-2-1.42-.43-.28-.72-.57-1.14-.85-.43-.43-.86-.72-1-1.14A2.16,2.16,0,0,1,231.6,570.93Z" transform="translate(-27.34 -396.19)"/><path class="cls-11" d="M221.93,582.89a22.46,22.46,0,0,0,8.53,7,17.33,17.33,0,0,0,5.26,1.57,17.52,17.52,0,0,0,2.7.14,9.71,9.71,0,0,1,2.85,0,1.32,1.32,0,0,1,.29,2.42,7,7,0,0,1-3.42.57,20.31,20.31,0,0,1-3.13-.29,22,22,0,0,1-6-1.85,20.54,20.54,0,0,1-5.12-3.55,15.51,15.51,0,0,1-3.41-5.13A.86.86,0,0,1,221.93,582.89Z" transform="translate(-27.34 -396.19)"/><path class="cls-11" d="M182.53,599.26c2.14,2.84,4.13,5.83,6.4,8.54A49.05,49.05,0,0,0,214.54,624a43.19,43.19,0,0,0,34.84-6.4,41.87,41.87,0,0,0,12.37-13.1A55.93,55.93,0,0,0,268,583.74c1.71-15.37-1.28-30.6-1.56-46-.28-14.94.43-30.17-4.55-44.41-.43-1.28,1.71-1.85,2.13-.57,6.12,16.8,4.13,35,5.12,52.53.86,15.8,3.84,32,0,47.68-3.27,13.38-11.66,24.2-24,30.18a47.25,47.25,0,0,1-36.55,1.71,51.06,51.06,0,0,1-16.21-9.82c-4.7-4.13-9.1-9.26-11.1-15.23C181,599,182,598.69,182.53,599.26Z" transform="translate(-27.34 -396.19)"/><path class="cls-11" d="M196.89,539.62c3.14-4.84,9.11-7.26,14.66-8a27.22,27.22,0,0,1,17.35,3.7c1.84,1,.14,4-1.71,2.85A23.82,23.82,0,0,0,212,534.92c-5.27.57-9.54,3.27-13.95,5.83A.84.84,0,0,1,196.89,539.62Z" transform="translate(-27.34 -396.19)"/><path class="cls-11" d="M198,527.09c.72-.71,1.28-1.42,2.14-2.14a10.49,10.49,0,0,1,2.7-1.7A28.19,28.19,0,0,1,220.65,521c2,.57,1.14,3.27-.85,3a30.68,30.68,0,0,0-10.81.14,36.62,36.62,0,0,0-5.12,1.71,18.58,18.58,0,0,0-2.56,1.14c-.86.42-1.71.71-2.56,1.14C198.17,528.51,197.47,527.66,198,527.09Z" transform="translate(-27.34 -396.19)"/><path class="cls-11" d="M249.24,534.92a6.87,6.87,0,0,1,3.84-2.42,15.34,15.34,0,0,1,4.4-.86,26.68,26.68,0,0,1,4.7.43,9.88,9.88,0,0,1,4.4,1.71c1.14,1-.14,2.85-1.42,2.42-.71-.29-1.28-.57-1.84-.86s-1.14-.42-1.86-.56a17.32,17.32,0,0,0-3.84-.43,33.88,33.88,0,0,0-3.84.57,38.69,38.69,0,0,1-3.84,1A.67.67,0,0,1,249.24,534.92Z" transform="translate(-27.34 -396.19)"/><path class="cls-11" d="M251.22,519.4c2.28-1.42,5.55-.85,7.83-.14a17.45,17.45,0,0,1,3.69,1.71c1.14.71,2.7,1.56,3.13,2.84a1.32,1.32,0,0,1-1.56,1.57,4.13,4.13,0,0,1-1.71-1,11.63,11.63,0,0,0-1.42-1,14.71,14.71,0,0,0-3-1.43,24,24,0,0,0-3.28-.71,25.09,25.09,0,0,1-3.55-.57C250.8,520.54,250.8,519.83,251.22,519.4Z" transform="translate(-27.34 -396.19)"/><path class="cls-11" d="M213.82,538.62a5.55,5.55,0,1,1,5.55,5.55A5.55,5.55,0,0,1,213.82,538.62Z" transform="translate(-27.34 -396.19)"/><path class="cls-11" d="M255.92,538.62a5.55,5.55,0,1,1,5.54,5.55A5.54,5.54,0,0,1,255.92,538.62Z" transform="translate(-27.34 -396.19)"/><path class="cls-14" d="M196.39,579.09a14.23,14.23,0,1,1,16.31-11.78A14.23,14.23,0,0,1,196.39,579.09Z" transform="translate(-27.34 -396.19)"/><path class="cls-11" d="M166.46,580.33c-.14,1.42,0,3-.14,4.41s-.29,3-.43,4.41c-.28,2.85-.71,5.69-1,8.54-.71,5.84-1.43,11.53-2.13,17.22-.72,4.84-1.14,10-4.13,14.1-2.7,3.7-6.69,6.26-10.67,8.11a1.05,1.05,0,0,1-1-1.85c3.55-2.56,7.82-4.84,10.24-8.83,2.56-4.27,2.7-9.67,3.27-14.37.57-5.41,1.28-10.82,2-16.23.29-2.56.57-5.12,1-7.69.15-1.28.43-2.56.58-3.84s.7-2.85,1-4.27C165.18,579.19,166.46,579.47,166.46,580.33Z" transform="translate(-27.34 -396.19)"/><path class="cls-11" d="M241.56,623.6a28.41,28.41,0,0,0,1.7,3.7,11.06,11.06,0,0,0,2.56,3.13,32.92,32.92,0,0,0,7.68,4.7,1.15,1.15,0,1,1-1.14,2,32.08,32.08,0,0,1-8.39-5.27c-2.13-2.13-4.27-5.12-3.55-8.25A.58.58,0,0,1,241.56,623.6Z" transform="translate(-27.34 -396.19)"/><path class="cls-11" d="M147.55,642.39c-2,2-4.41,3.7-6.68,5.55-1.14.85-2.28,1.85-3.42,2.7a21.27,21.27,0,0,0-1.85,1.43,8,8,0,0,1-1.85,1.13c-.85.29-1.56-.85-1.14-1.56a6,6,0,0,1,1.71-1.57c.71-.57,1.28-1,1.85-1.42l3.42-2.56a50.22,50.22,0,0,1,7.1-5.13C147.55,640.54,148.26,641.53,147.55,642.39Z" transform="translate(-27.34 -396.19)"/><path class="cls-11" d="M158.5,651.07c-1.28,1.42-2.42,3-3.7,4.56-1.13,1.42-2.41,2.84-3.55,4.26s-2.56,3-3.7,4.42-2.14,3.27-3.56,4.41a1.23,1.23,0,0,1-2-1.42,17.14,17.14,0,0,1,1.85-2.57l1.71-2.13c1.28-1.42,2.41-3,3.69-4.41a57.65,57.65,0,0,1,4-4.42,55.29,55.29,0,0,1,4.12-4C158.07,649.08,159.21,650.22,158.5,651.07Z" transform="translate(-27.34 -396.19)"/><path class="cls-11" d="M170.59,657.76a25.24,25.24,0,0,1-2.56,6.12,29.84,29.84,0,0,1-3.84,5.55,1.34,1.34,0,0,1-2.14-1.56c1.14-1.85,2.56-3.42,3.7-5.27s2.42-3.7,3.7-5.41C169.87,656.62,170.87,657.05,170.59,657.76Z" transform="translate(-27.34 -396.19)"/><path class="cls-11" d="M186.66,662.32c.14,3.55.28,7.25.28,11a91,91,0,0,1-.57,10.81c-.14,1.28-2.13.86-2.13-.28-.14-3.56.29-7.26.43-10.82s.28-7.26.42-10.82A.79.79,0,1,1,186.66,662.32Z" transform="translate(-27.34 -396.19)"/><path class="cls-11" d="M202.87,663.88c.28,1.71.71,3.42,1,5.13.14.85.28,1.85.43,2.7,0,.57.13,1,.13,1.42.14.57.29,1.14-.13,1.57a1.3,1.3,0,0,1-2,.28,1.93,1.93,0,0,1-.57-1.7c0-.57-.14-1-.14-1.43,0-.85-.14-1.71-.14-2.56V664C201.45,663.31,202.73,663.17,202.87,663.88Z" transform="translate(-27.34 -396.19)"/><path class="cls-11" d="M221.64,659.18c1.43,3.42,2,7.26,2.71,11,.43,1.85.71,3.85,1.13,5.7.29,1.56,1,3.56.72,5.26-.14,1.14-1.71,1.14-2.28.29a9.39,9.39,0,0,1-.71-2.85c-.14-.85-.29-1.85-.43-2.7-.28-1.71-.71-3.56-1-5.41-.57-3.7-1.43-7.4-1.43-11.1A.65.65,0,0,1,221.64,659.18Z" transform="translate(-27.34 -396.19)"/><path class="cls-11" d="M237.14,653.92a23.5,23.5,0,0,0,1.28,2.56c.43.85.72,1.71,1.14,2.56.72,1.71,1.28,3.56,2,5.27a1.44,1.44,0,0,1-1,1.85,1.5,1.5,0,0,1-1.85-1c-.57-1.85-1.14-3.56-1.71-5.41-.28-.85-.42-1.71-.71-2.56a19.17,19.17,0,0,0-.57-2.85A.74.74,0,0,1,237.14,653.92Z" transform="translate(-27.34 -396.19)"/><path class="cls-11" d="M249.52,644.1c1.28,1.28,2.13,2.7,3.27,4s2.13,2.56,3.27,3.84,2.28,2.57,3.56,3.85a42.82,42.82,0,0,1,3.55,3.7c.85,1.14-.71,2.56-1.85,1.85a8.8,8.8,0,0,1-2.13-1.85,23,23,0,0,1-1.85-1.85q-1.71-1.92-3.41-3.85c-1.14-1.42-2.28-2.84-3.27-4.27a19.1,19.1,0,0,1-2.56-4.41C247.81,644.24,249.09,643.67,249.52,644.1Z" transform="translate(-27.34 -396.19)"/><path class="cls-11" d="M256.63,636.55c2.56.43,5.12,1,7.53,1.57a36.18,36.18,0,0,1,3.7,1c.57.15,1.28.43,1.85.57a5.58,5.58,0,0,1,1.85.86,1.24,1.24,0,0,1-.57,2c-1.28.28-2.7-.43-3.84-.85s-2.41-.72-3.69-1.14c-2.42-.72-4.84-1.43-7.26-2.28C255.21,638,255.64,636.41,256.63,636.55Z" transform="translate(-27.34 -396.19)"/><path class="cls-11" d="M96.92,749.86c9.1,11.81,14.22,26.19,15.79,41,1.42,13.67-.72,27-5.12,40-4.7,13.52-10.67,26.9-10.39,41.56.14,7.83,1.71,15.66,3,23.35a156.59,156.59,0,0,1,2.27,23.06c.29,15.94-1.14,31.88-2.42,47.83-.14,1.56-2.56,1.56-2.41,0,1.71-17.51,3-35.16,1.71-52.81a213,213,0,0,0-3.28-23.35c-1.28-7.54-2.56-15.09-2.13-22.77.71-14.24,7-27.19,11.38-40.57a89,89,0,0,0,3.84-39.57,92.07,92.07,0,0,0-13.8-36.87C94.64,749.57,96.2,748.86,96.92,749.86Z" transform="translate(-27.34 -396.19)"/><path class="cls-11" d="M497.83,563.24c-2.13-5.12-2.84-10.67-3.41-16.22s-1.14-11.11-2-16.52a80.56,80.56,0,0,0-3.56-13.94c-1.42-3.71-3.41-9.11-7.68-10.4-2.56-.85-5,.57-7,1.85s-4,2.71-6,4.13A104,104,0,0,0,457,521.82c-1.7,1.71-3.41,3.42-5,5.27s-3.7,4-3.27,6.4c.42,2.14,2.7,4.13,4.4,5.27,2.42,1.71,4.27.71,6-1.14a39.3,39.3,0,0,1,10.52-8.11,95.15,95.15,0,0,1,12.52-5c1.7-.57,2.27,2,.71,2.56-5.69,1.85-11.38,4-16.36,7.4a46.73,46.73,0,0,0-6.11,5.69c-1.85,1.71-4.13,2.85-6.69,1.85a15.18,15.18,0,0,1-5.83-4.55,7,7,0,0,1-1.85-6.26c.57-2.42,2.42-4.27,4-6.12,1.84-2.14,3.84-4.13,5.83-6.13a99.36,99.36,0,0,1,12.65-10.53c3.84-2.7,8.68-6.83,13.8-5,4.55,1.71,6.83,6.41,8.53,10.53a66.24,66.24,0,0,1,4.13,15.8c.85,5.41,1.42,11,2,16.37s1.56,11.11,2.27,16.66C499.4,563.81,498.12,563.81,497.83,563.24Z" transform="translate(-27.34 -396.19)"/><path class="cls-11" d="M479.91,504.31c-1.7-2.56-1.85-5.83-4.55-7.68s-5.83-.43-8.39,1a62.88,62.88,0,0,0-13.51,10.25,88.49,88.49,0,0,0-11.52,12.67c-1.42,2-2.84,5-1.42,7.4s5.12,2.14,7.53,1.85c1.57-.14,1.85,2.42.43,2.71-2.7.43-5.69.57-8.11-1a7.27,7.27,0,0,1-3-6.55c.28-5.26,5.12-9.53,8.39-13.09a106.21,106.21,0,0,1,12.37-11.67,74,74,0,0,1,7-4.7c2.28-1.28,4.84-2.71,7.54-2.42,5,.43,8.82,6.26,8.53,11A.67.67,0,0,1,479.91,504.31Z" transform="translate(-27.34 -396.19)"/><path class="cls-11" d="M471.52,494.07c-3.13-4.13-6.83-8.83-12.66-7-2.7.85-5,2.85-7,4.84l-6.68,6.69c-4,3.84-8.67,7.83-11.23,12.95-2.42,4.84-1.57,12.81,5.26,12.24,1.28-.14,1.56,2.14.28,2.42-6,1.57-9.81-4.83-9.53-10s3.42-9.39,6.83-12.95c4.27-4.56,8.82-9,13.37-13.24,3.41-3.27,7.68-6.55,12.8-5.55a13.57,13.57,0,0,1,9.81,9A.7.7,0,0,1,471.52,494.07Z" transform="translate(-27.34 -396.19)"/><path class="cls-11" d="M459,486.66c-2.42-.71-4.27-2.7-6.55-3.7a9.18,9.18,0,0,0-7.25-.42c-2.56,1-4.55,3-6.68,4.69s-4.41,3.56-6.55,5.27a30.57,30.57,0,0,0-5.54,5,11,11,0,0,0-1.85,7.26A32.71,32.71,0,0,0,426,512c.57,2,2.42,5.55,5.12,4,1.56-1,2.85,1.42,1.42,2.27a5.35,5.35,0,0,1-6.26-.57c-2-1.56-2.7-4.12-3.27-6.54-1-4.56-2.13-10,.57-14.24a17.9,17.9,0,0,1,4.84-5c2.13-1.85,4.41-3.56,6.68-5.41,3.56-3,7.54-7,12.52-7.12a13.3,13.3,0,0,1,6.54,1.71c1.85,1,4.41,2.42,5.55,4.41C460,486.09,459.43,486.8,459,486.66Z" transform="translate(-27.34 -396.19)"/><path class="cls-11" d="M422.17,500c-1.71-1.28-2.84-3.13-4.55-4.41a16.4,16.4,0,0,0-5.55-2.56,14,14,0,0,0-10.66,1.42c-1.71,1.14-3.13,3.13-2.42,5.27.57,1.71,2.28,3,3.7,4.13,3.27,2.56,6.54,5,9.24,8.25a38.29,38.29,0,0,1,6.54,10.54c.57,1.42-1.56,2.7-2.13,1.28a40.29,40.29,0,0,0-10-14c-3.12-2.85-8.1-5-9.67-9.11-1.7-4.42,2-8.26,5.84-9.68a16.83,16.83,0,0,1,12.37.14c3.27,1.28,8.1,4.13,8.67,8C423.74,500.19,423,500.61,422.17,500Z" transform="translate(-27.34 -396.19)"/><path class="cls-11" d="M425.87,539.05c2.56,1.7,4.41,4.27,6.54,6.4a38.45,38.45,0,0,0,7.11,5.69,27.91,27.91,0,0,0,8.82,3.56,27.19,27.19,0,0,0,4.83.43c1.57,0,3-.43,4.56-.43,1,0,1.56,1.57.56,2-2.84,1.28-6.68,1-9.67.42a30.21,30.21,0,0,1-9.24-3.41,48.22,48.22,0,0,1-8-6.12c-2.27-2.28-5-4.84-6.25-7.83C425,539.33,425.44,538.62,425.87,539.05Z" transform="translate(-27.34 -396.19)"/><path class="cls-11" d="M449.05,555.56c1,2.13,2,4.27,2.84,6.55s1.57,4.69,2.28,7.11a133.73,133.73,0,0,1,3.41,14.52c.29,1.43-2,2-2.27.57-.86-4.84-2-9.54-3.27-14.23-.71-2.28-1.43-4.56-2.14-6.84s-1.28-4.84-2.13-7.11C447.49,555.27,448.77,554.85,449.05,555.56Z" transform="translate(-27.34 -396.19)"/><path class="cls-11" d="M456.73,586.59q-.21,3-.43,6c-.14,1-.14,2-.28,3,0,.42-.14,1-.14,1.42s-.15,1.14-.29,1.71a1.24,1.24,0,0,1-1.14.85,1.18,1.18,0,0,1-1.13-.85,12.05,12.05,0,0,1,.28-3.28c.14-1.14.29-2.13.43-3.13.28-2.13.71-4.13,1-6.12C455.17,585.31,456.59,585.45,456.73,586.59Z" transform="translate(-27.34 -396.19)"/><path class="cls-11" d="M464.13,586.59a74.3,74.3,0,0,1,1.56,11.1c.14.57-.43,1-1,1.14a1.2,1.2,0,0,1-1.28-.85,103.75,103.75,0,0,1-.71-11.25C462.7,585.88,464.13,585.59,464.13,586.59Z" transform="translate(-27.34 -396.19)"/><path class="cls-11" d="M493.57,573.21a19.21,19.21,0,0,0,1.56,2.13c.43.71,1,1.43,1.42,2.14s1,1.56,1.42,2.28c.15.28.43.71.57,1s.29.43.43.57a1.56,1.56,0,0,1,.28,1c.15.85-1,1.42-1.7,1a4.58,4.58,0,0,1-1.71-2.27c-.43-.86-.85-1.57-1.28-2.28s-.85-1.42-1.28-2.28-.71-1.56-1.14-2.28C491.57,573.21,493,572.5,493.57,573.21Z" transform="translate(-27.34 -396.19)"/><path class="cls-11" d="M501.53,566.8a24,24,0,0,1,2,1.85,23,23,0,0,1,1.85,1.85c.57.72,1.14,1.28,1.71,2,.28.28.56.71.85,1a3.23,3.23,0,0,1,1,1.43,1.28,1.28,0,0,1-.42,1.42,1.08,1.08,0,0,1-1.42.14,2.84,2.84,0,0,1-1.14-1.14c-.29-.28-.57-.71-.86-1l-1.7-2.14c-.57-.71-1-1.42-1.57-2.13a16.86,16.86,0,0,0-1.42-2.14C499.82,567.23,501,566.38,501.53,566.8Z" transform="translate(-27.34 -396.19)"/><path class="cls-11" d="M506.36,562.11c.43-.43.86-.29,1.28,0a31.46,31.46,0,0,0,3.27,2.7,14.28,14.28,0,0,0,1.71,1.42,5.58,5.58,0,0,1,1.57,1.57,1.38,1.38,0,0,1-.15,1.28,1.08,1.08,0,0,1-1.13.43,3.86,3.86,0,0,1-1.28-.71,3.91,3.91,0,0,1-.86-.72,14.6,14.6,0,0,1-1.56-1.42l-3-3A1,1,0,0,1,506.36,562.11Z" transform="translate(-27.34 -396.19)"/><path class="cls-11" d="M473.51,530.36c.71,1.85,1.57,3.56,2.14,5.41s1.13,3.56,1.7,5.41l3.42,10.68c8.1,25.33,16.78,50.53,25.59,75.72.43,1.43-1.7,2-2.27.57l-7.68-21.35c-4.41-12.53-8.68-25-12.8-37.72-2-6.26-4.12-12.67-6.12-19.07-1-3.14-1.84-6.27-2.84-9.4-.57-1.71-1.14-3.42-1.57-5.12s-.56-3.13-1-4.7A.75.75,0,0,1,473.51,530.36Z" transform="translate(-27.34 -396.19)"/><path class="cls-11" d="M463.13,537.34c.71,3.27,1.42,6.69,2,10.1s1,6.41,1.42,9.68c3.42,23.63,6.83,47.12,10.1,70.75.14,1.42-2,2-2.27.57-1-6.69-1.85-13.53-2.85-20.22Q469,590.5,466.4,572.78c-.85-6.12-1.71-12.1-2.56-18.08-.43-2.84-.85-5.55-1.14-8.39s-.57-6-.85-9A.64.64,0,0,1,463.13,537.34Z" transform="translate(-27.34 -396.19)"/><path class="cls-11" d="M481.33,627.87H491c3.27,0,6.4-.14,9.68,0a.93.93,0,0,1,0,1.85c-3.28.14-6.41,0-9.68,0h-9.67A.93.93,0,0,1,481.33,627.87Z" transform="translate(-27.34 -396.19)"/><path class="cls-11" d="M423,509c-.71,4.56-2.27,9-3.55,13.38-1.28,4.56-2.56,9-4,13.38-9.53,31-19.91,61.78-31.58,92.1-.56,1.28-2.56.71-2.13-.57,3.27-8.68,6.54-17.37,9.67-26,5.41-15.37,10.67-30.6,15.65-46.12,2.56-7.83,5-15.66,7.39-23.49q1.71-5.76,3.41-11.53a103.1,103.1,0,0,1,3.7-11.67C422,507.73,423,508.3,423,509Z" transform="translate(-27.34 -396.19)"/><path class="cls-11" d="M430.7,518.26c-1.42,8-3.13,15.8-4.83,23.77q-8.75,42.29-14.93,85c-.29,1.57-2.42.86-2.28-.57,1.14-8.11,2.42-16.08,3.7-24.05,2.27-14.09,4.69-28.33,7.54-42.42s5.54-28.33,9.24-42.13C429.42,516.84,430.85,517.27,430.7,518.26Z" transform="translate(-27.34 -396.19)"/><path class="cls-11" d="M386.05,626.87h7.82a72.89,72.89,0,0,1,7.82.14.72.72,0,0,1,0,1.43,72.89,72.89,0,0,1-7.82.14h-7.82C385.05,628.58,385.05,627.16,386.05,626.87Z" transform="translate(-27.34 -396.19)"/><path class="cls-11" d="M330.73,626c8.53-.14,16.92-.14,25.31-.14H368.7c4,0,8.25-.43,12.23.14.85.14.85,1.71,0,1.85a44.68,44.68,0,0,1-6.12.14H355.9c-8.53,0-16.93-.14-25.31-.14A.93.93,0,1,1,330.73,626Z" transform="translate(-27.34 -396.19)"/><path class="cls-11" d="M414.63,626.16C424.87,626,435,626,445.07,626h15.22c5.12,0,10.23-.29,15.21.14a1.07,1.07,0,0,1,0,2.14c-5.12.42-10.38.14-15.5.14H445.07c-10.24,0-20.34-.14-30.44-.14A1.07,1.07,0,1,1,414.63,626.16Z" transform="translate(-27.34 -396.19)"/><path class="cls-11" d="M508.07,625.88h49.49a1,1,0,0,1,0,2H508.07A1,1,0,0,1,508.07,625.88Z" transform="translate(-27.34 -396.19)"/><path class="cls-11" d="M338,903.59a347.55,347.55,0,0,1,36.12-8.4,480.61,480.61,0,0,1,65.28-7c10.95-.42,21.76-.42,32.71-.14,5.55.29,11,.43,16.5.86a152.9,152.9,0,0,1,16.07,1.42c1.28.28.85,2.14-.29,2.14-6.25-.29-12.37-1-18.63-1.43-6-.28-12.09-.57-18.06-.71a471.84,471.84,0,0,0-65,3,575.33,575.33,0,0,0-64.43,11.39C337.41,904.87,337.13,903.73,338,903.59Z" transform="translate(-27.34 -396.19)"/><path class="cls-11" d="M433.83,899.74a243.58,243.58,0,0,1,35.27-1.56A238.57,238.57,0,0,1,504,901.59c1.56.29.85,2.71-.71,2.42a285,285,0,0,0-34.85-3.55,313.87,313.87,0,0,0-34.7.42C433,900.88,433,899.89,433.83,899.74Z" transform="translate(-27.34 -396.19)"/></g></svg>